<svg xmlns="http://www.w3.org/2000/svg" xmlns:svg="http://www.w3.org/2000/svg" id="svg3045" width="335.5" height="223.5" version="1.1" viewBox="0 0 88.768 59.134"><metadata id="metadata3042"/><path style="fill:#7cd622;fill-opacity:1;stroke:#57ad02;stroke-width:.39687499;stroke-linecap:round;stroke-opacity:1" id="path1052" d="m 0.1984375,3.3734375 v -1.5875 a 1.5875,1.5875 0 0 1 1.5875,-1.5875 h 1.5875 v 0.79375 h 3.96875 v -0.79375 h 3.5718755 13.902252 1.5875 a 1.5875,1.5875 0 0 1 1.5875,1.5875 v 1.5875 h -1.5875 v -1.190625 h -1.5875 v 3.96875 h 1.5875 v -1.190625 h 1.5875 v 1.5875 a 1.5875,1.5875 0 0 1 -1.5875,1.5875 h -1.5875 -13.902252 -0.396876 v 0.79375 H 7.3421875 v -0.79375 h -0.396875 -1.5875 a 1.984375,1.984375 0 0 0 -1.984375,1.9843745 v 1.5875 1.587501 33.337499 1.5875 a 1.984375,1.984375 0 0 0 1.984375,1.984375 h 1.5875 v 0.79375 h 3.9687505 v -0.79375 h 3.174999 v 2.38125 2.38125 1.5875 a 1.5875,1.5875 0 0 1 -1.5875,1.5875 H 10.914063 7.3421875 6.9453125 v 0.79375 h -3.175 v -0.79375 h -0.396875 -1.5875 a 1.5875,1.5875 0 0 1 -1.5875,-1.5875 v -1.5875 z"/><text style="font-size:3.96875px;font-family:sans-serif;text-anchor:start;fill:#282828;stroke-width:.39687499" id="text1056"><tspan id="tspan1054" x="1.984" y="5.953" style="stroke-width:.39687499">変化記号</tspan></text><g id="g1076" transform="matrix(0.396875,0,0,0.396875,3.7041616,8.4666656)"><path style="fill:#fe994f;fill-opacity:1;stroke:#e86b0e;stroke-width:1;stroke-linecap:round;stroke-opacity:1" id="path1066" d="m 0.5,8.5 v -4 a 4,4 90 0 1 4,-4 h 4 v 2 h 10 v -2 h 9 60 4 a 4,4 90 0 1 4,4 v 4 h -4 v -3 h -4 v 10 h 4 v -3 h 4 v 4 a 4,4 90 0 1 -4,4 h -4 -60 -1 v 2 h -8 v -2 h -1 -4 a 5,5 90 0 0 -5,5 v 4 4 42 4 a 5,5 90 0 0 5,5 h 4 v 2 h 10 v -2 h 8 v 6 6 4 a 4,4 90 0 1 -4,4 h -4 -9 -1 v 2 h -8 v -2 h -1 -4 a 4,4 90 0 1 -4,-4 v -4 z"/><text style="font-size:10px;font-family:sans-serif;text-anchor:start;fill:#282828" id="text1070"><tspan id="tspan1068" x="20" y="15">音符</tspan></text><text style="font-size:6.66666651px;font-family:sans-serif;text-anchor:end;fill:#282828" id="text1074"><tspan id="tspan1072" x="85" y="12">長さ</tspan></text></g><g style="isolation:isolate" id="g1094" transform="matrix(0.13229166,0,0,0.13229166,3.7041616,9.524999)"><g id="g1092" data-name="レイヤー 2"><g id="g1090"><rect style="opacity:.4;mix-blend-mode:multiply;fill:#292929" id="rect1080" width="42" height="42" x="0" y="0" rx="5" ry="5"/><path style="fill:#fff" id="path1082" d="m 30.56,29.8 -4.17,-4.16 h 2.26 a 1.035,1.035 0 1 0 0,-2.07 h -4.71 a 1.08,1.08 0 0 0 -1.11,1 v 0 c 0,0 0,0 0,0.06 v 4.64 0 a 1.04,1.04 0 1 0 2.08,0 v -2.19 l 4.19,4.19 a 1,1 0 0 0 1.46,0 1,1 0 0 0 0,-1.47 z"/><path style="fill:#fff" id="path1084" d="m 19.17,24.6 a 1.08,1.08 0 0 0 -1.11,-1 h -4.71 a 1.035,1.035 0 1 0 0,2.07 h 2.25 l -4.16,4.13 a 1.039447,1.039447 0 0 0 1.47,1.47 l 4.18,-4.19 v 2.26 a 1.04,1.04 0 1 0 2.08,0 V 24.7 c 0,0 0,0 0,-0.06 a 0.08,0.08 0 0 1 0,-0.04 z"/><path style="fill:#fff" id="path1086" d="m 23.94,20.5 h 4.7 a 1.04,1.04 0 1 0 0,-2.08 h -2.25 l 4.17,-4.16 a 1,1 0 0 0 0,-1.47 1,1 0 0 0 -1.46,0 L 24.91,17 v -2.28 a 1.04,1.04 0 1 0 -2.08,0 v 4.64 a 0.43,0.43 0 0 0 0,0.05 v 0.05 a 1.09,1.09 0 0 0 1.11,1.04 z"/><path style="fill:#fff" id="path1088" d="m 18.13,13.62 a 1.08,1.08 0 0 0 -1,1.09 V 17 l -4.18,-4.19 a 1,1 0 0 0 -1.47,0 1,1 0 0 0 0,1.46 l 4.16,4.17 h -2.29 a 1.04,1.04 0 1 0 0,2.08 h 4.71 a 1.09,1.09 0 0 0 1.11,-1 c 0,0 0,0 0,-0.06 v -4.75 a 1.07,1.07 0 0 0 -1.04,-1.09 z"/></g></g></g><path style="fill:#ff6ea1;fill-opacity:1;stroke:#ff2c76;stroke-width:.39687499;stroke-linecap:round;stroke-opacity:1" id="path1100" d="m 42.002608,11.840108 v -1.5875 a 1.5875,1.5875 0 0 1 1.5875,-1.5875005 h 1.587499 3.96875 11.90625 1.5875 a 1.5875,1.5875 0 0 1 1.587501,1.5875005 v 1.5875 h -1.587501 v -1.190625 h -1.5875 v 3.96875 h 1.5875 v -1.190625 h 1.587501 v 6.746874 h -1.587501 v -1.190625 h -1.5875 v 3.96875 h 1.5875 v -1.190624 h 1.587501 v 1.587499 a 1.5875,1.5875 0 0 1 -1.587501,1.5875 h -1.5875 -11.90625 -3.96875 -1.587499 a 1.5875,1.5875 0 0 1 -1.5875,-1.5875 v -1.587499 -8.334375 -0.396876 h -2.38125 v 1.190626 h -0.793751 v -3.175 h 0.793751 v 1.190625 h 2.38125 z"/><text style="font-size:3.5718751px;font-family:sans-serif;text-anchor:end;fill:#282828;stroke-width:.39687499" id="text1104" x="38.629" y="8.467"><tspan id="tspan1102" x="60.06" y="17.595" style="stroke-width:.39687499">➗</tspan></text><path style="fill:#ff6ea1;fill-opacity:1;stroke:#ff2c76;stroke-width:.39687499;stroke-linecap:round;stroke-opacity:1" id="path1118" d="m 64.756765,8.6651075 h 23.8125 v 7.9374995 h -23.8125 v -3.174999 -0.396876 h -2.38125 v 1.190626 h -0.79375 v -3.175 h 0.79375 v 1.190625 h 2.38125 v -0.396875 z"/><text style="font-size:3.96875px;font-family:sans-serif;text-anchor:start;fill:#282828;stroke-width:.39687499" id="text1122" x="61.383" y="8.467"><tspan id="tspan1120" x="66.543" y="14.023" style="stroke-width:.39687499">1</tspan></text><path style="fill:#ff6ea1;fill-opacity:1;stroke:#ff2c76;stroke-width:.39687499;stroke-linecap:round;stroke-opacity:1" id="path1128" d="m 64.756765,17.131768 h 23.8125 v 7.9375 h -23.8125 v -3.175 -0.396876 h -2.38125 v 1.190625 h -0.79375 v -3.175 h 0.79375 v 1.190625 h 2.38125 v -0.396875 z"/><text style="font-size:3.96875px;font-family:sans-serif;text-anchor:start;fill:#282828;stroke-width:.39687499" id="text1132" x="61.383" y="16.933"><tspan id="tspan1130" x="66.543" y="22.49" style="stroke-width:.39687499">4</tspan></text><path style="fill:#c4c4c4;fill-opacity:1;stroke:#a0a0a0;stroke-width:.39687499;stroke-linecap:round;stroke-opacity:1" id="path1138" d="m 7.6067675,20.306767 v -1.5875 a 1.5875,1.5875 0 0 1 1.5875,-1.587499 h 1.5875005 v 0.79375 h 3.96875 v -0.79375 h 7.937499 1.5875 a 1.5875,1.5875 0 0 1 1.5875,1.587499 v 1.5875 1.587501 1.587499 a 1.5875,1.5875 0 0 1 -1.5875,1.587501 h -1.5875 -7.937499 -0.396876 v 0.79375 h -3.174999 v -0.79375 H 10.781768 9.1942675 a 1.5875,1.5875 0 0 1 -1.5875,-1.587501 v -1.587499 z"/><text style="font-size:3.96875px;font-family:sans-serif;text-anchor:end;fill:#282828;stroke-width:.39687499" id="text1142" x="7.408" y="16.933"><tspan id="tspan1140" x="21.696" y="22.49" style="stroke-width:.39687499">↓</tspan></text><path style="fill:#7cd622;fill-opacity:1;stroke:#57ad02;stroke-width:.39687499;stroke-linecap:round;stroke-opacity:1" id="path1148" d="m 7.6067675,28.773437 v -1.5875 c 0,-0.876752 0.710748,-1.5875 1.5875,-1.5875 h 1.5875005 v 0.79375 h 3.96875 v -0.79375 h 18.256249 1.5875 c 0.876752,0 1.5875,0.710748 1.5875,1.5875 v 1.5875 h -1.5875 v -1.190625 h -1.5875 v 3.96875 h 1.5875 v -1.190625 h 1.5875 v 6.746875 h -1.5875 v -1.190625 h -1.5875 v 3.96875 h 1.5875 v -1.190625 h 1.5875 v 1.5875 c 0,0.876752 -0.710748,1.5875 -1.5875,1.5875 h -1.5875 -18.256249 -0.396876 v 0.79375 h -3.174999 v -0.79375 H 10.781768 9.1942675 c -0.876752,0 -1.5875,-0.710748 -1.5875,-1.5875 v -1.5875 -8.334375 z"/><text style="font-size:3.96875px;font-family:sans-serif;text-anchor:end;fill:#282828;stroke-width:.39687499" id="text1152" x="13.758" y="25.4"><tspan id="tspan1150" x="32.015" y="34.925" style="stroke-width:.39687499">音の高さ</tspan></text><text style="font-size:2.64583325px;font-family:sans-serif;text-anchor:end;fill:#282828;stroke-width:.39687499" id="text1156" x="13.758" y="25.4"><tspan id="tspan1154" x="32.015" y="30.163" style="stroke-width:.39687499">名前</tspan></text><text style="font-size:2.64583325px;font-family:sans-serif;text-anchor:end;fill:#282828;stroke-width:.39687499" id="text1160" x="13.758" y="25.4"><tspan id="tspan1158" x="32.015" y="38.497" style="stroke-width:.39687499">オクターヴの高さ</tspan></text><path style="fill:#7cd622;fill-opacity:1;stroke:#57ad02;stroke-width:.39687499;stroke-linecap:round;stroke-opacity:1" id="path1166" d="m 36.710941,25.598437 h 23.8125 v 7.9375 h -23.8125 v -3.175 -0.396875 h -2.38125 v 1.190625 h -0.793749 v -3.175 h 0.793749 v 1.190625 h 2.38125 v -0.396875 z"/><text style="font-size:3.96875px;font-family:sans-serif;text-anchor:start;fill:#282828;stroke-width:.39687499" id="text1170" x="33.338" y="25.4"><tspan id="tspan1168" x="38.497" y="30.956" style="stroke-width:.39687499">ソ</tspan></text><path style="fill:#ff6ea1;fill-opacity:1;stroke:#ff2c76;stroke-width:.39687499;stroke-linecap:round;stroke-opacity:1" id="path1176" d="m 36.710941,34.065112 h 23.8125 v 7.9375 h -23.8125 v -3.175 -0.396875 h -2.38125 v 1.190626 h -0.793749 v -3.175001 h 0.793749 v 1.190626 h 2.38125 v -0.396875 z"/><text style="font-size:3.96875px;font-family:sans-serif;text-anchor:start;fill:#282828;stroke-width:.39687499" id="text1180" x="33.338" y="33.867"><tspan id="tspan1178" x="38.497" y="39.423" style="stroke-width:.39687499">4</tspan></text><path style="fill:#7cd622;fill-opacity:1;stroke:#57ad02;stroke-width:.39687499;stroke-linecap:round;stroke-opacity:1" id="path1186" d="m 28.508857,0.1984375 h 43.65625 v 7.9375 h -43.65625 v -3.175 -0.396875 h -2.38125 v 1.190625 h -0.79375 v -3.175 h 0.79375 v 1.190625 h 2.38125 v -0.396875 z"/><text style="font-size:3.96875px;font-family:sans-serif;text-anchor:start;fill:#282828;stroke-width:.39687499" id="text1190" x="25.135"><tspan id="tspan1188" x="30.295" y="5.556" style="stroke-width:.39687499">フラット（変）♭</tspan></text></svg>