<svg xmlns="http://www.w3.org/2000/svg" xmlns:svg="http://www.w3.org/2000/svg" id="svg1870" width="387.221" height="223.476" version="1.1" viewBox="0 0 102.452 59.128"><metadata id="metadata1867"/><path id="path242" d="m 3.770317,26.671287 v -1.5875 c 0,-0.876752 0.710748,-1.5875 1.5875,-1.5875 h 1.5875 v 0.79375 h 3.96875 v -0.79375 h 30.95625 1.5875 c 0.876753,0 1.864754,0.75574 1.587501,1.5875 v 1.5875 h -1.587501 v -1.190625 h -1.5875 v 3.96875 h 1.5875 v -1.190625 h 1.587501 v 8.334375 6.746875 h -1.587501 v -1.190625 h -1.5875 v 3.96875 h 1.5875 v -1.190625 h 1.587501 v 1.5875 c 0,0.876753 -0.710748,1.5875 -1.587501,1.5875 h -1.5875 -30.95625 -0.396875 v 0.79375 h -3.175 v -0.79375 h -0.396875 -1.5875 c -0.876752,0 -2.4315062,-1.350123 -1.5875,-1.5875 v -1.5875 -8.334375 -8.334375 z" style="fill:#728ff9;fill-opacity:1;stroke:#5370dc;stroke-width:.39687499;stroke-linecap:round;stroke-opacity:1"/><text id="text246" x="22.622" y="23.298" style="font-size:3.96875px;font-family:sans-serif;text-anchor:end;fill:#282828;stroke-width:.39687499"><tspan id="tspan244" x="40.878" y="37.188" style="stroke-width:.39687499">円をえがいていどう</tspan></text><text id="text250" x="20.505" y="23.298" style="font-size:2.64583325px;font-family:sans-serif;text-anchor:end;fill:#282828;stroke-width:.39687499"><tspan id="tspan248" x="38.761" y="28.06" style="stroke-width:.39687499">角度</tspan></text><text id="text254" x="22.622" y="23.298" style="font-size:2.64583325px;font-family:sans-serif;text-anchor:end;fill:#282828;stroke-width:.39687499"><tspan id="tspan252" x="40.878" y="44.729" style="stroke-width:.39687499">半径</tspan></text><g id="g268" transform="matrix(0.26458333,0,0,0.26458333,42.06875,39.9666)"><g id="g266" transform="scale(1.5)"><path id="path260" d="m 8.5,0.5 h 60 v 20 h -60 v -8 -1 h -6 v 3 h -2 v -8 h 2 v 3 h 6 v -1 z" style="fill:#ff5293;fill-opacity:1;stroke:#ff2c76;stroke-width:1;stroke-linecap:round;stroke-opacity:1"/><text id="text264" style="font-size:10px;font-family:sans-serif;text-anchor:start;fill:#282828"><tspan id="tspan262" x="13" y="14">100</tspan></text></g></g><g id="g278" transform="matrix(0.26458333,0,0,0.26458333,64.69063,23.29785)"><g id="g276" transform="scale(1.5)"><path id="path270" d="m 8.5,0.5 h 86.147461 v 20 H 8.5 v -8 -1 h -6 v 3 h -2 v -8 h 2 v 3 h 6 v -1 z" style="fill:#ff8b2d;fill-opacity:1;stroke:#e86b0e;stroke-width:1;stroke-linecap:round;stroke-opacity:1"/><text id="text274" style="font-size:10px;font-family:sans-serif;text-anchor:start;fill:#282828"><tspan id="tspan272" x="13" y="14">音の長さ</tspan></text></g></g><g id="g296" transform="matrix(0.26458333,0,0,0.26458333,42.06875,23.29785)"><g id="g294" transform="scale(1.5)"><path id="path280" d="m 8.5,8.5 v -4 a 4,4 90 0 1 4,-4 h 4 10 30 4 a 4,4 90 0 1 4,4 v 4 h -4 v -3 h -4 v 10 h 4 v -3 h 4 v 17 h -4 v -3 h -4 v 10 h 4 v -3 h 4 v 4 a 4,4 90 0 1 -4,4 h -4 -30 -10 -4 a 4,4 90 0 1 -4,-4 v -4 -21 -1 h -6 v 3 h -2 v -8 h 2 v 3 h 6 z" style="fill:#ff5293;fill-opacity:1;stroke:#ff2c76;stroke-width:1;stroke-linecap:round;stroke-opacity:1"/><text id="text284" style="font-size:14px;font-family:sans-serif;text-anchor:end;fill:#282828"><tspan id="tspan282" x="54" y="24">×</tspan></text></g></g><g id="g306" transform="matrix(0.26458333,0,0,0.26458333,64.69063,31.63222)"><g id="g304" transform="scale(1.5)"><path id="path298" d="m 8.5,0.5 h 60 v 20 h -60 v -8 -1 h -6 v 3 h -2 v -8 h 2 v 3 h 6 v -1 z" style="fill:#ff5293;fill-opacity:1;stroke:#ff2c76;stroke-width:1;stroke-linecap:round;stroke-opacity:1"/><text id="text302" style="font-size:10px;font-family:sans-serif;text-anchor:start;fill:#282828"><tspan id="tspan300" x="13" y="14">360</tspan></text></g></g><g id="g340" transform="matrix(0.26458333,0,0,0.26458333,-318.02916,-109.12611)"><g id="g320" transform="translate(1202,460)"><g id="g318" transform="scale(1.5)"><path id="path308" d="m 0.5,14.5 v -4 a 4,4 90 0 1 4,-4 h 4 l 5,-6 5,6 h 9 52 4 a 4,4 90 0 1 4,4 v 4 h -4 v -3 h -4 v 10 h 4 v -3 h 4 v 4 a 4,4 90 0 1 -4,4 h -4 -52 -1 v 2 h -8 v -2 h -1 -4 a 5,5 90 0 0 -5,5 v 4 4 42 4 a 5,5 90 0 0 5,5 h 4 v 2 h 10 v -2 h 8 v 6 6 4 a 4,4 90 0 1 -4,4 h -4 -9 l -5,6 -5,-6 h -4 a 4,4 90 0 1 -4,-4 v -4 z" style="fill:#daa926;fill-opacity:1;stroke:#daaf30;stroke-width:1;stroke-linecap:round;stroke-opacity:1"/><text id="text312" style="font-size:10px;font-family:sans-serif;text-anchor:start;fill:#282828"><tspan id="tspan310" x="20" y="22">アクション</tspan></text></g></g><g id="g338" transform="matrix(0.5,0,0,0.5,1202,472)"><g id="g336" style="isolation:isolate"><g id="g334" data-name="レイヤー 2"><g id="g332"><rect id="rect322" width="42" height="42" x="0" y="0" rx="5" ry="5" style="opacity:.4;mix-blend-mode:multiply;fill:#292929"/><path id="path324" d="m 30.56,29.8 -4.17,-4.16 h 2.26 a 1.035,1.035 0 1 0 0,-2.07 h -4.71 a 1.08,1.08 0 0 0 -1.11,1 v 0 c 0,0 0,0 0,0.06 v 4.64 0 a 1.04,1.04 0 1 0 2.08,0 v -2.19 l 4.19,4.19 a 1,1 0 0 0 1.46,0 1,1 0 0 0 0,-1.47 z" style="fill:#fff"/><path id="path326" d="m 19.17,24.6 a 1.08,1.08 0 0 0 -1.11,-1 h -4.71 a 1.035,1.035 0 1 0 0,2.07 h 2.25 l -4.16,4.13 a 1.039447,1.039447 0 0 0 1.47,1.47 l 4.18,-4.19 v 2.26 a 1.04,1.04 0 1 0 2.08,0 V 24.7 c 0,0 0,0 0,-0.06 a 0.08,0.08 0 0 1 0,-0.04 z" style="fill:#fff"/><path id="path328" d="m 23.94,20.5 h 4.7 a 1.04,1.04 0 1 0 0,-2.08 h -2.25 l 4.17,-4.16 a 1,1 0 0 0 0,-1.47 1,1 0 0 0 -1.46,0 L 24.91,17 v -2.28 a 1.04,1.04 0 1 0 -2.08,0 v 4.64 a 0.43,0.43 0 0 0 0,0.05 v 0.05 a 1.09,1.09 0 0 0 1.11,1.04 z" style="fill:#fff"/><path id="path330" d="m 18.13,13.62 a 1.08,1.08 0 0 0 -1,1.09 V 17 l -4.18,-4.19 a 1,1 0 0 0 -1.47,0 1,1 0 0 0 0,1.46 l 4.16,4.17 h -2.29 a 1.04,1.04 0 1 0 0,2.08 h 4.71 a 1.09,1.09 0 0 0 1.11,-1 c 0,0 0,0 0,-0.06 v -4.75 a 1.07,1.07 0 0 0 -1.04,-1.09 z" style="fill:#fff"/></g></g></g></g></g><g id="g350" transform="matrix(0.26458333,0,0,0.26458333,31.75,14.96347)"><g id="g348" transform="scale(1.5)"><path id="path342" d="m 8.5,0.5 h 90 v 20 h -90 v -8 -1 h -6 v 3 h -2 v -8 h 2 v 3 h 6 v -1 z" style="fill:#ff5942;fill-opacity:1;stroke:#ea4326;stroke-width:1;stroke-linecap:round;stroke-opacity:1"/><text id="text346" style="font-size:10px;font-family:sans-serif;text-anchor:start;fill:#282828"><tspan id="tspan344" x="13" y="14">アクション</tspan></text></g></g><g id="g3706" transform="translate(-112.60015,-150.5522)"><g id="g364" transform="matrix(0.26458333,0,0,0.26458333,112.60015,150.5522)"><g id="g362" transform="scale(1.5)"><path style="fill:#ff8b2d;fill-opacity:1;stroke:#e86b0e;stroke-width:1;stroke-linecap:round;stroke-opacity:1" id="path352" d="m 0.5,8.5 v -4 a 4,4 90 0 1 4,-4 h 4 v 2 h 10 v -2 h 74.49707 4 a 4,4 90 0 1 4,4 v 4 h -4 v -3 h -4 v 10 h 4 v -3 h 4 v 4 a 4,4 90 0 1 -4,4 h -4 H 18.5 h -1 v 2 h -8 v -2 h -1 -4 a 4,4 90 0 1 -4,-4 v -4 z"/><text style="font-size:10px;font-family:sans-serif;text-anchor:end;fill:#282828" id="text356"><tspan id="tspan354" x="91" y="14">全ての音符に～する</tspan></text></g></g><g id="g374" transform="matrix(0.26458333,0,0,0.26458333,149.70679,150.5522)"><g id="g372" transform="scale(1.5)"><path style="fill:#ff5942;fill-opacity:1;stroke:#ea4326;stroke-width:1;stroke-linecap:round;stroke-opacity:1" id="path366" d="m 8.5,0.5 h 90 v 20 h -90 v -8 -1 h -6 v 3 h -2 v -8 h 2 v 3 h 6 v -1 z"/><text style="font-size:10px;font-family:sans-serif;text-anchor:start;fill:#282828" id="text370"><tspan id="tspan368" x="13" y="14">アクション</tspan></text></g></g></g></svg>