<svg xmlns="http://www.w3.org/2000/svg" xmlns:svg="http://www.w3.org/2000/svg" id="svg8" width="361.833" height="428.343" version="1.1" viewBox="0 0 95.735 113.332"><metadata id="metadata5"/><path id="path1317" d="m 0.1984375,5.8662192 0,-1.5875 a 1.5875,1.5875 0 0 1 1.5875,-1.5875 l 1.5875,0 1.984375,-2.38124992 1.984375,2.38124992 3.5718755,0 23.8125,0 1.5875,0 a 1.5875,1.5875 0 0 1 1.5875,1.5875 l 0,1.5875 0,1.5875 0,1.5875 a 1.5875,1.5875 0 0 1 -1.5875,1.5874998 l -1.5875,0 -23.8125,0 -0.396875,0 0,0.79375 -3.1750005,0 0,-0.79375 -0.396875,0 -1.5875,0 a 1.984375,1.984375 0 0 0 -1.984375,1.984375 l 0,1.5875 0,1.5875 0,83.34375 0,1.587496 a 1.984375,1.984375 0 0 0 1.984375,1.98438 l 1.5875,0 0,0.79375 3.9687505,0 0,-0.79375 3.175,0 0,2.38125 0,2.38125 0,1.5875 a 1.5875,1.5875 0 0 1 -1.5875,1.5875 l -1.5875,0 -3.5718755,0 -1.984375,2.38125 -1.984375,-2.38125 -1.5875,0 a 1.5875,1.5875 0 0 1 -1.5875,-1.5875 l 0,-1.5875 z" style="fill:#daa926;fill-opacity:1;stroke:#daaf30;stroke-width:.39687499;stroke-linecap:round;stroke-opacity:1"/><text id="text1321" x="0" y=".112" style="font-size:3.96875px;font-family:sans-serif;text-anchor:start;fill:#282828;stroke-width:.39687499"><tspan id="tspan1319" x="7.938" y="8.843" style="stroke-width:.39687499">スタート</tspan></text><g style="isolation:isolate" id="レイヤー_2" data-name="レイヤー 2" transform="matrix(0.13229166,0,0,0.13229166,0,3.2865317)"><g id="Icon"><rect id="rect1327" width="42" height="42" x="0" y="0" rx="5" ry="5" style="opacity:.4;mix-blend-mode:multiply;fill:#292929"/><path id="path1329" d="m 30.56,29.8 -4.17,-4.16 2.26,0 a 1.035,1.035 0 1 0 0,-2.07 l -4.71,0 a 1.08,1.08 0 0 0 -1.11,1 l 0,0 c 0,0 0,0 0,0.06 l 0,4.64 0,0 a 1.04,1.04 0 1 0 2.08,0 l 0,-2.19 4.19,4.19 a 1,1 0 0 0 1.46,0 1,1 0 0 0 0,-1.47 z" style="fill:#fff"/><path id="path1331" d="m 19.17,24.6 a 1.08,1.08 0 0 0 -1.11,-1 l -4.71,0 a 1.035,1.035 0 1 0 0,2.07 l 2.25,0 -4.16,4.13 a 1.039447,1.039447 0 0 0 1.47,1.47 l 4.18,-4.19 0,2.26 a 1.04,1.04 0 1 0 2.08,0 l 0,-4.64 c 0,0 0,0 0,-0.06 a 0.08,0.08 0 0 1 0,-0.04 z" style="fill:#fff"/><path id="path1333" d="m 23.94,20.5 4.7,0 a 1.04,1.04 0 1 0 0,-2.08 l -2.25,0 4.17,-4.16 a 1,1 0 0 0 0,-1.47 1,1 0 0 0 -1.46,0 l -4.19,4.21 0,-2.28 a 1.04,1.04 0 1 0 -2.08,0 l 0,4.64 a 0.43,0.43 0 0 0 0,0.05 l 0,0.05 a 1.09,1.09 0 0 0 1.11,1.04 z" style="fill:#fff"/><path id="path1335" d="m 18.13,13.62 a 1.08,1.08 0 0 0 -1,1.09 l 0,2.29 -4.18,-4.19 a 1,1 0 0 0 -1.47,0 1,1 0 0 0 0,1.46 l 4.16,4.17 -2.29,0 a 1.04,1.04 0 1 0 0,2.08 l 4.71,0 a 1.09,1.09 0 0 0 1.11,-1 c 0,0 0,0 0,-0.06 l 0,-4.75 a 1.07,1.07 0 0 0 -1.04,-1.09 z" style="fill:#fff"/></g></g><path id="path4725" d="m 32.0675,3.9215317 c 0,0 -0.132783,-0.1058333 -0.211667,-0.1058333 -0.157767,0 -0.311775,0.1001085 -0.423333,0.2116666 -0.167337,0.1673372 -0.179128,0.4430191 -0.3175,0.635 -0.08751,0.1214194 -0.196081,0.2299859 -0.3175,0.3175 -0.191981,0.138372 -0.467663,0.1501628 -0.635,0.3175 -0.111558,0.1115582 -0.211666,0.2655663 -0.211666,0.4233333 0,0.157767 0.124558,0.3746671 0.211666,0.4233333 0.274651,0.1534444 0.08854,0.068634 0.211667,0.2116667 0,0 -0.110113,0.3493355 -0.105833,0.5291666 0.0069,0.2908257 0.211666,0.7408334 0.211666,0.8466667 0,0.1058333 0.383321,0.4729406 0.635,0.635 0.253421,0.1631809 0.563433,0.2179208 0.864107,0.2390179 0.324447,0.022765 0.632507,-0.037715 0.917619,-0.1942262 0.174937,-0.096031 0.319642,-0.2036991 0.440774,-0.3622917 0.17264,-0.2260293 0.350332,-0.4659429 0.423333,-0.7408333 0.04527,-0.1704799 0.02155,-0.3540994 0,-0.5291667 C 33.743063,6.6346674 33.626208,6.4982742 33.655,6.3556983 33.68991,6.1827997 33.900503,6.0933914 33.9725,5.932365 34.04592,5.7681495 34.151105,5.567703 34.078333,5.4031983 33.995113,5.21508 33.722988,5.1956979 33.549167,5.0856983 33.441685,5.0176803 33.326277,4.959047 33.231667,4.8740317 33.026724,4.6898737 32.867347,4.4598061 32.7025,4.2390317 32.6264,4.1371126 32.591917,3.9987387 32.490833,3.9215317 32.402173,3.8538167 32.281907,3.7900676 32.173333,3.8156984 32.124773,3.8271604 32.0675,3.9215317 32.0675,3.9215317" style="fill:#ffada6;stroke:none;stroke-width:.10583333px;stroke-linecap:butt;stroke-linejoin:miter;stroke-miterlimit:4;stroke-dasharray:none;stroke-opacity:1"/><path style="fill:none;stroke:#ed001d;stroke-width:.20682696;stroke-linecap:round;stroke-linejoin:miter;stroke-miterlimit:4;stroke-dasharray:none;stroke-opacity:1" id="path4505-6" d="m 33.657255,6.279751 c 0,0 0.154934,0.6073691 0.105948,0.9084555 -0.05328,0.3274689 -0.183494,0.6688739 -0.423793,0.9084557 -0.218228,0.2175769 -0.339433,0.2993468 -0.635688,0.4037579 -0.136567,0.048131 -0.526364,0.1009395 -0.689404,0.1009395 -0.16304,0 -0.552836,-0.052808 -0.689403,-0.1009396 C 31.028659,8.3960089 30.907455,8.314239 30.689226,8.0966621 30.448928,7.8570803 30.318713,7.5156753 30.265434,7.1882064 30.216448,6.88712 30.371382,6.2797509 30.371382,6.2797509 m 1.377325,-0.605637 c 0,0 -0.436263,0.4980124 -0.741636,0.605637 -0.198735,0.070041 -0.444706,0.087452 -0.635689,0 -0.203814,-0.093327 -0.379261,-0.2934735 -0.423792,-0.5046975 -0.05063,-0.2401539 0.05916,-0.436409 0.261459,-0.5851549 0.218797,-0.1608737 0.48666,-0.1759884 0.692074,-0.3233008 0.266187,-0.1908957 0.308223,-0.5704175 0.52974,-0.807516 0.15035,-0.1609259 0.583455,-0.4037581 0.583455,-0.4037581 0,0 0.433105,0.2428322 0.583456,0.4037581 0.221517,0.2370985 0.263553,0.6166204 0.52974,0.8075161 0.205414,0.1473124 0.480357,0.1551021 0.699155,0.3098095 0.205025,0.1449698 0.305008,0.3584923 0.254378,0.5986462 -0.04453,0.211224 -0.219978,0.4113701 -0.423792,0.5046975 -0.190983,0.087452 -0.436955,0.070041 -0.635689,0 C 32.716193,6.1721264 32.27993,5.674114 32.27993,5.674114"/><g style="fill:none;stroke:#ed001d;stroke-width:1.99999976;stroke-miterlimit:4;stroke-dasharray:none;stroke-opacity:1" id="g4565" transform="matrix(0.10594809,0,0,0.10093951,34.841759,3.8698689)"><g style="fill:none;stroke:#ed001d;stroke-opacity:1" id="g4553" transform="translate(0,-1)"><path style="fill:none;fill-rule:evenodd;stroke:#ed001d;stroke-width:1.93205309;stroke-linecap:butt;stroke-linejoin:miter;stroke-miterlimit:4;stroke-dasharray:none;stroke-opacity:1" id="path3411-7" d="M -30.228157,8.514322 C -33.422908,9.40349 -38.624018,5.874516 -40.102591,4.585664"/><path style="fill:none;fill-rule:evenodd;stroke:#ed001d;stroke-width:1.93205309;stroke-linecap:butt;stroke-linejoin:miter;stroke-miterlimit:4;stroke-dasharray:none;stroke-opacity:1" id="path3413-5" d="M -29.760199,5.904536 C -33.101366,5.473905 -35.931474,3.7361852 -37.633646,2.3416285"/></g><g style="fill:none;stroke:#ed001d;stroke-opacity:1" id="g4557"><path style="fill:none;fill-rule:evenodd;stroke:#ed001d;stroke-width:1.93205309;stroke-linecap:butt;stroke-linejoin:miter;stroke-miterlimit:4;stroke-dasharray:none;stroke-opacity:1" id="path3411-3" d="m -23.145912,7.514322 c 3.194751,0.889168 8.395861,-2.639806 9.874434,-3.928658"/><path style="fill:none;fill-rule:evenodd;stroke:#ed001d;stroke-width:1.93205309;stroke-linecap:butt;stroke-linejoin:miter;stroke-miterlimit:4;stroke-dasharray:none;stroke-opacity:1" id="path3413-56" d="m -23.61387,4.904536 c 3.341167,-0.430631 6.171275,-2.168351 7.873447,-3.5629075"/></g></g><g style="fill:#fff;fill-opacity:.94117647;stroke:#ed001d;stroke-width:1.99999976;stroke-miterlimit:4;stroke-dasharray:none;stroke-opacity:1" id="g4636" transform="matrix(0.10594809,0,0,0.10093951,34.897707,3.6679899)"><ellipse style="fill:#fff;fill-opacity:.94117647;fill-rule:evenodd;stroke:#ed001d;stroke-width:1.99999976;stroke-linecap:butt;stroke-linejoin:miter;stroke-miterlimit:4;stroke-dasharray:none;stroke-opacity:1" id="circle3409-2" cx="-30.837" cy="14.613" rx="1.885" ry="2.067"/><ellipse style="fill:#fff;fill-opacity:.94117647;fill-rule:evenodd;stroke:#ed001d;stroke-width:1.99999976;stroke-linecap:butt;stroke-linejoin:miter;stroke-miterlimit:4;stroke-dasharray:none;stroke-opacity:1" id="ellipse4229-9" cx="-23.593" cy="14.699" rx="1.885" ry="2.067"/></g><g style="fill:none;stroke:#ed001d;stroke-width:1.99999976;stroke-miterlimit:4;stroke-dasharray:none;stroke-opacity:1" id="g4632" transform="matrix(0.10594809,0,0,0.10093951,34.907921,3.6679899)"><path style="fill:none;fill-rule:evenodd;stroke:#ed001d;stroke-width:1px;stroke-linecap:butt;stroke-linejoin:miter;stroke-miterlimit:4;stroke-dasharray:none;stroke-opacity:1" id="path4303-1" d="m -37.186516,14.624518 c -14.340024,2.75008 -4.810404,15.671871 4.375,5.25"/><path style="fill:none;fill-rule:evenodd;stroke:#ed001d;stroke-width:1px;stroke-linecap:butt;stroke-linejoin:miter;stroke-miterlimit:4;stroke-dasharray:none;stroke-opacity:1" id="path4303-1-2" d="m -17.436517,14.624518 c 14.3400245,2.75008 4.810404,15.671872 -4.375,5.25"/></g><path style="fill:#ed001d;fill-opacity:1;fill-rule:evenodd;stroke:#ed001d;stroke-width:.22900541;stroke-linecap:butt;stroke-linejoin:miter;stroke-miterlimit:4;stroke-dasharray:none;stroke-opacity:1" id="path4227-7" d="m 32.272749,3.6553237 c -0.146547,0.1390709 -0.21016,0.25181 -0.260333,0.25181 -0.07014,0 -0.134702,-0.1127391 -0.260333,-0.25181 -0.102967,-0.1139835 0.116555,-0.25181 0.260333,-0.25181 0.143778,0 0.373908,0.1440286 0.260333,0.25181 z"/><path id="path4653" d="m 32.079546,8.6005401 c 0,0 0.07653,0.3306054 0.582104,0.3884079 0.505573,0.057802 1.247209,-0.3999205 1.565054,-1.0055575 0.317844,-0.6056371 0.254284,-1.2161079 0.317844,-1.9178508" style="fill:none;stroke:#ed001d;stroke-width:.20682696;stroke-linecap:round;stroke-linejoin:miter;stroke-miterlimit:4;stroke-dasharray:none;stroke-opacity:1"/><path style="fill:#d68136;fill-opacity:1;stroke:#b7651a;stroke-width:.39687499;stroke-linecap:round;stroke-opacity:1" id="path1365" d="m 3.9025993,22.799548 0,-1.5875 a 1.5875,1.5875 0 0 1 1.5875,-1.5875 l 1.5875,0 0,0.79375 3.9687507,0 0,-0.79375 3.571875,0 4.414459,0 1.5875,0 a 1.5875,1.5875 0 0 1 1.5875,1.5875 l 0,1.5875 0,1.5875 0,1.5875 a 1.5875,1.5875 0 0 1 -1.5875,1.5875 l -1.5875,0 -4.414459,0 -0.396876,0 0,0.79375 -3.174999,0 0,-0.79375 -0.396875,0 -1.5875007,0 a 1.984375,1.984375 0 0 0 -1.984375,1.984375 l 0,1.5875 0,1.5875 0,58.340626 0,1.5875 a 1.984375,1.984375 0 0 0 1.984375,1.984375 l 1.5875007,0 0,0.793749 3.96875,0 0,-0.793749 3.174999,0 0,2.38125 0,2.381249 0,1.587497 a 1.5875,1.5875 0 0 1 -1.5875,1.5875 l -1.587499,0 -3.571875,0 -0.396875,0 0,0.79375 -3.1750007,0 0,-0.79375 -0.396875,0 -1.5875,0 a 1.5875,1.5875 0 0 1 -1.5875,-1.5875 l 0,-1.587497 z"/><text style="font-size:3.96875px;font-family:sans-serif;text-anchor:start;fill:#282828;stroke-width:.39687499" id="text1369" x="3.704" y="19.426"><tspan id="tspan1367" x="5.689" y="25.379" style="stroke-width:.39687499">ずっと</tspan></text><path style="fill:#d68136;fill-opacity:1;stroke:#b7651a;stroke-width:.39687499;stroke-linecap:round;stroke-opacity:1" id="path1375" d="m 7.6067693,39.732889 0,-1.5875 a 1.5875,1.5875 0 0 1 1.5875,-1.587501 l 1.5875007,0 0,0.79375 3.96875,0 0,-0.79375 3.571874,0 5.953125,0 1.5875,0 a 1.5875,1.5875 0 0 1 1.5875,1.587501 l 0,1.5875 0,3.571874 a 3.175,3.175 0 0 0 -3.175,3.175 3.175,3.175 0 0 0 3.175,3.175001 l 0,1.587499 a 1.5875,1.5875 0 0 1 -1.5875,1.5875 l -1.5875,0 -5.953125,0 -0.396875,0 0,0.793751 -3.174999,0 0,-0.793751 -0.396876,0 -1.587499,0 a 1.984375,1.984375 0 0 0 -1.984375,1.984375 l 0,1.5875 0,1.5875 0,25.003126 0,1.587499 a 1.984375,1.984375 0 0 0 1.984375,1.984375 l 1.587499,0 0,0.793751 3.96875,0 0,-0.793751 3.175,0 0,2.381251 0,2.38125 0,1.5875 a 1.5875,1.5875 0 0 1 -1.5875,1.587499 l -1.5875,0 -3.571874,0 -0.396876,0 0,0.793751 -3.174999,0 0,-0.793751 -0.396875,0 -1.5875007,0 a 1.5875,1.5875 0 0 1 -1.5875,-1.587499 l 0,-1.5875 z"/><text style="font-size:3.96875px;font-family:sans-serif;text-anchor:start;fill:#282828;stroke-width:.39687499" id="text1379" x="7.408" y="36.359"><tspan id="tspan1377" x="9.393" y="43.9" style="stroke-width:.39687499">もし</tspan></text><text style="font-size:2.64583325px;font-family:sans-serif;text-anchor:end;fill:#282828;stroke-width:.39687499" id="text1383" x="7.408" y="36.359"><tspan id="tspan1381" x="25.665" y="51.441" style="stroke-width:.39687499">ならば</tspan></text><path style="fill:#728ff9;fill-opacity:1;stroke:#5370dc;stroke-width:.39687499;stroke-linecap:round;stroke-opacity:1" id="path1389" d="m 7.6067693,31.266218 0,-1.5875 a 1.5875,1.5875 0 0 1 1.5875,-1.5875 l 1.5875007,0 0,0.79375 3.96875,0 0,-0.79375 13.233688,0 1.5875,0 a 1.5875,1.5875 0 0 1 1.5875,1.5875 l 0,1.5875 -1.5875,0 0,-1.190625 -1.5875,0 0,3.96875 1.5875,0 0,-1.190625 1.5875,0 0,1.5875 a 1.5875,1.5875 0 0 1 -1.5875,1.5875 l -1.5875,0 -13.233688,0 -0.396876,0 0,0.79375 -3.174999,0 0,-0.79375 -0.396875,0 -1.5875007,0 a 1.5875,1.5875 0 0 1 -1.5875,-1.5875 l 0,-1.5875 z"/><text style="font-size:3.96875px;font-family:sans-serif;text-anchor:end;fill:#282828;stroke-width:.39687499" id="text1393" x="7.408" y="27.893"><tspan id="tspan1391" x="27.252" y="33.449" style="stroke-width:.39687499">前へ進む</tspan></text><path style="fill:#ff5293;fill-opacity:1;stroke:#ff2c76;stroke-width:.39687499;stroke-linecap:round;stroke-opacity:1" id="path1403" d="m 31.683849,28.091218 23.8125,0 0,7.9375 -23.8125,0 0,-3.175 0,-0.396875 -2.38125,0 0,1.190626 -0.793749,0 0,-3.175001 0.793749,0 0,1.190625 2.38125,0 0,-0.396875 z"/><text style="font-size:3.96875px;font-family:sans-serif;text-anchor:start;fill:#282828;stroke-width:.39687499" id="text1407" x="28.31" y="27.893"><tspan id="tspan1405" x="33.47" y="33.449" style="stroke-width:.39687499">10</tspan></text><path style="fill:#728ff9;fill-opacity:1;stroke:#5370dc;stroke-width:.39687499;stroke-linecap:round;stroke-opacity:1" id="path1413" d="m 3.9025993,14.332888 0,-1.5875 a 1.5875,1.5875 0 0 1 1.5875,-1.587499 l 1.5875,0 0,0.79375 3.9687507,0 0,-0.79375 20.522003,0 1.5875,0 a 1.5875,1.5875 0 0 1 1.5875,1.587499 l 0,1.5875 -1.5875,0 0,-1.190625 -1.5875,0 0,3.96875 1.5875,0 0,-1.190624 1.5875,0 0,1.587499 a 1.5875,1.5875 0 0 1 -1.5875,1.5875 l -1.5875,0 -20.522003,0 -0.396875,0 0,0.793751 -3.1750007,0 0,-0.793751 -0.396875,0 -1.5875,0 a 1.5875,1.5875 0 0 1 -1.5875,-1.5875 l 0,-1.587499 z"/><text style="font-size:3.96875px;font-family:sans-serif;text-anchor:end;fill:#282828;stroke-width:.39687499" id="text1417" x="3.704" y="10.959"><tspan id="tspan1415" x="30.692" y="16.516" style="stroke-width:.39687499">向きを設定</tspan></text><path style="fill:#ff5293;fill-opacity:1;stroke:#ff2c76;stroke-width:.39687499;stroke-linecap:round;stroke-opacity:1" id="path1427" d="m 35.12344,11.157889 23.812499,0 0,7.937499 -23.812499,0 0,-3.174999 0,-0.396875 -2.381251,0 0,1.190624 -0.79375,0 0,-3.174999 0.79375,0 0,1.190624 2.381251,0 0,-0.396875 z"/><text style="font-size:3.96875px;font-family:sans-serif;text-anchor:start;fill:#282828;stroke-width:.39687499" id="text1431" x="31.75" y="10.959"><tspan id="tspan1429" x="36.909" y="16.516" style="stroke-width:.39687499">0</tspan></text><path style="fill:#728ff9;fill-opacity:1;stroke:#5370dc;stroke-width:.39687499;stroke-linecap:round;stroke-opacity:1" id="path1465" d="m 45.1776,36.557888 39.070138,0 0,7.9375 -39.070138,0 0,-3.175 0,-0.396875 -2.38125,0 0,1.190625 -0.793751,0 0,-3.175 0.793751,0 0,1.190626 2.38125,0 0,-0.396875 z"/><text style="font-size:3.96875px;font-family:sans-serif;text-anchor:start;fill:#282828;stroke-width:.39687499" id="text1469" x="41.804" y="36.359"><tspan id="tspan1467" x="46.964" y="41.916" style="stroke-width:.39687499">yざひょうち（ネズミ）</tspan></text><path style="fill:#ff5942;fill-opacity:1;stroke:#ea4326;stroke-width:.39687499;stroke-linecap:round;stroke-opacity:1" id="path1475" d="m 45.1776,45.024548 27.78125,0 0,7.9375 -27.78125,0 0,-3.175 0,-0.396875 -2.38125,0 0,1.190625 -0.793751,0 0,-3.175 0.793751,0 0,1.190625 2.38125,0 0,-0.396875 z"/><text style="font-size:3.96875px;font-family:sans-serif;text-anchor:start;fill:#282828;stroke-width:.39687499" id="text1479" x="41.804" y="44.826"><tspan id="tspan1477" x="46.964" y="50.382" style="stroke-width:.39687499">ざひょうち（上）</tspan></text><path id="path1485" d="m 24.804689,46.479763 a 2.778125,2.778125 0 0 1 2.778125,-2.778124 l 0.396875,0 0,-3.96875 a 3.175,3.175 0 0 1 3.175,-3.175001 l 13.49375,0 0,3.175001 -1.5875,0 0,-1.190626 -1.587499,0 0,3.96875 1.587499,0 0,-1.190625 1.5875,0 0,6.746875 -1.5875,0 0,-1.190625 -1.587499,0 0,3.96875 1.587499,0 0,-1.190624 1.5875,0 0,3.174999 -11.90625,0 -4.7625,0 0,-3.174999 0,-0.396876 -0.396875,0 a 2.778125,2.778125 0 0 1 -2.778125,-2.778125 z" style="fill:#c96df3;fill-opacity:1;stroke:#b653d3;stroke-width:.39687499;stroke-linecap:round;stroke-opacity:1"/><text style="font-size:5.5562501px;font-family:sans-serif;text-anchor:end;fill:#282828;stroke-width:.39687499" id="text1491" x="24.606" y="36.359"><tspan id="tspan1489" x="39.688" y="46.678" style="stroke-width:.39687499">&gt;</tspan></text><g id="g4786" transform="translate(11.28889,2.470526e-7)"><path id="path1437" d="m 0.0220498,64.868298 0,-1.587499 c 0,-0.876752 0.710748,-1.587501 1.5875,-1.587501 l 1.5875,0 0,0.79375 3.968749,0 0,-0.79375 34.3076382,0 1.5875,0 c 0.876753,0 1.864755,0.75574 1.587501,1.587501 l 0,1.587499 -1.587501,0 0,-1.190625 -1.5875,0 0,3.96875 1.5875,0 0,-1.190625 1.587501,0 0,6.746876 -1.587501,0 0,-1.190626 -1.5875,0 0,3.96875 1.5875,0 0,-1.190625 1.587501,0 0,1.5875 c 0,0.876752 -0.710748,1.5875 -1.587501,1.5875 l -1.5875,0 -34.3076382,0 -0.396875,0 0,0.79375 -3.174999,0 0,-0.79375 -0.396875,0 -1.5875,0 c -0.876752,0 -1.5875,-0.710748 -1.5875,-1.5875 l 0,-1.5875 0,-8.334375 z" style="fill:#728ff9;fill-opacity:1;stroke:#5370dc;stroke-width:.39687499;stroke-linecap:round;stroke-opacity:1"/><text id="text1441" x="22.225" y="61.495" style="font-size:3.96875px;font-family:sans-serif;text-anchor:end;fill:#282828;stroke-width:.39687499"><tspan style="stroke-width:.39687499" id="tspan1439" x="40.481" y="71.02">定義ざひょうにいどう</tspan></text><text id="text1445" x="22.225" y="61.495" style="font-size:2.64583325px;font-family:sans-serif;text-anchor:end;fill:#282828;stroke-width:.39687499"><tspan style="stroke-width:.39687499" id="tspan1443" x="40.481" y="66.257">xざひょう</tspan></text><text id="text1449" x="22.225" y="61.495" style="font-size:2.64583325px;font-family:sans-serif;text-anchor:end;fill:#282828;stroke-width:.39687499"><tspan style="stroke-width:.39687499" id="tspan1447" x="40.481" y="74.592">yざひょう</tspan></text><path id="path1455" d="m 45.177604,70.159968 28.007981,0 0,7.9375 -28.007981,0 0,-3.175 0,-0.396875 -2.38125,0 0,1.190625 -0.79375,0 0,-3.175 0.79375,0 0,1.190625 2.38125,0 0,-0.396875 z" style="fill:#ff5942;fill-opacity:1;stroke:#ea4326;stroke-width:.39687499;stroke-linecap:round;stroke-opacity:1"/><text id="text1459" x="41.804" y="69.962" style="font-size:3.96875px;font-family:sans-serif;text-anchor:start;fill:#282828;stroke-width:.39687499"><tspan style="stroke-width:.39687499" id="tspan1457" x="46.964" y="75.518">ざひょうち（下）</tspan></text><path id="path1707" d="m 45.177604,61.693298 39.070138,0 0,7.9375 -39.070138,0 0,-3.175 0,-0.396874 -2.38125,0 0,1.190625 -0.79375,0 0,-3.175 0.79375,0 0,1.190625 2.38125,0 0,-0.396876 z" style="fill:#728ff9;fill-opacity:1;stroke:#5370dc;stroke-width:.39687499;stroke-linecap:round;stroke-opacity:1"/><text id="text1711" x="41.804" y="61.495" style="font-size:3.96875px;font-family:sans-serif;text-anchor:start;fill:#282828;stroke-width:.39687499"><tspan style="stroke-width:.39687499" id="tspan1709" x="46.964" y="67.051">xざひょうち（ネズミ）</tspan></text></g><path style="fill:#728ff9;fill-opacity:1;stroke:#5370dc;stroke-width:.39687499;stroke-linecap:round;stroke-opacity:1" id="path1717" d="m 11.31094,56.401639 0,-1.5875 c 0,-0.876753 0.710747,-1.587501 1.5875,-1.587501 l 1.5875,0 0,0.793751 3.968749,0 0,-0.793751 25.367962,0 1.5875,0 c 0.876752,0 1.5875,0.710748 1.5875,1.587501 l 0,1.5875 0,1.5875 0,1.5875 c 0,0.876752 -0.710748,1.587499 -1.5875,1.587499 l -1.5875,0 -25.367962,0 -0.396875,0 0,0.793751 -3.174999,0 0,-0.793751 -0.396875,0 -1.5875,0 c -0.876753,0 -1.5875,-0.710747 -1.5875,-1.587499 l 0,-1.5875 z"/><text style="font-size:3.96875px;font-family:sans-serif;text-anchor:end;fill:#282828;stroke-width:.39687499" id="text1721" x="21.696" y="53.028"><tspan id="tspan1719" x="40.349" y="58.584" style="stroke-width:.39687499">ペンを上げる</tspan></text><path style="fill:#728ff9;fill-opacity:1;stroke:#5370dc;stroke-width:.39687499;stroke-linecap:round;stroke-opacity:1" id="path1727" d="m 11.31094,81.537048 0,-1.587499 a 1.5875,1.5875 0 0 1 1.5875,-1.587501 l 1.5875,0 0,0.793751 3.968749,0 0,-0.793751 17.212128,0 1.5875,0 a 1.5875,1.5875 0 0 1 1.5875,1.587501 l 0,1.587499 0,1.587501 0,1.5875 a 1.5875,1.5875 0 0 1 -1.5875,1.587499 l -1.5875,0 -17.212128,0 -0.396875,0 0,0.793751 -3.174999,0 0,-0.793751 -0.396875,0 -1.5875,0 a 1.5875,1.5875 0 0 1 -1.5875,-1.587499 l 0,-1.5875 z"/><text style="font-size:3.96875px;font-family:sans-serif;text-anchor:end;fill:#282828;stroke-width:.39687499" id="text1731" x="11.113" y="78.164"><tspan id="tspan1729" x="34.925" y="83.72" style="stroke-width:.39687499">ペン下ろす</tspan></text></svg>