<svg xmlns="http://www.w3.org/2000/svg" xmlns:svg="http://www.w3.org/2000/svg" id="svg2831" width="242.124" height="183.386" version="1.1" viewBox="0 0 64.062 48.521"><metadata id="metadata2828"/><g id="layer1" transform="translate(84.741874,-109.39791)"><g id="g2348" transform="matrix(0.26458333,0,0,0.26458333,-358.05645,25.260408)"><g id="g1020" transform="translate(1106.5,318)"><g id="g1018" transform="scale(1.5)"><path style="fill:#ff5942;fill-opacity:1;stroke-width:1;stroke-linecap:round;stroke-opacity:1" id="path1012" d="m 8.5,0.5 h 70 v 20 h -70 v -8 -1 h -6 v 3 h -2 v -8 h 2 v 3 h 6 v -1 z"/><text style="font-size:10px;font-family:sans-serif;text-anchor:start;fill:#282828" id="text1016"><tspan id="tspan1014" x="13" y="14">クリック</tspan></text></g></g><g id="g1038" transform="translate(1033,318)"><g id="g1036" transform="scale(1.5)"><path style="fill:#daa926;fill-opacity:1;stroke:#daaf30;stroke-width:1;stroke-linecap:round;stroke-opacity:1" id="path1022" d="m 0.5,8.5 v -4 a 4,4 90 0 1 4,-4 h 4 v 2 h 10 v -2 h 30 4 a 4,4 90 0 1 4,4 v 4 h -4 v -3 h -4 v 10 h 4 v -3 h 4 v 17 h -4 v -3 h -4 v 10 h 4 v -3 h 4 v 4 a 4,4 90 0 1 -4,4 h -4 -30 -1 v 2 h -8 v -2 h -1 -4 a 4,4 90 0 1 -4,-4 v -4 -21 z"/><text style="font-size:10px;font-family:sans-serif;text-anchor:end;fill:#282828" id="text1026"><tspan id="tspan1024" x="46" y="24">のとき</tspan></text><text style="font-size:6.66666651px;font-family:sans-serif;text-anchor:end;fill:#282828" id="text1030"><tspan id="tspan1028" x="46" y="12">イベント</tspan></text><text style="font-size:6.66666651px;font-family:sans-serif;text-anchor:end;fill:#282828" id="text1034"><tspan id="tspan1032" x="46" y="33">アクション実行</tspan></text></g></g><g id="g1058" transform="translate(1106.5,349.5)"><g id="g1056" transform="scale(1.5)"><path style="fill:#ff5942;fill-opacity:1;stroke-width:1;stroke-linecap:round;stroke-opacity:1" id="path1050" d="m 8.5,0.5 h 90 v 20 h -90 v -8 -1 h -6 v 3 h -2 v -8 h 2 v 3 h 6 v -1 z"/><text style="font-size:10px;font-family:sans-serif;text-anchor:start;fill:#282828" id="text1054"><tspan id="tspan1052" x="13" y="14">アクション</tspan></text></g></g></g><g id="g2369" transform="matrix(0.26458333,0,0,0.26458333,-362.28978,12.187495)"><g id="g794" transform="translate(1049,443)"><g id="g792" transform="scale(1.5)"><path style="fill:#daa926;fill-opacity:1;stroke:#daaf30;stroke-width:1;stroke-linecap:round;stroke-opacity:1" id="path778" d="m 0.5,8.5 v -4 a 4,4 90 0 1 4,-4 h 4 v 2 h 10 v -2 h 30 4 a 4,4 90 0 1 4,4 v 4 h -4 v -3 h -4 v 10 h 4 v -3 h 4 v 17 h -4 v -3 h -4 v 10 h 4 v -3 h 4 v 4 a 4,4 90 0 1 -4,4 h -4 -30 -1 v 2 h -8 v -2 h -1 -4 a 4,4 90 0 1 -4,-4 v -4 -21 z"/><text style="font-size:10px;font-family:sans-serif;text-anchor:end;fill:#282828" id="text782"><tspan id="tspan780" x="46" y="24">のとき</tspan></text><text style="font-size:6.66666651px;font-family:sans-serif;text-anchor:end;fill:#282828" id="text786"><tspan id="tspan784" x="46" y="12">イベント</tspan></text><text style="font-size:6.66666651px;font-family:sans-serif;text-anchor:end;fill:#282828" id="text790"><tspan id="tspan788" x="46" y="33">アクション実行</tspan></text></g></g><g id="g804" transform="translate(1122.5,443)"><g id="g802" transform="scale(1.5)"><path style="fill:#ff5942;fill-opacity:1;stroke-width:1;stroke-linecap:round;stroke-opacity:1" id="path796" d="m 8.5,0.5 h 90 v 20 h -90 v -8 -1 h -6 v 3 h -2 v -8 h 2 v 3 h 6 v -1 z"/><text style="font-size:10px;font-family:sans-serif;text-anchor:start;fill:#282828" id="text800"><tspan id="tspan798" x="13" y="14">イベント</tspan></text></g></g><g id="g814" transform="translate(1122.5,474.5)"><g id="g812" transform="scale(1.5)"><path style="fill:#ff5942;fill-opacity:1;stroke-width:1;stroke-linecap:round;stroke-opacity:1" id="path806" d="m 8.5,0.5 h 90 v 20 h -90 v -8 -1 h -6 v 3 h -2 v -8 h 2 v 3 h 6 v -1 z"/><text style="font-size:10px;font-family:sans-serif;text-anchor:start;fill:#282828" id="text810"><tspan id="tspan808" x="13" y="14">アクション</tspan></text></g></g></g><g id="g2383" transform="matrix(0.26458333,0,0,0.26458333,-362.55437,5.9156199)"><g id="g828" transform="translate(1050,540)"><g id="g826" transform="scale(1.5)"><path style="fill:#daa926;fill-opacity:1;stroke:#daaf30;stroke-width:1;stroke-linecap:round;stroke-opacity:1" id="path816" d="m 0.5,8.5 v -4 a 4,4 90 0 1 4,-4 h 4 v 2 h 10 v -2 h 43.916016 4 a 4,4 90 0 1 4,4 v 4 h -4 v -3 h -4 v 10 h 4 v -3 h 4 v 4 a 4,4 90 0 1 -4,4 h -4 H 18.5 h -1 v 2 h -8 v -2 h -1 -4 a 4,4 90 0 1 -4,-4 v -4 z"/><text style="font-size:10px;font-family:sans-serif;text-anchor:end;fill:#282828" id="text820"><tspan id="tspan818" x="60" y="14">イベント発生</tspan></text></g></g><g id="g838" transform="translate(1144.374,540)"><g id="g836" transform="scale(1.5)"><path style="fill:#ff5942;fill-opacity:1;stroke-width:1;stroke-linecap:round;stroke-opacity:1" id="path830" d="m 8.5,0.5 h 90 v 20 h -90 v -8 -1 h -6 v 3 h -2 v -8 h 2 v 3 h 6 v -1 z"/><text style="font-size:10px;font-family:sans-serif;text-anchor:start;fill:#282828" id="text834"><tspan id="tspan832" x="13" y="14">イベント</tspan></text></g></g></g></g></svg>