<svg xmlns="http://www.w3.org/2000/svg" xmlns:svg="http://www.w3.org/2000/svg" id="svg3045" width="335.5" height="286.5" version="1.1" viewBox="0 0 88.768 75.803"><metadata id="metadata3042"/><path id="path1288" d="m 0.1984375,3.3734375 v -1.5875 c 0,-0.87675204 0.71074796,-1.5875 1.5875,-1.5875 h 1.5875 v 0.79375 h 3.96875 v -0.79375 h 3.5718755 29.639146 1.5875 c 0.876752,0 1.5875,0.71074796 1.5875,1.5875 v 1.5875 h -1.5875 v -1.190625 h -1.5875 v 3.96875 h 1.5875 v -1.190625 h 1.5875 v 6.7468745 h -1.5875 v -1.190625 h -1.5875 v 3.96875 h 1.5875 v -1.190624 h 1.5875 v 6.746874 h -1.5875 v -1.190625 h -1.5875 v 3.96875 h 1.5875 v -1.190625 h 1.5875 v 1.5875 c 0,0.876752 -0.710748,1.5875 -1.5875,1.5875 h -1.5875 -29.639146 -0.396876 v 0.79375 H 7.3421875 v -0.79375 h -0.396875 -1.5875 c -1.0959401,0 -1.984375,0.888435 -1.984375,1.984375 v 1.5875 1.5875 33.3375 1.5875 c 0,1.09594 0.8884349,1.984375 1.984375,1.984375 h 1.5875 v 0.79375 h 3.9687505 v -0.79375 h 3.174999 v 2.381251 2.381249 1.587501 c -1e-6,0.876752 -0.710748,1.587499 -1.5875,1.587499 H 10.914063 7.3421875 6.9453125 v 0.79375 h -3.175 v -0.79375 h -0.396875 -1.5875 c -0.87675165,0 -1.58749945,-0.710747 -1.5875,-1.587499 v -1.587501 z" style="fill:#3edcdd;fill-opacity:1;stroke:#1dbcbd;stroke-width:.39687499;stroke-linecap:round;stroke-opacity:1"/><text id="text1292" x="21.696" style="font-size:3.96875px;font-family:sans-serif;text-anchor:start;fill:#282828;stroke-width:.39687499"><tspan style="stroke-width:.39687499" id="tspan1290" x="23.68" y="8.731">コーラス</tspan></text><text id="text1296" x="21.696" style="font-size:2.64583325px;font-family:sans-serif;text-anchor:end;fill:#282828;stroke-width:.39687499"><tspan style="stroke-width:.39687499" id="tspan1294" x="39.555" y="4.762">はやさ</tspan></text><text id="text1300" x="21.696" style="font-size:2.64583325px;font-family:sans-serif;text-anchor:end;fill:#282828;stroke-width:.39687499"><tspan style="stroke-width:.39687499" id="tspan1298" x="39.555" y="13.097">ずれ（MS）</tspan></text><text id="text1304" x="21.696" style="font-size:2.64583325px;font-family:sans-serif;text-anchor:end;fill:#282828;stroke-width:.39687499"><tspan style="stroke-width:.39687499" id="tspan1302" x="39.555" y="21.431">大きさ</tspan></text><path id="path1310" d="m 44.119284,0.1984375 h 23.8125 v 7.9375 h -23.8125 v -3.175 -0.396875 h -2.38125 v 1.190625 h -0.793749 v -3.175 h 0.793749 v 1.190625 h 2.38125 v -0.396875 z" style="fill:#ff6ea1;fill-opacity:1;stroke:#ff2c76;stroke-width:.39687499;stroke-linecap:round;stroke-opacity:1"/><text id="text1314" x="40.746" style="font-size:3.96875px;font-family:sans-serif;text-anchor:start;fill:#282828;stroke-width:.39687499"><tspan style="stroke-width:.39687499" id="tspan1312" x="45.905" y="5.556">1.5</tspan></text><path id="path1320" d="m 44.119284,8.6651075 h 23.8125 v 7.9374995 h -23.8125 v -3.174999 -0.396876 h -2.38125 v 1.190626 h -0.793749 v -3.175 h 0.793749 v 1.190625 h 2.38125 v -0.396875 z" style="fill:#ff6ea1;fill-opacity:1;stroke:#ff2c76;stroke-width:.39687499;stroke-linecap:round;stroke-opacity:1"/><text id="text1324" x="40.746" y="8.467" style="font-size:3.96875px;font-family:sans-serif;text-anchor:start;fill:#282828;stroke-width:.39687499"><tspan style="stroke-width:.39687499" id="tspan1322" x="45.905" y="14.023">3.5</tspan></text><path id="path1330" d="m 44.119284,16.867187 h 23.8125 v 7.9375 h -23.8125 v -3.175 -0.396875 h -2.38125 v 1.190625 h -0.793749 v -3.175 h 0.793749 v 1.190625 h 2.38125 v -0.396875 z" style="fill:#ff6ea1;fill-opacity:1;stroke:#ff2c76;stroke-width:.39687499;stroke-linecap:round;stroke-opacity:1"/><text id="text1334" x="40.746" y="16.669" style="font-size:3.96875px;font-family:sans-serif;text-anchor:start;fill:#282828;stroke-width:.39687499"><tspan style="stroke-width:.39687499" id="tspan1332" x="45.905" y="22.225">70</tspan></text><g id="g1540" transform="matrix(0.396875,0,0,0.396875,3.7041598,25.135423)"><path id="path1530" d="m 0.5,8.5 v -4 a 4,4 90 0 1 4,-4 h 4 v 2 h 10 v -2 h 9 60 4 a 4,4 90 0 1 4,4 v 4 h -4 v -3 h -4 v 10 h 4 v -3 h 4 v 4 a 4,4 90 0 1 -4,4 h -4 -60 -1 v 2 h -8 v -2 h -1 -4 a 5,5 90 0 0 -5,5 v 4 4 42 4 a 5,5 90 0 0 5,5 h 4 v 2 h 10 v -2 h 8 v 6 6 4 a 4,4 90 0 1 -4,4 h -4 -9 -1 v 2 h -8 v -2 h -1 -4 a 4,4 90 0 1 -4,-4 v -4 z" style="fill:#fe994f;fill-opacity:1;stroke:#e86b0e;stroke-width:1;stroke-linecap:round;stroke-opacity:1"/><text id="text1534" style="font-size:10px;font-family:sans-serif;text-anchor:start;fill:#282828"><tspan id="tspan1532" x="20" y="15">音符</tspan></text><text id="text1538" style="font-size:6.66666651px;font-family:sans-serif;text-anchor:end;fill:#282828"><tspan id="tspan1536" x="85" y="12">長さ</tspan></text></g><g id="g1558" transform="matrix(0.13229166,0,0,0.13229166,3.7041598,26.193756)" style="isolation:isolate"><g id="g1556" data-name="レイヤー 2"><g id="g1554"><rect id="rect1544" width="42" height="42" x="0" y="0" rx="5" ry="5" style="opacity:.4;mix-blend-mode:multiply;fill:#292929"/><path id="path1546" d="m 30.56,29.8 -4.17,-4.16 h 2.26 a 1.035,1.035 0 1 0 0,-2.07 h -4.71 a 1.08,1.08 0 0 0 -1.11,1 v 0 c 0,0 0,0 0,0.06 v 4.64 0 a 1.04,1.04 0 1 0 2.08,0 v -2.19 l 4.19,4.19 a 1,1 0 0 0 1.46,0 1,1 0 0 0 0,-1.47 z" style="fill:#fff"/><path id="path1548" d="m 19.17,24.6 a 1.08,1.08 0 0 0 -1.11,-1 h -4.71 a 1.035,1.035 0 1 0 0,2.07 h 2.25 l -4.16,4.13 a 1.039447,1.039447 0 0 0 1.47,1.47 l 4.18,-4.19 v 2.26 a 1.04,1.04 0 1 0 2.08,0 V 24.7 c 0,0 0,0 0,-0.06 a 0.08,0.08 0 0 1 0,-0.04 z" style="fill:#fff"/><path id="path1550" d="m 23.94,20.5 h 4.7 a 1.04,1.04 0 1 0 0,-2.08 h -2.25 l 4.17,-4.16 a 1,1 0 0 0 0,-1.47 1,1 0 0 0 -1.46,0 L 24.91,17 v -2.28 a 1.04,1.04 0 1 0 -2.08,0 v 4.64 a 0.43,0.43 0 0 0 0,0.05 v 0.05 a 1.09,1.09 0 0 0 1.11,1.04 z" style="fill:#fff"/><path id="path1552" d="m 18.13,13.62 a 1.08,1.08 0 0 0 -1,1.09 V 17 l -4.18,-4.19 a 1,1 0 0 0 -1.47,0 1,1 0 0 0 0,1.46 l 4.16,4.17 h -2.29 a 1.04,1.04 0 1 0 0,2.08 h 4.71 a 1.09,1.09 0 0 0 1.11,-1 c 0,0 0,0 0,-0.06 v -4.75 a 1.07,1.07 0 0 0 -1.04,-1.09 z" style="fill:#fff"/></g></g></g><path id="path1564" d="m 42.002605,28.508857 v -1.5875 a 1.5875,1.5875 0 0 1 1.5875,-1.5875 h 1.587499 3.96875 11.90625 1.5875 a 1.5875,1.5875 0 0 1 1.5875,1.5875 v 1.5875 h -1.5875 v -1.190625 h -1.5875 v 3.96875 h 1.5875 v -1.190625 h 1.5875 v 6.746875 h -1.5875 v -1.190624 h -1.5875 v 3.96875 h 1.5875 v -1.190626 h 1.5875 v 1.5875 a 1.5875,1.5875 0 0 1 -1.5875,1.587501 h -1.5875 -11.90625 -3.96875 -1.587499 a 1.5875,1.5875 0 0 1 -1.5875,-1.587501 v -1.5875 -8.334375 -0.396875 h -2.38125 v 1.190625 h -0.793751 v -3.175 h 0.793751 v 1.190625 h 2.38125 z" style="fill:#ff6ea1;fill-opacity:1;stroke:#ff2c76;stroke-width:.39687499;stroke-linecap:round;stroke-opacity:1"/><text id="text1568" x="38.629" y="25.135" style="font-size:3.5718751px;font-family:sans-serif;text-anchor:end;fill:#282828;stroke-width:.39687499"><tspan style="stroke-width:.39687499" id="tspan1566" x="60.06" y="34.264">➗</tspan></text><path id="path1582" d="m 64.756771,25.333857 h 23.8125 v 7.9375 h -23.8125 v -3.175 -0.396875 H 62.37552 v 1.190625 h -0.79375 v -3.175 h 0.79375 v 1.190625 h 2.381251 v -0.396875 z" style="fill:#ff6ea1;fill-opacity:1;stroke:#ff2c76;stroke-width:.39687499;stroke-linecap:round;stroke-opacity:1"/><text id="text1586" x="61.383" y="25.135" style="font-size:3.96875px;font-family:sans-serif;text-anchor:start;fill:#282828;stroke-width:.39687499"><tspan style="stroke-width:.39687499" id="tspan1584" x="66.543" y="30.692">1</tspan></text><path id="path1592" d="m 64.756771,33.800527 h 23.8125 v 7.9375 h -23.8125 v -3.175 -0.396875 H 62.37552 v 1.190625 h -0.79375 v -3.175 h 0.79375 v 1.190625 h 2.381251 v -0.396875 z" style="fill:#ff6ea1;fill-opacity:1;stroke:#ff2c76;stroke-width:.39687499;stroke-linecap:round;stroke-opacity:1"/><text id="text1596" x="61.383" y="33.602" style="font-size:3.96875px;font-family:sans-serif;text-anchor:start;fill:#282828;stroke-width:.39687499"><tspan style="stroke-width:.39687499" id="tspan1594" x="66.543" y="39.158">4</tspan></text><path id="path1602" d="m 7.6067707,36.975527 v -1.5875 a 1.5875,1.5875 0 0 1 1.5875,-1.5875 h 1.5875003 v 0.79375 h 3.96875 v -0.79375 h 7.9375 1.5875 a 1.5875,1.5875 0 0 1 1.5875,1.5875 v 1.5875 1.5875 1.5875 a 1.5875,1.5875 0 0 1 -1.5875,1.5875 h -1.5875 -7.9375 -0.396875 v 0.79375 h -3.175 v -0.79375 H 10.781771 9.1942707 a 1.5875,1.5875 0 0 1 -1.5875,-1.5875 v -1.5875 z" style="fill:#c4c4c4;fill-opacity:1;stroke:#a0a0a0;stroke-width:.39687499;stroke-linecap:round;stroke-opacity:1"/><text id="text1606" x="7.408" y="33.602" style="font-size:3.96875px;font-family:sans-serif;text-anchor:end;fill:#282828;stroke-width:.39687499"><tspan style="stroke-width:.39687499" id="tspan1604" x="21.696" y="39.158">↓</tspan></text><path id="path1612" d="m 7.6067707,45.442188 v -1.5875 c -6e-7,-0.876752 0.7107476,-1.587501 1.5875,-1.587501 h 1.5875003 v 0.793751 h 3.96875 v -0.793751 h 18.25625 1.5875 c 0.876752,0 1.864753,0.755741 1.5875,1.587501 v 1.5875 h -1.5875 v -1.190626 h -1.5875 v 3.96875 h 1.5875 v -1.190624 h 1.5875 v 6.746874 h -1.5875 v -1.190625 h -1.5875 v 3.96875 h 1.5875 v -1.190624 h 1.5875 v 1.5875 c 0,0.876752 -0.710748,1.587499 -1.5875,1.587499 h -1.5875 -18.25625 -0.396875 v 0.793751 h -3.175 V 58.539062 H 10.781771 9.1942707 c -0.8767516,0 -1.5874994,-0.710747 -1.5875,-1.587499 v -1.5875 -8.334375 z" style="fill:#7cd622;fill-opacity:1;stroke:#57ad02;stroke-width:.39687499;stroke-linecap:round;stroke-opacity:1"/><text id="text1616" x="13.229" y="42.069" style="font-size:3.96875px;font-family:sans-serif;text-anchor:end;fill:#282828;stroke-width:.39687499"><tspan style="stroke-width:.39687499" id="tspan1614" x="31.485" y="51.594">音の高さ</tspan></text><text id="text1620" x="13.229" y="42.069" style="font-size:2.64583325px;font-family:sans-serif;text-anchor:end;fill:#282828;stroke-width:.39687499"><tspan style="stroke-width:.39687499" id="tspan1618" x="31.485" y="46.831">名前</tspan></text><text id="text1624" x="13.229" y="42.069" style="font-size:2.64583325px;font-family:sans-serif;text-anchor:end;fill:#282828;stroke-width:.39687499"><tspan style="stroke-width:.39687499" id="tspan1622" x="31.485" y="55.166">オクターヴの高さ</tspan></text><path id="path1630" d="m 36.710941,42.267187 h 23.8125 v 7.9375 h -23.8125 v -3.174999 -0.396876 h -2.38125 v 1.190625 h -0.793749 v -3.175 h 0.793749 v 1.190626 h 2.38125 v -0.396875 z" style="fill:#7cd622;fill-opacity:1;stroke:#57ad02;stroke-width:.39687499;stroke-linecap:round;stroke-opacity:1"/><text id="text1634" x="33.338" y="42.069" style="font-size:3.96875px;font-family:sans-serif;text-anchor:start;fill:#282828;stroke-width:.39687499"><tspan style="stroke-width:.39687499" id="tspan1632" x="38.497" y="47.625">ソ</tspan></text><path id="path1640" d="m 36.710941,50.733857 h 23.8125 v 7.9375 h -23.8125 v -3.174999 -0.396876 h -2.38125 v 1.190626 h -0.793749 v -3.175001 h 0.793749 v 1.190626 h 2.38125 v -0.396875 z" style="fill:#ff6ea1;fill-opacity:1;stroke:#ff2c76;stroke-width:.39687499;stroke-linecap:round;stroke-opacity:1"/><text id="text1644" x="33.338" y="50.535" style="font-size:3.96875px;font-family:sans-serif;text-anchor:start;fill:#282828;stroke-width:.39687499"><tspan style="stroke-width:.39687499" id="tspan1642" x="38.497" y="56.092">4</tspan></text></svg>