<svg xmlns="http://www.w3.org/2000/svg" xmlns:svg="http://www.w3.org/2000/svg" id="svg11666" width="334.5" height="538.5" version="1.1" viewBox="0 0 88.503 142.478"><metadata id="metadata11663"/><path id="path2820" d="m 0.19844024,3.3734347 v -1.5875 c -10e-9,-0.87675203 0.71074793,-1.58749999 1.58749996,-1.58750001 h 1.5875 v 0.79375 h 3.96875 v -0.79375 h 3.5718748 27.223274 1.5875 c 0.876752,0 1.864753,0.75573999 1.5875,1.58750001 v 1.5875 h -1.5875 v -1.190625 h -1.5875 v 3.96875 h 1.5875 v -1.190625 h 1.5875 v 1.5875 c 0,0.876752 -0.710748,1.5875 -1.5875,1.5875 h -1.5875 -27.223274 -0.396875 v 0.79375 H 7.3421902 v -0.79375 h -0.396875 -1.5875 c -1.0959402,0 -1.9843752,0.8884351 -1.984375,1.9843753 v 1.5875 1.5875 116.68125 1.5875 c 2.8e-6,1.09594 0.8884369,1.98437 1.984375,1.98437 h 1.5875 v 0.79375 h 3.9687498 v -0.79375 h 3.175 v 2.38125 2.38125 1.5875 c 0,0.87675 -0.710748,1.5875 -1.5875,1.5875 h -1.5875 -3.5718748 -0.396875 v 0.79375 h -3.175 v -0.79375 h -0.396875 -1.5875 c -0.87675202,0 -1.58749996,-0.71075 -1.58749996,-1.5875 v -1.5875 z" style="fill:#25c3c0;fill-opacity:1;stroke:#1dbcbd;stroke-width:.39687499;stroke-linecap:round;stroke-opacity:1"/><text id="text2824" x="0" y="0" style="font-size:3.96875px;font-family:sans-serif;text-anchor:start;fill:#282828;stroke-width:.39687499"><tspan style="stroke-width:.39687499" id="tspan2822" x="1.984" y="5.953">デクレシェンド</tspan></text><path id="path2834" d="m 41.709215,0.19843469 h 23.8125 V 8.1359347 h -23.8125 v -3.175 -0.396875 h -2.38125 v 1.190625 h -0.79375 v -3.175 h 0.79375 v 1.190625 h 2.38125 v -0.396875 z" style="fill:#ff5293;fill-opacity:1;stroke:#ff2c76;stroke-width:.39687499;stroke-linecap:round;stroke-opacity:1"/><text id="text2838" x="38.336" y="0" style="font-size:3.96875px;font-family:sans-serif;text-anchor:start;fill:#282828;stroke-width:.39687499"><tspan style="stroke-width:.39687499" id="tspan2836" x="43.495" y="5.556">5</tspan></text><g id="g3214" transform="matrix(0.396875,0,0,0.396875,3.5718777,8.3343721)"><path id="path3204" d="m 0.5,8.5 v -4 a 4,4 90 0 1 4,-4 h 4 v 2 h 10 v -2 h 9 60 4 a 4,4 90 0 1 4,4 v 4 h -4 v -3 h -4 v 10 h 4 v -3 h 4 v 4 a 4,4 90 0 1 -4,4 h -4 -60 -1 v 2 h -8 v -2 h -1 -4 a 5,5 90 0 0 -5,5 v 4 4 42 4 a 5,5 90 0 0 5,5 h 4 v 2 h 10 v -2 h 8 v 6 6 4 a 4,4 90 0 1 -4,4 h -4 -9 -1 v 2 h -8 v -2 h -1 -4 a 4,4 90 0 1 -4,-4 v -4 z" style="fill:#ff8b2d;fill-opacity:1;stroke:#e86b0e;stroke-width:1;stroke-linecap:round;stroke-opacity:1"/><text id="text3208" style="font-size:10px;font-family:sans-serif;text-anchor:start;fill:#282828"><tspan id="tspan3206" x="20" y="15">音符</tspan></text><text id="text3212" style="font-size:6.66666651px;font-family:sans-serif;text-anchor:end;fill:#282828"><tspan id="tspan3210" x="85" y="12">長さ</tspan></text></g><g id="g3232" transform="matrix(0.13229166,0,0,0.13229166,3.5718777,9.3927054)" style="isolation:isolate"><g id="g3230" data-name="レイヤー 2"><g id="g3228"><rect id="rect3218" width="42" height="42" x="0" y="0" rx="5" ry="5" style="opacity:.4;mix-blend-mode:multiply;fill:#292929"/><path id="path3220" d="m 30.56,29.8 -4.17,-4.16 h 2.26 a 1.035,1.035 0 1 0 0,-2.07 h -4.71 a 1.08,1.08 0 0 0 -1.11,1 v 0 c 0,0 0,0 0,0.06 v 4.64 0 a 1.04,1.04 0 1 0 2.08,0 v -2.19 l 4.19,4.19 a 1,1 0 0 0 1.46,0 1,1 0 0 0 0,-1.47 z" style="fill:#fff"/><path id="path3222" d="m 19.17,24.6 a 1.08,1.08 0 0 0 -1.11,-1 h -4.71 a 1.035,1.035 0 1 0 0,2.07 h 2.25 l -4.16,4.13 a 1.039447,1.039447 0 0 0 1.47,1.47 l 4.18,-4.19 v 2.26 a 1.04,1.04 0 1 0 2.08,0 V 24.7 c 0,0 0,0 0,-0.06 a 0.08,0.08 0 0 1 0,-0.04 z" style="fill:#fff"/><path id="path3224" d="m 23.94,20.5 h 4.7 a 1.04,1.04 0 1 0 0,-2.08 h -2.25 l 4.17,-4.16 a 1,1 0 0 0 0,-1.47 1,1 0 0 0 -1.46,0 L 24.91,17 v -2.28 a 1.04,1.04 0 1 0 -2.08,0 v 4.64 a 0.43,0.43 0 0 0 0,0.05 v 0.05 a 1.09,1.09 0 0 0 1.11,1.04 z" style="fill:#fff"/><path id="path3226" d="m 18.13,13.62 a 1.08,1.08 0 0 0 -1,1.09 V 17 l -4.18,-4.19 a 1,1 0 0 0 -1.47,0 1,1 0 0 0 0,1.46 l 4.16,4.17 h -2.29 a 1.04,1.04 0 1 0 0,2.08 h 4.71 a 1.09,1.09 0 0 0 1.11,-1 c 0,0 0,0 0,-0.06 v -4.75 a 1.07,1.07 0 0 0 -1.04,-1.09 z" style="fill:#fff"/></g></g></g><path id="path3238" d="m 41.870314,11.70781 v -1.5875 a 1.5875,1.5875 0 0 1 1.5875,-1.5875004 h 1.5875 3.96875 11.90625 1.5875 a 1.5875,1.5875 0 0 1 1.5875,1.5875004 v 1.5875 h -1.5875 v -1.190625 h -1.5875 v 3.96875 h 1.5875 V 13.29531 h 1.5875 v 6.746875 h -1.5875 V 18.85156 h -1.5875 v 3.96875 h 1.5875 v -1.190625 h 1.5875 v 1.5875 a 1.5875,1.5875 0 0 1 -1.5875,1.5875 h -1.5875 -11.90625 -3.96875 -1.5875 a 1.5875,1.5875 0 0 1 -1.5875,-1.5875 v -1.5875 -8.334375 -0.396875 h -2.38125 v 1.190625 h -0.79375 v -3.175 h 0.79375 v 1.190625 h 2.38125 z" style="fill:#ff5293;fill-opacity:1;stroke:#ff2c76;stroke-width:.39687499;stroke-linecap:round;stroke-opacity:1"/><text id="text3242" x="38.497" y="8.334" style="font-size:3.5718751px;font-family:sans-serif;text-anchor:end;fill:#282828;stroke-width:.39687499"><tspan style="stroke-width:.39687499" id="tspan3240" x="59.928" y="17.462">➗</tspan></text><path id="path3256" d="m 64.492189,8.5328096 h 23.8125 V 16.47031 h -23.8125 v -3.175 -0.396875 h -2.38125 v 1.190625 h -0.79375 v -3.175 h 0.79375 v 1.190625 h 2.38125 V 11.70781 Z" style="fill:#ff5293;fill-opacity:1;stroke:#ff2c76;stroke-width:.39687499;stroke-linecap:round;stroke-opacity:1"/><text id="text3260" x="61.119" y="8.334" style="font-size:3.96875px;font-family:sans-serif;text-anchor:start;fill:#282828;stroke-width:.39687499"><tspan style="stroke-width:.39687499" id="tspan3258" x="66.278" y="13.891">1</tspan></text><path id="path3266" d="m 64.492189,16.867184 h 23.8125 v 7.9375 h -23.8125 v -3.175 -0.396875 h -2.38125 v 1.190625 h -0.79375 v -3.175 h 0.79375 v 1.190625 h 2.38125 v -0.396875 z" style="fill:#ff5293;fill-opacity:1;stroke:#ff2c76;stroke-width:.39687499;stroke-linecap:round;stroke-opacity:1"/><text id="text3270" x="61.119" y="16.669" style="font-size:3.96875px;font-family:sans-serif;text-anchor:start;fill:#282828;stroke-width:.39687499"><tspan style="stroke-width:.39687499" id="tspan3268" x="66.278" y="22.225">4</tspan></text><path id="path3276" d="m 7.3421902,20.042184 v -1.5875 a 1.5875,1.5875 0 0 1 1.5875,-1.5875 H 10.51719 v 0.79375 h 3.96875 v -0.79375 h 7.9375 1.5875 a 1.5875,1.5875 0 0 1 1.5875,1.5875 v 1.5875 1.5875 1.5875 a 1.5875,1.5875 0 0 1 -1.5875,1.5875 h -1.5875 -7.9375 -0.396875 v 0.79375 h -3.175 v -0.79375 H 10.51719 8.9296902 a 1.5875,1.5875 0 0 1 -1.5875,-1.5875 v -1.5875 z" style="fill:#b0b0b0;fill-opacity:1;stroke:#a0a0a0;stroke-width:.39687499;stroke-linecap:round;stroke-opacity:1"/><text id="text3280" x="7.144" y="16.669" style="font-size:3.96875px;font-family:sans-serif;text-anchor:end;fill:#282828;stroke-width:.39687499"><tspan style="stroke-width:.39687499" id="tspan3278" x="21.431" y="22.225">↓</tspan></text><g id="g4889" transform="translate(5.6444449,0)"><path style="fill:#77c428;fill-opacity:1;stroke:#57ad02;stroke-width:.39687499;stroke-linecap:round;stroke-opacity:1" id="path3286" d="m 1.6977453,28.376559 0,-1.5875 c 0,-0.876752 0.7107484,-1.587499 1.5875,-1.587499 l 1.5874998,0 0,0.793749 3.96875,0 0,-0.793749 17.5506949,0 1.5875,0 c 0.876752,0 1.587499,0.710747 1.5875,1.587499 l 0,1.5875 -1.5875,0 0,-1.190624 -1.5875,0 0,3.96875 1.5875,0 0,-1.190626 1.5875,0 0,6.746875 -1.5875,0 0,-1.190625 -1.5875,0 0,3.96875 1.5875,0 0,-1.190625 1.5875,0 0,1.587501 c -1e-6,0.876752 -0.710748,1.587499 -1.5875,1.587499 l -1.5875,0 -17.5506949,0 -0.396875,0 0,0.79375 -3.175,0 0,-0.79375 -0.396875,0 -1.5874998,0 c -0.8767516,0 -2.43150577,-1.350122 -1.5875,-1.587499 l 0,-1.587501 0,-8.334375 z"/><text style="font-size:3.96875px;font-family:sans-serif;text-anchor:end;fill:#282828;stroke-width:.39687499" id="text3290" x="7.144" y="25.003"><tspan id="tspan3288" x="25.4" y="34.528" style="stroke-width:.39687499">音の高さ</tspan></text><text style="font-size:2.64583325px;font-family:sans-serif;text-anchor:end;fill:#282828;stroke-width:.39687499" id="text3294" x="7.144" y="25.003"><tspan id="tspan3292" x="25.4" y="29.766" style="stroke-width:.39687499">名前</tspan></text><text style="font-size:2.64583325px;font-family:sans-serif;text-anchor:end;fill:#282828;stroke-width:.39687499" id="text3298" x="7.144" y="25.003"><tspan id="tspan3296" x="25.4" y="38.1" style="stroke-width:.39687499">オクターヴの高さ</tspan></text><path style="fill:#77c428;fill-opacity:1;stroke:#57ad02;stroke-width:.39687499;stroke-linecap:round;stroke-opacity:1" id="path3304" d="m 29.964064,25.20156 23.8125,0 0,7.9375 -23.8125,0 0,-3.175001 0,-0.396875 -2.381249,0 0,1.190625 -0.79375,0 0,-3.175 0.79375,0 0,1.190625 2.381249,0 0,-0.396875 z"/><text style="font-size:3.96875px;font-family:sans-serif;text-anchor:start;fill:#282828;stroke-width:.39687499" id="text3308" x="26.591" y="25.003"><tspan id="tspan3306" x="31.75" y="30.559" style="stroke-width:.39687499">ソ</tspan></text><path style="fill:#ff5293;fill-opacity:1;stroke:#ff2c76;stroke-width:.39687499;stroke-linecap:round;stroke-opacity:1" id="path3314" d="m 29.964064,33.535934 23.8125,0 0,7.9375 -23.8125,0 0,-3.175 0,-0.396875 -2.381249,0 0,1.190626 -0.79375,0 0,-3.175001 0.79375,0 0,1.190626 2.381249,0 0,-0.396876 z"/><text style="font-size:3.96875px;font-family:sans-serif;text-anchor:start;fill:#282828;stroke-width:.39687499" id="text3318" x="26.591" y="33.337"><tspan id="tspan3316" x="31.75" y="38.894" style="stroke-width:.39687499">4</tspan></text></g><g id="g3334" transform="matrix(0.396875,0,0,0.396875,3.5718777,50.006247)"><path id="path3324" d="m 0.5,8.5 v -4 a 4,4 90 0 1 4,-4 h 4 v 2 h 10 v -2 h 9 60 4 a 4,4 90 0 1 4,4 v 4 h -4 v -3 h -4 v 10 h 4 v -3 h 4 v 4 a 4,4 90 0 1 -4,4 h -4 -60 -1 v 2 h -8 v -2 h -1 -4 a 5,5 90 0 0 -5,5 v 4 4 42 4 a 5,5 90 0 0 5,5 h 4 v 2 h 10 v -2 h 8 v 6 6 4 a 4,4 90 0 1 -4,4 h -4 -9 -1 v 2 h -8 v -2 h -1 -4 a 4,4 90 0 1 -4,-4 v -4 z" style="fill:#ff8b2d;fill-opacity:1;stroke:#e86b0e;stroke-width:1;stroke-linecap:round;stroke-opacity:1"/><text id="text3328" style="font-size:10px;font-family:sans-serif;text-anchor:start;fill:#282828"><tspan id="tspan3326" x="20" y="15">音符</tspan></text><text id="text3332" style="font-size:6.66666651px;font-family:sans-serif;text-anchor:end;fill:#282828"><tspan id="tspan3330" x="85" y="12">長さ</tspan></text></g><g id="g3352" transform="matrix(0.13229166,0,0,0.13229166,3.5718777,51.06458)" style="isolation:isolate"><g id="g3350" data-name="レイヤー 2"><g id="g3348"><rect id="rect3338" width="42" height="42" x="0" y="0" rx="5" ry="5" style="opacity:.4;mix-blend-mode:multiply;fill:#292929"/><path id="path3340" d="m 30.56,29.8 -4.17,-4.16 h 2.26 a 1.035,1.035 0 1 0 0,-2.07 h -4.71 a 1.08,1.08 0 0 0 -1.11,1 v 0 c 0,0 0,0 0,0.06 v 4.64 0 a 1.04,1.04 0 1 0 2.08,0 v -2.19 l 4.19,4.19 a 1,1 0 0 0 1.46,0 1,1 0 0 0 0,-1.47 z" style="fill:#fff"/><path id="path3342" d="m 19.17,24.6 a 1.08,1.08 0 0 0 -1.11,-1 h -4.71 a 1.035,1.035 0 1 0 0,2.07 h 2.25 l -4.16,4.13 a 1.039447,1.039447 0 0 0 1.47,1.47 l 4.18,-4.19 v 2.26 a 1.04,1.04 0 1 0 2.08,0 V 24.7 c 0,0 0,0 0,-0.06 a 0.08,0.08 0 0 1 0,-0.04 z" style="fill:#fff"/><path id="path3344" d="m 23.94,20.5 h 4.7 a 1.04,1.04 0 1 0 0,-2.08 h -2.25 l 4.17,-4.16 a 1,1 0 0 0 0,-1.47 1,1 0 0 0 -1.46,0 L 24.91,17 v -2.28 a 1.04,1.04 0 1 0 -2.08,0 v 4.64 a 0.43,0.43 0 0 0 0,0.05 v 0.05 a 1.09,1.09 0 0 0 1.11,1.04 z" style="fill:#fff"/><path id="path3346" d="m 18.13,13.62 a 1.08,1.08 0 0 0 -1,1.09 V 17 l -4.18,-4.19 a 1,1 0 0 0 -1.47,0 1,1 0 0 0 0,1.46 l 4.16,4.17 h -2.29 a 1.04,1.04 0 1 0 0,2.08 h 4.71 a 1.09,1.09 0 0 0 1.11,-1 c 0,0 0,0 0,-0.06 v -4.75 a 1.07,1.07 0 0 0 -1.04,-1.09 z" style="fill:#fff"/></g></g></g><path id="path3358" d="m 41.870314,53.379685 v -1.5875 a 1.5875,1.5875 0 0 1 1.5875,-1.587501 h 1.5875 3.96875 11.90625 1.5875 a 1.5875,1.5875 0 0 1 1.5875,1.587501 v 1.5875 h -1.5875 v -1.190626 h -1.5875 v 3.96875 h 1.5875 v -1.190624 h 1.5875 v 6.746875 h -1.5875 v -1.190626 h -1.5875 v 3.968751 h 1.5875 V 63.30156 h 1.5875 v 1.5875 a 1.5875,1.5875 0 0 1 -1.5875,1.5875 h -1.5875 -11.90625 -3.96875 -1.5875 a 1.5875,1.5875 0 0 1 -1.5875,-1.5875 v -1.5875 -8.334375 -0.396876 h -2.38125 v 1.190626 h -0.79375 v -3.175001 h 0.79375 v 1.190626 h 2.38125 z" style="fill:#ff5293;fill-opacity:1;stroke:#ff2c76;stroke-width:.39687499;stroke-linecap:round;stroke-opacity:1"/><text id="text3362" x="38.497" y="50.006" style="font-size:3.5718751px;font-family:sans-serif;text-anchor:end;fill:#282828;stroke-width:.39687499"><tspan style="stroke-width:.39687499" id="tspan3360" x="59.928" y="59.134">➗</tspan></text><path id="path3376" d="m 64.492189,50.204684 h 23.8125 v 7.9375 h -23.8125 v -3.174999 -0.396876 h -2.38125 v 1.190626 h -0.79375 v -3.175001 h 0.79375 v 1.190626 h 2.38125 v -0.396875 z" style="fill:#ff5293;fill-opacity:1;stroke:#ff2c76;stroke-width:.39687499;stroke-linecap:round;stroke-opacity:1"/><text id="text3380" x="61.119" y="50.006" style="font-size:3.96875px;font-family:sans-serif;text-anchor:start;fill:#282828;stroke-width:.39687499"><tspan style="stroke-width:.39687499" id="tspan3378" x="66.278" y="55.562">1</tspan></text><path id="path3386" d="m 64.492189,58.539058 h 23.8125 v 7.9375 h -23.8125 v -3.175 -0.396875 h -2.38125 v 1.190626 h -0.79375 v -3.175001 h 0.79375 v 1.190626 h 2.38125 v -0.396876 z" style="fill:#ff5293;fill-opacity:1;stroke:#ff2c76;stroke-width:.39687499;stroke-linecap:round;stroke-opacity:1"/><text id="text3390" x="61.119" y="58.341" style="font-size:3.96875px;font-family:sans-serif;text-anchor:start;fill:#282828;stroke-width:.39687499"><tspan style="stroke-width:.39687499" id="tspan3388" x="66.278" y="63.897">4</tspan></text><path id="path3396" d="m 7.3421902,61.714058 v -1.587499 a 1.5875,1.5875 0 0 1 1.5875,-1.587501 H 10.51719 v 0.79375 h 3.96875 v -0.79375 h 7.9375 1.5875 a 1.5875,1.5875 0 0 1 1.5875,1.587501 v 1.587499 1.5875 1.587501 a 1.5875,1.5875 0 0 1 -1.5875,1.587499 h -1.5875 -7.9375 -0.396875 v 0.79375 h -3.175 v -0.79375 H 10.51719 8.9296902 a 1.5875,1.5875 0 0 1 -1.5875,-1.587499 v -1.587501 z" style="fill:#b0b0b0;fill-opacity:1;stroke:#a0a0a0;stroke-width:.39687499;stroke-linecap:round;stroke-opacity:1"/><text id="text3400" x="7.144" y="58.341" style="font-size:3.96875px;font-family:sans-serif;text-anchor:end;fill:#282828;stroke-width:.39687499"><tspan style="stroke-width:.39687499" id="tspan3398" x="21.431" y="63.897">↓</tspan></text><g id="g4904" transform="translate(5.6444449,0)"><path style="fill:#77c428;fill-opacity:1;stroke:#57ad02;stroke-width:.39687499;stroke-linecap:round;stroke-opacity:1" id="path3406" d="m 1.6977453,70.048433 0,-1.5875 c 0,-0.876752 0.710748,-1.5875 1.5875,-1.5875 l 1.5874998,0 0,0.79375 3.96875,0 0,-0.79375 17.5506949,0 1.5875,0 c 0.876752,0 1.5875,0.710748 1.5875,1.5875 l 0,1.5875 -1.5875,0 0,-1.190625 -1.5875,0 0,3.96875 1.5875,0 0,-1.190625 1.5875,0 0,6.746875 -1.5875,0 0,-1.190625 -1.5875,0 0,3.96875 1.5875,0 0,-1.190625 1.5875,0 0,1.5875 c 0,0.876752 -0.710748,1.5875 -1.5875,1.5875 l -1.5875,0 -17.5506949,0 -0.396875,0 0,0.79375 -3.175,0 0,-0.79375 -0.396875,0 -1.5874998,0 c -0.876752,0 -1.5875,-0.710748 -1.5875,-1.5875 l 0,-1.5875 0,-8.334375 z"/><text style="font-size:3.96875px;font-family:sans-serif;text-anchor:end;fill:#282828;stroke-width:.39687499" id="text3410" x="7.144" y="66.675"><tspan id="tspan3408" x="25.4" y="76.2" style="stroke-width:.39687499">音の高さ</tspan></text><text style="font-size:2.64583325px;font-family:sans-serif;text-anchor:end;fill:#282828;stroke-width:.39687499" id="text3414" x="7.144" y="66.675"><tspan id="tspan3412" x="25.4" y="71.437" style="stroke-width:.39687499">名前</tspan></text><text style="font-size:2.64583325px;font-family:sans-serif;text-anchor:end;fill:#282828;stroke-width:.39687499" id="text3418" x="7.144" y="66.675"><tspan id="tspan3416" x="25.4" y="79.772" style="stroke-width:.39687499">オクターヴの高さ</tspan></text><path style="fill:#77c428;fill-opacity:1;stroke:#57ad02;stroke-width:.39687499;stroke-linecap:round;stroke-opacity:1" id="path3424" d="m 29.964064,66.873433 23.8125,0 0,7.9375 -23.8125,0 0,-3.175 0,-0.396875 -2.381249,0 0,1.190625 -0.79375,0 0,-3.175 0.79375,0 0,1.190625 2.381249,0 0,-0.396875 z"/><text style="font-size:3.96875px;font-family:sans-serif;text-anchor:start;fill:#282828;stroke-width:.39687499" id="text3428" x="26.591" y="66.675"><tspan id="tspan3426" x="31.75" y="72.231" style="stroke-width:.39687499">ソ</tspan></text><path style="fill:#ff5293;fill-opacity:1;stroke:#ff2c76;stroke-width:.39687499;stroke-linecap:round;stroke-opacity:1" id="path3434" d="m 29.964064,75.207808 23.8125,0 0,7.9375 -23.8125,0 0,-3.174999 0,-0.396875 -2.381249,0 0,1.190625 -0.79375,0 0,-3.175 0.79375,0 0,1.190625 2.381249,0 0,-0.396876 z"/><text style="font-size:3.96875px;font-family:sans-serif;text-anchor:start;fill:#282828;stroke-width:.39687499" id="text3438" x="26.591" y="75.009"><tspan id="tspan3436" x="31.75" y="80.566" style="stroke-width:.39687499">4</tspan></text></g><g id="g3454" transform="matrix(0.396875,0,0,0.396875,3.5718777,91.678121)"><path id="path3444" d="m 0.5,8.5 v -4 a 4,4 90 0 1 4,-4 h 4 v 2 h 10 v -2 h 9 60 4 a 4,4 90 0 1 4,4 v 4 h -4 v -3 h -4 v 10 h 4 v -3 h 4 v 4 a 4,4 90 0 1 -4,4 h -4 -60 -1 v 2 h -8 v -2 h -1 -4 a 5,5 90 0 0 -5,5 v 4 4 42 4 a 5,5 90 0 0 5,5 h 4 v 2 h 10 v -2 h 8 v 6 6 4 a 4,4 90 0 1 -4,4 h -4 -9 -1 v 2 h -8 v -2 h -1 -4 a 4,4 90 0 1 -4,-4 v -4 z" style="fill:#ff8b2d;fill-opacity:1;stroke:#e86b0e;stroke-width:1;stroke-linecap:round;stroke-opacity:1"/><text id="text3448" style="font-size:10px;font-family:sans-serif;text-anchor:start;fill:#282828"><tspan id="tspan3446" x="20" y="15">音符</tspan></text><text id="text3452" style="font-size:6.66666651px;font-family:sans-serif;text-anchor:end;fill:#282828"><tspan id="tspan3450" x="85" y="12">長さ</tspan></text></g><g id="g3472" transform="matrix(0.13229166,0,0,0.13229166,3.5718777,92.736454)" style="isolation:isolate"><g id="g3470" data-name="レイヤー 2"><g id="g3468"><rect id="rect3458" width="42" height="42" x="0" y="0" rx="5" ry="5" style="opacity:.4;mix-blend-mode:multiply;fill:#292929"/><path id="path3460" d="m 30.56,29.8 -4.17,-4.16 h 2.26 a 1.035,1.035 0 1 0 0,-2.07 h -4.71 a 1.08,1.08 0 0 0 -1.11,1 v 0 c 0,0 0,0 0,0.06 v 4.64 0 a 1.04,1.04 0 1 0 2.08,0 v -2.19 l 4.19,4.19 a 1,1 0 0 0 1.46,0 1,1 0 0 0 0,-1.47 z" style="fill:#fff"/><path id="path3462" d="m 19.17,24.6 a 1.08,1.08 0 0 0 -1.11,-1 h -4.71 a 1.035,1.035 0 1 0 0,2.07 h 2.25 l -4.16,4.13 a 1.039447,1.039447 0 0 0 1.47,1.47 l 4.18,-4.19 v 2.26 a 1.04,1.04 0 1 0 2.08,0 V 24.7 c 0,0 0,0 0,-0.06 a 0.08,0.08 0 0 1 0,-0.04 z" style="fill:#fff"/><path id="path3464" d="m 23.94,20.5 h 4.7 a 1.04,1.04 0 1 0 0,-2.08 h -2.25 l 4.17,-4.16 a 1,1 0 0 0 0,-1.47 1,1 0 0 0 -1.46,0 L 24.91,17 v -2.28 a 1.04,1.04 0 1 0 -2.08,0 v 4.64 a 0.43,0.43 0 0 0 0,0.05 v 0.05 a 1.09,1.09 0 0 0 1.11,1.04 z" style="fill:#fff"/><path id="path3466" d="m 18.13,13.62 a 1.08,1.08 0 0 0 -1,1.09 V 17 l -4.18,-4.19 a 1,1 0 0 0 -1.47,0 1,1 0 0 0 0,1.46 l 4.16,4.17 h -2.29 a 1.04,1.04 0 1 0 0,2.08 h 4.71 a 1.09,1.09 0 0 0 1.11,-1 c 0,0 0,0 0,-0.06 v -4.75 a 1.07,1.07 0 0 0 -1.04,-1.09 z" style="fill:#fff"/></g></g></g><path id="path3478" d="m 41.870314,95.051558 v -1.587499 a 1.5875,1.5875 0 0 1 1.5875,-1.5875 h 1.5875 3.96875 11.90625 1.5875 a 1.5875,1.5875 0 0 1 1.5875,1.5875 v 1.587499 h -1.5875 v -1.190624 h -1.5875 v 3.96875 h 1.5875 v -1.190625 h 1.5875 v 6.746871 h -1.5875 v -1.19062 h -1.5875 v 3.96875 h 1.5875 v -1.19063 h 1.5875 v 1.5875 a 1.5875,1.5875 0 0 1 -1.5875,1.5875 h -1.5875 -11.90625 -3.96875 -1.5875 a 1.5875,1.5875 0 0 1 -1.5875,-1.5875 v -1.5875 -8.334371 -0.396875 h -2.38125 v 1.190625 h -0.79375 v -3.175 h 0.79375 v 1.190625 h 2.38125 z" style="fill:#ff5293;fill-opacity:1;stroke:#ff2c76;stroke-width:.39687499;stroke-linecap:round;stroke-opacity:1"/><text id="text3482" x="38.497" y="91.678" style="font-size:3.5718751px;font-family:sans-serif;text-anchor:end;fill:#282828;stroke-width:.39687499"><tspan style="stroke-width:.39687499" id="tspan3480" x="59.928" y="100.806">➗</tspan></text><path id="path3496" d="m 64.492189,91.876559 h 23.8125 v 7.9375 h -23.8125 v -3.175 -0.396875 h -2.38125 v 1.190625 h -0.79375 v -3.175 h 0.79375 v 1.190625 h 2.38125 v -0.396876 z" style="fill:#ff5293;fill-opacity:1;stroke:#ff2c76;stroke-width:.39687499;stroke-linecap:round;stroke-opacity:1"/><text id="text3500" x="61.119" y="91.678" style="font-size:3.96875px;font-family:sans-serif;text-anchor:start;fill:#282828;stroke-width:.39687499"><tspan style="stroke-width:.39687499" id="tspan3498" x="66.278" y="97.234">1</tspan></text><path id="path3506" d="m 64.492189,100.21094 h 23.8125 v 7.9375 h -23.8125 v -3.175 -0.39688 h -2.38125 v 1.19063 h -0.79375 v -3.175 h 0.79375 v 1.19062 h 2.38125 v -0.39687 z" style="fill:#ff5293;fill-opacity:1;stroke:#ff2c76;stroke-width:.39687499;stroke-linecap:round;stroke-opacity:1"/><text id="text3510" x="61.119" y="100.013" style="font-size:3.96875px;font-family:sans-serif;text-anchor:start;fill:#282828;stroke-width:.39687499"><tspan style="stroke-width:.39687499" id="tspan3508" x="66.278" y="105.569">4</tspan></text><path id="path3516" d="m 7.3421902,103.38594 v -1.5875 a 1.5875,1.5875 0 0 1 1.5875,-1.5875 H 10.51719 v 0.79375 h 3.96875 v -0.79375 h 7.9375 1.5875 a 1.5875,1.5875 0 0 1 1.5875,1.5875 v 1.5875 1.5875 1.5875 a 1.5875,1.5875 0 0 1 -1.5875,1.5875 h -1.5875 -7.9375 -0.396875 v 0.79375 h -3.175 v -0.79375 H 10.51719 8.9296902 a 1.5875,1.5875 0 0 1 -1.5875,-1.5875 v -1.5875 z" style="fill:#b0b0b0;fill-opacity:1;stroke:#a0a0a0;stroke-width:.39687499;stroke-linecap:round;stroke-opacity:1"/><text id="text3520" x="7.144" y="100.013" style="font-size:3.96875px;font-family:sans-serif;text-anchor:end;fill:#282828;stroke-width:.39687499"><tspan style="stroke-width:.39687499" id="tspan3518" x="21.431" y="105.569">↓</tspan></text><g id="g4919" transform="translate(5.6444449,0)"><path style="fill:#77c428;fill-opacity:1;stroke:#57ad02;stroke-width:.39687499;stroke-linecap:round;stroke-opacity:1" id="path3526" d="m 1.6977453,111.72031 0,-1.5875 c 0,-0.87675 0.710748,-1.5875 1.5875,-1.5875 l 1.5874998,0 0,0.79375 3.96875,0 0,-0.79375 17.5506949,0 1.5875,0 c 0.876752,0 1.5875,0.71075 1.5875,1.5875 l 0,1.5875 -1.5875,0 0,-1.19063 -1.5875,0 0,3.96875 1.5875,0 0,-1.19062 1.5875,0 0,6.74687 -1.5875,0 0,-1.19062 -1.5875,0 0,3.96875 1.5875,0 0,-1.19063 1.5875,0 0,1.5875 c 0,0.87675 -0.710748,1.5875 -1.5875,1.5875 l -1.5875,0 -17.5506949,0 -0.396875,0 0,0.79375 -3.175,0 0,-0.79375 -0.396875,0 -1.5874998,0 c -0.876752,0 -1.5875,-0.71075 -1.5875,-1.5875 l 0,-1.5875 0,-8.33437 z"/><text style="font-size:3.96875px;font-family:sans-serif;text-anchor:end;fill:#282828;stroke-width:.39687499" id="text3530" x="7.144" y="108.347"><tspan id="tspan3528" x="25.4" y="117.872" style="stroke-width:.39687499">音の高さ</tspan></text><text style="font-size:2.64583325px;font-family:sans-serif;text-anchor:end;fill:#282828;stroke-width:.39687499" id="text3534" x="7.144" y="108.347"><tspan id="tspan3532" x="25.4" y="113.109" style="stroke-width:.39687499">名前</tspan></text><text style="font-size:2.64583325px;font-family:sans-serif;text-anchor:end;fill:#282828;stroke-width:.39687499" id="text3538" x="7.144" y="108.347"><tspan id="tspan3536" x="25.4" y="121.444" style="stroke-width:.39687499">オクターヴの高さ</tspan></text><path style="fill:#77c428;fill-opacity:1;stroke:#57ad02;stroke-width:.39687499;stroke-linecap:round;stroke-opacity:1" id="path3544" d="m 29.964064,108.54531 23.8125,0 0,7.9375 -23.8125,0 0,-3.175 0,-0.39688 -2.381249,0 0,1.19063 -0.79375,0 0,-3.175 0.79375,0 0,1.19062 2.381249,0 0,-0.39687 z"/><text style="font-size:3.96875px;font-family:sans-serif;text-anchor:start;fill:#282828;stroke-width:.39687499" id="text3548" x="26.591" y="108.347"><tspan id="tspan3546" x="31.75" y="113.903" style="stroke-width:.39687499">ソ</tspan></text><path style="fill:#ff5293;fill-opacity:1;stroke:#ff2c76;stroke-width:.39687499;stroke-linecap:round;stroke-opacity:1" id="path3554" d="m 29.964064,116.87969 23.8125,0 0,7.9375 -23.8125,0 0,-3.175 0,-0.39688 -2.381249,0 0,1.19063 -0.79375,0 0,-3.175 0.79375,0 0,1.19062 2.381249,0 0,-0.39687 z"/><text style="font-size:3.96875px;font-family:sans-serif;text-anchor:start;fill:#282828;stroke-width:.39687499" id="text3558" x="26.591" y="116.681"><tspan id="tspan3556" x="31.75" y="122.237" style="stroke-width:.39687499">4</tspan></text></g></svg>