<svg xmlns="http://www.w3.org/2000/svg" xmlns:svg="http://www.w3.org/2000/svg" id="svg2652" width="309.833" height="286.5" version="1.1" viewBox="0 0 81.977 75.803"><metadata id="metadata2649"/><g id="g474" transform="scale(0.26458333,0.26458333)"><g id="g472" transform="scale(1.5,1.5)"><path style="fill:#7cd622;fill-opacity:1;stroke:#57ad02;stroke-width:1;stroke-linecap:round;stroke-opacity:1" id="path462" d="m 0.5,8.5 0,-4 c 0,-2.209139 1.790861,-4 4,-4 l 4,0 0,2 10,0 0,-2 9,0 59.261284,0 4,0 c 2.209139,0 6.12663,3.4018854 4,4 l 0,4 -4,0 0,-3 -4,0 0,10 4,0 0,-3 4,0 0,4 c 0,2.209139 -1.790861,4 -4,4 l -4,0 -59.261284,0 -1,0 0,2 -8,0 0,-2 -1,0 -4,0 c -2.761424,0 -5,2.238576 -5,5 l 0,4 0,4 0,126 0,4 c 0,2.76142 2.238576,5 5,5 l 4,0 0,2 10,0 0,-2 8,0 0,6 0,6 0,4 c 0,2.20914 -1.790861,4 -4,4 l -4,0 -9,0 -1,0 0,2 -8,0 0,-2 -1,0 -4,0 c -2.209139,0 -4,-1.79086 -4,-4 l 0,-4 z"/><text style="font-size:10px;font-family:sans-serif;text-anchor:start;fill:#282828" id="text466"><tspan id="tspan464" x="5" y="15">モードを定義する</tspan></text></g></g><g id="g484" transform="matrix(0.26458333,0,0,0.26458333,34.748614,0)"><g id="g482" transform="scale(1.5,1.5)"><path style="fill:#7cd622;fill-opacity:1;stroke:#57ad02;stroke-width:1;stroke-linecap:round;stroke-opacity:1" id="path476" d="m 8.5,0.5 110,0 0,20 -110,0 0,-8 0,-1 -6,0 0,3 -2,0 0,-8 2,0 0,3 6,0 0,-1 z"/><text style="font-size:10px;font-family:sans-serif;text-anchor:start;fill:#282828" id="text480"><tspan id="tspan478" x="13" y="14">オリジナル</tspan></text></g></g><g id="g498" transform="matrix(0.26458333,0,0,0.26458333,9.3486145,8.466665)"><g id="g496" transform="scale(1.5,1.5)"><path style="fill:#7cd622;fill-opacity:1;stroke:#57ad02;stroke-width:1;stroke-linecap:round;stroke-opacity:1" id="path486" d="m -13.722222,8.5 0,-4 c 0,-2.209139 1.790861,-4 3.9999995,-4 l 4,0 0,2 10,0 0,-2 72.0298395,0 4,0 c 2.209139,0 4,1.790861 4,4 l 0,4 -4,0 0,-3 -4,0 0,10 4,0 0,-3 4,0 0,4 c 0,2.209139 -1.790861,4 -4,4 l -4,0 -72.0298395,0 -1,0 0,2 -8,0 0,-2 -1,0 -4,0 c -2.2091385,0 -3.9999995,-1.790861 -3.9999995,-4 l 0,-4 z"/><text style="font-size:10px;font-family:sans-serif;text-anchor:end;fill:#282828" id="text490"><tspan id="tspan488" x="74" y="14">音の高さを数で表示</tspan></text></g></g><g id="g508" transform="matrix(0.26458333,0,0,0.26458333,39.775694,8.466665)"><g id="g506" transform="scale(1.5,1.5)"><path style="fill:#ff6ea1;fill-opacity:1;stroke:#ff2c76;stroke-width:1;stroke-linecap:round;stroke-opacity:1" id="path500" d="m 8.5,0.5 60,0 0,20 -60,0 0,-8 0,-1 -6,0 0,3 -2,0 0,-8 2,0 0,3 6,0 0,-1 z"/><text style="font-size:10px;font-family:sans-serif;text-anchor:start;fill:#282828" id="text504"><tspan id="tspan502" x="13" y="14">0</tspan></text></g></g><g id="g522" transform="matrix(0.26458333,0,0,0.26458333,9.3486145,16.933331)"><g id="g520" transform="scale(1.5,1.5)"><path style="fill:#7cd622;fill-opacity:1;stroke:#57ad02;stroke-width:1;stroke-linecap:round;stroke-opacity:1" id="path510" d="m -13.722222,8.5 0,-4 c 0,-2.209139 1.790861,-4 3.9999995,-4 l 4,0 0,2 10,0 0,-2 72.0298395,0 4,0 c 2.209139,0 4,1.790861 4,4 l 0,4 -4,0 0,-3 -4,0 0,10 4,0 0,-3 4,0 0,4 c 0,2.209139 -1.790861,4 -4,4 l -4,0 -72.0298395,0 -1,0 0,2 -8,0 0,-2 -1,0 -4,0 c -2.2091385,0 -3.9999995,-1.790861 -3.9999995,-4 l 0,-4 z"/><text style="font-size:10px;font-family:sans-serif;text-anchor:end;fill:#282828" id="text514"><tspan id="tspan512" x="74" y="14">音の高さを数で表示</tspan></text></g></g><g id="g532" transform="matrix(0.26458333,0,0,0.26458333,39.775694,16.933331)"><g id="g530" transform="scale(1.5,1.5)"><path style="fill:#ff6ea1;fill-opacity:1;stroke:#ff2c76;stroke-width:1;stroke-linecap:round;stroke-opacity:1" id="path524" d="m 8.5,0.5 60,0 0,20 -60,0 0,-8 0,-1 -6,0 0,3 -2,0 0,-8 2,0 0,3 6,0 0,-1 z"/><text style="font-size:10px;font-family:sans-serif;text-anchor:start;fill:#282828" id="text528"><tspan id="tspan526" x="13" y="14">2</tspan></text></g></g><g id="g546" transform="matrix(0.26458333,0,0,0.26458333,9.3486145,25.399998)"><g id="g544" transform="scale(1.5,1.5)"><path style="fill:#7cd622;fill-opacity:1;stroke:#57ad02;stroke-width:1;stroke-linecap:round;stroke-opacity:1" id="path534" d="m -13.722222,8.5 0,-4 c 0,-2.209139 1.790861,-4 3.9999995,-4 l 4,0 0,2 10,0 0,-2 72.0298395,0 4,0 c 2.209139,0 4,1.790861 4,4 l 0,4 -4,0 0,-3 -4,0 0,10 4,0 0,-3 4,0 0,4 c 0,2.209139 -1.790861,4 -4,4 l -4,0 -72.0298395,0 -1,0 0,2 -8,0 0,-2 -1,0 -4,0 c -2.2091385,0 -3.9999995,-1.790861 -3.9999995,-4 l 0,-4 z"/><text style="font-size:10px;font-family:sans-serif;text-anchor:end;fill:#282828" id="text538"><tspan id="tspan536" x="74" y="14">音の高さを数で表示</tspan></text></g></g><g id="g556" transform="matrix(0.26458333,0,0,0.26458333,39.775694,25.399998)"><g id="g554" transform="scale(1.5,1.5)"><path style="fill:#ff6ea1;fill-opacity:1;stroke:#ff2c76;stroke-width:1;stroke-linecap:round;stroke-opacity:1" id="path548" d="m 8.5,0.5 60,0 0,20 -60,0 0,-8 0,-1 -6,0 0,3 -2,0 0,-8 2,0 0,3 6,0 0,-1 z"/><text style="font-size:10px;font-family:sans-serif;text-anchor:start;fill:#282828" id="text552"><tspan id="tspan550" x="13" y="14">4</tspan></text></g></g><g id="g570" transform="matrix(0.26458333,0,0,0.26458333,9.3486145,33.866665)"><g id="g568" transform="scale(1.5,1.5)"><path style="fill:#7cd622;fill-opacity:1;stroke:#57ad02;stroke-width:1;stroke-linecap:round;stroke-opacity:1" id="path558" d="m -13.722222,8.5 0,-4 c 0,-2.209139 1.790861,-4 3.9999995,-4 l 4,0 0,2 10,0 0,-2 72.0298395,0 4,0 c 2.209139,0 4,1.790861 4,4 l 0,4 -4,0 0,-3 -4,0 0,10 4,0 0,-3 4,0 0,4 c 0,2.209139 -1.790861,4 -4,4 l -4,0 -72.0298395,0 -1,0 0,2 -8,0 0,-2 -1,0 -4,0 c -2.2091385,0 -6.1266295,-3.401885 -3.9999995,-4 l 0,-4 z"/><text style="font-size:10px;font-family:sans-serif;text-anchor:end;fill:#282828" id="text562"><tspan id="tspan560" x="74" y="14">音の高さを数で表示</tspan></text></g></g><g id="g580" transform="matrix(0.26458333,0,0,0.26458333,39.775694,33.866665)"><g id="g578" transform="scale(1.5,1.5)"><path style="fill:#ff6ea1;fill-opacity:1;stroke:#ff2c76;stroke-width:1;stroke-linecap:round;stroke-opacity:1" id="path572" d="m 8.5,0.5 60,0 0,20 -60,0 0,-8 0,-1 -6,0 0,3 -2,0 0,-8 2,0 0,3 6,0 0,-1 z"/><text style="font-size:10px;font-family:sans-serif;text-anchor:start;fill:#282828" id="text576"><tspan id="tspan574" x="13" y="14">5</tspan></text></g></g><g id="g594" transform="matrix(0.26458333,0,0,0.26458333,9.3486145,42.333331)"><g id="g592" transform="scale(1.5,1.5)"><path style="fill:#7cd622;fill-opacity:1;stroke:#57ad02;stroke-width:1;stroke-linecap:round;stroke-opacity:1" id="path582" d="m -13.722222,8.5 0,-4 c 0,-2.209139 1.790861,-4 3.9999995,-4 l 4,0 0,2 10,0 0,-2 72.0298395,0 4,0 c 2.209139,0 4,1.790861 4,4 l 0,4 -4,0 0,-3 -4,0 0,10 4,0 0,-3 4,0 0,4 c 0,2.209139 -1.790861,4 -4,4 l -4,0 -72.0298395,0 -1,0 0,2 -8,0 0,-2 -1,0 -4,0 c -2.2091385,0 -6.1266295,-3.401885 -3.9999995,-4 l 0,-4 z"/><text style="font-size:10px;font-family:sans-serif;text-anchor:end;fill:#282828" id="text586"><tspan id="tspan584" x="74" y="14">音の高さを数で表示</tspan></text></g></g><g id="g604" transform="matrix(0.26458333,0,0,0.26458333,39.775694,42.333331)"><g id="g602" transform="scale(1.5,1.5)"><path style="fill:#ff6ea1;fill-opacity:1;stroke:#ff2c76;stroke-width:1;stroke-linecap:round;stroke-opacity:1" id="path596" d="m 8.5,0.5 60,0 0,20 -60,0 0,-8 0,-1 -6,0 0,3 -2,0 0,-8 2,0 0,3 6,0 0,-1 z"/><text style="font-size:10px;font-family:sans-serif;text-anchor:start;fill:#282828" id="text600"><tspan id="tspan598" x="13" y="14">7</tspan></text></g></g><g id="g618" transform="matrix(0.26458333,0,0,0.26458333,9.3486145,50.799998)"><g id="g616" transform="scale(1.5,1.5)"><path style="fill:#7cd622;fill-opacity:1;stroke:#57ad02;stroke-width:1;stroke-linecap:round;stroke-opacity:1" id="path606" d="m -13.722222,8.5 0,-4 c 0,-2.209139 1.790861,-4 3.9999995,-4 l 4,0 0,2 10,0 0,-2 72.0298395,0 4,0 c 2.209139,0 4,1.790861 4,4 l 0,4 -4,0 0,-3 -4,0 0,10 4,0 0,-3 4,0 0,4 c 0,2.209139 -1.790861,4 -4,4 l -4,0 -72.0298395,0 -1,0 0,2 -8,0 0,-2 -1,0 -4,0 c -2.2091385,0 -6.1266295,-3.401885 -3.9999995,-4 l 0,-4 z"/><text style="font-size:10px;font-family:sans-serif;text-anchor:end;fill:#282828" id="text610"><tspan id="tspan608" x="74" y="14">音の高さを数で表示</tspan></text></g></g><g id="g628" transform="matrix(0.26458333,0,0,0.26458333,39.775694,50.799998)"><g id="g626" transform="scale(1.5,1.5)"><path style="fill:#ff6ea1;fill-opacity:1;stroke:#ff2c76;stroke-width:1;stroke-linecap:round;stroke-opacity:1" id="path620" d="m 8.5,0.5 60,0 0,20 -60,0 0,-8 0,-1 -6,0 0,3 -2,0 0,-8 2,0 0,3 6,0 0,-1 z"/><text style="font-size:10px;font-family:sans-serif;text-anchor:start;fill:#282828" id="text624"><tspan id="tspan622" x="13" y="14">9</tspan></text></g></g><g id="g642" transform="matrix(0.26458333,0,0,0.26458333,9.3486145,59.266665)"><g id="g640" transform="scale(1.5,1.5)"><path style="fill:#7cd622;fill-opacity:1;stroke:#57ad02;stroke-width:1;stroke-linecap:round;stroke-opacity:1" id="path630" d="m -13.722222,8.5 0,-4 c 0,-2.209139 1.790861,-4 3.9999995,-4 l 4,0 0,2 10,0 0,-2 72.0298395,0 4,0 c 2.209139,0 4,1.790861 4,4 l 0,4 -4,0 0,-3 -4,0 0,10 4,0 0,-3 4,0 0,4 c 0,2.209139 -1.790861,4 -4,4 l -4,0 -72.0298395,0 -1,0 0,2 -8,0 0,-2 -1,0 -4,0 c -2.2091385,0 -3.9999995,-1.790861 -3.9999995,-4 l 0,-4 z"/><text style="font-size:10px;font-family:sans-serif;text-anchor:end;fill:#282828" id="text634"><tspan id="tspan632" x="74" y="14">音の高さを数で表示</tspan></text></g></g><g id="g652" transform="matrix(0.26458333,0,0,0.26458333,39.775694,59.266665)"><g id="g650" transform="scale(1.5,1.5)"><path style="fill:#ff6ea1;fill-opacity:1;stroke:#ff2c76;stroke-width:1;stroke-linecap:round;stroke-opacity:1" id="path644" d="m 8.5,0.5 60,0 0,20 -60,0 0,-8 0,-1 -6,0 0,3 -2,0 0,-8 2,0 0,3 6,0 0,-1 z"/><text style="font-size:10px;font-family:sans-serif;text-anchor:start;fill:#282828" id="text648"><tspan id="tspan646" x="13" y="14">11</tspan></text></g></g></svg>