<svg xmlns="http://www.w3.org/2000/svg" xmlns:svg="http://www.w3.org/2000/svg" id="svg2831" width="392.083" height="63" version="1.1" viewBox="0 0 103.739 16.669"><metadata id="metadata2828"/><g id="g852" transform="matrix(0.26458333,0,0,0.26458333,11.288889,0)"><g id="g850" transform="scale(1.5,1.5)"><path style="fill:#daa926;fill-opacity:1;stroke:#daaf30;stroke-width:1;stroke-linecap:round;stroke-opacity:1" id="path840" d="m -27.944445,8.5 0,-4 c 0,-2.209139 1.790861,-4 4,-4 l 4,0 0,2 10,0 0,-2 58.444445,0 4,0 c 2.209139,0 4,1.790861 4,4 l 0,4 -4,0 0,-3 -4,0 0,10 4,0 0,-3 4,0 0,4 c 0,2.209139 -1.790861,4 -4,4 l -4,0 -58.444445,0 -1,0 0,2 -8,0 0,-2 -1,0 -4,0 c -2.209139,0 -4,-1.790861 -4,-4 l 0,-4 z"/><text style="font-size:10px;font-family:sans-serif;text-anchor:end;fill:#282828" id="text844"><tspan id="tspan842" x="46" y="14">アクション実行</tspan></text></g></g><g id="g862" transform="matrix(0.26458333,0,0,0.26458333,64.646527,0)"><g id="g860" transform="scale(1.5,1.5)"><path style="fill:#ff5942;fill-opacity:1;stroke-width:1;stroke-linecap:round;stroke-opacity:1" id="path854" d="m 8.5,0.5 90,0 0,20 -90,0 0,-8 0,-1 -6,0 0,3 -2,0 0,-8 2,0 0,3 6,0 0,-1 z"/><text style="font-size:10px;font-family:sans-serif;text-anchor:start;fill:#282828" id="text858"><tspan id="tspan856" x="13" y="14">フレーズ1</tspan></text></g></g><g id="g1048" transform="matrix(0.26458333,0,0,0.26458333,64.646527,8.334379)"><g id="g1046" transform="scale(1.5,1.5)"><path style="fill:#ff5942;fill-opacity:1;stroke-width:1;stroke-linecap:round;stroke-opacity:1" id="path1040" d="m 8.5,0.5 90,0 0,20 -90,0 0,-8 0,-1 -6,0 0,3 -2,0 0,-8 2,0 0,3 6,0 0,-1 z"/><text style="font-size:10px;font-family:sans-serif;text-anchor:start;fill:#282828" id="text1044"><tspan id="tspan1042" x="13" y="14">フレーズ2</tspan></text></g></g><g id="g1076" transform="matrix(0.26458333,0,0,0.26458333,42.024652,0)"><g id="g1074" transform="scale(1.5,1.5)"><path style="fill:#ff5293;fill-opacity:1;stroke:#ff2c76;stroke-width:1;stroke-linecap:round;stroke-opacity:1" id="path1060" d="m -19.944443,8.5 0,-4 c 0,-2.209139 1.790861,-4 4,-4 l 4,0 9.9999999,0 58.4444431,0 4,0 c 2.209139,0 4,1.790861 4,4 l 0,4 -4,0 0,-3 -4,0 0,10 4,0 0,-3 4,0 0,17 -4,0 0,-3 -4,0 0,10 4,0 0,-3 4,0 0,4 c 0,2.209139 -1.790861,4 -4,4 l -4,0 -58.4444431,0 -9.9999999,0 -4,0 c -2.209139,0 -6.12663,-3.401885 -4,-4 l 0,-4 0,-21 0,-1 -6,0 0,3 -2,0 0,-8 2,0 0,3 6,0 z"/><text style="font-size:10px;font-family:sans-serif;text-anchor:end;fill:#282828" id="text1064"><tspan id="tspan1062" x="54" y="23">どちらかランダム</tspan></text><text style="font-size:6.66666651px;font-family:sans-serif;text-anchor:end;fill:#282828" id="text1068"><tspan id="tspan1066" x="54" y="12">これか</tspan></text><text style="font-size:6.66666651px;font-family:sans-serif;text-anchor:end;fill:#282828" id="text1072"><tspan id="tspan1070" x="54" y="33">それか</tspan></text></g></g></svg>