<svg xmlns="http://www.w3.org/2000/svg" xmlns:svg="http://www.w3.org/2000/svg" id="svg1870" width="334.5" height="286.5" version="1.1" viewBox="0 0 88.503 75.803"><metadata id="metadata1867"/><g id="g82" transform="matrix(0.26458333,0,0,0.26458333,-316.70625,-27.51667)"><g id="g62" transform="translate(1210.5,135.5)"><g id="g60" transform="scale(1.5)"><path id="path50" d="m 0.5,8.5 v -4 a 4,4 90 0 1 4,-4 h 4 v 2 h 10 v -2 h 9 60 4 a 4,4 90 0 1 4,4 v 4 h -4 v -3 h -4 v 10 h 4 v -3 h 4 v 4 a 4,4 90 0 1 -4,4 h -4 -60 -1 v 2 h -8 v -2 h -1 -4 a 5,5 90 0 0 -5,5 v 4 4 84 4 a 5,5 90 0 0 5,5 h 4 v 2 h 10 v -2 h 8 v 6 6 4 a 4,4 90 0 1 -4,4 h -4 -9 -1 v 2 h -8 v -2 h -1 -4 a 4,4 90 0 1 -4,-4 v -4 z" style="fill:#ff8b2d;fill-opacity:1;stroke:#e86b0e;stroke-width:1;stroke-linecap:round;stroke-opacity:1"/><text id="text54" style="font-size:10px;font-family:sans-serif;text-anchor:start;fill:#282828"><tspan id="tspan52" x="20" y="15">音符</tspan></text><text id="text58" style="font-size:6.66666651px;font-family:sans-serif;text-anchor:end;fill:#282828"><tspan id="tspan56" x="85" y="12">長さ</tspan></text></g></g><g id="g80" transform="matrix(0.5,0,0,0.5,1210.5,139.5)"><g id="g78" style="isolation:isolate"><g id="g76" data-name="レイヤー 2"><g id="g74"><rect id="rect64" width="42" height="42" x="0" y="0" rx="5" ry="5" style="opacity:.4;mix-blend-mode:multiply;fill:#292929"/><path id="path66" d="m 30.56,29.8 -4.17,-4.16 h 2.26 a 1.035,1.035 0 1 0 0,-2.07 h -4.71 a 1.08,1.08 0 0 0 -1.11,1 v 0 c 0,0 0,0 0,0.06 v 4.64 0 a 1.04,1.04 0 1 0 2.08,0 v -2.19 l 4.19,4.19 a 1,1 0 0 0 1.46,0 1,1 0 0 0 0,-1.47 z" style="fill:#fff"/><path id="path68" d="m 19.17,24.6 a 1.08,1.08 0 0 0 -1.11,-1 h -4.71 a 1.035,1.035 0 1 0 0,2.07 h 2.25 l -4.16,4.13 a 1.039447,1.039447 0 0 0 1.47,1.47 l 4.18,-4.19 v 2.26 a 1.04,1.04 0 1 0 2.08,0 V 24.7 c 0,0 0,0 0,-0.06 a 0.08,0.08 0 0 1 0,-0.04 z" style="fill:#fff"/><path id="path70" d="m 23.94,20.5 h 4.7 a 1.04,1.04 0 1 0 0,-2.08 h -2.25 l 4.17,-4.16 a 1,1 0 0 0 0,-1.47 1,1 0 0 0 -1.46,0 L 24.91,17 v -2.28 a 1.04,1.04 0 1 0 -2.08,0 v 4.64 a 0.43,0.43 0 0 0 0,0.05 v 0.05 a 1.09,1.09 0 0 0 1.11,1.04 z" style="fill:#fff"/><path id="path72" d="m 18.13,13.62 a 1.08,1.08 0 0 0 -1,1.09 V 17 l -4.18,-4.19 a 1,1 0 0 0 -1.47,0 1,1 0 0 0 0,1.46 l 4.16,4.17 h -2.29 a 1.04,1.04 0 1 0 0,2.08 h 4.71 a 1.09,1.09 0 0 0 1.11,-1 c 0,0 0,0 0,-0.06 v -4.75 a 1.07,1.07 0 0 0 -1.04,-1.09 z" style="fill:#fff"/></g></g></g></g></g><g id="g100" transform="matrix(0.26458333,0,0,0.26458333,38.496871,8.3343712)"><g id="g98" transform="scale(1.5)"><path id="path84" d="m 8.5,8.5 v -4 a 4,4 90 0 1 4,-4 h 4 10 30 4 a 4,4 90 0 1 4,4 v 4 h -4 v -3 h -4 v 10 h 4 v -3 h 4 v 17 h -4 v -3 h -4 v 10 h 4 v -3 h 4 v 4 a 4,4 90 0 1 -4,4 h -4 -30 -10 -4 a 4,4 90 0 1 -4,-4 v -4 -21 -1 h -6 v 3 h -2 v -8 h 2 v 3 h 6 z" style="fill:#ff5293;fill-opacity:1;stroke:#ff2c76;stroke-width:1;stroke-linecap:round;stroke-opacity:1"/><text id="text88" style="font-size:9px;font-family:sans-serif;text-anchor:end;fill:#282828"><tspan id="tspan86" x="54" y="23">➗</tspan></text></g></g><g id="g110" transform="matrix(0.26458333,0,0,0.26458333,61.118745,8.3343712)"><g id="g108" transform="scale(1.5)"><path id="path102" d="m 8.5,0.5 h 60 v 20 h -60 v -8 -1 h -6 v 3 h -2 v -8 h 2 v 3 h 6 v -1 z" style="fill:#ff5293;fill-opacity:1;stroke:#ff2c76;stroke-width:1;stroke-linecap:round;stroke-opacity:1"/><text id="text106" style="font-size:10px;font-family:sans-serif;text-anchor:start;fill:#282828"><tspan id="tspan104" x="13" y="14">1</tspan></text></g></g><g id="g120" transform="matrix(0.26458333,0,0,0.26458333,61.118745,16.668746)"><g id="g118" transform="scale(1.5)"><path id="path112" d="m 8.5,0.5 h 60 v 20 h -60 v -8 -1 h -6 v 3 h -2 v -8 h 2 v 3 h 6 v -1 z" style="fill:#ff5293;fill-opacity:1;stroke:#ff2c76;stroke-width:1;stroke-linecap:round;stroke-opacity:1"/><text id="text116" style="font-size:10px;font-family:sans-serif;text-anchor:start;fill:#282828"><tspan id="tspan114" x="13" y="14">4</tspan></text></g></g><g id="g130" transform="matrix(0.26458333,0,0,0.26458333,7.1437459,16.668746)"><g id="g128" transform="scale(1.5)"><path id="path122" d="m 0.5,8.5 v -4 a 4,4 90 0 1 4,-4 h 4 v 2 h 10 v -2 h 20 4 a 4,4 90 0 1 4,4 v 4 4 4 a 4,4 90 0 1 -4,4 h -4 -20 -1 v 2 h -8 v -2 h -1 -4 a 4,4 90 0 1 -4,-4 v -4 z" style="fill:#b0b0b0;fill-opacity:1;stroke:#a0a0a0;stroke-width:1;stroke-linecap:round;stroke-opacity:1"/><text id="text126" style="font-size:10px;font-family:sans-serif;text-anchor:end;fill:#282828"><tspan id="tspan124" x="36" y="14">↓</tspan></text></g></g><g id="g148" transform="matrix(0.26458333,0,0,0.26458333,12.788191,25.003121)"><g id="g146" transform="scale(1.5,1.5)"><path id="path132" d="m -13.722223,8.5 0,-4 c 0,-2.209139 1.790861,-4 3.9999996,-4 l 4,0 0,2 10,0 0,-2 44.2222234,0 4,0 c 2.209139,0 4,1.790861 4,4 l 0,4 -4,0 0,-3 -4,0 0,10 4,0 0,-3 4,0 0,17 -4,0 0,-3 -4,0 0,10 4,0 0,-3 4,0 0,4 c 0,2.209139 -1.790861,4 -4,4 l -4,0 -44.2222234,0 -1,0 0,2 -8,0 0,-2 -1,0 -4,0 c -2.2091386,0 -3.9999996,-1.790861 -3.9999996,-4 l 0,-4 0,-21 z" style="fill:#77c428;fill-opacity:1;stroke:#57ad02;stroke-width:1;stroke-linecap:round;stroke-opacity:1"/><text id="text136" style="font-size:10px;font-family:sans-serif;text-anchor:end;fill:#282828"><tspan id="tspan134" x="46" y="24">音の高さ</tspan></text><text id="text140" style="font-size:6.66666651px;font-family:sans-serif;text-anchor:end;fill:#282828"><tspan id="tspan138" x="46" y="12">名前</tspan></text><text id="text144" style="font-size:6.66666651px;font-family:sans-serif;text-anchor:end;fill:#282828"><tspan id="tspan142" x="46" y="33">オクターヴの高さ</tspan></text></g></g><g id="g158" transform="matrix(0.26458333,0,0,0.26458333,32.235066,25.003121)"><g id="g156" transform="scale(1.5,1.5)"><path id="path150" d="m 8.5,0.5 60,0 0,20 -60,0 0,-8 0,-1 -6,0 0,3 -2,0 0,-8 2,0 0,3 6,0 0,-1 z" style="fill:#77c428;fill-opacity:1;stroke:#57ad02;stroke-width:1;stroke-linecap:round;stroke-opacity:1"/><text id="text154" style="font-size:10px;font-family:sans-serif;text-anchor:start;fill:#282828"><tspan id="tspan152" x="13" y="14">ソ</tspan></text></g></g><g id="g168" transform="matrix(0.26458333,0,0,0.26458333,32.235066,33.337496)"><g id="g166" transform="scale(1.5,1.5)"><path id="path160" d="m 8.5,0.5 60,0 0,20 -60,0 0,-8 0,-1 -6,0 0,3 -2,0 0,-8 2,0 0,3 6,0 0,-1 z" style="fill:#ff5293;fill-opacity:1;stroke:#ff2c76;stroke-width:1;stroke-linecap:round;stroke-opacity:1"/><text id="text164" style="font-size:10px;font-family:sans-serif;text-anchor:start;fill:#282828"><tspan id="tspan162" x="13" y="14">4</tspan></text></g></g><g id="g182" transform="matrix(0.26458333,0,0,0.26458333,7.1437459,41.671871)"><g id="g180" transform="scale(1.5)"><path id="path170" d="m 0.5,8.5 v -4 a 4,4 90 0 1 4,-4 h 4 v 2 h 10 v -2 h 33.344727 4 a 4,4 90 0 1 4,4 v 4 h -4 v -3 h -4 v 10 h 4 v -3 h 4 v 4 a 4,4 90 0 1 -4,4 h -4 H 18.5 h -1 v 2 h -8 v -2 h -1 -4 a 4,4 90 0 1 -4,-4 v -4 z" style="fill:#728ff9;fill-opacity:1;stroke:#5370dc;stroke-width:1;stroke-linecap:round;stroke-opacity:1"/><text id="text174" style="font-size:10px;font-family:sans-serif;text-anchor:end;fill:#282828"><tspan id="tspan172" x="50" y="14">前へ進む</tspan></text></g></g><g id="g192" transform="matrix(0.26458333,0,0,0.26458333,27.918062,41.671871)"><g id="g190" transform="scale(1.5)"><path id="path184" d="m 8.5,0.5 h 60 v 20 h -60 v -8 -1 h -6 v 3 h -2 v -8 h 2 v 3 h 6 v -1 z" style="fill:#ff5293;fill-opacity:1;stroke:#ff2c76;stroke-width:1;stroke-linecap:round;stroke-opacity:1"/><text id="text188" style="font-size:10px;font-family:sans-serif;text-anchor:start;fill:#282828"><tspan id="tspan186" x="13" y="14">100</tspan></text></g></g><path id="path194" d="m 7.3421834,53.379683 v -1.5875 c 0,-0.876752 0.710748,-1.5875 1.5875,-1.5875 h 1.5874996 v 0.79375 h 3.96875 v -0.79375 h 16.139584 1.5875 c 0.876752,0 1.864753,0.75574 1.5875,1.5875 v 1.5875 h -1.5875 v -1.190625 h -1.5875 v 3.96875 h 1.5875 v -1.190625 h 1.5875 v 1.5875 c 0,0.876753 -0.710748,1.5875 -1.5875,1.5875 h -1.5875 -16.139584 -0.396875 v 0.79375 h -3.175 v -0.79375 H 10.517183 8.9296834 c -0.876752,0 -1.5875,-0.710747 -1.5875,-1.5875 v -1.5875 z" style="fill:#728ff9;fill-opacity:1;stroke:#5370dc;stroke-width:.39687499;stroke-linecap:round;stroke-opacity:1"/><text id="text198" x="11.377" y="50.006" style="font-size:3.96875px;font-family:sans-serif;text-anchor:end;fill:#282828;stroke-width:.39687499"><tspan style="stroke-width:.39687499" id="tspan196" x="29.633" y="55.562">右に曲がる</tspan></text><g id="g216" transform="matrix(0.26458333,0,0,0.26458333,30.823957,50.006246)"><g id="g214" transform="scale(1.5)"><path id="path208" d="m 8.5,0.5 h 60 v 20 h -60 v -8 -1 h -6 v 3 h -2 v -8 h 2 v 3 h 6 v -1 z" style="fill:#ff5293;fill-opacity:1;stroke:#ff2c76;stroke-width:1;stroke-linecap:round;stroke-opacity:1"/><text id="text212" style="font-size:10px;font-family:sans-serif;text-anchor:start;fill:#282828"><tspan id="tspan210" x="13" y="14">90</tspan></text></g></g><g id="g230" transform="matrix(0.26458333,0,0,0.26458333,-3.99e-6,-3.68e-6)"><g id="g228" transform="scale(1.5)"><path id="path218" d="m 0.5,8.5 v -4 c 0,-2.209139 1.790861,-4 4,-4 h 4 v 2 h 10 v -2 h 9 41.333334 4 c 2.209139,0 4,1.790861 4,4 v 4 h -4 v -3 h -4 v 10 h 4 v -3 h 4 v 4 c 0,2.209139 -1.790861,4 -4,4 h -4 H 27.5 h -1 v 2 h -8 v -2 h -1 -4 c -2.761424,0 -5,2.238576 -5,5 v 4 4 126 4 c 0,2.76142 2.238576,5 5,5 h 4 v 2 h 10 v -2 h 8 v 6 6 4 c 0,2.20914 -1.790861,4 -4,4 h -4 -9 -1 v 2 h -8 v -2 h -1 -4 c -2.209139,0 -4,-1.79086 -4,-4 v -4 z" style="fill:#d68136;fill-opacity:1;stroke:#b7651a;stroke-width:1;stroke-linecap:round;stroke-opacity:1"/><text id="text222" style="font-size:10px;font-family:sans-serif;text-anchor:start;fill:#282828"><tspan id="tspan220" x="5" y="15">～回繰り返す</tspan></text></g></g><g id="g240" transform="matrix(0.26458333,0,0,0.26458333,27.516668,-3.68e-6)"><g id="g238" transform="scale(1.5)"><path id="path232" d="m 8.5,0.5 h 60 v 20 h -60 v -8 -1 h -6 v 3 h -2 v -8 h 2 v 3 h 6 v -1 z" style="fill:#ff5293;fill-opacity:1;stroke:#ff2c76;stroke-width:1;stroke-linecap:round;stroke-opacity:1"/><text id="text236" style="font-size:10px;font-family:sans-serif;text-anchor:start;fill:#282828"><tspan id="tspan234" x="13" y="14">4</tspan></text></g></g></svg>