<svg xmlns="http://www.w3.org/2000/svg" xmlns:svg="http://www.w3.org/2000/svg" id="svg1651" width="335.5" height="444.5" version="1.1" viewBox="0 0 88.768 117.607"><metadata id="metadata1648"/><g id="g190" transform="matrix(0.26458333,0,0,0.26458333,1e-5,0)"><g id="g188" transform="scale(1.5,1.5)"><path id="path170" d="m 0.5,8.5 0,-4 a 4,4 90 0 1 4,-4 l 4,0 0,2 10,0 0,-2 9,0 30,0 4,0 a 4,4 90 0 1 4,4 l 0,4 -4,0 0,-3 -4,0 0,10 4,0 0,-3 4,0 0,17 -4,0 0,-3 -4,0 0,10 4,0 0,-3 4,0 0,17 -4,0 0,-3 -4,0 0,10 4,0 0,-3 4,0 0,4 a 4,4 90 0 1 -4,4 l -4,0 -30,0 -1,0 0,2 -8,0 0,-2 -1,0 -4,0 a 5,5 90 0 0 -5,5 l 0,4 0,4 0,84 0,4 a 5,5 90 0 0 5,5 l 4,0 0,2 10,0 0,-2 8,0 0,6 0,6 0,4 a 4,4 90 0 1 -4,4 l -4,0 -9,0 -1,0 0,2 -8,0 0,-2 -1,0 -4,0 a 4,4 90 0 1 -4,-4 l 0,-4 z" style="fill:#7cd622;fill-opacity:1;stroke:#57ad02;stroke-width:1;stroke-linecap:round;stroke-opacity:1"/><text id="text174" style="font-size:10px;font-family:sans-serif;text-anchor:start;fill:#282828"><tspan id="tspan172" x="5" y="22">てんかい</tspan></text><text id="text178" style="font-size:6.66666651px;font-family:sans-serif;text-anchor:end;fill:#282828"><tspan id="tspan176" x="55" y="12">え名前</tspan></text><text id="text182" style="font-size:6.66666651px;font-family:sans-serif;text-anchor:end;fill:#282828"><tspan id="tspan180" x="55" y="33">オクターヴの高さ</tspan></text><text id="text186" style="font-size:6.66666651px;font-family:sans-serif;text-anchor:end;fill:#282828"><tspan id="tspan184" x="55" y="54">偶数/奇数/音階的</tspan></text></g></g><g id="g200" transform="matrix(0.26458333,0,0,0.26458333,23.01876,0)"><g id="g198" transform="scale(1.5,1.5)"><path id="path192" d="m 8.5,0.5 60,0 0,20 -60,0 0,-8 0,-1 -6,0 0,3 -2,0 0,-8 2,0 0,3 6,0 0,-1 z" style="fill:#7cd622;fill-opacity:1;stroke:#57ad02;stroke-width:1;stroke-linecap:round;stroke-opacity:1"/><text id="text196" style="font-size:10px;font-family:sans-serif;text-anchor:start;fill:#282828"><tspan id="tspan194" x="13" y="14">ド</tspan></text></g></g><g id="g210" transform="matrix(0.26458333,0,0,0.26458333,23.01876,8.466667)"><g id="g208" transform="scale(1.5,1.5)"><path id="path202" d="m 8.5,0.5 60,0 0,20 -60,0 0,-8 0,-1 -6,0 0,3 -2,0 0,-8 2,0 0,3 6,0 0,-1 z" style="fill:#ff6ea1;fill-opacity:1;stroke:#ff2c76;stroke-width:1;stroke-linecap:round;stroke-opacity:1"/><text id="text206" style="font-size:10px;font-family:sans-serif;text-anchor:start;fill:#282828"><tspan id="tspan204" x="13" y="14">5</tspan></text></g></g><g id="g220" transform="matrix(0.26458333,0,0,0.26458333,23.01876,16.66875)"><g id="g218" transform="scale(1.5,1.5)"><path id="path212" d="m 8.5,0.5 110,0 0,20 -110,0 0,-8 0,-1 -6,0 0,3 -2,0 0,-8 2,0 0,3 6,0 0,-1 z" style="fill:#7cd622;fill-opacity:1;stroke:#57ad02;stroke-width:1;stroke-linecap:round;stroke-opacity:1"/><text id="text216" style="font-size:10px;font-family:sans-serif;text-anchor:start;fill:#282828"><tspan id="tspan214" x="13" y="14">ぐうすう</tspan></text></g></g><g id="g254" transform="matrix(0.26458333,0,0,0.26458333,-341.84166,-162.45417)"><g id="g234" transform="translate(1306,709)"><g id="g232" transform="scale(1.5,1.5)"><path id="path222" d="m 0.5,8.5 0,-4 a 4,4 90 0 1 4,-4 l 4,0 0,2 10,0 0,-2 9,0 60,0 4,0 a 4,4 90 0 1 4,4 l 0,4 -4,0 0,-3 -4,0 0,10 4,0 0,-3 4,0 0,4 a 4,4 90 0 1 -4,4 l -4,0 -60,0 -1,0 0,2 -8,0 0,-2 -1,0 -4,0 a 5,5 90 0 0 -5,5 l 0,4 0,4 0,42 0,4 a 5,5 90 0 0 5,5 l 4,0 0,2 10,0 0,-2 8,0 0,6 0,6 0,4 a 4,4 90 0 1 -4,4 l -4,0 -9,0 -1,0 0,2 -8,0 0,-2 -1,0 -4,0 a 4,4 90 0 1 -4,-4 l 0,-4 z" style="fill:#fe994f;fill-opacity:1;stroke:#e86b0e;stroke-width:1;stroke-linecap:round;stroke-opacity:1"/><text id="text226" style="font-size:10px;font-family:sans-serif;text-anchor:start;fill:#282828"><tspan id="tspan224" x="20" y="15">音符</tspan></text><text id="text230" style="font-size:6.66666651px;font-family:sans-serif;text-anchor:end;fill:#282828"><tspan id="tspan228" x="85" y="12">長さ</tspan></text></g></g><g id="g252" transform="matrix(0.5,0,0,0.5,1306,713)"><g id="g250" style="isolation:isolate"><g id="g248" data-name="レイヤー 2"><g id="g246"><rect id="rect236" width="42" height="42" x="0" y="0" rx="5" ry="5" style="opacity:.4;mix-blend-mode:multiply;fill:#292929"/><path id="path238" d="m 30.56,29.8 -4.17,-4.16 2.26,0 a 1.035,1.035 0 1 0 0,-2.07 l -4.71,0 a 1.08,1.08 0 0 0 -1.11,1 l 0,0 c 0,0 0,0 0,0.06 l 0,4.64 0,0 a 1.04,1.04 0 1 0 2.08,0 l 0,-2.19 4.19,4.19 a 1,1 0 0 0 1.46,0 1,1 0 0 0 0,-1.47 z" style="fill:#fff"/><path id="path240" d="m 19.17,24.6 a 1.08,1.08 0 0 0 -1.11,-1 l -4.71,0 a 1.035,1.035 0 1 0 0,2.07 l 2.25,0 -4.16,4.13 a 1.039447,1.039447 0 0 0 1.47,1.47 l 4.18,-4.19 0,2.26 a 1.04,1.04 0 1 0 2.08,0 l 0,-4.64 c 0,0 0,0 0,-0.06 a 0.08,0.08 0 0 1 0,-0.04 z" style="fill:#fff"/><path id="path242" d="m 23.94,20.5 4.7,0 a 1.04,1.04 0 1 0 0,-2.08 l -2.25,0 4.17,-4.16 a 1,1 0 0 0 0,-1.47 1,1 0 0 0 -1.46,0 l -4.19,4.21 0,-2.28 a 1.04,1.04 0 1 0 -2.08,0 l 0,4.64 a 0.43,0.43 0 0 0 0,0.05 l 0,0.05 a 1.09,1.09 0 0 0 1.11,1.04 z" style="fill:#fff"/><path id="path244" d="m 18.13,13.62 a 1.08,1.08 0 0 0 -1,1.09 l 0,2.29 -4.18,-4.19 a 1,1 0 0 0 -1.47,0 1,1 0 0 0 0,1.46 l 4.16,4.17 -2.29,0 a 1.04,1.04 0 1 0 0,2.08 l 4.71,0 a 1.09,1.09 0 0 0 1.11,-1 c 0,0 0,0 0,-0.06 l 0,-4.75 a 1.07,1.07 0 0 0 -1.04,-1.09 z" style="fill:#fff"/></g></g></g></g></g><g id="g272" transform="matrix(0.26458333,0,0,0.26458333,38.629177,25.135417)"><g id="g270" transform="scale(1.5,1.5)"><path id="path256" d="m 8.5,8.5 0,-4 a 4,4 90 0 1 4,-4 l 4,0 10,0 30,0 4,0 a 4,4 90 0 1 4,4 l 0,4 -4,0 0,-3 -4,0 0,10 4,0 0,-3 4,0 0,17 -4,0 0,-3 -4,0 0,10 4,0 0,-3 4,0 0,4 a 4,4 90 0 1 -4,4 l -4,0 -30,0 -10,0 -4,0 a 4,4 90 0 1 -4,-4 l 0,-4 0,-21 0,-1 -6,0 0,3 -2,0 0,-8 2,0 0,3 6,0 z" style="fill:#ff6ea1;fill-opacity:1;stroke:#ff2c76;stroke-width:1;stroke-linecap:round;stroke-opacity:1"/><text id="text260" style="font-size:9px;font-family:sans-serif;text-anchor:end;fill:#282828"><tspan id="tspan258" x="54" y="23">➗</tspan></text></g></g><g id="g282" transform="matrix(0.26458333,0,0,0.26458333,61.383343,25.135417)"><g id="g280" transform="scale(1.5,1.5)"><path id="path274" d="m 8.5,0.5 60,0 0,20 -60,0 0,-8 0,-1 -6,0 0,3 -2,0 0,-8 2,0 0,3 6,0 0,-1 z" style="fill:#ff6ea1;fill-opacity:1;stroke:#ff2c76;stroke-width:1;stroke-linecap:round;stroke-opacity:1"/><text id="text278" style="font-size:10px;font-family:sans-serif;text-anchor:start;fill:#282828"><tspan id="tspan276" x="13" y="14">1</tspan></text></g></g><g id="g292" transform="matrix(0.26458333,0,0,0.26458333,61.383343,33.602083)"><g id="g290" transform="scale(1.5,1.5)"><path id="path284" d="m 8.5,0.5 60,0 0,20 -60,0 0,-8 0,-1 -6,0 0,3 -2,0 0,-8 2,0 0,3 6,0 0,-1 z" style="fill:#ff6ea1;fill-opacity:1;stroke:#ff2c76;stroke-width:1;stroke-linecap:round;stroke-opacity:1"/><text id="text288" style="font-size:10px;font-family:sans-serif;text-anchor:start;fill:#282828"><tspan id="tspan286" x="13" y="14">4</tspan></text></g></g><g id="g302" transform="matrix(0.26458333,0,0,0.26458333,7.4083436,33.602083)"><g id="g300" transform="scale(1.5,1.5)"><path id="path294" d="m 0.5,8.5 0,-4 a 4,4 90 0 1 4,-4 l 4,0 0,2 10,0 0,-2 20,0 4,0 a 4,4 90 0 1 4,4 l 0,4 0,4 0,4 a 4,4 90 0 1 -4,4 l -4,0 -20,0 -1,0 0,2 -8,0 0,-2 -1,0 -4,0 a 4,4 90 0 1 -4,-4 l 0,-4 z" style="fill:#c4c4c4;fill-opacity:1;stroke:#a0a0a0;stroke-width:1;stroke-linecap:round;stroke-opacity:1"/><text id="text298" style="font-size:10px;font-family:sans-serif;text-anchor:end;fill:#282828"><tspan id="tspan296" x="36" y="14">↓</tspan></text></g></g><g id="g320" transform="matrix(0.26458333,0,0,0.26458333,13.052788,42.06875)"><g id="g318" transform="scale(1.5,1.5)"><path id="path304" d="m -13.722222,8.5 0,-4 c 0,-2.209139 1.790861,-4 3.9999995,-4 l 4,0 0,2 10,0 0,-2 44.2222225,0 4,0 c 2.209139,0 4,1.790861 4,4 l 0,4 -4,0 0,-3 -4,0 0,10 4,0 0,-3 4,0 0,17 -4,0 0,-3 -4,0 0,10 4,0 0,-3 4,0 0,4 c 0,2.209139 -1.790861,4 -4,4 l -4,0 -44.2222225,0 -1,0 0,2 -8,0 0,-2 -1,0 -4,0 c -2.2091385,0 -6.1266295,-3.401885 -3.9999995,-4 l 0,-4 0,-21 z" style="fill:#7cd622;fill-opacity:1;stroke:#57ad02;stroke-width:1;stroke-linecap:round;stroke-opacity:1"/><text id="text308" style="font-size:10px;font-family:sans-serif;text-anchor:end;fill:#282828"><tspan id="tspan306" x="46" y="24">音の高さ</tspan></text><text id="text312" style="font-size:6.66666651px;font-family:sans-serif;text-anchor:end;fill:#282828"><tspan id="tspan310" x="46" y="12">名前</tspan></text><text id="text316" style="font-size:6.66666651px;font-family:sans-serif;text-anchor:end;fill:#282828"><tspan id="tspan314" x="46" y="33">オクターヴの高さ</tspan></text></g></g><g id="g330" transform="matrix(0.26458333,0,0,0.26458333,32.631954,42.06875)"><g id="g328" transform="scale(1.5,1.5)"><path id="path322" d="m 8.5,0.5 60,0 0,20 -60,0 0,-8 0,-1 -6,0 0,3 -2,0 0,-8 2,0 0,3 6,0 0,-1 z" style="fill:#7cd622;fill-opacity:1;stroke:#57ad02;stroke-width:1;stroke-linecap:round;stroke-opacity:1"/><text id="text326" style="font-size:10px;font-family:sans-serif;text-anchor:start;fill:#282828"><tspan id="tspan324" x="13" y="14">ファ</tspan></text></g></g><g id="g340" transform="matrix(0.26458333,0,0,0.26458333,32.631954,50.535417)"><g id="g338" transform="scale(1.5,1.5)"><path id="path332" d="m 8.5,0.5 60,0 0,20 -60,0 0,-8 0,-1 -6,0 0,3 -2,0 0,-8 2,0 0,3 6,0 0,-1 z" style="fill:#ff6ea1;fill-opacity:1;stroke:#ff2c76;stroke-width:1;stroke-linecap:round;stroke-opacity:1"/><text id="text336" style="font-size:10px;font-family:sans-serif;text-anchor:start;fill:#282828"><tspan id="tspan334" x="13" y="14">4</tspan></text></g></g><g id="g374" transform="matrix(0.26458333,0,0,0.26458333,-341.84166,-162.45417)"><g id="g354" transform="translate(1292,898)"><g id="g352" transform="scale(1.5,1.5)"><path id="path342" d="m 0.5,8.5 0,-4 a 4,4 90 0 1 4,-4 l 4,0 0,2 10,0 0,-2 9,0 60,0 4,0 a 4,4 90 0 1 4,4 l 0,4 -4,0 0,-3 -4,0 0,10 4,0 0,-3 4,0 0,4 a 4,4 90 0 1 -4,4 l -4,0 -60,0 -1,0 0,2 -8,0 0,-2 -1,0 -4,0 a 5,5 90 0 0 -5,5 l 0,4 0,4 0,42 0,4 a 5,5 90 0 0 5,5 l 4,0 0,2 10,0 0,-2 8,0 0,6 0,6 0,4 a 4,4 90 0 1 -4,4 l -4,0 -9,0 -1,0 0,2 -8,0 0,-2 -1,0 -4,0 a 4,4 90 0 1 -4,-4 l 0,-4 z" style="fill:#fe994f;fill-opacity:1;stroke:#e86b0e;stroke-width:1;stroke-linecap:round;stroke-opacity:1"/><text id="text346" style="font-size:10px;font-family:sans-serif;text-anchor:start;fill:#282828"><tspan id="tspan344" x="20" y="15">音符</tspan></text><text id="text350" style="font-size:6.66666651px;font-family:sans-serif;text-anchor:end;fill:#282828"><tspan id="tspan348" x="85" y="12">長さ</tspan></text></g></g><g id="g372" transform="matrix(0.5,0,0,0.5,1292,902)"><g id="g370" style="isolation:isolate"><g id="g368" data-name="レイヤー 2"><g id="g366"><rect id="rect356" width="42" height="42" x="0" y="0" rx="5" ry="5" style="opacity:.4;mix-blend-mode:multiply;fill:#292929"/><path id="path358" d="m 30.56,29.8 -4.17,-4.16 2.26,0 a 1.035,1.035 0 1 0 0,-2.07 l -4.71,0 a 1.08,1.08 0 0 0 -1.11,1 l 0,0 c 0,0 0,0 0,0.06 l 0,4.64 0,0 a 1.04,1.04 0 1 0 2.08,0 l 0,-2.19 4.19,4.19 a 1,1 0 0 0 1.46,0 1,1 0 0 0 0,-1.47 z" style="fill:#fff"/><path id="path360" d="m 19.17,24.6 a 1.08,1.08 0 0 0 -1.11,-1 l -4.71,0 a 1.035,1.035 0 1 0 0,2.07 l 2.25,0 -4.16,4.13 a 1.039447,1.039447 0 0 0 1.47,1.47 l 4.18,-4.19 0,2.26 a 1.04,1.04 0 1 0 2.08,0 l 0,-4.64 c 0,0 0,0 0,-0.06 a 0.08,0.08 0 0 1 0,-0.04 z" style="fill:#fff"/><path id="path362" d="m 23.94,20.5 4.7,0 a 1.04,1.04 0 1 0 0,-2.08 l -2.25,0 4.17,-4.16 a 1,1 0 0 0 0,-1.47 1,1 0 0 0 -1.46,0 l -4.19,4.21 0,-2.28 a 1.04,1.04 0 1 0 -2.08,0 l 0,4.64 a 0.43,0.43 0 0 0 0,0.05 l 0,0.05 a 1.09,1.09 0 0 0 1.11,1.04 z" style="fill:#fff"/><path id="path364" d="m 18.13,13.62 a 1.08,1.08 0 0 0 -1,1.09 l 0,2.29 -4.18,-4.19 a 1,1 0 0 0 -1.47,0 1,1 0 0 0 0,1.46 l 4.16,4.17 -2.29,0 a 1.04,1.04 0 1 0 0,2.08 l 4.71,0 a 1.09,1.09 0 0 0 1.11,-1 c 0,0 0,0 0,-0.06 l 0,-4.75 a 1.07,1.07 0 0 0 -1.04,-1.09 z" style="fill:#fff"/></g></g></g></g></g><g id="g392" transform="matrix(0.26458333,0,0,0.26458333,34.92501,75.141667)"><g id="g390" transform="scale(1.5,1.5)"><path id="path376" d="m 8.5,8.5 0,-4 a 4,4 90 0 1 4,-4 l 4,0 10,0 30,0 4,0 a 4,4 90 0 1 4,4 l 0,4 -4,0 0,-3 -4,0 0,10 4,0 0,-3 4,0 0,17 -4,0 0,-3 -4,0 0,10 4,0 0,-3 4,0 0,4 a 4,4 90 0 1 -4,4 l -4,0 -30,0 -10,0 -4,0 a 4,4 90 0 1 -4,-4 l 0,-4 0,-21 0,-1 -6,0 0,3 -2,0 0,-8 2,0 0,3 6,0 z" style="fill:#ff6ea1;fill-opacity:1;stroke:#ff2c76;stroke-width:1;stroke-linecap:round;stroke-opacity:1"/><text id="text380" style="font-size:9px;font-family:sans-serif;text-anchor:end;fill:#282828"><tspan id="tspan378" x="54" y="23">➗</tspan></text></g></g><g id="g402" transform="matrix(0.26458333,0,0,0.26458333,57.679177,75.141667)"><g id="g400" transform="scale(1.5,1.5)"><path id="path394" d="m 8.5,0.5 60,0 0,20 -60,0 0,-8 0,-1 -6,0 0,3 -2,0 0,-8 2,0 0,3 6,0 0,-1 z" style="fill:#ff6ea1;fill-opacity:1;stroke:#ff2c76;stroke-width:1;stroke-linecap:round;stroke-opacity:1"/><text id="text398" style="font-size:10px;font-family:sans-serif;text-anchor:start;fill:#282828"><tspan id="tspan396" x="13" y="14">1</tspan></text></g></g><g id="g412" transform="matrix(0.26458333,0,0,0.26458333,57.679177,83.608333)"><g id="g410" transform="scale(1.5,1.5)"><path id="path404" d="m 8.5,0.5 60,0 0,20 -60,0 0,-8 0,-1 -6,0 0,3 -2,0 0,-8 2,0 0,3 6,0 0,-1 z" style="fill:#ff6ea1;fill-opacity:1;stroke:#ff2c76;stroke-width:1;stroke-linecap:round;stroke-opacity:1"/><text id="text408" style="font-size:10px;font-family:sans-serif;text-anchor:start;fill:#282828"><tspan id="tspan406" x="13" y="14">4</tspan></text></g></g><g id="g422" transform="matrix(0.26458333,0,0,0.26458333,3.7041767,83.608333)"><g id="g420" transform="scale(1.5,1.5)"><path id="path414" d="m 0.5,8.5 0,-4 a 4,4 90 0 1 4,-4 l 4,0 0,2 10,0 0,-2 20,0 4,0 a 4,4 90 0 1 4,4 l 0,4 0,4 0,4 a 4,4 90 0 1 -4,4 l -4,0 -20,0 -1,0 0,2 -8,0 0,-2 -1,0 -4,0 a 4,4 90 0 1 -4,-4 l 0,-4 z" style="fill:#c4c4c4;fill-opacity:1;stroke:#a0a0a0;stroke-width:1;stroke-linecap:round;stroke-opacity:1"/><text id="text418" style="font-size:10px;font-family:sans-serif;text-anchor:end;fill:#282828"><tspan id="tspan416" x="36" y="14">↓</tspan></text></g></g><g id="g440" transform="matrix(0.26458333,0,0,0.26458333,9.3486212,92.075)"><g id="g438" transform="scale(1.5,1.5)"><path id="path424" d="m -13.722222,8.5 0,-4 c 0,-2.209139 1.790861,-4 3.9999995,-4 l 4,0 0,2 10,0 0,-2 44.2222225,0 4,0 c 2.209139,0 4,1.790861 4,4 l 0,4 -4,0 0,-3 -4,0 0,10 4,0 0,-3 4,0 0,17 -4,0 0,-3 -4,0 0,10 4,0 0,-3 4,0 0,4 c 0,2.209139 -1.790861,4 -4,4 l -4,0 -44.2222225,0 -1,0 0,2 -8,0 0,-2 -1,0 -4,0 c -2.2091385,0 -6.1266295,-3.401885 -3.9999995,-4 l 0,-4 0,-21 z" style="fill:#7cd622;fill-opacity:1;stroke:#57ad02;stroke-width:1;stroke-linecap:round;stroke-opacity:1"/><text id="text428" style="font-size:10px;font-family:sans-serif;text-anchor:end;fill:#282828"><tspan id="tspan426" x="46" y="24">音の高さ</tspan></text><text id="text432" style="font-size:6.66666651px;font-family:sans-serif;text-anchor:end;fill:#282828"><tspan id="tspan430" x="46" y="12">名前</tspan></text><text id="text436" style="font-size:6.66666651px;font-family:sans-serif;text-anchor:end;fill:#282828"><tspan id="tspan434" x="46" y="33">オクターヴの高さ</tspan></text></g></g><g id="g450" transform="matrix(0.26458333,0,0,0.26458333,28.927787,92.075)"><g id="g448" transform="scale(1.5,1.5)"><path id="path442" d="m 8.5,0.5 60,0 0,20 -60,0 0,-8 0,-1 -6,0 0,3 -2,0 0,-8 2,0 0,3 6,0 0,-1 z" style="fill:#7cd622;fill-opacity:1;stroke:#57ad02;stroke-width:1;stroke-linecap:round;stroke-opacity:1"/><text id="text446" style="font-size:10px;font-family:sans-serif;text-anchor:start;fill:#282828"><tspan id="tspan444" x="13" y="14">ソ</tspan></text></g></g><g id="g460" transform="matrix(0.26458333,0,0,0.26458333,28.927787,100.54167)"><g id="g458" transform="scale(1.5,1.5)"><path id="path452" d="m 8.5,0.5 60,0 0,20 -60,0 0,-8 0,-1 -6,0 0,3 -2,0 0,-8 2,0 0,3 6,0 0,-1 z" style="fill:#ff6ea1;fill-opacity:1;stroke:#ff2c76;stroke-width:1;stroke-linecap:round;stroke-opacity:1"/><text id="text456" style="font-size:10px;font-family:sans-serif;text-anchor:start;fill:#282828"><tspan id="tspan454" x="13" y="14">5</tspan></text></g></g></svg>