<svg xmlns="http://www.w3.org/2000/svg" xmlns:svg="http://www.w3.org/2000/svg" id="svg2356" width="361.833" height="428.343" version="1.1" viewBox="0 0 95.735 113.332"><metadata id="metadata2353"/><g id="g1503" transform="matrix(0.396875,0,0,0.396875,0,0.11152748)"><path style="fill:#daa926;fill-opacity:1;stroke:#daaf30;stroke-width:1;stroke-linecap:round;stroke-opacity:1" id="path1497" d="m 0.5,14.5 0,-4 a 4,4 90 0 1 4,-4 l 4,0 5,-6 5,6 9,0 60,0 4,0 a 4,4 90 0 1 4,4 l 0,4 0,4 0,4 a 4,4 90 0 1 -4,4 l -4,0 -60,0 -1,0 0,2 -8,0 0,-2 -1,0 -4,0 a 5,5 90 0 0 -5,5 l 0,4 0,4 0,210 0,4 a 5,5 90 0 0 5,5 l 4,0 0,2 10,0 0,-2 8,0 0,6 0,6 0,4 a 4,4 90 0 1 -4,4 l -4,0 -9,0 -5,6 -5,-6 -4,0 a 4,4 90 0 1 -4,-4 l 0,-4 z"/><text style="font-size:10px;font-family:sans-serif;text-anchor:start;fill:#282828" id="text1501"><tspan id="tspan1499" x="20" y="22">スタート</tspan></text></g><g style="isolation:isolate" id="g1521" transform="matrix(0.13229166,0,0,0.13229166,0,3.2865274)"><g id="g1519" data-name="レイヤー 2"><g id="g1517"><rect style="opacity:.4;mix-blend-mode:multiply;fill:#292929" id="rect1507" width="42" height="42" x="0" y="0" rx="5" ry="5"/><path style="fill:#fff" id="path1509" d="m 30.56,29.8 -4.17,-4.16 2.26,0 a 1.035,1.035 0 1 0 0,-2.07 l -4.71,0 a 1.08,1.08 0 0 0 -1.11,1 l 0,0 c 0,0 0,0 0,0.06 l 0,4.64 0,0 a 1.04,1.04 0 1 0 2.08,0 l 0,-2.19 4.19,4.19 a 1,1 0 0 0 1.46,0 1,1 0 0 0 0,-1.47 z"/><path style="fill:#fff" id="path1511" d="m 19.17,24.6 a 1.08,1.08 0 0 0 -1.11,-1 l -4.71,0 a 1.035,1.035 0 1 0 0,2.07 l 2.25,0 -4.16,4.13 a 1.039447,1.039447 0 0 0 1.47,1.47 l 4.18,-4.19 0,2.26 a 1.04,1.04 0 1 0 2.08,0 l 0,-4.64 c 0,0 0,0 0,-0.06 a 0.08,0.08 0 0 1 0,-0.04 z"/><path style="fill:#fff" id="path1513" d="m 23.94,20.5 4.7,0 a 1.04,1.04 0 1 0 0,-2.08 l -2.25,0 4.17,-4.16 a 1,1 0 0 0 0,-1.47 1,1 0 0 0 -1.46,0 l -4.19,4.21 0,-2.28 a 1.04,1.04 0 1 0 -2.08,0 l 0,4.64 a 0.43,0.43 0 0 0 0,0.05 l 0,0.05 a 1.09,1.09 0 0 0 1.11,1.04 z"/><path style="fill:#fff" id="path1515" d="m 18.13,13.62 a 1.08,1.08 0 0 0 -1,1.09 l 0,2.29 -4.18,-4.19 a 1,1 0 0 0 -1.47,0 1,1 0 0 0 0,1.46 l 4.16,4.17 -2.29,0 a 1.04,1.04 0 1 0 0,2.08 l 4.71,0 a 1.09,1.09 0 0 0 1.11,-1 c 0,0 0,0 0,-0.06 l 0,-4.75 a 1.07,1.07 0 0 0 -1.04,-1.09 z"/></g></g></g><g style="fill:#ffa300;stroke:#a34600;stroke-width:1.99999976;stroke-miterlimit:4;stroke-dasharray:none" id="g1559" transform="matrix(0.10583333,0,0,0.10583333,28.766718,3.2998076)"><path style="fill:#ffa300;stroke:none;stroke-width:1px;stroke-linecap:butt;stroke-linejoin:miter;stroke-opacity:1" id="path1525" d="m 31.188483,5.8745178 c 0,0 -1.254644,-1 -2,-1 -1.490712,0 -2.945907,0.9459074 -4,2 -1.581139,1.5811389 -1.692548,4.1860072 -3,6.0000002 -0.826905,1.14727 -1.85273,2.173095 -3,3 -1.813992,1.307452 -4.41886,1.418861 -5.999999,3 -1.054093,1.054093 -2,2.509288 -2,4 0,1.490712 1.176934,3.540162 2,4 2.595129,1.449868 0.836609,0.648512 2,2 0,0 -1.040434,3.300808 -1,5 0.06539,2.747959 1.999999,7 1.999999,8 0,1 3.621931,4.46873 6,6 2.394526,1.541867 5.323775,2.059095 8.164792,2.258437 3.065644,0.215103 5.976447,-0.356365 8.670416,-1.835208 1.652944,-0.907377 3.020234,-1.924716 4.164792,-3.423229 1.631246,-2.13571 3.310226,-4.40261 4,-7 0.42778,-1.610833 0.203639,-3.345821 0,-5 -0.167925,-1.364071 -1.27205,-2.652826 -1,-4 0.329909,-1.633688 2.319717,-2.47849 3,-4 0.693755,-1.551642 1.687609,-3.445625 1,-5 -0.786311,-1.777496 -3.357594,-1.960634 -5,-3 -1.015577,-0.642689 -2.106041,-1.196706 -3,-2 -1.93647,-1.740075 -3.442391,-3.913943 -5,-6.0000002 -0.71906,-0.9630146 -1.044881,-2.2704844 -2,-3 -0.837694,-0.6398275 -1.974105,-1.2421808 -3,-1 -0.458794,0.1083066 -1,1 -1,1"/><path id="path1527" d="m 46.209786,28.156906 c 0,0 1.463947,5.738921 1.001084,8.583832 -0.503422,3.094194 -1.733796,6.320068 -4.004337,8.583833 -2.061998,2.055845 -3.20724,2.828474 -6.006505,3.815036 -1.290398,0.454783 -4.973515,0.953759 -6.514048,0.953759 -1.540535,0 -5.223651,-0.498977 -6.514049,-0.95376 -2.799265,-0.986562 -3.944507,-1.759191 -6.006506,-3.815036 -2.270541,-2.263765 -3.500915,-5.489639 -4.004337,-8.583833 -0.462863,-2.844911 1.001084,-8.583832 1.001084,-8.583832 M 28.176267,22.43435 c 0,0 -4.122174,4.705629 -7.007589,5.722555 -1.877805,0.661806 -4.201946,0.826315 -6.006506,0 -1.925806,-0.881834 -3.58357,-2.772978 -4.004337,-4.768796 -0.478397,-2.26917 0.558956,-4.123549 2.470477,-5.529022 2.067374,-1.520067 4.598363,-1.662883 6.539282,-3.054811 2.515152,-1.803739 2.912345,-5.389772 5.005421,-7.6300732 1.420632,-1.520559 5.512965,-3.8150366 5.512965,-3.8150366 0,0 4.092331,2.2944775 5.512964,3.8150365 2.093073,2.2403013 2.490269,5.8263353 5.005421,7.6300743 1.940919,1.391928 4.538808,1.465531 6.606183,2.927334 1.937249,1.369793 2.881973,3.387329 2.403575,5.656499 -0.420767,1.995818 -2.078532,3.886962 -4.004337,4.768796 -1.80456,0.826315 -4.1287,0.661806 -6.006505,0 -2.885416,-1.016926 -7.00759,-5.722555 -7.00759,-5.722555" style="fill:none;stroke:#a34600;stroke-width:1.95427048;stroke-linecap:round;stroke-linejoin:miter;stroke-miterlimit:4;stroke-dasharray:none;stroke-opacity:1"/><g id="g1541" transform="matrix(1.0010843,0,0,0.95375917,57.401951,5.3863652)" style="fill:none;stroke:#a34600;stroke-opacity:1"><g id="g1533" transform="translate(0,-1)" style="fill:none;stroke:#a34600;stroke-opacity:1"><path id="path1529" d="M -30.228157,8.514322 C -33.422908,9.40349 -38.624018,5.874516 -40.102591,4.585664" style="fill:none;fill-rule:evenodd;stroke:#a34600;stroke-width:1.93205309;stroke-linecap:butt;stroke-linejoin:miter;stroke-miterlimit:4;stroke-dasharray:none;stroke-opacity:1"/><path id="path1531" d="M -29.760199,5.904536 C -33.101366,5.473905 -35.931474,3.7361852 -37.633646,2.3416285" style="fill:none;fill-rule:evenodd;stroke:#a34600;stroke-width:1.93205309;stroke-linecap:butt;stroke-linejoin:miter;stroke-miterlimit:4;stroke-dasharray:none;stroke-opacity:1"/></g><g id="g1539" style="fill:none;stroke:#a34600;stroke-opacity:1"><path id="path1535" d="m -23.145912,7.514322 c 3.194751,0.889168 8.395861,-2.639806 9.874434,-3.928658" style="fill:none;fill-rule:evenodd;stroke:#a34600;stroke-width:1.93205309;stroke-linecap:butt;stroke-linejoin:miter;stroke-miterlimit:4;stroke-dasharray:none;stroke-opacity:1"/><path id="path1537" d="m -23.61387,4.904536 c 3.341167,-0.430631 6.171275,-2.168351 7.873447,-3.5629075" style="fill:none;fill-rule:evenodd;stroke:#a34600;stroke-width:1.93205309;stroke-linecap:butt;stroke-linejoin:miter;stroke-miterlimit:4;stroke-dasharray:none;stroke-opacity:1"/></g></g><g id="g1547" transform="matrix(1.0010843,0,0,0.95375917,57.930597,3.4788469)" style="fill:#fff;fill-opacity:.94117647;stroke:#a34600;stroke-opacity:1"><ellipse id="ellipse1543" cx="-30.837" cy="14.613" rx="1.885" ry="2.067" style="fill:#fff;fill-opacity:.94117647;fill-rule:evenodd;stroke:#a34600;stroke-width:1.99999976;stroke-linecap:butt;stroke-linejoin:miter;stroke-miterlimit:4;stroke-dasharray:none;stroke-opacity:1"/><ellipse id="ellipse1545" cx="-23.593" cy="14.699" rx="1.885" ry="2.067" style="fill:#fff;fill-opacity:.94117647;fill-rule:evenodd;stroke:#a34600;stroke-width:1.99999976;stroke-linecap:butt;stroke-linejoin:miter;stroke-miterlimit:4;stroke-dasharray:none;stroke-opacity:1"/></g><g id="g1553" transform="matrix(1.0010843,0,0,0.95375917,58.02711,3.4788469)" style="fill:none;stroke:#a34600;stroke-opacity:1"><path id="path1549" d="m -37.186516,14.624518 c -14.340024,2.75008 -4.810404,15.671871 4.375,5.25" style="fill:none;fill-rule:evenodd;stroke:#a34600;stroke-width:1px;stroke-linecap:butt;stroke-linejoin:miter;stroke-miterlimit:4;stroke-dasharray:none;stroke-opacity:1"/><path id="path1551" d="m -17.436517,14.624518 c 14.3400245,2.75008 4.810404,15.671872 -4.375,5.25" style="fill:none;fill-rule:evenodd;stroke:#a34600;stroke-width:1px;stroke-linecap:butt;stroke-linejoin:miter;stroke-miterlimit:4;stroke-dasharray:none;stroke-opacity:1"/></g><path id="path1555" d="m 33.12784,3.3591671 c -1.384692,1.3140551 -1.985761,2.3793068 -2.459835,2.3793068 -0.662709,0 -1.27278,-1.0652517 -2.459836,-2.3793068 -0.97292,-1.0770097 1.101306,-2.37930771 2.459836,-2.37930771 1.358531,0 3.532987,1.36090081 2.459835,2.37930771 z" style="fill:#a34600;fill-opacity:1;fill-rule:evenodd;stroke:#a34600;stroke-width:2.16383076;stroke-linecap:butt;stroke-linejoin:miter;stroke-miterlimit:4;stroke-dasharray:none;stroke-opacity:1"/><path style="fill:none;stroke:#a34600;stroke-width:1.95427048;stroke-linecap:round;stroke-linejoin:miter;stroke-miterlimit:4;stroke-dasharray:none;stroke-opacity:1" id="path1557" d="m 31.302308,50.085622 c 0,0 0.723125,3.123831 5.500191,3.669996 4.777067,0.546166 11.784656,-3.778776 14.78791,-9.501331 3.003254,-5.722555 2.402683,-11.490783 3.003253,-18.121425"/></g><path style="fill:#728ff9;fill-opacity:1;stroke:#5370dc;stroke-width:.39687499;stroke-linecap:round;stroke-opacity:1" id="path1565" d="m 3.902618,14.33288 0,-1.5875 a 1.5875,1.5875 0 0 1 1.5875,-1.5875 l 1.5875,0 0,0.79375 3.968749,0 0,-0.79375 20.522004,0 1.5875,0 a 1.5875,1.5875 0 0 1 1.5875,1.5875 l 0,1.5875 -1.5875,0 0,-1.190625 -1.5875,0 0,3.96875 1.5875,0 0,-1.190625 1.5875,0 0,1.587499 a 1.5875,1.5875 0 0 1 -1.5875,1.587501 l -1.5875,0 -20.522004,0 -0.396874,0 0,0.793749 -3.175,0 0,-0.793749 -0.396875,0 -1.5875,0 a 1.5875,1.5875 0 0 1 -1.5875,-1.587501 l 0,-1.587499 z"/><text style="font-size:3.96875px;font-family:sans-serif;text-anchor:end;fill:#282828;stroke-width:.39687499" id="text1569" x="3.704" y="10.959"><tspan id="tspan1567" x="30.692" y="16.516" style="stroke-width:.39687499">向きを設定</tspan></text><path style="fill:#ff5293;fill-opacity:1;stroke:#ff2c76;stroke-width:.39687499;stroke-linecap:round;stroke-opacity:1" id="path1579" d="m 35.123444,11.15788 23.8125,0 0,7.9375 -23.8125,0 0,-3.175 0,-0.396876 -2.38125,0 0,1.190625 -0.79375,0 0,-3.174999 0.79375,0 0,1.190625 2.38125,0 0,-0.396875 z"/><text style="font-size:3.96875px;font-family:sans-serif;text-anchor:start;fill:#282828;stroke-width:.39687499" id="text1583" x="31.75" y="10.959"><tspan id="tspan1581" x="36.909" y="16.516" style="stroke-width:.39687499">90</tspan></text><path style="fill:#d68136;fill-opacity:1;stroke:#b7651a;stroke-width:.39687499;stroke-linecap:round;stroke-opacity:1" id="path1589" d="m 3.902618,22.799549 0,-1.587501 a 1.5875,1.5875 0 0 1 1.5875,-1.5875 l 1.5875,0 0,0.79375 3.968749,0 0,-0.79375 3.571876,0 4.414459,0 1.5875,0 a 1.5875,1.5875 0 0 1 1.5875,1.5875 l 0,1.587501 0,1.587499 0,1.5875 a 1.5875,1.5875 0 0 1 -1.5875,1.5875 l -1.5875,0 -4.414459,0 -0.396875,0 0,0.79375 -3.175001,0 0,-0.79375 -0.396874,0 -1.5875,0 a 1.984375,1.984375 0 0 0 -1.984375,1.984375 l 0,1.5875 0,1.587501 0,58.340624 0,1.5875 a 1.984375,1.984375 0 0 0 1.984375,1.984375 l 1.5875,0 0,0.79375 3.96875,0 0,-0.79375 3.174999,0 0,2.38125 0,2.38125 0,1.587507 a 1.5875,1.5875 0 0 1 -1.5875,1.5875 l -1.587499,0 -3.571876,0 -0.396874,0 0,0.79375 -3.175,0 0,-0.79375 -0.396875,0 -1.5875,0 a 1.5875,1.5875 0 0 1 -1.5875,-1.5875 l 0,-1.587507 z"/><text style="font-size:3.96875px;font-family:sans-serif;text-anchor:start;fill:#282828;stroke-width:.39687499" id="text1593" x="3.704" y="19.426"><tspan id="tspan1591" x="5.689" y="25.379" style="stroke-width:.39687499">ずっと</tspan></text><path style="fill:#728ff9;fill-opacity:1;stroke:#5370dc;stroke-width:.39687499;stroke-linecap:round;stroke-opacity:1" id="path1599" d="m 7.606778,31.266219 0,-1.587501 a 1.5875,1.5875 0 0 1 1.5875,-1.587499 l 1.5875,0 0,0.793749 3.96875,0 0,-0.793749 13.233688,0 1.5875,0 a 1.5875,1.5875 0 0 1 1.5875,1.587499 l 0,1.587501 -1.5875,0 0,-1.190625 -1.5875,0 0,3.968749 1.5875,0 0,-1.190625 1.5875,0 0,1.5875 a 1.5875,1.5875 0 0 1 -1.5875,1.5875 l -1.5875,0 -13.233688,0 -0.396876,0 0,0.79375 -3.174999,0 0,-0.79375 -0.396875,0 -1.5875,0 a 1.5875,1.5875 0 0 1 -1.5875,-1.5875 l 0,-1.5875 z"/><text style="font-size:3.96875px;font-family:sans-serif;text-anchor:end;fill:#282828;stroke-width:.39687499" id="text1603" x="7.408" y="27.893"><tspan id="tspan1601" x="27.252" y="33.449" style="stroke-width:.39687499">前へ進む</tspan></text><path style="fill:#ff5293;fill-opacity:1;stroke:#ff2c76;stroke-width:.39687499;stroke-linecap:round;stroke-opacity:1" id="path1613" d="m 31.683867,28.091219 23.8125,0 0,7.937499 -23.8125,0 0,-3.175 0,-0.396875 -2.38125,0 0,1.190626 -0.79375,0 0,-3.175001 0.79375,0 0,1.190625 2.38125,0 0,-0.396874 z"/><text style="font-size:3.96875px;font-family:sans-serif;text-anchor:start;fill:#282828;stroke-width:.39687499" id="text1617" x="28.31" y="27.893"><tspan id="tspan1615" x="33.47" y="33.449" style="stroke-width:.39687499">10</tspan></text><path style="fill:#d68136;fill-opacity:1;stroke:#b7651a;stroke-width:.39687499;stroke-linecap:round;stroke-opacity:1" id="path1623" d="m 7.606778,39.73288 0,-1.5875 a 1.5875,1.5875 0 0 1 1.5875,-1.587501 l 1.5875,0 0,0.793751 3.96875,0 0,-0.793751 3.571874,0 5.953125,0 1.5875,0 a 1.5875,1.5875 0 0 1 1.5875,1.587501 l 0,1.5875 0,3.571875 a 3.175,3.175 0 0 0 -3.175,3.174999 3.175,3.175 0 0 0 3.175,3.175001 l 0,1.5875 a 1.5875,1.5875 0 0 1 -1.5875,1.5875 l -1.5875,0 -5.953125,0 -0.396875,0 0,0.793749 -3.174999,0 0,-0.793749 -0.396876,0 -1.587499,0 a 1.984375,1.984375 0 0 0 -1.984375,1.984375 l 0,1.587499 0,1.587501 0,25.003125 0,1.587499 a 1.984375,1.984375 0 0 0 1.984375,1.984375 l 1.587499,0 0,0.79375 3.96875,0 0,-0.79375 3.175,0 0,2.381251 0,2.381249 0,1.587501 a 1.5875,1.5875 0 0 1 -1.5875,1.587499 l -1.5875,0 -3.571874,0 -0.396876,0 0,0.79375 -3.174999,0 0,-0.79375 -0.396875,0 -1.5875,0 a 1.5875,1.5875 0 0 1 -1.5875,-1.587499 l 0,-1.587501 z"/><text style="font-size:3.96875px;font-family:sans-serif;text-anchor:start;fill:#282828;stroke-width:.39687499" id="text1627" x="7.408" y="36.359"><tspan id="tspan1625" x="9.393" y="43.9" style="stroke-width:.39687499">もし</tspan></text><text style="font-size:2.64583325px;font-family:sans-serif;text-anchor:end;fill:#282828;stroke-width:.39687499" id="text1631" x="7.408" y="36.359"><tspan id="tspan1629" x="25.665" y="51.441" style="stroke-width:.39687499">ならば</tspan></text><g id="g1639" transform="matrix(0.396875,0,0,0.396875,24.60626,30.009442)"><path style="fill:#c96df3;fill-opacity:1;stroke:#b653d3;stroke-width:1;stroke-linecap:round;stroke-opacity:1" id="path1637" d="m 0.5,41.5 a 7,7 90 0 1 7,-7 l 1,0 0,-10 a 8,8 90 0 1 8,-8 l 34,0 0,8 -4,0 0,-3 -4,0 0,10 4,0 0,-3 4,0 0,17 -4,0 0,-3 -4,0 0,10 4,0 0,-3 4,0 0,8 -30,0 -12,0 0,-8 0,-1 -1,0 a 7,7 90 0 1 -7,-7 z"/></g><text style="font-size:5.5562501px;font-family:sans-serif;text-anchor:end;fill:#282828;stroke-width:.39687499" id="text1643" x="24.606" y="36.359"><tspan id="tspan1641" x="39.688" y="46.678" style="stroke-width:.39687499">&gt;</tspan></text><path style="fill:#ff5942;fill-opacity:1;stroke:#ea4326;stroke-width:.39687499;stroke-linecap:round;stroke-opacity:1" id="path1677" d="m 45.177613,45.024549 27.78125,0 0,7.9375 -27.78125,0 0,-3.174999 0,-0.396875 -2.38125,0 0,1.190624 -0.79375,0 0,-3.174999 0.79375,0 0,1.190625 2.38125,0 0,-0.396875 z"/><text style="font-size:3.96875px;font-family:sans-serif;text-anchor:start;fill:#282828;stroke-width:.39687499" id="text1681" x="41.804" y="44.826"><tspan id="tspan1679" x="46.964" y="50.382" style="stroke-width:.39687499">ざひょうち（右）</tspan></text><g id="g4380" transform="translate(4.5999997e-7,-4.7823571e-6)"><path id="path1649" d="m 56.466509,70.159973 39.070138,0 0,7.9375 -39.070138,0 0,-3.175 0,-0.396875 -2.381251,0 0,1.190625 -0.793749,0 0,-3.175 0.793749,0 0,1.190625 2.381251,0 0,-0.396875 z" style="fill:#728ff9;fill-opacity:1;stroke:#5370dc;stroke-width:.39687499;stroke-linecap:round;stroke-opacity:1"/><text id="text1653" x="53.093" y="69.962" style="font-size:3.96875px;font-family:sans-serif;text-anchor:start;fill:#282828;stroke-width:.39687499"><tspan style="stroke-width:.39687499" id="tspan1651" x="58.252" y="75.518">yざひょうち（ネズミ）</tspan></text><path id="path1659" d="m 11.310947,64.868304 0,-1.587499 c 0,-0.876752 0.710748,-1.587501 1.5875,-1.587501 l 1.5875,0 0,0.79375 3.96875,0 0,-0.79375 34.307638,0 1.5875,0 c 0.876753,0 1.5875,0.710749 1.5875,1.587501 l 0,1.587499 -1.5875,0 0,-1.190625 -1.5875,0 0,3.96875 1.5875,0 0,-1.190625 1.5875,0 0,6.746876 -1.5875,0 0,-1.190625 -1.5875,0 0,3.96875 1.5875,0 0,-1.190626 1.5875,0 0,1.5875 c 0,0.876752 -0.710747,1.587501 -1.5875,1.587501 l -1.5875,0 -34.307638,0 -0.396876,0 0,0.793749 -3.174999,0 0,-0.793749 -0.396875,0 -1.5875,0 c -0.876752,0 -1.5875,-0.710749 -1.5875,-1.587501 l 0,-1.5875 0,-8.334375 z" style="fill:#728ff9;fill-opacity:1;stroke:#5370dc;stroke-width:.39687499;stroke-linecap:round;stroke-opacity:1"/><text id="text1663" x="32.456" y="61.495" style="font-size:3.96875px;font-family:sans-serif;text-anchor:end;fill:#282828;stroke-width:.39687499"><tspan style="stroke-width:.39687499" id="tspan1661" x="50.712" y="71.02">指定ざひょうにいどう</tspan></text><text id="text1667" x="32.456" y="61.495" style="font-size:2.64583325px;font-family:sans-serif;text-anchor:end;fill:#282828;stroke-width:.39687499"><tspan style="stroke-width:.39687499" id="tspan1665" x="50.712" y="66.257">xざひょう</tspan></text><text id="text1671" x="32.456" y="61.495" style="font-size:2.64583325px;font-family:sans-serif;text-anchor:end;fill:#282828;stroke-width:.39687499"><tspan style="stroke-width:.39687499" id="tspan1669" x="50.712" y="74.592">yざひょう</tspan></text><path id="path1687" d="m 56.466509,61.693304 27.781249,0 0,7.9375 -27.781249,0 0,-3.175 0,-0.396874 -2.381251,0 0,1.190625 -0.793749,0 0,-3.175 0.793749,0 0,1.190625 2.381251,0 0,-0.396876 z" style="fill:#ff5942;fill-opacity:1;stroke:#ea4326;stroke-width:.39687499;stroke-linecap:round;stroke-opacity:1"/><text id="text1691" x="53.093" y="61.495" style="font-size:3.96875px;font-family:sans-serif;text-anchor:start;fill:#282828;stroke-width:.39687499"><tspan style="stroke-width:.39687499" id="tspan1689" x="58.252" y="67.051">ざひょうち（左）</tspan></text></g><path style="fill:#728ff9;fill-opacity:1;stroke:#5370dc;stroke-width:.39687499;stroke-linecap:round;stroke-opacity:1" id="path1697" d="m 45.177613,36.557879 39.070139,0 0,7.9375 -39.070139,0 0,-3.174999 0,-0.396875 -2.38125,0 0,1.190625 -0.79375,0 0,-3.175 0.79375,0 0,1.190625 2.38125,0 0,-0.396875 z"/><text style="font-size:3.96875px;font-family:sans-serif;text-anchor:start;fill:#282828;stroke-width:.39687499" id="text1701" x="41.804" y="36.359"><tspan id="tspan1699" x="46.964" y="41.916" style="stroke-width:.39687499">xざひょうち（ネズミ）</tspan></text><path style="fill:#728ff9;fill-opacity:1;stroke:#5370dc;stroke-width:.39687499;stroke-linecap:round;stroke-opacity:1" id="path1737" d="m 11.310948,56.401629 0,-1.587499 c 0,-0.876753 0.710747,-1.587501 1.5875,-1.587501 l 1.5875,0 0,0.79375 3.96875,0 0,-0.79375 21.134627,0 1.5875,0 c 0.876752,0 1.864754,0.75574 1.5875,1.587501 l 0,1.587499 0,1.5875 0,1.5875 c 0,0.876753 -0.710748,1.5875 -1.5875,1.5875 l -1.5875,0 -21.134627,0 -0.396876,0 0,0.79375 -3.174999,0 0,-0.79375 -0.396875,0 -1.5875,0 c -0.876753,0 -1.5875,-0.710747 -1.5875,-1.5875 l 0,-1.5875 z"/><text style="font-size:3.96875px;font-family:sans-serif;text-anchor:end;fill:#282828;stroke-width:.39687499" id="text1741" x="20.108" y="53.028"><tspan id="tspan1739" x="38.761" y="58.584" style="stroke-width:.39687499">ペンを上げる</tspan></text><path style="fill:#728ff9;fill-opacity:1;stroke:#5370dc;stroke-width:.39687499;stroke-linecap:round;stroke-opacity:1" id="path1747" d="m 11.310948,81.537049 0,-1.587499 a 1.5875,1.5875 0 0 1 1.5875,-1.587501 l 1.5875,0 0,0.793751 3.96875,0 0,-0.793751 17.212127,0 1.5875,0 a 1.5875,1.5875 0 0 1 1.5875,1.587501 l 0,1.587499 0,1.587501 0,1.5875 a 1.5875,1.5875 0 0 1 -1.5875,1.587499 l -1.5875,0 -17.212127,0 -0.396876,0 0,0.793751 -3.174999,0 0,-0.793751 -0.396875,0 -1.5875,0 a 1.5875,1.5875 0 0 1 -1.5875,-1.587499 l 0,-1.5875 z"/><text style="font-size:3.96875px;font-family:sans-serif;text-anchor:end;fill:#282828;stroke-width:.39687499" id="text1751" x="11.113" y="78.164"><tspan id="tspan1749" x="34.925" y="83.72" style="stroke-width:.39687499">ペン下ろす</tspan></text></svg>