<svg xmlns="http://www.w3.org/2000/svg" xmlns:svg="http://www.w3.org/2000/svg" id="svg11666" width="211.833" height="396.843" version="1.1" viewBox="0 0 56.048 104.998"><metadata id="metadata11663"/><g id="g4321" transform="matrix(0.26458333,0,0,0.26458333,-93.927082,-498.72375)"><g id="g4301" transform="translate(355,1885.3617)"><g id="g4299" transform="scale(1.5,1.5)"><path id="path4293" d="m 0.5,14.5 0,-4 c 0,-2.209139 1.790861,-4 4,-4 l 4,0 5,-6 5,6 9,0 70.695964,0 3.999996,0 c 2.20914,0 4.69859,1.9042267 4,4 l 0,4 0,4 0,4 c 0,2.209139 -1.79086,4 -4,4 l -3.999996,0 -70.695964,0 -1,0 0,2 -8,0 0,-2 -1,0 -4,0 c -2.761424,0 -5,2.238576 -5,5 l 0,4 0,4 0,189 0,4 c 0,2.76142 2.238576,5 5,5 l 4,0 0,2 10,0 0,-2 8,0 0,6 0,6 0,4 c 0,2.20914 -1.790861,4 -4,4 l -4,0 -9,0 -5,6 -5,-6 -4,0 c -2.209139,0 -4,-1.79086 -4,-4 l 0,-4 z" style="fill:#77c428;fill-opacity:1;stroke:#57ad02;stroke-width:1;stroke-linecap:round;stroke-opacity:1"/><text id="text4297" style="font-size:10px;font-family:sans-serif;text-anchor:start;fill:#282828"><tspan id="tspan4295" x="20" y="22">キーボード</tspan></text></g></g><g id="g4319" transform="matrix(0.5,0,0,0.5,355,1897.3617)"><g id="g4317" style="isolation:isolate"><g id="g4315" data-name="レイヤー 2"><g id="g4313"><rect id="rect4303" width="42" height="42" x="0" y="0" rx="5" ry="5" style="opacity:.4;mix-blend-mode:multiply;fill:#292929"/><path id="path4305" d="m 30.56,29.8 -4.17,-4.16 2.26,0 a 1.035,1.035 0 1 0 0,-2.07 l -4.71,0 a 1.08,1.08 0 0 0 -1.11,1 l 0,0 c 0,0 0,0 0,0.06 l 0,4.64 0,0 a 1.04,1.04 0 1 0 2.08,0 l 0,-2.19 4.19,4.19 a 1,1 0 0 0 1.46,0 1,1 0 0 0 0,-1.47 z" style="fill:#fff"/><path id="path4307" d="m 19.17,24.6 a 1.08,1.08 0 0 0 -1.11,-1 l -4.71,0 a 1.035,1.035 0 1 0 0,2.07 l 2.25,0 -4.16,4.13 a 1.039447,1.039447 0 0 0 1.47,1.47 l 4.18,-4.19 0,2.26 a 1.04,1.04 0 1 0 2.08,0 l 0,-4.64 c 0,0 0,0 0,-0.06 a 0.08,0.08 0 0 1 0,-0.04 z" style="fill:#fff"/><path id="path4309" d="m 23.94,20.5 4.7,0 a 1.04,1.04 0 1 0 0,-2.08 l -2.25,0 4.17,-4.16 a 1,1 0 0 0 0,-1.47 1,1 0 0 0 -1.46,0 l -4.19,4.21 0,-2.28 a 1.04,1.04 0 1 0 -2.08,0 l 0,4.64 a 0.43,0.43 0 0 0 0,0.05 l 0,0.05 a 1.09,1.09 0 0 0 1.11,1.04 z" style="fill:#fff"/><path id="path4311" d="m 18.13,13.62 a 1.08,1.08 0 0 0 -1,1.09 l 0,2.29 -4.18,-4.19 a 1,1 0 0 0 -1.47,0 1,1 0 0 0 0,1.46 l 4.16,4.17 -2.29,0 a 1.04,1.04 0 1 0 0,2.08 l 4.71,0 a 1.09,1.09 0 0 0 1.11,-1 c 0,0 0,0 0,-0.06 l 0,-4.75 a 1.07,1.07 0 0 0 -1.04,-1.09 z" style="fill:#fff"/></g></g></g></g></g><g id="g4339" transform="matrix(0.26458333,0,0,0.26458333,9.2163194,10.827157)"><g id="g4337" transform="scale(1.5,1.5)"><path id="path4323" d="m -13.722222,8.5 0,-4 c 0,-2.209139 1.790861,-4 3.9999995,-4 l 4,0 0,2 10,0 0,-2 44.2222225,0 4,0 c 2.209139,0 4,1.790861 4,4 l 0,4 -4,0 0,-3 -4,0 0,10 4,0 0,-3 4,0 0,17 -4,0 0,-3 -4,0 0,10 4,0 0,-3 4,0 0,4 c 0,2.209139 -1.790861,4 -4,4 l -4,0 -44.2222225,0 -1,0 0,2 -8,0 0,-2 -1,0 -4,0 c -2.2091385,0 -3.9999995,-1.790861 -3.9999995,-4 l 0,-4 0,-21 z" style="fill:#77c428;fill-opacity:1;stroke:#57ad02;stroke-width:1;stroke-linecap:round;stroke-opacity:1"/><text id="text4327" style="font-size:10px;font-family:sans-serif;text-anchor:end;fill:#282828"><tspan id="tspan4325" x="46" y="24">音の高さ</tspan></text><text id="text4331" style="font-size:6.66666651px;font-family:sans-serif;text-anchor:end;fill:#282828"><tspan id="tspan4329" x="46" y="12">名前</tspan></text><text id="text4335" style="font-size:6.66666651px;font-family:sans-serif;text-anchor:end;fill:#282828"><tspan id="tspan4333" x="46" y="33">オクターヴの高さ</tspan></text></g></g><g id="g4349" transform="matrix(0.26458333,0,0,0.26458333,28.663194,10.827157)"><g id="g4347" transform="scale(1.5,1.5)"><path id="path4341" d="m 8.5,0.5 60,0 0,20 -60,0 0,-8 0,-1 -6,0 0,3 -2,0 0,-8 2,0 0,3 6,0 0,-1 z" style="fill:#77c428;fill-opacity:1;stroke:#57ad02;stroke-width:1;stroke-linecap:round;stroke-opacity:1"/><text id="text4345" style="font-size:10px;font-family:sans-serif;text-anchor:start;fill:#282828"><tspan id="tspan4343" x="13" y="14">ド</tspan></text></g></g><g id="g4359" transform="matrix(0.26458333,0,0,0.26458333,28.663194,19.161532)"><g id="g4357" transform="scale(1.5,1.5)"><path id="path4351" d="m 8.5,0.5 60,0 0,20 -60,0 0,-8 0,-1 -6,0 0,3 -2,0 0,-8 2,0 0,3 6,0 0,-1 z" style="fill:#ff5293;fill-opacity:1;stroke:#ff2c76;stroke-width:1;stroke-linecap:round;stroke-opacity:1"/><text id="text4355" style="font-size:10px;font-family:sans-serif;text-anchor:start;fill:#282828"><tspan id="tspan4353" x="13" y="14">4</tspan></text></g></g><g id="g4377" transform="matrix(0.26458333,0,0,0.26458333,9.2163194,27.495906)"><g id="g4375" transform="scale(1.5,1.5)"><path id="path4361" d="m -13.722222,8.5 0,-4 c 0,-2.209139 1.790861,-4 3.9999995,-4 l 4,0 0,2 10,0 0,-2 44.2222225,0 4,0 c 2.209139,0 4,1.790861 4,4 l 0,4 -4,0 0,-3 -4,0 0,10 4,0 0,-3 4,0 0,17 -4,0 0,-3 -4,0 0,10 4,0 0,-3 4,0 0,4 c 0,2.209139 -1.790861,4 -4,4 l -4,0 -44.2222225,0 -1,0 0,2 -8,0 0,-2 -1,0 -4,0 c -2.2091385,0 -3.9999995,-1.790861 -3.9999995,-4 l 0,-4 0,-21 z" style="fill:#77c428;fill-opacity:1;stroke:#57ad02;stroke-width:1;stroke-linecap:round;stroke-opacity:1"/><text id="text4365" style="font-size:10px;font-family:sans-serif;text-anchor:end;fill:#282828"><tspan id="tspan4363" x="46" y="24">音の高さ</tspan></text><text id="text4369" style="font-size:6.66666651px;font-family:sans-serif;text-anchor:end;fill:#282828"><tspan id="tspan4367" x="46" y="12">名前</tspan></text><text id="text4373" style="font-size:6.66666651px;font-family:sans-serif;text-anchor:end;fill:#282828"><tspan id="tspan4371" x="46" y="33">オクターヴの高さ</tspan></text></g></g><g id="g4387" transform="matrix(0.26458333,0,0,0.26458333,28.663194,27.495906)"><g id="g4385" transform="scale(1.5,1.5)"><path id="path4379" d="m 8.5,0.5 60,0 0,20 -60,0 0,-8 0,-1 -6,0 0,3 -2,0 0,-8 2,0 0,3 6,0 0,-1 z" style="fill:#77c428;fill-opacity:1;stroke:#57ad02;stroke-width:1;stroke-linecap:round;stroke-opacity:1"/><text id="text4383" style="font-size:10px;font-family:sans-serif;text-anchor:start;fill:#282828"><tspan id="tspan4381" x="13" y="14">レ</tspan></text></g></g><g id="g4397" transform="matrix(0.26458333,0,0,0.26458333,28.663194,35.830281)"><g id="g4395" transform="scale(1.5,1.5)"><path id="path4389" d="m 8.5,0.5 60,0 0,20 -60,0 0,-8 0,-1 -6,0 0,3 -2,0 0,-8 2,0 0,3 6,0 0,-1 z" style="fill:#ff5293;fill-opacity:1;stroke:#ff2c76;stroke-width:1;stroke-linecap:round;stroke-opacity:1"/><text id="text4393" style="font-size:10px;font-family:sans-serif;text-anchor:start;fill:#282828"><tspan id="tspan4391" x="13" y="14">4</tspan></text></g></g><g id="g4415" transform="matrix(0.26458333,0,0,0.26458333,9.2163194,44.164656)"><g id="g4413" transform="scale(1.5,1.5)"><path id="path4399" d="m -13.722222,8.5 0,-4 c 0,-2.209139 1.790861,-4 3.9999995,-4 l 4,0 0,2 10,0 0,-2 44.2222225,0 4,0 c 2.209139,0 4,1.790861 4,4 l 0,4 -4,0 0,-3 -4,0 0,10 4,0 0,-3 4,0 0,17 -4,0 0,-3 -4,0 0,10 4,0 0,-3 4,0 0,4 c 0,2.209139 -1.790861,4 -4,4 l -4,0 -44.2222225,0 -1,0 0,2 -8,0 0,-2 -1,0 -4,0 c -2.2091385,0 -3.9999995,-1.790861 -3.9999995,-4 l 0,-4 0,-21 z" style="fill:#77c428;fill-opacity:1;stroke:#57ad02;stroke-width:1;stroke-linecap:round;stroke-opacity:1"/><text id="text4403" style="font-size:10px;font-family:sans-serif;text-anchor:end;fill:#282828"><tspan id="tspan4401" x="46" y="24">音の高さ</tspan></text><text id="text4407" style="font-size:6.66666651px;font-family:sans-serif;text-anchor:end;fill:#282828"><tspan id="tspan4405" x="46" y="12">名前</tspan></text><text id="text4411" style="font-size:6.66666651px;font-family:sans-serif;text-anchor:end;fill:#282828"><tspan id="tspan4409" x="46" y="33">オクターヴの高さ</tspan></text></g></g><g id="g4425" transform="matrix(0.26458333,0,0,0.26458333,28.663194,44.164656)"><g id="g4423" transform="scale(1.5,1.5)"><path id="path4417" d="m 8.5,0.5 60,0 0,20 -60,0 0,-8 0,-1 -6,0 0,3 -2,0 0,-8 2,0 0,3 6,0 0,-1 z" style="fill:#77c428;fill-opacity:1;stroke:#57ad02;stroke-width:1;stroke-linecap:round;stroke-opacity:1"/><text id="text4421" style="font-size:10px;font-family:sans-serif;text-anchor:start;fill:#282828"><tspan id="tspan4419" x="13" y="14">ミ</tspan></text></g></g><g id="g4435" transform="matrix(0.26458333,0,0,0.26458333,28.663194,52.499031)"><g id="g4433" transform="scale(1.5,1.5)"><path id="path4427" d="m 8.5,0.5 60,0 0,20 -60,0 0,-8 0,-1 -6,0 0,3 -2,0 0,-8 2,0 0,3 6,0 0,-1 z" style="fill:#ff5293;fill-opacity:1;stroke:#ff2c76;stroke-width:1;stroke-linecap:round;stroke-opacity:1"/><text id="text4431" style="font-size:10px;font-family:sans-serif;text-anchor:start;fill:#282828"><tspan id="tspan4429" x="13" y="14">4</tspan></text></g></g><g id="g4453" transform="matrix(0.26458333,0,0,0.26458333,9.2163194,60.833406)"><g id="g4451" transform="scale(1.5,1.5)"><path id="path4437" d="m -13.722222,8.5 0,-4 c 0,-2.209139 1.790861,-4 3.9999995,-4 l 4,0 0,2 10,0 0,-2 44.2222225,0 4,0 c 2.209139,0 4,1.790861 4,4 l 0,4 -4,0 0,-3 -4,0 0,10 4,0 0,-3 4,0 0,17 -4,0 0,-3 -4,0 0,10 4,0 0,-3 4,0 0,4 c 0,2.209139 -1.790861,4 -4,4 l -4,0 -44.2222225,0 -1,0 0,2 -8,0 0,-2 -1,0 -4,0 c -2.2091385,0 -3.9999995,-1.790861 -3.9999995,-4 l 0,-4 0,-21 z" style="fill:#77c428;fill-opacity:1;stroke:#57ad02;stroke-width:1;stroke-linecap:round;stroke-opacity:1"/><text id="text4441" style="font-size:10px;font-family:sans-serif;text-anchor:end;fill:#282828"><tspan id="tspan4439" x="46" y="24">音の高さ</tspan></text><text id="text4445" style="font-size:6.66666651px;font-family:sans-serif;text-anchor:end;fill:#282828"><tspan id="tspan4443" x="46" y="12">名前</tspan></text><text id="text4449" style="font-size:6.66666651px;font-family:sans-serif;text-anchor:end;fill:#282828"><tspan id="tspan4447" x="46" y="33">オクターヴの高さ</tspan></text></g></g><g id="g4463" transform="matrix(0.26458333,0,0,0.26458333,28.663194,60.833406)"><g id="g4461" transform="scale(1.5,1.5)"><path id="path4455" d="m 8.5,0.5 60,0 0,20 -60,0 0,-8 0,-1 -6,0 0,3 -2,0 0,-8 2,0 0,3 6,0 0,-1 z" style="fill:#77c428;fill-opacity:1;stroke:#57ad02;stroke-width:1;stroke-linecap:round;stroke-opacity:1"/><text id="text4459" style="font-size:10px;font-family:sans-serif;text-anchor:start;fill:#282828"><tspan id="tspan4457" x="13" y="14">ファ</tspan></text></g></g><g id="g4473" transform="matrix(0.26458333,0,0,0.26458333,28.663194,69.167781)"><g id="g4471" transform="scale(1.5,1.5)"><path id="path4465" d="m 8.5,0.5 60,0 0,20 -60,0 0,-8 0,-1 -6,0 0,3 -2,0 0,-8 2,0 0,3 6,0 0,-1 z" style="fill:#ff5293;fill-opacity:1;stroke:#ff2c76;stroke-width:1;stroke-linecap:round;stroke-opacity:1"/><text id="text4469" style="font-size:10px;font-family:sans-serif;text-anchor:start;fill:#282828"><tspan id="tspan4467" x="13" y="14">4</tspan></text></g></g><g id="g4491" transform="matrix(0.26458333,0,0,0.26458333,9.2163194,77.502156)"><g id="g4489" transform="scale(1.5,1.5)"><path id="path4475" d="m -13.722222,8.5 0,-4 c 0,-2.209139 1.790861,-4 3.9999995,-4 l 4,0 0,2 10,0 0,-2 44.2222225,0 4,0 c 2.209139,0 4,1.790861 4,4 l 0,4 -4,0 0,-3 -4,0 0,10 4,0 0,-3 4,0 0,17 -4,0 0,-3 -4,0 0,10 4,0 0,-3 4,0 0,4 c 0,2.209139 -1.790861,4 -4,4 l -4,0 -44.2222225,0 -1,0 0,2 -8,0 0,-2 -1,0 -4,0 c -2.2091385,0 -3.9999995,-1.790861 -3.9999995,-4 l 0,-4 0,-21 z" style="fill:#77c428;fill-opacity:1;stroke:#57ad02;stroke-width:1;stroke-linecap:round;stroke-opacity:1"/><text id="text4479" style="font-size:10px;font-family:sans-serif;text-anchor:end;fill:#282828"><tspan id="tspan4477" x="46" y="24">音の高さ</tspan></text><text id="text4483" style="font-size:6.66666651px;font-family:sans-serif;text-anchor:end;fill:#282828"><tspan id="tspan4481" x="46" y="12">名前</tspan></text><text id="text4487" style="font-size:6.66666651px;font-family:sans-serif;text-anchor:end;fill:#282828"><tspan id="tspan4485" x="46" y="33">オクターヴの高さ</tspan></text></g></g><g id="g4501" transform="matrix(0.26458333,0,0,0.26458333,28.663194,77.502156)"><g id="g4499" transform="scale(1.5,1.5)"><path id="path4493" d="m 8.5,0.5 60,0 0,20 -60,0 0,-8 0,-1 -6,0 0,3 -2,0 0,-8 2,0 0,3 6,0 0,-1 z" style="fill:#77c428;fill-opacity:1;stroke:#57ad02;stroke-width:1;stroke-linecap:round;stroke-opacity:1"/><text id="text4497" style="font-size:10px;font-family:sans-serif;text-anchor:start;fill:#282828"><tspan id="tspan4495" x="13" y="14">ソ</tspan></text></g></g><g id="g4511" transform="matrix(0.26458333,0,0,0.26458333,28.663194,85.836531)"><g id="g4509" transform="scale(1.5,1.5)"><path id="path4503" d="m 8.5,0.5 60,0 0,20 -60,0 0,-8 0,-1 -6,0 0,3 -2,0 0,-8 2,0 0,3 6,0 0,-1 z" style="fill:#ff5293;fill-opacity:1;stroke:#ff2c76;stroke-width:1;stroke-linecap:round;stroke-opacity:1"/><text id="text4507" style="font-size:10px;font-family:sans-serif;text-anchor:start;fill:#282828"><tspan id="tspan4505" x="13" y="14">4</tspan></text></g></g></svg>