<svg xmlns="http://www.w3.org/2000/svg" xmlns:svg="http://www.w3.org/2000/svg" id="svg2831" width="321" height="192" version="1.1" viewBox="0 0 84.931 50.8"><metadata id="metadata2828"/><path style="fill:#ff5293;fill-opacity:1;stroke:#ff2c76;stroke-width:.39687499;stroke-linecap:round;stroke-opacity:1" id="path864" d="m 26.392192,20.042189 0,-1.587501 c 0,-0.876752 0.710748,-1.5875 1.5875,-1.5875 l 1.5875,0 3.96875,0 23.19514,0 1.5875,0 c 0.876752,0 1.5875,0.710748 1.5875,1.5875 l 0,1.587501 -1.5875,0 0,-1.190626 -1.5875,0 0,3.96875 1.5875,0 0,-1.190625 1.5875,0 0,6.746875 -1.5875,0 0,-1.190625 -1.5875,0 0,3.96875 1.5875,0 0,-1.190624 1.5875,0 0,1.587499 c 0,0.876753 -0.710748,1.5875 -1.5875,1.5875 l -1.5875,0 -23.19514,0 -3.96875,0 -1.5875,0 c -0.876752,0 -1.5875,-0.710747 -1.5875,-1.5875 l 0,-1.587499 0,-8.334376 0,-0.396875 -2.38125,0 0,1.190625 -0.79375,0 0,-3.175 0.79375,0 0,1.190625 2.38125,0 z"/><text style="font-size:3.96875px;font-family:sans-serif;text-anchor:end;fill:#282828" id="text868" x="34.308" y="16.669"><tspan id="tspan866" x="55.739" y="25.797">どちらかランダム</tspan></text><text style="font-size:2.64583325px;font-family:sans-serif;text-anchor:end;fill:#282828" id="text872" x="34.308" y="16.669"><tspan id="tspan870" x="55.739" y="21.431">これか</tspan></text><text style="font-size:2.64583325px;font-family:sans-serif;text-anchor:end;fill:#282828" id="text876" x="34.308" y="16.669"><tspan id="tspan874" x="55.739" y="29.766">それか</tspan></text><g id="g890" transform="matrix(0.26458333,0,0,0.26458333,56.929518,16.668751)"><g id="g888" transform="scale(1.5,1.5)"><path style="fill:#77c428;fill-opacity:1;stroke:#57ad02;stroke-width:1;stroke-linecap:round;stroke-opacity:1" id="path882" d="m 8.5,0.5 60,0 0,20 -60,0 0,-8 0,-1 -6,0 0,3 -2,0 0,-8 2,0 0,3 6,0 0,-1 z"/><text style="font-size:10px;font-family:sans-serif;text-anchor:start;fill:#282828" id="text886"><tspan id="tspan884" x="13" y="14">ソ</tspan></text></g></g><g id="g900" transform="matrix(0.26458333,0,0,0.26458333,56.929518,25.003126)"><g id="g898" transform="scale(1.5,1.5)"><path style="fill:#77c428;fill-opacity:1;stroke:#57ad02;stroke-width:1;stroke-linecap:round;stroke-opacity:1" id="path892" d="m 8.5,0.5 60,0 0,20 -60,0 0,-8 0,-1 -6,0 0,3 -2,0 0,-8 2,0 0,3 6,0 0,-1 z"/><text style="font-size:10px;font-family:sans-serif;text-anchor:start;fill:#282828" id="text896"><tspan id="tspan894" x="13" y="14">ラ</tspan></text></g></g><g id="g934" transform="matrix(0.26458333,0,0,0.26458333,-373.85624,-174.88958)"><g id="g914" transform="translate(1413,661)"><g id="g912" transform="scale(1.5,1.5)"><path style="fill:#ff8b2d;fill-opacity:1;stroke:#e86b0e;stroke-width:1;stroke-linecap:round;stroke-opacity:1" id="path902" d="m 0.5,8.5 0,-4 a 4,4 90 0 1 4,-4 l 4,0 0,2 10,0 0,-2 9,0 60,0 4,0 a 4,4 90 0 1 4,4 l 0,4 -4,0 0,-3 -4,0 0,10 4,0 0,-3 4,0 0,4 a 4,4 90 0 1 -4,4 l -4,0 -60,0 -1,0 0,2 -8,0 0,-2 -1,0 -4,0 a 5,5 90 0 0 -5,5 l 0,4 0,4 0,63 0,4 a 5,5 90 0 0 5,5 l 4,0 0,2 10,0 0,-2 8,0 0,6 0,6 0,4 a 4,4 90 0 1 -4,4 l -4,0 -9,0 -1,0 0,2 -8,0 0,-2 -1,0 -4,0 a 4,4 90 0 1 -4,-4 l 0,-4 z"/><text style="font-size:10px;font-family:sans-serif;text-anchor:start;fill:#282828" id="text906"><tspan id="tspan904" x="20" y="15">音符</tspan></text><text style="font-size:6.66666651px;font-family:sans-serif;text-anchor:end;fill:#282828" id="text910"><tspan id="tspan908" x="85" y="12">長さ</tspan></text></g></g><g id="g932" transform="matrix(0.5,0,0,0.5,1413,665)"><g style="isolation:isolate" id="g930"><g id="g928" data-name="レイヤー 2"><g id="g926"><rect style="opacity:.4;mix-blend-mode:multiply;fill:#292929" id="rect916" width="42" height="42" x="0" y="0" rx="5" ry="5"/><path style="fill:#fff" id="path918" d="m 30.56,29.8 -4.17,-4.16 2.26,0 a 1.035,1.035 0 1 0 0,-2.07 l -4.71,0 a 1.08,1.08 0 0 0 -1.11,1 l 0,0 c 0,0 0,0 0,0.06 l 0,4.64 0,0 a 1.04,1.04 0 1 0 2.08,0 l 0,-2.19 4.19,4.19 a 1,1 0 0 0 1.46,0 1,1 0 0 0 0,-1.47 z"/><path style="fill:#fff" id="path920" d="m 19.17,24.6 a 1.08,1.08 0 0 0 -1.11,-1 l -4.71,0 a 1.035,1.035 0 1 0 0,2.07 l 2.25,0 -4.16,4.13 a 1.039447,1.039447 0 0 0 1.47,1.47 l 4.18,-4.19 0,2.26 a 1.04,1.04 0 1 0 2.08,0 l 0,-4.64 c 0,0 0,0 0,-0.06 a 0.08,0.08 0 0 1 0,-0.04 z"/><path style="fill:#fff" id="path922" d="m 23.94,20.5 4.7,0 a 1.04,1.04 0 1 0 0,-2.08 l -2.25,0 4.17,-4.16 a 1,1 0 0 0 0,-1.47 1,1 0 0 0 -1.46,0 l -4.19,4.21 0,-2.28 a 1.04,1.04 0 1 0 -2.08,0 l 0,4.64 a 0.43,0.43 0 0 0 0,0.05 l 0,0.05 a 1.09,1.09 0 0 0 1.11,1.04 z"/><path style="fill:#fff" id="path924" d="m 18.13,13.62 a 1.08,1.08 0 0 0 -1,1.09 l 0,2.29 -4.18,-4.19 a 1,1 0 0 0 -1.47,0 1,1 0 0 0 0,1.46 l 4.16,4.17 -2.29,0 a 1.04,1.04 0 1 0 0,2.08 l 4.71,0 a 1.09,1.09 0 0 0 1.11,-1 c 0,0 0,0 0,-0.06 l 0,-4.75 a 1.07,1.07 0 0 0 -1.04,-1.09 z"/></g></g></g></g></g><g id="g952" transform="matrix(0.26458333,0,0,0.26458333,34.925005,1.13e-6)"><g id="g950" transform="scale(1.5,1.5)"><path style="fill:#ff5293;fill-opacity:1;stroke:#ff2c76;stroke-width:1;stroke-linecap:round;stroke-opacity:1" id="path936" d="m 8.5,8.5 0,-4 a 4,4 90 0 1 4,-4 l 4,0 10,0 30,0 4,0 a 4,4 90 0 1 4,4 l 0,4 -4,0 0,-3 -4,0 0,10 4,0 0,-3 4,0 0,17 -4,0 0,-3 -4,0 0,10 4,0 0,-3 4,0 0,4 a 4,4 90 0 1 -4,4 l -4,0 -30,0 -10,0 -4,0 a 4,4 90 0 1 -4,-4 l 0,-4 0,-21 0,-1 -6,0 0,3 -2,0 0,-8 2,0 0,3 6,0 z"/><text style="font-size:9px;font-family:sans-serif;text-anchor:end;fill:#282828" id="text940"><tspan id="tspan938" x="54" y="23">➗</tspan></text></g></g><g id="g962" transform="matrix(0.26458333,0,0,0.26458333,57.54688,1.13e-6)"><g id="g960" transform="scale(1.5,1.5)"><path style="fill:#ff5293;fill-opacity:1;stroke:#ff2c76;stroke-width:1;stroke-linecap:round;stroke-opacity:1" id="path954" d="m 8.5,0.5 60,0 0,20 -60,0 0,-8 0,-1 -6,0 0,3 -2,0 0,-8 2,0 0,3 6,0 0,-1 z"/><text style="font-size:10px;font-family:sans-serif;text-anchor:start;fill:#282828" id="text958"><tspan id="tspan956" x="13" y="14">1</tspan></text></g></g><g id="g972" transform="matrix(0.26458333,0,0,0.26458333,57.54688,8.334376)"><g id="g970" transform="scale(1.5,1.5)"><path style="fill:#ff5293;fill-opacity:1;stroke:#ff2c76;stroke-width:1;stroke-linecap:round;stroke-opacity:1" id="path964" d="m 8.5,0.5 60,0 0,20 -60,0 0,-8 0,-1 -6,0 0,3 -2,0 0,-8 2,0 0,3 6,0 0,-1 z"/><text style="font-size:10px;font-family:sans-serif;text-anchor:start;fill:#282828" id="text968"><tspan id="tspan966" x="13" y="14">4</tspan></text></g></g><g id="g982" transform="matrix(0.26458333,0,0,0.26458333,3.5718802,8.334376)"><g id="g980" transform="scale(1.5,1.5)"><path style="fill:#b0b0b0;fill-opacity:1;stroke:#a0a0a0;stroke-width:1;stroke-linecap:round;stroke-opacity:1" id="path974" d="m 0.5,8.5 0,-4 a 4,4 90 0 1 4,-4 l 4,0 0,2 10,0 0,-2 20,0 4,0 a 4,4 90 0 1 4,4 l 0,4 0,4 0,4 a 4,4 90 0 1 -4,4 l -4,0 -20,0 -1,0 0,2 -8,0 0,-2 -1,0 -4,0 a 4,4 90 0 1 -4,-4 l 0,-4 z"/><text style="font-size:10px;font-family:sans-serif;text-anchor:end;fill:#282828" id="text978"><tspan id="tspan976" x="36" y="14">↓</tspan></text></g></g><g id="g1000" transform="matrix(0.26458333,0,0,0.26458333,3.5718802,16.668751)"><g id="g998" transform="scale(1.5,1.5)"><path style="fill:#77c428;fill-opacity:1;stroke:#57ad02;stroke-width:1;stroke-linecap:round;stroke-opacity:1" id="path984" d="m 0.5,8.5 0,-4 a 4,4 90 0 1 4,-4 l 4,0 0,2 10,0 0,-2 30,0 4,0 a 4,4 90 0 1 4,4 l 0,4 -4,0 0,-3 -4,0 0,10 4,0 0,-3 4,0 0,21 0,17 -4,0 0,-3 -4,0 0,10 4,0 0,-3 4,0 0,4 a 4,4 90 0 1 -4,4 l -4,0 -30,0 -1,0 0,2 -8,0 0,-2 -1,0 -4,0 a 4,4 90 0 1 -4,-4 l 0,-4 0,-21 0,-21 z"/><text style="font-size:10px;font-family:sans-serif;text-anchor:end;fill:#282828" id="text988"><tspan id="tspan986" x="46" y="35">音の高さ</tspan></text><text style="font-size:6.66666651px;font-family:sans-serif;text-anchor:end;fill:#282828" id="text992"><tspan id="tspan990" x="46" y="12">名前</tspan></text><text style="font-size:6.66666651px;font-family:sans-serif;text-anchor:end;fill:#282828" id="text996"><tspan id="tspan994" x="46" y="54">オクターヴの高さ</tspan></text></g></g><g id="g1010" transform="matrix(0.26458333,0,0,0.26458333,23.018755,33.337501)"><g id="g1008" transform="scale(1.5,1.5)"><path style="fill:#ff5293;fill-opacity:1;stroke:#ff2c76;stroke-width:1;stroke-linecap:round;stroke-opacity:1" id="path1002" d="m 8.5,0.5 60,0 0,20 -60,0 0,-8 0,-1 -6,0 0,3 -2,0 0,-8 2,0 0,3 6,0 0,-1 z"/><text style="font-size:10px;font-family:sans-serif;text-anchor:start;fill:#282828" id="text1006"><tspan id="tspan1004" x="13" y="14">4</tspan></text></g></g></svg>