<svg xmlns="http://www.w3.org/2000/svg" xmlns:svg="http://www.w3.org/2000/svg" id="svg3045" width="335.5" height="286.5" version="1.1" viewBox="0 0 88.768 75.803"><metadata id="metadata3042"/><path id="path1416" d="m 0.1984375,3.3734375 v -1.5875 a 1.5875,1.5875 0 0 1 1.5875,-1.5875 h 1.5875 v 0.79375 h 3.96875 v -0.79375 h 3.5718755 12.134918 1.5875 a 1.5875,1.5875 0 0 1 1.5875,1.5875 v 1.5875 h -1.5875 v -1.190625 h -1.5875 v 3.96875 h 1.5875 v -1.190625 h 1.5875 v 6.7468745 h -1.5875 v -1.190625 h -1.5875 v 3.96875 h 1.5875 v -1.190624 h 1.5875 v 6.746874 h -1.5875 v -1.190625 h -1.5875 v 3.96875 h 1.5875 v -1.190625 h 1.5875 v 1.5875 a 1.5875,1.5875 0 0 1 -1.5875,1.5875 h -1.5875 -12.134918 -0.396876 v 0.79375 H 7.3421875 v -0.79375 h -0.396875 -1.5875 a 1.984375,1.984375 0 0 0 -1.984375,1.984375 v 1.5875 1.5875 33.3375 1.5875 a 1.984375,1.984375 0 0 0 1.984375,1.984375 h 1.5875 v 0.79375 h 3.9687505 v -0.79375 h 3.174999 v 2.381251 2.381249 1.587501 a 1.5875,1.5875 0 0 1 -1.5875,1.587499 H 10.914063 7.3421875 6.9453125 v 0.79375 h -3.175 v -0.79375 h -0.396875 -1.5875 a 1.5875,1.5875 0 0 1 -1.5875,-1.587499 v -1.587501 z" style="fill:#3edcdd;fill-opacity:1;stroke:#1dbcbd;stroke-width:.39687499;stroke-linecap:round;stroke-opacity:1"/><text id="text1420" style="font-size:3.96875px;font-family:sans-serif;text-anchor:start;fill:#282828;stroke-width:.39687499"><tspan style="stroke-width:.39687499" id="tspan1418" x="1.984" y="8.731">フェーザー</tspan></text><text id="text1424" style="font-size:2.64583325px;font-family:sans-serif;text-anchor:end;fill:#282828;stroke-width:.39687499"><tspan style="stroke-width:.39687499" id="tspan1422" x="22.225" y="4.762">はやさ</tspan></text><text id="text1428" style="font-size:2.64583325px;font-family:sans-serif;text-anchor:end;fill:#282828;stroke-width:.39687499"><tspan style="stroke-width:.39687499" id="tspan1426" x="22.225" y="13.097">オクターヴ</tspan></text><text id="text1432" style="font-size:2.64583325px;font-family:sans-serif;text-anchor:end;fill:#282828;stroke-width:.39687499"><tspan style="stroke-width:.39687499" id="tspan1430" x="22.225" y="21.431">基本周波数</tspan></text><path id="path1438" d="m 26.656767,0.1984375 h 23.8125 v 7.9375 h -23.8125 v -3.175 -0.396875 h -2.38125 v 1.190625 h -0.79375 v -3.175 h 0.79375 v 1.190625 h 2.38125 v -0.396875 z" style="fill:#ff6ea1;fill-opacity:1;stroke:#ff2c76;stroke-width:.39687499;stroke-linecap:round;stroke-opacity:1"/><text id="text1442" x="23.283" style="font-size:3.96875px;font-family:sans-serif;text-anchor:start;fill:#282828;stroke-width:.39687499"><tspan style="stroke-width:.39687499" id="tspan1440" x="28.443" y="5.556">0.5</tspan></text><path id="path1448" d="m 26.656767,8.6651075 h 23.8125 v 7.9374995 h -23.8125 v -3.174999 -0.396876 h -2.38125 v 1.190626 h -0.79375 v -3.175 h 0.79375 v 1.190625 h 2.38125 v -0.396875 z" style="fill:#ff6ea1;fill-opacity:1;stroke:#ff2c76;stroke-width:.39687499;stroke-linecap:round;stroke-opacity:1"/><text id="text1452" x="23.283" y="8.467" style="font-size:3.96875px;font-family:sans-serif;text-anchor:start;fill:#282828;stroke-width:.39687499"><tspan style="stroke-width:.39687499" id="tspan1450" x="28.443" y="14.023">3</tspan></text><path id="path1458" d="m 26.656767,16.867187 h 23.8125 v 7.9375 h -23.8125 v -3.175 -0.396875 h -2.38125 v 1.190625 h -0.79375 v -3.175 h 0.79375 v 1.190625 h 2.38125 v -0.396875 z" style="fill:#ff6ea1;fill-opacity:1;stroke:#ff2c76;stroke-width:.39687499;stroke-linecap:round;stroke-opacity:1"/><text id="text1462" x="23.283" y="16.669" style="font-size:3.96875px;font-family:sans-serif;text-anchor:start;fill:#282828;stroke-width:.39687499"><tspan style="stroke-width:.39687499" id="tspan1460" x="28.443" y="22.225">392</tspan></text><g id="g1900" transform="matrix(0.396875,0,0,0.396875,3.7041629,25.135807)"><path id="path1890" d="m 0.5,8.5 v -4 a 4,4 90 0 1 4,-4 h 4 v 2 h 10 v -2 h 9 60 4 a 4,4 90 0 1 4,4 v 4 h -4 v -3 h -4 v 10 h 4 v -3 h 4 v 4 a 4,4 90 0 1 -4,4 h -4 -60 -1 v 2 h -8 v -2 h -1 -4 a 5,5 90 0 0 -5,5 v 4 4 42 4 a 5,5 90 0 0 5,5 h 4 v 2 h 10 v -2 h 8 v 6 6 4 a 4,4 90 0 1 -4,4 h -4 -9 -1 v 2 h -8 v -2 h -1 -4 a 4,4 90 0 1 -4,-4 v -4 z" style="fill:#fe994f;fill-opacity:1;stroke:#e86b0e;stroke-width:1;stroke-linecap:round;stroke-opacity:1"/><text id="text1894" style="font-size:10px;font-family:sans-serif;text-anchor:start;fill:#282828"><tspan id="tspan1892" x="20" y="15">音符</tspan></text><text id="text1898" style="font-size:6.66666651px;font-family:sans-serif;text-anchor:end;fill:#282828"><tspan id="tspan1896" x="85" y="12">長さ</tspan></text></g><g id="g1918" transform="matrix(0.13229166,0,0,0.13229166,3.7041629,26.194141)" style="isolation:isolate"><g id="g1916" data-name="レイヤー 2"><g id="g1914"><rect id="rect1904" width="42" height="42" x="0" y="0" rx="5" ry="5" style="opacity:.4;mix-blend-mode:multiply;fill:#292929"/><path id="path1906" d="m 30.56,29.8 -4.17,-4.16 h 2.26 a 1.035,1.035 0 1 0 0,-2.07 h -4.71 a 1.08,1.08 0 0 0 -1.11,1 v 0 c 0,0 0,0 0,0.06 v 4.64 0 a 1.04,1.04 0 1 0 2.08,0 v -2.19 l 4.19,4.19 a 1,1 0 0 0 1.46,0 1,1 0 0 0 0,-1.47 z" style="fill:#fff"/><path id="path1908" d="m 19.17,24.6 a 1.08,1.08 0 0 0 -1.11,-1 h -4.71 a 1.035,1.035 0 1 0 0,2.07 h 2.25 l -4.16,4.13 a 1.039447,1.039447 0 0 0 1.47,1.47 l 4.18,-4.19 v 2.26 a 1.04,1.04 0 1 0 2.08,0 V 24.7 c 0,0 0,0 0,-0.06 a 0.08,0.08 0 0 1 0,-0.04 z" style="fill:#fff"/><path id="path1910" d="m 23.94,20.5 h 4.7 a 1.04,1.04 0 1 0 0,-2.08 h -2.25 l 4.17,-4.16 a 1,1 0 0 0 0,-1.47 1,1 0 0 0 -1.46,0 L 24.91,17 v -2.28 a 1.04,1.04 0 1 0 -2.08,0 v 4.64 a 0.43,0.43 0 0 0 0,0.05 v 0.05 a 1.09,1.09 0 0 0 1.11,1.04 z" style="fill:#fff"/><path id="path1912" d="m 18.13,13.62 a 1.08,1.08 0 0 0 -1,1.09 V 17 l -4.18,-4.19 a 1,1 0 0 0 -1.47,0 1,1 0 0 0 0,1.46 l 4.16,4.17 h -2.29 a 1.04,1.04 0 1 0 0,2.08 h 4.71 a 1.09,1.09 0 0 0 1.11,-1 c 0,0 0,0 0,-0.06 v -4.75 a 1.07,1.07 0 0 0 -1.04,-1.09 z" style="fill:#fff"/></g></g></g><path id="path1924" d="m 42.002608,28.508857 v -1.5875 a 1.5875,1.5875 0 0 1 1.5875,-1.5875 h 1.587499 3.96875 11.90625 1.5875 a 1.5875,1.5875 0 0 1 1.587501,1.5875 v 1.5875 h -1.587501 v -1.190625 h -1.5875 v 3.96875 h 1.5875 v -1.190625 h 1.587501 v 6.746875 h -1.587501 v -1.190624 h -1.5875 v 3.96875 h 1.5875 v -1.190626 h 1.587501 v 1.5875 a 1.5875,1.5875 0 0 1 -1.587501,1.587501 h -1.5875 -11.90625 -3.96875 -1.587499 a 1.5875,1.5875 0 0 1 -1.5875,-1.587501 v -1.5875 -8.334375 -0.396875 h -2.38125 v 1.190625 h -0.793751 v -3.175 h 0.793751 v 1.190625 h 2.38125 z" style="fill:#ff6ea1;fill-opacity:1;stroke:#ff2c76;stroke-width:.39687499;stroke-linecap:round;stroke-opacity:1"/><text id="text1928" x="38.629" y="25.135" style="font-size:3.5718751px;font-family:sans-serif;text-anchor:end;fill:#282828;stroke-width:.39687499"><tspan style="stroke-width:.39687499" id="tspan1926" x="60.06" y="34.264">➗</tspan></text><path id="path1942" d="m 64.756767,25.333857 h 23.8125 v 7.9375 h -23.8125 v -3.175 -0.396875 h -2.38125 v 1.190625 h -0.79375 v -3.175 h 0.79375 v 1.190625 h 2.38125 v -0.396875 z" style="fill:#ff6ea1;fill-opacity:1;stroke:#ff2c76;stroke-width:.39687499;stroke-linecap:round;stroke-opacity:1"/><text id="text1946" x="61.383" y="25.135" style="font-size:3.96875px;font-family:sans-serif;text-anchor:start;fill:#282828;stroke-width:.39687499"><tspan style="stroke-width:.39687499" id="tspan1944" x="66.543" y="30.692">1</tspan></text><path id="path1952" d="m 64.756767,33.800517 h 23.8125 v 7.9375 h -23.8125 v -3.175 -0.396875 h -2.38125 v 1.190626 h -0.79375 v -3.175001 h 0.79375 v 1.190626 h 2.38125 v -0.396875 z" style="fill:#ff6ea1;fill-opacity:1;stroke:#ff2c76;stroke-width:.39687499;stroke-linecap:round;stroke-opacity:1"/><text id="text1956" x="61.383" y="33.602" style="font-size:3.96875px;font-family:sans-serif;text-anchor:start;fill:#282828;stroke-width:.39687499"><tspan style="stroke-width:.39687499" id="tspan1954" x="66.543" y="39.158">4</tspan></text><path id="path1962" d="m 7.6067675,36.975518 v -1.5875 a 1.5875,1.5875 0 0 1 1.5875,-1.587501 h 1.5875005 v 0.79375 h 3.96875 v -0.79375 h 7.937499 1.5875 a 1.5875,1.5875 0 0 1 1.5875,1.587501 v 1.5875 1.587499 1.5875 a 1.5875,1.5875 0 0 1 -1.5875,1.5875 h -1.5875 -7.937499 -0.396876 v 0.79375 h -3.174999 v -0.79375 H 10.781768 9.1942675 a 1.5875,1.5875 0 0 1 -1.5875,-1.5875 v -1.5875 z" style="fill:#c4c4c4;fill-opacity:1;stroke:#a0a0a0;stroke-width:.39687499;stroke-linecap:round;stroke-opacity:1"/><text id="text1966" x="7.408" y="33.602" style="font-size:3.96875px;font-family:sans-serif;text-anchor:end;fill:#282828;stroke-width:.39687499"><tspan style="stroke-width:.39687499" id="tspan1964" x="21.696" y="39.158">↓</tspan></text><path id="path1972" d="m 7.6067675,45.442188 v -1.5875 c -6e-7,-0.876752 0.7107476,-1.587501 1.5875,-1.587501 h 1.5875005 v 0.793751 h 3.96875 v -0.793751 h 18.256249 1.5875 c 0.876752,0 1.864753,0.755741 1.5875,1.587501 v 1.5875 h -1.5875 v -1.190626 h -1.5875 v 3.96875 h 1.5875 v -1.190624 h 1.5875 v 6.746874 h -1.5875 v -1.190625 h -1.5875 v 3.96875 h 1.5875 v -1.190624 h 1.5875 v 1.5875 c 0,0.876752 -0.710748,1.587499 -1.5875,1.587499 h -1.5875 -18.256249 -0.396876 v 0.793751 H 11.178643 V 58.539062 H 10.781768 9.1942675 c -0.8767516,0 -1.5874994,-0.710747 -1.5875,-1.587499 v -1.5875 -8.334375 z" style="fill:#7cd622;fill-opacity:1;stroke:#57ad02;stroke-width:.39687499;stroke-linecap:round;stroke-opacity:1"/><text id="text1976" x="13.229" y="42.069" style="font-size:3.96875px;font-family:sans-serif;text-anchor:end;fill:#282828;stroke-width:.39687499"><tspan style="stroke-width:.39687499" id="tspan1974" x="31.485" y="51.594">音の高さ</tspan></text><text id="text1980" x="13.229" y="42.069" style="font-size:2.64583325px;font-family:sans-serif;text-anchor:end;fill:#282828;stroke-width:.39687499"><tspan style="stroke-width:.39687499" id="tspan1978" x="31.485" y="46.831">名前</tspan></text><text id="text1984" x="13.229" y="42.069" style="font-size:2.64583325px;font-family:sans-serif;text-anchor:end;fill:#282828;stroke-width:.39687499"><tspan style="stroke-width:.39687499" id="tspan1982" x="31.485" y="55.166">オクターヴの高さ</tspan></text><path id="path1990" d="m 36.710941,42.267187 h 23.8125 v 7.9375 h -23.8125 v -3.174999 -0.396876 h -2.38125 v 1.190625 h -0.793749 v -3.175 h 0.793749 v 1.190626 h 2.38125 v -0.396875 z" style="fill:#7cd622;fill-opacity:1;stroke:#57ad02;stroke-width:.39687499;stroke-linecap:round;stroke-opacity:1"/><text id="text1994" x="33.338" y="42.069" style="font-size:3.96875px;font-family:sans-serif;text-anchor:start;fill:#282828;stroke-width:.39687499"><tspan style="stroke-width:.39687499" id="tspan1992" x="38.497" y="47.625">ソ</tspan></text><path id="path2000" d="m 36.710941,50.733857 h 23.8125 v 7.9375 h -23.8125 v -3.174999 -0.396876 h -2.38125 v 1.190626 h -0.793749 v -3.175001 h 0.793749 v 1.190626 h 2.38125 v -0.396875 z" style="fill:#ff6ea1;fill-opacity:1;stroke:#ff2c76;stroke-width:.39687499;stroke-linecap:round;stroke-opacity:1"/><text id="text2004" x="33.338" y="50.535" style="font-size:3.96875px;font-family:sans-serif;text-anchor:start;fill:#282828;stroke-width:.39687499"><tspan style="stroke-width:.39687499" id="tspan2002" x="38.497" y="56.092">4</tspan></text></svg>