<svg xmlns="http://www.w3.org/2000/svg" xmlns:svg="http://www.w3.org/2000/svg" id="svg1870" width="278" height="34.5" version="1.1" viewBox="0 0 73.554 9.128"><metadata id="metadata1867"/><g id="layer1" transform="translate(-142.1966,-192.21369)"><path id="path564" d="m 142.39504,195.58713 v -1.5875 a 1.5875,1.5875 0 0 1 1.5875,-1.5875 h 1.5875 v 0.79375 h 3.96875 v -0.79375 h 11.90625 1.5875 a 1.5875,1.5875 0 0 1 1.5875,1.5875 v 1.5875 h -1.5875 v -1.19063 h -1.5875 v 3.96875 h 1.5875 v -1.19062 h 1.5875 v 1.5875 a 1.5875,1.5875 0 0 1 -1.5875,1.5875 h -1.5875 -11.90625 -0.39688 v 0.79375 h -3.175 v -0.79375 h -0.39687 -1.5875 a 1.5875,1.5875 0 0 1 -1.5875,-1.5875 v -1.5875 z" style="fill:#b0b0b0;fill-opacity:1;stroke:#a0a0a0;stroke-width:.39687499;stroke-linecap:round;stroke-opacity:1"/><text id="text568" x="142.197" y="192.214" style="font-size:3.96875px;font-family:sans-serif;text-anchor:end;fill:#282828;stroke-width:.39687499"><tspan style="stroke-width:.39687499" id="tspan566" x="160.453" y="197.77">表示</tspan></text><path id="path578" d="m 165.01691,192.41213 h 35.71875 v 7.9375 h -35.71875 v -3.175 -0.39688 h -2.38125 v 1.19063 h -0.79375 v -3.175 h 0.79375 v 1.19062 h 2.38125 v -0.39687 z" style="fill:#ff5942;fill-opacity:1;stroke:#ea4326;stroke-width:.39687499;stroke-linecap:round;stroke-opacity:1"/><text id="text582" x="161.643" y="192.214" style="font-size:3.96875px;font-family:sans-serif;text-anchor:start;fill:#282828;stroke-width:.39687499"><tspan style="stroke-width:.39687499" id="tspan580" x="166.803" y="197.77">Hello World</tspan></text><path style="fill:#ff5942;fill-opacity:1;stroke:#ea4326;stroke-width:.39687499;stroke-linecap:round;stroke-opacity:1" id="path3775" d="m 142.39504,195.58713 v -1.5875 a 1.5875,1.5875 0 0 1 1.5875,-1.5875 h 1.5875 v 0.79375 h 3.96875 v -0.79375 h 11.90625 1.5875 a 1.5875,1.5875 0 0 1 1.5875,1.5875 v 1.5875 h -1.5875 v -1.19063 h -1.5875 v 3.96875 h 1.5875 v -1.19062 h 1.5875 v 1.5875 a 1.5875,1.5875 0 0 1 -1.5875,1.5875 h -1.5875 -11.90625 -0.39688 v 0.79375 h -3.175 v -0.79375 h -0.39687 -1.5875 a 1.5875,1.5875 0 0 1 -1.5875,-1.5875 v -1.5875 z"/><text style="font-size:3.96875px;font-family:sans-serif;text-anchor:end;fill:#282828;stroke-width:.39687499" id="text3779" x="142.197" y="192.214"><tspan style="stroke-width:.39687499" id="tspan3777" x="160.453" y="197.77">結果を表示</tspan></text><path style="fill:#ff5942;fill-opacity:1;stroke:#ea4326;stroke-width:.39687499;stroke-linecap:round;stroke-opacity:1" id="path3789" d="m 165.01691,192.41213 h 50.53542 v 7.9375 h -50.53542 v -3.175 -0.39688 h -2.38125 v 1.19063 h -0.79375 v -3.175 h 0.79375 v 1.19062 h 2.38125 v -0.39687 z"/><text style="font-size:3.96875px;font-family:sans-serif;text-anchor:start;fill:#282828;stroke-width:.39687499" id="text3793" x="161.643" y="192.214"><tspan style="stroke-width:.39687499" id="tspan3791" x="166.803" y="197.77">ミュージック・ブロックス</tspan></text></g></svg>