<svg xmlns="http://www.w3.org/2000/svg" width="284" height="344"><rect id="backgroundrect" width="100%" height="100%" x="0" y="0" fill="none" stroke="none"/><g class="currentLayer"><title>Layer 1</title><g><g id="svg_85"><g id="svg_86" transform="translate(305, 260) scale(1.5)"><path style="fill:#ff8b2d;fill-opacity:1;stroke:#e86b0e;stroke-width:1;stroke-linecap:round;stroke-opacity:1" id="svg_87" d="m-202,-165.3333282470703 L-202,-169.3333282470703 A4,4 90 0 1 -198,-173.3333282470703 L-194,-173.3333282470703 L-194,-171.3333282470703 L-184,-171.3333282470703 L-184,-173.3333282470703 L-142,-173.3333282470703 L-138,-173.3333282470703 A4,4 90 0 1 -134,-169.3333282470703 L-134,-165.3333282470703 L-138,-165.3333282470703 L-138,-168.3333282470703 L-142,-168.3333282470703 L-142,-158.3333282470703 L-138,-158.3333282470703 L-138,-161.3333282470703 L-134,-161.3333282470703 L-134,-144.3333282470703 L-138,-144.3333282470703 L-138,-147.3333282470703 L-142,-147.3333282470703 L-142,-137.3333282470703 L-138,-137.3333282470703 L-138,-140.3333282470703 L-134,-140.3333282470703 L-134,-136.3333282470703 A4,4 90 0 1 -138,-132.3333282470703 L-142,-132.3333282470703 L-184,-132.3333282470703 L-185,-132.3333282470703 L-185,-130.3333282470703 L-193,-130.3333282470703 L-193,-132.3333282470703 L-194,-132.3333282470703 L-198,-132.3333282470703 A4,4 90 0 1 -202,-136.3333282470703 L-202,-140.3333282470703 L-202,-161.3333282470703 L-202,-165.3333282470703 z"/><text style="font-size:10px;fill:#282828;font-family:sans-serif;text-anchor:end" id="svg_88" x="-202.5" y="-173.833"><tspan id="svg_89" x="-144.5" y="-149.833">音符</tspan></text><text style="font-size:6.666666666666667px;fill:#282828;font-family:sans-serif;text-anchor:end" id="svg_90" x="-202.5" y="-173.833"><tspan id="svg_91" x="-144.5" y="-161.833">音符の数</tspan></text><text style="font-size:6.666666666666667px;fill:#282828;font-family:sans-serif;text-anchor:end" id="svg_92" x="-202.5" y="-173.833"><tspan id="svg_93" x="-144.5" y="-140.833">音の長さ</tspan></text></g></g><g id="svg_94"><g id="svg_95" transform="translate(397, 260) scale(1.5)"><path style="fill:#ff5293;fill-opacity:1;stroke:#ff2c76;stroke-width:1;stroke-linecap:round;stroke-opacity:1" id="svg_96" d="m-194,-173.3333282470703 L-134,-173.3333282470703 L-134,-153.3333282470703 L-194,-153.3333282470703 L-194,-161.3333282470703 L-194,-162.3333282470703 L-200,-162.3333282470703 L-200,-159.3333282470703 L-202,-159.3333282470703 L-202,-167.3333282470703 L-200,-167.3333282470703 L-200,-164.3333282470703 L-194,-164.3333282470703 L-194,-165.3333282470703 z"/><text style="font-size:10px;fill:#282828;font-family:sans-serif;text-anchor:start" id="svg_97" x="-202.5" y="-173.833"><tspan id="svg_98" x="-189.5" y="-159.833">3</tspan></text></g></g><g id="svg_99"><g id="svg_100" transform="translate(397, 292) scale(1.5)"><path style="fill:#ff5293;fill-opacity:1;stroke:#ff2c76;stroke-width:1;stroke-linecap:round;stroke-opacity:1" id="svg_101" d="m-194,-165.3333282470703 L-194,-169.3333282470703 A4,4 90 0 1 -190,-173.3333282470703 L-186,-173.3333282470703 L-176,-173.3333282470703 L-146,-173.3333282470703 L-142,-173.3333282470703 A4,4 90 0 1 -138,-169.3333282470703 L-138,-165.3333282470703 L-142,-165.3333282470703 L-142,-168.3333282470703 L-146,-168.3333282470703 L-146,-158.3333282470703 L-142,-158.3333282470703 L-142,-161.3333282470703 L-138,-161.3333282470703 L-138,-144.3333282470703 L-142,-144.3333282470703 L-142,-147.3333282470703 L-146,-147.3333282470703 L-146,-137.3333282470703 L-142,-137.3333282470703 L-142,-140.3333282470703 L-138,-140.3333282470703 L-138,-136.3333282470703 A4,4 90 0 1 -142,-132.3333282470703 L-146,-132.3333282470703 L-176,-132.3333282470703 L-186,-132.3333282470703 L-190,-132.3333282470703 A4,4 90 0 1 -194,-136.3333282470703 L-194,-140.3333282470703 L-194,-161.3333282470703 L-194,-162.3333282470703 L-200,-162.3333282470703 L-200,-159.3333282470703 L-202,-159.3333282470703 L-202,-167.3333282470703 L-200,-167.3333282470703 L-200,-164.3333282470703 L-194,-164.3333282470703 L-194,-165.3333282470703 z"/><text style="font-size:9px;fill:#282828;font-family:sans-serif;text-anchor:end" id="svg_102" x="-202.5" y="-173.833"><tspan id="svg_103" x="-148.5" y="-150.833">➗</tspan></text></g></g><g id="svg_108"><g id="svg_109" transform="translate(483, 292) scale(1.5)"><path style="fill:#ff5293;fill-opacity:1;stroke:#ff2c76;stroke-width:1;stroke-linecap:round;stroke-opacity:1" id="svg_110" d="m-194,-173.3333282470703 L-134,-173.3333282470703 L-134,-153.3333282470703 L-194,-153.3333282470703 L-194,-161.3333282470703 L-194,-162.3333282470703 L-200,-162.3333282470703 L-200,-159.3333282470703 L-202,-159.3333282470703 L-202,-167.3333282470703 L-200,-167.3333282470703 L-200,-164.3333282470703 L-194,-164.3333282470703 L-194,-165.3333282470703 z"/><text style="font-size:10px;fill:#282828;font-family:sans-serif;text-anchor:start" id="svg_111" x="-202.5" y="-173.833"><tspan id="svg_112" x="-189.5" y="-159.833">1</tspan></text></g></g><g id="svg_113"><g id="svg_114" transform="translate(483, 324) scale(1.5)"><path style="fill:#ff5293;fill-opacity:1;stroke:#ff2c76;stroke-width:1;stroke-linecap:round;stroke-opacity:1" id="svg_115" d="m-194,-173.3333282470703 L-134,-173.3333282470703 L-134,-153.3333282470703 L-194,-153.3333282470703 L-194,-161.3333282470703 L-194,-162.3333282470703 L-200,-162.3333282470703 L-200,-159.3333282470703 L-202,-159.3333282470703 L-202,-167.3333282470703 L-200,-167.3333282470703 L-200,-164.3333282470703 L-194,-164.3333282470703 L-194,-165.3333282470703 z"/><text style="font-size:10px;fill:#282828;font-family:sans-serif;text-anchor:start" id="svg_116" x="-202.5" y="-173.833"><tspan id="svg_117" x="-189.5" y="-159.833">4</tspan></text></g></g><g id="svg_118"><g id="svg_119" transform="translate(303, 510) scale(1.5)"><path style="fill:#ff8b2d;fill-opacity:1;stroke:#e86b0e;stroke-width:1;stroke-linecap:round;stroke-opacity:1" id="svg_120" d="m-202,-165.3333282470703 L-202,-169.3333282470703 A4,4 90 0 1 -198,-173.3333282470703 L-194,-173.3333282470703 L-194,-171.3333282470703 L-184,-171.3333282470703 L-184,-173.3333282470703 L-142,-173.3333282470703 L-138,-173.3333282470703 A4,4 90 0 1 -134,-169.3333282470703 L-134,-165.3333282470703 L-138,-165.3333282470703 L-138,-168.3333282470703 L-142,-168.3333282470703 L-142,-158.3333282470703 L-138,-158.3333282470703 L-138,-161.3333282470703 L-134,-161.3333282470703 L-134,-144.3333282470703 L-138,-144.3333282470703 L-138,-147.3333282470703 L-142,-147.3333282470703 L-142,-137.3333282470703 L-138,-137.3333282470703 L-138,-140.3333282470703 L-134,-140.3333282470703 L-134,-136.3333282470703 A4,4 90 0 1 -138,-132.3333282470703 L-142,-132.3333282470703 L-184,-132.3333282470703 L-185,-132.3333282470703 L-185,-130.3333282470703 L-193,-130.3333282470703 L-193,-132.3333282470703 L-194,-132.3333282470703 L-198,-132.3333282470703 A4,4 90 0 1 -202,-136.3333282470703 L-202,-140.3333282470703 L-202,-161.3333282470703 L-202,-165.3333282470703 z"/><text style="font-size:10px;fill:#282828;font-family:sans-serif;text-anchor:end" id="svg_121" x="-202.5" y="-173.833"><tspan id="svg_122" x="-144.5" y="-149.833">音符</tspan></text><text style="font-size:6.666666666666667px;fill:#282828;font-family:sans-serif;text-anchor:end" id="svg_123" x="-202.5" y="-173.833"><tspan id="svg_124" x="-144.5" y="-161.833">音符の数</tspan></text><text style="font-size:6.666666666666667px;fill:#282828;font-family:sans-serif;text-anchor:end" id="svg_125" x="-202.5" y="-173.833"><tspan id="svg_126" x="-144.5" y="-140.833">音の長さ</tspan></text></g></g><g id="svg_127"><g id="svg_128" transform="translate(395, 510) scale(1.5)"><path style="fill:#ff5293;fill-opacity:1;stroke:#ff2c76;stroke-width:1;stroke-linecap:round;stroke-opacity:1" id="svg_129" d="m-194,-173.3333282470703 L-134,-173.3333282470703 L-134,-153.3333282470703 L-194,-153.3333282470703 L-194,-161.3333282470703 L-194,-162.3333282470703 L-200,-162.3333282470703 L-200,-159.3333282470703 L-202,-159.3333282470703 L-202,-167.3333282470703 L-200,-167.3333282470703 L-200,-164.3333282470703 L-194,-164.3333282470703 L-194,-165.3333282470703 z"/><text style="font-size:10px;fill:#282828;font-family:sans-serif;text-anchor:start" id="svg_130" x="-202.5" y="-173.833"><tspan id="svg_131" x="-189.5" y="-159.833">7</tspan></text></g></g><g id="svg_132"><g id="svg_133" transform="translate(395, 542) scale(1.5)"><path style="fill:#ff5293;fill-opacity:1;stroke:#ff2c76;stroke-width:1;stroke-linecap:round;stroke-opacity:1" id="svg_134" d="m-194,-165.3333282470703 L-194,-169.3333282470703 A4,4 90 0 1 -190,-173.3333282470703 L-186,-173.3333282470703 L-176,-173.3333282470703 L-146,-173.3333282470703 L-142,-173.3333282470703 A4,4 90 0 1 -138,-169.3333282470703 L-138,-165.3333282470703 L-142,-165.3333282470703 L-142,-168.3333282470703 L-146,-168.3333282470703 L-146,-158.3333282470703 L-142,-158.3333282470703 L-142,-161.3333282470703 L-138,-161.3333282470703 L-138,-144.3333282470703 L-142,-144.3333282470703 L-142,-147.3333282470703 L-146,-147.3333282470703 L-146,-137.3333282470703 L-142,-137.3333282470703 L-142,-140.3333282470703 L-138,-140.3333282470703 L-138,-136.3333282470703 A4,4 90 0 1 -142,-132.3333282470703 L-146,-132.3333282470703 L-176,-132.3333282470703 L-186,-132.3333282470703 L-190,-132.3333282470703 A4,4 90 0 1 -194,-136.3333282470703 L-194,-140.3333282470703 L-194,-161.3333282470703 L-194,-162.3333282470703 L-200,-162.3333282470703 L-200,-159.3333282470703 L-202,-159.3333282470703 L-202,-167.3333282470703 L-200,-167.3333282470703 L-200,-164.3333282470703 L-194,-164.3333282470703 L-194,-165.3333282470703 z"/><text style="font-size:9px;fill:#282828;font-family:sans-serif;text-anchor:end" id="svg_135" x="-202.5" y="-173.833"><tspan id="svg_136" x="-148.5" y="-150.833">➗</tspan></text></g></g><g id="svg_141"><g id="svg_142" transform="translate(481, 542) scale(1.5)"><path style="fill:#ff5293;fill-opacity:1;stroke:#ff2c76;stroke-width:1;stroke-linecap:round;stroke-opacity:1" id="svg_143" d="m-194,-173.3333282470703 L-134,-173.3333282470703 L-134,-153.3333282470703 L-194,-153.3333282470703 L-194,-161.3333282470703 L-194,-162.3333282470703 L-200,-162.3333282470703 L-200,-159.3333282470703 L-202,-159.3333282470703 L-202,-167.3333282470703 L-200,-167.3333282470703 L-200,-164.3333282470703 L-194,-164.3333282470703 L-194,-165.3333282470703 z"/><text style="font-size:10px;fill:#282828;font-family:sans-serif;text-anchor:start" id="svg_144" x="-202.5" y="-173.833"><tspan id="svg_145" x="-189.5" y="-159.833">1</tspan></text></g></g><g id="svg_146"><g id="svg_147" transform="translate(481, 574) scale(1.5)"><path style="fill:#ff5293;fill-opacity:1;stroke:#ff2c76;stroke-width:1;stroke-linecap:round;stroke-opacity:1" id="svg_148" d="m-194,-173.3333282470703 L-134,-173.3333282470703 L-134,-153.3333282470703 L-194,-153.3333282470703 L-194,-161.3333282470703 L-194,-162.3333282470703 L-200,-162.3333282470703 L-200,-159.3333282470703 L-202,-159.3333282470703 L-202,-167.3333282470703 L-200,-167.3333282470703 L-200,-164.3333282470703 L-194,-164.3333282470703 L-194,-165.3333282470703 z"/><text style="font-size:10px;fill:#282828;font-family:sans-serif;text-anchor:start" id="svg_149" x="-202.5" y="-173.833"><tspan id="svg_150" x="-189.5" y="-159.833">16</tspan></text></g></g><g id="svg_151"><g id="svg_152" transform="translate(307, 385) scale(1.5)"><path style="fill:#ff8b2d;fill-opacity:1;stroke:#e86b0e;stroke-width:1;stroke-linecap:round;stroke-opacity:1" id="svg_153" d="m-202,-165.3333282470703 L-202,-169.3333282470703 A4,4 90 0 1 -198,-173.3333282470703 L-194,-173.3333282470703 L-194,-171.3333282470703 L-184,-171.3333282470703 L-184,-173.3333282470703 L-142,-173.3333282470703 L-138,-173.3333282470703 A4,4 90 0 1 -134,-169.3333282470703 L-134,-165.3333282470703 L-138,-165.3333282470703 L-138,-168.3333282470703 L-142,-168.3333282470703 L-142,-158.3333282470703 L-138,-158.3333282470703 L-138,-161.3333282470703 L-134,-161.3333282470703 L-134,-144.3333282470703 L-138,-144.3333282470703 L-138,-147.3333282470703 L-142,-147.3333282470703 L-142,-137.3333282470703 L-138,-137.3333282470703 L-138,-140.3333282470703 L-134,-140.3333282470703 L-134,-136.3333282470703 A4,4 90 0 1 -138,-132.3333282470703 L-142,-132.3333282470703 L-184,-132.3333282470703 L-185,-132.3333282470703 L-185,-130.3333282470703 L-193,-130.3333282470703 L-193,-132.3333282470703 L-194,-132.3333282470703 L-198,-132.3333282470703 A4,4 90 0 1 -202,-136.3333282470703 L-202,-140.3333282470703 L-202,-161.3333282470703 L-202,-165.3333282470703 z"/><text style="font-size:10px;fill:#282828;font-family:sans-serif;text-anchor:end" id="svg_154" x="-202.5" y="-173.833"><tspan id="svg_155" x="-144.5" y="-149.833">音符</tspan></text><text style="font-size:6.666666666666667px;fill:#282828;font-family:sans-serif;text-anchor:end" id="svg_156" x="-202.5" y="-173.833"><tspan id="svg_157" x="-144.5" y="-161.833">音符の数</tspan></text><text style="font-size:6.666666666666667px;fill:#282828;font-family:sans-serif;text-anchor:end" id="svg_158" x="-202.5" y="-173.833"><tspan id="svg_159" x="-144.5" y="-140.833">音の長さ</tspan></text></g></g><g id="svg_160"><g id="svg_161" transform="translate(399, 385) scale(1.5)"><path style="fill:#ff5293;fill-opacity:1;stroke:#ff2c76;stroke-width:1;stroke-linecap:round;stroke-opacity:1" id="svg_162" d="m-194,-173.3333282470703 L-134,-173.3333282470703 L-134,-153.3333282470703 L-194,-153.3333282470703 L-194,-161.3333282470703 L-194,-162.3333282470703 L-200,-162.3333282470703 L-200,-159.3333282470703 L-202,-159.3333282470703 L-202,-167.3333282470703 L-200,-167.3333282470703 L-200,-164.3333282470703 L-194,-164.3333282470703 L-194,-165.3333282470703 z"/><text style="font-size:10px;fill:#282828;font-family:sans-serif;text-anchor:start" id="svg_163" x="-202.5" y="-173.833"><tspan id="svg_164" x="-189.5" y="-159.833">1</tspan></text></g></g><g id="svg_165"><g id="svg_166" transform="translate(399, 417) scale(1.5)"><path style="fill:#ff5293;fill-opacity:1;stroke:#ff2c76;stroke-width:1;stroke-linecap:round;stroke-opacity:1" id="svg_167" d="m-194,-165.3333282470703 L-194,-169.3333282470703 A4,4 90 0 1 -190,-173.3333282470703 L-186,-173.3333282470703 L-176,-173.3333282470703 L-146,-173.3333282470703 L-142,-173.3333282470703 A4,4 90 0 1 -138,-169.3333282470703 L-138,-165.3333282470703 L-142,-165.3333282470703 L-142,-168.3333282470703 L-146,-168.3333282470703 L-146,-158.3333282470703 L-142,-158.3333282470703 L-142,-161.3333282470703 L-138,-161.3333282470703 L-138,-144.3333282470703 L-142,-144.3333282470703 L-142,-147.3333282470703 L-146,-147.3333282470703 L-146,-137.3333282470703 L-142,-137.3333282470703 L-142,-140.3333282470703 L-138,-140.3333282470703 L-138,-136.3333282470703 A4,4 90 0 1 -142,-132.3333282470703 L-146,-132.3333282470703 L-176,-132.3333282470703 L-186,-132.3333282470703 L-190,-132.3333282470703 A4,4 90 0 1 -194,-136.3333282470703 L-194,-140.3333282470703 L-194,-161.3333282470703 L-194,-162.3333282470703 L-200,-162.3333282470703 L-200,-159.3333282470703 L-202,-159.3333282470703 L-202,-167.3333282470703 L-200,-167.3333282470703 L-200,-164.3333282470703 L-194,-164.3333282470703 L-194,-165.3333282470703 z"/><text style="font-size:9px;fill:#282828;font-family:sans-serif;text-anchor:end" id="svg_168" x="-202.5" y="-173.833"><tspan id="svg_169" x="-148.5" y="-150.833">➗</tspan></text></g></g><g id="svg_174"><g id="svg_175" transform="translate(485, 417) scale(1.5)"><path style="fill:#ff5293;fill-opacity:1;stroke:#ff2c76;stroke-width:1;stroke-linecap:round;stroke-opacity:1" id="svg_176" d="m-194,-173.3333282470703 L-134,-173.3333282470703 L-134,-153.3333282470703 L-194,-153.3333282470703 L-194,-161.3333282470703 L-194,-162.3333282470703 L-200,-162.3333282470703 L-200,-159.3333282470703 L-202,-159.3333282470703 L-202,-167.3333282470703 L-200,-167.3333282470703 L-200,-164.3333282470703 L-194,-164.3333282470703 L-194,-165.3333282470703 z"/><text style="font-size:10px;fill:#282828;font-family:sans-serif;text-anchor:start" id="svg_177" x="-202.5" y="-173.833"><tspan id="svg_178" x="-189.5" y="-159.833">1</tspan></text></g></g><g id="svg_179"><g id="svg_180" transform="translate(485, 449) scale(1.5)"><path style="fill:#ff5293;fill-opacity:1;stroke:#ff2c76;stroke-width:1;stroke-linecap:round;stroke-opacity:1" id="svg_181" d="m-194,-173.3333282470703 L-134,-173.3333282470703 L-134,-153.3333282470703 L-194,-153.3333282470703 L-194,-161.3333282470703 L-194,-162.3333282470703 L-200,-162.3333282470703 L-200,-159.3333282470703 L-202,-159.3333282470703 L-202,-167.3333282470703 L-200,-167.3333282470703 L-200,-164.3333282470703 L-194,-164.3333282470703 L-194,-165.3333282470703 z"/><text style="font-size:10px;fill:#282828;font-family:sans-serif;text-anchor:start" id="svg_182" x="-202.5" y="-173.833"><tspan id="svg_183" x="-189.5" y="-159.833">8</tspan></text></g></g></g></g></svg>