<svg xmlns="http://www.w3.org/2000/svg" xmlns:svg="http://www.w3.org/2000/svg" id="svg3510" width="321.5" height="192.5" version="1.1" viewBox="0 0 85.064 50.932"><metadata id="metadata3507"/><g id="g82" transform="matrix(0.26458333,0,0,0.26458333,-279.66458,-55.29792)"><g id="g62" transform="translate(1057,241)"><g id="g60" transform="scale(1.5,1.5)"><path id="path50" d="m 0.5,8.5 0,-4 a 4,4 90 0 1 4,-4 l 4,0 0,2 10,0 0,-2 9,0 60,0 4,0 a 4,4 90 0 1 4,4 l 0,4 -4,0 0,-3 -4,0 0,10 4,0 0,-3 4,0 0,4 a 4,4 90 0 1 -4,4 l -4,0 -60,0 -1,0 0,2 -8,0 0,-2 -1,0 -4,0 a 5,5 90 0 0 -5,5 l 0,4 0,4 0,42 0,4 a 5,5 90 0 0 5,5 l 4,0 0,2 10,0 0,-2 8,0 0,6 0,6 0,4 a 4,4 90 0 1 -4,4 l -4,0 -9,0 -1,0 0,2 -8,0 0,-2 -1,0 -4,0 a 4,4 90 0 1 -4,-4 l 0,-4 z" style="fill:#fe994f;fill-opacity:1;stroke:#e86b0e;stroke-width:1;stroke-linecap:round;stroke-opacity:1"/><text id="text54" style="font-size:10px;font-family:sans-serif;text-anchor:start;fill:#282828"><tspan id="tspan52" x="20" y="15">音符</tspan></text><text id="text58" style="font-size:6.66666651px;font-family:sans-serif;text-anchor:end;fill:#282828"><tspan id="tspan56" x="85" y="12">長さ</tspan></text></g></g><g id="g80" transform="matrix(0.5,0,0,0.5,1057,245)"><g id="g78" style="isolation:isolate"><g id="g76" data-name="レイヤー 2"><g id="g74"><rect id="rect64" width="42" height="42" x="0" y="0" rx="5" ry="5" style="opacity:.4;mix-blend-mode:multiply;fill:#292929"/><path id="path66" d="m 30.56,29.8 -4.17,-4.16 2.26,0 a 1.035,1.035 0 1 0 0,-2.07 l -4.71,0 a 1.08,1.08 0 0 0 -1.11,1 l 0,0 c 0,0 0,0 0,0.06 l 0,4.64 0,0 a 1.04,1.04 0 1 0 2.08,0 l 0,-2.19 4.19,4.19 a 1,1 0 0 0 1.46,0 1,1 0 0 0 0,-1.47 z" style="fill:#fff"/><path id="path68" d="m 19.17,24.6 a 1.08,1.08 0 0 0 -1.11,-1 l -4.71,0 a 1.035,1.035 0 1 0 0,2.07 l 2.25,0 -4.16,4.13 a 1.039447,1.039447 0 0 0 1.47,1.47 l 4.18,-4.19 0,2.26 a 1.04,1.04 0 1 0 2.08,0 l 0,-4.64 c 0,0 0,0 0,-0.06 a 0.08,0.08 0 0 1 0,-0.04 z" style="fill:#fff"/><path id="path70" d="m 23.94,20.5 4.7,0 a 1.04,1.04 0 1 0 0,-2.08 l -2.25,0 4.17,-4.16 a 1,1 0 0 0 0,-1.47 1,1 0 0 0 -1.46,0 l -4.19,4.21 0,-2.28 a 1.04,1.04 0 1 0 -2.08,0 l 0,4.64 a 0.43,0.43 0 0 0 0,0.05 l 0,0.05 a 1.09,1.09 0 0 0 1.11,1.04 z" style="fill:#fff"/><path id="path72" d="m 18.13,13.62 a 1.08,1.08 0 0 0 -1,1.09 l 0,2.29 -4.18,-4.19 a 1,1 0 0 0 -1.47,0 1,1 0 0 0 0,1.46 l 4.16,4.17 -2.29,0 a 1.04,1.04 0 1 0 0,2.08 l 4.71,0 a 1.09,1.09 0 0 0 1.11,-1 c 0,0 0,0 0,-0.06 l 0,-4.75 a 1.07,1.07 0 0 0 -1.04,-1.09 z" style="fill:#fff"/></g></g></g></g></g><g id="g100" transform="matrix(0.26458333,0,0,0.26458333,34.925,8.46666)"><g id="g98" transform="scale(1.5,1.5)"><path id="path84" d="m 8.5,8.5 0,-4 a 4,4 90 0 1 4,-4 l 4,0 10,0 30,0 4,0 a 4,4 90 0 1 4,4 l 0,4 -4,0 0,-3 -4,0 0,10 4,0 0,-3 4,0 0,17 -4,0 0,-3 -4,0 0,10 4,0 0,-3 4,0 0,4 a 4,4 90 0 1 -4,4 l -4,0 -30,0 -10,0 -4,0 a 4,4 90 0 1 -4,-4 l 0,-4 0,-21 0,-1 -6,0 0,3 -2,0 0,-8 2,0 0,3 6,0 z" style="fill:#ff6ea1;fill-opacity:1;stroke:#ff2c76;stroke-width:1;stroke-linecap:round;stroke-opacity:1"/><text id="text88" style="font-size:9px;font-family:sans-serif;text-anchor:end;fill:#282828"><tspan id="tspan86" x="54" y="23">➗</tspan></text></g></g><g id="g110" transform="matrix(0.26458333,0,0,0.26458333,57.67917,8.46666)"><g id="g108" transform="scale(1.5,1.5)"><path id="path102" d="m 8.5,0.5 60,0 0,20 -60,0 0,-8 0,-1 -6,0 0,3 -2,0 0,-8 2,0 0,3 6,0 0,-1 z" style="fill:#ff6ea1;fill-opacity:1;stroke:#ff2c76;stroke-width:1;stroke-linecap:round;stroke-opacity:1"/><text id="text106" style="font-size:10px;font-family:sans-serif;text-anchor:start;fill:#282828"><tspan id="tspan104" x="13" y="14">1</tspan></text></g></g><g id="g120" transform="matrix(0.26458333,0,0,0.26458333,57.67917,16.93333)"><g id="g118" transform="scale(1.5,1.5)"><path id="path112" d="m 8.5,0.5 60,0 0,20 -60,0 0,-8 0,-1 -6,0 0,3 -2,0 0,-8 2,0 0,3 6,0 0,-1 z" style="fill:#ff6ea1;fill-opacity:1;stroke:#ff2c76;stroke-width:1;stroke-linecap:round;stroke-opacity:1"/><text id="text116" style="font-size:10px;font-family:sans-serif;text-anchor:start;fill:#282828"><tspan id="tspan114" x="13" y="14">2</tspan></text></g></g><g id="g130" transform="matrix(0.26458333,0,0,0.26458333,3.70417,16.93333)"><g id="g128" transform="scale(1.5,1.5)"><path id="path122" d="m 0.5,8.5 0,-4 a 4,4 90 0 1 4,-4 l 4,0 0,2 10,0 0,-2 20,0 4,0 a 4,4 90 0 1 4,4 l 0,4 0,4 0,4 a 4,4 90 0 1 -4,4 l -4,0 -20,0 -1,0 0,2 -8,0 0,-2 -1,0 -4,0 a 4,4 90 0 1 -4,-4 l 0,-4 z" style="fill:#c4c4c4;fill-opacity:1;stroke:#a0a0a0;stroke-width:1;stroke-linecap:round;stroke-opacity:1"/><text id="text126" style="font-size:10px;font-family:sans-serif;text-anchor:end;fill:#282828"><tspan id="tspan124" x="36" y="14">↓</tspan></text></g></g><g id="g148" transform="matrix(0.26458333,0,0,0.26458333,9.3486149,25.4)"><g id="g146" transform="scale(1.5,1.5)"><path id="path132" d="m -13.722223,8.5 0,-4 c 0,-2.209139 1.790861,-4 3.9999996,-4 l 4,0 0,2 10,0 0,-2 44.2222234,0 4,0 c 2.209139,0 4,1.790861 4,4 l 0,4 -4,0 0,-3 -4,0 0,10 4,0 0,-3 4,0 0,17 -4,0 0,-3 -4,0 0,10 4,0 0,-3 4,0 0,4 c 0,2.209139 -1.790861,4 -4,4 l -4,0 -44.2222234,0 -1,0 0,2 -8,0 0,-2 -1,0 -4,0 c -2.2091386,0 -6.1266296,-3.401885 -3.9999996,-4 l 0,-4 0,-21 z" style="fill:#7cd622;fill-opacity:1;stroke:#57ad02;stroke-width:1;stroke-linecap:round;stroke-opacity:1"/><text id="text136" style="font-size:10px;font-family:sans-serif;text-anchor:end;fill:#282828"><tspan id="tspan134" x="46" y="24">音の高さ</tspan></text><text id="text140" style="font-size:6.66666651px;font-family:sans-serif;text-anchor:end;fill:#282828"><tspan id="tspan138" x="46" y="12">名前</tspan></text><text id="text144" style="font-size:6.66666651px;font-family:sans-serif;text-anchor:end;fill:#282828"><tspan id="tspan142" x="46" y="33">オクターヴの高さ</tspan></text></g></g><g id="g158" transform="matrix(0.26458333,0,0,0.26458333,28.927775,25.4)"><g id="g156" transform="scale(1.5,1.5)"><path id="path150" d="m 8.5,0.5 60,0 0,20 -60,0 0,-8 0,-1 -6,0 0,3 -2,0 0,-8 2,0 0,3 6,0 0,-1 z" style="fill:#7cd622;fill-opacity:1;stroke:#57ad02;stroke-width:1;stroke-linecap:round;stroke-opacity:1"/><text id="text154" style="font-size:10px;font-family:sans-serif;text-anchor:start;fill:#282828"><tspan id="tspan152" x="13" y="14">ド</tspan></text></g></g><g id="g168" transform="matrix(0.26458333,0,0,0.26458333,28.927775,33.86666)"><g id="g166" transform="scale(1.5,1.5)"><path id="path160" d="m 8.5,0.5 60,0 0,20 -60,0 0,-8 0,-1 -6,0 0,3 -2,0 0,-8 2,0 0,3 6,0 0,-1 z" style="fill:#ff6ea1;fill-opacity:1;stroke:#ff2c76;stroke-width:1;stroke-linecap:round;stroke-opacity:1"/><text id="text164" style="font-size:10px;font-family:sans-serif;text-anchor:start;fill:#282828"><tspan id="tspan162" x="13" y="14">4</tspan></text></g></g><g id="g666" transform="scale(0.26458333,0.26458333)"><g id="g664" transform="scale(1.5,1.5)"><path id="path654" d="m 0.5,8.5 0,-4 a 4,4 90 0 1 4,-4 l 4,0 0,2 10,0 0,-2 81.69434,0 4,0 a 4,4 90 0 1 4,4 l 0,4 -4,0 0,-3 -4,0 0,10 4,0 0,-3 4,0 0,4 a 4,4 90 0 1 -4,4 l -4,0 -81.69434,0 -1,0 0,2 -8,0 0,-2 -1,0 -4,0 a 4,4 90 0 1 -4,-4 l 0,-4 z" style="fill:#3edcdd;fill-opacity:1;stroke:#1dbcbd;stroke-width:1;stroke-linecap:round;stroke-opacity:1"/><text id="text658" style="font-size:10px;font-family:sans-serif;text-anchor:end;fill:#282828"><tspan id="tspan656" x="98" y="14">全体の音量を せってい</tspan></text></g></g><g id="g676" transform="matrix(0.26458333,0,0,0.26458333,39.95208,0)"><g id="g674" transform="scale(1.5,1.5)"><path id="path668" d="m 8.5,0.5 60,0 0,20 -60,0 0,-8 0,-1 -6,0 0,3 -2,0 0,-8 2,0 0,3 6,0 0,-1 z" style="fill:#ff6ea1;fill-opacity:1;stroke:#ff2c76;stroke-width:1;stroke-linecap:round;stroke-opacity:1"/><text id="text672" style="font-size:10px;font-family:sans-serif;text-anchor:start;fill:#282828"><tspan id="tspan670" x="13" y="14">50</tspan></text></g></g></svg>