<svg xmlns="http://www.w3.org/2000/svg" xmlns:svg="http://www.w3.org/2000/svg" id="svg1621" width="240.167" height="194.5" version="1.1" viewBox="0 0 63.544 51.461"><metadata id="metadata1618"/><path style="fill:#92a9ff;fill-opacity:1;stroke:#5370dc;stroke-width:.39687499;stroke-linecap:round;stroke-opacity:1" id="path540" d="m 0.1984375,11.840104 0,-1.5875 c 0,-0.8767515 0.710748,-1.5874995 1.5875,-1.5874995 l 1.5875,0 0,0.79375 3.96875,0 0,-0.79375 28.4990785,0 1.5875,0 c 0.876752,0 1.5875,0.710748 1.5875,1.5874995 l 0,1.5875 -1.5875,0 0,-1.190625 -1.5875,0 0,3.96875 1.5875,0 0,-1.190625 1.5875,0 0,1.587501 c -1e-6,0.876752 -0.710748,1.587499 -1.5875,1.587499 l -1.5875,0 -28.4990785,0 -0.39688,0 0,0.79375 -3.175,0 0,-0.79375 -0.39687,0 -1.5875,0 c -0.876752,0 -1.5875,-0.710747 -1.5875,-1.587499 l 0,-1.587501 z"/><text style="font-size:3.96875px;font-family:sans-serif;text-anchor:end;fill:#282828;stroke-width:.39687499" id="text544" x="11.289" y="8.467"><tspan id="tspan542" x="35.101" y="14.023" style="stroke-width:.39687499">色のこさをせってい</tspan></text><path style="fill:#ff6ea1;fill-opacity:1;stroke:#ff2c76;stroke-width:.39687499;stroke-linecap:round;stroke-opacity:1" id="path554" d="m 39.533156,8.6651045 23.8125,0 0,7.9374995 -23.8125,0 0,-3.175 0,-0.396874 -2.38125,0 0,1.190624 -0.79375,0 0,-3.174999 0.79375,0 0,1.190624 2.38125,0 0,-0.396875 z"/><text style="font-size:3.96875px;font-family:sans-serif;text-anchor:start;fill:#282828;stroke-width:.39687499" id="text558" x="36.16" y="8.467"><tspan id="tspan556" x="41.319" y="14.023" style="stroke-width:.39687499">0</tspan></text><path style="fill:#92a9ff;fill-opacity:1;stroke:#5370dc;stroke-width:.39687499;stroke-linecap:round;stroke-opacity:1" id="path564" d="m 0.1984375,28.773438 0,-1.5875 c 0,-0.876752 0.710748,-1.587501 1.5875,-1.587501 l 1.5875,0 0,0.793751 3.96875,0 0,-0.793751 28.4990785,0 1.5875,0 c 0.876752,0 1.587501,0.710749 1.5875,1.587501 l 0,1.5875 -1.5875,0 0,-1.190626 -1.5875,0 0,3.96875 1.5875,0 0,-1.190624 1.5875,0 0,1.587499 c 0,0.876752 -0.710748,1.5875 -1.5875,1.5875 l -1.5875,0 -28.4990785,0 -0.39688,0 0,0.793751 -3.175,0 0,-0.793751 -0.39687,0 -1.5875,0 c -0.876752,0 -1.5875,-0.710748 -1.5875,-1.5875 l 0,-1.587499 z"/><text style="font-size:3.96875px;font-family:sans-serif;text-anchor:end;fill:#282828;stroke-width:.39687499" id="text568" x="11.289" y="25.4"><tspan id="tspan566" x="35.101" y="30.956" style="stroke-width:.39687499">色のこさをせってい</tspan></text><path style="fill:#ff6ea1;fill-opacity:1;stroke:#ff2c76;stroke-width:.39687499;stroke-linecap:round;stroke-opacity:1" id="path578" d="m 39.533156,25.598437 23.8125,0 0,7.9375 -23.8125,0 0,-3.174999 0,-0.396876 -2.38125,0 0,1.190626 -0.79375,0 0,-3.175001 0.79375,0 0,1.190626 2.38125,0 0,-0.396875 z"/><text style="font-size:3.96875px;font-family:sans-serif;text-anchor:start;fill:#282828;stroke-width:.39687499" id="text582" x="36.16" y="25.4"><tspan id="tspan580" x="41.319" y="30.956" style="stroke-width:.39687499">50</tspan></text><path style="fill:#92a9ff;fill-opacity:1;stroke:#5370dc;stroke-width:.39687499;stroke-linecap:round;stroke-opacity:1" id="path588" d="m 0.1984375,3.3734375 0,-1.5875 c 0,-0.87675204 0.710748,-1.5875 1.5875,-1.5875 l 1.5875,0 0,0.79375 3.96875,0 0,-0.79375 18.8781345,0 1.5875,0 c 0.876752,0 0.743493,1.3501232 1.5875,1.5875 l 0,1.5875 -1.5875,0 0,-1.190625 -1.5875,0 0,3.96875 1.5875,0 0,-1.190625 1.5875,0 0,1.587501 c 0,0.8767516 -2.464252,1.587499 -1.5875,1.587499 l -1.5875,0 -18.8781345,0 -0.39688,0 0,0.79375 -3.175,0 0,-0.79375 -0.39687,0 -1.5875,0 c -0.876752,0 -1.5875,-0.7107474 -1.5875,-1.587499 l 0,-1.587501 z"/><text style="font-size:3.96875px;font-family:sans-serif;text-anchor:end;fill:#282828;stroke-width:.39687499" id="text592" x="0" y="0"><tspan id="tspan590" x="19.844" y="5.556" style="stroke-width:.39687499">前へ進む</tspan></text><g id="g3488" transform="translate(5.644442,4.9701977e-7)"><path id="path602" d="m 24.27552,0.198437 23.8125,0 0,7.9375 -23.8125,0 0,-3.175 0,-0.396874 -2.38125,0 0,1.190624 -0.79375,0 0,-3.174999 0.79375,0 0,1.190624 2.38125,0 0,-0.396875 z" style="fill:#ff6ea1;fill-opacity:1;stroke:#ff2c76;stroke-width:.39687499;stroke-linecap:round;stroke-opacity:1"/><text id="text606" x="20.902" y="0" style="font-size:3.96875px;font-family:sans-serif;text-anchor:start;fill:#282828;stroke-width:.39687499"><tspan style="stroke-width:.39687499" id="tspan604" x="26.061" y="5.556">100</tspan></text></g><path style="fill:#92a9ff;fill-opacity:1;stroke:#5370dc;stroke-width:.39687499;stroke-linecap:round;stroke-opacity:1" id="path612" d="m 0.1984375,20.30677 0,-1.587499 c 0,-0.876752 0.710748,-1.587501 1.5875,-1.587501 l 1.5875,0 0,0.793751 3.96875,0 0,-0.793751 18.8781345,0 1.5875,0 c 0.876752,0 0.743493,1.350124 1.5875,1.587501 l 0,1.587499 -1.5875,0 0,-1.190625 -1.5875,0 0,3.96875 1.5875,0 0,-1.190624 1.5875,0 0,1.5875 c 0,0.876752 -0.710748,1.587499 -1.5875,1.587499 l -1.5875,0 -18.8781345,0 -0.39688,0 0,0.793751 -3.175,0 0,-0.793751 -0.39687,0 -1.5875,0 c -0.876752,0 -1.5875,-0.710747 -1.5875,-1.587499 l 0,-1.5875 z"/><text style="font-size:3.96875px;font-family:sans-serif;text-anchor:end;fill:#282828;stroke-width:.39687499" id="text616" x="0" y="16.933"><tspan id="tspan614" x="19.844" y="22.49" style="stroke-width:.39687499">前へ進む</tspan></text><g id="g3502" transform="translate(-2.5029802e-6,4.9701977e-7)"><path id="path626" d="m 29.919964,17.13177 23.8125,0 0,7.9375 -23.8125,0 0,-3.174999 0,-0.396875 -2.38125,0 0,1.190625 -0.79375,0 0,-3.175 0.79375,0 0,1.190625 2.38125,0 0,-0.396876 z" style="fill:#ff6ea1;fill-opacity:1;stroke:#ff2c76;stroke-width:.39687499;stroke-linecap:round;stroke-opacity:1"/><text id="text630" x="26.547" y="16.933" style="font-size:3.96875px;font-family:sans-serif;text-anchor:start;fill:#282828;stroke-width:.39687499"><tspan style="stroke-width:.39687499" id="tspan628" x="31.706" y="22.49">100</tspan></text></g><path style="fill:#92a9ff;fill-opacity:1;stroke:#5370dc;stroke-width:.39687499;stroke-linecap:round;stroke-opacity:1" id="path636" d="m 0.1984375,37.240105 0,-1.5875 c 0,-0.876752 0.710748,-1.587501 1.5875,-1.587501 l 1.5875,0 0,0.793751 3.96875,0 0,-0.793751 18.8781345,0 1.5875,0 c 0.876752,0 0.743493,1.350124 1.5875,1.587501 l 0,1.5875 -1.5875,0 0,-1.190626 -1.5875,0 0,3.96875 1.5875,0 0,-1.190624 1.5875,0 0,1.5875 c 0,0.876752 -2.464252,1.587499 -1.5875,1.587499 l -1.5875,0 -18.8781345,0 -0.39688,0 0,0.793751 -3.175,0 0,-0.793751 -0.39687,0 -1.5875,0 c -0.876752,0 -1.5875,-0.710747 -1.5875,-1.587499 l 0,-1.5875 z"/><text style="font-size:3.96875px;font-family:sans-serif;text-anchor:end;fill:#282828;stroke-width:.39687499" id="text640" x="0" y="33.867"><tspan id="tspan638" x="19.844" y="39.423" style="stroke-width:.39687499">前へ進む</tspan></text><g id="g3478" transform="translate(5.644442,4.9701977e-7)"><path id="path650" d="m 24.27552,34.065104 23.8125,0 0,7.9375 -23.8125,0 0,-3.174999 0,-0.396875 -2.38125,0 0,1.190625 -0.79375,0 0,-3.175 0.79375,0 0,1.190625 2.38125,0 0,-0.396875 z" style="fill:#ff6ea1;fill-opacity:1;stroke:#ff2c76;stroke-width:.39687499;stroke-linecap:round;stroke-opacity:1"/><text id="text654" x="20.902" y="33.867" style="font-size:3.96875px;font-family:sans-serif;text-anchor:start;fill:#282828;stroke-width:.39687499"><tspan style="stroke-width:.39687499" id="tspan652" x="26.061" y="39.423">100</tspan></text></g><path style="fill:#92a9ff;fill-opacity:1;stroke:#5370dc;stroke-width:.39687499;stroke-linecap:round;stroke-opacity:1" id="path660" d="m 0.1984375,45.706771 0,-1.5875 c 0,-0.876752 0.710748,-1.587501 1.5875,-1.587501 l 1.5875,0 0,0.79375 3.96875,0 0,-0.79375 28.4990785,0 1.5875,0 c 0.876752,0 1.587501,0.710749 1.5875,1.587501 l 0,1.5875 -1.5875,0 0,-1.190626 -1.5875,0 0,3.96875 1.5875,0 0,-1.190625 1.5875,0 0,1.5875 c 0,0.876752 -0.710748,1.5875 -1.5875,1.5875 l -1.5875,0 -28.4990785,0 -0.39688,0 0,0.79375 -3.175,0 0,-0.79375 -0.39687,0 -1.5875,0 c -0.876752,0 -1.5875,-0.710748 -1.5875,-1.5875 l 0,-1.5875 z"/><text style="font-size:3.96875px;font-family:sans-serif;text-anchor:end;fill:#282828;stroke-width:.39687499" id="text664" x="11.289" y="42.333"><tspan id="tspan662" x="35.101" y="47.89" style="stroke-width:.39687499">色のこさをせってい</tspan></text><path style="fill:#ff6ea1;fill-opacity:1;stroke:#ff2c76;stroke-width:.39687499;stroke-linecap:round;stroke-opacity:1" id="path674" d="m 39.533156,42.53177 23.8125,0 0,7.9375 -23.8125,0 0,-3.175 0,-0.396875 -2.38125,0 0,1.190625 -0.79375,0 0,-3.175 0.79375,0 0,1.190626 2.38125,0 0,-0.396875 z"/><text style="font-size:3.96875px;font-family:sans-serif;text-anchor:start;fill:#282828;stroke-width:.39687499" id="text678" x="36.16" y="42.333"><tspan id="tspan676" x="41.319" y="47.89" style="stroke-width:.39687499">100</tspan></text></svg>