<svg xmlns="http://www.w3.org/2000/svg" xmlns:svg="http://www.w3.org/2000/svg" id="svg1870" width="254.713" height="144.5" version="1.1" viewBox="0 0 67.393 38.232"><metadata id="metadata1867"/><g id="g474" transform="scale(0.26458333,0.26458333)"><g id="g472" transform="scale(1.5,1.5)"><path style="fill:#728ff9;fill-opacity:1;stroke:#5370dc;stroke-width:1;stroke-linecap:round;stroke-opacity:1" id="path462" d="m 0.5,8.5 0,-4 a 4,4 90 0 1 4,-4 l 4,0 0,2 10,0 0,-2 37.792969,0 4,0 a 4,4 90 0 1 4,4 l 0,4 -4,0 0,-3 -4,0 0,10 4,0 0,-3 4,0 0,4 a 4,4 90 0 1 -4,4 l -4,0 -37.792969,0 -1,0 0,2 -8,0 0,-2 -1,0 -4,0 a 4,4 90 0 1 -4,-4 l 0,-4 z"/><text style="font-size:10px;font-family:sans-serif;text-anchor:end;fill:#282828" id="text466"><tspan id="tspan464" x="54" y="14">色をせってい</tspan></text></g></g><g id="g484" transform="matrix(0.26458333,0,0,0.26458333,22.5397,0)"><g id="g482" transform="scale(1.5,1.5)"><path style="fill:#ff5293;fill-opacity:1;stroke:#ff2c76;stroke-width:1;stroke-linecap:round;stroke-opacity:1" id="path476" d="m 8.5,0.5 60,0 0,20 -60,0 0,-8 0,-1 -6,0 0,3 -2,0 0,-8 2,0 0,3 6,0 0,-1 z"/><text style="font-size:10px;font-family:sans-serif;text-anchor:start;fill:#282828" id="text480"><tspan id="tspan478" x="13" y="14">0</tspan></text></g></g><g id="g498" transform="matrix(0.26458333,0,0,0.26458333,11.288889,8.33438)"><g id="g496" transform="scale(1.5,1.5)"><path style="fill:#728ff9;fill-opacity:1;stroke:#5370dc;stroke-width:1;stroke-linecap:round;stroke-opacity:1" id="path486" d="m -27.944445,8.5 0,-4 c 0,-2.209139 1.790861,-4 4,-4 l 4,0 0,2 10,0 0,-2 71.808703,0 4,0 c 2.209139,0 4,1.790861 4,4 l 0,4 -4,0 0,-3 -4,0 0,10 4,0 0,-3 4,0 0,4 c 0,2.209139 -1.790861,4 -4,4 l -4,0 -71.808703,0 -1,0 0,2 -8,0 0,-2 -1,0 -4,0 c -2.209139,0 -6.12663,-3.401885 -4,-4 l 0,-4 z"/><text style="font-size:10px;font-family:sans-serif;text-anchor:end;fill:#282828" id="text490"><tspan id="tspan488" x="60" y="14">色のこさをせってい</tspan></text></g></g><g id="g508" transform="matrix(0.26458333,0,0,0.26458333,36.039698,8.33438)"><g id="g506" transform="scale(1.5,1.5)"><path style="fill:#ff5293;fill-opacity:1;stroke:#ff2c76;stroke-width:1;stroke-linecap:round;stroke-opacity:1" id="path500" d="m 8.5,0.5 60,0 0,20 -60,0 0,-8 0,-1 -6,0 0,3 -2,0 0,-8 2,0 0,3 6,0 0,-1 z"/><text style="font-size:10px;font-family:sans-serif;text-anchor:start;fill:#282828" id="text504"><tspan id="tspan502" x="13" y="14">50</tspan></text></g></g><g id="g522" transform="matrix(0.26458333,0,0,0.26458333,11.288889,16.66875)"><g id="g520" transform="scale(1.5,1.5)"><path style="fill:#728ff9;fill-opacity:1;stroke:#5370dc;stroke-width:1;stroke-linecap:round;stroke-opacity:1" id="path510" d="m -27.944445,8.5 0,-4 c 0,-2.209139 1.790861,-4 4,-4 l 4,0 0,2 10,0 0,-2 81.808703,0 4,0 c 2.209139,0 4,1.790861 4,4 l 0,4 -4,0 0,-3 -4,0 0,10 4,0 0,-3 4,0 0,4 c 0,2.209139 -1.790861,4 -4,4 l -4,0 -81.808703,0 -1,0 0,2 -8,0 0,-2 -1,0 -4,0 c -2.209139,0 -4,-1.790861 -4,-4 l 0,-4 z"/><text style="font-size:10px;font-family:sans-serif;text-anchor:end;fill:#282828" id="text514"><tspan id="tspan512" x="70" y="14">太さをせってい</tspan></text></g></g><g id="g532" transform="matrix(0.26458333,0,0,0.26458333,40.008448,16.66875)"><g id="g530" transform="scale(1.5,1.5)"><path style="fill:#ff5293;fill-opacity:1;stroke:#ff2c76;stroke-width:1;stroke-linecap:round;stroke-opacity:1" id="path524" d="m 8.5,0.5 60,0 0,20 -60,0 0,-8 0,-1 -6,0 0,3 -2,0 0,-8 2,0 0,3 6,0 0,-1 z"/><text style="font-size:10px;font-family:sans-serif;text-anchor:start;fill:#282828" id="text528"><tspan id="tspan526" x="13" y="14">5</tspan></text></g></g><g id="g562" transform="matrix(0.26458333,0,0,0.26458333,22.225,29.89792)"><g id="g560" transform="scale(1.5,1.5)"><path style="fill:#728ff9;fill-opacity:1;stroke:#5370dc;stroke-width:1;stroke-linecap:round;stroke-opacity:1" id="path554" d="m 8.5,0.5 70,0 0,20 -70,0 0,-8 0,-1 -6,0 0,3 -2,0 0,-8 2,0 0,3 6,0 0,-1 z"/><text style="font-size:10px;font-family:sans-serif;text-anchor:start;fill:#282828" id="text558"><tspan id="tspan556" x="13" y="14">いろ</tspan></text></g></g></svg>