<svg xmlns="http://www.w3.org/2000/svg" xmlns:svg="http://www.w3.org/2000/svg" id="svg3045" width="500.059" height="286.5" version="1.1" viewBox="0 0 132.307 75.803"><metadata id="metadata3042"/><path id="path832" d="m 0.1984375,3.3734375 v -1.5875 c 0,-0.87675204 0.71074796,-1.5875 1.5875,-1.5875 h 1.5875 v 0.79375 h 3.96875 v -0.79375 h 3.5718755 39.81475 1.5875 c 0.876753,0 1.5875,0.71074796 1.5875,1.5875 v 1.5875 h -1.5875 v -1.190625 h -1.5875 v 3.96875 h 1.5875 v -1.190625 h 1.5875 v 1.5875 c 0,0.876752 -0.710747,1.5875 -1.5875,1.5875 h -1.5875 -39.81475 -0.396876 v 0.79375 H 7.3421875 v -0.79375 h -0.396875 -1.5875 c -1.0959399,0 -1.9843747,0.8884346 -1.984375,1.9843745 v 1.5875 1.587501 50.006249 1.5875 c 0,1.09594 0.8884349,1.984375 1.984375,1.984375 h 1.5875 v 0.79375 h 3.9687505 v -0.79375 h 3.174999 v 2.381251 2.381249 1.587501 c -1e-6,0.876752 -0.710748,1.587499 -1.5875,1.587499 H 10.914063 7.3421875 6.9453125 v 0.79375 h -3.175 v -0.79375 h -0.396875 -1.5875 c -0.87675165,0 -1.58749945,-0.710747 -1.5875,-1.587499 v -1.587501 z" style="fill:#7cd622;fill-opacity:1;stroke:#57ad02;stroke-width:.39687499;stroke-linecap:round;stroke-opacity:1"/><text id="text836" style="font-size:3.96875px;font-family:sans-serif;text-anchor:start;fill:#282828;stroke-width:.39687499"><tspan style="stroke-width:.39687499" id="tspan834" x="1.984" y="5.953">調を変える (+/–)</tspan></text><path id="path846" d="m 54.173441,3.3734375 v -1.5875 a 1.5875,1.5875 0 0 1 1.587499,-1.5875 h 1.5875 3.96875 11.90625 1.587501 a 1.5875,1.5875 0 0 1 1.587499,1.5875 v 1.5875 H 74.810941 V 2.1828125 H 73.22344 v 3.96875 h 1.587501 V 4.9609375 H 76.39844 V 11.707812 H 74.810941 V 10.517187 H 73.22344 v 3.96875 h 1.587501 v -1.190624 h 1.587499 v 1.5875 a 1.5875,1.5875 0 0 1 -1.587499,1.587499 H 73.22344 61.31719 57.34844 55.76094 a 1.5875,1.5875 0 0 1 -1.587499,-1.587499 v -1.5875 -8.3343755 -0.396875 H 51.79219 v 1.190625 h -0.79375 v -3.175 h 0.79375 v 1.190625 h 2.381251 z" style="fill:#ff6ea1;fill-opacity:1;stroke:#ff2c76;stroke-width:.39687499;stroke-linecap:round;stroke-opacity:1"/><text id="text850" x="50.8" style="font-size:5.5562501px;font-family:sans-serif;text-anchor:end;fill:#282828;stroke-width:.39687499"><tspan style="stroke-width:.39687499" id="tspan848" x="72.231" y="9.525">+</tspan></text><path id="path864" d="m 76.927605,0.1984375 h 23.812505 v 7.9375 H 76.927605 v -3.175 -0.396875 h -2.38125 v 1.190625 h -0.79375 v -3.175 h 0.79375 v 1.190625 h 2.38125 v -0.396875 z" style="fill:#ff6ea1;fill-opacity:1;stroke:#ff2c76;stroke-width:.39687499;stroke-linecap:round;stroke-opacity:1"/><text id="text868" x="73.554" style="font-size:3.96875px;font-family:sans-serif;text-anchor:start;fill:#282828;stroke-width:.39687499"><tspan style="stroke-width:.39687499" id="tspan866" x="78.714" y="5.556">4</tspan></text><path id="path874" d="m 76.927605,11.840108 v -1.5875 a 1.5875,1.5875 0 0 1 1.5875,-1.5875005 h 1.5875 3.96875 11.90625 1.5875 a 1.5875,1.5875 0 0 1 1.5875,1.5875005 v 1.5875 h -1.5875 v -1.190625 h -1.5875 v 3.96875 h 1.5875 v -1.190625 h 1.5875 v 6.746874 h -1.5875 v -1.190625 h -1.5875 v 3.96875 h 1.5875 v -1.190624 h 1.5875 v 1.587499 a 1.5875,1.5875 0 0 1 -1.5875,1.5875 h -1.5875 -11.90625 -3.96875 -1.5875 a 1.5875,1.5875 0 0 1 -1.5875,-1.5875 v -1.587499 -8.334375 -0.396876 h -2.38125 v 1.190626 h -0.79375 v -3.175 h 0.79375 v 1.190625 h 2.38125 z" style="fill:#ff6ea1;fill-opacity:1;stroke:#ff2c76;stroke-width:.39687499;stroke-linecap:round;stroke-opacity:1"/><text id="text878" x="73.554" y="8.467" style="font-size:5.5562501px;font-family:sans-serif;text-anchor:end;fill:#282828;stroke-width:.39687499"><tspan style="stroke-width:.39687499" id="tspan876" x="94.985" y="17.992">×</tspan></text><path id="path892" d="M 99.681773,8.6651075 H 123.49431 V 16.602607 H 99.681773 v -3.174999 -0.396876 h -2.381248 v 1.190626 h -0.79375 v -3.175 h 0.79375 v 1.190625 h 2.381248 v -0.396875 z" style="fill:#ff6ea1;fill-opacity:1;stroke:#ff2c76;stroke-width:.39687499;stroke-linecap:round;stroke-opacity:1"/><text id="text896" x="96.308" y="8.467" style="font-size:3.96875px;font-family:sans-serif;text-anchor:start;fill:#282828;stroke-width:.39687499"><tspan style="stroke-width:.39687499" id="tspan894" x="101.468" y="14.023">0</tspan></text><path id="path902" d="m 99.681773,17.131768 h 32.426987 v 7.9375 H 99.681773 v -3.175 -0.396876 h -2.381248 v 1.190625 h -0.79375 v -3.175 h 0.79375 v 1.190625 h 2.381248 v -0.396875 z" style="fill:#7cd622;fill-opacity:1;stroke:#57ad02;stroke-width:.39687499;stroke-linecap:round;stroke-opacity:1"/><text id="text906" x="96.308" y="16.933" style="font-size:3.96875px;font-family:sans-serif;text-anchor:start;fill:#282828;stroke-width:.39687499"><tspan style="stroke-width:.39687499" id="tspan904" x="101.468" y="22.49">音階の音数</tspan></text><path id="path912" d="m 3.9026045,11.840108 v -1.5875 a 1.5875,1.5875 0 0 1 1.5875,-1.5875005 h 1.5875 v 0.79375 h 3.9687505 v -0.79375 h 7.937499 1.5875 a 1.5875,1.5875 0 0 1 1.5875,1.5875005 v 1.5875 1.5875 1.587499 a 1.5875,1.5875 0 0 1 -1.5875,1.5875 h -1.5875 -7.937499 -0.396875 v 0.79375 H 7.4744795 v -0.79375 h -0.396875 -1.5875 a 1.5875,1.5875 0 0 1 -1.5875,-1.5875 v -1.587499 z" style="fill:#c4c4c4;fill-opacity:1;stroke:#a0a0a0;stroke-width:.39687499;stroke-linecap:round;stroke-opacity:1"/><text id="text916" x="3.704" y="8.467" style="font-size:3.96875px;font-family:sans-serif;text-anchor:end;fill:#282828;stroke-width:.39687499"><tspan style="stroke-width:.39687499" id="tspan914" x="17.992" y="14.023">↓</tspan></text><path id="path922" d="m 3.9026045,20.306767 v -1.5875 a 1.5875,1.5875 0 0 1 1.5875,-1.587499 h 1.5875 v 0.79375 h 3.9687505 v -0.79375 h 7.937499 1.5875 a 1.5875,1.5875 0 0 1 1.5875,1.587499 v 1.5875 1.587501 1.587499 a 1.5875,1.5875 0 0 1 -1.5875,1.587501 h -1.5875 -7.937499 -0.396875 v 0.79375 H 7.4744795 v -0.79375 h -0.396875 -1.5875 a 1.5875,1.5875 0 0 1 -1.5875,-1.587501 v -1.587499 z" style="fill:#c4c4c4;fill-opacity:1;stroke:#a0a0a0;stroke-width:.39687499;stroke-linecap:round;stroke-opacity:1"/><text id="text926" x="3.704" y="16.933" style="font-size:3.96875px;font-family:sans-serif;text-anchor:end;fill:#282828;stroke-width:.39687499"><tspan style="stroke-width:.39687499" id="tspan924" x="17.992" y="22.49">↓</tspan></text><g id="g942" transform="matrix(0.396875,0,0,0.396875,3.7041649,25.400007)"><path id="path932" d="m 0.5,8.5 v -4 a 4,4 90 0 1 4,-4 h 4 v 2 h 10 v -2 h 9 60 4 a 4,4 90 0 1 4,4 v 4 h -4 v -3 h -4 v 10 h 4 v -3 h 4 v 4 a 4,4 90 0 1 -4,4 h -4 -60 -1 v 2 h -8 v -2 h -1 -4 a 5,5 90 0 0 -5,5 v 4 4 42 4 a 5,5 90 0 0 5,5 h 4 v 2 h 10 v -2 h 8 v 6 6 4 a 4,4 90 0 1 -4,4 h -4 -9 -1 v 2 h -8 v -2 h -1 -4 a 4,4 90 0 1 -4,-4 v -4 z" style="fill:#fe994f;fill-opacity:1;stroke:#e86b0e;stroke-width:1;stroke-linecap:round;stroke-opacity:1"/><text id="text936" style="font-size:10px;font-family:sans-serif;text-anchor:start;fill:#282828"><tspan id="tspan934" x="20" y="15">音符</tspan></text><text id="text940" style="font-size:6.66666651px;font-family:sans-serif;text-anchor:end;fill:#282828"><tspan id="tspan938" x="85" y="12">長さ</tspan></text></g><g id="g960" transform="matrix(0.13229166,0,0,0.13229166,3.7041649,26.45834)" style="isolation:isolate"><g id="g958" data-name="レイヤー 2"><g id="g956"><rect id="rect946" width="42" height="42" x="0" y="0" rx="5" ry="5" style="opacity:.4;mix-blend-mode:multiply;fill:#292929"/><path id="path948" d="m 30.56,29.8 -4.17,-4.16 h 2.26 a 1.035,1.035 0 1 0 0,-2.07 h -4.71 a 1.08,1.08 0 0 0 -1.11,1 v 0 c 0,0 0,0 0,0.06 v 4.64 0 a 1.04,1.04 0 1 0 2.08,0 v -2.19 l 4.19,4.19 a 1,1 0 0 0 1.46,0 1,1 0 0 0 0,-1.47 z" style="fill:#fff"/><path id="path950" d="m 19.17,24.6 a 1.08,1.08 0 0 0 -1.11,-1 h -4.71 a 1.035,1.035 0 1 0 0,2.07 h 2.25 l -4.16,4.13 a 1.039447,1.039447 0 0 0 1.47,1.47 l 4.18,-4.19 v 2.26 a 1.04,1.04 0 1 0 2.08,0 V 24.7 c 0,0 0,0 0,-0.06 a 0.08,0.08 0 0 1 0,-0.04 z" style="fill:#fff"/><path id="path952" d="m 23.94,20.5 h 4.7 a 1.04,1.04 0 1 0 0,-2.08 h -2.25 l 4.17,-4.16 a 1,1 0 0 0 0,-1.47 1,1 0 0 0 -1.46,0 L 24.91,17 v -2.28 a 1.04,1.04 0 1 0 -2.08,0 v 4.64 a 0.43,0.43 0 0 0 0,0.05 v 0.05 a 1.09,1.09 0 0 0 1.11,1.04 z" style="fill:#fff"/><path id="path954" d="m 18.13,13.62 a 1.08,1.08 0 0 0 -1,1.09 V 17 l -4.18,-4.19 a 1,1 0 0 0 -1.47,0 1,1 0 0 0 0,1.46 l 4.16,4.17 h -2.29 a 1.04,1.04 0 1 0 0,2.08 h 4.71 a 1.09,1.09 0 0 0 1.11,-1 c 0,0 0,0 0,-0.06 v -4.75 a 1.07,1.07 0 0 0 -1.04,-1.09 z" style="fill:#fff"/></g></g></g><path id="path966" d="m 42.002605,28.773437 v -1.5875 a 1.5875,1.5875 0 0 1 1.5875,-1.5875 h 1.587499 3.96875 11.90625 1.5875 a 1.5875,1.5875 0 0 1 1.5875,1.5875 v 1.5875 h -1.5875 v -1.190625 h -1.5875 v 3.96875 h 1.5875 v -1.190625 h 1.5875 v 6.746875 h -1.5875 v -1.190625 h -1.5875 v 3.96875 h 1.5875 v -1.190625 h 1.5875 v 1.5875 a 1.5875,1.5875 0 0 1 -1.5875,1.5875 h -1.5875 -11.90625 -3.96875 -1.587499 a 1.5875,1.5875 0 0 1 -1.5875,-1.5875 v -1.5875 -8.334375 -0.396875 h -2.38125 v 1.190625 h -0.793751 v -3.175 h 0.793751 v 1.190625 h 2.38125 z" style="fill:#ff6ea1;fill-opacity:1;stroke:#ff2c76;stroke-width:.39687499;stroke-linecap:round;stroke-opacity:1"/><text id="text970" x="38.629" y="25.4" style="font-size:3.5718751px;font-family:sans-serif;text-anchor:end;fill:#282828;stroke-width:.39687499"><tspan style="stroke-width:.39687499" id="tspan968" x="60.06" y="34.528">➗</tspan></text><path id="path984" d="m 64.756776,25.598437 h 23.8125 v 7.9375 h -23.8125 v -3.175 -0.396875 h -2.38125 v 1.190625 h -0.793751 v -3.175 h 0.793751 v 1.190625 h 2.38125 v -0.396875 z" style="fill:#ff6ea1;fill-opacity:1;stroke:#ff2c76;stroke-width:.39687499;stroke-linecap:round;stroke-opacity:1"/><text id="text988" x="61.383" y="25.4" style="font-size:3.96875px;font-family:sans-serif;text-anchor:start;fill:#282828;stroke-width:.39687499"><tspan style="stroke-width:.39687499" id="tspan986" x="66.543" y="30.956">1</tspan></text><path id="path994" d="m 64.756776,34.065107 h 23.8125 v 7.9375 h -23.8125 v -3.175 -0.396875 h -2.38125 v 1.190626 h -0.793751 v -3.175001 h 0.793751 v 1.190626 h 2.38125 v -0.396876 z" style="fill:#ff6ea1;fill-opacity:1;stroke:#ff2c76;stroke-width:.39687499;stroke-linecap:round;stroke-opacity:1"/><text id="text998" x="61.383" y="33.867" style="font-size:3.96875px;font-family:sans-serif;text-anchor:start;fill:#282828;stroke-width:.39687499"><tspan style="stroke-width:.39687499" id="tspan996" x="66.543" y="39.423">4</tspan></text><path id="path1004" d="m 7.6067705,37.240107 v -1.587499 a 1.5875,1.5875 0 0 1 1.5875,-1.587501 h 1.5875005 v 0.79375 h 3.96875 v -0.79375 h 7.937499 1.5875 a 1.5875,1.5875 0 0 1 1.5875,1.587501 v 1.587499 1.5875 1.5875 a 1.5875,1.5875 0 0 1 -1.5875,1.5875 h -1.5875 -7.937499 -0.396876 v 0.79375 h -3.174999 v -0.79375 H 10.781771 9.1942705 a 1.5875,1.5875 0 0 1 -1.5875,-1.5875 v -1.5875 z" style="fill:#c4c4c4;fill-opacity:1;stroke:#a0a0a0;stroke-width:.39687499;stroke-linecap:round;stroke-opacity:1"/><text id="text1008" x="7.408" y="33.867" style="font-size:3.96875px;font-family:sans-serif;text-anchor:end;fill:#282828;stroke-width:.39687499"><tspan style="stroke-width:.39687499" id="tspan1006" x="21.696" y="39.423">↓</tspan></text><path id="path1014" d="m 7.6067705,45.706777 v -1.587499 c -6e-7,-0.876752 0.7107476,-1.587501 1.5875,-1.587501 h 1.5875005 v 0.79375 h 3.96875 v -0.79375 h 18.256249 1.5875 c 0.876752,0 1.864753,0.755741 1.5875,1.587501 v 1.587499 h -1.5875 v -1.190625 h -1.5875 v 3.96875 h 1.5875 v -1.190625 h 1.5875 v 6.746875 h -1.5875 v -1.190625 h -1.5875 v 3.96875 h 1.5875 v -1.190625 h 1.5875 v 1.5875 c 0,0.876752 -0.710748,1.5875 -1.5875,1.5875 h -1.5875 -18.256249 -0.396876 v 0.79375 h -3.174999 v -0.79375 H 10.781771 9.1942705 c -0.876752,0 -1.5875,-0.710748 -1.5875,-1.5875 v -1.5875 -8.334375 z" style="fill:#7cd622;fill-opacity:1;stroke:#57ad02;stroke-width:.39687499;stroke-linecap:round;stroke-opacity:1"/><text id="text1018" x="13.758" y="42.333" style="font-size:3.96875px;font-family:sans-serif;text-anchor:end;fill:#282828;stroke-width:.39687499"><tspan style="stroke-width:.39687499" id="tspan1016" x="32.015" y="51.858">音の高さ</tspan></text><text id="text1022" x="13.758" y="42.333" style="font-size:2.64583325px;font-family:sans-serif;text-anchor:end;fill:#282828;stroke-width:.39687499"><tspan style="stroke-width:.39687499" id="tspan1020" x="32.015" y="47.096">名前</tspan></text><text id="text1026" x="13.758" y="42.333" style="font-size:2.64583325px;font-family:sans-serif;text-anchor:end;fill:#282828;stroke-width:.39687499"><tspan style="stroke-width:.39687499" id="tspan1024" x="32.015" y="55.43">オクターヴの高さ</tspan></text><path id="path1032" d="m 36.710941,42.531777 h 23.8125 v 7.9375 h -23.8125 v -3.175 -0.396875 h -2.38125 v 1.190625 h -0.793749 v -3.175 h 0.793749 v 1.190626 h 2.38125 v -0.396876 z" style="fill:#7cd622;fill-opacity:1;stroke:#57ad02;stroke-width:.39687499;stroke-linecap:round;stroke-opacity:1"/><text id="text1036" x="33.338" y="42.333" style="font-size:3.96875px;font-family:sans-serif;text-anchor:start;fill:#282828;stroke-width:.39687499"><tspan style="stroke-width:.39687499" id="tspan1034" x="38.497" y="47.89">ソ</tspan></text><path id="path1042" d="m 36.710941,50.998447 h 23.8125 v 7.9375 h -23.8125 v -3.175 -0.396875 h -2.38125 v 1.190626 h -0.793749 v -3.175001 h 0.793749 v 1.190626 h 2.38125 v -0.396875 z" style="fill:#ff6ea1;fill-opacity:1;stroke:#ff2c76;stroke-width:.39687499;stroke-linecap:round;stroke-opacity:1"/><text id="text1046" x="33.338" y="50.8" style="font-size:3.96875px;font-family:sans-serif;text-anchor:start;fill:#282828;stroke-width:.39687499"><tspan style="stroke-width:.39687499" id="tspan1044" x="38.497" y="56.356">4</tspan></text></svg>