<svg xmlns="http://www.w3.org/2000/svg" xmlns:svg="http://www.w3.org/2000/svg" id="svg28" width="336.5" height="71.333" version="1.1"><metadata id="metadata34"/><rect style="fill:none;stroke:none" id="backgroundrect" width="100%" height="100%" x="10.333" y="0"/><g id="g26" class="currentLayer" transform="translate(10.333335)"><title id="title3">Layer 1</title><g id="g24"><g id="svg_85"><g id="svg_86" transform="matrix(1.5,0,0,1.5,423,447)"><path id="svg_87" d="m -288.38889,-287.5 v -4 c 0,-2.20914 1.79086,-4 4,-4 h 4 v 2 h 10 v -2 h 86 4 c 2.20914,0 4,1.79086 4,4 v 4 h -4 v -3 h -4 v 10 h 4 v -3 h 4 v 17 h -4 v -3 h -4 v 10 h 4 v -3 h 4 v 4 c 0,2.20914 -1.79086,4 -4,4 h -4 -86 -1 v 2 h -8 v -2 h -1 -4 c -2.20914,0 -4,-1.79086 -4,-4 v -4 -21 z" style="fill:#25c3c0;fill-opacity:1;stroke:#1dbcbd;stroke-width:1;stroke-linecap:round;stroke-opacity:1"/><text id="svg_88" x="-280.889" y="-296" style="font-size:10px;font-family:sans-serif;text-anchor:end;fill:#282828"><tspan id="svg_89" x="-186.889" y="-272">楽器の音量をせってい</tspan></text><text id="svg_90" x="-280.889" y="-296" style="font-size:6.66666651px;font-family:sans-serif;text-anchor:end;fill:#282828"><tspan id="svg_91" x="-186.889" y="-284">楽器</tspan></text><text id="svg_92" x="-280.889" y="-296" style="font-size:6.66666651px;font-family:sans-serif;text-anchor:end;fill:#282828"><tspan id="svg_93" x="-186.889" y="-263">音量</tspan></text></g></g><g id="svg_94"><g id="svg_95" transform="matrix(1.5,0,0,1.5,569,447)"><path id="svg_96" d="m -272.38889,-295.5 h 110 v 20 h -110 v -8 -1 h -6 v 3 h -2 v -8 h 2 v 3 h 6 v -1 z" style="fill:#25c3c0;fill-opacity:1;stroke:#1dbcbd;stroke-width:1;stroke-linecap:round;stroke-opacity:1"/><text id="svg_97" x="-280.889" y="-296" style="font-size:10px;font-family:sans-serif;text-anchor:start;fill:#282828"><tspan id="svg_98" x="-267.889" y="-282">ギター</tspan></text></g></g><g id="svg_99"><g id="svg_100" transform="matrix(1.5,0,0,1.5,569,479)"><path id="svg_101" d="m -272.38889,-295.5 h 60 v 20 h -60 v -8 -1 h -6 v 3 h -2 v -8 h 2 v 3 h 6 v -1 z" style="fill:#ff5293;fill-opacity:1;stroke:#ff2c76;stroke-width:1;stroke-linecap:round;stroke-opacity:1"/><text id="svg_102" x="-280.889" y="-296" style="font-size:10px;font-family:sans-serif;text-anchor:start;fill:#282828"><tspan id="svg_103" x="-267.889" y="-282">50</tspan></text></g></g></g></g></svg>