<svg xmlns="http://www.w3.org/2000/svg" xmlns:svg="http://www.w3.org/2000/svg" id="svg1815" width="365.5" height="786.343" version="1.1"><metadata id="metadata1821"/><rect style="fill:none;stroke:none" id="backgroundrect" width="323" height="784" x="0" y="1.172"/><g id="svg_17" transform="matrix(1.5,0,0,1.5,239,170.17153)"><path style="fill:#77c428;fill-opacity:1;stroke:#57ad02;stroke-width:1;stroke-linecap:round;stroke-opacity:1" id="svg_18" d="m -158.83333,-98.666664 0,-3.999996 a 4,4 90 0 1 4,-4 l 4,0 5,-6 5,6 9,0 69.000002,0 4,0 a 4,4 90 0 1 4,4 l 0,3.999996 0,4 0,4 a 4,4 90 0 1 -4,4 l -4,0 -69.000002,0 -1,0 0,2 -8,0 0,-2 -1,0 -4,0 a 5,5 90 0 0 -5,5 l 0,4 0,4 0,147 0,4 a 5,5 90 0 0 5,5 l 4,0 0,2 10,0 0,-2 8,0 0,6 0,6 0,4 a 4,4 90 0 1 -4,4.000004 l -4,0 -9,0 -5,6 -5,-6 -4,0 a 4,4 90 0 1 -4,-4.000004 l 0,-4 z"/><text style="font-size:10px;font-family:sans-serif;text-anchor:start;fill:#282828" id="svg_19" x="-159.333" y="-113.167"><tspan id="svg_20" x="-139.333" y="-91.167">フレーズメーカー</tspan></text></g><g style="isolation:isolate" id="svg_22" transform="matrix(0.5,0,0,0.5,239,182.17153)"><g id="レイヤー_2" data-name="レイヤー 2"><g id="Icon"><rect style="opacity:.4;mix-blend-mode:multiply;fill:#292929" id="svg_23" width="42" height="42" x="-478" y="-339.5" rx="5" ry="5"/><path style="fill:#fff" id="svg_24" d="m -447.44,-309.7 -4.17,-4.16 2.26,0 a 1.035,1.035 0 1 0 0,-2.07 l -4.71,0 a 1.08,1.08 0 0 0 -1.11,1 l 0,0 c 0,0 0,0 0,0.06 l 0,4.64 0,0 a 1.04,1.04 0 1 0 2.08,0 l 0,-2.19 4.19,4.19 a 1,1 0 0 0 1.46,0 1,1 0 0 0 0,-1.47 z"/><path style="fill:#fff" id="svg_25" d="m -458.83,-314.9 a 1.08,1.08 0 0 0 -1.11,-1 l -4.71,0 a 1.035,1.035 0 1 0 0,2.07 l 2.25,0 -4.16,4.13 a 1.039447,1.039447 0 0 0 1.47,1.47 l 4.18,-4.19 0,2.26 a 1.04,1.04 0 1 0 2.08,0 l 0,-4.64 c 0,0 0,0 0,-0.06 a 0.08,0.08 0 0 1 0,-0.04 z"/><path style="fill:#fff" id="svg_26" d="m -454.06,-319 4.7,0 a 1.04,1.04 0 1 0 0,-2.08 l -2.25,0 4.17,-4.16 a 1,1 0 0 0 0,-1.47 1,1 0 0 0 -1.46,0 l -4.19,4.21 0,-2.28 a 1.04,1.04 0 1 0 -2.08,0 l 0,4.64 a 0.43000001,0.43000001 0 0 0 0,0.05 l 0,0.05 a 1.09,1.09 0 0 0 1.11,1.04 z"/><path style="fill:#fff" id="svg_27" d="m -459.87,-325.88 a 1.08,1.08 0 0 0 -1,1.09 l 0,2.29 -4.18,-4.19 a 1,1 0 0 0 -1.47,0 1,1 0 0 0 0,1.46 l 4.16,4.17 -2.29,0 a 1.04,1.04 0 1 0 0,2.08 l 4.71,0 a 1.09,1.09 0 0 0 1.11,-1 c 0,0 0,0 0,-0.06 l 0,-4.75 a 1.0700001,1.0700001 0 0 0 -1.04,-1.09 z"/></g></g></g><path style="fill:#77c428;fill-opacity:1;stroke:#57ad02;stroke-width:1.5;stroke-linecap:round;stroke-opacity:1" id="svg_30" d="m 14.750005,54.171537 0,-6 c 0,-3.313708 2.686292,-6 6,-6 l 6,0 0,3 15,0 0,-3 69.000005,0 6,0 c 3.3137,0 6,2.686292 6,6 l 0,6 -6,0 0,-4.5 -6,0 0,14.999994 6,0 0,-4.499994 6,0 0,25.499994 -6,0 0,-4.5 -6,0 0,15 6,0 0,-4.5 6,0 0,6 c 0,3.313709 -2.6863,5.999999 -6,5.999999 l -6,0 -69.000005,0 -1.5,0 0,3 -12,0 0,-3 -1.5,0 -6,0 c -3.313707,0 -5.999998,-2.68629 -6,-5.999999 l 0,-6 0,-31.499994 z"/><text style="font-size:15px;font-family:sans-serif;text-anchor:end;fill:#282828;stroke-width:1.5" id="svg_31" x="38" y="41.422"><tspan id="svg_32" x="107" y="77.422" style="stroke-width:1.5">音の高さ</tspan></text><text style="font-size:10px;font-family:sans-serif;text-anchor:end;fill:#282828;stroke-width:1.5" id="svg_33" x="38" y="41.422"><tspan id="svg_34" x="107" y="59.422" style="stroke-width:1.5">名前</tspan></text><text style="font-size:10px;font-family:sans-serif;text-anchor:end;fill:#282828;stroke-width:1.5" id="svg_35" x="38" y="41.422"><tspan id="svg_36" x="107" y="90.922" style="stroke-width:1.5">オクターヴの高さ</tspan></text><path style="fill:#77c428;fill-opacity:1;stroke:#57ad02;stroke-width:1.5;stroke-linecap:round;stroke-opacity:1" id="svg_39" d="m 124.75001,42.171537 90,0 0,29.999994 -90,0 0,-11.999994 0,-1.5 -9,0 0,4.499994 -3,0 0,-11.999994 3,0 0,4.5 9,0 0,-1.5 z"/><text style="font-size:15px;font-family:sans-serif;text-anchor:start;fill:#282828;stroke-width:1.5" id="svg_40" x="112" y="41.422"><tspan id="svg_41" x="131.5" y="62.422" style="stroke-width:1.5">ソ</tspan></text><path style="fill:#ff5293;fill-opacity:1;stroke:#ff2c76;stroke-width:1.5;stroke-linecap:round;stroke-opacity:1" id="svg_44" d="m 124.75001,74.171537 90,0 0,29.999993 -90,0 0,-11.999993 0,-1.5 -9,0 0,4.499994 -3,0 0,-11.999994 3,0 0,4.5 9,0 0,-1.5 z"/><text style="font-size:15px;font-family:sans-serif;text-anchor:start;fill:#282828;stroke-width:1.5" id="svg_45" x="112" y="73.422"><tspan id="svg_46" x="131.5" y="94.422" style="stroke-width:1.5">4</tspan></text><path style="fill:#77c428;fill-opacity:1;stroke:#57ad02;stroke-width:1.5;stroke-linecap:round;stroke-opacity:1" id="svg_49" d="m 14.750005,117.17154 0,-6 c 0,-3.31371 2.686292,-6 6,-6 l 6,0 0,3 15,0 0,-3 69.000005,0 6,0 c 3.3137,0 6,2.68629 6,6 l 0,6 -6,0 0,-4.5 -6,0 0,14.99999 6,0 0,-4.49999 6,0 0,25.49999 -6,0 0,-4.5 -6,0 0,15 6,0 0,-4.5 6,0 0,6 c 0,3.31371 -2.6863,6 -6,6 l -6,0 -69.000005,0 -1.5,0 0,3 -12,0 0,-3 -1.5,0 -6,0 c -3.313708,0 -6,-2.68629 -6,-6 l 0,-6 0,-31.49999 z"/><text style="font-size:15px;font-family:sans-serif;text-anchor:end;fill:#282828;stroke-width:1.5" id="svg_50" x="38" y="104.422"><tspan id="svg_51" x="107" y="140.422" style="stroke-width:1.5">音の高さ</tspan></text><text style="font-size:10px;font-family:sans-serif;text-anchor:end;fill:#282828;stroke-width:1.5" id="svg_52" x="38" y="104.422"><tspan id="svg_53" x="107" y="122.422" style="stroke-width:1.5">名前</tspan></text><text style="font-size:10px;font-family:sans-serif;text-anchor:end;fill:#282828;stroke-width:1.5" id="svg_54" x="38" y="104.422"><tspan id="svg_55" x="107" y="153.922" style="stroke-width:1.5">オクターヴの高さ</tspan></text><path style="fill:#77c428;fill-opacity:1;stroke:#57ad02;stroke-width:1.5;stroke-linecap:round;stroke-opacity:1" id="svg_58" d="m 124.75001,105.17154 90,0 0,29.99999 -90,0 0,-11.99999 0,-1.5 -9,0 0,4.49999 -3,0 0,-11.99999 3,0 0,4.5 9,0 0,-1.5 z"/><text style="font-size:15px;font-family:sans-serif;text-anchor:start;fill:#282828;stroke-width:1.5" id="svg_59" x="112" y="104.422"><tspan id="svg_60" x="131.5" y="125.422" style="stroke-width:1.5">ミ</tspan></text><path style="fill:#ff5293;fill-opacity:1;stroke:#ff2c76;stroke-width:1.5;stroke-linecap:round;stroke-opacity:1" id="svg_63" d="m 124.75001,137.17154 90,0 0,29.99999 -90,0 0,-11.99999 0,-1.5 -9,0 0,4.49999 -3,0 0,-11.99999 3,0 0,4.5 9,0 0,-1.5 z"/><text style="font-size:15px;font-family:sans-serif;text-anchor:start;fill:#282828;stroke-width:1.5" id="svg_64" x="112" y="136.422"><tspan id="svg_65" x="131.5" y="157.422" style="stroke-width:1.5">4</tspan></text><path style="fill:#77c428;fill-opacity:1;stroke:#57ad02;stroke-width:1.5;stroke-linecap:round;stroke-opacity:1" id="svg_68" d="m 14.750005,180.17154 0,-6 c 0,-3.31371 2.686292,-6 6,-6 l 6,0 0,3 15,0 0,-3 69.000005,0 6,0 c 3.3137,0 7.04788,2.85634 6,6 l 0,6 -6,0 0,-4.5 -6,0 0,14.99999 6,0 0,-4.49999 6,0 0,25.49999 -6,0 0,-4.5 -6,0 0,15 6,0 0,-4.5 6,0 0,6 c 0,3.31371 -2.6863,6 -6,6 l -6,0 -69.000005,0 -1.5,0 0,3 -12,0 0,-3 -1.5,0 -6,0 c -3.313708,0 -6,-2.68629 -6,-6 l 0,-6 0,-31.49999 z"/><text style="font-size:15px;font-family:sans-serif;text-anchor:end;fill:#282828;stroke-width:1.5" id="svg_69" x="38" y="167.422"><tspan id="svg_70" x="107" y="203.422" style="stroke-width:1.5">音の高さ</tspan></text><text style="font-size:10px;font-family:sans-serif;text-anchor:end;fill:#282828;stroke-width:1.5" id="svg_71" x="38" y="167.422"><tspan id="svg_72" x="107" y="185.422" style="stroke-width:1.5">名前</tspan></text><text style="font-size:10px;font-family:sans-serif;text-anchor:end;fill:#282828;stroke-width:1.5" id="svg_73" x="38" y="167.422"><tspan id="svg_74" x="107" y="216.922" style="stroke-width:1.5">オクターヴの高さ</tspan></text><path style="fill:#77c428;fill-opacity:1;stroke:#57ad02;stroke-width:1.5;stroke-linecap:round;stroke-opacity:1" id="svg_77" d="m 124.75001,168.17154 90,0 0,29.99999 -90,0 0,-11.99999 0,-1.5 -9,0 0,4.49999 -3,0 0,-11.99999 3,0 0,4.5 9,0 0,-1.5 z"/><text style="font-size:15px;font-family:sans-serif;text-anchor:start;fill:#282828;stroke-width:1.5" id="svg_78" x="112" y="167.422"><tspan id="svg_79" x="131.5" y="188.422" style="stroke-width:1.5">レ</tspan></text><path style="fill:#ff5293;fill-opacity:1;stroke:#ff2c76;stroke-width:1.5;stroke-linecap:round;stroke-opacity:1" id="svg_82" d="m 124.75001,200.17154 90,0 0,29.99999 -90,0 0,-11.99999 0,-1.5 -9,0 0,4.49999 -3,0 0,-11.99999 3,0 0,4.5 9,0 0,-1.5 z"/><text style="font-size:15px;font-family:sans-serif;text-anchor:start;fill:#282828;stroke-width:1.5" id="svg_83" x="112" y="199.422"><tspan id="svg_84" x="131.5" y="220.422" style="stroke-width:1.5">4</tspan></text><path style="fill:#ff8b2d;fill-opacity:1;stroke:#e86b0e;stroke-width:1.5;stroke-linecap:round;stroke-opacity:1" id="svg_87" d="m 14.750005,243.17154 0,-6 a 6,6 0 0 1 6,-6 l 6,0 0,3 15,0 0,-3 91.500005,0 6,0 a 6,6 0 0 1 6,6 l 0,6 -6,0 0,-4.5 -6,0 0,14.99999 6,0 0,-4.49999 6,0 0,25.49999 -6,0 0,-4.5 -6,0 0,15 6,0 0,-4.5 6,0 0,6 a 6,6 0 0 1 -6,6 l -6,0 -91.500005,0 -1.5,0 0,3 -12,0 0,-3 -1.5,0 -6,0 a 6,6 0 0 1 -6,-6 l 0,-6 0,-31.49999 z"/><text style="font-size:15px;font-family:sans-serif;text-anchor:end;fill:#282828;stroke-width:1.5" id="svg_88" x="14" y="230.422"><tspan id="svg_89" x="129.5" y="266.422" style="stroke-width:1.5">連符（わり算）</tspan></text><text style="font-size:10px;font-family:sans-serif;text-anchor:end;fill:#282828;stroke-width:1.5" id="svg_90" x="14" y="230.422"><tspan id="svg_91" x="129.5" y="248.422" style="stroke-width:1.5">音符の数</tspan></text><text style="font-size:10px;font-family:sans-serif;text-anchor:end;fill:#282828;stroke-width:1.5" id="svg_92" x="14" y="230.422"><tspan id="svg_93" x="129.5" y="279.922" style="stroke-width:1.5">音の長さ</tspan></text><path style="fill:#ff5293;fill-opacity:1;stroke:#ff2c76;stroke-width:1.5;stroke-linecap:round;stroke-opacity:1" id="svg_96" d="m 146.75001,231.17154 90,0 0,29.99999 -90,0 0,-11.99999 0,-1.5 -9,0 0,4.49999 -3,0 0,-11.99999 3,0 0,4.5 9,0 0,-1.5 z"/><text style="font-size:15px;font-family:sans-serif;text-anchor:start;fill:#282828;stroke-width:1.5" id="svg_97" x="134" y="230.422"><tspan id="svg_98" x="153.5" y="251.422" style="stroke-width:1.5">3</tspan></text><path style="fill:#ff5293;fill-opacity:1;stroke:#ff2c76;stroke-width:1.5;stroke-linecap:round;stroke-opacity:1" id="svg_101" d="m 146.75001,275.17154 0,-6 a 6,6 0 0 1 6,-6 l 6,0 15,0 45,0 6,0 a 6,6 0 0 1 6,6 l 0,6 -6,0 0,-4.5 -6,0 0,14.99999 6,0 0,-4.49999 6,0 0,25.49999 -6,0 0,-4.5 -6,0 0,15 6,0 0,-4.5 6,0 0,6 a 6,6 0 0 1 -6,6 l -6,0 -45,0 -15,0 -6,0 a 6,6 0 0 1 -6,-6 l 0,-6 0,-31.49999 0,-1.5 -9,0 0,4.49999 -3,0 0,-11.99999 3,0 0,4.5 9,0 z"/><text style="font-size:13.5px;font-family:sans-serif;text-anchor:end;fill:#282828;stroke-width:1.5" id="svg_102" x="134" y="262.422"><tspan id="svg_103" x="215" y="296.922" style="stroke-width:1.5">➗</tspan></text><path style="fill:#ff5293;fill-opacity:1;stroke:#ff2c76;stroke-width:1.5;stroke-linecap:round;stroke-opacity:1" id="svg_110" d="m 232.75001,263.17154 90,0 0,29.99999 -90,0 0,-11.99999 0,-1.5 -9,0 0,4.49999 -3,0 0,-11.99999 3,0 0,4.5 9,0 0,-1.5 z"/><text style="font-size:15px;font-family:sans-serif;text-anchor:start;fill:#282828;stroke-width:1.5" id="svg_111" x="220" y="262.422"><tspan id="svg_112" x="239.5" y="283.422" style="stroke-width:1.5">1</tspan></text><path style="fill:#ff5293;fill-opacity:1;stroke:#ff2c76;stroke-width:1.5;stroke-linecap:round;stroke-opacity:1" id="svg_115" d="m 232.75001,295.17154 90,0 0,29.99999 -90,0 0,-11.99999 0,-1.5 -9,0 0,4.49999 -3,0 0,-11.99999 3,0 0,4.5 9,0 0,-1.5 z"/><text style="font-size:15px;font-family:sans-serif;text-anchor:start;fill:#282828;stroke-width:1.5" id="svg_116" x="220" y="294.422"><tspan id="svg_117" x="239.5" y="315.422" style="stroke-width:1.5">4</tspan></text><g id="svg_120" transform="matrix(1.5,0,0,1.5,239,528.17153)"><path style="fill:#77c428;fill-opacity:1;stroke:#57ad02;stroke-width:1;stroke-linecap:round;stroke-opacity:1" id="svg_121" d="m -158.83333,-98.666664 0,-3.999996 a 4,4 90 0 1 4,-4 l 4,0 5,-6 5,6 9,0 69.000002,0 4,0 a 4,4 90 0 1 4,4 l 0,3.999996 0,4 0,4 a 4,4 90 0 1 -4,4 l -4,0 -69.000002,0 -1,0 0,2 -8,0 0,-2 -1,0 -4,0 a 5,5 90 0 0 -5,5 l 0,4 0,4 0,210.000004 0,4 a 5,5 90 0 0 5,5 l 4,0 0,2 10,0 0,-2 8,0 0,6 0,6 0,4 a 4,4 90 0 1 -4,4 l -4,0 -9,0 -5,6 -5,-6 -4,0 a 4,4 90 0 1 -4,-4 l 0,-4 z"/><text style="font-size:10px;font-family:sans-serif;text-anchor:start;fill:#282828" id="svg_122" x="-159.333" y="-113.167"><tspan id="svg_123" x="-139.333" y="-91.167">フレーズメーカー</tspan></text></g><g style="isolation:isolate" id="svg_125" transform="matrix(0.5,0,0,0.5,239,540.17153)"><g id="g1689" data-name="レイヤー 2"><g id="g1687"><rect style="opacity:.4;mix-blend-mode:multiply;fill:#292929" id="svg_126" width="42" height="42" x="-478" y="-339.5" rx="5" ry="5"/><path style="fill:#fff" id="svg_127" d="m -447.44,-309.7 -4.17,-4.16 2.26,0 a 1.035,1.035 0 1 0 0,-2.07 l -4.71,0 a 1.08,1.08 0 0 0 -1.11,1 l 0,0 c 0,0 0,0 0,0.06 l 0,4.64 0,0 a 1.04,1.04 0 1 0 2.08,0 l 0,-2.19 4.19,4.19 a 1,1 0 0 0 1.46,0 1,1 0 0 0 0,-1.47 z"/><path style="fill:#fff" id="svg_128" d="m -458.83,-314.9 a 1.08,1.08 0 0 0 -1.11,-1 l -4.71,0 a 1.035,1.035 0 1 0 0,2.07 l 2.25,0 -4.16,4.13 a 1.039447,1.039447 0 0 0 1.47,1.47 l 4.18,-4.19 0,2.26 a 1.04,1.04 0 1 0 2.08,0 l 0,-4.64 c 0,0 0,0 0,-0.06 a 0.08,0.08 0 0 1 0,-0.04 z"/><path style="fill:#fff" id="svg_129" d="m -454.06,-319 4.7,0 a 1.04,1.04 0 1 0 0,-2.08 l -2.25,0 4.17,-4.16 a 1,1 0 0 0 0,-1.47 1,1 0 0 0 -1.46,0 l -4.19,4.21 0,-2.28 a 1.04,1.04 0 1 0 -2.08,0 l 0,4.64 a 0.43000001,0.43000001 0 0 0 0,0.05 l 0,0.05 a 1.09,1.09 0 0 0 1.11,1.04 z"/><path style="fill:#fff" id="svg_130" d="m -459.87,-325.88 a 1.08,1.08 0 0 0 -1,1.09 l 0,2.29 -4.18,-4.19 a 1,1 0 0 0 -1.47,0 1,1 0 0 0 0,1.46 l 4.16,4.17 -2.29,0 a 1.04,1.04 0 1 0 0,2.08 l 4.71,0 a 1.09,1.09 0 0 0 1.11,-1 c 0,0 0,0 0,-0.06 l 0,-4.75 a 1.0700001,1.0700001 0 0 0 -1.04,-1.09 z"/></g></g></g><path style="fill:#77c428;fill-opacity:1;stroke:#57ad02;stroke-width:1.5;stroke-linecap:round;stroke-opacity:1" id="svg_133" d="m 14.750005,412.17154 0,-6 c 0,-3.31371 2.686292,-6 6,-6 l 6,0 0,3 15,0 0,-3 69.000005,0 6,0 c 3.3137,0 7.04788,2.85634 6,6 l 0,6 -6,0 0,-4.5 -6,0 0,14.99999 6,0 0,-4.49999 6,0 0,25.49999 -6,0 0,-4.5 -6,0 0,15 6,0 0,-4.5 6,0 0,6 c 0,3.31371 -2.6863,6 -6,6 l -6,0 -69.000005,0 -1.5,0 0,3 -12,0 0,-3 -1.5,0 -6,0 c -3.313708,0 -6,-2.68629 -6,-6 l 0,-6 0,-31.49999 z"/><text style="font-size:15px;font-family:sans-serif;text-anchor:end;fill:#282828;stroke-width:1.5" id="svg_134" x="38" y="399.422"><tspan id="svg_135" x="107" y="435.422" style="stroke-width:1.5">音の高さ</tspan></text><text style="font-size:10px;font-family:sans-serif;text-anchor:end;fill:#282828;stroke-width:1.5" id="svg_136" x="38" y="399.422"><tspan id="svg_137" x="107" y="417.422" style="stroke-width:1.5">名前</tspan></text><text style="font-size:10px;font-family:sans-serif;text-anchor:end;fill:#282828;stroke-width:1.5" id="svg_138" x="38" y="399.422"><tspan id="svg_139" x="107" y="448.922" style="stroke-width:1.5">オクターヴの高さ</tspan></text><path style="fill:#77c428;fill-opacity:1;stroke:#57ad02;stroke-width:1.5;stroke-linecap:round;stroke-opacity:1" id="svg_142" d="m 124.75001,400.17154 90,0 0,29.99999 -90,0 0,-11.99999 0,-1.5 -9,0 0,4.49999 -3,0 0,-11.99999 3,0 0,4.5 9,0 0,-1.5 z"/><text style="font-size:15px;font-family:sans-serif;text-anchor:start;fill:#282828;stroke-width:1.5" id="svg_143" x="112" y="399.422"><tspan id="svg_144" x="131.5" y="420.422" style="stroke-width:1.5">ソ</tspan></text><path style="fill:#ff5293;fill-opacity:1;stroke:#ff2c76;stroke-width:1.5;stroke-linecap:round;stroke-opacity:1" id="svg_147" d="m 124.75001,432.17154 90,0 0,29.99999 -90,0 0,-11.99999 0,-1.5 -9,0 0,4.49999 -3,0 0,-11.99999 3,0 0,4.5 9,0 0,-1.5 z"/><text style="font-size:15px;font-family:sans-serif;text-anchor:start;fill:#282828;stroke-width:1.5" id="svg_148" x="112" y="431.422"><tspan id="svg_149" x="131.5" y="452.422" style="stroke-width:1.5">4</tspan></text><path style="fill:#77c428;fill-opacity:1;stroke:#57ad02;stroke-width:1.5;stroke-linecap:round;stroke-opacity:1" id="svg_152" d="m 14.750005,475.17154 0,-6 c 0,-3.31371 2.686292,-6 6,-6 l 6,0 0,3 15,0 0,-3 69.000005,0 6,0 c 3.3137,0 7.04789,2.85634 6,6 l 0,6 -6,0 0,-4.5 -6,0 0,14.99999 6,0 0,-4.49999 6,0 0,25.49999 -6,0 0,-4.5 -6,0 0,15 6,0 0,-4.5 6,0 0,6 c 0,3.31371 -2.6863,6 -6,6 l -6,0 -69.000005,0 -1.5,0 0,3 -12,0 0,-3 -1.5,0 -6,0 c -3.313708,0 -6,-2.68629 -6,-6 l 0,-6 0,-31.49999 z"/><text style="font-size:15px;font-family:sans-serif;text-anchor:end;fill:#282828;stroke-width:1.5" id="svg_153" x="38" y="462.422"><tspan id="svg_154" x="107" y="498.422" style="stroke-width:1.5">音の高さ</tspan></text><text style="font-size:10px;font-family:sans-serif;text-anchor:end;fill:#282828;stroke-width:1.5" id="svg_155" x="38" y="462.422"><tspan id="svg_156" x="107" y="480.422" style="stroke-width:1.5">名前</tspan></text><text style="font-size:10px;font-family:sans-serif;text-anchor:end;fill:#282828;stroke-width:1.5" id="svg_157" x="38" y="462.422"><tspan id="svg_158" x="107" y="511.922" style="stroke-width:1.5">オクターヴの高さ</tspan></text><path style="fill:#77c428;fill-opacity:1;stroke:#57ad02;stroke-width:1.5;stroke-linecap:round;stroke-opacity:1" id="svg_161" d="m 124.75001,463.17154 90,0 0,29.99999 -90,0 0,-11.99999 0,-1.5 -9,0 0,4.49999 -3,0 0,-11.99999 3,0 0,4.5 9,0 0,-1.5 z"/><text style="font-size:15px;font-family:sans-serif;text-anchor:start;fill:#282828;stroke-width:1.5" id="svg_162" x="112" y="462.422"><tspan id="svg_163" x="131.5" y="483.422" style="stroke-width:1.5">ミ</tspan></text><path style="fill:#ff5293;fill-opacity:1;stroke:#ff2c76;stroke-width:1.5;stroke-linecap:round;stroke-opacity:1" id="svg_166" d="m 124.75001,495.17154 90,0 0,29.99999 -90,0 0,-11.99999 0,-1.5 -9,0 0,4.49999 -3,0 0,-11.99999 3,0 0,4.5 9,0 0,-1.5 z"/><text style="font-size:15px;font-family:sans-serif;text-anchor:start;fill:#282828;stroke-width:1.5" id="svg_167" x="112" y="494.422"><tspan id="svg_168" x="131.5" y="515.422" style="stroke-width:1.5">4</tspan></text><path style="fill:#77c428;fill-opacity:1;stroke:#57ad02;stroke-width:1.5;stroke-linecap:round;stroke-opacity:1" id="svg_171" d="m 14.750005,538.17154 0,-6 c 0,-3.31371 2.686292,-6 6,-6 l 6,0 0,3 15,0 0,-3 69.000005,0 6,0 c 3.3137,0 7.04788,2.85634 6,6 l 0,6 -6,0 0,-4.5 -6,0 0,14.99999 6,0 0,-4.49999 6,0 0,25.49999 -6,0 0,-4.5 -6,0 0,15 6,0 0,-4.5 6,0 0,6 c 0,3.31371 -2.6863,6 -6,6 l -6,0 -69.000005,0 -1.5,0 0,3 -12,0 0,-3 -1.5,0 -6,0 c -3.313708,0 -6,-2.68629 -6,-6 l 0,-6 0,-31.49999 z"/><text style="font-size:15px;font-family:sans-serif;text-anchor:end;fill:#282828;stroke-width:1.5" id="svg_172" x="38" y="525.422"><tspan id="svg_173" x="107" y="561.422" style="stroke-width:1.5">音の高さ</tspan></text><text style="font-size:10px;font-family:sans-serif;text-anchor:end;fill:#282828;stroke-width:1.5" id="svg_174" x="38" y="525.422"><tspan id="svg_175" x="107" y="543.422" style="stroke-width:1.5">名前</tspan></text><text style="font-size:10px;font-family:sans-serif;text-anchor:end;fill:#282828;stroke-width:1.5" id="svg_176" x="38" y="525.422"><tspan id="svg_177" x="107" y="574.922" style="stroke-width:1.5">オクターヴの高さ</tspan></text><path style="fill:#77c428;fill-opacity:1;stroke:#57ad02;stroke-width:1.5;stroke-linecap:round;stroke-opacity:1" id="svg_180" d="m 124.75001,526.17154 90,0 0,29.99999 -90,0 0,-11.99999 0,-1.5 -9,0 0,4.49999 -3,0 0,-11.99999 3,0 0,4.5 9,0 0,-1.5 z"/><text style="font-size:15px;font-family:sans-serif;text-anchor:start;fill:#282828;stroke-width:1.5" id="svg_181" x="112" y="525.422"><tspan id="svg_182" x="131.5" y="546.422" style="stroke-width:1.5">レ</tspan></text><path style="fill:#ff5293;fill-opacity:1;stroke:#ff2c76;stroke-width:1.5;stroke-linecap:round;stroke-opacity:1" id="svg_185" d="m 124.75001,558.17154 90,0 0,29.99999 -90,0 0,-11.99999 0,-1.5 -9,0 0,4.49999 -3,0 0,-11.99999 3,0 0,4.5 9,0 0,-1.5 z"/><text style="font-size:15px;font-family:sans-serif;text-anchor:start;fill:#282828;stroke-width:1.5" id="svg_186" x="112" y="557.422"><tspan id="svg_187" x="131.5" y="578.422" style="stroke-width:1.5">4</tspan></text><path style="fill:#ff8b2d;fill-opacity:1;stroke:#e86b0e;stroke-width:1.5;stroke-linecap:round;stroke-opacity:1" id="svg_190" d="m 14.750005,601.17154 0,-6 c 0,-3.31371 2.686292,-6 6,-6 l 6,0 0,3 15,0 0,-3 13.5,0 120.000005,0 6,0 c 3.31371,0 9.17396,5.04781 6,6 l 0,6 -6,0 0,-4.5 -6,0 0,14.99999 6,0 0,-4.49999 6,0 0,5.99999 c 0,3.31371 -2.68629,6 -6,6 l -6,0 -120.000005,0 -1.5,0 0,3 -12,0 0,-3 -1.5,0 -6,0 c -4.142136,0 -7.5,3.35786 -7.5,7.5 l 0,6 0,6 0,63 0,6 c 0,4.14214 3.357864,7.5 7.5,7.5 l 6,0 0,3 15,0 0,-3 12,0 0,9 0,9 0,6 c 0,3.31371 -2.686292,6 -6,6 l -6,0 -13.5,0 -1.5,0 0,3 -12,0 0,-3 -1.5,0 -6,0 c -3.313708,0 -6,-2.68629 -6,-6 l 0,-6 z"/><text style="font-size:15px;font-family:sans-serif;text-anchor:start;fill:#282828;stroke-width:1.5" id="svg_191" x="14" y="588.422"><tspan id="svg_192" x="21.5" y="610.922" style="stroke-width:1.5">連符（タプル）</tspan></text><text style="font-size:10px;font-family:sans-serif;text-anchor:end;fill:#282828;stroke-width:1.5" id="svg_193" x="72" y="588.422"><tspan id="svg_194" x="169.5" y="606.422" style="stroke-width:1.5">音の長さ</tspan></text><g id="g3497" transform="translate(60,1.1715275)"><path id="svg_197" d="m 128.75001,600.00001 0,-6 a 6,6 0 0 1 6,-6 l 6,0 15,0 45,0 6,0 a 6,6 0 0 1 6,6 l 0,6 -6,0 0,-4.5 -6,0 0,14.99999 6,0 0,-4.49999 6,0 0,25.49999 -6,0 0,-4.5 -6,0 0,15 6,0 0,-4.5 6,0 0,6 a 6,6 0 0 1 -6,6 l -6,0 -45,0 -15,0 -6,0 a 6,6 0 0 1 -6,-6 l 0,-6 0,-31.49999 0,-1.5 -9,0 0,4.49999 -3,0 0,-11.99999 3,0 0,4.5 9,0 z" style="fill:#ff5293;fill-opacity:1;stroke:#ff2c76;stroke-width:1.5;stroke-linecap:round;stroke-opacity:1"/><text id="svg_198" x="116" y="587.25" style="font-size:13.5px;font-family:sans-serif;text-anchor:end;fill:#282828;stroke-width:1.5"><tspan style="stroke-width:1.5" id="svg_199" x="197" y="621.75">➗</tspan></text><path id="svg_206" d="m 214.75001,588.00001 90,0 0,29.99999 -90,0 0,-11.99999 0,-1.5 -9,0 0,4.49999 -3,0 0,-11.99999 3,0 0,4.5 9,0 0,-1.5 z" style="fill:#ff5293;fill-opacity:1;stroke:#ff2c76;stroke-width:1.5;stroke-linecap:round;stroke-opacity:1"/><text id="svg_207" x="202" y="587.25" style="font-size:15px;font-family:sans-serif;text-anchor:start;fill:#282828;stroke-width:1.5"><tspan style="stroke-width:1.5" id="svg_208" x="221.5" y="608.25">1</tspan></text><path id="svg_211" d="m 214.75001,620.00001 90,0 0,29.99999 -90,0 0,-11.99999 0,-1.5 -9,0 0,4.49999 -3,0 0,-11.99999 3,0 0,4.5 9,0 0,-1.5 z" style="fill:#ff5293;fill-opacity:1;stroke:#ff2c76;stroke-width:1.5;stroke-linecap:round;stroke-opacity:1"/><text id="svg_212" x="202" y="619.25" style="font-size:15px;font-family:sans-serif;text-anchor:start;fill:#282828;stroke-width:1.5"><tspan style="stroke-width:1.5" id="svg_213" x="221.5" y="640.25">4</tspan></text></g><path style="fill:#b0b0b0;fill-opacity:1;stroke:#a0a0a0;stroke-width:1.5;stroke-linecap:round;stroke-opacity:1" id="svg_216" d="m 28.750005,633.17154 0,-6 a 6,6 0 0 1 6,-6 l 6,0 0,3 15,0 0,-3 30,0 6,0 a 6,6 0 0 1 6,6 l 0,6 0,6 0,5.99999 a 6,6 0 0 1 -6,6 l -6,0 -30,0 -1.5,0 0,3 -12,0 0,-3 -1.5,0 -6,0 a 6,6 0 0 1 -6,-6 l 0,-5.99999 z"/><text style="font-size:15px;font-family:sans-serif;text-anchor:end;fill:#282828;stroke-width:1.5" id="svg_217" x="28" y="620.422"><tspan id="svg_218" x="82" y="641.422" style="stroke-width:1.5">↓</tspan></text><path style="fill:#ff8b2d;fill-opacity:1;stroke:#e86b0e;stroke-width:1.5;stroke-linecap:round;stroke-opacity:1" id="svg_221" d="m 28.750005,665.17154 0,-6 a 6,6 0 0 1 6,-6 l 6,0 0,3 15,0 0,-3 63.000005,0 6,0 a 6,6 0 0 1 6,6 l 0,6 -6,0 0,-4.5 -6,0 0,14.99999 6,0 0,-4.49999 6,0 0,25.49999 -6,0 0,-4.5 -6,0 0,15 6,0 0,-4.5 6,0 0,6 a 6,6 0 0 1 -6,6 l -6,0 -63.000005,0 -1.5,0 0,3 -12,0 0,-3 -1.5,0 -6,0 a 6,6 0 0 1 -6,-6 l 0,-6 0,-31.49999 z"/><text style="font-size:15px;font-family:sans-serif;text-anchor:end;fill:#282828;stroke-width:1.5" id="svg_222" x="28" y="652.422"><tspan id="svg_223" x="115" y="688.422" style="stroke-width:1.5">音符</tspan></text><text style="font-size:10px;font-family:sans-serif;text-anchor:end;fill:#282828;stroke-width:1.5" id="svg_224" x="28" y="652.422"><tspan id="svg_225" x="115" y="670.422" style="stroke-width:1.5">音符の数</tspan></text><text style="font-size:10px;font-family:sans-serif;text-anchor:end;fill:#282828;stroke-width:1.5" id="svg_226" x="28" y="652.422"><tspan id="svg_227" x="115" y="701.922" style="stroke-width:1.5">音の長さ</tspan></text><path style="fill:#ff5293;fill-opacity:1;stroke:#ff2c76;stroke-width:1.5;stroke-linecap:round;stroke-opacity:1" id="svg_230" d="m 132.75001,653.17154 90,0 0,29.99999 -90,0 0,-11.99999 0,-1.5 -9,0 0,4.49999 -3,0 0,-11.99999 3,0 0,4.5 9,0 0,-1.5 z"/><text style="font-size:15px;font-family:sans-serif;text-anchor:start;fill:#282828;stroke-width:1.5" id="svg_231" x="120" y="652.422"><tspan id="svg_232" x="139.5" y="673.422" style="stroke-width:1.5">3</tspan></text><path style="fill:#ff5293;fill-opacity:1;stroke:#ff2c76;stroke-width:1.5;stroke-linecap:round;stroke-opacity:1" id="svg_235" d="m 132.75001,697.17154 0,-6 a 6,6 0 0 1 6,-6 l 6,0 15,0 45,0 6,0 a 6,6 0 0 1 6,6 l 0,6 -6,0 0,-4.5 -6,0 0,14.99999 6,0 0,-4.49999 6,0 0,25.49999 -6,0 0,-4.5 -6,0 0,15 6,0 0,-4.5 6,0 0,6 a 6,6 0 0 1 -6,6 l -6,0 -45,0 -15,0 -6,0 a 6,6 0 0 1 -6,-6 l 0,-6 0,-31.49999 0,-1.5 -9,0 0,4.49999 -3,0 0,-11.99999 3,0 0,4.5 9,0 z"/><text style="font-size:13.5px;font-family:sans-serif;text-anchor:end;fill:#282828;stroke-width:1.5" id="svg_236" x="120" y="684.422"><tspan id="svg_237" x="201" y="718.922" style="stroke-width:1.5">➗</tspan></text><path style="fill:#ff5293;fill-opacity:1;stroke:#ff2c76;stroke-width:1.5;stroke-linecap:round;stroke-opacity:1" id="svg_244" d="m 218.75001,685.17154 90,0 0,29.99999 -90,0 0,-11.99999 0,-1.5 -9,0 0,4.49999 -3,0 0,-11.99999 3,0 0,4.5 9,0 0,-1.5 z"/><text style="font-size:15px;font-family:sans-serif;text-anchor:start;fill:#282828;stroke-width:1.5" id="svg_245" x="206" y="684.422"><tspan id="svg_246" x="225.5" y="705.422" style="stroke-width:1.5">1</tspan></text><path style="fill:#ff5293;fill-opacity:1;stroke:#ff2c76;stroke-width:1.5;stroke-linecap:round;stroke-opacity:1" id="svg_249" d="m 218.75001,717.17154 90,0 0,29.99999 -90,0 0,-11.99999 0,-1.5 -9,0 0,4.49999 -3,0 0,-11.99999 3,0 0,4.5 9,0 0,-1.5 z"/><text style="font-size:15px;font-family:sans-serif;text-anchor:start;fill:#282828;stroke-width:1.5" id="svg_250" x="206" y="716.422"><tspan id="svg_251" x="225.5" y="737.422" style="stroke-width:1.5">16</tspan></text></svg>