<svg xmlns="http://www.w3.org/2000/svg" xmlns:svg="http://www.w3.org/2000/svg" id="svg11666" width="334.5" height="255" version="1.1" viewBox="0 0 88.503 67.469"><metadata id="metadata11663"/><g id="g2272" transform="matrix(0.26458333,0,0,0.26458333,-4.08e-6,1.6994791e-6)"><g id="g2270" transform="scale(1.5)"><path id="path2260" d="m 0.5,8.5 v -4 a 4,4 90 0 1 4,-4 h 4 v 2 h 10 v -2 h 9 20 4 a 4,4 90 0 1 4,4 v 4 h -4 v -3 h -4 v 10 h 4 v -3 h 4 v 4 a 4,4 90 0 1 -4,4 h -4 -20 -1 v 2 h -8 v -2 h -1 -4 a 5,5 90 0 0 -5,5 v 4 4 105 4 a 5,5 90 0 0 5,5 h 4 v 2 h 10 v -2 h 8 v 6 6 4 a 4,4 90 0 1 -4,4 h -4 -9 -1 v 2 h -8 v -2 h -1 -4 a 4,4 90 0 1 -4,-4 v -4 z" style="fill:#25c3c0;fill-opacity:1;stroke:#1dbcbd;stroke-width:1;stroke-linecap:round;stroke-opacity:1"/><text id="text2264" style="font-size:10px;font-family:sans-serif;text-anchor:start;fill:#282828"><tspan id="tspan2262" x="5" y="15">スラー</tspan></text></g></g><g id="g2290" transform="matrix(0.26458333,0,0,0.26458333,19.049996,1.6994791e-6)"><g id="g2288" transform="scale(1.5)"><path id="path2274" d="m 8.5,8.5 v -4 a 4,4 90 0 1 4,-4 h 4 10 30 4 a 4,4 90 0 1 4,4 v 4 h -4 v -3 h -4 v 10 h 4 v -3 h 4 v 17 h -4 v -3 h -4 v 10 h 4 v -3 h 4 v 4 a 4,4 90 0 1 -4,4 h -4 -30 -10 -4 a 4,4 90 0 1 -4,-4 v -4 -21 -1 h -6 v 3 h -2 v -8 h 2 v 3 h 6 z" style="fill:#ff5293;fill-opacity:1;stroke:#ff2c76;stroke-width:1;stroke-linecap:round;stroke-opacity:1"/><text id="text2278" style="font-size:9px;font-family:sans-serif;text-anchor:end;fill:#282828"><tspan id="tspan2276" x="54" y="23">➗</tspan></text></g></g><g id="g2300" transform="matrix(0.26458333,0,0,0.26458333,41.67187,1.6994791e-6)"><g id="g2298" transform="scale(1.5)"><path id="path2292" d="m 8.5,0.5 h 60 v 20 h -60 v -8 -1 h -6 v 3 h -2 v -8 h 2 v 3 h 6 v -1 z" style="fill:#ff5293;fill-opacity:1;stroke:#ff2c76;stroke-width:1;stroke-linecap:round;stroke-opacity:1"/><text id="text2296" style="font-size:10px;font-family:sans-serif;text-anchor:start;fill:#282828"><tspan id="tspan2294" x="13" y="14">1</tspan></text></g></g><g id="g2310" transform="matrix(0.26458333,0,0,0.26458333,41.67187,8.3343766)"><g id="g2308" transform="scale(1.5)"><path id="path2302" d="m 8.5,0.5 h 60 v 20 h -60 v -8 -1 h -6 v 3 h -2 v -8 h 2 v 3 h 6 v -1 z" style="fill:#ff5293;fill-opacity:1;stroke:#ff2c76;stroke-width:1;stroke-linecap:round;stroke-opacity:1"/><text id="text2306" style="font-size:10px;font-family:sans-serif;text-anchor:start;fill:#282828"><tspan id="tspan2304" x="13" y="14">16</tspan></text></g></g><g id="g2320" transform="matrix(0.26458333,0,0,0.26458333,3.5718709,8.3343766)"><g id="g2318" transform="scale(1.5)"><path id="path2312" d="m 0.5,8.5 v -4 a 4,4 90 0 1 4,-4 h 4 v 2 h 10 v -2 h 20 4 a 4,4 90 0 1 4,4 v 4 4 4 a 4,4 90 0 1 -4,4 h -4 -20 -1 v 2 h -8 v -2 h -1 -4 a 4,4 90 0 1 -4,-4 v -4 z" style="fill:#b0b0b0;fill-opacity:1;stroke:#a0a0a0;stroke-width:1;stroke-linecap:round;stroke-opacity:1"/><text id="text2316" style="font-size:10px;font-family:sans-serif;text-anchor:end;fill:#282828"><tspan id="tspan2314" x="36" y="14">↓</tspan></text></g></g><g id="g2550" transform="matrix(0.26458333,0,0,0.26458333,-65.881253,-338.66667)"><g id="g2530" transform="translate(262.5,1343)"><g id="g2528" transform="scale(1.5)"><path id="path2518" d="m 0.5,8.5 v -4 a 4,4 90 0 1 4,-4 h 4 v 2 h 10 v -2 h 9 60 4 a 4,4 90 0 1 4,4 v 4 h -4 v -3 h -4 v 10 h 4 v -3 h 4 v 4 a 4,4 90 0 1 -4,4 h -4 -60 -1 v 2 h -8 v -2 h -1 -4 a 5,5 90 0 0 -5,5 v 4 4 42 4 a 5,5 90 0 0 5,5 h 4 v 2 h 10 v -2 h 8 v 6 6 4 a 4,4 90 0 1 -4,4 h -4 -9 -1 v 2 h -8 v -2 h -1 -4 a 4,4 90 0 1 -4,-4 v -4 z" style="fill:#ff8b2d;fill-opacity:1;stroke:#e86b0e;stroke-width:1;stroke-linecap:round;stroke-opacity:1"/><text id="text2522" style="font-size:10px;font-family:sans-serif;text-anchor:start;fill:#282828"><tspan id="tspan2520" x="20" y="15">音符</tspan></text><text id="text2526" style="font-size:6.66666651px;font-family:sans-serif;text-anchor:end;fill:#282828"><tspan id="tspan2524" x="85" y="12">長さ</tspan></text></g></g><g id="g2548" transform="matrix(0.5,0,0,0.5,262.5,1347)"><g id="g2546" style="isolation:isolate"><g id="g2544" data-name="レイヤー 2"><g id="g2542"><rect id="rect2532" width="42" height="42" x="0" y="0" rx="5" ry="5" style="opacity:.4;mix-blend-mode:multiply;fill:#292929"/><path id="path2534" d="m 30.56,29.8 -4.17,-4.16 h 2.26 a 1.035,1.035 0 1 0 0,-2.07 h -4.71 a 1.08,1.08 0 0 0 -1.11,1 v 0 c 0,0 0,0 0,0.06 v 4.64 0 a 1.04,1.04 0 1 0 2.08,0 v -2.19 l 4.19,4.19 a 1,1 0 0 0 1.46,0 1,1 0 0 0 0,-1.47 z" style="fill:#fff"/><path id="path2536" d="m 19.17,24.6 a 1.08,1.08 0 0 0 -1.11,-1 h -4.71 a 1.035,1.035 0 1 0 0,2.07 h 2.25 l -4.16,4.13 a 1.039447,1.039447 0 0 0 1.47,1.47 l 4.18,-4.19 v 2.26 a 1.04,1.04 0 1 0 2.08,0 V 24.7 c 0,0 0,0 0,-0.06 a 0.08,0.08 0 0 1 0,-0.04 z" style="fill:#fff"/><path id="path2538" d="m 23.94,20.5 h 4.7 a 1.04,1.04 0 1 0 0,-2.08 h -2.25 l 4.17,-4.16 a 1,1 0 0 0 0,-1.47 1,1 0 0 0 -1.46,0 L 24.91,17 v -2.28 a 1.04,1.04 0 1 0 -2.08,0 v 4.64 a 0.43,0.43 0 0 0 0,0.05 v 0.05 a 1.09,1.09 0 0 0 1.11,1.04 z" style="fill:#fff"/><path id="path2540" d="m 18.13,13.62 a 1.08,1.08 0 0 0 -1,1.09 V 17 l -4.18,-4.19 a 1,1 0 0 0 -1.47,0 1,1 0 0 0 0,1.46 l 4.16,4.17 h -2.29 a 1.04,1.04 0 1 0 0,2.08 h 4.71 a 1.09,1.09 0 0 0 1.11,-1 c 0,0 0,0 0,-0.06 v -4.75 a 1.07,1.07 0 0 0 -1.04,-1.09 z" style="fill:#fff"/></g></g></g></g></g><g id="g2568" transform="matrix(0.26458333,0,0,0.26458333,38.49687,16.668751)"><g id="g2566" transform="scale(1.5)"><path id="path2552" d="m 8.5,8.5 v -4 a 4,4 90 0 1 4,-4 h 4 10 30 4 a 4,4 90 0 1 4,4 v 4 h -4 v -3 h -4 v 10 h 4 v -3 h 4 v 17 h -4 v -3 h -4 v 10 h 4 v -3 h 4 v 4 a 4,4 90 0 1 -4,4 h -4 -30 -10 -4 a 4,4 90 0 1 -4,-4 v -4 -21 -1 h -6 v 3 h -2 v -8 h 2 v 3 h 6 z" style="fill:#ff5293;fill-opacity:1;stroke:#ff2c76;stroke-width:1;stroke-linecap:round;stroke-opacity:1"/><text id="text2556" style="font-size:9px;font-family:sans-serif;text-anchor:end;fill:#282828"><tspan id="tspan2554" x="54" y="23">➗</tspan></text></g></g><g id="g2578" transform="matrix(0.26458333,0,0,0.26458333,61.118745,16.668751)"><g id="g2576" transform="scale(1.5)"><path id="path2570" d="m 8.5,0.5 h 60 v 20 h -60 v -8 -1 h -6 v 3 h -2 v -8 h 2 v 3 h 6 v -1 z" style="fill:#ff5293;fill-opacity:1;stroke:#ff2c76;stroke-width:1;stroke-linecap:round;stroke-opacity:1"/><text id="text2574" style="font-size:10px;font-family:sans-serif;text-anchor:start;fill:#282828"><tspan id="tspan2572" x="13" y="14">1</tspan></text></g></g><g id="g2588" transform="matrix(0.26458333,0,0,0.26458333,61.118745,25.003126)"><g id="g2586" transform="scale(1.5)"><path id="path2580" d="m 8.5,0.5 h 60 v 20 h -60 v -8 -1 h -6 v 3 h -2 v -8 h 2 v 3 h 6 v -1 z" style="fill:#ff5293;fill-opacity:1;stroke:#ff2c76;stroke-width:1;stroke-linecap:round;stroke-opacity:1"/><text id="text2584" style="font-size:10px;font-family:sans-serif;text-anchor:start;fill:#282828"><tspan id="tspan2582" x="13" y="14">4</tspan></text></g></g><g id="g2598" transform="matrix(0.26458333,0,0,0.26458333,7.1437458,25.003126)"><g id="g2596" transform="scale(1.5)"><path id="path2590" d="m 0.5,8.5 v -4 a 4,4 90 0 1 4,-4 h 4 v 2 h 10 v -2 h 20 4 a 4,4 90 0 1 4,4 v 4 4 4 a 4,4 90 0 1 -4,4 h -4 -20 -1 v 2 h -8 v -2 h -1 -4 a 4,4 90 0 1 -4,-4 v -4 z" style="fill:#b0b0b0;fill-opacity:1;stroke:#a0a0a0;stroke-width:1;stroke-linecap:round;stroke-opacity:1"/><text id="text2594" style="font-size:10px;font-family:sans-serif;text-anchor:end;fill:#282828"><tspan id="tspan2592" x="36" y="14">↓</tspan></text></g></g><g id="g2736" transform="matrix(0.26458333,0,0,0.26458333,11.906247,33.337501)"><g id="g2734" transform="scale(1.5)"><path id="path2720" d="m -11.500001,8.5 v -4 c 0,-2.209139 1.7908615,-4 4.0000005,-4 h 4 v 2 h 10 v -2 H 48.5 h 4 c 2.209139,0 4,1.790861 4,4 v 4 h -4 v -3 h -4 v 10 h 4 v -3 h 4 v 17 h -4 v -3 h -4 v 10 h 4 v -3 h 4 v 4 c 0,2.209139 -1.790861,4 -4,4 h -4 -42.0000005 -1 v 2 h -8 v -2 h -1 -4 c -2.209139,0 -4.6985915,-1.904227 -4.0000005,-4 v -4 -21 z" style="fill:#77c428;fill-opacity:1;stroke:#57ad02;stroke-width:1;stroke-linecap:round;stroke-opacity:1"/><text id="text2724" style="font-size:10px;font-family:sans-serif;text-anchor:end;fill:#282828"><tspan id="tspan2722" x="46" y="24">音の高さ</tspan></text><text id="text2728" style="font-size:6.66666651px;font-family:sans-serif;text-anchor:end;fill:#282828"><tspan id="tspan2726" x="46" y="12">名前</tspan></text><text id="text2732" style="font-size:6.66666651px;font-family:sans-serif;text-anchor:end;fill:#282828"><tspan id="tspan2730" x="46" y="33">オクターヴの高さ</tspan></text></g></g><g id="g2746" transform="matrix(0.26458333,0,0,0.26458333,31.353124,33.337501)"><g id="g2744" transform="scale(1.5)"><path id="path2738" d="m 8.5,0.5 h 60 v 20 h -60 v -8 -1 h -6 v 3 h -2 v -8 h 2 v 3 h 6 v -1 z" style="fill:#77c428;fill-opacity:1;stroke:#57ad02;stroke-width:1;stroke-linecap:round;stroke-opacity:1"/><text id="text2742" style="font-size:10px;font-family:sans-serif;text-anchor:start;fill:#282828"><tspan id="tspan2740" x="13" y="14">ソ</tspan></text></g></g><g id="g2756" transform="matrix(0.26458333,0,0,0.26458333,31.353124,41.671876)"><g id="g2754" transform="scale(1.5)"><path id="path2748" d="m 8.5,0.5 h 60 v 20 h -60 v -8 -1 h -6 v 3 h -2 v -8 h 2 v 3 h 6 v -1 z" style="fill:#ff5293;fill-opacity:1;stroke:#ff2c76;stroke-width:1;stroke-linecap:round;stroke-opacity:1"/><text id="text2752" style="font-size:10px;font-family:sans-serif;text-anchor:start;fill:#282828"><tspan id="tspan2750" x="13" y="14">4</tspan></text></g></g></svg>