<svg xmlns="http://www.w3.org/2000/svg" width="111" height="88.333"><rect id="backgroundrect" width="100%" height="100%" x="0" y="0" fill="none" stroke="none"/><g class="currentLayer"><title>Layer 1</title><g><g id="svg_15"><g id="svg_16" transform="translate(372, 210) scale(1.5)"><path style="fill:#77c428;fill-opacity:1;stroke:#57ad02;stroke-width:1;stroke-linecap:round;stroke-opacity:1" id="svg_17" d="m-239.4999881386757,-137.27780151367188 L-179.4999881386757,-137.27780151367188 L-179.4999881386757,-117.27780151367188 L-239.4999881386757,-117.27780151367188 L-239.4999881386757,-125.27780151367188 L-239.4999881386757,-126.27780151367188 L-245.4999881386757,-126.27780151367188 L-245.4999881386757,-123.27780151367188 L-247.4999881386757,-123.27780151367188 L-247.4999881386757,-131.27780151367188 L-245.4999881386757,-131.27780151367188 L-245.4999881386757,-128.27780151367188 L-239.4999881386757,-128.27780151367188 L-239.4999881386757,-129.27780151367188 z"/><text style="font-size:10px;fill:#282828;font-family:sans-serif;text-anchor:start" id="svg_18" x="-248" y="-137.778"><tspan id="svg_19" x="-235" y="-123.778">ソ</tspan></text></g></g><g id="svg_20"><g id="svg_21" transform="translate(372, 259) scale(1.5)"><path style="fill:#77c428;fill-opacity:1;stroke:#57ad02;stroke-width:1;stroke-linecap:round;stroke-opacity:1" id="svg_22" d="m-239.4999881386757,-137.27780151367188 L-179.4999881386757,-137.27780151367188 L-179.4999881386757,-117.27780151367188 L-239.4999881386757,-117.27780151367188 L-239.4999881386757,-125.27780151367188 L-239.4999881386757,-126.27780151367188 L-245.4999881386757,-126.27780151367188 L-245.4999881386757,-123.27780151367188 L-247.4999881386757,-123.27780151367188 L-247.4999881386757,-131.27780151367188 L-245.4999881386757,-131.27780151367188 L-245.4999881386757,-128.27780151367188 L-239.4999881386757,-128.27780151367188 L-239.4999881386757,-129.27780151367188 z"/><text style="font-size:10px;fill:#282828;font-family:sans-serif;text-anchor:start" id="svg_23" x="-248" y="-137.778"><tspan id="svg_24" x="-235" y="-123.778">G</tspan></text></g></g></g></g></svg>