<svg xmlns="http://www.w3.org/2000/svg" xmlns:svg="http://www.w3.org/2000/svg" id="svg11666" width="310.256" height="239.343" version="1.1" viewBox="0 0 82.089 63.326"><metadata id="metadata11663"/><g id="g3803" transform="matrix(0.26458333,0,0,0.26458333,-191.29376,-398.28942)"><g id="g3783" transform="translate(723,1505.7674)"><g id="g3781" transform="scale(1.5,1.5)"><path style="fill:#77c428;fill-opacity:1;stroke:#57ad02;stroke-width:1;stroke-linecap:round;stroke-opacity:1" id="path3775" d="m 0.5,14.5 0,-4 a 4,4 90 0 1 4,-4 l 4,0 5,-6 5,6 9,0 60,0 4,0 a 4,4 90 0 1 4,4 l 0,4 0,4 0,4 a 4,4 90 0 1 -4,4 l -4,0 -60,0 -1,0 0,2 -8,0 0,-2 -1,0 -4,0 a 5,5 90 0 0 -5,5 l 0,4 0,4 0,84 0,4 a 5,5 90 0 0 5,5 l 4,0 0,2 10,0 0,-2 8,0 0,6 0,6 0,4 a 4,4 90 0 1 -4,4 l -4,0 -9,0 -5,6 -5,-6 -4,0 a 4,4 90 0 1 -4,-4 l 0,-4 z"/><text style="font-size:10px;font-family:sans-serif;text-anchor:start;fill:#282828" id="text3779"><tspan id="tspan3777" x="20" y="22">実行じょうきょう</tspan></text></g></g><g id="g3801" transform="matrix(0.5,0,0,0.5,723,1517.7674)"><g style="isolation:isolate" id="g3799"><g id="g3797" data-name="レイヤー 2"><g id="g3795"><rect style="opacity:.4;mix-blend-mode:multiply;fill:#292929" id="rect3785" width="42" height="42" x="0" y="0" rx="5" ry="5"/><path style="fill:#fff" id="path3787" d="m 30.56,29.8 -4.17,-4.16 2.26,0 a 1.035,1.035 0 1 0 0,-2.07 l -4.71,0 a 1.08,1.08 0 0 0 -1.11,1 l 0,0 c 0,0 0,0 0,0.06 l 0,4.64 0,0 a 1.04,1.04 0 1 0 2.08,0 l 0,-2.19 4.19,4.19 a 1,1 0 0 0 1.46,0 1,1 0 0 0 0,-1.47 z"/><path style="fill:#fff" id="path3789" d="m 19.17,24.6 a 1.08,1.08 0 0 0 -1.11,-1 l -4.71,0 a 1.035,1.035 0 1 0 0,2.07 l 2.25,0 -4.16,4.13 a 1.039447,1.039447 0 0 0 1.47,1.47 l 4.18,-4.19 0,2.26 a 1.04,1.04 0 1 0 2.08,0 l 0,-4.64 c 0,0 0,0 0,-0.06 a 0.08,0.08 0 0 1 0,-0.04 z"/><path style="fill:#fff" id="path3791" d="m 23.94,20.5 4.7,0 a 1.04,1.04 0 1 0 0,-2.08 l -2.25,0 4.17,-4.16 a 1,1 0 0 0 0,-1.47 1,1 0 0 0 -1.46,0 l -4.19,4.21 0,-2.28 a 1.04,1.04 0 1 0 -2.08,0 l 0,4.64 a 0.43,0.43 0 0 0 0,0.05 l 0,0.05 a 1.09,1.09 0 0 0 1.11,1.04 z"/><path style="fill:#fff" id="path3793" d="m 18.13,13.62 a 1.08,1.08 0 0 0 -1,1.09 l 0,2.29 -4.18,-4.19 a 1,1 0 0 0 -1.47,0 1,1 0 0 0 0,1.46 l 4.16,4.17 -2.29,0 a 1.04,1.04 0 1 0 0,2.08 l 4.71,0 a 1.09,1.09 0 0 0 1.11,-1 c 0,0 0,0 0,-0.06 l 0,-4.75 a 1.07,1.07 0 0 0 -1.04,-1.09 z"/></g></g></g></g></g><g id="g3817" transform="matrix(0.26458333,0,0,0.26458333,9.2163119,19.161532)"><g id="g3815" transform="scale(1.5,1.5)"><path style="fill:#b0b0b0;fill-opacity:1;stroke:#a0a0a0;stroke-width:1;stroke-linecap:round;stroke-opacity:1" id="path3805" d="m -13.722225,8.5 0,-4 c 0,-2.209139 1.790861,-4 3.9999996,-4 l 4,0 0,2 10,0 0,-2 44.2222254,0 4,0 c 2.209139,0 4,1.790861 4,4 l 0,4 -4,0 0,-3 -4,0 0,10 4,0 0,-3 4,0 0,4 c 0,2.209139 -1.790861,4 -4,4 l -4,0 -44.2222254,0 -1,0 0,2 -8,0 0,-2 -1,0 -4,0 c -2.2091386,0 -3.9999996,-1.790861 -3.9999996,-4 l 0,-4 z"/><text style="font-size:10px;font-family:sans-serif;text-anchor:end;fill:#282828" id="text3809"><tspan id="tspan3807" x="46" y="14">結果を表示</tspan></text></g></g><g id="g3827" transform="matrix(0.26458333,0,0,0.26458333,28.663187,19.161532)"><g id="g3825" transform="scale(1.5,1.5)"><path style="fill:#ff8b2d;fill-opacity:1;stroke:#e86b0e;stroke-width:1;stroke-linecap:round;stroke-opacity:1" id="path3819" d="m 8.5,0.5 86.704102,0 0,20 -86.704102,0 0,-8 0,-1 -6,0 0,3 -2,0 0,-8 2,0 0,3 6,0 0,-1 z"/><text style="font-size:10px;font-family:sans-serif;text-anchor:start;fill:#282828" id="text3823"><tspan id="tspan3821" x="13" y="14">拍の位置</tspan></text></g></g><g id="g3841" transform="matrix(0.26458333,0,0,0.26458333,9.2163119,27.495907)"><g id="g3839" transform="scale(1.5,1.5)"><path style="fill:#b0b0b0;fill-opacity:1;stroke:#a0a0a0;stroke-width:1;stroke-linecap:round;stroke-opacity:1" id="path3829" d="m -13.722225,8.5 0,-4 c 0,-2.209139 1.790861,-4 3.9999996,-4 l 4,0 0,2 10,0 0,-2 44.2222254,0 4,0 c 2.209139,0 4,1.790861 4,4 l 0,4 -4,0 0,-3 -4,0 0,10 4,0 0,-3 4,0 0,4 c 0,2.209139 -1.790861,4 -4,4 l -4,0 -44.2222254,0 -1,0 0,2 -8,0 0,-2 -1,0 -4,0 c -2.2091386,0 -3.9999996,-1.790861 -3.9999996,-4 l 0,-4 z"/><text style="font-size:10px;font-family:sans-serif;text-anchor:end;fill:#282828" id="text3833"><tspan id="tspan3831" x="46" y="14">結果を表示</tspan></text></g></g><g id="g3851" transform="matrix(0.26458333,0,0,0.26458333,28.663187,27.495907)"><g id="g3849" transform="scale(1.5,1.5)"><path style="fill:#ff8b2d;fill-opacity:1;stroke:#e86b0e;stroke-width:1;stroke-linecap:round;stroke-opacity:1" id="path3843" d="m 8.5,0.5 106.14746,0 0,20 -106.14746,0 0,-8 0,-1 -6,0 0,3 -2,0 0,-8 2,0 0,3 6,0 0,-1 z"/><text style="font-size:10px;font-family:sans-serif;text-anchor:start;fill:#282828" id="text3847"><tspan id="tspan3845" x="13" y="14">小節の数</tspan></text></g></g><g id="g3865" transform="matrix(0.26458333,0,0,0.26458333,9.2163119,35.830281)"><g id="g3863" transform="scale(1.5,1.5)"><path style="fill:#b0b0b0;fill-opacity:1;stroke:#a0a0a0;stroke-width:1;stroke-linecap:round;stroke-opacity:1" id="path3853" d="m -13.722225,8.5 0,-4 c 0,-2.209139 1.790861,-4 3.9999996,-4 l 4,0 0,2 10,0 0,-2 44.2222254,0 4,0 c 2.209139,0 4,1.790861 4,4 l 0,4 -4,0 0,-3 -4,0 0,10 4,0 0,-3 4,0 0,4 c 0,2.209139 -1.790861,4 -4,4 l -4,0 -44.2222254,0 -1,0 0,2 -8,0 0,-2 -1,0 -4,0 c -2.2091386,0 -3.9999996,-1.790861 -3.9999996,-4 l 0,-4 z"/><text style="font-size:10px;font-family:sans-serif;text-anchor:end;fill:#282828" id="text3857"><tspan id="tspan3855" x="46" y="14">結果を表示</tspan></text></g></g><g id="g3875" transform="matrix(0.26458333,0,0,0.26458333,28.663187,35.830281)"><g id="g3873" transform="scale(1.5,1.5)"><path style="fill:#ff8b2d;fill-opacity:1;stroke:#e86b0e;stroke-width:1;stroke-linecap:round;stroke-opacity:1" id="path3867" d="m 8.5,0.5 125.61523,0 0,20 -125.61523,0 0,-8 0,-1 -6,0 0,3 -2,0 0,-8 2,0 0,3 6,0 0,-1 z"/><text style="font-size:10px;font-family:sans-serif;text-anchor:start;fill:#282828" id="text3871"><tspan id="tspan3869" x="13" y="14">さいせいされた全音符の数</tspan></text></g></g><g id="g3889" transform="matrix(0.26458333,0,0,0.26458333,9.2163119,44.164656)"><g id="g3887" transform="scale(1.5,1.5)"><path style="fill:#b0b0b0;fill-opacity:1;stroke:#a0a0a0;stroke-width:1;stroke-linecap:round;stroke-opacity:1" id="path3877" d="m -13.722225,8.5 0,-4 c 0,-2.209139 1.790861,-4 3.9999996,-4 l 4,0 0,2 10,0 0,-2 44.2222254,0 4,0 c 2.209139,0 4,1.790861 4,4 l 0,4 -4,0 0,-3 -4,0 0,10 4,0 0,-3 4,0 0,4 c 0,2.209139 -1.790861,4 -4,4 l -4,0 -44.2222254,0 -1,0 0,2 -8,0 0,-2 -1,0 -4,0 c -2.2091386,0 -3.9999996,-1.790861 -3.9999996,-4 l 0,-4 z"/><text style="font-size:10px;font-family:sans-serif;text-anchor:end;fill:#282828" id="text3881"><tspan id="tspan3879" x="46" y="14">結果を表示</tspan></text></g></g><g id="g3899" transform="matrix(0.26458333,0,0,0.26458333,28.663187,44.164656)"><g id="g3897" transform="scale(1.5,1.5)"><path style="fill:#ff8b2d;fill-opacity:1;stroke:#e86b0e;stroke-width:1;stroke-linecap:round;stroke-opacity:1" id="path3891" d="m 8.5,0.5 114.4873,0 0,20 -114.4873,0 0,-8 0,-1 -6,0 0,3 -2,0 0,-8 2,0 0,3 6,0 0,-1 z"/><text style="font-size:10px;font-family:sans-serif;text-anchor:start;fill:#282828" id="text3895"><tspan id="tspan3893" x="13" y="14">１分当たりの拍の数</tspan></text></g></g><g id="g3913" transform="matrix(0.26458333,0,0,0.26458333,9.2163119,10.827157)"><g id="g3911" transform="scale(1.5,1.5)"><path style="fill:#b0b0b0;fill-opacity:1;stroke:#a0a0a0;stroke-width:1;stroke-linecap:round;stroke-opacity:1" id="path3901" d="m -13.722225,8.5 0,-4 c 0,-2.209139 1.790861,-4 3.9999996,-4 l 4,0 0,2 10,0 0,-2 44.2222254,0 4,0 c 2.209139,0 4,1.790861 4,4 l 0,4 -4,0 0,-3 -4,0 0,10 4,0 0,-3 4,0 0,4 c 0,2.209139 -1.790861,4 -4,4 l -4,0 -44.2222254,0 -1,0 0,2 -8,0 0,-2 -1,0 -4,0 c -2.2091386,0 -3.9999996,-1.790861 -3.9999996,-4 l 0,-4 z"/><text style="font-size:10px;font-family:sans-serif;text-anchor:end;fill:#282828" id="text3905"><tspan id="tspan3903" x="46" y="14">結果を表示</tspan></text></g></g><g id="g3923" transform="matrix(0.26458333,0,0,0.26458333,28.663187,10.827157)"><g id="g3921" transform="scale(1.5,1.5)"><path style="fill:#77c428;fill-opacity:1;stroke:#57ad02;stroke-width:1;stroke-linecap:round;stroke-opacity:1" id="path3915" d="m 8.5,0.5 110.91657,0 0,20 -110.91657,0 0,-8 0,-1 -6,0 0,3 -2,0 0,-8 2,0 0,3 6,0 0,-1 z"/><text style="font-size:10px;font-family:sans-serif;text-anchor:start;fill:#282828" id="text3919"><tspan id="tspan3917" x="13" y="14">音の高さをヘルツで表示</tspan></text></g></g></svg>