<svg xmlns="http://www.w3.org/2000/svg" xmlns:svg="http://www.w3.org/2000/svg" id="svg3045" width="335.5" height="255" version="1.1" viewBox="0 0 88.768 67.469"><metadata id="metadata3042"/><path id="path1468" d="m 0.1984375,3.3734375 v -1.5875 a 1.5875,1.5875 0 0 1 1.5875,-1.5875 h 1.5875 v 0.79375 h 3.96875 v -0.79375 h 3.5718755 9.264938 1.5875 a 1.5875,1.5875 0 0 1 1.5875,1.5875 v 1.5875 h -1.5875 v -1.190625 h -1.5875 v 3.96875 h 1.5875 v -1.190625 h 1.5875 v 6.7468745 h -1.5875 v -1.190625 h -1.5875 v 3.96875 h 1.5875 v -1.190624 h 1.5875 v 1.5875 a 1.5875,1.5875 0 0 1 -1.5875,1.587499 h -1.5875 -9.264938 -0.396876 v 0.79375 H 7.3421875 v -0.79375 h -0.396875 -1.5875 a 1.984375,1.984375 0 0 0 -1.984375,1.984375 v 1.5875 1.5875 33.3375 1.5875 a 1.984375,1.984375 0 0 0 1.984375,1.984375 h 1.5875 v 0.79375 h 3.9687505 v -0.79375 h 3.174999 v 2.38125 2.38125 1.5875 a 1.5875,1.5875 0 0 1 -1.5875,1.5875 H 10.914063 7.3421875 6.9453125 v 0.793751 h -3.175 v -0.793751 h -0.396875 -1.5875 a 1.5875,1.5875 0 0 1 -1.5875,-1.5875 v -1.5875 z" style="fill:#3edcdd;fill-opacity:1;stroke:#1dbcbd;stroke-width:.39687499;stroke-linecap:round;stroke-opacity:1"/><text id="text1472" style="font-size:3.96875px;font-family:sans-serif;text-anchor:start;fill:#282828;stroke-width:.39687499"><tspan style="stroke-width:.39687499" id="tspan1470" x="1.984" y="8.731">トレモロ</tspan></text><text id="text1476" style="font-size:2.64583325px;font-family:sans-serif;text-anchor:end;fill:#282828;stroke-width:.39687499"><tspan style="stroke-width:.39687499" id="tspan1474" x="19.447" y="4.762">はやさ</tspan></text><text id="text1480" style="font-size:2.64583325px;font-family:sans-serif;text-anchor:end;fill:#282828;stroke-width:.39687499"><tspan style="stroke-width:.39687499" id="tspan1478" x="19.447" y="13.097">大きさ</tspan></text><path id="path1486" d="m 23.746358,0.1984375 h 23.8125 v 7.9375 h -23.8125 v -3.175 -0.396875 h -2.381251 v 1.190625 h -0.793749 v -3.175 h 0.793749 v 1.190625 h 2.381251 v -0.396875 z" style="fill:#ff6ea1;fill-opacity:1;stroke:#ff2c76;stroke-width:.39687499;stroke-linecap:round;stroke-opacity:1"/><text id="text1490" x="20.373" style="font-size:3.96875px;font-family:sans-serif;text-anchor:start;fill:#282828;stroke-width:.39687499"><tspan style="stroke-width:.39687499" id="tspan1488" x="25.532" y="5.556">10</tspan></text><path id="path1496" d="m 23.746358,8.6651075 h 23.8125 v 7.9374995 h -23.8125 v -3.174999 -0.396876 h -2.381251 v 1.190626 h -0.793749 v -3.175 h 0.793749 v 1.190625 h 2.381251 v -0.396875 z" style="fill:#ff6ea1;fill-opacity:1;stroke:#ff2c76;stroke-width:.39687499;stroke-linecap:round;stroke-opacity:1"/><text id="text1500" x="20.373" y="8.467" style="font-size:3.96875px;font-family:sans-serif;text-anchor:start;fill:#282828;stroke-width:.39687499"><tspan style="stroke-width:.39687499" id="tspan1498" x="25.532" y="14.023">50</tspan></text><g id="g1780" transform="matrix(0.396875,0,0,0.396875,3.704161,16.668748)"><path id="path1770" d="m 0.5,8.5 v -4 a 4,4 90 0 1 4,-4 h 4 v 2 h 10 v -2 h 9 60 4 a 4,4 90 0 1 4,4 v 4 h -4 v -3 h -4 v 10 h 4 v -3 h 4 v 4 a 4,4 90 0 1 -4,4 h -4 -60 -1 v 2 h -8 v -2 h -1 -4 a 5,5 90 0 0 -5,5 v 4 4 42 4 a 5,5 90 0 0 5,5 h 4 v 2 h 10 v -2 h 8 v 6 6 4 a 4,4 90 0 1 -4,4 h -4 -9 -1 v 2 h -8 v -2 h -1 -4 a 4,4 90 0 1 -4,-4 v -4 z" style="fill:#fe994f;fill-opacity:1;stroke:#e86b0e;stroke-width:1;stroke-linecap:round;stroke-opacity:1"/><text id="text1774" style="font-size:10px;font-family:sans-serif;text-anchor:start;fill:#282828"><tspan id="tspan1772" x="20" y="15">音符</tspan></text><text id="text1778" style="font-size:6.66666651px;font-family:sans-serif;text-anchor:end;fill:#282828"><tspan id="tspan1776" x="85" y="12">長さ</tspan></text></g><g id="g1798" transform="matrix(0.13229166,0,0,0.13229166,3.704161,17.727082)" style="isolation:isolate"><g id="g1796" data-name="レイヤー 2"><g id="g1794"><rect id="rect1784" width="42" height="42" x="0" y="0" rx="5" ry="5" style="opacity:.4;mix-blend-mode:multiply;fill:#292929"/><path id="path1786" d="m 30.56,29.8 -4.17,-4.16 h 2.26 a 1.035,1.035 0 1 0 0,-2.07 h -4.71 a 1.08,1.08 0 0 0 -1.11,1 v 0 c 0,0 0,0 0,0.06 v 4.64 0 a 1.04,1.04 0 1 0 2.08,0 v -2.19 l 4.19,4.19 a 1,1 0 0 0 1.46,0 1,1 0 0 0 0,-1.47 z" style="fill:#fff"/><path id="path1788" d="m 19.17,24.6 a 1.08,1.08 0 0 0 -1.11,-1 h -4.71 a 1.035,1.035 0 1 0 0,2.07 h 2.25 l -4.16,4.13 a 1.039447,1.039447 0 0 0 1.47,1.47 l 4.18,-4.19 v 2.26 a 1.04,1.04 0 1 0 2.08,0 V 24.7 c 0,0 0,0 0,-0.06 a 0.08,0.08 0 0 1 0,-0.04 z" style="fill:#fff"/><path id="path1790" d="m 23.94,20.5 h 4.7 a 1.04,1.04 0 1 0 0,-2.08 h -2.25 l 4.17,-4.16 a 1,1 0 0 0 0,-1.47 1,1 0 0 0 -1.46,0 L 24.91,17 v -2.28 a 1.04,1.04 0 1 0 -2.08,0 v 4.64 a 0.43,0.43 0 0 0 0,0.05 v 0.05 a 1.09,1.09 0 0 0 1.11,1.04 z" style="fill:#fff"/><path id="path1792" d="m 18.13,13.62 a 1.08,1.08 0 0 0 -1,1.09 V 17 l -4.18,-4.19 a 1,1 0 0 0 -1.47,0 1,1 0 0 0 0,1.46 l 4.16,4.17 h -2.29 a 1.04,1.04 0 1 0 0,2.08 h 4.71 a 1.09,1.09 0 0 0 1.11,-1 c 0,0 0,0 0,-0.06 v -4.75 a 1.07,1.07 0 0 0 -1.04,-1.09 z" style="fill:#fff"/></g></g></g><path id="path1804" d="m 42.002608,20.042187 v -1.5875 a 1.5875,1.5875 0 0 1 1.5875,-1.5875 h 1.587499 3.96875 11.90625 1.5875 a 1.5875,1.5875 0 0 1 1.587501,1.5875 v 1.5875 h -1.587501 v -1.190625 h -1.5875 v 3.96875 h 1.5875 v -1.190625 h 1.587501 v 6.746875 h -1.587501 v -1.190625 h -1.5875 v 3.96875 h 1.5875 v -1.190625 h 1.587501 v 1.5875 a 1.5875,1.5875 0 0 1 -1.587501,1.5875 h -1.5875 -11.90625 -3.96875 -1.587499 a 1.5875,1.5875 0 0 1 -1.5875,-1.5875 v -1.5875 -8.334375 -0.396875 h -2.38125 v 1.190625 h -0.793751 v -3.175 h 0.793751 v 1.190625 h 2.38125 z" style="fill:#ff6ea1;fill-opacity:1;stroke:#ff2c76;stroke-width:.39687499;stroke-linecap:round;stroke-opacity:1"/><text id="text1808" x="38.629" y="16.669" style="font-size:3.5718751px;font-family:sans-serif;text-anchor:end;fill:#282828;stroke-width:.39687499"><tspan style="stroke-width:.39687499" id="tspan1806" x="60.06" y="25.797">➗</tspan></text><path id="path1822" d="m 64.756767,16.867187 h 23.8125 v 7.9375 h -23.8125 v -3.175 -0.396875 h -2.38125 v 1.190625 h -0.79375 v -3.175 h 0.79375 v 1.190625 h 2.38125 v -0.396875 z" style="fill:#ff6ea1;fill-opacity:1;stroke:#ff2c76;stroke-width:.39687499;stroke-linecap:round;stroke-opacity:1"/><text id="text1826" x="61.383" y="16.669" style="font-size:3.96875px;font-family:sans-serif;text-anchor:start;fill:#282828;stroke-width:.39687499"><tspan style="stroke-width:.39687499" id="tspan1824" x="66.543" y="22.225">1</tspan></text><path id="path1832" d="m 64.756767,25.333857 h 23.8125 v 7.9375 h -23.8125 v -3.175 -0.396875 h -2.38125 v 1.190625 h -0.79375 v -3.175 h 0.79375 v 1.190625 h 2.38125 v -0.396875 z" style="fill:#ff6ea1;fill-opacity:1;stroke:#ff2c76;stroke-width:.39687499;stroke-linecap:round;stroke-opacity:1"/><text id="text1836" x="61.383" y="25.135" style="font-size:3.96875px;font-family:sans-serif;text-anchor:start;fill:#282828;stroke-width:.39687499"><tspan style="stroke-width:.39687499" id="tspan1834" x="66.543" y="30.692">4</tspan></text><path id="path1842" d="m 7.6067675,28.508857 v -1.5875 a 1.5875,1.5875 0 0 1 1.5875,-1.5875 h 1.5875005 v 0.79375 h 3.96875 v -0.79375 h 7.937499 1.5875 a 1.5875,1.5875 0 0 1 1.5875,1.5875 v 1.5875 1.5875 1.5875 a 1.5875,1.5875 0 0 1 -1.5875,1.5875 h -1.5875 -7.937499 -0.396876 v 0.79375 h -3.174999 v -0.79375 H 10.781768 9.1942675 a 1.5875,1.5875 0 0 1 -1.5875,-1.5875 v -1.5875 z" style="fill:#c4c4c4;fill-opacity:1;stroke:#a0a0a0;stroke-width:.39687499;stroke-linecap:round;stroke-opacity:1"/><text id="text1846" x="7.408" y="25.135" style="font-size:3.96875px;font-family:sans-serif;text-anchor:end;fill:#282828;stroke-width:.39687499"><tspan style="stroke-width:.39687499" id="tspan1844" x="21.696" y="30.692">↓</tspan></text><path id="path1852" d="m 7.6067675,36.975518 v -1.5875 c -6e-7,-0.876752 0.7107476,-1.587501 1.5875,-1.587501 h 1.5875005 v 0.79375 h 3.96875 v -0.79375 h 18.256249 1.5875 c 0.876752,0 1.864753,0.755741 1.5875,1.587501 v 1.5875 h -1.5875 v -1.190626 h -1.5875 v 3.96875 h 1.5875 v -1.190625 h 1.5875 v 6.746876 h -1.5875 v -1.190626 h -1.5875 v 3.96875 h 1.5875 v -1.190624 h 1.5875 v 1.587499 c 0,0.876752 -0.710748,1.5875 -1.5875,1.5875 h -1.5875 -18.256249 -0.396876 v 0.79375 h -3.174999 v -0.79375 H 10.781768 9.1942675 c -0.876752,0 -1.5875,-0.710748 -1.5875,-1.5875 v -1.587499 -8.334376 z" style="fill:#7cd622;fill-opacity:1;stroke:#57ad02;stroke-width:.39687499;stroke-linecap:round;stroke-opacity:1"/><text id="text1856" x="13.758" y="33.602" style="font-size:3.96875px;font-family:sans-serif;text-anchor:end;fill:#282828;stroke-width:.39687499"><tspan style="stroke-width:.39687499" id="tspan1854" x="32.015" y="43.127">音の高さ</tspan></text><text id="text1860" x="13.758" y="33.602" style="font-size:2.64583325px;font-family:sans-serif;text-anchor:end;fill:#282828;stroke-width:.39687499"><tspan style="stroke-width:.39687499" id="tspan1858" x="32.015" y="38.365">名前</tspan></text><text id="text1864" x="13.758" y="33.602" style="font-size:2.64583325px;font-family:sans-serif;text-anchor:end;fill:#282828;stroke-width:.39687499"><tspan style="stroke-width:.39687499" id="tspan1862" x="32.015" y="46.699">オクターヴの高さ</tspan></text><path id="path1870" d="m 36.710941,33.800517 h 23.8125 v 7.9375 h -23.8125 v -3.175 -0.396875 h -2.38125 v 1.190626 h -0.793749 v -3.175001 h 0.793749 v 1.190626 h 2.38125 v -0.396875 z" style="fill:#7cd622;fill-opacity:1;stroke:#57ad02;stroke-width:.39687499;stroke-linecap:round;stroke-opacity:1"/><text id="text1874" x="33.338" y="33.602" style="font-size:3.96875px;font-family:sans-serif;text-anchor:start;fill:#282828;stroke-width:.39687499"><tspan style="stroke-width:.39687499" id="tspan1872" x="38.497" y="39.158">ソ</tspan></text><path id="path1880" d="m 36.710941,42.267187 h 23.8125 v 7.9375 h -23.8125 v -3.174999 -0.396876 h -2.38125 v 1.190625 h -0.793749 v -3.175 h 0.793749 v 1.190626 h 2.38125 v -0.396875 z" style="fill:#ff6ea1;fill-opacity:1;stroke:#ff2c76;stroke-width:.39687499;stroke-linecap:round;stroke-opacity:1"/><text id="text1884" x="33.338" y="42.069" style="font-size:3.96875px;font-family:sans-serif;text-anchor:start;fill:#282828;stroke-width:.39687499"><tspan style="stroke-width:.39687499" id="tspan1882" x="38.497" y="47.625">4</tspan></text></svg>