<svg xmlns="http://www.w3.org/2000/svg" xmlns:svg="http://www.w3.org/2000/svg" id="svg7124" width="349.5" height="617.343" version="1.1" viewBox="0 0 92.472 163.339"><metadata id="metadata7121"/><g id="g1232" transform="matrix(0.26458333,0,0,0.26458333,7.4083294,19.426114)"><g id="g1230" transform="scale(1.5)"><path id="path1220" d="m 0.5,8.5 v -4 a 4,4 90 0 1 4,-4 h 4 v 2 h 10 v -2 h 9 60 4 a 4,4 90 0 1 4,4 v 4 h -4 v -3 h -4 v 10 h 4 v -3 h 4 v 4 a 4,4 90 0 1 -4,4 h -4 -60 -1 v 2 h -8 v -2 h -1 -4 a 5,5 90 0 0 -5,5 v 4 4 42 4 a 5,5 90 0 0 5,5 h 4 v 2 h 10 v -2 h 8 v 6 6 4 a 4,4 90 0 1 -4,4 h -4 -9 -1 v 2 h -8 v -2 h -1 -4 a 4,4 90 0 1 -4,-4 v -4 z" style="fill:#fe994f;fill-opacity:1;stroke:#e86b0e;stroke-width:1;stroke-linecap:round;stroke-opacity:1"/><text id="text1224" style="font-size:10px;font-family:sans-serif;text-anchor:start;fill:#282828"><tspan id="tspan1222" x="20" y="15">nota</tspan></text><text id="text1228" style="font-size:6.66666651px;font-family:sans-serif;text-anchor:end;fill:#282828"><tspan id="tspan1226" x="85" y="12">valor</tspan></text></g></g><g id="g1250" transform="matrix(0.13229166,0,0,0.13229166,7.4083294,20.484448)"><g id="g1248" style="isolation:isolate"><g id="g1246" data-name="レイヤー 2"><g id="g1244"><rect id="rect1234" width="42" height="42" x="0" y="0" rx="5" ry="5" style="opacity:.4;mix-blend-mode:multiply;fill:#292929"/><path id="path1236" d="m 30.56,29.8 -4.17,-4.16 h 2.26 a 1.035,1.035 0 1 0 0,-2.07 h -4.71 a 1.08,1.08 0 0 0 -1.11,1 v 0 c 0,0 0,0 0,0.06 v 4.64 0 a 1.04,1.04 0 1 0 2.08,0 v -2.19 l 4.19,4.19 a 1,1 0 0 0 1.46,0 1,1 0 0 0 0,-1.47 z" style="fill:#fff"/><path id="path1238" d="m 19.17,24.6 a 1.08,1.08 0 0 0 -1.11,-1 h -4.71 a 1.035,1.035 0 1 0 0,2.07 h 2.25 l -4.16,4.13 a 1.039447,1.039447 0 0 0 1.47,1.47 l 4.18,-4.19 v 2.26 a 1.04,1.04 0 1 0 2.08,0 V 24.7 c 0,0 0,0 0,-0.06 a 0.08,0.08 0 0 1 0,-0.04 z" style="fill:#fff"/><path id="path1240" d="m 23.94,20.5 h 4.7 a 1.04,1.04 0 1 0 0,-2.08 h -2.25 l 4.17,-4.16 a 1,1 0 0 0 0,-1.47 1,1 0 0 0 -1.46,0 L 24.91,17 v -2.28 a 1.04,1.04 0 1 0 -2.08,0 v 4.64 a 0.43,0.43 0 0 0 0,0.05 v 0.05 a 1.09,1.09 0 0 0 1.11,1.04 z" style="fill:#fff"/><path id="path1242" d="m 18.13,13.62 a 1.08,1.08 0 0 0 -1,1.09 V 17 l -4.18,-4.19 a 1,1 0 0 0 -1.47,0 1,1 0 0 0 0,1.46 l 4.16,4.17 h -2.29 a 1.04,1.04 0 1 0 0,2.08 h 4.71 a 1.09,1.09 0 0 0 1.11,-1 c 0,0 0,0 0,-0.06 v -4.75 a 1.07,1.07 0 0 0 -1.04,-1.09 z" style="fill:#fff"/></g></g></g></g><g id="g1268" transform="matrix(0.396875,0,0,0.396875,42.33333,19.42612)"><path id="path1254" d="m 8.5,8.5 v -4 a 4,4 90 0 1 4,-4 h 4 10 30 4 a 4,4 90 0 1 4,4 v 4 h -4 v -3 h -4 v 10 h 4 v -3 h 4 v 17 h -4 v -3 h -4 v 10 h 4 v -3 h 4 v 4 a 4,4 90 0 1 -4,4 h -4 -30 -10 -4 a 4,4 90 0 1 -4,-4 v -4 -21 -1 h -6 v 3 h -2 v -8 h 2 v 3 h 6 z" style="fill:#ff6ea1;fill-opacity:1;stroke:#ff2c76;stroke-width:1;stroke-linecap:round;stroke-opacity:1"/><text id="text1258" style="font-size:9px;font-family:sans-serif;text-anchor:end;fill:#282828"><tspan id="tspan1256" x="54" y="23">➗</tspan></text></g><g id="g1278" transform="matrix(0.396875,0,0,0.396875,65.0875,19.42612)"><path id="path1272" d="m 8.5,0.5 h 60 v 20 h -60 v -8 -1 h -6 v 3 h -2 v -8 h 2 v 3 h 6 v -1 z" style="fill:#ff6ea1;fill-opacity:1;stroke:#ff2c76;stroke-width:1;stroke-linecap:round;stroke-opacity:1"/><text id="text1276" style="font-size:10px;font-family:sans-serif;text-anchor:start;fill:#282828"><tspan id="tspan1274" x="13" y="14">1</tspan></text></g><g id="g1288" transform="matrix(0.396875,0,0,0.396875,65.0875,27.89278)"><path id="path1282" d="m 8.5,0.5 h 60 v 20 h -60 v -8 -1 h -6 v 3 h -2 v -8 h 2 v 3 h 6 v -1 z" style="fill:#ff6ea1;fill-opacity:1;stroke:#ff2c76;stroke-width:1;stroke-linecap:round;stroke-opacity:1"/><text id="text1286" style="font-size:10px;font-family:sans-serif;text-anchor:start;fill:#282828"><tspan id="tspan1284" x="13" y="14">4</tspan></text></g><g id="g1298" transform="matrix(0.396875,0,0,0.396875,11.1125,27.89278)"><path id="path1292" d="m 0.5,8.5 v -4 a 4,4 90 0 1 4,-4 h 4 v 2 h 10 v -2 h 20 4 a 4,4 90 0 1 4,4 v 4 4 4 a 4,4 90 0 1 -4,4 h -4 -20 -1 v 2 h -8 v -2 h -1 -4 a 4,4 90 0 1 -4,-4 v -4 z" style="fill:#c4c4c4;fill-opacity:1;stroke:#a0a0a0;stroke-width:1;stroke-linecap:round;stroke-opacity:1"/><text id="text1296" style="font-size:10px;font-family:sans-serif;text-anchor:end;fill:#282828"><tspan id="tspan1294" x="36" y="14">↓</tspan></text></g><g id="g1316" transform="matrix(0.396875,0,0,0.396875,28.575011,36.35945)"><path id="path1302" d="m -43.499999,8.5 v -4 c 0,-2.209139 1.790861,-4 4,-4 h 4 v 2 h 10 v -2 H 48.5 h 4 c 2.209139,0 4,1.790861 4,4 v 4 h -4 v -3 h -4 v 10 h 4 v -3 h 4 v 17 h -4 v -3 h -4 v 10 h 4 v -3 h 4 v 4 c 0,2.209139 -1.790861,4 -4,4 h -4 -73.999999 -1 v 2 h -8 v -2 h -1 -4 c -2.209139,0 -4,-1.790861 -4,-4 v -4 -21 z" style="fill:#7cd622;fill-opacity:1;stroke:#57ad02;stroke-width:1;stroke-linecap:round;stroke-opacity:1"/><text id="text1306" style="font-size:10px;font-family:sans-serif;text-anchor:end;fill:#282828"><tspan id="tspan1304" x="46" y="24">determinar o tom</tspan></text><text id="text1310" style="font-size:6.66666651px;font-family:sans-serif;text-anchor:end;fill:#282828"><tspan id="tspan1308" x="46" y="12">nome</tspan></text><text id="text1314" style="font-size:6.66666651px;font-family:sans-serif;text-anchor:end;fill:#282828"><tspan id="tspan1312" x="46" y="33">oitava</tspan></text></g><g id="g1326" transform="matrix(0.396875,0,0,0.396875,48.154181,36.35945)"><path id="path1320" d="m 8.5,0.5 h 60 v 20 h -60 v -8 -1 h -6 v 3 h -2 v -8 h 2 v 3 h 6 v -1 z" style="fill:#7cd622;fill-opacity:1;stroke:#57ad02;stroke-width:1;stroke-linecap:round;stroke-opacity:1"/><text id="text1324" style="font-size:10px;font-family:sans-serif;text-anchor:start;fill:#282828"><tspan id="tspan1322" x="13" y="14">sol</tspan></text></g><g id="g1336" transform="matrix(0.396875,0,0,0.396875,48.154181,44.82612)"><path id="path1330" d="m 8.5,0.5 h 60 v 20 h -60 v -8 -1 h -6 v 3 h -2 v -8 h 2 v 3 h 6 v -1 z" style="fill:#ff6ea1;fill-opacity:1;stroke:#ff2c76;stroke-width:1;stroke-linecap:round;stroke-opacity:1"/><text id="text1334" style="font-size:10px;font-family:sans-serif;text-anchor:start;fill:#282828"><tspan id="tspan1332" x="13" y="14">4</tspan></text></g><g id="g1352" transform="matrix(0.26458333,0,0,0.26458333,7.4083294,61.23028)"><g id="g1350" transform="scale(1.5)"><path id="path1340" d="m 0.5,8.5 v -4 a 4,4 90 0 1 4,-4 h 4 v 2 h 10 v -2 h 9 60 4 a 4,4 90 0 1 4,4 v 4 h -4 v -3 h -4 v 10 h 4 v -3 h 4 v 4 a 4,4 90 0 1 -4,4 h -4 -60 -1 v 2 h -8 v -2 h -1 -4 a 5,5 90 0 0 -5,5 v 4 4 42 4 a 5,5 90 0 0 5,5 h 4 v 2 h 10 v -2 h 8 v 6 6 4 a 4,4 90 0 1 -4,4 h -4 -9 -1 v 2 h -8 v -2 h -1 -4 a 4,4 90 0 1 -4,-4 v -4 z" style="fill:#fe994f;fill-opacity:1;stroke:#e86b0e;stroke-width:1;stroke-linecap:round;stroke-opacity:1"/><text id="text1344" style="font-size:10px;font-family:sans-serif;text-anchor:start;fill:#282828"><tspan id="tspan1342" x="20" y="15">nota</tspan></text><text id="text1348" style="font-size:6.66666651px;font-family:sans-serif;text-anchor:end;fill:#282828"><tspan id="tspan1346" x="85" y="12">valor</tspan></text></g></g><g id="g1370" transform="matrix(0.13229166,0,0,0.13229166,7.4083294,62.288614)"><g id="g1368" style="isolation:isolate"><g id="g1366" data-name="レイヤー 2"><g id="g1364"><rect id="rect1354" width="42" height="42" x="0" y="0" rx="5" ry="5" style="opacity:.4;mix-blend-mode:multiply;fill:#292929"/><path id="path1356" d="m 30.56,29.8 -4.17,-4.16 h 2.26 a 1.035,1.035 0 1 0 0,-2.07 h -4.71 a 1.08,1.08 0 0 0 -1.11,1 v 0 c 0,0 0,0 0,0.06 v 4.64 0 a 1.04,1.04 0 1 0 2.08,0 v -2.19 l 4.19,4.19 a 1,1 0 0 0 1.46,0 1,1 0 0 0 0,-1.47 z" style="fill:#fff"/><path id="path1358" d="m 19.17,24.6 a 1.08,1.08 0 0 0 -1.11,-1 h -4.71 a 1.035,1.035 0 1 0 0,2.07 h 2.25 l -4.16,4.13 a 1.039447,1.039447 0 0 0 1.47,1.47 l 4.18,-4.19 v 2.26 a 1.04,1.04 0 1 0 2.08,0 V 24.7 c 0,0 0,0 0,-0.06 a 0.08,0.08 0 0 1 0,-0.04 z" style="fill:#fff"/><path id="path1360" d="m 23.94,20.5 h 4.7 a 1.04,1.04 0 1 0 0,-2.08 h -2.25 l 4.17,-4.16 a 1,1 0 0 0 0,-1.47 1,1 0 0 0 -1.46,0 L 24.91,17 v -2.28 a 1.04,1.04 0 1 0 -2.08,0 v 4.64 a 0.43,0.43 0 0 0 0,0.05 v 0.05 a 1.09,1.09 0 0 0 1.11,1.04 z" style="fill:#fff"/><path id="path1362" d="m 18.13,13.62 a 1.08,1.08 0 0 0 -1,1.09 V 17 l -4.18,-4.19 a 1,1 0 0 0 -1.47,0 1,1 0 0 0 0,1.46 l 4.16,4.17 h -2.29 a 1.04,1.04 0 1 0 0,2.08 h 4.71 a 1.09,1.09 0 0 0 1.11,-1 c 0,0 0,0 0,-0.06 v -4.75 a 1.07,1.07 0 0 0 -1.04,-1.09 z" style="fill:#fff"/></g></g></g></g><g id="g1388" transform="matrix(0.396875,0,0,0.396875,42.33333,61.23028)"><path id="path1374" d="m 8.5,8.5 v -4 a 4,4 90 0 1 4,-4 h 4 10 30 4 a 4,4 90 0 1 4,4 v 4 h -4 v -3 h -4 v 10 h 4 v -3 h 4 v 17 h -4 v -3 h -4 v 10 h 4 v -3 h 4 v 4 a 4,4 90 0 1 -4,4 h -4 -30 -10 -4 a 4,4 90 0 1 -4,-4 v -4 -21 -1 h -6 v 3 h -2 v -8 h 2 v 3 h 6 z" style="fill:#ff6ea1;fill-opacity:1;stroke:#ff2c76;stroke-width:1;stroke-linecap:round;stroke-opacity:1"/><text id="text1378" style="font-size:9px;font-family:sans-serif;text-anchor:end;fill:#282828"><tspan id="tspan1376" x="54" y="23">➗</tspan></text></g><g id="g1398" transform="matrix(0.396875,0,0,0.396875,65.0875,61.23028)"><path id="path1392" d="m 8.5,0.5 h 60 v 20 h -60 v -8 -1 h -6 v 3 h -2 v -8 h 2 v 3 h 6 v -1 z" style="fill:#ff6ea1;fill-opacity:1;stroke:#ff2c76;stroke-width:1;stroke-linecap:round;stroke-opacity:1"/><text id="text1396" style="font-size:10px;font-family:sans-serif;text-anchor:start;fill:#282828"><tspan id="tspan1394" x="13" y="14">1</tspan></text></g><g id="g1408" transform="matrix(0.396875,0,0,0.396875,65.0875,69.69695)"><path id="path1402" d="m 8.5,0.5 h 60 v 20 h -60 v -8 -1 h -6 v 3 h -2 v -8 h 2 v 3 h 6 v -1 z" style="fill:#ff6ea1;fill-opacity:1;stroke:#ff2c76;stroke-width:1;stroke-linecap:round;stroke-opacity:1"/><text id="text1406" style="font-size:10px;font-family:sans-serif;text-anchor:start;fill:#282828"><tspan id="tspan1404" x="13" y="14">4</tspan></text></g><g id="g1418" transform="matrix(0.396875,0,0,0.396875,11.1125,69.69695)"><path id="path1412" d="m 0.5,8.5 v -4 a 4,4 90 0 1 4,-4 h 4 v 2 h 10 v -2 h 20 4 a 4,4 90 0 1 4,4 v 4 4 4 a 4,4 90 0 1 -4,4 h -4 -20 -1 v 2 h -8 v -2 h -1 -4 a 4,4 90 0 1 -4,-4 v -4 z" style="fill:#c4c4c4;fill-opacity:1;stroke:#a0a0a0;stroke-width:1;stroke-linecap:round;stroke-opacity:1"/><text id="text1416" style="font-size:10px;font-family:sans-serif;text-anchor:end;fill:#282828"><tspan id="tspan1414" x="36" y="14">↓</tspan></text></g><g id="g1436" transform="matrix(0.396875,0,0,0.396875,28.575011,78.16362)"><path id="path1422" d="m -43.499999,8.5 v -4 c 0,-2.209139 1.790861,-4 4,-4 h 4 v 2 h 10 v -2 H 48.5 h 4 c 2.209139,0 4,1.790861 4,4 v 4 h -4 v -3 h -4 v 10 h 4 v -3 h 4 v 17 h -4 v -3 h -4 v 10 h 4 v -3 h 4 v 4 c 0,2.209139 -1.790861,4 -4,4 h -4 -73.999999 -1 v 2 h -8 v -2 h -1 -4 c -2.209139,0 -4.698592,-1.904227 -4,-4 v -4 -21 z" style="fill:#7cd622;fill-opacity:1;stroke:#57ad02;stroke-width:1;stroke-linecap:round;stroke-opacity:1"/><text id="text1426" style="font-size:10px;font-family:sans-serif;text-anchor:end;fill:#282828"><tspan id="tspan1424" x="46" y="24">determinar o tom</tspan></text><text id="text1430" style="font-size:6.66666651px;font-family:sans-serif;text-anchor:end;fill:#282828"><tspan id="tspan1428" x="46" y="12">nome</tspan></text><text id="text1434" style="font-size:6.66666651px;font-family:sans-serif;text-anchor:end;fill:#282828"><tspan id="tspan1432" x="46" y="33">oitava</tspan></text></g><g id="g1446" transform="matrix(0.396875,0,0,0.396875,48.154181,78.16362)"><path id="path1440" d="m 8.5,0.5 h 60 v 20 h -60 v -8 -1 h -6 v 3 h -2 v -8 h 2 v 3 h 6 v -1 z" style="fill:#7cd622;fill-opacity:1;stroke:#57ad02;stroke-width:1;stroke-linecap:round;stroke-opacity:1"/><text id="text1444" style="font-size:10px;font-family:sans-serif;text-anchor:start;fill:#282828"><tspan id="tspan1442" x="13" y="14">la</tspan></text></g><g id="g1456" transform="matrix(0.396875,0,0,0.396875,48.154181,86.63028)"><path id="path1450" d="m 8.5,0.5 h 60 v 20 h -60 v -8 -1 h -6 v 3 h -2 v -8 h 2 v 3 h 6 v -1 z" style="fill:#ff6ea1;fill-opacity:1;stroke:#ff2c76;stroke-width:1;stroke-linecap:round;stroke-opacity:1"/><text id="text1454" style="font-size:10px;font-family:sans-serif;text-anchor:start;fill:#282828"><tspan id="tspan1452" x="13" y="14">4</tspan></text></g><g id="g1472" transform="matrix(0.26458333,0,0,0.26458333,7.4083294,103.03445)"><g id="g1470" transform="scale(1.5)"><path id="path1460" d="m 0.5,8.5 v -4 a 4,4 90 0 1 4,-4 h 4 v 2 h 10 v -2 h 9 60 4 a 4,4 90 0 1 4,4 v 4 h -4 v -3 h -4 v 10 h 4 v -3 h 4 v 4 a 4,4 90 0 1 -4,4 h -4 -60 -1 v 2 h -8 v -2 h -1 -4 a 5,5 90 0 0 -5,5 v 4 4 42 4 a 5,5 90 0 0 5,5 h 4 v 2 h 10 v -2 h 8 v 6 6 4 a 4,4 90 0 1 -4,4 h -4 -9 -1 v 2 h -8 v -2 h -1 -4 a 4,4 90 0 1 -4,-4 v -4 z" style="fill:#fe994f;fill-opacity:1;stroke:#e86b0e;stroke-width:1;stroke-linecap:round;stroke-opacity:1"/><text id="text1464" style="font-size:10px;font-family:sans-serif;text-anchor:start;fill:#282828"><tspan id="tspan1462" x="20" y="15">nota</tspan></text><text id="text1468" style="font-size:6.66666651px;font-family:sans-serif;text-anchor:end;fill:#282828"><tspan id="tspan1466" x="85" y="12">valor</tspan></text></g></g><g id="g1490" transform="matrix(0.13229166,0,0,0.13229166,7.4083294,104.09278)"><g id="g1488" style="isolation:isolate"><g id="g1486" data-name="レイヤー 2"><g id="g1484"><rect id="rect1474" width="42" height="42" x="0" y="0" rx="5" ry="5" style="opacity:.4;mix-blend-mode:multiply;fill:#292929"/><path id="path1476" d="m 30.56,29.8 -4.17,-4.16 h 2.26 a 1.035,1.035 0 1 0 0,-2.07 h -4.71 a 1.08,1.08 0 0 0 -1.11,1 v 0 c 0,0 0,0 0,0.06 v 4.64 0 a 1.04,1.04 0 1 0 2.08,0 v -2.19 l 4.19,4.19 a 1,1 0 0 0 1.46,0 1,1 0 0 0 0,-1.47 z" style="fill:#fff"/><path id="path1478" d="m 19.17,24.6 a 1.08,1.08 0 0 0 -1.11,-1 h -4.71 a 1.035,1.035 0 1 0 0,2.07 h 2.25 l -4.16,4.13 a 1.039447,1.039447 0 0 0 1.47,1.47 l 4.18,-4.19 v 2.26 a 1.04,1.04 0 1 0 2.08,0 V 24.7 c 0,0 0,0 0,-0.06 a 0.08,0.08 0 0 1 0,-0.04 z" style="fill:#fff"/><path id="path1480" d="m 23.94,20.5 h 4.7 a 1.04,1.04 0 1 0 0,-2.08 h -2.25 l 4.17,-4.16 a 1,1 0 0 0 0,-1.47 1,1 0 0 0 -1.46,0 L 24.91,17 v -2.28 a 1.04,1.04 0 1 0 -2.08,0 v 4.64 a 0.43,0.43 0 0 0 0,0.05 v 0.05 a 1.09,1.09 0 0 0 1.11,1.04 z" style="fill:#fff"/><path id="path1482" d="m 18.13,13.62 a 1.08,1.08 0 0 0 -1,1.09 V 17 l -4.18,-4.19 a 1,1 0 0 0 -1.47,0 1,1 0 0 0 0,1.46 l 4.16,4.17 h -2.29 a 1.04,1.04 0 1 0 0,2.08 h 4.71 a 1.09,1.09 0 0 0 1.11,-1 c 0,0 0,0 0,-0.06 v -4.75 a 1.07,1.07 0 0 0 -1.04,-1.09 z" style="fill:#fff"/></g></g></g></g><g id="g1508" transform="matrix(0.396875,0,0,0.396875,42.33333,103.03445)"><path id="path1494" d="m 8.5,8.5 v -4 a 4,4 90 0 1 4,-4 h 4 10 30 4 a 4,4 90 0 1 4,4 v 4 h -4 v -3 h -4 v 10 h 4 v -3 h 4 v 17 h -4 v -3 h -4 v 10 h 4 v -3 h 4 v 4 a 4,4 90 0 1 -4,4 h -4 -30 -10 -4 a 4,4 90 0 1 -4,-4 v -4 -21 -1 h -6 v 3 h -2 v -8 h 2 v 3 h 6 z" style="fill:#ff6ea1;fill-opacity:1;stroke:#ff2c76;stroke-width:1;stroke-linecap:round;stroke-opacity:1"/><text id="text1498" style="font-size:9px;font-family:sans-serif;text-anchor:end;fill:#282828"><tspan id="tspan1496" x="54" y="23">➗</tspan></text></g><g id="g1518" transform="matrix(0.396875,0,0,0.396875,65.0875,103.03445)"><path id="path1512" d="m 8.5,0.5 h 60 v 20 h -60 v -8 -1 h -6 v 3 h -2 v -8 h 2 v 3 h 6 v -1 z" style="fill:#ff6ea1;fill-opacity:1;stroke:#ff2c76;stroke-width:1;stroke-linecap:round;stroke-opacity:1"/><text id="text1516" style="font-size:10px;font-family:sans-serif;text-anchor:start;fill:#282828"><tspan id="tspan1514" x="13" y="14">1</tspan></text></g><g id="g1528" transform="matrix(0.396875,0,0,0.396875,65.0875,111.50112)"><path id="path1522" d="m 8.5,0.5 h 60 v 20 h -60 v -8 -1 h -6 v 3 h -2 v -8 h 2 v 3 h 6 v -1 z" style="fill:#ff6ea1;fill-opacity:1;stroke:#ff2c76;stroke-width:1;stroke-linecap:round;stroke-opacity:1"/><text id="text1526" style="font-size:10px;font-family:sans-serif;text-anchor:start;fill:#282828"><tspan id="tspan1524" x="13" y="14">4</tspan></text></g><g id="g1538" transform="matrix(0.396875,0,0,0.396875,11.1125,111.50112)"><path id="path1532" d="m 0.5,8.5 v -4 a 4,4 90 0 1 4,-4 h 4 v 2 h 10 v -2 h 20 4 a 4,4 90 0 1 4,4 v 4 4 4 a 4,4 90 0 1 -4,4 h -4 -20 -1 v 2 h -8 v -2 h -1 -4 a 4,4 90 0 1 -4,-4 v -4 z" style="fill:#c4c4c4;fill-opacity:1;stroke:#a0a0a0;stroke-width:1;stroke-linecap:round;stroke-opacity:1"/><text id="text1536" style="font-size:10px;font-family:sans-serif;text-anchor:end;fill:#282828"><tspan id="tspan1534" x="36" y="14">↓</tspan></text></g><g id="g1556" transform="matrix(0.396875,0,0,0.396875,28.575011,119.96778)"><path id="path1542" d="m -43.499999,8.5 v -4 c 0,-2.209139 1.790861,-4 4,-4 h 4 v 2 h 10 v -2 H 48.5 h 4 c 2.209139,0 4,1.790861 4,4 v 4 h -4 v -3 h -4 v 10 h 4 v -3 h 4 v 17 h -4 v -3 h -4 v 10 h 4 v -3 h 4 v 4 c 0,2.209139 -1.790861,4 -4,4 h -4 -73.999999 -1 v 2 h -8 v -2 h -1 -4 c -2.209139,0 -4,-1.790861 -4,-4 v -4 -21 z" style="fill:#7cd622;fill-opacity:1;stroke:#57ad02;stroke-width:1;stroke-linecap:round;stroke-opacity:1"/><text id="text1546" style="font-size:10px;font-family:sans-serif;text-anchor:end;fill:#282828"><tspan id="tspan1544" x="46" y="24">determinar o tom</tspan></text><text id="text1550" style="font-size:6.66666651px;font-family:sans-serif;text-anchor:end;fill:#282828"><tspan id="tspan1548" x="46" y="12">nome</tspan></text><text id="text1554" style="font-size:6.66666651px;font-family:sans-serif;text-anchor:end;fill:#282828"><tspan id="tspan1552" x="46" y="33">oitava</tspan></text></g><g id="g1566" transform="matrix(0.396875,0,0,0.396875,48.154181,119.96778)"><path id="path1560" d="m 8.5,0.5 h 60 v 20 h -60 v -8 -1 h -6 v 3 h -2 v -8 h 2 v 3 h 6 v -1 z" style="fill:#7cd622;fill-opacity:1;stroke:#57ad02;stroke-width:1;stroke-linecap:round;stroke-opacity:1"/><text id="text1564" style="font-size:10px;font-family:sans-serif;text-anchor:start;fill:#282828"><tspan id="tspan1562" x="13" y="14">si</tspan></text></g><g id="g1576" transform="matrix(0.396875,0,0,0.396875,48.154181,128.43445)"><path id="path1570" d="m 8.5,0.5 h 60 v 20 h -60 v -8 -1 h -6 v 3 h -2 v -8 h 2 v 3 h 6 v -1 z" style="fill:#ff6ea1;fill-opacity:1;stroke:#ff2c76;stroke-width:1;stroke-linecap:round;stroke-opacity:1"/><text id="text1574" style="font-size:10px;font-family:sans-serif;text-anchor:start;fill:#282828"><tspan id="tspan1572" x="13" y="14">4</tspan></text></g><g id="g1590" transform="matrix(0.396875,0,0,0.396875,3.70417,10.95945)"><path id="path1580" d="m 0.5,8.5 v -4 a 4,4 90 0 1 4,-4 h 4 v 2 h 10 v -2 h 9 30.029297 4 a 4,4 90 0 1 4,4 v 4 h -4 v -3 h -4 v 10 h 4 v -3 h 4 v 4 a 4,4 90 0 1 -4,4 h -4 H 27.5 h -1 v 2 h -8 v -2 h -1 -4 a 5,5 90 0 0 -5,5 v 4 4 294 4 a 5,5 90 0 0 5,5 h 4 v 2 h 10 v -2 h 8 v 6 6 4 a 4,4 90 0 1 -4,4 h -4 -9 -1 v 2 h -8 v -2 h -1 -4 a 4,4 90 0 1 -4,-4 v -4 z" style="fill:#d98a43;fill-opacity:1;stroke:#b7651a;stroke-width:1;stroke-linecap:round;stroke-opacity:1"/><text id="text1584" style="font-size:10px;font-family:sans-serif;text-anchor:start;fill:#282828"><tspan id="tspan1582" x="5" y="15">duplicar</tspan></text></g><g id="g1600" transform="matrix(0.396875,0,0,0.396875,26.72292,10.95945)"><path id="path1594" d="m 8.5,0.5 h 60 v 20 h -60 v -8 -1 h -6 v 3 h -2 v -8 h 2 v 3 h 6 v -1 z" style="fill:#ff6ea1;fill-opacity:1;stroke:#ff2c76;stroke-width:1;stroke-linecap:round;stroke-opacity:1"/><text id="text1598" style="font-size:10px;font-family:sans-serif;text-anchor:start;fill:#282828"><tspan id="tspan1596" x="13" y="14">2</tspan></text></g><g id="g1612" transform="matrix(0.26458333,0,0,0.26458333,-3.82e-6,0.1115312)"><g id="g1610" transform="scale(1.5)"><path id="path1604" d="m 0.5,14.5 v -4 a 4,4 90 0 1 4,-4 h 4 l 5,-6 5,6 h 9 60 4 a 4,4 90 0 1 4,4 v 4 4 4 a 4,4 90 0 1 -4,4 h -4 -60 -1 v 2 h -8 v -2 h -1 -4 a 5,5 90 0 0 -5,5 v 4 4 336 4 a 5,5 90 0 0 5,5 h 4 v 2 h 10 v -2 h 8 v 6 6 4 a 4,4 90 0 1 -4,4 h -4 -9 l -5,6 -5,-6 h -4 a 4,4 90 0 1 -4,-4 v -4 z" style="fill:#ffbf00;fill-opacity:1;stroke:#daaf30;stroke-width:1;stroke-linecap:round;stroke-opacity:1"/><text id="text1608" style="font-size:10px;font-family:sans-serif;text-anchor:start;fill:#282828"><tspan id="tspan1606" x="20" y="22">iniciar</tspan></text></g></g><g id="g1630" transform="matrix(0.13229166,0,0,0.13229166,-3.82e-6,3.2865312)"><g id="g1628" style="isolation:isolate"><g id="g1626" data-name="レイヤー 2"><g id="g1624"><rect id="rect1614" width="42" height="42" x="0" y="0" rx="5" ry="5" style="opacity:.4;mix-blend-mode:multiply;fill:#292929"/><path id="path1616" d="m 30.56,29.8 -4.17,-4.16 h 2.26 a 1.035,1.035 0 1 0 0,-2.07 h -4.71 a 1.08,1.08 0 0 0 -1.11,1 v 0 c 0,0 0,0 0,0.06 v 4.64 0 a 1.04,1.04 0 1 0 2.08,0 v -2.19 l 4.19,4.19 a 1,1 0 0 0 1.46,0 1,1 0 0 0 0,-1.47 z" style="fill:#fff"/><path id="path1618" d="m 19.17,24.6 a 1.08,1.08 0 0 0 -1.11,-1 h -4.71 a 1.035,1.035 0 1 0 0,2.07 h 2.25 l -4.16,4.13 a 1.039447,1.039447 0 0 0 1.47,1.47 l 4.18,-4.19 v 2.26 a 1.04,1.04 0 1 0 2.08,0 V 24.7 c 0,0 0,0 0,-0.06 a 0.08,0.08 0 0 1 0,-0.04 z" style="fill:#fff"/><path id="path1620" d="m 23.94,20.5 h 4.7 a 1.04,1.04 0 1 0 0,-2.08 h -2.25 l 4.17,-4.16 a 1,1 0 0 0 0,-1.47 1,1 0 0 0 -1.46,0 L 24.91,17 v -2.28 a 1.04,1.04 0 1 0 -2.08,0 v 4.64 a 0.43,0.43 0 0 0 0,0.05 v 0.05 a 1.09,1.09 0 0 0 1.11,1.04 z" style="fill:#fff"/><path id="path1622" d="m 18.13,13.62 a 1.08,1.08 0 0 0 -1,1.09 V 17 l -4.18,-4.19 a 1,1 0 0 0 -1.47,0 1,1 0 0 0 0,1.46 l 4.16,4.17 h -2.29 a 1.04,1.04 0 1 0 0,2.08 h 4.71 a 1.09,1.09 0 0 0 1.11,-1 c 0,0 0,0 0,-0.06 v -4.75 a 1.07,1.07 0 0 0 -1.04,-1.09 z" style="fill:#fff"/></g></g></g></g><g id="g1668" transform="matrix(0.10583333,0,0,0.10583333,29.104162,3.2865312)"><g id="g1666" transform="translate(-3.1884835,0.12548216)" style="fill:#00f3db;stroke:#008283;stroke-width:1.99999976;stroke-miterlimit:4;stroke-dasharray:none"><path id="path1632" d="m 31.188483,5.8745178 c 0,0 -1.254644,-1 -2,-1 -1.490712,0 -2.945907,0.9459074 -4,2 -1.581139,1.5811389 -1.692548,4.1860072 -3,6.0000002 -0.826905,1.14727 -1.85273,2.173095 -3,3 -1.813992,1.307452 -4.41886,1.418861 -5.999999,3 -1.054093,1.054093 -2,2.509288 -2,4 0,1.490712 1.176934,3.540162 2,4 2.595129,1.449868 0.836609,0.648512 2,2 0,0 -1.040434,3.300808 -1,5 0.06539,2.747959 1.999999,7 1.999999,8 0,1 3.621931,4.46873 6,6 2.394526,1.541867 5.323775,2.059095 8.164792,2.258437 3.065644,0.215103 5.976447,-0.356365 8.670416,-1.835208 1.652944,-0.907377 3.020234,-1.924716 4.164792,-3.423229 1.631246,-2.13571 3.310226,-4.40261 4,-7 0.42778,-1.610833 0.203639,-3.345821 0,-5 -0.167925,-1.364071 -1.27205,-2.652826 -1,-4 0.329909,-1.633688 2.319717,-2.47849 3,-4 0.693755,-1.551642 1.687609,-3.445625 1,-5 -0.786311,-1.777496 -3.357594,-1.960634 -5,-3 -1.015577,-0.642689 -2.106041,-1.196706 -3,-2 -1.93647,-1.740075 -3.442391,-3.913943 -5,-6.0000002 -0.71906,-0.9630146 -1.044881,-2.2704844 -2,-3 -0.837694,-0.6398275 -1.974105,-1.2421808 -3,-1 -0.458794,0.1083066 -1,1 -1,1" style="fill:#00f3db;stroke:none;stroke-width:1px;stroke-linecap:butt;stroke-linejoin:miter;stroke-opacity:1"/><path style="fill:none;stroke:#008283;stroke-width:1.95427048;stroke-linecap:round;stroke-linejoin:miter;stroke-miterlimit:4;stroke-dasharray:none;stroke-opacity:1" id="path1634" d="m 46.209786,28.156906 c 0,0 1.463947,5.738921 1.001084,8.583832 -0.503422,3.094194 -1.733796,6.320068 -4.004337,8.583833 -2.061998,2.055845 -3.20724,2.828474 -6.006505,3.815036 -1.290398,0.454783 -4.973515,0.953759 -6.514048,0.953759 -1.540535,0 -5.223651,-0.498977 -6.514049,-0.95376 -2.799265,-0.986562 -3.944507,-1.759191 -6.006506,-3.815036 -2.270541,-2.263765 -3.500915,-5.489639 -4.004337,-8.583833 -0.462863,-2.844911 1.001084,-8.583832 1.001084,-8.583832 M 28.176267,22.43435 c 0,0 -4.122174,4.705629 -7.007589,5.722555 -1.877805,0.661806 -4.201946,0.826315 -6.006506,0 -1.925806,-0.881834 -3.58357,-2.772978 -4.004337,-4.768796 -0.478397,-2.26917 0.558956,-4.123549 2.470477,-5.529022 2.067374,-1.520067 4.598363,-1.662883 6.539282,-3.054811 2.515152,-1.803739 2.912345,-5.389772 5.005421,-7.6300732 1.420632,-1.520559 5.512965,-3.8150366 5.512965,-3.8150366 0,0 4.092331,2.2944775 5.512964,3.8150365 2.093073,2.2403013 2.490269,5.8263353 5.005421,7.6300743 1.940919,1.391928 4.538808,1.465531 6.606183,2.927334 1.937249,1.369793 2.881973,3.387329 2.403575,5.656499 -0.420767,1.995818 -2.078532,3.886962 -4.004337,4.768796 -1.80456,0.826315 -4.1287,0.661806 -6.006505,0 -2.885416,-1.016926 -7.00759,-5.722555 -7.00759,-5.722555"/><g style="fill:none;stroke:#008283;stroke-opacity:1" id="g1648" transform="matrix(1.0010843,0,0,0.95375917,57.401951,5.3863652)"><g style="fill:none;stroke:#008283;stroke-opacity:1" id="g1640" transform="translate(0,-1)"><path style="fill:none;fill-rule:evenodd;stroke:#008283;stroke-width:1.93205309;stroke-linecap:butt;stroke-linejoin:miter;stroke-miterlimit:4;stroke-dasharray:none;stroke-opacity:1" id="path1636" d="M -30.228157,8.514322 C -33.422908,9.40349 -38.624018,5.874516 -40.102591,4.585664"/><path style="fill:none;fill-rule:evenodd;stroke:#008283;stroke-width:1.93205309;stroke-linecap:butt;stroke-linejoin:miter;stroke-miterlimit:4;stroke-dasharray:none;stroke-opacity:1" id="path1638" d="M -29.760199,5.904536 C -33.101366,5.473905 -35.931474,3.7361852 -37.633646,2.3416285"/></g><g style="fill:none;stroke:#008283;stroke-opacity:1" id="g1646"><path style="fill:none;fill-rule:evenodd;stroke:#008283;stroke-width:1.93205309;stroke-linecap:butt;stroke-linejoin:miter;stroke-miterlimit:4;stroke-dasharray:none;stroke-opacity:1" id="path1642" d="m -23.145912,7.514322 c 3.194751,0.889168 8.395861,-2.639806 9.874434,-3.928658"/><path style="fill:none;fill-rule:evenodd;stroke:#008283;stroke-width:1.93205309;stroke-linecap:butt;stroke-linejoin:miter;stroke-miterlimit:4;stroke-dasharray:none;stroke-opacity:1" id="path1644" d="m -23.61387,4.904536 c 3.341167,-0.430631 6.171275,-2.168351 7.873447,-3.5629075"/></g></g><g style="fill:#fff;fill-opacity:.94117647;stroke:#008283;stroke-opacity:1" id="g1654" transform="matrix(1.0010843,0,0,0.95375917,57.930597,3.4788469)"><ellipse style="fill:#fff;fill-opacity:.94117647;fill-rule:evenodd;stroke:#008283;stroke-width:1.99999976;stroke-linecap:butt;stroke-linejoin:miter;stroke-miterlimit:4;stroke-dasharray:none;stroke-opacity:1" id="ellipse1650" cx="-30.837" cy="14.613" rx="1.885" ry="2.067"/><ellipse style="fill:#fff;fill-opacity:.94117647;fill-rule:evenodd;stroke:#008283;stroke-width:1.99999976;stroke-linecap:butt;stroke-linejoin:miter;stroke-miterlimit:4;stroke-dasharray:none;stroke-opacity:1" id="ellipse1652" cx="-23.593" cy="14.699" rx="1.885" ry="2.067"/></g><g style="fill:none;stroke:#008283;stroke-opacity:1" id="g1660" transform="matrix(1.0010843,0,0,0.95375917,58.02711,3.4788469)"><path style="fill:none;fill-rule:evenodd;stroke:#008283;stroke-width:1px;stroke-linecap:butt;stroke-linejoin:miter;stroke-miterlimit:4;stroke-dasharray:none;stroke-opacity:1" id="path1656" d="m -37.186516,14.624518 c -14.340024,2.75008 -4.810404,15.671871 4.375,5.25"/><path style="fill:none;fill-rule:evenodd;stroke:#008283;stroke-width:1px;stroke-linecap:butt;stroke-linejoin:miter;stroke-miterlimit:4;stroke-dasharray:none;stroke-opacity:1" id="path1658" d="m -17.436517,14.624518 c 14.3400245,2.75008 4.810404,15.671872 -4.375,5.25"/></g><path style="fill:#008283;fill-opacity:1;fill-rule:evenodd;stroke:#008283;stroke-width:2.16383076;stroke-linecap:butt;stroke-linejoin:miter;stroke-miterlimit:4;stroke-dasharray:none;stroke-opacity:1" id="path1662" d="m 33.12784,3.3591671 c -1.384692,1.3140551 -1.985761,2.3793068 -2.459835,2.3793068 -0.662709,0 -1.27278,-1.0652517 -2.459836,-2.3793068 -0.97292,-1.0770097 1.101306,-2.37930771 2.459836,-2.37930771 1.358531,0 3.532987,1.36090081 2.459835,2.37930771 z"/><path id="path1664" d="m 31.302308,50.085622 c 0,0 0.723125,3.123831 5.500191,3.669996 4.777067,0.546166 11.784656,-3.778776 14.78791,-9.501331 3.003254,-5.722555 2.402683,-11.490783 3.003253,-18.121425" style="fill:none;stroke:#008283;stroke-width:1.95427048;stroke-linecap:round;stroke-linejoin:miter;stroke-miterlimit:4;stroke-dasharray:none;stroke-opacity:1"/></g></g></svg>