<svg xmlns="http://www.w3.org/2000/svg" xmlns:svg="http://www.w3.org/2000/svg" id="svg2831" width="159" height="97.5" version="1.1" viewBox="0 0 42.069 25.797"><metadata id="metadata2828"/><g id="layer1" transform="translate(89.471298,-103.31249)"><g id="g2614" transform="matrix(0.26458333,0,0,0.26458333,-202.44838,45.633327)"><g id="g466" transform="translate(427,218)"><g id="g464" transform="scale(1.5)"><path id="path458" d="m 0.5,8.5 v -4 c 0,-2.209139 1.790861,-4 4,-4 h 4 v 2 h 10 v -2 h 9 40.456381 4 c 2.209139,0 4.698591,1.9042267 4,4 v 4 4 4 c 0,2.209139 -1.790861,4 -4,4 h -4 H 27.5 h -1 v 2 h -8 v -2 h -1 -4 c -2.761424,0 -5,2.238576 -5,5 v 4 4 4 c 0,2.761424 2.238576,5 5,5 h 4 v 2 h 10 v -2 h 8 v 6 6 4 c 0,2.209139 -1.790861,4 -4,4 h -4 -9 -1 v 2 h -8 v -2 h -1 -4 c -2.209139,0 -4,-1.790861 -4,-4 v -4 z" style="fill:#d98a43;fill-opacity:1;stroke:#b7651a;stroke-width:1;stroke-linecap:round;stroke-opacity:1"/><text id="text462" style="font-size:10px;font-family:sans-serif;text-anchor:start;fill:#282828"><tspan id="tspan460" x="5" y="15">para sempre</tspan></text></g></g><g id="g572" transform="translate(440.5,249.5)"><g id="g570" transform="scale(1.5)"><path id="path564" d="m 0.5,8.5 v -4 a 4,4 90 0 1 4,-4 h 4 v 2 h 10 v -2 h 70 4 a 4,4 90 0 1 4,4 v 4 4 4 a 4,4 90 0 1 -4,4 h -4 -70 -1 v 2 h -8 v -2 h -1 -4 a 4,4 90 0 1 -4,-4 v -4 z" style="fill:#ffbf00;fill-opacity:1;stroke:#daaf30;stroke-width:1;stroke-linecap:round;stroke-opacity:1"/><text id="text568" style="font-size:10px;font-family:sans-serif;text-anchor:end;fill:#282828"><tspan id="tspan566" x="86" y="14">ação</tspan></text></g></g></g></g></svg>