<svg xmlns="http://www.w3.org/2000/svg" xmlns:svg="http://www.w3.org/2000/svg" id="svg6234" width="181.675" height="129.5" version="1.1" viewBox="0 0 48.068 34.264"><metadata id="metadata6231"/><g id="g800" transform="matrix(0.396875,0,0,0.396875,13.804613,0)"><path style="fill:#92a9ff;fill-opacity:1;stroke:#5370dc;stroke-width:1;stroke-linecap:round;stroke-opacity:1" id="path794" d="m -34.166667,8.5 v -4 c 0,-2.209139 1.790861,-4 4,-4 h 4 v 2 h 10 v -2 h 65.252604 4 c 2.209139,0 4,1.790861 4,4 v 4 4 4 c 0,2.209139 -1.790861,4 -4,4 h -4 -65.252604 -1 v 2 h -8 v -2 h -1 -4 c -2.209139,0 -4.698591,-1.904227 -4,-4 v -4 z"/><text style="font-size:10px;font-family:sans-serif;text-anchor:end;fill:#282828" id="text798"><tspan id="tspan796" x="47" y="14">levantar caneta</tspan></text></g><g id="g810" transform="matrix(0.396875,0,0,0.396875,4.2796101,25.135421)"><path style="fill:#92a9ff;fill-opacity:1;stroke:#5370dc;stroke-width:1;stroke-linecap:round;stroke-opacity:1" id="path804" d="m -10.166667,8.5 v -4 c 0,-2.209139 1.7908611,-4 4.0000001,-4 h 4 v 2 h 10 v -2 h 54.0358079 4 c 2.209139,0 4,1.790861 4,4 v 4 4 4 c 0,2.209139 -1.790861,4 -4,4 h -4 -54.0358079 -1 v 2 h -8 v -2 h -1 -4 c -2.209139,0 -4.6985911,-1.904227 -4.0000001,-4 v -4 z"/><text style="font-size:10px;font-family:sans-serif;text-anchor:end;fill:#282828" id="text808"><tspan id="tspan806" x="60" y="14">baixar caneta</tspan></text></g><g id="g828" transform="matrix(0.396875,0,0,0.396875,1.1046099,8.466666)"><path style="fill:#92a9ff;fill-opacity:1;stroke:#5370dc;stroke-width:1;stroke-linecap:round;stroke-opacity:1" id="path814" d="m -2.1666667,8.5 v -4 c 0,-2.209139 1.79086099,-4 4,-4 h 4 v 2 h 9.9999997 v -2 H 48.5 h 4 c 2.209139,0 4,1.790861 4,4 v 4 h -4 v -3 h -4 v 10 h 4 v -3 h 4 v 17 h -4 v -3 h -4 v 10 h 4 v -3 h 4 v 4 c 0,2.209139 -1.790861,4 -4,4 h -4 -32.666667 -1 v 2 H 6.8333333 v -2 h -1 -4 c -2.20913901,0 -4,-1.790861 -4,-4 v -4 -21 z"/><text style="font-size:10px;font-family:sans-serif;text-anchor:end;fill:#282828" id="text818"><tspan id="tspan816" x="46" y="24">definir xy</tspan></text><text style="font-size:6.66666651px;font-family:sans-serif;text-anchor:end;fill:#282828" id="text822"><tspan id="tspan820" x="46" y="12">x</tspan></text><text style="font-size:6.66666651px;font-family:sans-serif;text-anchor:end;fill:#282828" id="text826"><tspan id="tspan824" x="46" y="33">y</tspan></text></g><g id="g838" transform="matrix(0.396875,0,0,0.396875,20.683778,8.466666)"><path style="fill:#ff6ea1;fill-opacity:1;stroke:#ff2c76;stroke-width:1;stroke-linecap:round;stroke-opacity:1" id="path832" d="m 8.5,0.5 h 60 v 20 h -60 v -8 -1 h -6 v 3 h -2 v -8 h 2 v 3 h 6 v -1 z"/><text style="font-size:10px;font-family:sans-serif;text-anchor:start;fill:#282828" id="text836"><tspan id="tspan834" x="13" y="14">0</tspan></text></g><g id="g848" transform="matrix(0.396875,0,0,0.396875,20.683778,16.933333)"><path style="fill:#ff6ea1;fill-opacity:1;stroke:#ff2c76;stroke-width:1;stroke-linecap:round;stroke-opacity:1" id="path842" d="m 8.5,0.5 h 60 v 20 h -60 v -8 -1 h -6 v 3 h -2 v -8 h 2 v 3 h 6 v -1 z"/><text style="font-size:10px;font-family:sans-serif;text-anchor:start;fill:#282828" id="text846"><tspan id="tspan844" x="13" y="14">0</tspan></text></g></svg>