<svg xmlns="http://www.w3.org/2000/svg" width="117" height="90"><rect id="backgroundrect" width="100%" height="100%" x="0" y="0" fill="none" stroke="none"/><g class="currentLayer"><title>Layer 1</title><g><g id="svg_15"><g id="svg_16" transform="translate(316, 299) scale(1.5)"><path style="fill:#d68136;fill-opacity:1;stroke:#b7651a;stroke-width:1;stroke-linecap:round;stroke-opacity:1" id="svg_17" d="m-208.6666717529297,-191.3333282470703 L-208.6666717529297,-195.3333282470703 A4,4 90 0 1 -204.6666717529297,-199.3333282470703 L-200.6666717529297,-199.3333282470703 L-200.6666717529297,-197.3333282470703 L-190.6666717529297,-197.3333282470703 L-190.6666717529297,-199.3333282470703 L-160.6666717529297,-199.3333282470703 L-156.6666717529297,-199.3333282470703 A4,4 90 0 1 -152.6666717529297,-195.3333282470703 L-152.6666717529297,-191.3333282470703 L-156.6666717529297,-191.3333282470703 L-156.6666717529297,-194.3333282470703 L-160.6666717529297,-194.3333282470703 L-160.6666717529297,-184.3333282470703 L-156.6666717529297,-184.3333282470703 L-156.6666717529297,-187.3333282470703 L-152.6666717529297,-187.3333282470703 L-152.6666717529297,-183.3333282470703 A4,4 90 0 1 -156.6666717529297,-179.3333282470703 L-160.6666717529297,-179.3333282470703 L-190.6666717529297,-179.3333282470703 L-191.6666717529297,-179.3333282470703 L-191.6666717529297,-177.3333282470703 L-199.6666717529297,-177.3333282470703 L-199.6666717529297,-179.3333282470703 L-200.6666717529297,-179.3333282470703 L-204.6666717529297,-179.3333282470703 A4,4 90 0 1 -208.6666717529297,-183.3333282470703 L-208.6666717529297,-187.3333282470703 L-208.6666717529297,-191.3333282470703 z"/><text style="font-size:10px;fill:#282828;font-family:sans-serif;text-anchor:end" id="svg_18" x="-209.167" y="-199.833"><tspan id="svg_19" x="-163.167" y="-185.833">empurrar</tspan></text></g></g><g id="svg_22"><g id="svg_23" transform="translate(313, 359) scale(1.5)"><path style="fill:#d68136;fill-opacity:1;stroke:#b7651a;stroke-width:1;stroke-linecap:round;stroke-opacity:1" id="svg_24" d="m-200.6666717529297,-199.3333282470703 L-130.6666717529297,-199.3333282470703 L-130.6666717529297,-179.3333282470703 L-200.6666717529297,-179.3333282470703 L-200.6666717529297,-187.3333282470703 L-200.6666717529297,-188.3333282470703 L-206.6666717529297,-188.3333282470703 L-206.6666717529297,-185.3333282470703 L-208.6666717529297,-185.3333282470703 L-208.6666717529297,-193.3333282470703 L-206.6666717529297,-193.3333282470703 L-206.6666717529297,-190.3333282470703 L-200.6666717529297,-190.3333282470703 L-200.6666717529297,-191.3333282470703 z"/><text style="font-size:10px;fill:#282828;font-family:sans-serif;text-anchor:start" id="svg_25" x="-209.167" y="-199.833"><tspan id="svg_26" x="-196.167" y="-185.833">pop</tspan></text></g></g></g></g></svg>