<svg xmlns="http://www.w3.org/2000/svg" xmlns:svg="http://www.w3.org/2000/svg" id="svg78" width="335.5" height="223.5" version="1.1"><metadata id="metadata84"/><g id="svg_15" transform="translate(-2.66662,-2.333325)"><g id="svg_16"><g id="svg_17" transform="matrix(1.5,0,0,1.5,342,245)"><path id="svg_18" d="m -216.38892,-131.94445 v -4 a 4,4 90 0 1 4,-4 h 4 v 2 h 10 v -2 h 9 60 4 a 4,4 90 0 1 4,4 v 4 h -4 v -3 h -4 v 10 h 4 v -3 h 4 v 4 a 4,4 90 0 1 -4,4 h -4 -60 -1 v 2 h -8 v -2 h -1 -4 a 5,5 90 0 0 -5,5 v 4 4 41.999995 4.000008 a 5,5 90 0 0 5,5 h 4 v 2 h 10 v -2 h 8 v 6 6 4 a 4,4 90 0 1 -4,4 h -4 -9 -1 v 2 h -8 v -2 h -1 -4 a 4,4 90 0 1 -4,-4 v -4 z" style="fill:#ff8b2d;fill-opacity:1;stroke:#e86b0e;stroke-width:1;stroke-linecap:round;stroke-opacity:1"/><text id="svg_19" x="-216.889" y="-140.444" style="font-size:10px;font-family:sans-serif;text-anchor:start;fill:#282828"><tspan id="svg_20" x="-196.889" y="-125.444">nota</tspan></text><text id="svg_21" x="-216.889" y="-140.444" style="font-size:6.66666651px;font-family:sans-serif;text-anchor:end;fill:#282828"><tspan id="svg_22" x="-131.889" y="-128.444">valor</tspan></text></g></g><g id="svg_23" transform="matrix(0.5,0,0,0.5,342,249)"><g id="svg_24" style="isolation:isolate"><g id="レイヤー_2" data-name="レイヤー 2"><g id="Icon"><rect id="svg_25" width="42" height="42" x="-650.667" y="-421.333" rx="5" ry="5" style="opacity:.4;mix-blend-mode:multiply;fill:#292929"/><path id="svg_26" d="m -620.10663,-391.53338 -4.17,-4.16 h 2.26 a 1.035,1.035 0 1 0 0,-2.07 h -4.70999 a 1.08,1.08 0 0 0 -1.11,1 v 0 c 0,0 0,0 0,0.06 v 4.64 0 a 1.04,1.04 0 1 0 2.08,0 v -2.19 l 4.19,4.19 a 1,1 0 0 0 1.46,0 1,1 0 0 0 -10e-6,-1.47 z" style="fill:#fff"/><path id="svg_27" d="m -631.49664,-396.73336 a 1.08,1.08 0 0 0 -1.11,-1 h -4.71001 a 1.035,1.035 0 1 0 0,2.07 h 2.25 l -4.15997,4.12998 a 1.039447,1.039447 0 0 0 1.47,1.47 l 4.18,-4.19 v 2.26 a 1.04,1.04 0 1 0 2.08,0 v -4.63997 c 0,0 0,0 0,-0.06 a 0.08,0.08 0 0 1 -2e-5,-0.04 z" style="fill:#fff"/><path id="svg_28" d="m -626.72662,-400.83336 h 4.7 a 1.04,1.04 0 1 0 0,-2.08 h -2.24999 l 4.17,-4.16 a 1,1 0 0 0 0,-1.47 1,1 0 0 0 -1.46,0 l -4.19004,4.21 v -2.28 a 1.04,1.04 0 1 0 -2.08,0 v 4.64 a 0.43000001,0.43000001 0 0 0 0,0.05 v 0.05 a 1.09,1.09 0 0 0 1.11003,1.04 z" style="fill:#fff"/><path id="svg_29" d="m -632.53662,-407.71337 a 1.08,1.08 0 0 0 -1,1.09 v 2.29001 l -4.18,-4.19 a 1,1 0 0 0 -1.47,0 1,1 0 0 0 0,1.46 l 4.16,4.17 h -2.29003 a 1.04,1.04 0 1 0 0,2.08 h 4.71 a 1.09,1.09 0 0 0 1.11,-1 c 0,0 0,0 0,-0.06 v -4.75001 a 1.0700001,1.0700001 0 0 0 -1.03997,-1.09 z" style="fill:#fff"/></g></g></g></g></g><g id="svg_30" transform="translate(-2.66662,-2.333325)"><g id="svg_31" transform="matrix(1.5,0,0,1.5,474,245)"><path id="svg_32" d="m -208.38892,-131.94445 v -4 a 4,4 90 0 1 4,-4 h 4 10 30 4 a 4,4 90 0 1 4,4 v 4 h -4 v -3 h -4 v 10 h 4 v -3 h 4 v 17 h -4 v -3 h -4 v 10 h 4 v -3 h 4 v 4 a 4,4 90 0 1 -4,3.999995 h -4 -30 -10 -4 a 4,4 90 0 1 -4,-3.999995 v -4 -21 -1 h -6 v 3 h -2 v -8 h 2 v 3 h 6 z" style="fill:#ff5293;fill-opacity:1;stroke:#ff2c76;stroke-width:1;stroke-linecap:round;stroke-opacity:1"/><text id="svg_33" x="-216.889" y="-140.444" style="font-size:9px;font-family:sans-serif;text-anchor:end;fill:#282828"><tspan id="svg_34" x="-162.889" y="-117.444">➗</tspan></text></g></g><g id="svg_39" transform="translate(-2.66662,-2.333325)"><g id="svg_40" transform="matrix(1.5,0,0,1.5,560,245)"><path id="svg_41" d="m -208.38892,-139.94445 h 60 v 20 h -60 v -8 -1 h -6 v 3 h -2 v -8 h 2 v 3 h 6 v -1 z" style="fill:#ff5293;fill-opacity:1;stroke:#ff2c76;stroke-width:1;stroke-linecap:round;stroke-opacity:1"/><text id="svg_42" x="-216.889" y="-140.444" style="font-size:10px;font-family:sans-serif;text-anchor:start;fill:#282828"><tspan id="svg_43" x="-203.889" y="-126.444">1</tspan></text></g></g><g id="svg_44" transform="translate(-2.66662,-2.333325)"><g id="svg_45" transform="matrix(1.5,0,0,1.5,560,277)"><path id="svg_46" d="m -208.38892,-139.94445 h 60 v 20 h -60 v -8 -1 h -6 v 3 h -2 v -8 h 2 v 3 h 6 v -1 z" style="fill:#ff5293;fill-opacity:1;stroke:#ff2c76;stroke-width:1;stroke-linecap:round;stroke-opacity:1"/><text id="svg_47" x="-216.889" y="-140.444" style="font-size:10px;font-family:sans-serif;text-anchor:start;fill:#282828"><tspan id="svg_48" x="-203.889" y="-126.444">4</tspan></text></g></g><g id="svg_49" transform="translate(-2.66662,-2.333325)"><g id="svg_50" transform="matrix(1.5,0,0,1.5,356,277)"><path id="svg_51" d="m -216.38892,-131.94445 v -4 a 4,4 90 0 1 4,-4 h 4 v 2 h 10 v -2 h 20 4 a 4,4 90 0 1 4,4 v 4 4 4 a 4,4 90 0 1 -4,4 h -4 -20 -1 v 2 h -8 v -2 h -1 -4 a 4,4 90 0 1 -4,-4 v -4 z" style="fill:#b0b0b0;fill-opacity:1;stroke:#a0a0a0;stroke-width:1;stroke-linecap:round;stroke-opacity:1"/><text id="svg_52" x="-216.889" y="-140.444" style="font-size:10px;font-family:sans-serif;text-anchor:end;fill:#282828"><tspan id="svg_53" x="-180.889" y="-126.444">↓</tspan></text></g></g><g id="svg_54" transform="translate(63.33338,-2.333325)"><g id="svg_55" transform="matrix(1.5,0,0,1.5,356,309)"><path id="svg_56" d="m -260.38892,-131.94445 v -4 c 0,-2.20914 1.79086,-4 4,-4 h 4 v 2 h 10 v -2 h 74 4 c 2.20914,0 4,1.79086 4,4 v 4 h -4 v -3 h -4 v 10 h 4 v -3 h 4 v 17 h -4 v -3 h -4 v 10 h 4 v -3 h 4 v 4 c 0,2.20914 -1.79086,3.999995 -4,3.999995 h -4 -74 -1 v 2 h -8 v -2 h -1 -4 c -2.20914,0 -4,-1.790855 -4,-3.999995 v -4 -21 z" style="fill:#77c428;fill-opacity:1;stroke:#57ad02;stroke-width:1;stroke-linecap:round;stroke-opacity:1"/><text id="svg_57" x="-216.889" y="-140.444" style="font-size:10px;font-family:sans-serif;text-anchor:end;fill:#282828"><tspan id="svg_58" x="-170.889" y="-116.444">determinar o tom</tspan></text><text id="svg_59" x="-216.889" y="-140.444" style="font-size:6.66666651px;font-family:sans-serif;text-anchor:end;fill:#282828"><tspan id="svg_60" x="-170.889" y="-128.444">nome</tspan></text><text id="svg_61" x="-216.889" y="-140.444" style="font-size:6.66666651px;font-family:sans-serif;text-anchor:end;fill:#282828"><tspan id="svg_62" x="-170.889" y="-107.444">oitava</tspan></text></g></g><g id="svg_63" transform="translate(63.33338,-2.333325)"><g id="svg_64" transform="matrix(1.5,0,0,1.5,430,309)"><path id="svg_65" d="m -208.38892,-139.94445 h 60 v 20 h -60 v -8 -1 h -6 v 3 h -2 v -8 h 2 v 3 h 6 v -1 z" style="fill:#77c428;fill-opacity:1;stroke:#57ad02;stroke-width:1;stroke-linecap:round;stroke-opacity:1"/><text id="svg_66" x="-216.889" y="-140.444" style="font-size:10px;font-family:sans-serif;text-anchor:start;fill:#282828"><tspan id="svg_67" x="-203.889" y="-126.444">sol</tspan></text></g></g><g id="svg_68" transform="translate(63.33338,-2.333325)"><g id="svg_69" transform="matrix(1.5,0,0,1.5,430,341)"><path id="svg_70" d="m -208.38892,-139.94445 h 60 v 20 h -60 v -8 -1 h -6 v 3 h -2 v -8 h 2 v 3 h 6 v -1 z" style="fill:#ff5293;fill-opacity:1;stroke:#ff2c76;stroke-width:1;stroke-linecap:round;stroke-opacity:1"/><text id="svg_71" x="-216.889" y="-140.444" style="font-size:10px;font-family:sans-serif;text-anchor:start;fill:#282828"><tspan id="svg_72" x="-203.889" y="-126.444">4</tspan></text></g></g><g id="svg_73" transform="translate(-2.66662,-2.333325)"><g id="svg_74" transform="matrix(1.5,0,0,1.5,328,213)"><path id="svg_75" d="m -216.38892,-131.94445 v -4 a 4,4 90 0 1 4,-4 h 4 v 2 h 10 v -2 h 9 20 4 a 4,4 90 0 1 4,4 v 4 h -4 v -3 h -4 v 10 h 4 v -3 h 4 v 4 a 4,4 90 0 1 -4,4 h -4 -20 -1 v 2 h -8 v -2 h -1 -4 a 5,5 90 0 0 -5,5 v 4 4 84.000003 4 a 5,5 90 0 0 5,5 h 4 v 2 h 10 v -2 h 8 v 6 5.9999991 4.0000001 a 4,4 90 0 1 -4,3.9999999 h -4 -9 -1 v 2 h -8 v -2 h -1 -4 a 4,4 90 0 1 -4,-3.9999999 v -4.0000001 z" style="fill:#d68136;fill-opacity:1;stroke:#b7651a;stroke-width:1;stroke-linecap:round;stroke-opacity:1"/><text id="svg_76" x="-216.889" y="-140.444" style="font-size:10px;font-family:sans-serif;text-anchor:start;fill:#282828"><tspan id="svg_77" x="-211.889" y="-125.444">repetir</tspan></text></g></g><g id="svg_80" transform="translate(-2.66662,-2.333325)"><g id="svg_81" transform="matrix(1.5,0,0,1.5,400,213)"><path id="svg_82" d="m -208.38892,-139.94445 h 60 v 20 h -60 v -8 -1 h -6 v 3 h -2 v -8 h 2 v 3 h 6 v -1 z" style="fill:#ff5293;fill-opacity:1;stroke:#ff2c76;stroke-width:1;stroke-linecap:round;stroke-opacity:1"/><text id="svg_83" x="-216.889" y="-140.444" style="font-size:10px;font-family:sans-serif;text-anchor:start;fill:#282828"><tspan id="svg_84" x="-203.889" y="-126.444">4</tspan></text></g></g></svg>