<svg xmlns="http://www.w3.org/2000/svg" xmlns:svg="http://www.w3.org/2000/svg" id="svg78" width="335.5" height="223.5" version="1.1"><metadata id="metadata84"/><g id="svg_15" transform="translate(-1.66666,-2.000005)"><g id="svg_16"><g id="svg_17" transform="matrix(1.5,0,0,1.5,357,270)"><path id="svg_18" d="m -227.05556,-148.83333 v -4 a 4,4 90 0 1 4,-4 h 4 v 2 h 10 v -2 h 9 60 4 a 4,4 90 0 1 4,4 v 4 h -4 v -3 h -4 v 10 h 4 v -3 h 4 v 4 a 4,4 90 0 1 -4,4 h -4 -60 -1 v 2 h -8 v -2 h -1 -4 a 5,5 90 0 0 -5,5 v 4 4 41.999998 4 a 5,5 90 0 0 5,5 h 4 v 2 h 10 v -2 h 8 v 5.999993 5.999992 4 a 4,4 90 0 1 -4,4 h -4 -9 -1 v 2 h -8 v -2 h -1 -4 a 4,4 90 0 1 -4,-4 v -4 z" style="fill:#ff8b2d;fill-opacity:1;stroke:#e86b0e;stroke-width:1;stroke-linecap:round;stroke-opacity:1"/><text id="svg_19" x="-227.556" y="-157.333" style="font-size:10px;font-family:sans-serif;text-anchor:start;fill:#282828"><tspan id="svg_20" x="-207.556" y="-142.333">nota</tspan></text><text id="svg_21" x="-227.556" y="-157.333" style="font-size:6.66666651px;font-family:sans-serif;text-anchor:end;fill:#282828"><tspan id="svg_22" x="-142.556" y="-145.333">valor</tspan></text></g></g><g id="svg_23" transform="matrix(0.5,0,0,0.5,357,274)"><g id="svg_24" style="isolation:isolate"><g id="レイヤー_2" data-name="レイヤー 2"><g id="Icon"><rect id="svg_25" width="42" height="42" x="-682.667" y="-472" rx="5" ry="5" style="opacity:.4;mix-blend-mode:multiply;fill:#292929"/><path id="svg_26" d="m -652.10669,-442.19999 -4.17,-4.16 h 2.26 a 1.035,1.035 0 1 0 0,-2.07 h -4.70999 a 1.08,1.08 0 0 0 -1.11,1 v 0 c 0,0 0,0 0,0.06 v 4.64 0 a 1.04,1.04 0 1 0 2.08,0 v -2.19 l 4.19,4.19 a 1,1 0 0 0 1.46,0 1,1 0 0 0 -10e-6,-1.47 z" style="fill:#fff"/><path id="svg_27" d="m -663.4967,-447.39997 a 1.08,1.08 0 0 0 -1.11,-1 h -4.71001 a 1.035,1.035 0 1 0 0,2.07 h 2.25 l -4.15997,4.12998 a 1.039447,1.039447 0 0 0 1.47,1.47 l 4.18,-4.19 v 2.26 a 1.04,1.04 0 1 0 2.08,0 v -4.63998 c 0,0 0,0 0,-0.06 a 0.08,0.08 0 0 1 -2e-5,-0.04 z" style="fill:#fff"/><path id="svg_28" d="m -658.72668,-451.49998 h 4.7 a 1.04,1.04 0 1 0 0,-2.08 h -2.24999 l 4.17,-4.16 a 1,1 0 0 0 0,-1.47 1,1 0 0 0 -1.46,0 l -4.19004,4.21 v -2.28 a 1.04,1.04 0 1 0 -2.08,0 v 4.64 a 0.43000001,0.43000001 0 0 0 0,0.05 v 0.05 a 1.09,1.09 0 0 0 1.11003,1.04 z" style="fill:#fff"/><path id="svg_29" d="m -664.53668,-458.37998 a 1.08,1.08 0 0 0 -1,1.09 v 2.29 l -4.18,-4.19 a 1,1 0 0 0 -1.47,0 1,1 0 0 0 0,1.46 l 4.16,4.17 h -2.29003 a 1.04,1.04 0 1 0 0,2.08 h 4.71 a 1.09,1.09 0 0 0 1.11,-1 c 0,0 0,0 0,-0.06 v -4.75001 a 1.0700001,1.0700001 0 0 0 -1.03997,-1.08999 z" style="fill:#fff"/></g></g></g></g></g><g id="svg_30" transform="translate(-1.66666,-2.000005)"><g id="svg_31" transform="matrix(1.5,0,0,1.5,489,270)"><path id="svg_32" d="m -219.05556,-148.83333 v -4 a 4,4 90 0 1 4,-4 h 4 10 30 4 a 4,4 90 0 1 4,4 v 4 h -4 v -3 h -4 v 10 h 4 v -3 h 4 v 17 h -4 v -3 h -4 v 10 h 4 v -3 h 4 v 4 a 4,4 90 0 1 -4,4 h -4 -30 -10 -4 a 4,4 90 0 1 -4,-4 v -4 -21 -1 h -6 v 3 h -2 v -8 h 2 v 3 h 6 z" style="fill:#ff5293;fill-opacity:1;stroke:#ff2c76;stroke-width:1;stroke-linecap:round;stroke-opacity:1"/><text id="svg_33" x="-227.556" y="-157.333" style="font-size:9px;font-family:sans-serif;text-anchor:end;fill:#282828"><tspan id="svg_34" x="-173.556" y="-134.333">➗</tspan></text></g></g><g id="svg_39" transform="translate(-1.66666,-2.000005)"><g id="svg_40" transform="matrix(1.5,0,0,1.5,575,270)"><path id="svg_41" d="m -219.05556,-156.83333 h 60 v 20 h -60 v -8 -1 h -6 v 3 h -2 v -8 h 2 v 3 h 6 v -1 z" style="fill:#ff5293;fill-opacity:1;stroke:#ff2c76;stroke-width:1;stroke-linecap:round;stroke-opacity:1"/><text id="svg_42" x="-227.556" y="-157.333" style="font-size:10px;font-family:sans-serif;text-anchor:start;fill:#282828"><tspan id="svg_43" x="-214.556" y="-143.333">1</tspan></text></g></g><g id="svg_44" transform="translate(-1.66666,-2.000005)"><g id="svg_45" transform="matrix(1.5,0,0,1.5,575,302)"><path id="svg_46" d="m -219.05556,-156.83333 h 60 v 20 h -60 v -8 -1 h -6 v 3 h -2 v -8 h 2 v 3 h 6 v -1 z" style="fill:#ff5293;fill-opacity:1;stroke:#ff2c76;stroke-width:1;stroke-linecap:round;stroke-opacity:1"/><text id="svg_47" x="-227.556" y="-157.333" style="font-size:10px;font-family:sans-serif;text-anchor:start;fill:#282828"><tspan id="svg_48" x="-214.556" y="-143.333">4</tspan></text></g></g><g id="svg_49" transform="translate(-1.66666,-2.000005)"><g id="svg_50" transform="matrix(1.5,0,0,1.5,371,302)"><path id="svg_51" d="m -227.05556,-148.83333 v -4 a 4,4 90 0 1 4,-4 h 4 v 2 h 10 v -2 h 20 4 a 4,4 90 0 1 4,4 v 4 4 4 a 4,4 90 0 1 -4,4 h -4 -20 -1 v 2 h -8 v -2 h -1 -4 a 4,4 90 0 1 -4,-4 v -4 z" style="fill:#b0b0b0;fill-opacity:1;stroke:#a0a0a0;stroke-width:1;stroke-linecap:round;stroke-opacity:1"/><text id="svg_52" x="-227.556" y="-157.333" style="font-size:10px;font-family:sans-serif;text-anchor:end;fill:#282828"><tspan id="svg_53" x="-191.556" y="-143.333">↓</tspan></text></g></g><g id="svg_54" transform="translate(64.33334,-2.000005)"><g id="svg_55" transform="matrix(1.5,0,0,1.5,371,334)"><path id="svg_56" d="m -271.05556,-148.83333 v -4 c 0,-2.20914 1.79086,-4 4,-4 h 4 v 2 h 10 v -2 h 74 4 c 2.20914,0 4,1.79086 4,4 v 4 h -4 v -3 h -4 v 10 h 4 v -3 h 4 v 17 h -4 v -3 h -4 v 10 h 4 v -3 h 4 v 4 c 0,2.20914 -1.79086,4 -4,4 h -4 -74 -1 v 2 h -8 v -2 h -1 -4 c -2.20914,0 -4.69859,-1.90423 -4,-4 v -4 -21 z" style="fill:#77c428;fill-opacity:1;stroke:#57ad02;stroke-width:1;stroke-linecap:round;stroke-opacity:1"/><text id="svg_57" x="-227.556" y="-157.333" style="font-size:10px;font-family:sans-serif;text-anchor:end;fill:#282828"><tspan id="svg_58" x="-181.556" y="-133.333">determinar o tom</tspan></text><text id="svg_59" x="-227.556" y="-157.333" style="font-size:6.66666651px;font-family:sans-serif;text-anchor:end;fill:#282828"><tspan id="svg_60" x="-181.556" y="-145.333">nome</tspan></text><text id="svg_61" x="-227.556" y="-157.333" style="font-size:6.66666651px;font-family:sans-serif;text-anchor:end;fill:#282828"><tspan id="svg_62" x="-181.556" y="-124.333">octave</tspan></text></g></g><g id="svg_63" transform="translate(64.33334,-2.000005)"><g id="svg_64" transform="matrix(1.5,0,0,1.5,445,334)"><path id="svg_65" d="m -219.05556,-156.83333 h 60 v 20 h -60 v -8 -1 h -6 v 3 h -2 v -8 h 2 v 3 h 6 v -1 z" style="fill:#77c428;fill-opacity:1;stroke:#57ad02;stroke-width:1;stroke-linecap:round;stroke-opacity:1"/><text id="svg_66" x="-227.556" y="-157.333" style="font-size:10px;font-family:sans-serif;text-anchor:start;fill:#282828"><tspan id="svg_67" x="-214.556" y="-143.333">sol</tspan></text></g></g><g id="svg_68" transform="translate(64.33334,-2.000005)"><g id="svg_69" transform="matrix(1.5,0,0,1.5,445,366)"><path id="svg_70" d="m -219.05556,-156.83333 h 60 v 20 h -60 v -8 -1 h -6 v 3 h -2 v -8 h 2 v 3 h 6 v -1 z" style="fill:#ff5293;fill-opacity:1;stroke:#ff2c76;stroke-width:1;stroke-linecap:round;stroke-opacity:1"/><text id="svg_71" x="-227.556" y="-157.333" style="font-size:10px;font-family:sans-serif;text-anchor:start;fill:#282828"><tspan id="svg_72" x="-214.556" y="-143.333">4</tspan></text></g></g><g id="svg_73" transform="translate(-1.66666,-2.000005)"><g id="svg_74" transform="matrix(1.5,0,0,1.5,343,238)"><path id="svg_75" d="m -227.05556,-148.83333 v -4 c 0,-2.20914 1.79086,-4 4,-4 h 4 v 2 h 10 v -2 h 9 51.33333 4 c 2.20914,0 4.69859,1.90423 4,4 v 4 h -4 v -3 h -4 v 10 h 4 v -3 h 4 v 4 c 0,2.20914 -1.79086,4 -4,4 h -4 -51.33333 -1 v 2 h -8 v -2 h -1 -4 c -2.76142,0 -5,2.23858 -5,5 v 4 4 83.999983 4 c 0,2.761424 2.23858,5 5,5 h 4 v 2 h 10 v -2 h 8 v 6 6 4 c 0,2.209139 -1.79086,4.000001 -4,4.000001 h -4 -9 -1 v 2.000001 h -8 v -2.000001 h -1 -4 c -2.20914,0 -4,-1.790862 -4,-4.000001 v -4 z" style="fill:#25c3c0;fill-opacity:1;stroke:#1dbcbd;stroke-width:1;stroke-linecap:round;stroke-opacity:1"/><text id="svg_76" x="-227.556" y="-157.333" style="font-size:10px;font-family:sans-serif;text-anchor:start;fill:#282828"><tspan id="svg_77" x="-222.556" y="-142.333">definir bateria</tspan></text></g></g><g id="svg_80" transform="translate(30.33334,-2.000005)"><g id="svg_81" transform="matrix(1.5,0,0,1.5,430,238)"><path id="svg_82" d="m -219.05556,-156.83333 h 110 v 20 h -110 v -8 -1 h -6 v 3 h -2 v -8 h 2 v 3 h 6 v -1 z" style="fill:#25c3c0;fill-opacity:1;stroke:#1dbcbd;stroke-width:1;stroke-linecap:round;stroke-opacity:1"/><text id="svg_83" x="-227.556" y="-157.333" style="font-size:10px;font-family:sans-serif;text-anchor:start;fill:#282828"><tspan id="svg_84" x="-214.556" y="-143.333">bumbo</tspan></text></g></g></svg>