<svg xmlns="http://www.w3.org/2000/svg" xmlns:svg="http://www.w3.org/2000/svg" id="svg1870" width="364.221" height="144.5" version="1.1" viewBox="0 0 96.367 38.232"><metadata id="metadata1867"/><g id="g472" transform="matrix(0.396875,0,0,0.396875,0.04627651,0)"><path id="path462" d="m 0.5,8.5 v -4 a 4,4 90 0 1 4,-4 h 4 v 2 h 10 v -2 h 37.792969 4 a 4,4 90 0 1 4,4 v 4 h -4 v -3 h -4 v 10 h 4 v -3 h 4 v 4 a 4,4 90 0 1 -4,4 h -4 H 18.5 h -1 v 2 h -8 v -2 h -1 -4 a 4,4 90 0 1 -4,-4 v -4 z" style="fill:#92a9ff;fill-opacity:1;stroke:#5370dc;stroke-width:1;stroke-linecap:round;stroke-opacity:1"/><text id="text466" style="font-size:10px;font-family:sans-serif;text-anchor:end;fill:#282828"><tspan id="tspan464" x="54" y="14">definir cor</tspan></text></g><g id="g482" transform="matrix(0.396875,0,0,0.396875,22.585977,0)"><path id="path476" d="m 8.5,0.5 h 60 v 20 h -60 v -8 -1 h -6 v 3 h -2 v -8 h 2 v 3 h 6 v -1 z" style="fill:#ff6ea1;fill-opacity:1;stroke:#ff2c76;stroke-width:1;stroke-linecap:round;stroke-opacity:1"/><text id="text480" style="font-size:10px;font-family:sans-serif;text-anchor:start;fill:#282828"><tspan id="tspan478" x="13" y="14">0</tspan></text></g><g id="g496" transform="matrix(0.396875,0,0,0.396875,5.8671101,8.33438)"><path id="path486" d="m -14.166667,8.5 v -4 c 0,-2.209139 1.790861,-4 4,-4 h 4.0000002 v 2 h 10 v -2 h 58.0309248 4 c 2.209139,0 4,1.790861 4,4 v 4 h -4 v -3 h -4 v 10 h 4 v -3 h 4 v 4 c 0,2.209139 -1.790861,4 -4,4 h -4 -58.0309248 -1 v 2 h -8 v -2 h -1 -4.0000002 c -2.209139,0 -4.698591,-1.904227 -4,-4 v -4 z" style="fill:#92a9ff;fill-opacity:1;stroke:#5370dc;stroke-width:1;stroke-linecap:round;stroke-opacity:1"/><text id="text490" style="font-size:10px;font-family:sans-serif;text-anchor:end;fill:#282828"><tspan id="tspan488" x="60" y="14">definir sombra</tspan></text></g><g id="g506" transform="matrix(0.396875,0,0,0.396875,30.617924,8.33438)"><path id="path500" d="m 8.5,0.5 h 60 v 20 h -60 v -8 -1 h -6 v 3 h -2 v -8 h 2 v 3 h 6 v -1 z" style="fill:#ff6ea1;fill-opacity:1;stroke:#ff2c76;stroke-width:1;stroke-linecap:round;stroke-opacity:1"/><text id="text504" style="font-size:10px;font-family:sans-serif;text-anchor:start;fill:#282828"><tspan id="tspan502" x="13" y="14">50</tspan></text></g><g id="g520" transform="matrix(0.396875,0,0,0.396875,40.262963,16.66875)"><path id="path510" d="m -100.83333,8.5 v -4 c 0,-2.209139 1.790857,-4 3.999996,-4 h 4 v 2 h 10 v -2 h 154.697592 4 c 2.209139,0 4,1.790861 4,4 v 4 h -4 v -3 h -4 v 10 h 4 v -3 h 4 v 4 c 0,2.209139 -1.790861,4 -4,4 h -4 -154.697592 -1 v 2 h -8 v -2 h -1 -4 c -2.209139,0 -3.999996,-1.790861 -3.999996,-4 v -4 z" style="fill:#92a9ff;fill-opacity:1;stroke:#5370dc;stroke-width:1;stroke-linecap:round;stroke-opacity:1"/><text id="text514" style="font-size:10px;font-family:sans-serif;text-anchor:end;fill:#282828"><tspan id="tspan512" x="70" y="14">definir largura do traço da caneta</tspan></text></g><g id="g530" transform="matrix(0.396875,0,0,0.396875,68.982529,16.66875)"><path id="path524" d="m 8.5,0.5 h 60 v 20 h -60 v -8 -1 h -6 v 3 h -2 v -8 h 2 v 3 h 6 v -1 z" style="fill:#ff6ea1;fill-opacity:1;stroke:#ff2c76;stroke-width:1;stroke-linecap:round;stroke-opacity:1"/><text id="text528" style="font-size:10px;font-family:sans-serif;text-anchor:start;fill:#282828"><tspan id="tspan526" x="13" y="14">5</tspan></text></g><g id="g560" transform="matrix(0.396875,0,0,0.396875,22.271277,29.89792)"><path id="path554" d="m 8.5,0.5 h 70 v 20 h -70 v -8 -1 h -6 v 3 h -2 v -8 h 2 v 3 h 6 v -1 z" style="fill:#92a9ff;fill-opacity:1;stroke:#5370dc;stroke-width:1;stroke-linecap:round;stroke-opacity:1"/><text id="text558" style="font-size:10px;font-family:sans-serif;text-anchor:start;fill:#282828"><tspan id="tspan556" x="13" y="14">cor</tspan></text></g></svg>