<svg xmlns="http://www.w3.org/2000/svg" xmlns:svg="http://www.w3.org/2000/svg" id="svg1870" width="222" height="66" version="1.1" viewBox="0 0 58.737 17.462"><metadata id="metadata1867"/><g id="layer1" transform="translate(-117.32577,-169.32723)"><g id="g604" transform="matrix(0.26458333,0,0,0.26458333,117.32577,169.32723)"><g id="g602" transform="scale(1.5)"><path style="fill:#ff6648;fill-opacity:1;stroke:#ea4326;stroke-width:1;stroke-linecap:round;stroke-opacity:1" id="path588" d="m 0.5,8.5 v -4 a 4,4 90 0 1 4,-4 h 4 v 2 h 10 v -2 h 30 4 a 4,4 90 0 1 4,4 v 4 h -4 v -3 h -4 v 10 h 4 v -3 h 4 v 17 h -4 v -3 h -4 v 10 h 4 v -3 h 4 v 4 a 4,4 90 0 1 -4,4 h -4 -30 -1 v 2 h -8 v -2 h -1 -4 a 4,4 90 0 1 -4,-4 v -4 -21 z"/><text style="font-size:10px;font-family:sans-serif;text-anchor:end;fill:#282828" id="text592"><tspan id="tspan590" x="46" y="24">mostrar</tspan></text><text style="font-size:6.66666651px;font-family:sans-serif;text-anchor:end;fill:#282828" id="text596"><tspan id="tspan594" x="46" y="12">tamanho</tspan></text><text style="font-size:6.66666651px;font-family:sans-serif;text-anchor:end;fill:#282828" id="text600"><tspan id="tspan598" x="46" y="33">obj</tspan></text></g></g><g id="g614" transform="matrix(0.26458333,0,0,0.26458333,136.77264,169.32723)"><g id="g612" transform="scale(1.5)"><path style="fill:#ff6ea1;fill-opacity:1;stroke:#ff2c76;stroke-width:1;stroke-linecap:round;stroke-opacity:1" id="path606" d="m 8.5,0.5 h 60 v 20 h -60 v -8 -1 h -6 v 3 h -2 v -8 h 2 v 3 h 6 v -1 z"/><text style="font-size:10px;font-family:sans-serif;text-anchor:start;fill:#282828" id="text610"><tspan id="tspan608" x="13" y="14">24</tspan></text></g></g><g id="g624" transform="matrix(0.26458333,0,0,0.26458333,136.77264,177.6616)"><g id="g622" transform="scale(1.5)"><path style="fill:#ff6648;fill-opacity:1;stroke:#ea4326;stroke-width:1;stroke-linecap:round;stroke-opacity:1" id="path616" d="m 8.5,0.5 h 90 v 20 h -90 v -8 -1 h -6 v 3 h -2 v -8 h 2 v 3 h 6 v -1 z"/><text style="font-size:10px;font-family:sans-serif;text-anchor:start;fill:#282828" id="text620"><tspan id="tspan618" x="13" y="14">texto</tspan></text></g></g></g></svg>