<svg xmlns="http://www.w3.org/2000/svg" xmlns:svg="http://www.w3.org/2000/svg" id="svg246" width="323" height="784" version="1.1"><metadata id="metadata252"/><rect id="backgroundrect" width="100%" height="100%" x="0" y="0" fill="none" stroke="none"/><g id="svg_15"><g id="svg_16"><g id="svg_17" transform="matrix(1.5,0,0,1.5,239,169)"><path id="svg_18" d="m -158.83333,-98.666664 v -3.999996 a 4,4 90 0 1 4,-4 h 4 l 5,-6 5,6 h 9 69.000002 4 a 4,4 90 0 1 4,4 v 3.999996 4 4 a 4,4 90 0 1 -4,4 h -4 -69.000002 -1 v 2 h -8 v -2 h -1 -4 a 5,5 90 0 0 -5,5 v 4 4 147 4 a 5,5 90 0 0 5,5 h 4 v 2 h 10 v -2 h 8 v 6 6 4 a 4,4 90 0 1 -4,4.000004 h -4 -9 l -5,6 -5,-6 h -4 a 4,4 90 0 1 -4,-4.000004 v -4 z" style="fill:#77c428;fill-opacity:1;stroke:#57ad02;stroke-width:1;stroke-linecap:round;stroke-opacity:1"/><text id="svg_19" x="-159.333" y="-113.167" style="font-size:10px;font-family:sans-serif;text-anchor:start;fill:#282828"><tspan id="svg_20" x="-139.333" y="-91.167">criador de frase</tspan></text></g></g><g id="svg_21" transform="matrix(0.5,0,0,0.5,239,181)"><g id="svg_22" style="isolation:isolate"><g id="レイヤー_2" data-name="レイヤー 2"><g id="Icon"><rect id="svg_23" width="42" height="42" x="-478" y="-339.5" rx="5" ry="5" style="opacity:.4;mix-blend-mode:multiply;fill:#292929"/><path id="svg_24" d="m -447.44,-309.7 -4.17,-4.16 h 2.26 a 1.035,1.035 0 1 0 0,-2.07 h -4.71 a 1.08,1.08 0 0 0 -1.11,1 v 0 c 0,0 0,0 0,0.06 v 4.64 0 a 1.04,1.04 0 1 0 2.08,0 v -2.19 l 4.19,4.19 a 1,1 0 0 0 1.46,0 1,1 0 0 0 0,-1.47 z" style="fill:#fff"/><path id="svg_25" d="m -458.83,-314.9 a 1.08,1.08 0 0 0 -1.11,-1 h -4.71 a 1.035,1.035 0 1 0 0,2.07 h 2.25 l -4.16,4.13 a 1.039447,1.039447 0 0 0 1.47,1.47 l 4.18,-4.19 v 2.26 a 1.04,1.04 0 1 0 2.08,0 v -4.64 c 0,0 0,0 0,-0.06 a 0.08,0.08 0 0 1 0,-0.04 z" style="fill:#fff"/><path id="svg_26" d="m -454.06,-319 h 4.7 a 1.04,1.04 0 1 0 0,-2.08 h -2.25 l 4.17,-4.16 a 1,1 0 0 0 0,-1.47 1,1 0 0 0 -1.46,0 l -4.19,4.21 v -2.28 a 1.04,1.04 0 1 0 -2.08,0 v 4.64 a 0.43000001,0.43000001 0 0 0 0,0.05 v 0.05 a 1.09,1.09 0 0 0 1.11,1.04 z" style="fill:#fff"/><path id="svg_27" d="m -459.87,-325.88 a 1.08,1.08 0 0 0 -1,1.09 v 2.29 l -4.18,-4.19 a 1,1 0 0 0 -1.47,0 1,1 0 0 0 0,1.46 l 4.16,4.17 h -2.29 a 1.04,1.04 0 1 0 0,2.08 h 4.71 a 1.09,1.09 0 0 0 1.11,-1 c 0,0 0,0 0,-0.06 v -4.75 a 1.0700001,1.0700001 0 0 0 -1.04,-1.09 z" style="fill:#fff"/></g></g></g></g></g><g id="svg_28" transform="translate(64)"><g id="svg_29" transform="matrix(1.5,0,0,1.5,253,210)"><path id="svg_30" d="m -201.5,-104.66666 v -4 c 0,-2.20914 1.79086,-4 4,-4 h 4 v 2 h 10 v -2 h 72.66667 4 c 2.20914,0 4,1.79086 4,4 v 4 h -4 v -3 h -4 v 9.999996 h 4 v -2.999996 h 4 v 16.999996 h -4 v -3 h -4 v 10 h 4 v -3 h 4 v 4 c 0,2.209139 -1.79086,4 -4,4 h -4 -72.66667 -1 v 2 h -8 v -2 h -1 -4 c -2.20914,0 -4.69859,-1.904227 -4,-4 v -4 -20.999996 z" style="fill:#77c428;fill-opacity:1;stroke:#57ad02;stroke-width:1;stroke-linecap:round;stroke-opacity:1"/><text id="svg_31" x="-159.333" y="-113.167" style="font-size:10px;font-family:sans-serif;text-anchor:end;fill:#282828"><tspan id="svg_32" x="-113.333" y="-89.167">determinar o tom</tspan></text><text id="svg_33" x="-159.333" y="-113.167" style="font-size:6.66666651px;font-family:sans-serif;text-anchor:end;fill:#282828"><tspan id="svg_34" x="-113.333" y="-101.167">nome</tspan></text><text id="svg_35" x="-159.333" y="-113.167" style="font-size:6.66666651px;font-family:sans-serif;text-anchor:end;fill:#282828"><tspan id="svg_36" x="-113.333" y="-80.167">oitava</tspan></text></g></g><g id="svg_37" transform="translate(64)"><g id="svg_38" transform="matrix(1.5,0,0,1.5,327,210)"><path id="svg_39" d="m -150.83333,-112.66666 h 60.000002 v 19.999996 h -60.000002 v -7.999996 -1 h -6 v 2.999996 h -2 v -7.999996 h 2 v 3 h 6 v -1 z" style="fill:#77c428;fill-opacity:1;stroke:#57ad02;stroke-width:1;stroke-linecap:round;stroke-opacity:1"/><text id="svg_40" x="-159.333" y="-113.167" style="font-size:10px;font-family:sans-serif;text-anchor:start;fill:#282828"><tspan id="svg_41" x="-146.333" y="-99.167">sol</tspan></text></g></g><g id="svg_42" transform="translate(64)"><g id="svg_43" transform="matrix(1.5,0,0,1.5,327,242)"><path id="svg_44" d="m -150.83333,-112.66666 h 60.000002 v 19.999996 h -60.000002 v -7.999996 -1 h -6 v 2.999996 h -2 v -7.999996 h 2 v 3 h 6 v -1 z" style="fill:#ff5293;fill-opacity:1;stroke:#ff2c76;stroke-width:1;stroke-linecap:round;stroke-opacity:1"/><text id="svg_45" x="-159.333" y="-113.167" style="font-size:10px;font-family:sans-serif;text-anchor:start;fill:#282828"><tspan id="svg_46" x="-146.333" y="-99.167">4</tspan></text></g></g><g id="svg_47" transform="translate(64)"><g id="svg_48" transform="matrix(1.5,0,0,1.5,253,273)"><path id="svg_49" d="m -201.5,-104.66666 v -4 c 0,-2.20914 1.79086,-4 4,-4 h 4 v 2 h 10 v -2 h 72.66667 4 c 2.20914,0 4,1.79086 4,4 v 4 h -4 v -3 h -4 v 9.999996 h 4 v -2.999996 h 4 v 16.999996 h -4 v -3 h -4 v 10 h 4 v -3 h 4 v 4 c 0,2.209139 -1.79086,4 -4,4 h -4 -72.66667 -1 v 2 h -8 v -2 h -1 -4 c -2.20914,0 -3.30141,-1.904227 -4,-4 v -4 -20.999996 z" style="fill:#77c428;fill-opacity:1;stroke:#57ad02;stroke-width:1;stroke-linecap:round;stroke-opacity:1"/><text id="svg_50" x="-159.333" y="-113.167" style="font-size:10px;font-family:sans-serif;text-anchor:end;fill:#282828"><tspan id="svg_51" x="-113.333" y="-89.167">determinar o tom</tspan></text><text id="svg_52" x="-159.333" y="-113.167" style="font-size:6.66666651px;font-family:sans-serif;text-anchor:end;fill:#282828"><tspan id="svg_53" x="-113.333" y="-101.167">nome</tspan></text><text id="svg_54" x="-159.333" y="-113.167" style="font-size:6.66666651px;font-family:sans-serif;text-anchor:end;fill:#282828"><tspan id="svg_55" x="-113.333" y="-80.167">oitava</tspan></text></g></g><g id="svg_56" transform="translate(64)"><g id="svg_57" transform="matrix(1.5,0,0,1.5,327,273)"><path id="svg_58" d="m -150.83333,-112.66666 h 60.000002 v 19.999996 h -60.000002 v -7.999996 -1 h -6 v 2.999996 h -2 v -7.999996 h 2 v 3 h 6 v -1 z" style="fill:#77c428;fill-opacity:1;stroke:#57ad02;stroke-width:1;stroke-linecap:round;stroke-opacity:1"/><text id="svg_59" x="-159.333" y="-113.167" style="font-size:10px;font-family:sans-serif;text-anchor:start;fill:#282828"><tspan id="svg_60" x="-146.333" y="-99.167">mi</tspan></text></g></g><g id="svg_61" transform="translate(64)"><g id="svg_62" transform="matrix(1.5,0,0,1.5,327,305)"><path id="svg_63" d="m -150.83333,-112.66666 h 60.000002 v 19.999996 h -60.000002 v -7.999996 -1 h -6 v 2.999996 h -2 v -7.999996 h 2 v 3 h 6 v -1 z" style="fill:#ff5293;fill-opacity:1;stroke:#ff2c76;stroke-width:1;stroke-linecap:round;stroke-opacity:1"/><text id="svg_64" x="-159.333" y="-113.167" style="font-size:10px;font-family:sans-serif;text-anchor:start;fill:#282828"><tspan id="svg_65" x="-146.333" y="-99.167">4</tspan></text></g></g><g id="svg_66" transform="translate(64)"><g id="svg_67" transform="matrix(1.5,0,0,1.5,253,336)"><path id="svg_68" d="m -201.5,-104.66666 v -4 c 0,-2.20914 1.79086,-4 4,-4 h 4 v 2 h 10 v -2 h 72.66667 4 c 2.20914,0 4,1.79086 4,4 v 4 h -4 v -3 h -4 v 9.999996 h 4 v -2.999996 h 4 v 16.999996 h -4 v -3 h -4 v 10 h 4 v -3 h 4 v 4 c 0,2.209139 -1.79086,4 -4,4 h -4 -72.66667 -1 v 2 h -8 v -2 h -1 -4 c -2.20914,0 -4.69859,-1.904227 -4,-4 v -4 -20.999996 z" style="fill:#77c428;fill-opacity:1;stroke:#57ad02;stroke-width:1;stroke-linecap:round;stroke-opacity:1"/><text id="svg_69" x="-159.333" y="-113.167" style="font-size:10px;font-family:sans-serif;text-anchor:end;fill:#282828"><tspan id="svg_70" x="-113.333" y="-89.167">determinar o tom</tspan></text><text id="svg_71" x="-159.333" y="-113.167" style="font-size:6.66666651px;font-family:sans-serif;text-anchor:end;fill:#282828"><tspan id="svg_72" x="-113.333" y="-101.167">nome</tspan></text><text id="svg_73" x="-159.333" y="-113.167" style="font-size:6.66666651px;font-family:sans-serif;text-anchor:end;fill:#282828"><tspan id="svg_74" x="-113.333" y="-80.167">oitava</tspan></text></g></g><g id="svg_75" transform="translate(64)"><g id="svg_76" transform="matrix(1.5,0,0,1.5,327,336)"><path id="svg_77" d="m -150.83333,-112.66666 h 60.000002 v 19.999996 h -60.000002 v -7.999996 -1 h -6 v 2.999996 h -2 v -7.999996 h 2 v 3 h 6 v -1 z" style="fill:#77c428;fill-opacity:1;stroke:#57ad02;stroke-width:1;stroke-linecap:round;stroke-opacity:1"/><text id="svg_78" x="-159.333" y="-113.167" style="font-size:10px;font-family:sans-serif;text-anchor:start;fill:#282828"><tspan id="svg_79" x="-146.333" y="-99.167">re</tspan></text></g></g><g id="svg_80" transform="translate(64)"><g id="svg_81" transform="matrix(1.5,0,0,1.5,327,368)"><path id="svg_82" d="m -150.83333,-112.66666 h 60.000002 v 19.999996 h -60.000002 v -7.999996 -1 h -6 v 2.999996 h -2 v -7.999996 h 2 v 3 h 6 v -1 z" style="fill:#ff5293;fill-opacity:1;stroke:#ff2c76;stroke-width:1;stroke-linecap:round;stroke-opacity:1"/><text id="svg_83" x="-159.333" y="-113.167" style="font-size:10px;font-family:sans-serif;text-anchor:start;fill:#282828"><tspan id="svg_84" x="-146.333" y="-99.167">4</tspan></text></g></g><g id="svg_85"><g id="svg_86" transform="matrix(1.5,0,0,1.5,253,399)"><path id="svg_87" d="m -158.83333,-104.66666 v -4 a 4,4 90 0 1 4,-4 h 4 v 2 h 10 v -2 h 61.000002 4 a 4,4 90 0 1 4,4 v 4 h -4 v -3 h -4 v 9.999996 h 4 v -2.999996 h 4 v 16.999996 h -4 v -3 h -4 v 10 h 4 v -3 h 4 v 4 a 4,4 90 0 1 -4,4 h -4 -61.000002 -1 v 2 h -8 v -2 h -1 -4 a 4,4 90 0 1 -4,-4 v -4 -20.999996 z" style="fill:#ff8b2d;fill-opacity:1;stroke:#e86b0e;stroke-width:1;stroke-linecap:round;stroke-opacity:1"/><text id="svg_88" x="-159.333" y="-113.167" style="font-size:10px;font-family:sans-serif;text-anchor:end;fill:#282828"><tspan id="svg_89" x="-82.333" y="-89.167">tuplet simples</tspan></text><text id="svg_90" x="-159.333" y="-113.167" style="font-size:6.66666651px;font-family:sans-serif;text-anchor:end;fill:#282828"><tspan id="svg_91" x="-82.333" y="-101.167">número de notas</tspan></text><text id="svg_92" x="-159.333" y="-113.167" style="font-size:6.66666651px;font-family:sans-serif;text-anchor:end;fill:#282828"><tspan id="svg_93" x="-82.333" y="-80.167">valor da nota</tspan></text></g></g><g id="svg_94"><g id="svg_95" transform="matrix(1.5,0,0,1.5,373,399)"><path id="svg_96" d="m -150.83333,-112.66666 h 60.000002 v 19.999996 h -60.000002 v -7.999996 -1 h -6 v 2.999996 h -2 v -7.999996 h 2 v 3 h 6 v -1 z" style="fill:#ff5293;fill-opacity:1;stroke:#ff2c76;stroke-width:1;stroke-linecap:round;stroke-opacity:1"/><text id="svg_97" x="-159.333" y="-113.167" style="font-size:10px;font-family:sans-serif;text-anchor:start;fill:#282828"><tspan id="svg_98" x="-146.333" y="-99.167">3</tspan></text></g></g><g id="svg_99"><g id="svg_100" transform="matrix(1.5,0,0,1.5,373,431)"><path id="svg_101" d="m -150.83333,-104.66666 v -4 a 4,4 90 0 1 4,-4 h 4 10 30 4.000002 a 4,4 90 0 1 4,4 v 4 h -4 v -3 h -4.000002 v 9.999996 h 4.000002 v -2.999996 h 4 v 16.999996 h -4 v -3 h -4.000002 v 10 h 4.000002 v -3 h 4 v 4 a 4,4 90 0 1 -4,4 h -4.000002 -30 -10 -4 a 4,4 90 0 1 -4,-4 v -4 -20.999996 -1 h -6 v 2.999996 h -2 v -7.999996 h 2 v 3 h 6 z" style="fill:#ff5293;fill-opacity:1;stroke:#ff2c76;stroke-width:1;stroke-linecap:round;stroke-opacity:1"/><text id="svg_102" x="-159.333" y="-113.167" style="font-size:9px;font-family:sans-serif;text-anchor:end;fill:#282828"><tspan id="svg_103" x="-105.333" y="-90.167">➗</tspan></text></g></g><g id="svg_108"><g id="svg_109" transform="matrix(1.5,0,0,1.5,459,431)"><path id="svg_110" d="m -150.83333,-112.66666 h 60.000002 v 19.999996 h -60.000002 v -7.999996 -1 h -6 v 2.999996 h -2 v -7.999996 h 2 v 3 h 6 v -1 z" style="fill:#ff5293;fill-opacity:1;stroke:#ff2c76;stroke-width:1;stroke-linecap:round;stroke-opacity:1"/><text id="svg_111" x="-159.333" y="-113.167" style="font-size:10px;font-family:sans-serif;text-anchor:start;fill:#282828"><tspan id="svg_112" x="-146.333" y="-99.167">1</tspan></text></g></g><g id="svg_113"><g id="svg_114" transform="matrix(1.5,0,0,1.5,459,463)"><path id="svg_115" d="m -150.83333,-112.66666 h 60.000002 v 19.999996 h -60.000002 v -7.999996 -1 h -6 v 2.999996 h -2 v -7.999996 h 2 v 3 h 6 v -1 z" style="fill:#ff5293;fill-opacity:1;stroke:#ff2c76;stroke-width:1;stroke-linecap:round;stroke-opacity:1"/><text id="svg_116" x="-159.333" y="-113.167" style="font-size:10px;font-family:sans-serif;text-anchor:start;fill:#282828"><tspan id="svg_117" x="-146.333" y="-99.167">4</tspan></text></g></g><g id="svg_118"><g id="svg_119"><g id="svg_120" transform="matrix(1.5,0,0,1.5,239,527)"><path id="svg_121" d="m -158.83333,-98.666664 v -3.999996 a 4,4 90 0 1 4,-4 h 4 l 5,-6 5,6 h 9 69.000002 4 a 4,4 90 0 1 4,4 v 3.999996 4 4 a 4,4 90 0 1 -4,4 h -4 -69.000002 -1 v 2 h -8 v -2 h -1 -4 a 5,5 90 0 0 -5,5 v 4 4 210.000004 4 a 5,5 90 0 0 5,5 h 4 v 2 h 10 v -2 h 8 v 6 6 4 a 4,4 90 0 1 -4,4 h -4 -9 l -5,6 -5,-6 h -4 a 4,4 90 0 1 -4,-4 v -4 z" style="fill:#77c428;fill-opacity:1;stroke:#57ad02;stroke-width:1;stroke-linecap:round;stroke-opacity:1"/><text id="svg_122" x="-159.333" y="-113.167" style="font-size:10px;font-family:sans-serif;text-anchor:start;fill:#282828"><tspan id="svg_123" x="-139.333" y="-91.167">criador de frase</tspan></text></g></g><g id="svg_124" transform="matrix(0.5,0,0,0.5,239,539)"><g id="svg_125" style="isolation:isolate"><g id="g120" data-name="レイヤー 2"><g id="g118"><rect id="svg_126" width="42" height="42" x="-478" y="-339.5" rx="5" ry="5" style="opacity:.4;mix-blend-mode:multiply;fill:#292929"/><path id="svg_127" d="m -447.44,-309.7 -4.17,-4.16 h 2.26 a 1.035,1.035 0 1 0 0,-2.07 h -4.71 a 1.08,1.08 0 0 0 -1.11,1 v 0 c 0,0 0,0 0,0.06 v 4.64 0 a 1.04,1.04 0 1 0 2.08,0 v -2.19 l 4.19,4.19 a 1,1 0 0 0 1.46,0 1,1 0 0 0 0,-1.47 z" style="fill:#fff"/><path id="svg_128" d="m -458.83,-314.9 a 1.08,1.08 0 0 0 -1.11,-1 h -4.71 a 1.035,1.035 0 1 0 0,2.07 h 2.25 l -4.16,4.13 a 1.039447,1.039447 0 0 0 1.47,1.47 l 4.18,-4.19 v 2.26 a 1.04,1.04 0 1 0 2.08,0 v -4.64 c 0,0 0,0 0,-0.06 a 0.08,0.08 0 0 1 0,-0.04 z" style="fill:#fff"/><path id="svg_129" d="m -454.06,-319 h 4.7 a 1.04,1.04 0 1 0 0,-2.08 h -2.25 l 4.17,-4.16 a 1,1 0 0 0 0,-1.47 1,1 0 0 0 -1.46,0 l -4.19,4.21 v -2.28 a 1.04,1.04 0 1 0 -2.08,0 v 4.64 a 0.43000001,0.43000001 0 0 0 0,0.05 v 0.05 a 1.09,1.09 0 0 0 1.11,1.04 z" style="fill:#fff"/><path id="svg_130" d="m -459.87,-325.88 a 1.08,1.08 0 0 0 -1,1.09 v 2.29 l -4.18,-4.19 a 1,1 0 0 0 -1.47,0 1,1 0 0 0 0,1.46 l 4.16,4.17 h -2.29 a 1.04,1.04 0 1 0 0,2.08 h 4.71 a 1.09,1.09 0 0 0 1.11,-1 c 0,0 0,0 0,-0.06 v -4.75 a 1.0700001,1.0700001 0 0 0 -1.04,-1.09 z" style="fill:#fff"/></g></g></g></g></g><g id="svg_131" transform="translate(64)"><g id="svg_132" transform="matrix(1.5,0,0,1.5,253,568)"><path id="svg_133" d="m -201.5,-104.66666 v -4 c 0,-2.20914 1.79086,-4 4,-4 h 4 v 2 h 10 v -2 h 72.66667 4 c 2.20914,0 4,1.79086 4,4 v 4 h -4 v -3 h -4 v 9.999996 h 4 v -2.999996 h 4 v 16.999996 h -4 v -3 h -4 v 10 h 4 v -3 h 4 v 4 c 0,2.209139 -1.79086,4 -4,4 h -4 -72.66667 -1 v 2 h -8 v -2 h -1 -4 c -2.20914,0 -4.69859,-1.904227 -4,-4 v -4 -20.999996 z" style="fill:#77c428;fill-opacity:1;stroke:#57ad02;stroke-width:1;stroke-linecap:round;stroke-opacity:1"/><text id="svg_134" x="-159.333" y="-113.167" style="font-size:10px;font-family:sans-serif;text-anchor:end;fill:#282828"><tspan id="svg_135" x="-113.333" y="-89.167">determinar o tom</tspan></text><text id="svg_136" x="-159.333" y="-113.167" style="font-size:6.66666651px;font-family:sans-serif;text-anchor:end;fill:#282828"><tspan id="svg_137" x="-113.333" y="-101.167">nome</tspan></text><text id="svg_138" x="-159.333" y="-113.167" style="font-size:6.66666651px;font-family:sans-serif;text-anchor:end;fill:#282828"><tspan id="svg_139" x="-113.333" y="-80.167">oitava</tspan></text></g></g><g id="svg_140" transform="translate(64)"><g id="svg_141" transform="matrix(1.5,0,0,1.5,327,568)"><path id="svg_142" d="m -150.83333,-112.66666 h 60.000002 v 19.999996 h -60.000002 v -7.999996 -1 h -6 v 2.999996 h -2 v -7.999996 h 2 v 3 h 6 v -1 z" style="fill:#77c428;fill-opacity:1;stroke:#57ad02;stroke-width:1;stroke-linecap:round;stroke-opacity:1"/><text id="svg_143" x="-159.333" y="-113.167" style="font-size:10px;font-family:sans-serif;text-anchor:start;fill:#282828"><tspan id="svg_144" x="-146.333" y="-99.167">sol</tspan></text></g></g><g id="svg_145" transform="translate(64)"><g id="svg_146" transform="matrix(1.5,0,0,1.5,327,600)"><path id="svg_147" d="m -150.83333,-112.66666 h 60.000002 v 19.999996 h -60.000002 v -7.999996 -1 h -6 v 2.999996 h -2 v -7.999996 h 2 v 3 h 6 v -1 z" style="fill:#ff5293;fill-opacity:1;stroke:#ff2c76;stroke-width:1;stroke-linecap:round;stroke-opacity:1"/><text id="svg_148" x="-159.333" y="-113.167" style="font-size:10px;font-family:sans-serif;text-anchor:start;fill:#282828"><tspan id="svg_149" x="-146.333" y="-99.167">4</tspan></text></g></g><g id="svg_150" transform="translate(64)"><g id="svg_151" transform="matrix(1.5,0,0,1.5,253,631)"><path id="svg_152" d="m -201.5,-104.66666 v -4 c 0,-2.20914 1.79086,-4 4,-4 h 4 v 2 h 10 v -2 h 72.66667 4 c 2.20914,0 4,1.79086 4,4 v 4 h -4 v -3 h -4 v 9.999996 h 4 v -2.999996 h 4 v 16.999996 h -4 v -3 h -4 v 10 h 4 v -3 h 4 v 4 c 0,2.209139 -1.79086,4 -4,4 h -4 -72.66667 -1 v 2 h -8 v -2 h -1 -4 c -2.20914,0 -4,-1.790861 -4,-4 v -4 -20.999996 z" style="fill:#77c428;fill-opacity:1;stroke:#57ad02;stroke-width:1;stroke-linecap:round;stroke-opacity:1"/><text id="svg_153" x="-159.333" y="-113.167" style="font-size:10px;font-family:sans-serif;text-anchor:end;fill:#282828"><tspan id="svg_154" x="-113.333" y="-89.167">determinar o tom</tspan></text><text id="svg_155" x="-159.333" y="-113.167" style="font-size:6.66666651px;font-family:sans-serif;text-anchor:end;fill:#282828"><tspan id="svg_156" x="-113.333" y="-101.167">nome</tspan></text><text id="svg_157" x="-159.333" y="-113.167" style="font-size:6.66666651px;font-family:sans-serif;text-anchor:end;fill:#282828"><tspan id="svg_158" x="-113.333" y="-80.167">oitava</tspan></text></g></g><g id="svg_159" transform="translate(64)"><g id="svg_160" transform="matrix(1.5,0,0,1.5,327,631)"><path id="svg_161" d="m -150.83333,-112.66666 h 60.000002 v 19.999996 h -60.000002 v -7.999996 -1 h -6 v 2.999996 h -2 v -7.999996 h 2 v 3 h 6 v -1 z" style="fill:#77c428;fill-opacity:1;stroke:#57ad02;stroke-width:1;stroke-linecap:round;stroke-opacity:1"/><text id="svg_162" x="-159.333" y="-113.167" style="font-size:10px;font-family:sans-serif;text-anchor:start;fill:#282828"><tspan id="svg_163" x="-146.333" y="-99.167">mi</tspan></text></g></g><g id="svg_164" transform="translate(64)"><g id="svg_165" transform="matrix(1.5,0,0,1.5,327,663)"><path id="svg_166" d="m -150.83333,-112.66666 h 60.000002 v 19.999996 h -60.000002 v -7.999996 -1 h -6 v 2.999996 h -2 v -7.999996 h 2 v 3 h 6 v -1 z" style="fill:#ff5293;fill-opacity:1;stroke:#ff2c76;stroke-width:1;stroke-linecap:round;stroke-opacity:1"/><text id="svg_167" x="-159.333" y="-113.167" style="font-size:10px;font-family:sans-serif;text-anchor:start;fill:#282828"><tspan id="svg_168" x="-146.333" y="-99.167">4</tspan></text></g></g><g id="svg_169" transform="translate(64)"><g id="svg_170" transform="matrix(1.5,0,0,1.5,253,694)"><path id="svg_171" d="m -201.5,-104.66666 v -4 c 0,-2.20914 1.79086,-4 4,-4 h 4 v 2 h 10 v -2 h 72.66667 4 c 2.20914,0 4,1.79086 4,4 v 4 h -4 v -3 h -4 v 9.999996 h 4 v -2.999996 h 4 v 16.999996 h -4 v -3 h -4 v 10 h 4 v -3 h 4 v 4 c 0,2.209139 -1.79086,4 -4,4 h -4 -72.66667 -1 v 2 h -8 v -2 h -1 -4 c -2.20914,0 -4.69859,-1.904227 -4,-4 v -4 -20.999996 z" style="fill:#77c428;fill-opacity:1;stroke:#57ad02;stroke-width:1;stroke-linecap:round;stroke-opacity:1"/><text id="svg_172" x="-159.333" y="-113.167" style="font-size:10px;font-family:sans-serif;text-anchor:end;fill:#282828"><tspan id="svg_173" x="-113.333" y="-89.167">determinar o tom</tspan></text><text id="svg_174" x="-159.333" y="-113.167" style="font-size:6.66666651px;font-family:sans-serif;text-anchor:end;fill:#282828"><tspan id="svg_175" x="-113.333" y="-101.167">nome</tspan></text><text id="svg_176" x="-159.333" y="-113.167" style="font-size:6.66666651px;font-family:sans-serif;text-anchor:end;fill:#282828"><tspan id="svg_177" x="-113.333" y="-80.167">oitava</tspan></text></g></g><g id="svg_178" transform="translate(64)"><g id="svg_179" transform="matrix(1.5,0,0,1.5,327,694)"><path id="svg_180" d="m -150.83333,-112.66666 h 60.000002 v 19.999996 h -60.000002 v -7.999996 -1 h -6 v 2.999996 h -2 v -7.999996 h 2 v 3 h 6 v -1 z" style="fill:#77c428;fill-opacity:1;stroke:#57ad02;stroke-width:1;stroke-linecap:round;stroke-opacity:1"/><text id="svg_181" x="-159.333" y="-113.167" style="font-size:10px;font-family:sans-serif;text-anchor:start;fill:#282828"><tspan id="svg_182" x="-146.333" y="-99.167">re</tspan></text></g></g><g id="svg_183" transform="translate(64)"><g id="svg_184" transform="matrix(1.5,0,0,1.5,327,726)"><path id="svg_185" d="m -150.83333,-112.66666 h 60.000002 v 19.999996 h -60.000002 v -7.999996 -1 h -6 v 2.999996 h -2 v -7.999996 h 2 v 3 h 6 v -1 z" style="fill:#ff5293;fill-opacity:1;stroke:#ff2c76;stroke-width:1;stroke-linecap:round;stroke-opacity:1"/><text id="svg_186" x="-159.333" y="-113.167" style="font-size:10px;font-family:sans-serif;text-anchor:start;fill:#282828"><tspan id="svg_187" x="-146.333" y="-99.167">4</tspan></text></g></g><path id="svg_190" d="m 14.750005,600.00001 v -6 c 0,-3.31371 2.68629,-6 6,-6 h 6 v 3 h 15 v -3 h 13.5 78.000005 6 c 3.31371,0 6,2.68629 6,6 v 6 h -6 v -4.5 h -6 V 610.5 h 6 v -4.49999 h 6 V 612 c 0,3.31371 -2.68629,6 -6,6 h -6 -78.000005 -1.5 v 3 h -12 v -3 h -1.5 -6 c -4.14213,0 -7.5,3.35787 -7.5,7.5 v 6 6 63 6 c 0,4.14214 3.35787,7.5 7.5,7.5 h 6 v 3 h 15 v -3 h 12 v 9 9 6 c 0,3.31371 -2.68629,6 -6,6 h -6 -13.5 -1.5 v 3 h -12 v -3 h -1.5 -6 c -3.31371,0 -6,-2.68629 -6,-6 v -6 z" style="fill:#ff8b2d;fill-opacity:1;stroke:#e86b0e;stroke-width:1.5;stroke-linecap:round;stroke-opacity:1"/><text id="svg_191" x="14" y="587.25" style="font-size:15px;font-family:sans-serif;text-anchor:start;fill:#282828;stroke-width:1.5"><tspan style="stroke-width:1.5" id="svg_192" x="21.5" y="609.75">tuplet</tspan></text><text id="svg_193" x="34" y="587.25" style="font-size:10px;font-family:sans-serif;text-anchor:end;fill:#282828;stroke-width:1.5"><tspan style="stroke-width:1.5" id="svg_194" x="131.5" y="605.25">valor da nota</tspan></text><g id="svg_195" transform="translate(18)"><g id="svg_196" transform="matrix(1.5,0,0,1.5,355,757)"><path id="svg_197" d="m -150.83333,-104.66666 v -4 a 4,4 90 0 1 4,-4 h 4 10 30 4.000002 a 4,4 90 0 1 4,4 v 4 h -4 v -3 h -4.000002 v 9.999996 h 4.000002 v -2.999996 h 4 v 16.999996 h -4 v -3 h -4.000002 v 10 h 4.000002 v -3 h 4 v 4 a 4,4 90 0 1 -4,4 h -4.000002 -30 -10 -4 a 4,4 90 0 1 -4,-4 v -4 -20.999996 -1 h -6 v 2.999996 h -2 v -7.999996 h 2 v 3 h 6 z" style="fill:#ff5293;fill-opacity:1;stroke:#ff2c76;stroke-width:1;stroke-linecap:round;stroke-opacity:1"/><text id="svg_198" x="-159.333" y="-113.167" style="font-size:9px;font-family:sans-serif;text-anchor:end;fill:#282828"><tspan id="svg_199" x="-105.333" y="-90.167">➗</tspan></text></g></g><g id="svg_204" transform="translate(18)"><g id="svg_205" transform="matrix(1.5,0,0,1.5,441,757)"><path id="svg_206" d="m -150.83333,-112.66666 h 60.000002 v 19.999996 h -60.000002 v -7.999996 -1 h -6 v 2.999996 h -2 v -7.999996 h 2 v 3 h 6 v -1 z" style="fill:#ff5293;fill-opacity:1;stroke:#ff2c76;stroke-width:1;stroke-linecap:round;stroke-opacity:1"/><text id="svg_207" x="-159.333" y="-113.167" style="font-size:10px;font-family:sans-serif;text-anchor:start;fill:#282828"><tspan id="svg_208" x="-146.333" y="-99.167">1</tspan></text></g></g><g id="svg_209" transform="translate(18)"><g id="svg_210" transform="matrix(1.5,0,0,1.5,441,789)"><path id="svg_211" d="m -150.83333,-112.66666 h 60.000002 v 19.999996 h -60.000002 v -7.999996 -1 h -6 v 2.999996 h -2 v -7.999996 h 2 v 3 h 6 v -1 z" style="fill:#ff5293;fill-opacity:1;stroke:#ff2c76;stroke-width:1;stroke-linecap:round;stroke-opacity:1"/><text id="svg_212" x="-159.333" y="-113.167" style="font-size:10px;font-family:sans-serif;text-anchor:start;fill:#282828"><tspan id="svg_213" x="-146.333" y="-99.167">4</tspan></text></g></g><g id="svg_214"><g id="svg_215" transform="matrix(1.5,0,0,1.5,267,789)"><path id="svg_216" d="m -158.83333,-104.66666 v -4 a 4,4 90 0 1 4,-4 h 4 v 2 h 10 v -2 h 20 4 a 4,4 90 0 1 4,4 v 4 4 3.999996 a 4,4 90 0 1 -4,4 h -4 -20 -1 v 2 h -8 v -2 h -1 -4 a 4,4 90 0 1 -4,-4 v -3.999996 z" style="fill:#b0b0b0;fill-opacity:1;stroke:#a0a0a0;stroke-width:1;stroke-linecap:round;stroke-opacity:1"/><text id="svg_217" x="-159.333" y="-113.167" style="font-size:10px;font-family:sans-serif;text-anchor:end;fill:#282828"><tspan id="svg_218" x="-123.333" y="-99.167">↓</tspan></text></g></g><g id="svg_219"><g id="svg_220" transform="matrix(1.5,0,0,1.5,267,821)"><path id="svg_221" d="m -158.83333,-104.66666 v -4 a 4,4 90 0 1 4,-4 h 4 v 2 h 10 v -2 h 42.000002 4 a 4,4 90 0 1 4,4 v 4 h -4 v -3 h -4 v 9.999996 h 4 v -2.999996 h 4 v 16.999996 h -4 v -3 h -4 v 10 h 4 v -3 h 4 v 4 a 4,4 90 0 1 -4,4 h -4 -42.000002 -1 v 2 h -8 v -2 h -1 -4 a 4,4 90 0 1 -4,-4 v -4 -20.999996 z" style="fill:#ff8b2d;fill-opacity:1;stroke:#e86b0e;stroke-width:1;stroke-linecap:round;stroke-opacity:1"/><text id="svg_222" x="-159.333" y="-113.167" style="font-size:10px;font-family:sans-serif;text-anchor:end;fill:#282828"><tspan id="svg_223" x="-101.333" y="-89.167">rhythm</tspan></text><text id="svg_224" x="-159.333" y="-113.167" style="font-size:6.66666651px;font-family:sans-serif;text-anchor:end;fill:#282828"><tspan id="svg_225" x="-101.333" y="-101.167">número de notas</tspan></text><text id="svg_226" x="-159.333" y="-113.167" style="font-size:6.66666651px;font-family:sans-serif;text-anchor:end;fill:#282828"><tspan id="svg_227" x="-101.333" y="-80.167">valor da nota</tspan></text></g></g><g id="svg_228"><g id="svg_229" transform="matrix(1.5,0,0,1.5,359,821)"><path id="svg_230" d="m -150.83333,-112.66666 h 60.000002 v 19.999996 h -60.000002 v -7.999996 -1 h -6 v 2.999996 h -2 v -7.999996 h 2 v 3 h 6 v -1 z" style="fill:#ff5293;fill-opacity:1;stroke:#ff2c76;stroke-width:1;stroke-linecap:round;stroke-opacity:1"/><text id="svg_231" x="-159.333" y="-113.167" style="font-size:10px;font-family:sans-serif;text-anchor:start;fill:#282828"><tspan id="svg_232" x="-146.333" y="-99.167">3</tspan></text></g></g><g id="svg_233"><g id="svg_234" transform="matrix(1.5,0,0,1.5,359,853)"><path id="svg_235" d="m -150.83333,-104.66666 v -4 a 4,4 90 0 1 4,-4 h 4 10 30 4.000002 a 4,4 90 0 1 4,4 v 4 h -4 v -3 h -4.000002 v 9.999996 h 4.000002 v -2.999996 h 4 v 16.999996 h -4 v -3 h -4.000002 v 10 h 4.000002 v -3 h 4 v 4 a 4,4 90 0 1 -4,4 h -4.000002 -30 -10 -4 a 4,4 90 0 1 -4,-4 v -4 -20.999996 -1 h -6 v 2.999996 h -2 v -7.999996 h 2 v 3 h 6 z" style="fill:#ff5293;fill-opacity:1;stroke:#ff2c76;stroke-width:1;stroke-linecap:round;stroke-opacity:1"/><text id="svg_236" x="-159.333" y="-113.167" style="font-size:9px;font-family:sans-serif;text-anchor:end;fill:#282828"><tspan id="svg_237" x="-105.333" y="-90.167">➗</tspan></text></g></g><g id="svg_242"><g id="svg_243" transform="matrix(1.5,0,0,1.5,445,853)"><path id="svg_244" d="m -150.83333,-112.66666 h 60.000002 v 19.999996 h -60.000002 v -7.999996 -1 h -6 v 2.999996 h -2 v -7.999996 h 2 v 3 h 6 v -1 z" style="fill:#ff5293;fill-opacity:1;stroke:#ff2c76;stroke-width:1;stroke-linecap:round;stroke-opacity:1"/><text id="svg_245" x="-159.333" y="-113.167" style="font-size:10px;font-family:sans-serif;text-anchor:start;fill:#282828"><tspan id="svg_246" x="-146.333" y="-99.167">1</tspan></text></g></g><g id="svg_247"><g id="svg_248" transform="matrix(1.5,0,0,1.5,445,885)"><path id="svg_249" d="m -150.83333,-112.66666 h 60.000002 v 19.999996 h -60.000002 v -7.999996 -1 h -6 v 2.999996 h -2 v -7.999996 h 2 v 3 h 6 v -1 z" style="fill:#ff5293;fill-opacity:1;stroke:#ff2c76;stroke-width:1;stroke-linecap:round;stroke-opacity:1"/><text id="svg_250" x="-159.333" y="-113.167" style="font-size:10px;font-family:sans-serif;text-anchor:start;fill:#282828"><tspan id="svg_251" x="-146.333" y="-99.167">16</tspan></text></g></g></svg>