<svg xmlns="http://www.w3.org/2000/svg" xmlns:svg="http://www.w3.org/2000/svg" id="svg44" width="256.5" height="173.5" version="1.1"><metadata id="metadata50"/><rect style="fill:none;stroke:none" id="backgroundrect" width="100%" height="100%" x=".75" y=".75"/><g id="svg_15" transform="translate(16.750005,0.750005)"><g id="svg_16" transform="matrix(1.5,0,0,1.5,309,229)"><path id="svg_17" d="m -216.66667,-144.66667 v -4 c 0,-2.20914 1.79086,-4 4,-4 h 4 v 2 h 10 v -2 h 46 4 c 2.20914,0 4,1.79086 4,4 v 4 h -4 v -3 h -4 v 10 h 4 v -3 h 4 v 17 h -4 v -3 h -4 v 10 h 4 v -3 h 4 v 4 c 0,2.20914 -1.79086,4 -4,4 h -4 -46 -1 v 2 h -8 v -2 h -1 -4 c -2.20914,0 -4,-1.79086 -4,-4 v -4 -21 z" style="fill:#daa926;fill-opacity:1;stroke:#daaf30;stroke-width:1;stroke-linecap:round;stroke-opacity:1"/><text id="svg_18" x="-205.167" y="-153.167" style="font-size:10px;font-family:sans-serif;text-anchor:end;fill:#282828"><tspan id="svg_19" x="-155.167" y="-129.167">guardar em</tspan></text><text id="svg_20" x="-205.167" y="-153.167" style="font-size:6.66666651px;font-family:sans-serif;text-anchor:end;fill:#282828"><tspan id="svg_21" x="-155.167" y="-141.167">nome</tspan></text><text id="svg_22" x="-205.167" y="-153.167" style="font-size:6.66666651px;font-family:sans-serif;text-anchor:end;fill:#282828"><tspan id="svg_23" x="-155.167" y="-120.167">valor</tspan></text></g></g><g id="svg_24" transform="translate(16.750005,0.750005)"><g id="svg_25" transform="matrix(1.5,0,0,1.5,389,229)"><path id="svg_26" d="m -196.66667,-152.66667 h 90 v 20 h -90 v -8 -1 h -6 v 3 h -2 v -8 h 2 v 3 h 6 v -1 z" style="fill:#ff5942;fill-opacity:1;stroke:#ea4326;stroke-width:1;stroke-linecap:round;stroke-opacity:1"/><text id="svg_27" x="-205.167" y="-153.167" style="font-size:10px;font-family:sans-serif;text-anchor:start;fill:#282828"><tspan id="svg_28" x="-192.167" y="-139.167">caixa</tspan></text></g></g><g id="svg_29" transform="translate(16.750005,0.750005)"><g id="svg_30" transform="matrix(1.5,0,0,1.5,389,261)"><path id="svg_31" d="m -196.66667,-152.66667 h 60 v 20 h -60 v -8 -1 h -6 v 3 h -2 v -8 h 2 v 3 h 6 v -1 z" style="fill:#ff5293;fill-opacity:1;stroke:#ff2c76;stroke-width:1;stroke-linecap:round;stroke-opacity:1"/><text id="svg_32" x="-205.167" y="-153.167" style="font-size:10px;font-family:sans-serif;text-anchor:start;fill:#282828"><tspan id="svg_33" x="-192.167" y="-139.167">4</tspan></text></g></g><g id="svg_34" transform="translate(0.750005,0.750005)"><g id="svg_35" transform="matrix(1.5,0,0,1.5,307,316)"><path id="svg_36" d="m -196.66667,-152.66667 h 90 v 20 h -90 v -8 -1 h -6 v 3 h -2 v -8 h 2 v 3 h 6 v -1 z" style="fill:#daa926;fill-opacity:1;stroke:#daaf30;stroke-width:1;stroke-linecap:round;stroke-opacity:1"/><text id="svg_37" x="-205.167" y="-153.167" style="font-size:10px;font-family:sans-serif;text-anchor:start;fill:#282828"><tspan id="svg_38" x="-192.167" y="-139.167">caixa</tspan></text></g></g><g id="svg_39" transform="translate(18.750005,0.750005)"><g id="svg_40" transform="matrix(1.5,0,0,1.5,310,368)"><path id="svg_41" d="m -218,-144.66667 v -4 c 0,-2.20914 1.79086,-4 4,-4 h 4 v 2 h 10 v -2 h 52.33333 4 c 2.20914,0 4,1.79086 4,4 v 4 h -4 v -3 h -4 v 10 h 4 v -3 h 4 v 4 c 0,2.20914 -1.79086,4 -4,4 h -4 H -200 h -1 v 2 h -8 v -2 h -1 -4 c -2.20914,0 -4.69859,-1.90423 -4,-4 v -4 z" style="fill:#daa926;fill-opacity:1;stroke:#daaf30;stroke-width:1;stroke-linecap:round;stroke-opacity:1"/><text id="svg_42" x="-205.167" y="-153.167" style="font-size:10px;font-family:sans-serif;text-anchor:end;fill:#282828"><tspan id="svg_43" x="-150.167" y="-139.167">adicionar 1 à</tspan></text></g></g><g id="svg_46" transform="translate(18.750005,0.750005)"><g id="svg_47" transform="matrix(1.5,0,0,1.5,397,368)"><path id="svg_48" d="m -196.66667,-152.66667 h 90 v 20 h -90 v -8 -1 h -6 v 3 h -2 v -8 h 2 v 3 h 6 v -1 z" style="fill:#daa926;fill-opacity:1;stroke:#daaf30;stroke-width:1;stroke-linecap:round;stroke-opacity:1"/><text id="svg_49" x="-205.167" y="-153.167" style="font-size:10px;font-family:sans-serif;text-anchor:start;fill:#282828"><tspan id="svg_50" x="-192.167" y="-139.167">caixa</tspan></text></g></g></svg>