<svg xmlns="http://www.w3.org/2000/svg" xmlns:svg="http://www.w3.org/2000/svg" id="svg11666" width="415.241" height="176.343" version="1.1" viewBox="0 0 109.866 46.657"><metadata id="metadata11663"/><g id="layer1" transform="translate(281.32818,-0.51934444)"><g id="g9785" transform="matrix(0.26458333,0,0,0.26458333,-454.89484,-547.4169)"><g id="g4596"><g id="g4576" transform="translate(656,2071.3617)"><g id="g4574" transform="scale(1.5)"><path id="path4568" d="m 0.5,14.5 v -4 a 4,4 90 0 1 4,-4 h 4 l 5,-6 5,6 h 9 60 4 a 4,4 90 0 1 4,4 v 4 4 4 a 4,4 90 0 1 -4,4 h -4 -60 -1 v 2 h -8 v -2 h -1 -4 a 5,5 90 0 0 -5,5 v 4 4 42 4 a 5,5 90 0 0 5,5 h 4 v 2 h 10 v -2 h 8 v 6 6 4 a 4,4 90 0 1 -4,4 h -4 -9 l -5,6 -5,-6 h -4 a 4,4 90 0 1 -4,-4 v -4 z" style="fill:#7cd622;fill-opacity:1;stroke:#57ad02;stroke-width:1;stroke-linecap:round;stroke-opacity:1"/><text id="text4572" style="font-size:10px;font-family:sans-serif;text-anchor:start;fill:#282828"><tspan id="tspan4570" x="20" y="22">tempo</tspan></text></g></g><g id="g4594" transform="matrix(0.5,0,0,0.5,656,2083.3617)"><g id="g4592" style="isolation:isolate"><g id="g4590" data-name="レイヤー 2"><g id="g4588"><rect id="rect4578" width="42" height="42" x="0" y="0" rx="5" ry="5" style="opacity:.4;mix-blend-mode:multiply;fill:#292929"/><path id="path4580" d="m 30.56,29.8 -4.17,-4.16 h 2.26 a 1.035,1.035 0 1 0 0,-2.07 h -4.71 a 1.08,1.08 0 0 0 -1.11,1 v 0 c 0,0 0,0 0,0.06 v 4.64 0 a 1.04,1.04 0 1 0 2.08,0 v -2.19 l 4.19,4.19 a 1,1 0 0 0 1.46,0 1,1 0 0 0 0,-1.47 z" style="fill:#fff"/><path id="path4582" d="m 19.17,24.6 a 1.08,1.08 0 0 0 -1.11,-1 h -4.71 a 1.035,1.035 0 1 0 0,2.07 h 2.25 l -4.16,4.13 a 1.039447,1.039447 0 0 0 1.47,1.47 l 4.18,-4.19 v 2.26 a 1.04,1.04 0 1 0 2.08,0 V 24.7 c 0,0 0,0 0,-0.06 a 0.08,0.08 0 0 1 0,-0.04 z" style="fill:#fff"/><path id="path4584" d="m 23.94,20.5 h 4.7 a 1.04,1.04 0 1 0 0,-2.08 h -2.25 l 4.17,-4.16 a 1,1 0 0 0 0,-1.47 1,1 0 0 0 -1.46,0 L 24.91,17 v -2.28 a 1.04,1.04 0 1 0 -2.08,0 v 4.64 a 0.43,0.43 0 0 0 0,0.05 v 0.05 a 1.09,1.09 0 0 0 1.11,1.04 z" style="fill:#fff"/><path id="path4586" d="m 18.13,13.62 a 1.08,1.08 0 0 0 -1,1.09 V 17 l -4.18,-4.19 a 1,1 0 0 0 -1.47,0 1,1 0 0 0 0,1.46 l 4.16,4.17 h -2.29 a 1.04,1.04 0 1 0 0,2.08 h 4.71 a 1.09,1.09 0 0 0 1.11,-1 c 0,0 0,0 0,-0.06 v -4.75 a 1.07,1.07 0 0 0 -1.04,-1.09 z" style="fill:#fff"/></g></g></g></g></g><g id="g4614" transform="translate(669.5,2111.8617)"><g id="g4612" transform="scale(1.5)"><path id="path4598" d="m 0.5,8.5 v -4 a 4,4 90 0 1 4,-4 h 4 v 2 h 10 v -2 h 122.82715 4 a 4,4 90 0 1 4,4 v 4 h -4 v -3 h -4 v 10 h 4 v -3 h 4 v 17 h -4 v -3 h -4 v 10 h 4 v -3 h 4 v 4 a 4,4 90 0 1 -4,4 h -4 H 18.5 h -1 v 2 h -8 v -2 h -1 -4 a 4,4 90 0 1 -4,-4 v -4 -21 z" style="fill:#fe994f;fill-opacity:1;stroke:#e86b0e;stroke-width:1;stroke-linecap:round;stroke-opacity:1"/><text id="text4602" style="font-size:10px;font-family:sans-serif;text-anchor:end;fill:#282828"><tspan id="tspan4600" x="139" y="24">batida mestre por minuto</tspan></text><text id="text4606" style="font-size:6.66666651px;font-family:sans-serif;text-anchor:end;fill:#282828"><tspan id="tspan4604" x="139" y="12">bpm</tspan></text><text id="text4610" style="font-size:6.66666651px;font-family:sans-serif;text-anchor:end;fill:#282828"><tspan id="tspan4608" x="139" y="33">valor da batida</tspan></text></g></g><g id="g4624" transform="translate(882.24072,2111.8617)"><g id="g4622" transform="scale(1.5)"><path id="path4616" d="m 8.5,0.5 h 60 v 20 h -60 v -8 -1 h -6 v 3 h -2 v -8 h 2 v 3 h 6 v -1 z" style="fill:#ff6ea1;fill-opacity:1;stroke:#ff2c76;stroke-width:1;stroke-linecap:round;stroke-opacity:1"/><text id="text4620" style="font-size:10px;font-family:sans-serif;text-anchor:start;fill:#282828"><tspan id="tspan4618" x="13" y="14">90</tspan></text></g></g><g id="g4642" transform="translate(882.24072,2143.3617)"><g id="g4640" transform="scale(1.5)"><path id="path4626" d="m 8.5,8.5 v -4 a 4,4 90 0 1 4,-4 h 4 10 30 4 a 4,4 90 0 1 4,4 v 4 h -4 v -3 h -4 v 10 h 4 v -3 h 4 v 17 h -4 v -3 h -4 v 10 h 4 v -3 h 4 v 4 a 4,4 90 0 1 -4,4 h -4 -30 -10 -4 a 4,4 90 0 1 -4,-4 v -4 -21 -1 h -6 v 3 h -2 v -8 h 2 v 3 h 6 z" style="fill:#ff6ea1;fill-opacity:1;stroke:#ff2c76;stroke-width:1;stroke-linecap:round;stroke-opacity:1"/><text id="text4630" style="font-size:9px;font-family:sans-serif;text-anchor:end;fill:#282828"><tspan id="tspan4628" x="54" y="23">➗</tspan></text></g></g><g id="g4652" transform="translate(967.74072,2143.3617)"><g id="g4650" transform="scale(1.5)"><path id="path4644" d="m 8.5,0.5 h 60 v 20 h -60 v -8 -1 h -6 v 3 h -2 v -8 h 2 v 3 h 6 v -1 z" style="fill:#ff6ea1;fill-opacity:1;stroke:#ff2c76;stroke-width:1;stroke-linecap:round;stroke-opacity:1"/><text id="text4648" style="font-size:10px;font-family:sans-serif;text-anchor:start;fill:#282828"><tspan id="tspan4646" x="13" y="14">1</tspan></text></g></g><g id="g4662" transform="translate(967.74072,2174.8617)"><g id="g4660" transform="scale(1.5)"><path id="path4654" d="m 8.5,0.5 h 60 v 20 h -60 v -8 -1 h -6 v 3 h -2 v -8 h 2 v 3 h 6 v -1 z" style="fill:#ff6ea1;fill-opacity:1;stroke:#ff2c76;stroke-width:1;stroke-linecap:round;stroke-opacity:1"/><text id="text4658" style="font-size:10px;font-family:sans-serif;text-anchor:start;fill:#282828"><tspan id="tspan4656" x="13" y="14">4</tspan></text></g></g><g id="g4672" transform="translate(669.5,2174.8617)"><g id="g4670" transform="scale(1.5)"><path id="path4664" d="m 0.5,8.5 v -4 a 4,4 90 0 1 4,-4 h 4 v 2 h 10 v -2 h 20 4 a 4,4 90 0 1 4,4 v 4 4 4 a 4,4 90 0 1 -4,4 h -4 -20 -1 v 2 h -8 v -2 h -1 -4 a 4,4 90 0 1 -4,-4 v -4 z" style="fill:#c4c4c4;fill-opacity:1;stroke:#a0a0a0;stroke-width:1;stroke-linecap:round;stroke-opacity:1"/><text id="text4668" style="font-size:10px;font-family:sans-serif;text-anchor:end;fill:#282828"><tspan id="tspan4666" x="36" y="14">↓</tspan></text></g></g></g></g></svg>