<svg xmlns="http://www.w3.org/2000/svg" xmlns:svg="http://www.w3.org/2000/svg" id="svg1870" width="269.357" height="207.886" version="1.1" viewBox="0 0 71.267 55.003"><metadata id="metadata1867"/><g id="layer1" transform="translate(5.970071,-155.26837)"><g id="g3371" transform="translate(-0.5291666,0.16249292)"><g id="g706" transform="matrix(0.26458333,0,0,0.26458333,11.62472,155.10588)"><g id="g704" transform="scale(1.5)"><path id="path698" d="m 8.5,0.5 h 70 v 20 h -70 v -8 -1 h -6 v 3 h -2 v -8 h 2 v 3 h 6 v -1 z" style="fill:#ff6648;fill-opacity:1;stroke:#ea4326;stroke-width:1;stroke-linecap:round;stroke-opacity:1"/><text id="text702" style="font-size:10px;font-family:sans-serif;text-anchor:start;fill:#282828"><tspan id="tspan700" x="13" y="14">largura</tspan></text></g></g><g id="g734" transform="matrix(0.26458333,0,0,0.26458333,11.62472,163.44026)"><g id="g732" transform="scale(1.5)"><path id="path718" d="m 8.5,8.5 v -4 a 4,4 90 0 1 4,-4 h 4 10 30 4 a 4,4 90 0 1 4,4 v 4 h -4 v -3 h -4 v 10 h 4 v -3 h 4 v 17 h -4 v -3 h -4 v 10 h 4 v -3 h 4 v 4 a 4,4 90 0 1 -4,4 h -4 -30 -10 -4 a 4,4 90 0 1 -4,-4 v -4 -21 -1 h -6 v 3 h -2 v -8 h 2 v 3 h 6 z" style="fill:#ff6ea1;fill-opacity:1;stroke:#ff2c76;stroke-width:1;stroke-linecap:round;stroke-opacity:1"/><text id="text722" style="font-size:14px;font-family:sans-serif;text-anchor:end;fill:#282828"><tspan id="tspan720" x="54" y="24">–</tspan></text></g></g><g id="g764" transform="matrix(0.26458333,0,0,0.26458333,-5.4409044,155.10588)"><g id="g762" transform="scale(1.5)"><g id="g756" transform="translate(0,-16)"><path id="path754" d="m 0.5,41.5 a 7,7 90 0 1 7,-7 h 1 v -10 a 8,8 90 0 1 8,-8 h 34 v 8 h -4 v -3 h -4 v 10 h 4 v -3 h 4 v 17 h -4 v -3 h -4 v 10 h 4 v -3 h 4 v 8 h -30 -12 v -8 -1 h -1 a 7,7 90 0 1 -7,-7 z" style="fill:#d97df5;fill-opacity:1;stroke:#b653d3;stroke-width:1;stroke-linecap:round;stroke-opacity:1"/></g><text id="text760" style="font-size:14px;font-family:sans-serif;text-anchor:end;fill:#282828"><tspan id="tspan758" x="38" y="26">=</tspan></text></g></g><g id="g786" transform="matrix(0.26458333,0,0,0.26458333,34.246595,171.77463)"><g id="g784" transform="scale(1.5)"><path id="path778" d="m 8.5,0.5 h 70 v 20 h -70 v -8 -1 h -6 v 3 h -2 v -8 h 2 v 3 h 6 v -1 z" style="fill:#ff6648;fill-opacity:1;stroke:#ea4326;stroke-width:1;stroke-linecap:round;stroke-opacity:1"/><text id="text782" style="font-size:10px;font-family:sans-serif;text-anchor:start;fill:#282828"><tspan id="tspan780" x="13" y="14">esquerda</tspan></text></g></g><g id="g796" transform="matrix(0.26458333,0,0,0.26458333,34.246595,163.44026)"><g id="g794" transform="scale(1.5)"><path id="path788" d="m 8.5,0.5 h 70 v 20 h -70 v -8 -1 h -6 v 3 h -2 v -8 h 2 v 3 h 6 v -1 z" style="fill:#ff6648;fill-opacity:1;stroke:#ea4326;stroke-width:1;stroke-linecap:round;stroke-opacity:1"/><text id="text792" style="font-size:10px;font-family:sans-serif;text-anchor:start;fill:#282828"><tspan id="tspan790" x="13" y="14">direita</tspan></text></g></g></g><g id="g3403"><g id="g696" transform="matrix(0.26458333,0,0,0.26458333,11.095554,185.26838)"><g id="g694" transform="scale(1.5)"><path id="path688" d="m 8.5,0.5 h 70 v 20 h -70 v -8 -1 h -6 v 3 h -2 v -8 h 2 v 3 h 6 v -1 z" style="fill:#ff6648;fill-opacity:1;stroke:#ea4326;stroke-width:1;stroke-linecap:round;stroke-opacity:1"/><text id="text692" style="font-size:10px;font-family:sans-serif;text-anchor:start;fill:#282828"><tspan id="tspan690" x="13" y="14">altura</tspan></text></g></g><g id="g716" transform="matrix(0.26458333,0,0,0.26458333,33.717428,201.93713)"><g id="g714" transform="scale(1.5)"><path id="path708" d="m 8.5,0.5 h 70.571289 v 20 H 8.5 v -8 -1 h -6 v 3 h -2 v -8 h 2 v 3 h 6 v -1 z" style="fill:#ff6648;fill-opacity:1;stroke:#ea4326;stroke-width:1;stroke-linecap:round;stroke-opacity:1"/><text id="text712" style="font-size:10px;font-family:sans-serif;text-anchor:start;fill:#282828"><tspan id="tspan710" x="13" y="14">rodapé</tspan></text></g></g><g id="g752" transform="matrix(0.26458333,0,0,0.26458333,11.095554,193.60276)"><g id="g750" transform="scale(1.5)"><path id="path736" d="m 8.5,8.5 v -4 a 4,4 90 0 1 4,-4 h 4 10 30 4 a 4,4 90 0 1 4,4 v 4 h -4 v -3 h -4 v 10 h 4 v -3 h 4 v 17 h -4 v -3 h -4 v 10 h 4 v -3 h 4 v 4 a 4,4 90 0 1 -4,4 h -4 -30 -10 -4 a 4,4 90 0 1 -4,-4 v -4 -21 -1 h -6 v 3 h -2 v -8 h 2 v 3 h 6 z" style="fill:#ff6ea1;fill-opacity:1;stroke:#ff2c76;stroke-width:1;stroke-linecap:round;stroke-opacity:1"/><text id="text740" style="font-size:14px;font-family:sans-serif;text-anchor:end;fill:#282828"><tspan id="tspan738" x="54" y="24">–</tspan></text></g></g><g id="g776" transform="matrix(0.26458333,0,0,0.26458333,-5.970071,185.26838)"><g id="g774" transform="scale(1.5)"><g id="g768" transform="translate(0,-16)"><path id="path766" d="m 0.5,41.5 a 7,7 90 0 1 7,-7 h 1 v -10 a 8,8 90 0 1 8,-8 h 34 v 8 h -4 v -3 h -4 v 10 h 4 v -3 h 4 v 17 h -4 v -3 h -4 v 10 h 4 v -3 h 4 v 8 h -30 -12 v -8 -1 h -1 a 7,7 90 0 1 -7,-7 z" style="fill:#d97df5;fill-opacity:1;stroke:#b653d3;stroke-width:1;stroke-linecap:round;stroke-opacity:1"/></g><text id="text772" style="font-size:14px;font-family:sans-serif;text-anchor:end;fill:#282828"><tspan id="tspan770" x="38" y="26">=</tspan></text></g></g><g id="g806" transform="matrix(0.26458333,0,0,0.26458333,33.717428,193.60276)"><g id="g804" transform="scale(1.5)"><path id="path798" d="m 8.5,0.5 h 70 v 20 h -70 v -8 -1 h -6 v 3 h -2 v -8 h 2 v 3 h 6 v -1 z" style="fill:#ff6648;fill-opacity:1;stroke:#ea4326;stroke-width:1;stroke-linecap:round;stroke-opacity:1"/><text id="text802" style="font-size:10px;font-family:sans-serif;text-anchor:start;fill:#282828"><tspan id="tspan800" x="13" y="14">topo</tspan></text></g></g></g></g></svg>