<svg xmlns="http://www.w3.org/2000/svg" xmlns:svg="http://www.w3.org/2000/svg" id="svg3045" width="288.5" height="155.445" version="1.1" viewBox="0 0 76.332 41.128"><metadata id="metadata3042"/><g id="layer1" transform="translate(-499.26101,-341.7845)"><g id="g1204" transform="matrix(0.26458333,0,0,0.26458333,523.86726,363.88339)"><g id="g1202" transform="scale(1.5)"><path style="fill:#7cd622;fill-opacity:1;stroke:#57ad02;stroke-width:1;stroke-linecap:round;stroke-opacity:1" id="path1196" d="m 8.5,0.5 h 107.27051 v 20 H 8.5 v -8 -1 h -6 v 3 h -2 v -8 h 2 v 3 h 6 v -1 z"/><text style="font-size:10px;font-family:sans-serif;text-anchor:start;fill:#282828" id="text1200"><tspan id="tspan1198" x="13" y="14">cambio en tono</tspan></text></g></g><g id="g1218" transform="matrix(0.26458333,0,0,0.26458333,502.96518,363.88339)"><g id="g1216" transform="scale(1.5)"><path style="fill:#92a9ff;fill-opacity:1;stroke:#5370dc;stroke-width:1;stroke-linecap:round;stroke-opacity:1" id="path1206" d="m 0.5,8.5 v -4 a 4,4 90 0 1 4,-4 h 4 v 2 h 10 v -2 h 33.344727 4 a 4,4 90 0 1 4,4 v 4 h -4 v -3 h -4 v 10 h 4 v -3 h 4 v 4 a 4,4 90 0 1 -4,4 h -4 H 18.5 h -1 v 2 h -8 v -2 h -1 -4 a 4,4 90 0 1 -4,-4 v -4 z"/><text style="font-size:10px;font-family:sans-serif;text-anchor:end;fill:#282828" id="text1210"><tspan id="tspan1208" x="50" y="14">adelante</tspan></text></g></g><g id="g1252" transform="matrix(0.26458333,0,0,0.26458333,104.76726,186.87714)"><g id="g1232" transform="translate(1491,628)"><g id="g1230" transform="scale(1.5)"><path style="fill:#ffbf00;fill-opacity:1;stroke:#daaf30;stroke-width:1;stroke-linecap:round;stroke-opacity:1" id="path1220" d="m 0.5,14.5 v -4 a 4,4 90 0 1 4,-4 h 4 l 5,-6 5,6 h 9 58 4 a 4,4 90 0 1 4,4 v 4 h -4 v -3 h -4 v 10 h 4 v -3 h 4 v 4 a 4,4 90 0 1 -4,4 h -4 -58 -1 v 2 h -8 v -2 h -1 -4 a 5,5 90 0 0 -5,5 v 4 4 4 a 5,5 90 0 0 5,5 h 4 v 2 h 10 v -2 h 8 v 6 6 4 a 4,4 90 0 1 -4,4 h -4 -9 l -5,6 -5,-6 h -4 a 4,4 90 0 1 -4,-4 v -4 z"/><text style="font-size:10px;font-family:sans-serif;text-anchor:start;fill:#282828" id="text1224"><tspan id="tspan1222" x="20" y="22">acción</tspan></text></g></g><g id="g1250" transform="matrix(0.5,0,0,0.5,1491,640)"><g style="isolation:isolate" id="g1248"><g id="g1246" data-name="レイヤー 2"><g id="g1244"><rect style="opacity:.4;mix-blend-mode:multiply;fill:#292929" id="rect1234" width="42" height="42" x="0" y="0" rx="5" ry="5"/><path style="fill:#fff" id="path1236" d="m 30.56,29.8 -4.17,-4.16 h 2.26 a 1.035,1.035 0 1 0 0,-2.07 h -4.71 a 1.08,1.08 0 0 0 -1.11,1 v 0 c 0,0 0,0 0,0.06 v 4.64 0 a 1.04,1.04 0 1 0 2.08,0 v -2.19 l 4.19,4.19 a 1,1 0 0 0 1.46,0 1,1 0 0 0 0,-1.47 z"/><path style="fill:#fff" id="path1238" d="m 19.17,24.6 a 1.08,1.08 0 0 0 -1.11,-1 h -4.71 a 1.035,1.035 0 1 0 0,2.07 h 2.25 l -4.16,4.13 a 1.039447,1.039447 0 0 0 1.47,1.47 l 4.18,-4.19 v 2.26 a 1.04,1.04 0 1 0 2.08,0 V 24.7 c 0,0 0,0 0,-0.06 a 0.08,0.08 0 0 1 0,-0.04 z"/><path style="fill:#fff" id="path1240" d="m 23.94,20.5 h 4.7 a 1.04,1.04 0 1 0 0,-2.08 h -2.25 l 4.17,-4.16 a 1,1 0 0 0 0,-1.47 1,1 0 0 0 -1.46,0 L 24.91,17 v -2.28 a 1.04,1.04 0 1 0 -2.08,0 v 4.64 a 0.43,0.43 0 0 0 0,0.05 v 0.05 a 1.09,1.09 0 0 0 1.11,1.04 z"/><path style="fill:#fff" id="path1242" d="m 18.13,13.62 a 1.08,1.08 0 0 0 -1,1.09 V 17 l -4.18,-4.19 a 1,1 0 0 0 -1.47,0 1,1 0 0 0 0,1.46 l 4.16,4.17 h -2.29 a 1.04,1.04 0 1 0 0,2.08 h 4.71 a 1.09,1.09 0 0 0 1.11,-1 c 0,0 0,0 0,-0.06 v -4.75 a 1.07,1.07 0 0 0 -1.04,-1.09 z"/></g></g></g></g></g><g id="g1262" transform="matrix(0.26458333,0,0,0.26458333,533.39226,355.41672)"><g id="g1260" transform="scale(1.5)"><path style="fill:#ff664b;fill-opacity:1;stroke:#ea4326;stroke-width:1;stroke-linecap:round;stroke-opacity:1" id="path1254" d="m 8.5,0.5 h 90 v 20 h -90 v -8 -1 h -6 v 3 h -2 v -8 h 2 v 3 h 6 v -1 z"/><text style="font-size:10px;font-family:sans-serif;text-anchor:start;fill:#282828" id="text1258"><tspan id="tspan1256" x="13" y="14">acción</tspan></text></g></g><g id="g1276" transform="matrix(0.26458333,0,0,0.26458333,499.26101,341.7845)"><g id="g1274" transform="scale(1.5)"><path style="fill:#fe994f;fill-opacity:1;stroke:#e86b0e;stroke-width:1;stroke-linecap:round;stroke-opacity:1" id="path1264" d="m 0.5,8.5 v -4 a 4,4 90 0 1 4,-4 h 4 v 2 h 10 v -2 h 74.49707 4 a 4,4 90 0 1 4,4 v 4 h -4 v -3 h -4 v 10 h 4 v -3 h 4 v 4 a 4,4 90 0 1 -4,4 h -4 H 18.5 h -1 v 2 h -8 v -2 h -1 -4 a 4,4 90 0 1 -4,-4 v -4 z"/><text style="font-size:10px;font-family:sans-serif;text-anchor:end;fill:#282828" id="text1268"><tspan id="tspan1266" x="91" y="14">en cada latido hacer</tspan></text></g></g><g id="g1286" transform="matrix(0.26458333,0,0,0.26458333,536.30267,341.7845)"><g id="g1284" transform="scale(1.5)"><path style="fill:#ff664b;fill-opacity:1;stroke:#ea4326;stroke-width:1;stroke-linecap:round;stroke-opacity:1" id="path1278" d="m 8.5,0.5 h 90 v 20 h -90 v -8 -1 h -6 v 3 h -2 v -8 h 2 v 3 h 6 v -1 z"/><text style="font-size:10px;font-family:sans-serif;text-anchor:start;fill:#282828" id="text1282"><tspan id="tspan1280" x="13" y="14">acción</tspan></text></g></g></g></svg>