<svg xmlns="http://www.w3.org/2000/svg" xmlns:svg="http://www.w3.org/2000/svg" id="svg2831" width="338.75" height="63" version="1.1" viewBox="0 0 89.628 16.669"><metadata id="metadata2828"/><g id="g852" transform="scale(0.26458333)"><g id="g850" transform="scale(1.5)"><path style="fill:#ffbf00;fill-opacity:1;stroke:#daaf30;stroke-width:1;stroke-linecap:round;stroke-opacity:1" id="path840" d="m 0.5,8.5 v -4 a 4,4 90 0 1 4,-4 h 4 v 2 h 10 v -2 h 30 4 a 4,4 90 0 1 4,4 v 4 h -4 v -3 h -4 v 10 h 4 v -3 h 4 v 4 a 4,4 90 0 1 -4,4 h -4 -30 -1 v 2 h -8 v -2 h -1 -4 a 4,4 90 0 1 -4,-4 v -4 z"/><text style="font-size:10px;font-family:sans-serif;text-anchor:end;fill:#282828" id="text844"><tspan id="tspan842" x="46" y="14">hacer</tspan></text></g></g><g id="g862" transform="matrix(0.26458333,0,0,0.26458333,50.535417,0)"><g id="g860" transform="scale(1.5)"><path style="fill:#ff6648;fill-opacity:1;stroke-width:1;stroke-linecap:round;stroke-opacity:1" id="path854" d="m 8.5,0.5 h 90 v 20 h -90 v -8 -1 h -6 v 3 h -2 v -8 h 2 v 3 h 6 v -1 z"/><text style="font-size:10px;font-family:sans-serif;text-anchor:start;fill:#282828" id="text858"><tspan id="tspan856" x="13" y="14">part 1</tspan></text></g></g><g id="g1048" transform="matrix(0.26458333,0,0,0.26458333,50.535417,8.334379)"><g id="g1046" transform="scale(1.5)"><path style="fill:#ff6648;fill-opacity:1;stroke-width:1;stroke-linecap:round;stroke-opacity:1" id="path1040" d="m 8.5,0.5 h 90 v 20 h -90 v -8 -1 h -6 v 3 h -2 v -8 h 2 v 3 h 6 v -1 z"/><text style="font-size:10px;font-family:sans-serif;text-anchor:start;fill:#282828" id="text1044"><tspan id="tspan1042" x="13" y="14">part 2</tspan></text></g></g><g id="g1076" transform="matrix(0.26458333,0,0,0.26458333,27.913542,0)"><g id="g1074" transform="scale(1.5)"><path style="fill:#ff6ea1;fill-opacity:1;stroke:#ff2c76;stroke-width:1;stroke-linecap:round;stroke-opacity:1" id="path1060" d="m -12.833334,8.5 v -4 c 0,-2.209139 1.790861,-4 4.0000005,-4 h 4 10 H 56.5 h 4 c 2.209139,0 4,1.790861 4,4 v 4 h -4 v -3 h -4 v 10 h 4 v -3 h 4 v 17 h -4 v -3 h -4 v 10 h 4 v -3 h 4 v 4 c 0,2.209139 -1.790861,4 -4,4 h -4 -51.3333335 -10 -4 c -2.2091395,0 -4.6985915,-1.904227 -4.0000005,-4 v -4 -21 -1 h -6 v 3 h -2 v -8 h 2 v 3 h 6 z"/><text style="font-size:10px;font-family:sans-serif;text-anchor:end;fill:#282828" id="text1064"><tspan id="tspan1062" x="54" y="23">uno de estos</tspan></text><text style="font-size:6.66666651px;font-family:sans-serif;text-anchor:end;fill:#282828" id="text1068"><tspan id="tspan1066" x="54" y="12">éste</tspan></text><text style="font-size:6.66666651px;font-family:sans-serif;text-anchor:end;fill:#282828" id="text1072"><tspan id="tspan1070" x="54" y="33">ése</tspan></text></g></g></svg>