<svg xmlns="http://www.w3.org/2000/svg" xmlns:svg="http://www.w3.org/2000/svg" id="svg11666" width="429.741" height="94.5" version="1.1" viewBox="0 0 113.702 25.003"><metadata id="metadata11663"/><g id="layer1" transform="translate(432.11343,55.676149)"><g id="g1036" transform="matrix(0.26458333,0,0,0.26458333,-424.7051,-55.676149)"><g id="g1034" transform="scale(1.5)"><path id="path1020" d="m -18.166668,8.5 v -4 c 0,-2.209139 1.790861,-4 4,-4 h 4 v 2 h 10.00000048 v -2 H 141.32715 h 4 c 2.20914,0 4,1.790861 4,4 v 4 h -4 v -3 h -4 v 10 h 4 v -3 h 4 v 17 h -4 v -3 h -4 v 10 h 4 v -3 h 4 v 4 c 0,2.209139 -1.79086,4 -4,4 h -4 H -0.16666752 -1.1666675 v 2 h -8 v -2 h -1.0000005 -4 c -2.209139,0 -4,-1.790861 -4,-4 v -4 -21 z" style="fill:#fe994f;fill-opacity:1;stroke:#e86b0e;stroke-width:1;stroke-linecap:round;stroke-opacity:1"/><text id="text1024" style="font-size:10px;font-family:sans-serif;text-anchor:end;fill:#282828"><tspan id="tspan1022" x="139" y="24">latidos por minuto de dominar</tspan></text><text id="text1028" style="font-size:6.66666651px;font-family:sans-serif;text-anchor:end;fill:#282828"><tspan id="tspan1026" x="139" y="12">bpm</tspan></text><text id="text1032" style="font-size:6.66666651px;font-family:sans-serif;text-anchor:end;fill:#282828"><tspan id="tspan1030" x="139" y="33">valor de latidos</tspan></text></g></g><g id="g1046" transform="matrix(0.26458333,0,0,0.26458333,-368.41746,-55.676149)"><g id="g1044" transform="scale(1.5)"><path id="path1038" d="m 8.5,0.5 h 60 v 20 h -60 v -8 -1 h -6 v 3 h -2 v -8 h 2 v 3 h 6 v -1 z" style="fill:#ff6ea1;fill-opacity:1;stroke:#ff2c76;stroke-width:1;stroke-linecap:round;stroke-opacity:1"/><text id="text1042" style="font-size:10px;font-family:sans-serif;text-anchor:start;fill:#282828"><tspan id="tspan1040" x="13" y="14">90</tspan></text></g></g><g id="g1064" transform="matrix(0.26458333,0,0,0.26458333,-368.41746,-47.341774)"><g id="g1062" transform="scale(1.5)"><path id="path1048" d="m 8.5,8.5 v -4 a 4,4 90 0 1 4,-4 h 4 10 30 4 a 4,4 90 0 1 4,4 v 4 h -4 v -3 h -4 v 10 h 4 v -3 h 4 v 17 h -4 v -3 h -4 v 10 h 4 v -3 h 4 v 4 a 4,4 90 0 1 -4,4 h -4 -30 -10 -4 a 4,4 90 0 1 -4,-4 v -4 -21 -1 h -6 v 3 h -2 v -8 h 2 v 3 h 6 z" style="fill:#ff6ea1;fill-opacity:1;stroke:#ff2c76;stroke-width:1;stroke-linecap:round;stroke-opacity:1"/><text id="text1052" style="font-size:9px;font-family:sans-serif;text-anchor:end;fill:#282828"><tspan id="tspan1050" x="54" y="23">➗</tspan></text></g></g><g id="g1074" transform="matrix(0.26458333,0,0,0.26458333,-345.79558,-47.341774)"><g id="g1072" transform="scale(1.5)"><path id="path1066" d="m 8.5,0.5 h 60 v 20 h -60 v -8 -1 h -6 v 3 h -2 v -8 h 2 v 3 h 6 v -1 z" style="fill:#ff6ea1;fill-opacity:1;stroke:#ff2c76;stroke-width:1;stroke-linecap:round;stroke-opacity:1"/><text id="text1070" style="font-size:10px;font-family:sans-serif;text-anchor:start;fill:#282828"><tspan id="tspan1068" x="13" y="14">1</tspan></text></g></g><g id="g1084" transform="matrix(0.26458333,0,0,0.26458333,-345.79558,-39.007399)"><g id="g1082" transform="scale(1.5)"><path id="path1076" d="m 8.5,0.5 h 60 v 20 h -60 v -8 -1 h -6 v 3 h -2 v -8 h 2 v 3 h 6 v -1 z" style="fill:#ff6ea1;fill-opacity:1;stroke:#ff2c76;stroke-width:1;stroke-linecap:round;stroke-opacity:1"/><text id="text1080" style="font-size:10px;font-family:sans-serif;text-anchor:start;fill:#282828"><tspan id="tspan1078" x="13" y="14">4</tspan></text></g></g></g></svg>