<svg xmlns="http://www.w3.org/2000/svg" xmlns:svg="http://www.w3.org/2000/svg" id="svg11666" width="293" height="94.5" version="1.1" viewBox="0 0 77.523 25.003"><metadata id="metadata11663"/><g id="layer1" transform="translate(372.71447,92.254798)"><g id="g960" transform="matrix(0.26458333,0,0,0.26458333,-370.5978,-92.254798)"><g id="g958" transform="scale(1.5)"><path id="path944" d="m -4.8333336,8.5 v -4 c 0,-2.209139 1.790861,-4 4.00000002,-4 H 3.1666664 v 2 h 9.9999996 v -2 H 63.5 h 4 c 2.209139,0 4,1.790861 4,4 v 4 h -4 v -3 h -4 v 10 h 4 v -3 h 4 v 17 h -4 v -3 h -4 v 10 h 4 v -3 h 4 v 4 c 0,2.209139 -1.790861,4 -4,4 h -4 -50.333334 -1 v 2 H 4.1666664 v -2 h -1 -3.99999998 c -2.20913902,0 -4.00000002,-1.790861 -4.00000002,-4 v -4 -21 z" style="fill:#fe994f;fill-opacity:1;stroke:#e86b0e;stroke-width:1;stroke-linecap:round;stroke-opacity:1"/><text id="text948" style="font-size:10px;font-family:sans-serif;text-anchor:end;fill:#282828"><tspan id="tspan946" x="61" y="24">metro</tspan></text><text id="text952" style="font-size:6.66666651px;font-family:sans-serif;text-anchor:end;fill:#282828"><tspan id="tspan950" x="61" y="12">número de latidos</tspan></text><text id="text956" style="font-size:6.66666651px;font-family:sans-serif;text-anchor:end;fill:#282828"><tspan id="tspan954" x="61" y="33">valor de la nota</tspan></text></g></g><g id="g970" transform="matrix(0.26458333,0,0,0.26458333,-345.1978,-92.254798)"><g id="g968" transform="scale(1.5)"><path id="path962" d="m 8.5,0.5 h 60 v 20 h -60 v -8 -1 h -6 v 3 h -2 v -8 h 2 v 3 h 6 v -1 z" style="fill:#ff6ea1;fill-opacity:1;stroke:#ff2c76;stroke-width:1;stroke-linecap:round;stroke-opacity:1"/><text id="text966" style="font-size:10px;font-family:sans-serif;text-anchor:start;fill:#282828"><tspan id="tspan964" x="13" y="14">4</tspan></text></g></g><g id="g988" transform="matrix(0.26458333,0,0,0.26458333,-345.1978,-83.920423)"><g id="g986" transform="scale(1.5)"><path id="path972" d="m 8.5,8.5 v -4 a 4,4 90 0 1 4,-4 h 4 10 30 4 a 4,4 90 0 1 4,4 v 4 h -4 v -3 h -4 v 10 h 4 v -3 h 4 v 17 h -4 v -3 h -4 v 10 h 4 v -3 h 4 v 4 a 4,4 90 0 1 -4,4 h -4 -30 -10 -4 a 4,4 90 0 1 -4,-4 v -4 -21 -1 h -6 v 3 h -2 v -8 h 2 v 3 h 6 z" style="fill:#ff6ea1;fill-opacity:1;stroke:#ff2c76;stroke-width:1;stroke-linecap:round;stroke-opacity:1"/><text id="text976" style="font-size:9px;font-family:sans-serif;text-anchor:end;fill:#282828"><tspan id="tspan974" x="54" y="23">➗</tspan></text></g></g><g id="g998" transform="matrix(0.26458333,0,0,0.26458333,-322.57593,-83.920423)"><g id="g996" transform="scale(1.5)"><path id="path990" d="m 8.5,0.5 h 60 v 20 h -60 v -8 -1 h -6 v 3 h -2 v -8 h 2 v 3 h 6 v -1 z" style="fill:#ff6ea1;fill-opacity:1;stroke:#ff2c76;stroke-width:1;stroke-linecap:round;stroke-opacity:1"/><text id="text994" style="font-size:10px;font-family:sans-serif;text-anchor:start;fill:#282828"><tspan id="tspan992" x="13" y="14">1</tspan></text></g></g><g id="g1008" transform="matrix(0.26458333,0,0,0.26458333,-322.57593,-75.586048)"><g id="g1006" transform="scale(1.5)"><path id="path1000" d="m 8.5,0.5 h 60 v 20 h -60 v -8 -1 h -6 v 3 h -2 v -8 h 2 v 3 h 6 v -1 z" style="fill:#ff6ea1;fill-opacity:1;stroke:#ff2c76;stroke-width:1;stroke-linecap:round;stroke-opacity:1"/><text id="text1004" style="font-size:10px;font-family:sans-serif;text-anchor:start;fill:#282828"><tspan id="tspan1002" x="13" y="14">4</tspan></text></g></g></g></svg>