<svg xmlns="http://www.w3.org/2000/svg" xmlns:svg="http://www.w3.org/2000/svg" id="svg11666" width="334.5" height="286.5" version="1.1" viewBox="0 0 88.503 75.803"><metadata id="metadata11663"/><g id="layer1" transform="translate(423.37112,20.076636)"><g id="g9618" transform="matrix(0.26458333,0,0,0.26458333,-467.54827,-440.92124)"><g id="g2338" transform="translate(166.96875,1590.5938)"><g id="g2336" transform="scale(1.5)"><path id="path2322" d="m 0.5,8.5 v -4 a 4,4 90 0 1 4,-4 h 4 v 2 h 10 v -2 h 9 67.539062 4 a 4,4 90 0 1 3.999998,4 v 4 h -3.999998 v -3 h -4 v 10 h 4 v -3 h 3.999998 v 17 h -3.999998 v -3 h -4 v 10 h 4 v -3 h 3.999998 v 4 a 4,4 90 0 1 -3.999998,4 h -4 H 27.5 h -1 v 2 h -8 v -2 h -1 -4 a 5,5 90 0 0 -5,5 v 4 4 105 4 a 5,5 90 0 0 5,5 h 4 v 2 h 10 v -2 h 8 v 6 6 4 a 4,4 90 0 1 -4,4 h -4 -9 -1 v 2 h -8 v -2 h -1 -4 a 4,4 90 0 1 -4,-4 v -4 z" style="fill:#3edcdd;fill-opacity:1;stroke:#1dbcbd;stroke-width:1;stroke-linecap:round;stroke-opacity:1"/><text id="text2326" style="font-size:10px;font-family:sans-serif;text-anchor:start;fill:#282828"><tspan id="tspan2324" x="5" y="22">vecina (+/–)</tspan></text><text id="text2330" style="font-size:6.66666651px;font-family:sans-serif;text-anchor:end;fill:#282828"><tspan id="tspan2328" x="93" y="12">intervalo escalar</tspan></text><text id="text2334" style="font-size:6.66666651px;font-family:sans-serif;text-anchor:end;fill:#282828"><tspan id="tspan2332" x="93" y="33">valor de la nota</tspan></text></g></g><g id="g2348" transform="translate(310.27734,1590.5938)"><g id="g2346" transform="scale(1.5)"><path id="path2340" d="m 8.5,0.5 h 60 v 20 h -60 v -8 -1 h -6 v 3 h -2 v -8 h 2 v 3 h 6 v -1 z" style="fill:#ff6ea1;fill-opacity:1;stroke:#ff2c76;stroke-width:1;stroke-linecap:round;stroke-opacity:1"/><text id="text2344" style="font-size:10px;font-family:sans-serif;text-anchor:start;fill:#282828"><tspan id="tspan2342" x="13" y="14">1</tspan></text></g></g><g id="g2358" transform="translate(180.46875,1653.5938)"><g id="g2356" transform="scale(1.5)"><path id="path2350" d="m 0.5,8.5 v -4 a 4,4 90 0 1 4,-4 h 4 v 2 h 10 v -2 h 20 4 a 4,4 90 0 1 4,4 v 4 4 4 a 4,4 90 0 1 -4,4 h -4 -20 -1 v 2 h -8 v -2 h -1 -4 a 4,4 90 0 1 -4,-4 v -4 z" style="fill:#c4c4c4;fill-opacity:1;stroke:#a0a0a0;stroke-width:1;stroke-linecap:round;stroke-opacity:1"/><text id="text2354" style="font-size:10px;font-family:sans-serif;text-anchor:end;fill:#282828"><tspan id="tspan2352" x="36" y="14">↓</tspan></text></g></g><g id="g2376" transform="translate(310.27734,1622.0938)"><g id="g2374" transform="scale(1.5)"><path id="path2360" d="m 8.5,8.5 v -4 a 4,4 90 0 1 4,-4 h 4 10 30 4 a 4,4 90 0 1 4,4 v 4 h -4 v -3 h -4 v 10 h 4 v -3 h 4 v 17 h -4 v -3 h -4 v 10 h 4 v -3 h 4 v 4 a 4,4 90 0 1 -4,4 h -4 -30 -10 -4 a 4,4 90 0 1 -4,-4 v -4 -21 -1 h -6 v 3 h -2 v -8 h 2 v 3 h 6 z" style="fill:#ff6ea1;fill-opacity:1;stroke:#ff2c76;stroke-width:1;stroke-linecap:round;stroke-opacity:1"/><text id="text2364" style="font-size:9px;font-family:sans-serif;text-anchor:end;fill:#282828"><tspan id="tspan2362" x="54" y="23">➗</tspan></text></g></g><g id="g2386" transform="translate(395.77734,1622.0938)"><g id="g2384" transform="scale(1.5)"><path id="path2378" d="m 8.5,0.5 h 60 v 20 h -60 v -8 -1 h -6 v 3 h -2 v -8 h 2 v 3 h 6 v -1 z" style="fill:#ff6ea1;fill-opacity:1;stroke:#ff2c76;stroke-width:1;stroke-linecap:round;stroke-opacity:1"/><text id="text2382" style="font-size:10px;font-family:sans-serif;text-anchor:start;fill:#282828"><tspan id="tspan2380" x="13" y="14">1</tspan></text></g></g><g id="g2396" transform="translate(395.77734,1653.5938)"><g id="g2394" transform="scale(1.5)"><path id="path2388" d="m 8.5,0.5 h 60 v 20 h -60 v -8 -1 h -6 v 3 h -2 v -8 h 2 v 3 h 6 v -1 z" style="fill:#ff6ea1;fill-opacity:1;stroke:#ff2c76;stroke-width:1;stroke-linecap:round;stroke-opacity:1"/><text id="text2392" style="font-size:10px;font-family:sans-serif;text-anchor:start;fill:#282828"><tspan id="tspan2390" x="13" y="14">16</tspan></text></g></g><g id="g2632" transform="translate(-82.03125,58.59375)"><g id="g2612" transform="translate(262.5,1626.5)"><g id="g2610" transform="scale(1.5)"><path id="path2600" d="m 0.5,8.5 v -4 a 4,4 90 0 1 4,-4 h 4 v 2 h 10 v -2 h 9 60 4 a 4,4 90 0 1 4,4 v 4 h -4 v -3 h -4 v 10 h 4 v -3 h 4 v 4 a 4,4 90 0 1 -4,4 h -4 -60 -1 v 2 h -8 v -2 h -1 -4 a 5,5 90 0 0 -5,5 v 4 4 42 4 a 5,5 90 0 0 5,5 h 4 v 2 h 10 v -2 h 8 v 6 6 4 a 4,4 90 0 1 -4,4 h -4 -9 -1 v 2 h -8 v -2 h -1 -4 a 4,4 90 0 1 -4,-4 v -4 z" style="fill:#fe994f;fill-opacity:1;stroke:#e86b0e;stroke-width:1;stroke-linecap:round;stroke-opacity:1"/><text id="text2604" style="font-size:10px;font-family:sans-serif;text-anchor:start;fill:#282828"><tspan id="tspan2602" x="20" y="15">nota</tspan></text><text id="text2608" style="font-size:6.66666651px;font-family:sans-serif;text-anchor:end;fill:#282828"><tspan id="tspan2606" x="85" y="12">valor</tspan></text></g></g><g id="g2630" transform="matrix(0.5,0,0,0.5,262.5,1630.5)"><g id="g2628" style="isolation:isolate"><g id="g2626" data-name="レイヤー 2"><g id="g2624"><rect id="rect2614" width="42" height="42" x="0" y="0" rx="5" ry="5" style="opacity:.4;mix-blend-mode:multiply;fill:#292929"/><path id="path2616" d="m 30.56,29.8 -4.17,-4.16 h 2.26 a 1.035,1.035 0 1 0 0,-2.07 h -4.71 a 1.08,1.08 0 0 0 -1.11,1 v 0 c 0,0 0,0 0,0.06 v 4.64 0 a 1.04,1.04 0 1 0 2.08,0 v -2.19 l 4.19,4.19 a 1,1 0 0 0 1.46,0 1,1 0 0 0 0,-1.47 z" style="fill:#fff"/><path id="path2618" d="m 19.17,24.6 a 1.08,1.08 0 0 0 -1.11,-1 h -4.71 a 1.035,1.035 0 1 0 0,2.07 h 2.25 l -4.16,4.13 a 1.039447,1.039447 0 0 0 1.47,1.47 l 4.18,-4.19 v 2.26 a 1.04,1.04 0 1 0 2.08,0 V 24.7 c 0,0 0,0 0,-0.06 a 0.08,0.08 0 0 1 0,-0.04 z" style="fill:#fff"/><path id="path2620" d="m 23.94,20.5 h 4.7 a 1.04,1.04 0 1 0 0,-2.08 h -2.25 l 4.17,-4.16 a 1,1 0 0 0 0,-1.47 1,1 0 0 0 -1.46,0 L 24.91,17 v -2.28 a 1.04,1.04 0 1 0 -2.08,0 v 4.64 a 0.43,0.43 0 0 0 0,0.05 v 0.05 a 1.09,1.09 0 0 0 1.11,1.04 z" style="fill:#fff"/><path id="path2622" d="m 18.13,13.62 a 1.08,1.08 0 0 0 -1,1.09 V 17 l -4.18,-4.19 a 1,1 0 0 0 -1.47,0 1,1 0 0 0 0,1.46 l 4.16,4.17 h -2.29 a 1.04,1.04 0 1 0 0,2.08 h 4.71 a 1.09,1.09 0 0 0 1.11,-1 c 0,0 0,0 0,-0.06 v -4.75 a 1.07,1.07 0 0 0 -1.04,-1.09 z" style="fill:#fff"/></g></g></g></g></g><g id="g2650" transform="translate(312.46875,1685.0938)"><g id="g2648" transform="scale(1.5)"><path id="path2634" d="m 8.5,8.5 v -4 a 4,4 90 0 1 4,-4 h 4 10 30 4 a 4,4 90 0 1 4,4 v 4 h -4 v -3 h -4 v 10 h 4 v -3 h 4 v 17 h -4 v -3 h -4 v 10 h 4 v -3 h 4 v 4 a 4,4 90 0 1 -4,4 h -4 -30 -10 -4 a 4,4 90 0 1 -4,-4 v -4 -21 -1 h -6 v 3 h -2 v -8 h 2 v 3 h 6 z" style="fill:#ff6ea1;fill-opacity:1;stroke:#ff2c76;stroke-width:1;stroke-linecap:round;stroke-opacity:1"/><text id="text2638" style="font-size:9px;font-family:sans-serif;text-anchor:end;fill:#282828"><tspan id="tspan2636" x="54" y="23">➗</tspan></text></g></g><g id="g2660" transform="translate(397.96875,1685.0938)"><g id="g2658" transform="scale(1.5)"><path id="path2652" d="m 8.5,0.5 h 60 v 20 h -60 v -8 -1 h -6 v 3 h -2 v -8 h 2 v 3 h 6 v -1 z" style="fill:#ff6ea1;fill-opacity:1;stroke:#ff2c76;stroke-width:1;stroke-linecap:round;stroke-opacity:1"/><text id="text2656" style="font-size:10px;font-family:sans-serif;text-anchor:start;fill:#282828"><tspan id="tspan2654" x="13" y="14">1</tspan></text></g></g><g id="g2670" transform="translate(397.96875,1716.5938)"><g id="g2668" transform="scale(1.5)"><path id="path2662" d="m 8.5,0.5 h 60 v 20 h -60 v -8 -1 h -6 v 3 h -2 v -8 h 2 v 3 h 6 v -1 z" style="fill:#ff6ea1;fill-opacity:1;stroke:#ff2c76;stroke-width:1;stroke-linecap:round;stroke-opacity:1"/><text id="text2666" style="font-size:10px;font-family:sans-serif;text-anchor:start;fill:#282828"><tspan id="tspan2664" x="13" y="14">4</tspan></text></g></g><g id="g2680" transform="translate(193.96875,1716.5938)"><g id="g2678" transform="scale(1.5)"><path id="path2672" d="m 0.5,8.5 v -4 a 4,4 90 0 1 4,-4 h 4 v 2 h 10 v -2 h 20 4 a 4,4 90 0 1 4,4 v 4 4 4 a 4,4 90 0 1 -4,4 h -4 -20 -1 v 2 h -8 v -2 h -1 -4 a 4,4 90 0 1 -4,-4 v -4 z" style="fill:#c4c4c4;fill-opacity:1;stroke:#a0a0a0;stroke-width:1;stroke-linecap:round;stroke-opacity:1"/><text id="text2676" style="font-size:10px;font-family:sans-serif;text-anchor:end;fill:#282828"><tspan id="tspan2674" x="36" y="14">↓</tspan></text></g></g><g id="g2698" transform="translate(193.96875,1748.0938)"><g id="g2696" transform="scale(1.5)"><path id="path2682" d="m 0.5,8.5 v -4 a 4,4 90 0 1 4,-4 h 4 v 2 h 10 v -2 h 30 4 a 4,4 90 0 1 4,4 v 4 h -4 v -3 h -4 v 10 h 4 v -3 h 4 v 17 h -4 v -3 h -4 v 10 h 4 v -3 h 4 v 4 a 4,4 90 0 1 -4,4 h -4 -30 -1 v 2 h -8 v -2 h -1 -4 a 4,4 90 0 1 -4,-4 v -4 -21 z" style="fill:#7cd622;fill-opacity:1;stroke:#57ad02;stroke-width:1;stroke-linecap:round;stroke-opacity:1"/><text id="text2686" style="font-size:10px;font-family:sans-serif;text-anchor:end;fill:#282828"><tspan id="tspan2684" x="46" y="24">tono</tspan></text><text id="text2690" style="font-size:6.66666651px;font-family:sans-serif;text-anchor:end;fill:#282828"><tspan id="tspan2688" x="46" y="12">nombre</tspan></text><text id="text2694" style="font-size:6.66666651px;font-family:sans-serif;text-anchor:end;fill:#282828"><tspan id="tspan2692" x="46" y="33">octava</tspan></text></g></g><g id="g2708" transform="translate(267.46875,1748.0938)"><g id="g2706" transform="scale(1.5)"><path id="path2700" d="m 8.5,0.5 h 60 v 20 h -60 v -8 -1 h -6 v 3 h -2 v -8 h 2 v 3 h 6 v -1 z" style="fill:#7cd622;fill-opacity:1;stroke:#57ad02;stroke-width:1;stroke-linecap:round;stroke-opacity:1"/><text id="text2704" style="font-size:10px;font-family:sans-serif;text-anchor:start;fill:#282828"><tspan id="tspan2702" x="13" y="14">sol</tspan></text></g></g><g id="g2718" transform="translate(267.46875,1779.5938)"><g id="g2716" transform="scale(1.5)"><path id="path2710" d="m 8.5,0.5 h 60 v 20 h -60 v -8 -1 h -6 v 3 h -2 v -8 h 2 v 3 h 6 v -1 z" style="fill:#ff6ea1;fill-opacity:1;stroke:#ff2c76;stroke-width:1;stroke-linecap:round;stroke-opacity:1"/><text id="text2714" style="font-size:10px;font-family:sans-serif;text-anchor:start;fill:#282828"><tspan id="tspan2712" x="13" y="14">4</tspan></text></g></g></g></g></svg>