<svg xmlns="http://www.w3.org/2000/svg" xmlns:svg="http://www.w3.org/2000/svg" id="svg11666" width="321" height="160.5" version="1.1" viewBox="0 0 84.931 42.466"><metadata id="metadata11663"/><g id="layer1" transform="translate(391.88571,-27.217632)"><g id="g11414" transform="matrix(0.26458333,0,0,0.26458333,-442.95029,-116.7157)"><g id="g1136" transform="translate(206.5,607)"><g id="g1134" transform="scale(1.5)"><path id="path1120" d="m 0.5,8.5 v -4 a 4,4 90 0 1 4,-4 h 4 v 2 h 10 v -2 h 30 4 a 4,4 90 0 1 4,4 v 4 h -4 v -3 h -4 v 10 h 4 v -3 h 4 v 17 h -4 v -3 h -4 v 10 h 4 v -3 h 4 v 4 a 4,4 90 0 1 -4,4 h -4 -30 -1 v 2 h -8 v -2 h -1 -4 a 4,4 90 0 1 -4,-4 v -4 -21 z" style="fill:#7cd622;fill-opacity:1;stroke:#57ad02;stroke-width:1;stroke-linecap:round;stroke-opacity:1"/><text id="text1124" style="font-size:10px;font-family:sans-serif;text-anchor:end;fill:#282828"><tspan id="tspan1122" x="46" y="24">tono</tspan></text><text id="text1128" style="font-size:6.66666651px;font-family:sans-serif;text-anchor:end;fill:#282828"><tspan id="tspan1126" x="46" y="12">nombre</tspan></text><text id="text1132" style="font-size:6.66666651px;font-family:sans-serif;text-anchor:end;fill:#282828"><tspan id="tspan1130" x="46" y="33">octava</tspan></text></g></g><g id="g1146" transform="translate(280,607)"><g id="g1144" transform="scale(1.5)"><path id="path1138" d="m 8.5,0.5 h 60 v 20 h -60 v -8 -1 h -6 v 3 h -2 v -8 h 2 v 3 h 6 v -1 z" style="fill:#7cd622;fill-opacity:1;stroke:#57ad02;stroke-width:1;stroke-linecap:round;stroke-opacity:1"/><text id="text1142" style="font-size:10px;font-family:sans-serif;text-anchor:start;fill:#282828"><tspan id="tspan1140" x="13" y="14">G</tspan></text></g></g><g id="g1156" transform="translate(280,638.5)"><g id="g1154" transform="scale(1.5)"><path id="path1148" d="m 8.5,0.5 h 60 v 20 h -60 v -8 -1 h -6 v 3 h -2 v -8 h 2 v 3 h 6 v -1 z" style="fill:#ff6ea1;fill-opacity:1;stroke:#ff2c76;stroke-width:1;stroke-linecap:round;stroke-opacity:1"/><text id="text1152" style="font-size:10px;font-family:sans-serif;text-anchor:start;fill:#282828"><tspan id="tspan1150" x="13" y="14">4</tspan></text></g></g><g id="g1262"><g id="g1242" transform="translate(193,544)"><g id="g1240" transform="scale(1.5)"><path id="path1230" d="m 0.5,8.5 v -4 a 4,4 90 0 1 4,-4 h 4 v 2 h 10 v -2 h 9 60 4 a 4,4 90 0 1 4,4 v 4 h -4 v -3 h -4 v 10 h 4 v -3 h 4 v 4 a 4,4 90 0 1 -4,4 h -4 -60 -1 v 2 h -8 v -2 h -1 -4 a 5,5 90 0 0 -5,5 v 4 4 42 4 a 5,5 90 0 0 5,5 h 4 v 2 h 10 v -2 h 8 v 6 6 4 a 4,4 90 0 1 -4,4 h -4 -9 -1 v 2 h -8 v -2 h -1 -4 a 4,4 90 0 1 -4,-4 v -4 z" style="fill:#fe994f;fill-opacity:1;stroke:#e86b0e;stroke-width:1;stroke-linecap:round;stroke-opacity:1"/><text id="text1234" style="font-size:10px;font-family:sans-serif;text-anchor:start;fill:#282828"><tspan id="tspan1232" x="20" y="15">nota</tspan></text><text id="text1238" style="font-size:6.66666651px;font-family:sans-serif;text-anchor:end;fill:#282828"><tspan id="tspan1236" x="85" y="12">valor</tspan></text></g></g><g id="g1260" transform="matrix(0.5,0,0,0.5,193,548)"><g id="g1258" style="isolation:isolate"><g id="g1256" data-name="レイヤー 2"><g id="g1254"><rect id="rect1244" width="42" height="42" x="0" y="0" rx="5" ry="5" style="opacity:.4;mix-blend-mode:multiply;fill:#292929"/><path id="path1246" d="m 30.56,29.8 -4.17,-4.16 h 2.26 a 1.035,1.035 0 1 0 0,-2.07 h -4.71 a 1.08,1.08 0 0 0 -1.11,1 v 0 c 0,0 0,0 0,0.06 v 4.64 0 a 1.04,1.04 0 1 0 2.08,0 v -2.19 l 4.19,4.19 a 1,1 0 0 0 1.46,0 1,1 0 0 0 0,-1.47 z" style="fill:#fff"/><path id="path1248" d="m 19.17,24.6 a 1.08,1.08 0 0 0 -1.11,-1 h -4.71 a 1.035,1.035 0 1 0 0,2.07 h 2.25 l -4.16,4.13 a 1.039447,1.039447 0 0 0 1.47,1.47 l 4.18,-4.19 v 2.26 a 1.04,1.04 0 1 0 2.08,0 V 24.7 c 0,0 0,0 0,-0.06 a 0.08,0.08 0 0 1 0,-0.04 z" style="fill:#fff"/><path id="path1250" d="m 23.94,20.5 h 4.7 a 1.04,1.04 0 1 0 0,-2.08 h -2.25 l 4.17,-4.16 a 1,1 0 0 0 0,-1.47 1,1 0 0 0 -1.46,0 L 24.91,17 v -2.28 a 1.04,1.04 0 1 0 -2.08,0 v 4.64 a 0.43,0.43 0 0 0 0,0.05 v 0.05 a 1.09,1.09 0 0 0 1.11,1.04 z" style="fill:#fff"/><path id="path1252" d="m 18.13,13.62 a 1.08,1.08 0 0 0 -1,1.09 V 17 l -4.18,-4.19 a 1,1 0 0 0 -1.47,0 1,1 0 0 0 0,1.46 l 4.16,4.17 h -2.29 a 1.04,1.04 0 1 0 0,2.08 h 4.71 a 1.09,1.09 0 0 0 1.11,-1 c 0,0 0,0 0,-0.06 v -4.75 a 1.07,1.07 0 0 0 -1.04,-1.09 z" style="fill:#fff"/></g></g></g></g></g><g id="g1280" transform="translate(325,544)"><g id="g1278" transform="scale(1.5)"><path id="path1264" d="m 8.5,8.5 v -4 a 4,4 90 0 1 4,-4 h 4 10 30 4 a 4,4 90 0 1 4,4 v 4 h -4 v -3 h -4 v 10 h 4 v -3 h 4 v 17 h -4 v -3 h -4 v 10 h 4 v -3 h 4 v 4 a 4,4 90 0 1 -4,4 h -4 -30 -10 -4 a 4,4 90 0 1 -4,-4 v -4 -21 -1 h -6 v 3 h -2 v -8 h 2 v 3 h 6 z" style="fill:#ff6ea1;fill-opacity:1;stroke:#ff2c76;stroke-width:1;stroke-linecap:round;stroke-opacity:1"/><text id="text1268" style="font-size:9px;font-family:sans-serif;text-anchor:end;fill:#282828"><tspan id="tspan1266" x="54" y="23">➗</tspan></text></g></g><g id="g1290" transform="translate(410.5,544)"><g id="g1288" transform="scale(1.5)"><path id="path1282" d="m 8.5,0.5 h 60 v 20 h -60 v -8 -1 h -6 v 3 h -2 v -8 h 2 v 3 h 6 v -1 z" style="fill:#ff6ea1;fill-opacity:1;stroke:#ff2c76;stroke-width:1;stroke-linecap:round;stroke-opacity:1"/><text id="text1286" style="font-size:10px;font-family:sans-serif;text-anchor:start;fill:#282828"><tspan id="tspan1284" x="13" y="14">1</tspan></text></g></g><g id="g1300" transform="translate(410.5,575.5)"><g id="g1298" transform="scale(1.5)"><path id="path1292" d="m 8.5,0.5 h 60 v 20 h -60 v -8 -1 h -6 v 3 h -2 v -8 h 2 v 3 h 6 v -1 z" style="fill:#ff6ea1;fill-opacity:1;stroke:#ff2c76;stroke-width:1;stroke-linecap:round;stroke-opacity:1"/><text id="text1296" style="font-size:10px;font-family:sans-serif;text-anchor:start;fill:#282828"><tspan id="tspan1294" x="13" y="14">4</tspan></text></g></g><g id="g1310" transform="translate(206.5,575.5)"><g id="g1308" transform="scale(1.5)"><path id="path1302" d="m 0.5,8.5 v -4 a 4,4 90 0 1 4,-4 h 4 v 2 h 10 v -2 h 20 4 a 4,4 90 0 1 4,4 v 4 4 4 a 4,4 90 0 1 -4,4 h -4 -20 -1 v 2 h -8 v -2 h -1 -4 a 4,4 90 0 1 -4,-4 v -4 z" style="fill:#c4c4c4;fill-opacity:1;stroke:#a0a0a0;stroke-width:1;stroke-linecap:round;stroke-opacity:1"/><text id="text1306" style="font-size:10px;font-family:sans-serif;text-anchor:end;fill:#282828"><tspan id="tspan1304" x="36" y="14">↓</tspan></text></g></g></g></g></svg>