<svg xmlns="http://www.w3.org/2000/svg" xmlns:svg="http://www.w3.org/2000/svg" id="svg11666" width="426.753" height="488.043" version="1.1" viewBox="0 0 112.912 129.128"><metadata id="metadata11663"/><g id="g466" transform="matrix(0.26458333,0,0,0.26458333,-225.425,-12.932363)"><g id="g446" transform="translate(852,109)"><g id="g444" transform="scale(1.5)"><path style="fill:#ffbf00;fill-opacity:1;stroke:#daaf30;stroke-width:1;stroke-linecap:round;stroke-opacity:1" id="path434" d="m 0.5,14.5 v -4 a 4,4 90 0 1 4,-4 h 4 l 5,-6 5,6 h 9 52 4 a 4,4 90 0 1 4,4 v 4 h -4 v -3 h -4 v 10 h 4 v -3 h 4 v 4 a 4,4 90 0 1 -4,4 h -4 -52 -1 v 2 h -8 v -2 h -1 -4 a 5,5 90 0 0 -5,5 v 4 4 210 4 a 5,5 90 0 0 5,5 h 4 v 2 h 10 v -2 h 8 v 6 6 4 a 4,4 90 0 1 -4,4 h -4 -9 l -5,6 -5,-6 h -4 a 4,4 90 0 1 -4,-4 v -4 z"/><text style="font-size:10px;font-family:sans-serif;text-anchor:start;fill:#282828" id="text438"><tspan id="tspan436" x="20" y="22">acción</tspan></text></g></g><g id="g464" transform="matrix(0.5,0,0,0.5,852,121)"><g style="isolation:isolate" id="g462"><g id="g460" data-name="レイヤー 2"><g id="g458"><rect style="opacity:.4;mix-blend-mode:multiply;fill:#292929" id="rect448" width="42" height="42" x="0" y="0" rx="5" ry="5"/><path style="fill:#fff" id="path450" d="m 30.56,29.8 -4.17,-4.16 h 2.26 a 1.035,1.035 0 1 0 0,-2.07 h -4.71 a 1.08,1.08 0 0 0 -1.11,1 v 0 c 0,0 0,0 0,0.06 v 4.64 0 a 1.04,1.04 0 1 0 2.08,0 v -2.19 l 4.19,4.19 a 1,1 0 0 0 1.46,0 1,1 0 0 0 0,-1.47 z"/><path style="fill:#fff" id="path452" d="m 19.17,24.6 a 1.08,1.08 0 0 0 -1.11,-1 h -4.71 a 1.035,1.035 0 1 0 0,2.07 h 2.25 l -4.16,4.13 a 1.039447,1.039447 0 0 0 1.47,1.47 l 4.18,-4.19 v 2.26 a 1.04,1.04 0 1 0 2.08,0 V 24.7 c 0,0 0,0 0,-0.06 a 0.08,0.08 0 0 1 0,-0.04 z"/><path style="fill:#fff" id="path454" d="m 23.94,20.5 h 4.7 a 1.04,1.04 0 1 0 0,-2.08 h -2.25 l 4.17,-4.16 a 1,1 0 0 0 0,-1.47 1,1 0 0 0 -1.46,0 L 24.91,17 v -2.28 a 1.04,1.04 0 1 0 -2.08,0 v 4.64 a 0.43,0.43 0 0 0 0,0.05 v 0.05 a 1.09,1.09 0 0 0 1.11,1.04 z"/><path style="fill:#fff" id="path456" d="m 18.13,13.62 a 1.08,1.08 0 0 0 -1,1.09 V 17 l -4.18,-4.19 a 1,1 0 0 0 -1.47,0 1,1 0 0 0 0,1.46 l 4.16,4.17 h -2.29 a 1.04,1.04 0 1 0 0,2.08 h 4.71 a 1.09,1.09 0 0 0 1.11,-1 c 0,0 0,0 0,-0.06 v -4.75 a 1.07,1.07 0 0 0 -1.04,-1.09 z"/></g></g></g></g></g><g id="g476" transform="matrix(0.26458333,0,0,0.26458333,31.749997,18.28847)"><g id="g474" transform="scale(1.5)"><path style="fill:#ff6648;fill-opacity:1;stroke:#ea4326;stroke-width:1;stroke-linecap:round;stroke-opacity:1" id="path468" d="m 8.5,0.5 h 90 v 20 h -90 v -8 -1 h -6 v 3 h -2 v -8 h 2 v 3 h 6 v -1 z"/><text style="font-size:10px;font-family:sans-serif;text-anchor:start;fill:#282828" id="text472"><tspan id="tspan470" x="13" y="14">acción</tspan></text></g></g><g id="g494" transform="matrix(0.26458333,0,0,0.26458333,3.5718721,26.622845)"><g id="g492" transform="scale(1.5)"><path style="fill:#d98a43;fill-opacity:1;stroke:#b7651a;stroke-width:1;stroke-linecap:round;stroke-opacity:1" id="path478" d="m 0.5,8.5 v -4 a 4,4 90 0 1 4,-4 h 4 v 2 h 10 v -2 h 9 15 4 a 4,4 90 0 1 4,4 v 4 9 a 8,8 90 0 0 -8,8 8,8 90 0 0 8,8 v 4 a 4,4 90 0 1 -4,4 h -4 -15 -1 v 2 h -8 v -2 h -1 -4 a 5,5 90 0 0 -5,5 v 4 4 4 a 5,5 90 0 0 5,5 h 4 v 2 h 10 v -2 h 8 15 v 12 4 a 4,4 90 0 1 -4,4 h -4 -15 -1 v 2 h -8 v -2 h -1 -4 a 5,5 90 0 0 -5,5 v 4 4 4 a 5,5 90 0 0 5,5 h 4 v 2 h 10 v -2 h 8 v 6 6 4 a 4,4 90 0 1 -4,4 h -4 -9 -1 v 2 h -8 v -2 h -1 -4 a 4,4 90 0 1 -4,-4 v -4 z"/><text style="font-size:10px;font-family:sans-serif;text-anchor:start;fill:#282828" id="text482"><tspan id="tspan480" x="5" y="19">si</tspan></text><text style="font-size:6.66666651px;font-family:sans-serif;text-anchor:end;fill:#282828" id="text486"><tspan id="tspan484" x="46" y="38">entonces</tspan></text><text style="font-size:6.66666651px;font-family:sans-serif;text-anchor:end;fill:#282828" id="text490"><tspan id="tspan488" x="46" y="80">sino</tspan></text></g></g><g id="g506" transform="matrix(0.26458333,0,0,0.26458333,20.637497,26.622845)"><g id="g504" transform="scale(1.5)"><g id="g498" transform="translate(0,-16)"><path style="fill:#d97df5;fill-opacity:1;stroke:#b653d3;stroke-width:1;stroke-linecap:round;stroke-opacity:1" id="path496" d="m 0.5,41.5 a 7,7 90 0 1 7,-7 h 1 v -10 a 8,8 90 0 1 8,-8 h 34 v 8 h -4 v -3 h -4 v 10 h 4 v -3 h 4 v 17 h -4 v -3 h -4 v 10 h 4 v -3 h 4 v 8 h -30 -12 v -8 -1 h -1 a 7,7 90 0 1 -7,-7 z"/></g><text style="font-size:14px;font-family:sans-serif;text-anchor:end;fill:#282828" id="text502"><tspan id="tspan500" x="38" y="26">=</tspan></text></g></g><g id="g516" transform="matrix(0.26458333,0,0,0.26458333,37.703122,26.622845)"><g id="g514" transform="scale(1.5)"><path style="fill:#fe994f;fill-opacity:1;stroke:#e86b0e;stroke-width:1;stroke-linecap:round;stroke-opacity:1" id="path508" d="m 8.5,0.5 h 101.37077 v 20 H 8.5 v -8 -1 h -6 v 3 h -2 v -8 h 2 v 3 h 6 v -1 z"/><text style="font-size:10px;font-family:sans-serif;text-anchor:start;fill:#282828" id="text512"><tspan id="tspan510" x="13" y="14">cuenta de latidos</tspan></text></g></g><g id="g526" transform="matrix(0.26458333,0,0,0.26458333,37.703122,34.95722)"><g id="g524" transform="scale(1.5)"><path style="fill:#ff6ea1;fill-opacity:1;stroke:#ff2c76;stroke-width:1;stroke-linecap:round;stroke-opacity:1" id="path518" d="m 8.5,0.5 h 60 v 20 h -60 v -8 -1 h -6 v 3 h -2 v -8 h 2 v 3 h 6 v -1 z"/><text style="font-size:10px;font-family:sans-serif;text-anchor:start;fill:#282828" id="text522"><tspan id="tspan520" x="13" y="14">1</tspan></text></g></g><g id="g540" transform="matrix(0.26458333,0,0,0.26458333,7.1437471,43.291595)"><g id="g538" transform="scale(1.5)"><path style="fill:#92a9ff;fill-opacity:1;stroke:#5370dc;stroke-width:1;stroke-linecap:round;stroke-opacity:1" id="path528" d="m 0.5,8.5 v -4 a 4,4 90 0 1 4,-4 h 4 v 2 h 10 v -2 h 37.792969 4 a 4,4 90 0 1 4,4 v 4 h -4 v -3 h -4 v 10 h 4 v -3 h 4 v 4 a 4,4 90 0 1 -4,4 h -4 H 18.5 h -1 v 2 h -8 v -2 h -1 -4 a 4,4 90 0 1 -4,-4 v -4 z"/><text style="font-size:10px;font-family:sans-serif;text-anchor:end;fill:#282828" id="text532"><tspan id="tspan530" x="54" y="14">fijar color</tspan></text></g></g><g id="g554" transform="matrix(0.26458333,0,0,0.26458333,29.683455,43.291595)"><g id="g552" transform="scale(1.5)"><path style="fill:#fe994f;fill-opacity:1;stroke:#e86b0e;stroke-width:1;stroke-linecap:round;stroke-opacity:1" id="path542" d="m 8.5,8.5 v -4 a 4,4 90 0 1 4,-4 h 4 10 56.708984 4 a 4,4 90 0 1 4,4 v 4 h -4 v -3 h -4 v 10 h 4 v -3 h 4 v 4 a 4,4 90 0 1 -4,4 h -4 H 26.5 h -10 -4 a 4,4 90 0 1 -4,-4 v -4 -1 h -6 v 3 h -2 v -8 h 2 v 3 h 6 z"/><text style="font-size:10px;font-family:sans-serif;text-anchor:end;fill:#282828" id="text546"><tspan id="tspan544" x="81" y="13">notas jugadas</tspan></text></g></g><g id="g572" transform="matrix(0.26458333,0,0,0.26458333,62.905451,43.291595)"><g id="g570" transform="scale(1.5)"><path style="fill:#ff6ea1;fill-opacity:1;stroke:#ff2c76;stroke-width:1;stroke-linecap:round;stroke-opacity:1" id="path556" d="m 8.5,8.5 v -4 a 4,4 90 0 1 4,-4 h 4 10 30 4 a 4,4 90 0 1 4,4 v 4 h -4 v -3 h -4 v 10 h 4 v -3 h 4 v 17 h -4 v -3 h -4 v 10 h 4 v -3 h 4 v 4 a 4,4 90 0 1 -4,4 h -4 -30 -10 -4 a 4,4 90 0 1 -4,-4 v -4 -21 -1 h -6 v 3 h -2 v -8 h 2 v 3 h 6 z"/><text style="font-size:9px;font-family:sans-serif;text-anchor:end;fill:#282828" id="text560"><tspan id="tspan558" x="54" y="23">➗</tspan></text></g></g><g id="g582" transform="matrix(0.26458333,0,0,0.26458333,85.527326,43.291595)"><g id="g580" transform="scale(1.5)"><path style="fill:#ff6ea1;fill-opacity:1;stroke:#ff2c76;stroke-width:1;stroke-linecap:round;stroke-opacity:1" id="path574" d="m 8.5,0.5 h 60 v 20 h -60 v -8 -1 h -6 v 3 h -2 v -8 h 2 v 3 h 6 v -1 z"/><text style="font-size:10px;font-family:sans-serif;text-anchor:start;fill:#282828" id="text578"><tspan id="tspan576" x="13" y="14">1</tspan></text></g></g><g id="g592" transform="matrix(0.26458333,0,0,0.26458333,85.527326,51.62597)"><g id="g590" transform="scale(1.5)"><path style="fill:#ff6ea1;fill-opacity:1;stroke:#ff2c76;stroke-width:1;stroke-linecap:round;stroke-opacity:1" id="path584" d="m 8.5,0.5 h 60 v 20 h -60 v -8 -1 h -6 v 3 h -2 v -8 h 2 v 3 h 6 v -1 z"/><text style="font-size:10px;font-family:sans-serif;text-anchor:start;fill:#282828" id="text588"><tspan id="tspan586" x="13" y="14">4</tspan></text></g></g><g id="g606" transform="matrix(0.26458333,0,0,0.26458333,9.2604139,59.960344)"><g id="g604" transform="scale(1.5)"><path style="fill:#92a9ff;fill-opacity:1;stroke:#5370dc;stroke-width:1;stroke-linecap:round;stroke-opacity:1" id="path594" d="m -4.8333334,8.5 v -4 c 0,-2.209139 1.790861,-4 3.99999997,-4 H 3.1666666 v 2 H 13.166667 v -2 h 48.697591 4 c 2.209139,0 4,1.790861 4,4 v 4 h -4 v -3 h -4 v 10 h 4 v -3 h 4 v 4 c 0,2.209139 -1.790861,4 -4,4 h -4 -48.697591 -1 v 2 H 4.1666666 v -2 h -1 -4.00000003 c -2.20913897,0 -4.69859107,-1.904227 -3.99999997,-4 v -4 z"/><text style="font-size:10px;font-family:sans-serif;text-anchor:end;fill:#282828" id="text598"><tspan id="tspan596" x="60" y="14">fijar sombra</tspan></text></g></g><g id="g616" transform="matrix(0.26458333,0,0,0.26458333,34.01123,59.960344)"><g id="g614" transform="scale(1.5)"><path style="fill:#ff6ea1;fill-opacity:1;stroke:#ff2c76;stroke-width:1;stroke-linecap:round;stroke-opacity:1" id="path608" d="m 8.5,0.5 h 60 v 20 h -60 v -8 -1 h -6 v 3 h -2 v -8 h 2 v 3 h 6 v -1 z"/><text style="font-size:10px;font-family:sans-serif;text-anchor:start;fill:#282828" id="text612"><tspan id="tspan610" x="13" y="14">0</tspan></text></g></g><g id="g630" transform="matrix(0.26458333,0,0,0.26458333,3.5718721,76.629094)"><g id="g628" transform="scale(1.5)"><path style="fill:#92a9ff;fill-opacity:1;stroke:#5370dc;stroke-width:1;stroke-linecap:round;stroke-opacity:1" id="path618" d="m 0.5,8.5 v -4 a 4,4 90 0 1 4,-4 h 4 v 2 h 10 v -2 h 33.344727 4 a 4,4 90 0 1 4,4 v 4 h -4 v -3 h -4 v 10 h 4 v -3 h 4 v 4 a 4,4 90 0 1 -4,4 h -4 H 18.5 h -1 v 2 h -8 v -2 h -1 -4 a 4,4 90 0 1 -4,-4 v -4 z"/><text style="font-size:10px;font-family:sans-serif;text-anchor:end;fill:#282828" id="text622"><tspan id="tspan620" x="50" y="14">adelante</tspan></text></g></g><g id="g648" transform="matrix(0.26458333,0,0,0.26458333,24.346185,76.629094)"><g id="g646" transform="scale(1.5)"><path style="fill:#ff6ea1;fill-opacity:1;stroke:#ff2c76;stroke-width:1;stroke-linecap:round;stroke-opacity:1" id="path632" d="m 8.5,8.5 v -4 a 4,4 90 0 1 4,-4 h 4 10 30 4 a 4,4 90 0 1 4,4 v 4 h -4 v -3 h -4 v 10 h 4 v -3 h 4 v 17 h -4 v -3 h -4 v 10 h 4 v -3 h 4 v 4 a 4,4 90 0 1 -4,4 h -4 -30 -10 -4 a 4,4 90 0 1 -4,-4 v -4 -21 -1 h -6 v 3 h -2 v -8 h 2 v 3 h 6 z"/><text style="font-size:14px;font-family:sans-serif;text-anchor:end;fill:#282828" id="text636"><tspan id="tspan634" x="54" y="24">×</tspan></text></g></g><g id="g658" transform="matrix(0.26458333,0,0,0.26458333,46.968063,76.629094)"><g id="g656" transform="scale(1.5)"><path style="fill:#7cd622;fill-opacity:1;stroke:#57ad02;stroke-width:1;stroke-linecap:round;stroke-opacity:1" id="path650" d="m 8.5,0.5 h 107.27051 v 20 H 8.5 v -8 -1 h -6 v 3 h -2 v -8 h 2 v 3 h 6 v -1 z"/><text style="font-size:10px;font-family:sans-serif;text-anchor:start;fill:#282828" id="text654"><tspan id="tspan652" x="13" y="14">cambio en tono</tspan></text></g></g><g id="g668" transform="matrix(0.26458333,0,0,0.26458333,46.968063,84.963469)"><g id="g666" transform="scale(1.5)"><path style="fill:#ff6ea1;fill-opacity:1;stroke:#ff2c76;stroke-width:1;stroke-linecap:round;stroke-opacity:1" id="path660" d="m 8.5,0.5 h 60 v 20 h -60 v -8 -1 h -6 v 3 h -2 v -8 h 2 v 3 h 6 v -1 z"/><text style="font-size:10px;font-family:sans-serif;text-anchor:start;fill:#282828" id="text664"><tspan id="tspan662" x="13" y="14">10</tspan></text></g></g><g id="g678" transform="matrix(0.26458333,0,0,0.26458333,3.5718721,84.963469)"><g id="g676" transform="scale(1.5)"><path style="fill:#c4c4c4;fill-opacity:1;stroke:#a0a0a0;stroke-width:1;stroke-linecap:round;stroke-opacity:1" id="path670" d="m 0.5,8.5 v -4 a 4,4 90 0 1 4,-4 h 4 v 2 h 10 v -2 h 20 4 a 4,4 90 0 1 4,4 v 4 4 4 a 4,4 90 0 1 -4,4 h -4 -20 -1 v 2 h -8 v -2 h -1 -4 a 4,4 90 0 1 -4,-4 v -4 z"/><text style="font-size:10px;font-family:sans-serif;text-anchor:end;fill:#282828" id="text674"><tspan id="tspan672" x="36" y="14">↓</tspan></text></g></g><g id="g696" transform="matrix(0.26458333,0,0,0.26458333,10.980206,93.297844)"><g id="g694" transform="scale(1.5)"><path style="fill:#92a9ff;fill-opacity:1;stroke:#5370dc;stroke-width:1;stroke-linecap:round;stroke-opacity:1" id="path680" d="m -18.166667,8.5 v -4 c 0,-2.209139 1.790861,-4 4,-4 h 4 v 2 h 10.00000001 v -2 h 54.77994799 4 c 2.209139,0 4,1.790861 4,4 v 4 h -4 v -3 h -4 v 10 h 4 v -3 h 4 v 21 17 h -4 v -3 h -4 v 10 h 4 v -3 h 4 v 4 c 0,2.209139 -1.790861,4 -4,4 h -4 H -0.16666699 -1.166667 v 2 h -8 v -2 h -1 -4 c -2.209139,0 -4.698591,-1.904227 -4,-4 v -4 -21 -21 z"/><text style="font-size:10px;font-family:sans-serif;text-anchor:end;fill:#282828" id="text684"><tspan id="tspan682" x="52" y="35">desplazar xy</tspan></text><text style="font-size:6.66666651px;font-family:sans-serif;text-anchor:end;fill:#282828" id="text688"><tspan id="tspan686" x="52" y="12">x</tspan></text><text style="font-size:6.66666651px;font-family:sans-serif;text-anchor:end;fill:#282828" id="text692"><tspan id="tspan690" x="52" y="54">y</tspan></text></g></g><g id="g714" transform="matrix(0.26458333,0,0,0.26458333,32.853293,93.297844)"><g id="g712" transform="scale(1.5)"><path style="fill:#ff6ea1;fill-opacity:1;stroke:#ff2c76;stroke-width:1;stroke-linecap:round;stroke-opacity:1" id="path698" d="m 8.5,8.5 v -4 a 4,4 90 0 1 4,-4 h 4 10 30 4 a 4,4 90 0 1 4,4 v 4 h -4 v -3 h -4 v 10 h 4 v -3 h 4 v 17 h -4 v -3 h -4 v 10 h 4 v -3 h 4 v 4 a 4,4 90 0 1 -4,4 h -4 -30 -10 -4 a 4,4 90 0 1 -4,-4 v -4 -21 -1 h -6 v 3 h -2 v -8 h 2 v 3 h 6 z"/><text style="font-size:14px;font-family:sans-serif;text-anchor:end;fill:#282828" id="text702"><tspan id="tspan700" x="54" y="24">×</tspan></text></g></g><g id="g724" transform="matrix(0.26458333,0,0,0.26458333,55.475162,93.297844)"><g id="g722" transform="scale(1.5)"><path style="fill:#fe994f;fill-opacity:1;stroke:#e86b0e;stroke-width:1;stroke-linecap:round;stroke-opacity:1" id="path716" d="m 8.5,0.5 h 86.147461 v 20 H 8.5 v -8 -1 h -6 v 3 h -2 v -8 h 2 v 3 h 6 v -1 z"/><text style="font-size:10px;font-family:sans-serif;text-anchor:start;fill:#282828" id="text720"><tspan id="tspan718" x="13" y="14">valor de la nota</tspan></text></g></g><g id="g734" transform="matrix(0.26458333,0,0,0.26458333,55.475162,101.63222)"><g id="g732" transform="scale(1.5)"><path style="fill:#ff6ea1;fill-opacity:1;stroke:#ff2c76;stroke-width:1;stroke-linecap:round;stroke-opacity:1" id="path726" d="m 8.5,0.5 h 60 v 20 h -60 v -8 -1 h -6 v 3 h -2 v -8 h 2 v 3 h 6 v -1 z"/><text style="font-size:10px;font-family:sans-serif;text-anchor:start;fill:#282828" id="text730"><tspan id="tspan728" x="13" y="14">-25</tspan></text></g></g><g id="g744" transform="matrix(0.26458333,0,0,0.26458333,32.853293,109.96659)"><g id="g742" transform="scale(1.5)"><path style="fill:#ff6ea1;fill-opacity:1;stroke:#ff2c76;stroke-width:1;stroke-linecap:round;stroke-opacity:1" id="path736" d="m 8.5,0.5 h 60 v 20 h -60 v -8 -1 h -6 v 3 h -2 v -8 h 2 v 3 h 6 v -1 z"/><text style="font-size:10px;font-family:sans-serif;text-anchor:start;fill:#282828" id="text740"><tspan id="tspan738" x="13" y="14">0</tspan></text></g></g><g id="g10916" transform="matrix(0.26458333,0,0,0.26458333,-220.8808,-19.314583)"><g id="g1108" transform="translate(869,73)"><g id="g1106" transform="scale(1.5)"><path id="path1096" d="m -22.166667,8.5 v -4 c 0,-2.209139 1.790861,-4 4,-4 h 4 v 2 h 9.9999999 v -2 h 97.1637371 4 c 2.209139,0 4,1.790861 4,4 v 4 h -4 v -3 h -4 v 10 h 4 v -3 h 4 v 4 c 0,2.209139 -1.790861,4 -4,4 h -4 -97.1637371 -1 v 2 h -7.9999999 v -2 h -1 -4 c -2.209139,0 -4.698591,-1.904227 -4,-4 v -4 z" style="fill:#fe994f;fill-opacity:1;stroke:#e86b0e;stroke-width:1;stroke-linecap:round;stroke-opacity:1"/><text id="text1100" style="font-size:10px;font-family:sans-serif;text-anchor:end;fill:#282828"><tspan id="tspan1098" x="91" y="14">en cada latido hacer</tspan></text></g></g><g id="g1118" transform="translate(1009.2456,73)"><g id="g1116" transform="scale(1.5)"><path id="path1110" d="m 8.5,0.5 h 90 v 20 h -90 v -8 -1 h -6 v 3 h -2 v -8 h 2 v 3 h 6 v -1 z" style="fill:#ff6648;fill-opacity:1;stroke:#ea4326;stroke-width:1;stroke-linecap:round;stroke-opacity:1"/><text id="text1114" style="font-size:10px;font-family:sans-serif;text-anchor:start;fill:#282828"><tspan id="tspan1112" x="13" y="14">acción</tspan></text></g></g></g></svg>