<svg xmlns="http://www.w3.org/2000/svg" xmlns:svg="http://www.w3.org/2000/svg" id="svg6234" width="177.5" height="129.5" version="1.1" viewBox="0 0 46.964 34.264"><metadata id="metadata6231"/><g id="g802" transform="matrix(0.26458333,0,0,0.26458333,7.4083338,0)"><g id="g800" transform="scale(1.5)"><path id="path794" d="m -18.166667,8.5 v -4 c 0,-2.209139 1.790861,-4 4,-4 h 4 v 2 h 9.99999975 v -2 h 49.25260425 4 c 2.209139,0 4,1.790861 4,4 v 4 4 4 c 0,2.209139 -1.790861,4 -4,4 h -4 -49.25260425 -0.99999995 v 2 h -8 v -2 h -0.9999998 -4 c -2.209139,0 -4.698591,-1.904227 -4,-4 v -4 z" style="fill:#92a9ff;fill-opacity:1;stroke:#5370dc;stroke-width:1;stroke-linecap:round;stroke-opacity:1"/><text id="text798" style="font-size:10px;font-family:sans-serif;text-anchor:end;fill:#282828"><tspan id="tspan796" x="47" y="14">subir pluma</tspan></text></g></g><g id="g812" transform="matrix(0.26458333,0,0,0.26458333,2.1166668,25.135421)"><g id="g810" transform="scale(1.5)"><path id="path804" d="m -4.8333335,8.5 v -4 c 0,-2.209139 1.790861,-4 4,-4 h 4 v 2 H 13.166667 v -2 h 48.702474 4 c 2.209139,0 4,1.790861 4,4 v 4 4 4 c 0,2.209139 -1.790861,4 -4,4 h -4 -48.702474 -1 v 2 H 4.1666665 v -2 h -1 -4 c -2.209139,0 -4.6985911,-1.904227 -4,-4 v -4 z" style="fill:#92a9ff;fill-opacity:1;stroke:#5370dc;stroke-width:1;stroke-linecap:round;stroke-opacity:1"/><text id="text808" style="font-size:10px;font-family:sans-serif;text-anchor:end;fill:#282828"><tspan id="tspan806" x="60" y="14">bajar pluma</tspan></text></g></g><g id="g830" transform="matrix(0.26458333,0,0,0.26458333,0,8.466666)"><g id="g828" transform="scale(1.5)"><path id="path814" d="m 0.5,8.5 v -4 a 4,4 90 0 1 4,-4 h 4 v 2 h 10 v -2 h 30 4 a 4,4 90 0 1 4,4 v 4 h -4 v -3 h -4 v 10 h 4 v -3 h 4 v 17 h -4 v -3 h -4 v 10 h 4 v -3 h 4 v 4 a 4,4 90 0 1 -4,4 h -4 -30 -1 v 2 h -8 v -2 h -1 -4 a 4,4 90 0 1 -4,-4 v -4 -21 z" style="fill:#92a9ff;fill-opacity:1;stroke:#5370dc;stroke-width:1;stroke-linecap:round;stroke-opacity:1"/><text id="text818" style="font-size:10px;font-family:sans-serif;text-anchor:end;fill:#282828"><tspan id="tspan816" x="46" y="24">fijar xy</tspan></text><text id="text822" style="font-size:6.66666651px;font-family:sans-serif;text-anchor:end;fill:#282828"><tspan id="tspan820" x="46" y="12">x</tspan></text><text id="text826" style="font-size:6.66666651px;font-family:sans-serif;text-anchor:end;fill:#282828"><tspan id="tspan824" x="46" y="33">y</tspan></text></g></g><g id="g840" transform="matrix(0.26458333,0,0,0.26458333,19.579167,8.466666)"><g id="g838" transform="scale(1.5)"><path id="path832" d="m 8.5,0.5 h 60 v 20 h -60 v -8 -1 h -6 v 3 h -2 v -8 h 2 v 3 h 6 v -1 z" style="fill:#ff6ea1;fill-opacity:1;stroke:#ff2c76;stroke-width:1;stroke-linecap:round;stroke-opacity:1"/><text id="text836" style="font-size:10px;font-family:sans-serif;text-anchor:start;fill:#282828"><tspan id="tspan834" x="13" y="14">0</tspan></text></g></g><g id="g850" transform="matrix(0.26458333,0,0,0.26458333,19.579167,16.933333)"><g id="g848" transform="scale(1.5)"><path id="path842" d="m 8.5,0.5 h 60 v 20 h -60 v -8 -1 h -6 v 3 h -2 v -8 h 2 v 3 h 6 v -1 z" style="fill:#ff6ea1;fill-opacity:1;stroke:#ff2c76;stroke-width:1;stroke-linecap:round;stroke-opacity:1"/><text id="text846" style="font-size:10px;font-family:sans-serif;text-anchor:start;fill:#282828"><tspan id="tspan844" x="13" y="14">0</tspan></text></g></g></svg>