<svg xmlns="http://www.w3.org/2000/svg" xmlns:svg="http://www.w3.org/2000/svg" id="svg3045" width="335.5" height="286.5" version="1.1" viewBox="0 0 88.768 75.803"><metadata id="metadata3042"/><path style="fill:#3edcdd;fill-opacity:1;stroke:#1dbcbd;stroke-width:.39687499;stroke-linecap:round;stroke-opacity:1" id="path1416" d="m 0.1984375,3.3734375 v -1.5875 c 0,-0.87675204 0.71074796,-1.5875 1.5875,-1.5875 h 1.5875 v 0.79375 h 3.96875 v -0.79375 h 3.5718755 16.368251 1.5875 c 0.876752,0 1.5875,0.71074796 1.5875,1.5875 v 1.5875 h -1.5875 v -1.190625 h -1.5875 v 3.96875 h 1.5875 v -1.190625 h 1.5875 v 6.7468745 h -1.5875 v -1.190625 h -1.5875 v 3.96875 h 1.5875 v -1.190624 h 1.5875 v 6.746874 h -1.5875 v -1.190625 h -1.5875 v 3.96875 h 1.5875 v -1.190625 h 1.5875 v 1.5875 c 0,0.876753 -0.710748,1.5875 -1.5875,1.5875 h -1.5875 -16.368251 -0.396876 v 0.79375 H 7.3421875 v -0.79375 h -0.396875 -1.5875 c -1.0959402,0 -1.984375,0.888435 -1.984375,1.984375 v 1.5875 1.5875 33.3375 1.5875 c 0,1.095939 0.8884348,1.984375 1.984375,1.984375 h 1.5875 v 0.79375 h 3.9687505 v -0.79375 h 3.174999 v 2.381251 2.381249 1.587501 c 0,0.876752 -0.710747,1.587499 -1.5875,1.587499 H 10.914063 7.3421875 6.9453125 v 0.79375 h -3.175 v -0.79375 h -0.396875 -1.5875 c -0.87675204,0 -1.5875,-0.710747 -1.5875,-1.587499 v -1.587501 z"/><text style="font-size:3.96875px;font-family:sans-serif;text-anchor:start;fill:#282828;stroke-width:.39687499" id="text1420" x="4.233"><tspan id="tspan1418" x="6.218" y="8.731" style="stroke-width:.39687499">phaser</tspan></text><text style="font-size:2.64583325px;font-family:sans-serif;text-anchor:end;fill:#282828;stroke-width:.39687499" id="text1424" x="4.233"><tspan id="tspan1422" x="26.458" y="4.762" style="stroke-width:.39687499">velocidad</tspan></text><text style="font-size:2.64583325px;font-family:sans-serif;text-anchor:end;fill:#282828;stroke-width:.39687499" id="text1428" x="4.233"><tspan id="tspan1426" x="26.458" y="13.097" style="stroke-width:.39687499">octavas</tspan></text><text style="font-size:2.64583325px;font-family:sans-serif;text-anchor:end;fill:#282828;stroke-width:.39687499" id="text1432" x="4.233"><tspan id="tspan1430" x="26.458" y="21.431" style="stroke-width:.39687499">frecuencia de base</tspan></text><g id="g1446" transform="matrix(0.26458333,0,0,0.26458333,27.516666,0)"><g id="g1444" transform="scale(1.5)"><path style="fill:#ff6ea1;fill-opacity:1;stroke:#ff2c76;stroke-width:1;stroke-linecap:round;stroke-opacity:1" id="path1438" d="m 8.5,0.5 h 60 v 20 h -60 v -8 -1 h -6 v 3 h -2 v -8 h 2 v 3 h 6 v -1 z"/><text style="font-size:10px;font-family:sans-serif;text-anchor:start;fill:#282828" id="text1442"><tspan id="tspan1440" x="13" y="14">0.5</tspan></text></g></g><g id="g1456" transform="matrix(0.26458333,0,0,0.26458333,27.516666,8.46667)"><g id="g1454" transform="scale(1.5)"><path style="fill:#ff6ea1;fill-opacity:1;stroke:#ff2c76;stroke-width:1;stroke-linecap:round;stroke-opacity:1" id="path1448" d="m 8.5,0.5 h 60 v 20 h -60 v -8 -1 h -6 v 3 h -2 v -8 h 2 v 3 h 6 v -1 z"/><text style="font-size:10px;font-family:sans-serif;text-anchor:start;fill:#282828" id="text1452"><tspan id="tspan1450" x="13" y="14">3</tspan></text></g></g><g id="g1466" transform="matrix(0.26458333,0,0,0.26458333,27.516666,16.66875)"><g id="g1464" transform="scale(1.5)"><path style="fill:#ff6ea1;fill-opacity:1;stroke:#ff2c76;stroke-width:1;stroke-linecap:round;stroke-opacity:1" id="path1458" d="m 8.5,0.5 h 60 v 20 h -60 v -8 -1 h -6 v 3 h -2 v -8 h 2 v 3 h 6 v -1 z"/><text style="font-size:10px;font-family:sans-serif;text-anchor:start;fill:#282828" id="text1462"><tspan id="tspan1460" x="13" y="14">392</tspan></text></g></g><g id="g1922" transform="matrix(0.26458333,0,0,0.26458333,-298.45,-189.17669)"><g id="g1902" transform="translate(1142,810)"><g id="g1900" transform="scale(1.5)"><path style="fill:#fe994f;fill-opacity:1;stroke:#e86b0e;stroke-width:1;stroke-linecap:round;stroke-opacity:1" id="path1890" d="m 0.5,8.5 v -4 a 4,4 90 0 1 4,-4 h 4 v 2 h 10 v -2 h 9 60 4 a 4,4 90 0 1 4,4 v 4 h -4 v -3 h -4 v 10 h 4 v -3 h 4 v 4 a 4,4 90 0 1 -4,4 h -4 -60 -1 v 2 h -8 v -2 h -1 -4 a 5,5 90 0 0 -5,5 v 4 4 42 4 a 5,5 90 0 0 5,5 h 4 v 2 h 10 v -2 h 8 v 6 6 4 a 4,4 90 0 1 -4,4 h -4 -9 -1 v 2 h -8 v -2 h -1 -4 a 4,4 90 0 1 -4,-4 v -4 z"/><text style="font-size:10px;font-family:sans-serif;text-anchor:start;fill:#282828" id="text1894"><tspan id="tspan1892" x="20" y="15">nota</tspan></text><text style="font-size:6.66666651px;font-family:sans-serif;text-anchor:end;fill:#282828" id="text1898"><tspan id="tspan1896" x="85" y="12">valor</tspan></text></g></g><g id="g1920" transform="matrix(0.5,0,0,0.5,1142,814)"><g style="isolation:isolate" id="g1918"><g id="g1916" data-name="レイヤー 2"><g id="g1914"><rect style="opacity:.4;mix-blend-mode:multiply;fill:#292929" id="rect1904" width="42" height="42" x="0" y="0" rx="5" ry="5"/><path style="fill:#fff" id="path1906" d="m 30.56,29.8 -4.17,-4.16 h 2.26 a 1.035,1.035 0 1 0 0,-2.07 h -4.71 a 1.08,1.08 0 0 0 -1.11,1 v 0 c 0,0 0,0 0,0.06 v 4.64 0 a 1.04,1.04 0 1 0 2.08,0 v -2.19 l 4.19,4.19 a 1,1 0 0 0 1.46,0 1,1 0 0 0 0,-1.47 z"/><path style="fill:#fff" id="path1908" d="m 19.17,24.6 a 1.08,1.08 0 0 0 -1.11,-1 h -4.71 a 1.035,1.035 0 1 0 0,2.07 h 2.25 l -4.16,4.13 a 1.039447,1.039447 0 0 0 1.47,1.47 l 4.18,-4.19 v 2.26 a 1.04,1.04 0 1 0 2.08,0 V 24.7 c 0,0 0,0 0,-0.06 a 0.08,0.08 0 0 1 0,-0.04 z"/><path style="fill:#fff" id="path1910" d="m 23.94,20.5 h 4.7 a 1.04,1.04 0 1 0 0,-2.08 h -2.25 l 4.17,-4.16 a 1,1 0 0 0 0,-1.47 1,1 0 0 0 -1.46,0 L 24.91,17 v -2.28 a 1.04,1.04 0 1 0 -2.08,0 v 4.64 a 0.43,0.43 0 0 0 0,0.05 v 0.05 a 1.09,1.09 0 0 0 1.11,1.04 z"/><path style="fill:#fff" id="path1912" d="m 18.13,13.62 a 1.08,1.08 0 0 0 -1,1.09 V 17 l -4.18,-4.19 a 1,1 0 0 0 -1.47,0 1,1 0 0 0 0,1.46 l 4.16,4.17 h -2.29 a 1.04,1.04 0 1 0 0,2.08 h 4.71 a 1.09,1.09 0 0 0 1.11,-1 c 0,0 0,0 0,-0.06 v -4.75 a 1.07,1.07 0 0 0 -1.04,-1.09 z"/></g></g></g></g></g><g id="g1940" transform="matrix(0.26458333,0,0,0.26458333,38.62917,25.13542)"><g id="g1938" transform="scale(1.5)"><path style="fill:#ff6ea1;fill-opacity:1;stroke:#ff2c76;stroke-width:1;stroke-linecap:round;stroke-opacity:1" id="path1924" d="m 8.5,8.5 v -4 a 4,4 90 0 1 4,-4 h 4 10 30 4 a 4,4 90 0 1 4,4 v 4 h -4 v -3 h -4 v 10 h 4 v -3 h 4 v 17 h -4 v -3 h -4 v 10 h 4 v -3 h 4 v 4 a 4,4 90 0 1 -4,4 h -4 -30 -10 -4 a 4,4 90 0 1 -4,-4 v -4 -21 -1 h -6 v 3 h -2 v -8 h 2 v 3 h 6 z"/><text style="font-size:9px;font-family:sans-serif;text-anchor:end;fill:#282828" id="text1928"><tspan id="tspan1926" x="54" y="23">➗</tspan></text></g></g><g id="g1950" transform="matrix(0.26458333,0,0,0.26458333,61.38333,25.13542)"><g id="g1948" transform="scale(1.5)"><path style="fill:#ff6ea1;fill-opacity:1;stroke:#ff2c76;stroke-width:1;stroke-linecap:round;stroke-opacity:1" id="path1942" d="m 8.5,0.5 h 60 v 20 h -60 v -8 -1 h -6 v 3 h -2 v -8 h 2 v 3 h 6 v -1 z"/><text style="font-size:10px;font-family:sans-serif;text-anchor:start;fill:#282828" id="text1946"><tspan id="tspan1944" x="13" y="14">1</tspan></text></g></g><g id="g1960" transform="matrix(0.26458333,0,0,0.26458333,61.38333,33.60208)"><g id="g1958" transform="scale(1.5)"><path style="fill:#ff6ea1;fill-opacity:1;stroke:#ff2c76;stroke-width:1;stroke-linecap:round;stroke-opacity:1" id="path1952" d="m 8.5,0.5 h 60 v 20 h -60 v -8 -1 h -6 v 3 h -2 v -8 h 2 v 3 h 6 v -1 z"/><text style="font-size:10px;font-family:sans-serif;text-anchor:start;fill:#282828" id="text1956"><tspan id="tspan1954" x="13" y="14">4</tspan></text></g></g><g id="g1970" transform="matrix(0.26458333,0,0,0.26458333,7.40833,33.60208)"><g id="g1968" transform="scale(1.5)"><path style="fill:#c4c4c4;fill-opacity:1;stroke:#a0a0a0;stroke-width:1;stroke-linecap:round;stroke-opacity:1" id="path1962" d="m 0.5,8.5 v -4 a 4,4 90 0 1 4,-4 h 4 v 2 h 10 v -2 h 20 4 a 4,4 90 0 1 4,4 v 4 4 4 a 4,4 90 0 1 -4,4 h -4 -20 -1 v 2 h -8 v -2 h -1 -4 a 4,4 90 0 1 -4,-4 v -4 z"/><text style="font-size:10px;font-family:sans-serif;text-anchor:end;fill:#282828" id="text1966"><tspan id="tspan1964" x="36" y="14">↓</tspan></text></g></g><g id="g1988" transform="matrix(0.26458333,0,0,0.26458333,7.40833,42.06875)"><g id="g1986" transform="scale(1.5)"><path style="fill:#7cd622;fill-opacity:1;stroke:#57ad02;stroke-width:1;stroke-linecap:round;stroke-opacity:1" id="path1972" d="m 0.5,8.5 v -4 a 4,4 90 0 1 4,-4 h 4 v 2 h 10 v -2 h 30 4 a 4,4 90 0 1 4,4 v 4 h -4 v -3 h -4 v 10 h 4 v -3 h 4 v 17 h -4 v -3 h -4 v 10 h 4 v -3 h 4 v 4 a 4,4 90 0 1 -4,4 h -4 -30 -1 v 2 h -8 v -2 h -1 -4 a 4,4 90 0 1 -4,-4 v -4 -21 z"/><text style="font-size:10px;font-family:sans-serif;text-anchor:end;fill:#282828" id="text1976"><tspan id="tspan1974" x="46" y="24">tono</tspan></text><text style="font-size:6.66666651px;font-family:sans-serif;text-anchor:end;fill:#282828" id="text1980"><tspan id="tspan1978" x="46" y="12">nombre</tspan></text><text style="font-size:6.66666651px;font-family:sans-serif;text-anchor:end;fill:#282828" id="text1984"><tspan id="tspan1982" x="46" y="33">octava</tspan></text></g></g><g id="g1998" transform="matrix(0.26458333,0,0,0.26458333,26.9875,42.06875)"><g id="g1996" transform="scale(1.5)"><path style="fill:#7cd622;fill-opacity:1;stroke:#57ad02;stroke-width:1;stroke-linecap:round;stroke-opacity:1" id="path1990" d="m 8.5,0.5 h 60 v 20 h -60 v -8 -1 h -6 v 3 h -2 v -8 h 2 v 3 h 6 v -1 z"/><text style="font-size:10px;font-family:sans-serif;text-anchor:start;fill:#282828" id="text1994"><tspan id="tspan1992" x="13" y="14">sol</tspan></text></g></g><g id="g2008" transform="matrix(0.26458333,0,0,0.26458333,26.9875,50.53542)"><g id="g2006" transform="scale(1.5)"><path style="fill:#ff6ea1;fill-opacity:1;stroke:#ff2c76;stroke-width:1;stroke-linecap:round;stroke-opacity:1" id="path2000" d="m 8.5,0.5 h 60 v 20 h -60 v -8 -1 h -6 v 3 h -2 v -8 h 2 v 3 h 6 v -1 z"/><text style="font-size:10px;font-family:sans-serif;text-anchor:start;fill:#282828" id="text2004"><tspan id="tspan2002" x="13" y="14">4</tspan></text></g></g></svg>