<svg xmlns="http://www.w3.org/2000/svg" xmlns:svg="http://www.w3.org/2000/svg" id="svg20" width="221" height="33" version="1.1"><metadata id="metadata26"/><rect id="backgroundrect" width="100%" height="100%" x="0" y="0" fill="none" stroke="none"/><g id="g18" class="currentLayer"><title id="title3">Layer 1</title><g id="g16"><g id="svg_15"><g id="svg_16" transform="translate(316, 455) scale(1.5)"><path id="svg_17" d="m-210.6666717529297,-295.3333435058594 L-210.6666717529297,-299.3333435058594 A4,4 90 0 1 -206.6666717529297,-303.3333435058594 L-202.6666717529297,-303.3333435058594 L-202.6666717529297,-301.3333435058594 L-192.6666717529297,-301.3333435058594 L-192.6666717529297,-303.3333435058594 L-162.6666717529297,-303.3333435058594 L-158.6666717529297,-303.3333435058594 A4,4 90 0 1 -154.6666717529297,-299.3333435058594 L-154.6666717529297,-295.3333435058594 L-158.6666717529297,-295.3333435058594 L-158.6666717529297,-298.3333435058594 L-162.6666717529297,-298.3333435058594 L-162.6666717529297,-288.3333435058594 L-158.6666717529297,-288.3333435058594 L-158.6666717529297,-291.3333435058594 L-154.6666717529297,-291.3333435058594 L-154.6666717529297,-287.3333435058594 A4,4 90 0 1 -158.6666717529297,-283.3333435058594 L-162.6666717529297,-283.3333435058594 L-192.6666717529297,-283.3333435058594 L-193.6666717529297,-283.3333435058594 L-193.6666717529297,-281.3333435058594 L-201.6666717529297,-281.3333435058594 L-201.6666717529297,-283.3333435058594 L-202.6666717529297,-283.3333435058594 L-206.6666717529297,-283.3333435058594 A4,4 90 0 1 -210.6666717529297,-287.3333435058594 L-210.6666717529297,-291.3333435058594 L-210.6666717529297,-295.3333435058594 z" style="fill:#b0b0b0;fill-opacity:1;stroke:#a0a0a0;stroke-width:1;stroke-linecap:round;stroke-opacity:1"/><text id="svg_18" x="-211.167" y="-303.833" style="font-size:10px;fill:#282828;font-family:sans-serif;text-anchor:end"><tspan id="svg_19" x="-165.167" y="-289.833">imprimir</tspan></text></g></g><g id="svg_22"><g id="svg_23" transform="translate(390, 455) scale(1.5)"><path id="svg_24" d="m-202.6666717529297,-303.3333435058594 L-112.66667175292969,-303.3333435058594 L-112.66667175292969,-283.3333435058594 L-202.6666717529297,-283.3333435058594 L-202.6666717529297,-291.3333435058594 L-202.6666717529297,-292.3333435058594 L-208.6666717529297,-292.3333435058594 L-208.6666717529297,-289.3333435058594 L-210.6666717529297,-289.3333435058594 L-210.6666717529297,-297.3333435058594 L-208.6666717529297,-297.3333435058594 L-208.6666717529297,-294.3333435058594 L-202.6666717529297,-294.3333435058594 L-202.6666717529297,-295.3333435058594 z" style="fill:#ff5942;fill-opacity:1;stroke:#ea4326;stroke-width:1;stroke-linecap:round;stroke-opacity:1"/><text id="svg_25" x="-211.167" y="-303.833" style="font-size:10px;fill:#282828;font-family:sans-serif;text-anchor:start"><tspan id="svg_26" x="-198.167" y="-289.833">text</tspan></text></g></g></g></g></svg>