<svg xmlns="http://www.w3.org/2000/svg" xmlns:svg="http://www.w3.org/2000/svg" id="svg1430" width="247.675" height="34.5" version="1.1" viewBox="0 0 65.531 9.128"><metadata id="metadata1427"/><g id="layer1" transform="translate(-68.112278,-207.9203)"><g id="g100" transform="matrix(0.26458333,0,0,0.26458333,70.275221,207.9203)"><g id="g98" transform="scale(1.5)"><path style="fill:#93e042;fill-opacity:1;stroke:#004000;stroke-width:1;stroke-linecap:round;stroke-opacity:1" id="path88" d="m -4.8333334,8.5 v -4 c 0,-2.209139 1.790861,-4 4,-4 h 4 v 2 H 13.166667 v -2 h 77.305989 4 c 2.209139,0 4,1.790861 4,4 v 4 h -4 v -3 h -4 v 10 h 4 v -3 h 4 v 4 c 0,2.209139 -1.790861,4 -4,4 h -4 -77.305989 -1 v 2 H 4.1666666 v -2 h -1 -4 c -2.209139,0 -4.6985911,-1.904227 -4,-4 v -4 z"/><text style="font-size:10px;font-family:sans-serif;text-anchor:end;fill:#000" id="text92"><tspan id="tspan90" x="88" y="14">paso escalar (+/–)</tspan></text></g></g><g id="g110" transform="matrix(0.26458333,0,0,0.26458333,106.25855,207.9203)"><g id="g108" transform="scale(1.5)"><path style="fill:#ffb2bc;fill-opacity:1;stroke:#601136;stroke-width:1;stroke-linecap:round;stroke-opacity:1" id="path102" d="m 8.5,0.5 h 60 v 20 h -60 v -8 -1 h -6 v 3 h -2 v -8 h 2 v 3 h 6 v -1 z"/><text style="font-size:10px;font-family:sans-serif;text-anchor:start;fill:#000" id="text106"><tspan id="tspan104" x="13" y="14">1</tspan></text></g></g></g></svg>