<svg xmlns="http://www.w3.org/2000/svg" xmlns:svg="http://www.w3.org/2000/svg" id="svg11666" width="499.54" height="255" version="1.1" viewBox="0 0 132.17 67.469"><metadata id="metadata11663"/><g id="layer1" transform="translate(456.95242,72.212599)"><g id="g18537" transform="matrix(0.26458333,0,0,0.26458333,-752.492,-268.53343)"><g id="g346"><g id="g326" transform="translate(1130.5,805)"><g id="g324" transform="scale(1.5)"><path id="path314" d="m 0.5,8.5 v -4 a 4,4 90 0 1 4,-4 h 4 v 2 h 10 v -2 h 9 60 4 a 4,4 90 0 1 4,4 v 4 h -4 v -3 h -4 v 10 h 4 v -3 h 4 v 4 a 4,4 90 0 1 -4,4 h -4 -60 -1 v 2 h -8 v -2 h -1 -4 a 5,5 90 0 0 -5,5 v 4 4 42 4 a 5,5 90 0 0 5,5 h 4 v 2 h 10 v -2 h 8 v 6 6 4 a 4,4 90 0 1 -4,4 h -4 -9 -1 v 2 h -8 v -2 h -1 -4 a 4,4 90 0 1 -4,-4 v -4 z" style="fill:#fe994f;fill-opacity:1;stroke:#e86b0e;stroke-width:1;stroke-linecap:round;stroke-opacity:1"/><text id="text318" style="font-size:10px;font-family:sans-serif;text-anchor:start;fill:#282828"><tspan id="tspan316" x="20" y="15">nota</tspan></text><text id="text322" style="font-size:6.66666651px;font-family:sans-serif;text-anchor:end;fill:#282828"><tspan id="tspan320" x="85" y="12">valor</tspan></text></g></g><g id="g344" transform="matrix(0.5,0,0,0.5,1130.5,809)"><g id="g342" style="isolation:isolate"><g id="g340" data-name="レイヤー 2"><g id="g338"><rect id="rect328" width="42" height="42" x="0" y="0" rx="5" ry="5" style="opacity:.4;mix-blend-mode:multiply;fill:#292929"/><path id="path330" d="m 30.56,29.8 -4.17,-4.16 h 2.26 a 1.035,1.035 0 1 0 0,-2.07 h -4.71 a 1.08,1.08 0 0 0 -1.11,1 v 0 c 0,0 0,0 0,0.06 v 4.64 0 a 1.04,1.04 0 1 0 2.08,0 v -2.19 l 4.19,4.19 a 1,1 0 0 0 1.46,0 1,1 0 0 0 0,-1.47 z" style="fill:#fff"/><path id="path332" d="m 19.17,24.6 a 1.08,1.08 0 0 0 -1.11,-1 h -4.71 a 1.035,1.035 0 1 0 0,2.07 h 2.25 l -4.16,4.13 a 1.039447,1.039447 0 0 0 1.47,1.47 l 4.18,-4.19 v 2.26 a 1.04,1.04 0 1 0 2.08,0 V 24.7 c 0,0 0,0 0,-0.06 a 0.08,0.08 0 0 1 0,-0.04 z" style="fill:#fff"/><path id="path334" d="m 23.94,20.5 h 4.7 a 1.04,1.04 0 1 0 0,-2.08 h -2.25 l 4.17,-4.16 a 1,1 0 0 0 0,-1.47 1,1 0 0 0 -1.46,0 L 24.91,17 v -2.28 a 1.04,1.04 0 1 0 -2.08,0 v 4.64 a 0.43,0.43 0 0 0 0,0.05 v 0.05 a 1.09,1.09 0 0 0 1.11,1.04 z" style="fill:#fff"/><path id="path336" d="m 18.13,13.62 a 1.08,1.08 0 0 0 -1,1.09 V 17 l -4.18,-4.19 a 1,1 0 0 0 -1.47,0 1,1 0 0 0 0,1.46 l 4.16,4.17 h -2.29 a 1.04,1.04 0 1 0 0,2.08 h 4.71 a 1.09,1.09 0 0 0 1.11,-1 c 0,0 0,0 0,-0.06 v -4.75 a 1.07,1.07 0 0 0 -1.04,-1.09 z" style="fill:#fff"/></g></g></g></g></g><g id="g364" transform="translate(1262.5,805)"><g id="g362" transform="scale(1.5)"><path id="path348" d="m 8.5,8.5 v -4 a 4,4 90 0 1 4,-4 h 4 10 30 4 a 4,4 90 0 1 4,4 v 4 h -4 v -3 h -4 v 10 h 4 v -3 h 4 v 17 h -4 v -3 h -4 v 10 h 4 v -3 h 4 v 4 a 4,4 90 0 1 -4,4 h -4 -30 -10 -4 a 4,4 90 0 1 -4,-4 v -4 -21 -1 h -6 v 3 h -2 v -8 h 2 v 3 h 6 z" style="fill:#ff6ea1;fill-opacity:1;stroke:#ff2c76;stroke-width:1;stroke-linecap:round;stroke-opacity:1"/><text id="text352" style="font-size:9px;font-family:sans-serif;text-anchor:end;fill:#282828"><tspan id="tspan350" x="54" y="23">➗</tspan></text></g></g><g id="g374" transform="translate(1348,805)"><g id="g372" transform="scale(1.5)"><path id="path366" d="m 8.5,0.5 h 60 v 20 h -60 v -8 -1 h -6 v 3 h -2 v -8 h 2 v 3 h 6 v -1 z" style="fill:#ff6ea1;fill-opacity:1;stroke:#ff2c76;stroke-width:1;stroke-linecap:round;stroke-opacity:1"/><text id="text370" style="font-size:10px;font-family:sans-serif;text-anchor:start;fill:#282828"><tspan id="tspan368" x="13" y="14">1</tspan></text></g></g><g id="g384" transform="translate(1348,836.5)"><g id="g382" transform="scale(1.5)"><path id="path376" d="m 8.5,0.5 h 60 v 20 h -60 v -8 -1 h -6 v 3 h -2 v -8 h 2 v 3 h 6 v -1 z" style="fill:#ff6ea1;fill-opacity:1;stroke:#ff2c76;stroke-width:1;stroke-linecap:round;stroke-opacity:1"/><text id="text380" style="font-size:10px;font-family:sans-serif;text-anchor:start;fill:#282828"><tspan id="tspan378" x="13" y="14">2</tspan></text></g></g><g id="g394" transform="translate(1144,836.5)"><g id="g392" transform="scale(1.5)"><path id="path386" d="m 0.5,8.5 v -4 a 4,4 90 0 1 4,-4 h 4 v 2 h 10 v -2 h 20 4 a 4,4 90 0 1 4,4 v 4 4 4 a 4,4 90 0 1 -4,4 h -4 -20 -1 v 2 h -8 v -2 h -1 -4 a 4,4 90 0 1 -4,-4 v -4 z" style="fill:#c4c4c4;fill-opacity:1;stroke:#a0a0a0;stroke-width:1;stroke-linecap:round;stroke-opacity:1"/><text id="text390" style="font-size:10px;font-family:sans-serif;text-anchor:end;fill:#282828"><tspan id="tspan388" x="36" y="14">↓</tspan></text></g></g><g id="g412" transform="translate(1144,868)"><g id="g410" transform="scale(1.5)"><path id="path396" d="m 0.5,8.5 v -4 a 4,4 90 0 1 4,-4 h 4 v 2 h 10 v -2 h 30 4 a 4,4 90 0 1 4,4 v 4 h -4 v -3 h -4 v 10 h 4 v -3 h 4 v 17 h -4 v -3 h -4 v 10 h 4 v -3 h 4 v 4 a 4,4 90 0 1 -4,4 h -4 -30 -1 v 2 h -8 v -2 h -1 -4 a 4,4 90 0 1 -4,-4 v -4 -21 z" style="fill:#7cd622;fill-opacity:1;stroke:#57ad02;stroke-width:1;stroke-linecap:round;stroke-opacity:1"/><text id="text400" style="font-size:10px;font-family:sans-serif;text-anchor:end;fill:#282828"><tspan id="tspan398" x="46" y="24">tono</tspan></text><text id="text404" style="font-size:6.66666651px;font-family:sans-serif;text-anchor:end;fill:#282828"><tspan id="tspan402" x="46" y="12">nombre</tspan></text><text id="text408" style="font-size:6.66666651px;font-family:sans-serif;text-anchor:end;fill:#282828"><tspan id="tspan406" x="46" y="33">octava</tspan></text></g></g><g id="g422" transform="translate(1217.5,868)"><g id="g420" transform="scale(1.5)"><path id="path414" d="m 8.5,0.5 h 60 v 20 h -60 v -8 -1 h -6 v 3 h -2 v -8 h 2 v 3 h 6 v -1 z" style="fill:#7cd622;fill-opacity:1;stroke:#57ad02;stroke-width:1;stroke-linecap:round;stroke-opacity:1"/><text id="text418" style="font-size:10px;font-family:sans-serif;text-anchor:start;fill:#282828"><tspan id="tspan416" x="13" y="14">sol</tspan></text></g></g><g id="g432" transform="translate(1217.5,899.5)"><g id="g430" transform="scale(1.5)"><path id="path424" d="m 8.5,0.5 h 60 v 20 h -60 v -8 -1 h -6 v 3 h -2 v -8 h 2 v 3 h 6 v -1 z" style="fill:#ff6ea1;fill-opacity:1;stroke:#ff2c76;stroke-width:1;stroke-linecap:round;stroke-opacity:1"/><text id="text428" style="font-size:10px;font-family:sans-serif;text-anchor:start;fill:#282828"><tspan id="tspan426" x="13" y="14">4</tspan></text></g></g><g id="g1570" transform="translate(1117,742)"><g id="g1568" transform="scale(1.5)"><path id="path1558" d="m 0.5,8.5 v -4 a 4,4 90 0 1 4,-4 h 4 v 2 h 10 v -2 h 9 86.9873 4 a 4,4 90 0 1 4,4 v 4 h -4 v -3 h -4 v 10 h 4 v -3 h 4 v 4 a 4,4 90 0 1 -4,4 h -4 -86.9873 -1 v 2 h -8 v -2 h -1 -4 a 5,5 90 0 0 -5,5 v 4 4 105 4 a 5,5 90 0 0 5,5 h 4 v 2 h 10 v -2 h 8 v 6 6 4 a 4,4 90 0 1 -4,4 h -4 -9 -1 v 2 h -8 v -2 h -1 -4 a 4,4 90 0 1 -4,-4 v -4 z" style="fill:#7cd622;fill-opacity:1;stroke:#57ad02;stroke-width:1;stroke-linecap:round;stroke-opacity:1"/><text id="text1562" style="font-size:10px;font-family:sans-serif;text-anchor:start;fill:#282828"><tspan id="tspan1560" x="5" y="15">transposición escalar (+/–)</tspan></text></g></g><g id="g1588" transform="translate(1289.481,742)"><g id="g1586" transform="scale(1.5)"><path id="path1572" d="m 8.5,8.5 v -4 a 4,4 90 0 1 4,-4 h 4 10 30 4 a 4,4 90 0 1 4,4 v 4 h -4 v -3 h -4 v 10 h 4 v -3 h 4 v 17 h -4 v -3 h -4 v 10 h 4 v -3 h 4 v 4 a 4,4 90 0 1 -4,4 h -4 -30 -10 -4 a 4,4 90 0 1 -4,-4 v -4 -21 -1 h -6 v 3 h -2 v -8 h 2 v 3 h 6 z" style="fill:#ff6ea1;fill-opacity:1;stroke:#ff2c76;stroke-width:1;stroke-linecap:round;stroke-opacity:1"/><text id="text1576" style="font-size:14px;font-family:sans-serif;text-anchor:end;fill:#282828"><tspan id="tspan1574" x="54" y="24">+</tspan></text></g></g><g id="g1598" transform="translate(1374.981,742)"><g id="g1596" transform="scale(1.5)"><path id="path1590" d="m 8.5,0.5 h 60 v 20 h -60 v -8 -1 h -6 v 3 h -2 v -8 h 2 v 3 h 6 v -1 z" style="fill:#ff6ea1;fill-opacity:1;stroke:#ff2c76;stroke-width:1;stroke-linecap:round;stroke-opacity:1"/><text id="text1594" style="font-size:10px;font-family:sans-serif;text-anchor:start;fill:#282828"><tspan id="tspan1592" x="13" y="14">3</tspan></text></g></g><g id="g1616" transform="translate(1374.981,773.5)"><g id="g1614" transform="scale(1.5)"><path id="path1600" d="m 8.5,8.5 v -4 a 4,4 90 0 1 4,-4 h 4 10 30 4 a 4,4 90 0 1 4,4 v 4 h -4 v -3 h -4 v 10 h 4 v -3 h 4 v 17 h -4 v -3 h -4 v 10 h 4 v -3 h 4 v 4 a 4,4 90 0 1 -4,4 h -4 -30 -10 -4 a 4,4 90 0 1 -4,-4 v -4 -21 -1 h -6 v 3 h -2 v -8 h 2 v 3 h 6 z" style="fill:#ff6ea1;fill-opacity:1;stroke:#ff2c76;stroke-width:1;stroke-linecap:round;stroke-opacity:1"/><text id="text1604" style="font-size:14px;font-family:sans-serif;text-anchor:end;fill:#282828"><tspan id="tspan1602" x="54" y="24">×</tspan></text></g></g><g id="g1626" transform="translate(1460.481,773.5)"><g id="g1624" transform="scale(1.5)"><path id="path1618" d="m 8.5,0.5 h 60 v 20 h -60 v -8 -1 h -6 v 3 h -2 v -8 h 2 v 3 h 6 v -1 z" style="fill:#ff6ea1;fill-opacity:1;stroke:#ff2c76;stroke-width:1;stroke-linecap:round;stroke-opacity:1"/><text id="text1622" style="font-size:10px;font-family:sans-serif;text-anchor:start;fill:#282828"><tspan id="tspan1620" x="13" y="14">0</tspan></text></g></g><g id="g1636" transform="translate(1460.481,805)"><g id="g1634" transform="scale(1.5)"><path id="path1628" d="m 8.5,0.5 h 95.03906 v 20 H 8.5 v -8 -1 h -6 v 3 h -2 v -8 h 2 v 3 h 6 v -1 z" style="fill:#7cd622;fill-opacity:1;stroke:#57ad02;stroke-width:1;stroke-linecap:round;stroke-opacity:1"/><text id="text1632" style="font-size:10px;font-family:sans-serif;text-anchor:start;fill:#282828"><tspan id="tspan1630" x="13" y="14">longitud de modo</tspan></text></g></g><g id="g1646" transform="translate(1130.5,773.5)"><g id="g1644" transform="scale(1.5)"><path id="path1638" d="m 0.5,8.5 v -4 a 4,4 90 0 1 4,-4 h 4 v 2 h 10 v -2 h 20 4 a 4,4 90 0 1 4,4 v 4 4 4 a 4,4 90 0 1 -4,4 h -4 -20 -1 v 2 h -8 v -2 h -1 -4 a 4,4 90 0 1 -4,-4 v -4 z" style="fill:#c4c4c4;fill-opacity:1;stroke:#a0a0a0;stroke-width:1;stroke-linecap:round;stroke-opacity:1"/><text id="text1642" style="font-size:10px;font-family:sans-serif;text-anchor:end;fill:#282828"><tspan id="tspan1640" x="36" y="14">↓</tspan></text></g></g></g></g></svg>