<svg xmlns="http://www.w3.org/2000/svg" xmlns:svg="http://www.w3.org/2000/svg" id="svg1870" width="212.046" height="144.5" version="1.1" viewBox="0 0 56.104 38.232"><metadata id="metadata1867"/><g id="g474" transform="scale(0.26458333)"><g id="g472" transform="scale(1.5)"><path style="fill:#92a9ff;fill-opacity:1;stroke:#5370dc;stroke-width:1;stroke-linecap:round;stroke-opacity:1" id="path462" d="m 0.5,8.5 v -4 a 4,4 90 0 1 4,-4 h 4 v 2 h 10 v -2 h 37.792969 4 a 4,4 90 0 1 4,4 v 4 h -4 v -3 h -4 v 10 h 4 v -3 h 4 v 4 a 4,4 90 0 1 -4,4 h -4 H 18.5 h -1 v 2 h -8 v -2 h -1 -4 a 4,4 90 0 1 -4,-4 v -4 z"/><text style="font-size:10px;font-family:sans-serif;text-anchor:end;fill:#282828" id="text466"><tspan id="tspan464" x="54" y="14">fijar color</tspan></text></g></g><g id="g484" transform="matrix(0.26458333,0,0,0.26458333,22.5397,0)"><g id="g482" transform="scale(1.5)"><path style="fill:#ff6ea1;fill-opacity:1;stroke:#ff2c76;stroke-width:1;stroke-linecap:round;stroke-opacity:1" id="path476" d="m 8.5,0.5 h 60 v 20 h -60 v -8 -1 h -6 v 3 h -2 v -8 h 2 v 3 h 6 v -1 z"/><text style="font-size:10px;font-family:sans-serif;text-anchor:start;fill:#282828" id="text480"><tspan id="tspan478" x="13" y="14">0</tspan></text></g></g><g id="g498" transform="matrix(0.26458333,0,0,0.26458333,2.1166667,8.33438)"><g id="g496" transform="scale(1.5)"><path style="fill:#92a9ff;fill-opacity:1;stroke:#5370dc;stroke-width:1;stroke-linecap:round;stroke-opacity:1" id="path486" d="m -4.8333335,8.5 v -4 c 0,-2.209139 1.790861,-4 4.00000005,-4 H 3.1666665 v 2 H 13.166667 v -2 h 48.697591 4 c 2.209139,0 4,1.790861 4,4 v 4 h -4 v -3 h -4 v 10 h 4 v -3 h 4 v 4 c 0,2.209139 -1.790861,4 -4,4 h -4 -48.697591 -1 v 2 H 4.1666665 v -2 h -1 -3.99999995 c -2.20913905,0 -4.69859115,-1.904227 -4.00000005,-4 v -4 z"/><text style="font-size:10px;font-family:sans-serif;text-anchor:end;fill:#282828" id="text490"><tspan id="tspan488" x="60" y="14">fijar sombra</tspan></text></g></g><g id="g508" transform="matrix(0.26458333,0,0,0.26458333,26.867478,8.33438)"><g id="g506" transform="scale(1.5)"><path style="fill:#ff6ea1;fill-opacity:1;stroke:#ff2c76;stroke-width:1;stroke-linecap:round;stroke-opacity:1" id="path500" d="m 8.5,0.5 h 60 v 20 h -60 v -8 -1 h -6 v 3 h -2 v -8 h 2 v 3 h 6 v -1 z"/><text style="font-size:10px;font-family:sans-serif;text-anchor:start;fill:#282828" id="text504"><tspan id="tspan502" x="13" y="14">50</tspan></text></g></g><g id="g522" transform="matrix(0.26458333,0,0,0.26458333,0,16.66875)"><g id="g520" transform="scale(1.5)"><path style="fill:#92a9ff;fill-opacity:1;stroke:#5370dc;stroke-width:1;stroke-linecap:round;stroke-opacity:1" id="path510" d="m 0.5,8.5 v -4 a 4,4 90 0 1 4,-4 h 4 v 2 h 10 v -2 h 53.364258 4 a 4,4 90 0 1 4,4 v 4 h -4 v -3 h -4 v 10 h 4 v -3 h 4 v 4 a 4,4 90 0 1 -4,4 h -4 H 18.5 h -1 v 2 h -8 v -2 h -1 -4 a 4,4 90 0 1 -4,-4 v -4 z"/><text style="font-size:10px;font-family:sans-serif;text-anchor:end;fill:#282828" id="text514"><tspan id="tspan512" x="70" y="14">fijar pluma</tspan></text></g></g><g id="g532" transform="matrix(0.26458333,0,0,0.26458333,28.71956,16.66875)"><g id="g530" transform="scale(1.5)"><path style="fill:#ff6ea1;fill-opacity:1;stroke:#ff2c76;stroke-width:1;stroke-linecap:round;stroke-opacity:1" id="path524" d="m 8.5,0.5 h 60 v 20 h -60 v -8 -1 h -6 v 3 h -2 v -8 h 2 v 3 h 6 v -1 z"/><text style="font-size:10px;font-family:sans-serif;text-anchor:start;fill:#282828" id="text528"><tspan id="tspan526" x="13" y="14">5</tspan></text></g></g><g id="g562" transform="matrix(0.26458333,0,0,0.26458333,22.225,29.89792)"><g id="g560" transform="scale(1.5)"><path style="fill:#92a9ff;fill-opacity:1;stroke:#5370dc;stroke-width:1;stroke-linecap:round;stroke-opacity:1" id="path554" d="m 8.5,0.5 h 70 v 20 h -70 v -8 -1 h -6 v 3 h -2 v -8 h 2 v 3 h 6 v -1 z"/><text style="font-size:10px;font-family:sans-serif;text-anchor:start;fill:#282828" id="text558"><tspan id="tspan556" x="13" y="14">color</tspan></text></g></g></svg>