<svg xmlns="http://www.w3.org/2000/svg" xmlns:svg="http://www.w3.org/2000/svg" id="svg10027" width="335.5" height="223.5" version="1.1" viewBox="0 0 88.768 59.134"><metadata id="metadata10024"/><g id="layer1" transform="translate(-59.937575,-103.39115)"><g id="g3849" transform="matrix(0.26458333,0,0,0.26458333,59.937575,103.39115)"><g id="g3847" transform="scale(1.5)"><path style="fill:#3edcdd;fill-opacity:1;stroke:#1dbcbd;stroke-width:1;stroke-linecap:round;stroke-opacity:1" id="path3837" d="m 0.5,8.5 v -4 a 4,4 90 0 1 4,-4 h 4 v 2 h 10 v -2 h 9 45 4 a 4,4 90 0 1 4,4 v 4 h -4 v -3 h -4 v 10 h 4 v -3 h 4 v 4 a 4,4 90 0 1 -4,4 h -4 -45 -1 v 2 h -8 v -2 h -1 -4 a 5,5 90 0 0 -5,5 v 4 4 84 4 a 5,5 90 0 0 5,5 h 4 v 2 h 10 v -2 h 8 v 6 6 4 a 4,4 90 0 1 -4,4 h -4 -9 -1 v 2 h -8 v -2 h -1 -4 a 4,4 90 0 1 -4,-4 v -4 z"/><text style="font-size:10px;font-family:sans-serif;text-anchor:start;fill:#282828" id="text3841"><tspan id="tspan3839" x="5" y="15">fijar timbre</tspan></text></g></g><g id="g3859" transform="matrix(0.26458333,0,0,0.26458333,89.041742,103.39115)"><g id="g3857" transform="scale(1.5)"><path style="fill:#3edcdd;fill-opacity:1;stroke:#1dbcbd;stroke-width:1;stroke-linecap:round;stroke-opacity:1" id="path3851" d="m 8.5,0.5 h 110 v 20 H 8.5 v -8 -1 h -6 v 3 h -2 v -8 h 2 v 3 h 6 v -1 z"/><text style="font-size:10px;font-family:sans-serif;text-anchor:start;fill:#282828" id="text3855"><tspan id="tspan3853" x="13" y="14">guitar</tspan></text></g></g><g id="g3893" transform="matrix(0.26458333,0,0,0.26458333,-248.30201,-70.175524)"><g id="g3873" transform="translate(1179,688)"><g id="g3871" transform="scale(1.5)"><path style="fill:#fe994f;fill-opacity:1;stroke:#e86b0e;stroke-width:1;stroke-linecap:round;stroke-opacity:1" id="path3861" d="m 0.5,8.5 v -4 a 4,4 90 0 1 4,-4 h 4 v 2 h 10 v -2 h 9 60 4 a 4,4 90 0 1 4,4 v 4 h -4 v -3 h -4 v 10 h 4 v -3 h 4 v 4 a 4,4 90 0 1 -4,4 h -4 -60 -1 v 2 h -8 v -2 h -1 -4 a 5,5 90 0 0 -5,5 v 4 4 42 4 a 5,5 90 0 0 5,5 h 4 v 2 h 10 v -2 h 8 v 6 6 4 a 4,4 90 0 1 -4,4 h -4 -9 -1 v 2 h -8 v -2 h -1 -4 a 4,4 90 0 1 -4,-4 v -4 z"/><text style="font-size:10px;font-family:sans-serif;text-anchor:start;fill:#282828" id="text3865"><tspan id="tspan3863" x="20" y="15">nota</tspan></text><text style="font-size:6.66666651px;font-family:sans-serif;text-anchor:end;fill:#282828" id="text3869"><tspan id="tspan3867" x="85" y="12">valor</tspan></text></g></g><g id="g3891" transform="matrix(0.5,0,0,0.5,1179,692)"><g style="isolation:isolate" id="g3889"><g id="g3887" data-name="レイヤー 2"><g id="g3885"><rect style="opacity:.4;mix-blend-mode:multiply;fill:#292929" id="rect3875" width="42" height="42" x="0" y="0" rx="5" ry="5"/><path style="fill:#fff" id="path3877" d="m 30.56,29.8 -4.17,-4.16 h 2.26 a 1.035,1.035 0 1 0 0,-2.07 h -4.71 a 1.08,1.08 0 0 0 -1.11,1 v 0 c 0,0 0,0 0,0.06 v 4.64 0 a 1.04,1.04 0 1 0 2.08,0 v -2.19 l 4.19,4.19 a 1,1 0 0 0 1.46,0 1,1 0 0 0 0,-1.47 z"/><path style="fill:#fff" id="path3879" d="m 19.17,24.6 a 1.08,1.08 0 0 0 -1.11,-1 h -4.71 a 1.035,1.035 0 1 0 0,2.07 h 2.25 l -4.16,4.13 a 1.039447,1.039447 0 0 0 1.47,1.47 l 4.18,-4.19 v 2.26 a 1.04,1.04 0 1 0 2.08,0 V 24.7 c 0,0 0,0 0,-0.06 a 0.08,0.08 0 0 1 0,-0.04 z"/><path style="fill:#fff" id="path3881" d="m 23.94,20.5 h 4.7 a 1.04,1.04 0 1 0 0,-2.08 h -2.25 l 4.17,-4.16 a 1,1 0 0 0 0,-1.47 1,1 0 0 0 -1.46,0 L 24.91,17 v -2.28 a 1.04,1.04 0 1 0 -2.08,0 v 4.64 a 0.43,0.43 0 0 0 0,0.05 v 0.05 a 1.09,1.09 0 0 0 1.11,1.04 z"/><path style="fill:#fff" id="path3883" d="m 18.13,13.62 a 1.08,1.08 0 0 0 -1,1.09 V 17 l -4.18,-4.19 a 1,1 0 0 0 -1.47,0 1,1 0 0 0 0,1.46 l 4.16,4.17 h -2.29 a 1.04,1.04 0 1 0 0,2.08 h 4.71 a 1.09,1.09 0 0 0 1.11,-1 c 0,0 0,0 0,-0.06 v -4.75 a 1.07,1.07 0 0 0 -1.04,-1.09 z"/></g></g></g></g></g><g id="g3911" transform="matrix(0.26458333,0,0,0.26458333,98.566742,111.85781)"><g id="g3909" transform="scale(1.5)"><path style="fill:#ff6ea1;fill-opacity:1;stroke:#ff2c76;stroke-width:1;stroke-linecap:round;stroke-opacity:1" id="path3895" d="m 8.5,8.5 v -4 a 4,4 90 0 1 4,-4 h 4 10 30 4 a 4,4 90 0 1 4,4 v 4 h -4 v -3 h -4 v 10 h 4 v -3 h 4 v 17 h -4 v -3 h -4 v 10 h 4 v -3 h 4 v 4 a 4,4 90 0 1 -4,4 h -4 -30 -10 -4 a 4,4 90 0 1 -4,-4 v -4 -21 -1 h -6 v 3 h -2 v -8 h 2 v 3 h 6 z"/><text style="font-size:9px;font-family:sans-serif;text-anchor:end;fill:#282828" id="text3899"><tspan id="tspan3897" x="54" y="23">➗</tspan></text></g></g><g id="g3921" transform="matrix(0.26458333,0,0,0.26458333,121.32091,111.85781)"><g id="g3919" transform="scale(1.5)"><path style="fill:#ff6ea1;fill-opacity:1;stroke:#ff2c76;stroke-width:1;stroke-linecap:round;stroke-opacity:1" id="path3913" d="m 8.5,0.5 h 60 v 20 h -60 v -8 -1 h -6 v 3 h -2 v -8 h 2 v 3 h 6 v -1 z"/><text style="font-size:10px;font-family:sans-serif;text-anchor:start;fill:#282828" id="text3917"><tspan id="tspan3915" x="13" y="14">1</tspan></text></g></g><g id="g3931" transform="matrix(0.26458333,0,0,0.26458333,121.32091,120.32448)"><g id="g3929" transform="scale(1.5)"><path style="fill:#ff6ea1;fill-opacity:1;stroke:#ff2c76;stroke-width:1;stroke-linecap:round;stroke-opacity:1" id="path3923" d="m 8.5,0.5 h 60 v 20 h -60 v -8 -1 h -6 v 3 h -2 v -8 h 2 v 3 h 6 v -1 z"/><text style="font-size:10px;font-family:sans-serif;text-anchor:start;fill:#282828" id="text3927"><tspan id="tspan3925" x="13" y="14">4</tspan></text></g></g><g id="g3941" transform="matrix(0.26458333,0,0,0.26458333,67.345908,120.32448)"><g id="g3939" transform="scale(1.5)"><path style="fill:#c4c4c4;fill-opacity:1;stroke:#a0a0a0;stroke-width:1;stroke-linecap:round;stroke-opacity:1" id="path3933" d="m 0.5,8.5 v -4 a 4,4 90 0 1 4,-4 h 4 v 2 h 10 v -2 h 20 4 a 4,4 90 0 1 4,4 v 4 4 4 a 4,4 90 0 1 -4,4 h -4 -20 -1 v 2 h -8 v -2 h -1 -4 a 4,4 90 0 1 -4,-4 v -4 z"/><text style="font-size:10px;font-family:sans-serif;text-anchor:end;fill:#282828" id="text3937"><tspan id="tspan3935" x="36" y="14">↓</tspan></text></g></g><g id="g3959" transform="matrix(0.26458333,0,0,0.26458333,67.345908,128.79115)"><g id="g3957" transform="scale(1.5)"><path style="fill:#7cd622;fill-opacity:1;stroke:#57ad02;stroke-width:1;stroke-linecap:round;stroke-opacity:1" id="path3943" d="m 0.5,8.5 v -4 a 4,4 90 0 1 4,-4 h 4 v 2 h 10 v -2 h 30 4 a 4,4 90 0 1 4,4 v 4 h -4 v -3 h -4 v 10 h 4 v -3 h 4 v 17 h -4 v -3 h -4 v 10 h 4 v -3 h 4 v 4 a 4,4 90 0 1 -4,4 h -4 -30 -1 v 2 h -8 v -2 h -1 -4 a 4,4 90 0 1 -4,-4 v -4 -21 z"/><text style="font-size:10px;font-family:sans-serif;text-anchor:end;fill:#282828" id="text3947"><tspan id="tspan3945" x="46" y="24">tono</tspan></text><text style="font-size:6.66666651px;font-family:sans-serif;text-anchor:end;fill:#282828" id="text3951"><tspan id="tspan3949" x="46" y="12">nombre</tspan></text><text style="font-size:6.66666651px;font-family:sans-serif;text-anchor:end;fill:#282828" id="text3955"><tspan id="tspan3953" x="46" y="33">octava</tspan></text></g></g><g id="g3969" transform="matrix(0.26458333,0,0,0.26458333,86.925075,128.79115)"><g id="g3967" transform="scale(1.5)"><path style="fill:#7cd622;fill-opacity:1;stroke:#57ad02;stroke-width:1;stroke-linecap:round;stroke-opacity:1" id="path3961" d="m 8.5,0.5 h 60 v 20 h -60 v -8 -1 h -6 v 3 h -2 v -8 h 2 v 3 h 6 v -1 z"/><text style="font-size:10px;font-family:sans-serif;text-anchor:start;fill:#282828" id="text3965"><tspan id="tspan3963" x="13" y="14">sol</tspan></text></g></g><g id="g3979" transform="matrix(0.26458333,0,0,0.26458333,86.925075,137.25781)"><g id="g3977" transform="scale(1.5)"><path style="fill:#ff6ea1;fill-opacity:1;stroke:#ff2c76;stroke-width:1;stroke-linecap:round;stroke-opacity:1" id="path3971" d="m 8.5,0.5 h 60 v 20 h -60 v -8 -1 h -6 v 3 h -2 v -8 h 2 v 3 h 6 v -1 z"/><text style="font-size:10px;font-family:sans-serif;text-anchor:start;fill:#282828" id="text3975"><tspan id="tspan3973" x="13" y="14">4</tspan></text></g></g></g></svg>