<svg xmlns="http://www.w3.org/2000/svg" xmlns:svg="http://www.w3.org/2000/svg" id="svg1621" width="205.675" height="194.5" version="1.1" viewBox="0 0 54.418 51.461"><metadata id="metadata1618"/><path style="fill:#92a9ff;fill-opacity:1;stroke:#5370dc;stroke-width:.39687499;stroke-linecap:round;stroke-opacity:1" id="path540" d="m 0.24471321,11.840104 v -1.5875 c 0,-0.8767515 0.71074997,-1.5874995 1.58749999,-1.5874995 h 1.5875001 v 0.79375 h 3.96875 v -0.79375 h 19.3268607 1.5875 c 0.87675,0 1.5875,0.710748 1.5875,1.5874995 v 1.5875 h -1.5875 v -1.190625 h -1.5875 v 3.96875 h 1.5875 v -1.190625 h 1.5875 v 1.587501 c 0,0.876752 -0.71075,1.587499 -1.5875,1.587499 h -1.5875 -19.3268607 -0.39688 v 0.79375 h -3.175 v -0.79375 h -0.39687 -1.5875001 c -0.87675002,0 -1.86474996,-0.755739 -1.58749999,-1.587499 v -1.587501 z"/><text style="font-size:3.96875px;font-family:sans-serif;text-anchor:end;fill:#282828;stroke-width:.39687499" id="text544" x="2.163" y="8.467"><tspan id="tspan542" x="25.975" y="14.023" style="stroke-width:.39687499">fijar sombra</tspan></text><path style="fill:#ff6ea1;fill-opacity:1;stroke:#ff2c76;stroke-width:.39687499;stroke-linecap:round;stroke-opacity:1" id="path554" d="m 30.407214,8.6651045 h 23.8125 v 7.9374995 h -23.8125 v -3.175 -0.396874 h -2.38125 v 1.190624 h -0.79375 v -3.174999 h 0.79375 v 1.190624 h 2.38125 v -0.396875 z"/><text style="font-size:3.96875px;font-family:sans-serif;text-anchor:start;fill:#282828;stroke-width:.39687499" id="text558" x="27.034" y="8.467"><tspan id="tspan556" x="32.193" y="14.023" style="stroke-width:.39687499">0</tspan></text><path style="fill:#92a9ff;fill-opacity:1;stroke:#5370dc;stroke-width:.39687499;stroke-linecap:round;stroke-opacity:1" id="path564" d="m 0.24471321,28.773438 v -1.5875 c 0,-0.876752 0.71074997,-1.587501 1.58749999,-1.587501 h 1.5875001 v 0.793751 h 3.96875 v -0.793751 h 19.3268607 1.5875 c 0.87675,0 1.5875,0.710749 1.5875,1.587501 v 1.5875 h -1.5875 v -1.190626 h -1.5875 v 3.96875 h 1.5875 v -1.190624 h 1.5875 v 1.587499 c 0,0.876752 -0.71075,1.5875 -1.5875,1.5875 h -1.5875 -19.3268607 -0.39688 v 0.793751 h -3.175 v -0.793751 h -0.39687 -1.5875001 c -0.87675002,0 -1.86474996,-0.75574 -1.58749999,-1.5875 v -1.587499 z"/><text style="font-size:3.96875px;font-family:sans-serif;text-anchor:end;fill:#282828;stroke-width:.39687499" id="text568" x="2.163" y="25.4"><tspan id="tspan566" x="25.975" y="30.956" style="stroke-width:.39687499">fijar sombra</tspan></text><path style="fill:#ff6ea1;fill-opacity:1;stroke:#ff2c76;stroke-width:.39687499;stroke-linecap:round;stroke-opacity:1" id="path578" d="m 30.407214,25.598437 h 23.8125 v 7.9375 h -23.8125 v -3.174999 -0.396876 h -2.38125 v 1.190626 h -0.79375 v -3.175001 h 0.79375 v 1.190626 h 2.38125 v -0.396875 z"/><text style="font-size:3.96875px;font-family:sans-serif;text-anchor:start;fill:#282828;stroke-width:.39687499" id="text582" x="27.034" y="25.4"><tspan id="tspan580" x="32.193" y="30.956" style="stroke-width:.39687499">50</tspan></text><path style="fill:#92a9ff;fill-opacity:1;stroke:#5370dc;stroke-width:.39687499;stroke-linecap:round;stroke-opacity:1" id="path588" d="m 0.2447165,3.3734375 v -1.5875 a 1.5875,1.5875 0 0 1 1.5875,-1.5875 h 1.5875 v 0.79375 h 3.96875 v -0.79375 h 13.2336895 1.5875 a 1.5875,1.5875 0 0 1 1.5875,1.5875 v 1.5875 h -1.5875 v -1.190625 h -1.5875 v 3.96875 h 1.5875 v -1.190625 h 1.5875 v 1.587501 a 1.5875,1.5875 0 0 1 -1.5875,1.587499 h -1.5875 -13.2336895 -0.39688 v 0.79375 h -3.175 v -0.79375 h -0.39687 -1.5875 a 1.5875,1.5875 0 0 1 -1.5875,-1.587499 v -1.587501 z"/><text style="font-size:3.96875px;font-family:sans-serif;text-anchor:end;fill:#282828;stroke-width:.39687499" id="text592" x=".046" y="0"><tspan id="tspan590" x="19.89" y="5.556" style="stroke-width:.39687499">adelante</tspan></text><path style="fill:#ff6ea1;fill-opacity:1;stroke:#ff2c76;stroke-width:.39687499;stroke-linecap:round;stroke-opacity:1" id="path602" d="m 24.321796,0.1984375 h 23.8125 v 7.9375 h -23.8125 v -3.175 -0.396874 h -2.38125 v 1.190624 h -0.79375 v -3.174999 h 0.79375 v 1.190624 h 2.38125 v -0.396875 z"/><text style="font-size:3.96875px;font-family:sans-serif;text-anchor:start;fill:#282828;stroke-width:.39687499" id="text606" x="20.948" y="0"><tspan id="tspan604" x="26.108" y="5.556" style="stroke-width:.39687499">100</tspan></text><path style="fill:#92a9ff;fill-opacity:1;stroke:#5370dc;stroke-width:.39687499;stroke-linecap:round;stroke-opacity:1" id="path612" d="m 0.2447165,20.30677 v -1.587499 a 1.5875,1.5875 0 0 1 1.5875,-1.587501 h 1.5875 v 0.793751 h 3.96875 V 17.13177 h 13.2336895 1.5875 a 1.5875,1.5875 0 0 1 1.5875,1.587501 v 1.587499 h -1.5875 v -1.190625 h -1.5875 v 3.96875 h 1.5875 v -1.190624 h 1.5875 v 1.5875 a 1.5875,1.5875 0 0 1 -1.5875,1.587499 h -1.5875 -13.2336895 -0.39688 v 0.793751 h -3.175 V 25.06927 h -0.39687 -1.5875 a 1.5875,1.5875 0 0 1 -1.5875,-1.587499 v -1.5875 z"/><text style="font-size:3.96875px;font-family:sans-serif;text-anchor:end;fill:#282828;stroke-width:.39687499" id="text616" x=".046" y="16.933"><tspan id="tspan614" x="19.89" y="22.49" style="stroke-width:.39687499">adelante</tspan></text><path style="fill:#ff6ea1;fill-opacity:1;stroke:#ff2c76;stroke-width:.39687499;stroke-linecap:round;stroke-opacity:1" id="path626" d="m 24.321796,17.13177 h 23.8125 v 7.9375 h -23.8125 v -3.174999 -0.396875 h -2.38125 v 1.190625 h -0.79375 v -3.175 h 0.79375 v 1.190625 h 2.38125 V 20.30677 Z"/><text style="font-size:3.96875px;font-family:sans-serif;text-anchor:start;fill:#282828;stroke-width:.39687499" id="text630" x="20.948" y="16.933"><tspan id="tspan628" x="26.108" y="22.49" style="stroke-width:.39687499">100</tspan></text><path style="fill:#92a9ff;fill-opacity:1;stroke:#5370dc;stroke-width:.39687499;stroke-linecap:round;stroke-opacity:1" id="path636" d="m 0.2447165,37.240105 v -1.5875 a 1.5875,1.5875 0 0 1 1.5875,-1.587501 h 1.5875 v 0.793751 h 3.96875 v -0.793751 h 13.2336895 1.5875 a 1.5875,1.5875 0 0 1 1.5875,1.587501 v 1.5875 h -1.5875 v -1.190626 h -1.5875 v 3.96875 h 1.5875 v -1.190624 h 1.5875 v 1.5875 a 1.5875,1.5875 0 0 1 -1.5875,1.587499 h -1.5875 -13.2336895 -0.39688 v 0.793751 h -3.175 v -0.793751 h -0.39687 -1.5875 a 1.5875,1.5875 0 0 1 -1.5875,-1.587499 v -1.5875 z"/><text style="font-size:3.96875px;font-family:sans-serif;text-anchor:end;fill:#282828;stroke-width:.39687499" id="text640" x=".046" y="33.867"><tspan id="tspan638" x="19.89" y="39.423" style="stroke-width:.39687499">adelante</tspan></text><path style="fill:#ff6ea1;fill-opacity:1;stroke:#ff2c76;stroke-width:.39687499;stroke-linecap:round;stroke-opacity:1" id="path650" d="m 24.321796,34.065104 h 23.8125 v 7.9375 h -23.8125 V 38.827605 38.43073 h -2.38125 v 1.190625 h -0.79375 v -3.175 h 0.79375 v 1.190625 h 2.38125 v -0.396875 z"/><text style="font-size:3.96875px;font-family:sans-serif;text-anchor:start;fill:#282828;stroke-width:.39687499" id="text654" x="20.948" y="33.867"><tspan id="tspan652" x="26.108" y="39.423" style="stroke-width:.39687499">100</tspan></text><path style="fill:#92a9ff;fill-opacity:1;stroke:#5370dc;stroke-width:.39687499;stroke-linecap:round;stroke-opacity:1" id="path660" d="m 0.24471321,45.706771 v -1.5875 c 0,-0.876752 0.71074997,-1.587501 1.58749999,-1.587501 h 1.5875001 v 0.79375 h 3.96875 v -0.79375 h 19.3268607 1.5875 c 0.87675,0 1.5875,0.710749 1.5875,1.587501 v 1.5875 h -1.5875 v -1.190626 h -1.5875 v 3.96875 h 1.5875 V 47.29427 h 1.5875 v 1.5875 c 0,0.876752 -0.71075,1.5875 -1.5875,1.5875 h -1.5875 -19.3268607 -0.39688 v 0.79375 h -3.175 v -0.79375 h -0.39687 -1.5875001 c -0.87675002,0 -1.58749999,-0.710748 -1.58749999,-1.5875 v -1.5875 z"/><text style="font-size:3.96875px;font-family:sans-serif;text-anchor:end;fill:#282828;stroke-width:.39687499" id="text664" x="2.163" y="42.333"><tspan id="tspan662" x="25.975" y="47.89" style="stroke-width:.39687499">fijar sombra</tspan></text><path style="fill:#ff6ea1;fill-opacity:1;stroke:#ff2c76;stroke-width:.39687499;stroke-linecap:round;stroke-opacity:1" id="path674" d="m 30.407214,42.53177 h 23.8125 v 7.9375 h -23.8125 v -3.175 -0.396875 h -2.38125 v 1.190625 h -0.79375 v -3.175 h 0.79375 v 1.190626 h 2.38125 v -0.396875 z"/><text style="font-size:3.96875px;font-family:sans-serif;text-anchor:start;fill:#282828;stroke-width:.39687499" id="text678" x="27.034" y="42.333"><tspan id="tspan676" x="32.193" y="47.89" style="stroke-width:.39687499">100</tspan></text></svg>