<svg xmlns="http://www.w3.org/2000/svg" xmlns:svg="http://www.w3.org/2000/svg" id="svg9313" width="423.5" height="66" version="1.1" viewBox="0 0 112.051 17.462"><metadata id="metadata9310"/><g id="layer1" transform="translate(222.33504,-44.852083)"><g id="g3815" transform="matrix(0.26458333,0,0,0.26458333,-222.33504,44.852083)"><g id="g3813" transform="scale(1.5)"><path id="path3799" d="m 0.5,8.5 v -4 a 4,4 90 0 1 4,-4 h 4 v 2 h 10 v -2 h 144 4 a 4,4 90 0 1 4,4 v 4 h -4 v -3 h -4 v 10 h 4 v -3 h 4 v 17 h -4 v -3 h -4 v 10 h 4 v -3 h 4 v 4 a 4,4 90 0 1 -4,4 h -4 -144 -1 v 2 h -8 v -2 h -1 -4 a 4,4 90 0 1 -4,-4 v -4 -21 z" style="fill:#3edcdd;fill-opacity:1;stroke:#1dbcbd;stroke-width:1;stroke-linecap:round;stroke-opacity:1"/><text id="text3803" style="font-size:10px;font-family:sans-serif;text-anchor:end;fill:#282828"><tspan id="tspan3801" x="160" y="24">fijar volumen del sintetizador</tspan></text><text id="text3807" style="font-size:6.66666651px;font-family:sans-serif;text-anchor:end;fill:#282828"><tspan id="tspan3805" x="160" y="12">sintetizador</tspan></text><text id="text3811" style="font-size:6.66666651px;font-family:sans-serif;text-anchor:end;fill:#282828"><tspan id="tspan3809" x="160" y="33">volumen</tspan></text></g></g><g id="g3825" transform="matrix(0.26458333,0,0,0.26458333,-157.51213,44.852083)"><g id="g3823" transform="scale(1.5)"><path id="path3817" d="m 8.5,0.5 h 110 v 20 H 8.5 v -8 -1 h -6 v 3 h -2 v -8 h 2 v 3 h 6 v -1 z" style="fill:#3edcdd;fill-opacity:1;stroke:#1dbcbd;stroke-width:1;stroke-linecap:round;stroke-opacity:1"/><text id="text3821" style="font-size:10px;font-family:sans-serif;text-anchor:start;fill:#282828"><tspan id="tspan3819" x="13" y="14">guitar</tspan></text></g></g><g id="g3835" transform="matrix(0.26458333,0,0,0.26458333,-157.51213,53.31875)"><g id="g3833" transform="scale(1.5)"><path id="path3827" d="m 8.5,0.5 h 60 v 20 h -60 v -8 -1 h -6 v 3 h -2 v -8 h 2 v 3 h 6 v -1 z" style="fill:#ff6ea1;fill-opacity:1;stroke:#ff2c76;stroke-width:1;stroke-linecap:round;stroke-opacity:1"/><text id="text3831" style="font-size:10px;font-family:sans-serif;text-anchor:start;fill:#282828"><tspan id="tspan3829" x="13" y="14">50</tspan></text></g></g></g></svg>