<svg xmlns="http://www.w3.org/2000/svg" xmlns:svg="http://www.w3.org/2000/svg" id="svg11666" width="334.5" height="255" version="1.1" viewBox="0 0 88.503 67.469"><metadata id="metadata11663"/><g id="layer1" transform="translate(360.59873,-27.085343)"><g id="g9518" transform="matrix(0.26458333,0,0,0.26458333,-426.47998,-244.90632)"><g id="g2210" transform="translate(249,1028)"><g id="g2208" transform="scale(1.5)"><path id="path2198" d="m 0.5,8.5 v -4 a 4,4 90 0 1 4,-4 h 4 v 2 h 10 v -2 h 9 27.241211 4 a 4,4 90 0 1 4,4 v 4 h -4 v -3 h -4 v 10 h 4 v -3 h 4 v 4 a 4,4 90 0 1 -4,4 h -4 H 27.5 h -1 v 2 h -8 v -2 h -1 -4 a 5,5 90 0 0 -5,5 v 4 4 105 4 a 5,5 90 0 0 5,5 h 4 v 2 h 10 v -2 h 8 v 6 6 4 a 4,4 90 0 1 -4,4 h -4 -9 -1 v 2 h -8 v -2 h -1 -4 a 4,4 90 0 1 -4,-4 v -4 z" style="fill:#3edcdd;fill-opacity:1;stroke:#1dbcbd;stroke-width:1;stroke-linecap:round;stroke-opacity:1"/><text id="text2202" style="font-size:10px;font-family:sans-serif;text-anchor:start;fill:#282828"><tspan id="tspan2200" x="5" y="15">staccato</tspan></text></g></g><g id="g2228" transform="translate(331.86182,1028)"><g id="g2226" transform="scale(1.5)"><path id="path2212" d="m 8.5,8.5 v -4 a 4,4 90 0 1 4,-4 h 4 10 30 4 a 4,4 90 0 1 4,4 v 4 h -4 v -3 h -4 v 10 h 4 v -3 h 4 v 17 h -4 v -3 h -4 v 10 h 4 v -3 h 4 v 4 a 4,4 90 0 1 -4,4 h -4 -30 -10 -4 a 4,4 90 0 1 -4,-4 v -4 -21 -1 h -6 v 3 h -2 v -8 h 2 v 3 h 6 z" style="fill:#ff6ea1;fill-opacity:1;stroke:#ff2c76;stroke-width:1;stroke-linecap:round;stroke-opacity:1"/><text id="text2216" style="font-size:9px;font-family:sans-serif;text-anchor:end;fill:#282828"><tspan id="tspan2214" x="54" y="23">➗</tspan></text></g></g><g id="g2238" transform="translate(417.36182,1028)"><g id="g2236" transform="scale(1.5)"><path id="path2230" d="m 8.5,0.5 h 60 v 20 h -60 v -8 -1 h -6 v 3 h -2 v -8 h 2 v 3 h 6 v -1 z" style="fill:#ff6ea1;fill-opacity:1;stroke:#ff2c76;stroke-width:1;stroke-linecap:round;stroke-opacity:1"/><text id="text2234" style="font-size:10px;font-family:sans-serif;text-anchor:start;fill:#282828"><tspan id="tspan2232" x="13" y="14">1</tspan></text></g></g><g id="g2248" transform="translate(417.36182,1059.5)"><g id="g2246" transform="scale(1.5)"><path id="path2240" d="m 8.5,0.5 h 60 v 20 h -60 v -8 -1 h -6 v 3 h -2 v -8 h 2 v 3 h 6 v -1 z" style="fill:#ff6ea1;fill-opacity:1;stroke:#ff2c76;stroke-width:1;stroke-linecap:round;stroke-opacity:1"/><text id="text2244" style="font-size:10px;font-family:sans-serif;text-anchor:start;fill:#282828"><tspan id="tspan2242" x="13" y="14">32</tspan></text></g></g><g id="g2258" transform="translate(262.5,1059.5)"><g id="g2256" transform="scale(1.5)"><path id="path2250" d="m 0.5,8.5 v -4 a 4,4 90 0 1 4,-4 h 4 v 2 h 10 v -2 h 20 4 a 4,4 90 0 1 4,4 v 4 4 4 a 4,4 90 0 1 -4,4 h -4 -20 -1 v 2 h -8 v -2 h -1 -4 a 4,4 90 0 1 -4,-4 v -4 z" style="fill:#c4c4c4;fill-opacity:1;stroke:#a0a0a0;stroke-width:1;stroke-linecap:round;stroke-opacity:1"/><text id="text2254" style="font-size:10px;font-family:sans-serif;text-anchor:end;fill:#282828"><tspan id="tspan2252" x="36" y="14">↓</tspan></text></g></g><g id="g2430"><g id="g2410" transform="translate(262.5,1091)"><g id="g2408" transform="scale(1.5)"><path id="path2398" d="m 0.5,8.5 v -4 a 4,4 90 0 1 4,-4 h 4 v 2 h 10 v -2 h 9 60 4 a 4,4 90 0 1 4,4 v 4 h -4 v -3 h -4 v 10 h 4 v -3 h 4 v 4 a 4,4 90 0 1 -4,4 h -4 -60 -1 v 2 h -8 v -2 h -1 -4 a 5,5 90 0 0 -5,5 v 4 4 42 4 a 5,5 90 0 0 5,5 h 4 v 2 h 10 v -2 h 8 v 6 6 4 a 4,4 90 0 1 -4,4 h -4 -9 -1 v 2 h -8 v -2 h -1 -4 a 4,4 90 0 1 -4,-4 v -4 z" style="fill:#fe994f;fill-opacity:1;stroke:#e86b0e;stroke-width:1;stroke-linecap:round;stroke-opacity:1"/><text id="text2402" style="font-size:10px;font-family:sans-serif;text-anchor:start;fill:#282828"><tspan id="tspan2400" x="20" y="15">nota</tspan></text><text id="text2406" style="font-size:6.66666651px;font-family:sans-serif;text-anchor:end;fill:#282828"><tspan id="tspan2404" x="85" y="12">valor</tspan></text></g></g><g id="g2428" transform="matrix(0.5,0,0,0.5,262.5,1095)"><g id="g2426" style="isolation:isolate"><g id="g2424" data-name="レイヤー 2"><g id="g2422"><rect id="rect2412" width="42" height="42" x="0" y="0" rx="5" ry="5" style="opacity:.4;mix-blend-mode:multiply;fill:#292929"/><path id="path2414" d="m 30.56,29.8 -4.17,-4.16 h 2.26 a 1.035,1.035 0 1 0 0,-2.07 h -4.71 a 1.08,1.08 0 0 0 -1.11,1 v 0 c 0,0 0,0 0,0.06 v 4.64 0 a 1.04,1.04 0 1 0 2.08,0 v -2.19 l 4.19,4.19 a 1,1 0 0 0 1.46,0 1,1 0 0 0 0,-1.47 z" style="fill:#fff"/><path id="path2416" d="m 19.17,24.6 a 1.08,1.08 0 0 0 -1.11,-1 h -4.71 a 1.035,1.035 0 1 0 0,2.07 h 2.25 l -4.16,4.13 a 1.039447,1.039447 0 0 0 1.47,1.47 l 4.18,-4.19 v 2.26 a 1.04,1.04 0 1 0 2.08,0 V 24.7 c 0,0 0,0 0,-0.06 a 0.08,0.08 0 0 1 0,-0.04 z" style="fill:#fff"/><path id="path2418" d="m 23.94,20.5 h 4.7 a 1.04,1.04 0 1 0 0,-2.08 h -2.25 l 4.17,-4.16 a 1,1 0 0 0 0,-1.47 1,1 0 0 0 -1.46,0 L 24.91,17 v -2.28 a 1.04,1.04 0 1 0 -2.08,0 v 4.64 a 0.43,0.43 0 0 0 0,0.05 v 0.05 a 1.09,1.09 0 0 0 1.11,1.04 z" style="fill:#fff"/><path id="path2420" d="m 18.13,13.62 a 1.08,1.08 0 0 0 -1,1.09 V 17 l -4.18,-4.19 a 1,1 0 0 0 -1.47,0 1,1 0 0 0 0,1.46 l 4.16,4.17 h -2.29 a 1.04,1.04 0 1 0 0,2.08 h 4.71 a 1.09,1.09 0 0 0 1.11,-1 c 0,0 0,0 0,-0.06 v -4.75 a 1.07,1.07 0 0 0 -1.04,-1.09 z" style="fill:#fff"/></g></g></g></g></g><g id="g2448" transform="translate(394.5,1091)"><g id="g2446" transform="scale(1.5)"><path id="path2432" d="m 8.5,8.5 v -4 a 4,4 90 0 1 4,-4 h 4 10 30 4 a 4,4 90 0 1 4,4 v 4 h -4 v -3 h -4 v 10 h 4 v -3 h 4 v 17 h -4 v -3 h -4 v 10 h 4 v -3 h 4 v 4 a 4,4 90 0 1 -4,4 h -4 -30 -10 -4 a 4,4 90 0 1 -4,-4 v -4 -21 -1 h -6 v 3 h -2 v -8 h 2 v 3 h 6 z" style="fill:#ff6ea1;fill-opacity:1;stroke:#ff2c76;stroke-width:1;stroke-linecap:round;stroke-opacity:1"/><text id="text2436" style="font-size:9px;font-family:sans-serif;text-anchor:end;fill:#282828"><tspan id="tspan2434" x="54" y="23">➗</tspan></text></g></g><g id="g2458" transform="translate(480,1091)"><g id="g2456" transform="scale(1.5)"><path id="path2450" d="m 8.5,0.5 h 60 v 20 h -60 v -8 -1 h -6 v 3 h -2 v -8 h 2 v 3 h 6 v -1 z" style="fill:#ff6ea1;fill-opacity:1;stroke:#ff2c76;stroke-width:1;stroke-linecap:round;stroke-opacity:1"/><text id="text2454" style="font-size:10px;font-family:sans-serif;text-anchor:start;fill:#282828"><tspan id="tspan2452" x="13" y="14">1</tspan></text></g></g><g id="g2468" transform="translate(480,1122.5)"><g id="g2466" transform="scale(1.5)"><path id="path2460" d="m 8.5,0.5 h 60 v 20 h -60 v -8 -1 h -6 v 3 h -2 v -8 h 2 v 3 h 6 v -1 z" style="fill:#ff6ea1;fill-opacity:1;stroke:#ff2c76;stroke-width:1;stroke-linecap:round;stroke-opacity:1"/><text id="text2464" style="font-size:10px;font-family:sans-serif;text-anchor:start;fill:#282828"><tspan id="tspan2462" x="13" y="14">4</tspan></text></g></g><g id="g2478" transform="translate(276,1122.5)"><g id="g2476" transform="scale(1.5)"><path id="path2470" d="m 0.5,8.5 v -4 a 4,4 90 0 1 4,-4 h 4 v 2 h 10 v -2 h 20 4 a 4,4 90 0 1 4,4 v 4 4 4 a 4,4 90 0 1 -4,4 h -4 -20 -1 v 2 h -8 v -2 h -1 -4 a 4,4 90 0 1 -4,-4 v -4 z" style="fill:#c4c4c4;fill-opacity:1;stroke:#a0a0a0;stroke-width:1;stroke-linecap:round;stroke-opacity:1"/><text id="text2474" style="font-size:10px;font-family:sans-serif;text-anchor:end;fill:#282828"><tspan id="tspan2472" x="36" y="14">↓</tspan></text></g></g><g id="g2496" transform="translate(276,1154)"><g id="g2494" transform="scale(1.5)"><path id="path2480" d="m 0.5,8.5 v -4 a 4,4 90 0 1 4,-4 h 4 v 2 h 10 v -2 h 30 4 a 4,4 90 0 1 4,4 v 4 h -4 v -3 h -4 v 10 h 4 v -3 h 4 v 17 h -4 v -3 h -4 v 10 h 4 v -3 h 4 v 4 a 4,4 90 0 1 -4,4 h -4 -30 -1 v 2 h -8 v -2 h -1 -4 a 4,4 90 0 1 -4,-4 v -4 -21 z" style="fill:#7cd622;fill-opacity:1;stroke:#57ad02;stroke-width:1;stroke-linecap:round;stroke-opacity:1"/><text id="text2484" style="font-size:10px;font-family:sans-serif;text-anchor:end;fill:#282828"><tspan id="tspan2482" x="46" y="24">tono</tspan></text><text id="text2488" style="font-size:6.66666651px;font-family:sans-serif;text-anchor:end;fill:#282828"><tspan id="tspan2486" x="46" y="12">nombre</tspan></text><text id="text2492" style="font-size:6.66666651px;font-family:sans-serif;text-anchor:end;fill:#282828"><tspan id="tspan2490" x="46" y="33">octava</tspan></text></g></g><g id="g2506" transform="translate(349.5,1154)"><g id="g2504" transform="scale(1.5)"><path id="path2498" d="m 8.5,0.5 h 60 v 20 h -60 v -8 -1 h -6 v 3 h -2 v -8 h 2 v 3 h 6 v -1 z" style="fill:#7cd622;fill-opacity:1;stroke:#57ad02;stroke-width:1;stroke-linecap:round;stroke-opacity:1"/><text id="text2502" style="font-size:10px;font-family:sans-serif;text-anchor:start;fill:#282828"><tspan id="tspan2500" x="13" y="14">sol</tspan></text></g></g><g id="g2516" transform="translate(349.5,1185.5)"><g id="g2514" transform="scale(1.5)"><path id="path2508" d="m 8.5,0.5 h 60 v 20 h -60 v -8 -1 h -6 v 3 h -2 v -8 h 2 v 3 h 6 v -1 z" style="fill:#ff6ea1;fill-opacity:1;stroke:#ff2c76;stroke-width:1;stroke-linecap:round;stroke-opacity:1"/><text id="text2512" style="font-size:10px;font-family:sans-serif;text-anchor:start;fill:#282828"><tspan id="tspan2510" x="13" y="14">4</tspan></text></g></g></g></g></svg>