<svg xmlns="http://www.w3.org/2000/svg" xmlns:svg="http://www.w3.org/2000/svg" id="svg4556" width="256.5" height="174.5" version="1.1"><metadata id="metadata4562"/><g id="g12406" transform="translate(-1157,-951)"><g id="g4499" transform="translate(1157,951)"><g id="g4497" transform="scale(1.5)"><path id="path4483" d="m 0.5,8.5 v -4 a 4,4 90 0 1 4,-4 h 4 v 2 h 10 v -2 h 53 4 a 4,4 90 0 1 4,4 v 4 h -4 v -3 h -4 v 10 h 4 v -3 h 4 v 17 h -4 v -3 h -4 v 10 h 4 v -3 h 4 v 4 a 4,4 90 0 1 -4,4 h -4 -53 -1 v 2 h -8 v -2 h -1 -4 a 4,4 90 0 1 -4,-4 v -4 -21 z" style="fill:#ffbf00;fill-opacity:1;stroke:#daaf30;stroke-width:1;stroke-linecap:round;stroke-opacity:1"/><text id="text4487" style="font-size:10px;font-family:sans-serif;text-anchor:end;fill:#282828"><tspan id="tspan4485" x="69" y="24">guardar en</tspan></text><text id="text4491" style="font-size:6.66666651px;font-family:sans-serif;text-anchor:end;fill:#282828"><tspan id="tspan4489" x="69" y="12">nombre</tspan></text><text id="text4495" style="font-size:6.66666651px;font-family:sans-serif;text-anchor:end;fill:#282828"><tspan id="tspan4493" x="69" y="33">valor</tspan></text></g></g><g id="g4509" transform="translate(1265,951)"><g id="g4507" transform="scale(1.5)"><path id="path4501" d="m 8.5,0.5 h 90 v 20 h -90 v -8 -1 h -6 v 3 h -2 v -8 h 2 v 3 h 6 v -1 z" style="fill:#ff664b;fill-opacity:1;stroke:#ea4326;stroke-width:1;stroke-linecap:round;stroke-opacity:1"/><text id="text4505" style="font-size:10px;font-family:sans-serif;text-anchor:start;fill:#282828"><tspan id="tspan4503" x="13" y="14">caja</tspan></text></g></g><g id="g4519" transform="translate(1265,983)"><g id="g4517" transform="scale(1.5)"><path id="path4511" d="m 8.5,0.5 h 60 v 20 h -60 v -8 -1 h -6 v 3 h -2 v -8 h 2 v 3 h 6 v -1 z" style="fill:#ff6ea1;fill-opacity:1;stroke:#ff2c76;stroke-width:1;stroke-linecap:round;stroke-opacity:1"/><text id="text4515" style="font-size:10px;font-family:sans-serif;text-anchor:start;fill:#282828"><tspan id="tspan4513" x="13" y="14">4</tspan></text></g></g></g><g id="g4529" transform="translate(0,85)"><g id="g4527" transform="scale(1.5)"><path style="fill:#ffbf00;fill-opacity:1;stroke:#daaf30;stroke-width:1;stroke-linecap:round;stroke-opacity:1" id="path4521" d="m 8.5,0.5 h 90 v 20 h -90 v -8 -1 h -6 v 3 h -2 v -8 h 2 v 3 h 6 v -1 z"/><text style="font-size:10px;font-family:sans-serif;text-anchor:start;fill:#282828" id="text4525"><tspan id="tspan4523" x="13" y="14">caja</tspan></text></g></g><g id="g12420" transform="translate(-1173,-951)"><g id="g4543" transform="translate(1173,1091)"><g id="g4541" transform="scale(1.5)"><path id="path4531" d="m 0.5,8.5 v -4 a 4,4 90 0 1 4,-4 h 4 v 2 h 10 v -2 h 49 4 a 4,4 90 0 1 4,4 v 4 h -4 v -3 h -4 v 10 h 4 v -3 h 4 v 4 a 4,4 90 0 1 -4,4 h -4 -49 -1 v 2 h -8 v -2 h -1 -4 a 4,4 90 0 1 -4,-4 v -4 z" style="fill:#ffbf00;fill-opacity:1;stroke:#daaf30;stroke-width:1;stroke-linecap:round;stroke-opacity:1"/><text id="text4535" style="font-size:10px;font-family:sans-serif;text-anchor:end;fill:#282828"><tspan id="tspan4533" x="65" y="14">sumar 1 a</tspan></text></g></g><g id="g4554" transform="translate(1275,1091)"><g id="g4551" transform="scale(1.5)"><path id="path4545" d="m 8.5,0.5 h 90 v 20 h -90 v -8 -1 h -6 v 3 h -2 v -8 h 2 v 3 h 6 v -1 z" style="fill:#ffbf00;fill-opacity:1;stroke:#daaf30;stroke-width:1;stroke-linecap:round;stroke-opacity:1"/><text id="text4549" style="font-size:10px;font-family:sans-serif;text-anchor:start;fill:#282828"><tspan id="tspan4547" x="13" y="14">caja</tspan></text></g></g></g></svg>