<svg xmlns="http://www.w3.org/2000/svg" xmlns:svg="http://www.w3.org/2000/svg" id="svg3045" width="335.5" height="223.5" version="1.1" viewBox="0 0 88.768 59.134"><metadata id="metadata3042"/><g id="layer1" transform="translate(-368.80082,-243.81875)"><g id="g1518" transform="matrix(0.26458333,0,0,0.26458333,368.80082,243.81875)"><g id="g1516" transform="scale(1.5)"><path style="fill:#3edcdd;fill-opacity:1;stroke:#1dbcbd;stroke-width:1;stroke-linecap:round;stroke-opacity:1" id="path1506" d="m 0.5,8.5 v -4 a 4,4 90 0 1 4,-4 h 4 v 2 h 10 v -2 h 9 30.576172 4 a 4,4 90 0 1 4,4 v 4 h -4 v -3 h -4 v 10 h 4 v -3 h 4 v 4 a 4,4 90 0 1 -4,4 h -4 H 27.5 h -1 v 2 h -8 v -2 h -1 -4 a 5,5 90 0 0 -5,5 v 4 4 84 4 a 5,5 90 0 0 5,5 h 4 v 2 h 10 v -2 h 8 v 6 6 4 a 4,4 90 0 1 -4,4 h -4 -9 -1 v 2 h -8 v -2 h -1 -4 a 4,4 90 0 1 -4,-4 v -4 z"/><text style="font-size:10px;font-family:sans-serif;text-anchor:start;fill:#282828" id="text1510"><tspan id="tspan1508" x="5" y="15">distortion</tspan></text></g></g><g id="g1528" transform="matrix(0.26458333,0,0,0.26458333,392.08415,243.81875)"><g id="g1526" transform="scale(1.5)"><path style="fill:#ff6ea1;fill-opacity:1;stroke:#ff2c76;stroke-width:1;stroke-linecap:round;stroke-opacity:1" id="path1520" d="m 8.5,0.5 h 60 v 20 h -60 v -8 -1 h -6 v 3 h -2 v -8 h 2 v 3 h 6 v -1 z"/><text style="font-size:10px;font-family:sans-serif;text-anchor:start;fill:#282828" id="text1524"><tspan id="tspan1522" x="13" y="14">40</tspan></text></g></g><g id="g2042" transform="matrix(0.26458333,0,0,0.26458333,191.2654,56.75833)"><g id="g2022" transform="translate(685,739)"><g id="g2020" transform="scale(1.5)"><path style="fill:#fe994f;fill-opacity:1;stroke:#e86b0e;stroke-width:1;stroke-linecap:round;stroke-opacity:1" id="path2010" d="m 0.5,8.5 v -4 a 4,4 90 0 1 4,-4 h 4 v 2 h 10 v -2 h 9 60 4 a 4,4 90 0 1 4,4 v 4 h -4 v -3 h -4 v 10 h 4 v -3 h 4 v 4 a 4,4 90 0 1 -4,4 h -4 -60 -1 v 2 h -8 v -2 h -1 -4 a 5,5 90 0 0 -5,5 v 4 4 42 4 a 5,5 90 0 0 5,5 h 4 v 2 h 10 v -2 h 8 v 6 6 4 a 4,4 90 0 1 -4,4 h -4 -9 -1 v 2 h -8 v -2 h -1 -4 a 4,4 90 0 1 -4,-4 v -4 z"/><text style="font-size:10px;font-family:sans-serif;text-anchor:start;fill:#282828" id="text2014"><tspan id="tspan2012" x="20" y="15">note</tspan></text><text style="font-size:6.66666651px;font-family:sans-serif;text-anchor:end;fill:#282828" id="text2018"><tspan id="tspan2016" x="85" y="12">value</tspan></text></g></g><g id="g2040" transform="matrix(0.5,0,0,0.5,685,743)"><g style="isolation:isolate" id="g2038"><g id="g2036" data-name="レイヤー 2"><g id="g2034"><rect style="opacity:.4;mix-blend-mode:multiply;fill:#292929" id="rect2024" width="42" height="42" x="0" y="0" rx="5" ry="5"/><path style="fill:#fff" id="path2026" d="m 30.56,29.8 -4.17,-4.16 h 2.26 a 1.035,1.035 0 1 0 0,-2.07 h -4.71 a 1.08,1.08 0 0 0 -1.11,1 v 0 c 0,0 0,0 0,0.06 v 4.64 0 a 1.04,1.04 0 1 0 2.08,0 v -2.19 l 4.19,4.19 a 1,1 0 0 0 1.46,0 1,1 0 0 0 0,-1.47 z"/><path style="fill:#fff" id="path2028" d="m 19.17,24.6 a 1.08,1.08 0 0 0 -1.11,-1 h -4.71 a 1.035,1.035 0 1 0 0,2.07 h 2.25 l -4.16,4.13 a 1.039447,1.039447 0 0 0 1.47,1.47 l 4.18,-4.19 v 2.26 a 1.04,1.04 0 1 0 2.08,0 V 24.7 c 0,0 0,0 0,-0.06 a 0.08,0.08 0 0 1 0,-0.04 z"/><path style="fill:#fff" id="path2030" d="m 23.94,20.5 h 4.7 a 1.04,1.04 0 1 0 0,-2.08 h -2.25 l 4.17,-4.16 a 1,1 0 0 0 0,-1.47 1,1 0 0 0 -1.46,0 L 24.91,17 v -2.28 a 1.04,1.04 0 1 0 -2.08,0 v 4.64 a 0.43,0.43 0 0 0 0,0.05 v 0.05 a 1.09,1.09 0 0 0 1.11,1.04 z"/><path style="fill:#fff" id="path2032" d="m 18.13,13.62 a 1.08,1.08 0 0 0 -1,1.09 V 17 l -4.18,-4.19 a 1,1 0 0 0 -1.47,0 1,1 0 0 0 0,1.46 l 4.16,4.17 h -2.29 a 1.04,1.04 0 1 0 0,2.08 h 4.71 a 1.09,1.09 0 0 0 1.11,-1 c 0,0 0,0 0,-0.06 v -4.75 a 1.07,1.07 0 0 0 -1.04,-1.09 z"/></g></g></g></g></g><g id="g2060" transform="matrix(0.26458333,0,0,0.26458333,407.42999,252.28542)"><g id="g2058" transform="scale(1.5)"><path style="fill:#ff6ea1;fill-opacity:1;stroke:#ff2c76;stroke-width:1;stroke-linecap:round;stroke-opacity:1" id="path2044" d="m 8.5,8.5 v -4 a 4,4 90 0 1 4,-4 h 4 10 30 4 a 4,4 90 0 1 4,4 v 4 h -4 v -3 h -4 v 10 h 4 v -3 h 4 v 17 h -4 v -3 h -4 v 10 h 4 v -3 h 4 v 4 a 4,4 90 0 1 -4,4 h -4 -30 -10 -4 a 4,4 90 0 1 -4,-4 v -4 -21 -1 h -6 v 3 h -2 v -8 h 2 v 3 h 6 z"/><text style="font-size:9px;font-family:sans-serif;text-anchor:end;fill:#282828" id="text2048"><tspan id="tspan2046" x="54" y="23">➗</tspan></text></g></g><g id="g2070" transform="matrix(0.26458333,0,0,0.26458333,430.18415,252.28542)"><g id="g2068" transform="scale(1.5)"><path style="fill:#ff6ea1;fill-opacity:1;stroke:#ff2c76;stroke-width:1;stroke-linecap:round;stroke-opacity:1" id="path2062" d="m 8.5,0.5 h 60 v 20 h -60 v -8 -1 h -6 v 3 h -2 v -8 h 2 v 3 h 6 v -1 z"/><text style="font-size:10px;font-family:sans-serif;text-anchor:start;fill:#282828" id="text2066"><tspan id="tspan2064" x="13" y="14">1</tspan></text></g></g><g id="g2080" transform="matrix(0.26458333,0,0,0.26458333,430.18415,260.75208)"><g id="g2078" transform="scale(1.5)"><path style="fill:#ff6ea1;fill-opacity:1;stroke:#ff2c76;stroke-width:1;stroke-linecap:round;stroke-opacity:1" id="path2072" d="m 8.5,0.5 h 60 v 20 h -60 v -8 -1 h -6 v 3 h -2 v -8 h 2 v 3 h 6 v -1 z"/><text style="font-size:10px;font-family:sans-serif;text-anchor:start;fill:#282828" id="text2076"><tspan id="tspan2074" x="13" y="14">4</tspan></text></g></g><g id="g2090" transform="matrix(0.26458333,0,0,0.26458333,376.20915,260.75208)"><g id="g2088" transform="scale(1.5)"><path style="fill:#c4c4c4;fill-opacity:1;stroke:#a0a0a0;stroke-width:1;stroke-linecap:round;stroke-opacity:1" id="path2082" d="m 0.5,8.5 v -4 a 4,4 90 0 1 4,-4 h 4 v 2 h 10 v -2 h 20 4 a 4,4 90 0 1 4,4 v 4 4 4 a 4,4 90 0 1 -4,4 h -4 -20 -1 v 2 h -8 v -2 h -1 -4 a 4,4 90 0 1 -4,-4 v -4 z"/><text style="font-size:10px;font-family:sans-serif;text-anchor:end;fill:#282828" id="text2086"><tspan id="tspan2084" x="36" y="14">↓</tspan></text></g></g><g id="g2108" transform="matrix(0.26458333,0,0,0.26458333,376.20915,269.21875)"><g id="g2106" transform="scale(1.5)"><path style="fill:#7cd622;fill-opacity:1;stroke:#57ad02;stroke-width:1;stroke-linecap:round;stroke-opacity:1" id="path2092" d="m 0.5,8.5 v -4 a 4,4 90 0 1 4,-4 h 4 v 2 h 10 v -2 h 30 4 a 4,4 90 0 1 4,4 v 4 h -4 v -3 h -4 v 10 h 4 v -3 h 4 v 17 h -4 v -3 h -4 v 10 h 4 v -3 h 4 v 4 a 4,4 90 0 1 -4,4 h -4 -30 -1 v 2 h -8 v -2 h -1 -4 a 4,4 90 0 1 -4,-4 v -4 -21 z"/><text style="font-size:10px;font-family:sans-serif;text-anchor:end;fill:#282828" id="text2096"><tspan id="tspan2094" x="46" y="24">pitch</tspan></text><text style="font-size:6.66666651px;font-family:sans-serif;text-anchor:end;fill:#282828" id="text2100"><tspan id="tspan2098" x="46" y="12">name</tspan></text><text style="font-size:6.66666651px;font-family:sans-serif;text-anchor:end;fill:#282828" id="text2104"><tspan id="tspan2102" x="46" y="33">octave</tspan></text></g></g><g id="g2118" transform="matrix(0.26458333,0,0,0.26458333,395.78832,269.21875)"><g id="g2116" transform="scale(1.5)"><path style="fill:#7cd622;fill-opacity:1;stroke:#57ad02;stroke-width:1;stroke-linecap:round;stroke-opacity:1" id="path2110" d="m 8.5,0.5 h 60 v 20 h -60 v -8 -1 h -6 v 3 h -2 v -8 h 2 v 3 h 6 v -1 z"/><text style="font-size:10px;font-family:sans-serif;text-anchor:start;fill:#282828" id="text2114"><tspan id="tspan2112" x="13" y="14">sol</tspan></text></g></g><g id="g2128" transform="matrix(0.26458333,0,0,0.26458333,395.78832,277.68542)"><g id="g2126" transform="scale(1.5)"><path style="fill:#ff6ea1;fill-opacity:1;stroke:#ff2c76;stroke-width:1;stroke-linecap:round;stroke-opacity:1" id="path2120" d="m 8.5,0.5 h 60 v 20 h -60 v -8 -1 h -6 v 3 h -2 v -8 h 2 v 3 h 6 v -1 z"/><text style="font-size:10px;font-family:sans-serif;text-anchor:start;fill:#282828" id="text2124"><tspan id="tspan2122" x="13" y="14">4</tspan></text></g></g></g></svg>