<svg xmlns="http://www.w3.org/2000/svg" xmlns:svg="http://www.w3.org/2000/svg" id="svg11666" width="426.753" height="488.043" version="1.1" viewBox="0 0 112.912 129.128"><metadata id="metadata11663"/><g id="layer1" transform="translate(443.75509,36.980841)"><g id="g21160" transform="matrix(0.26458333,0,0,0.26458333,-669.18009,-49.913204)"><g id="g466"><g id="g446" transform="translate(852,109)"><g id="g444" transform="scale(1.5)"><path id="path434" d="m 0.5,14.5 v -4 a 4,4 90 0 1 4,-4 h 4 l 5,-6 5,6 h 9 52 4 a 4,4 90 0 1 4,4 v 4 h -4 v -3 h -4 v 10 h 4 v -3 h 4 v 4 a 4,4 90 0 1 -4,4 h -4 -52 -1 v 2 h -8 v -2 h -1 -4 a 5,5 90 0 0 -5,5 v 4 4 210 4 a 5,5 90 0 0 5,5 h 4 v 2 h 10 v -2 h 8 v 6 6 4 a 4,4 90 0 1 -4,4 h -4 -9 l -5,6 -5,-6 h -4 a 4,4 90 0 1 -4,-4 v -4 z" style="fill:#ffbf00;fill-opacity:1;stroke:#daaf30;stroke-width:1;stroke-linecap:round;stroke-opacity:1"/><text id="text438" style="font-size:10px;font-family:sans-serif;text-anchor:start;fill:#282828"><tspan id="tspan436" x="20" y="22">action</tspan></text></g></g><g id="g464" transform="matrix(0.5,0,0,0.5,852,121)"><g id="g462" style="isolation:isolate"><g id="g460" data-name="レイヤー 2"><g id="g458"><rect id="rect448" width="42" height="42" x="0" y="0" rx="5" ry="5" style="opacity:.4;mix-blend-mode:multiply;fill:#292929"/><path id="path450" d="m 30.56,29.8 -4.17,-4.16 h 2.26 a 1.035,1.035 0 1 0 0,-2.07 h -4.71 a 1.08,1.08 0 0 0 -1.11,1 v 0 c 0,0 0,0 0,0.06 v 4.64 0 a 1.04,1.04 0 1 0 2.08,0 v -2.19 l 4.19,4.19 a 1,1 0 0 0 1.46,0 1,1 0 0 0 0,-1.47 z" style="fill:#fff"/><path id="path452" d="m 19.17,24.6 a 1.08,1.08 0 0 0 -1.11,-1 h -4.71 a 1.035,1.035 0 1 0 0,2.07 h 2.25 l -4.16,4.13 a 1.039447,1.039447 0 0 0 1.47,1.47 l 4.18,-4.19 v 2.26 a 1.04,1.04 0 1 0 2.08,0 V 24.7 c 0,0 0,0 0,-0.06 a 0.08,0.08 0 0 1 0,-0.04 z" style="fill:#fff"/><path id="path454" d="m 23.94,20.5 h 4.7 a 1.04,1.04 0 1 0 0,-2.08 h -2.25 l 4.17,-4.16 a 1,1 0 0 0 0,-1.47 1,1 0 0 0 -1.46,0 L 24.91,17 v -2.28 a 1.04,1.04 0 1 0 -2.08,0 v 4.64 a 0.43,0.43 0 0 0 0,0.05 v 0.05 a 1.09,1.09 0 0 0 1.11,1.04 z" style="fill:#fff"/><path id="path456" d="m 18.13,13.62 a 1.08,1.08 0 0 0 -1,1.09 V 17 l -4.18,-4.19 a 1,1 0 0 0 -1.47,0 1,1 0 0 0 0,1.46 l 4.16,4.17 h -2.29 a 1.04,1.04 0 1 0 0,2.08 h 4.71 a 1.09,1.09 0 0 0 1.11,-1 c 0,0 0,0 0,-0.06 v -4.75 a 1.07,1.07 0 0 0 -1.04,-1.09 z" style="fill:#fff"/></g></g></g></g></g><g id="g476" transform="translate(972,118)"><g id="g474" transform="scale(1.5)"><path id="path468" d="m 8.5,0.5 h 90 v 20 h -90 v -8 -1 h -6 v 3 h -2 v -8 h 2 v 3 h 6 v -1 z" style="fill:#ff6648;fill-opacity:1;stroke:#ea4326;stroke-width:1;stroke-linecap:round;stroke-opacity:1"/><text id="text472" style="font-size:10px;font-family:sans-serif;text-anchor:start;fill:#282828"><tspan id="tspan470" x="13" y="14">action</tspan></text></g></g><g id="g494" transform="translate(865.5,149.5)"><g id="g492" transform="scale(1.5)"><path id="path478" d="m 0.5,8.5 v -4 a 4,4 90 0 1 4,-4 h 4 v 2 h 10 v -2 h 9 15 4 a 4,4 90 0 1 4,4 v 4 9 a 8,8 90 0 0 -8,8 8,8 90 0 0 8,8 v 4 a 4,4 90 0 1 -4,4 h -4 -15 -1 v 2 h -8 v -2 h -1 -4 a 5,5 90 0 0 -5,5 v 4 4 4 a 5,5 90 0 0 5,5 h 4 v 2 h 10 v -2 h 8 15 v 12 4 a 4,4 90 0 1 -4,4 h -4 -15 -1 v 2 h -8 v -2 h -1 -4 a 5,5 90 0 0 -5,5 v 4 4 4 a 5,5 90 0 0 5,5 h 4 v 2 h 10 v -2 h 8 v 6 6 4 a 4,4 90 0 1 -4,4 h -4 -9 -1 v 2 h -8 v -2 h -1 -4 a 4,4 90 0 1 -4,-4 v -4 z" style="fill:#d98a43;fill-opacity:1;stroke:#b7651a;stroke-width:1;stroke-linecap:round;stroke-opacity:1"/><text id="text482" style="font-size:10px;font-family:sans-serif;text-anchor:start;fill:#282828"><tspan id="tspan480" x="5" y="19">if</tspan></text><text id="text486" style="font-size:6.66666651px;font-family:sans-serif;text-anchor:end;fill:#282828"><tspan id="tspan484" x="46" y="38">then</tspan></text><text id="text490" style="font-size:6.66666651px;font-family:sans-serif;text-anchor:end;fill:#282828"><tspan id="tspan488" x="46" y="80">else</tspan></text></g></g><g id="g506" transform="translate(930,149.5)"><g id="g504" transform="scale(1.5)"><g id="g498" transform="translate(0,-16)"><path id="path496" d="m 0.5,41.5 a 7,7 90 0 1 7,-7 h 1 v -10 a 8,8 90 0 1 8,-8 h 34 v 8 h -4 v -3 h -4 v 10 h 4 v -3 h 4 v 17 h -4 v -3 h -4 v 10 h 4 v -3 h 4 v 8 h -30 -12 v -8 -1 h -1 a 7,7 90 0 1 -7,-7 z" style="fill:#d97df5;fill-opacity:1;stroke:#b653d3;stroke-width:1;stroke-linecap:round;stroke-opacity:1"/></g><text id="text502" style="font-size:14px;font-family:sans-serif;text-anchor:end;fill:#282828"><tspan id="tspan500" x="38" y="26">=</tspan></text></g></g><g id="g516" transform="translate(994.5,149.5)"><g id="g514" transform="scale(1.5)"><path id="path508" d="m 8.5,0.5 h 86.704102 v 20 H 8.5 v -8 -1 h -6 v 3 h -2 v -8 h 2 v 3 h 6 v -1 z" style="fill:#fe994f;fill-opacity:1;stroke:#e86b0e;stroke-width:1;stroke-linecap:round;stroke-opacity:1"/><text id="text512" style="font-size:10px;font-family:sans-serif;text-anchor:start;fill:#282828"><tspan id="tspan510" x="13" y="14">beat count</tspan></text></g></g><g id="g526" transform="translate(994.5,181)"><g id="g524" transform="scale(1.5)"><path id="path518" d="m 8.5,0.5 h 60 v 20 h -60 v -8 -1 h -6 v 3 h -2 v -8 h 2 v 3 h 6 v -1 z" style="fill:#ff6ea1;fill-opacity:1;stroke:#ff2c76;stroke-width:1;stroke-linecap:round;stroke-opacity:1"/><text id="text522" style="font-size:10px;font-family:sans-serif;text-anchor:start;fill:#282828"><tspan id="tspan520" x="13" y="14">1</tspan></text></g></g><g id="g540" transform="translate(879,212.5)"><g id="g538" transform="scale(1.5)"><path id="path528" d="m 0.5,8.5 v -4 a 4,4 90 0 1 4,-4 h 4 v 2 h 10 v -2 h 37.792969 4 a 4,4 90 0 1 4,4 v 4 h -4 v -3 h -4 v 10 h 4 v -3 h 4 v 4 a 4,4 90 0 1 -4,4 h -4 H 18.5 h -1 v 2 h -8 v -2 h -1 -4 a 4,4 90 0 1 -4,-4 v -4 z" style="fill:#92a9ff;fill-opacity:1;stroke:#5370dc;stroke-width:1;stroke-linecap:round;stroke-opacity:1"/><text id="text532" style="font-size:10px;font-family:sans-serif;text-anchor:end;fill:#282828"><tspan id="tspan530" x="54" y="14">set color</tspan></text></g></g><g id="g554" transform="translate(964.18945,212.5)"><g id="g552" transform="scale(1.5)"><path id="path542" d="m 8.5,8.5 v -4 a 4,4 90 0 1 4,-4 h 4 10 56.708984 4 a 4,4 90 0 1 4,4 v 4 h -4 v -3 h -4 v 10 h 4 v -3 h 4 v 4 a 4,4 90 0 1 -4,4 h -4 H 26.5 h -10 -4 a 4,4 90 0 1 -4,-4 v -4 -1 h -6 v 3 h -2 v -8 h 2 v 3 h 6 z" style="fill:#fe994f;fill-opacity:1;stroke:#e86b0e;stroke-width:1;stroke-linecap:round;stroke-opacity:1"/><text id="text546" style="font-size:10px;font-family:sans-serif;text-anchor:end;fill:#282828"><tspan id="tspan544" x="81" y="13">notes played</tspan></text></g></g><g id="g572" transform="translate(1089.7529,212.5)"><g id="g570" transform="scale(1.5)"><path id="path556" d="m 8.5,8.5 v -4 a 4,4 90 0 1 4,-4 h 4 10 30 4 a 4,4 90 0 1 4,4 v 4 h -4 v -3 h -4 v 10 h 4 v -3 h 4 v 17 h -4 v -3 h -4 v 10 h 4 v -3 h 4 v 4 a 4,4 90 0 1 -4,4 h -4 -30 -10 -4 a 4,4 90 0 1 -4,-4 v -4 -21 -1 h -6 v 3 h -2 v -8 h 2 v 3 h 6 z" style="fill:#ff6ea1;fill-opacity:1;stroke:#ff2c76;stroke-width:1;stroke-linecap:round;stroke-opacity:1"/><text id="text560" style="font-size:9px;font-family:sans-serif;text-anchor:end;fill:#282828"><tspan id="tspan558" x="54" y="23">➗</tspan></text></g></g><g id="g582" transform="translate(1175.2529,212.5)"><g id="g580" transform="scale(1.5)"><path id="path574" d="m 8.5,0.5 h 60 v 20 h -60 v -8 -1 h -6 v 3 h -2 v -8 h 2 v 3 h 6 v -1 z" style="fill:#ff6ea1;fill-opacity:1;stroke:#ff2c76;stroke-width:1;stroke-linecap:round;stroke-opacity:1"/><text id="text578" style="font-size:10px;font-family:sans-serif;text-anchor:start;fill:#282828"><tspan id="tspan576" x="13" y="14">1</tspan></text></g></g><g id="g592" transform="translate(1175.2529,244)"><g id="g590" transform="scale(1.5)"><path id="path584" d="m 8.5,0.5 h 60 v 20 h -60 v -8 -1 h -6 v 3 h -2 v -8 h 2 v 3 h 6 v -1 z" style="fill:#ff6ea1;fill-opacity:1;stroke:#ff2c76;stroke-width:1;stroke-linecap:round;stroke-opacity:1"/><text id="text588" style="font-size:10px;font-family:sans-serif;text-anchor:start;fill:#282828"><tspan id="tspan586" x="13" y="14">4</tspan></text></g></g><g id="g606" transform="translate(879,275.5)"><g id="g604" transform="scale(1.5)"><path id="path594" d="m 0.5,8.5 v -4 a 4,4 90 0 1 4,-4 h 4 v 2 h 10 v -2 h 43.364258 4 a 4,4 90 0 1 4,4 v 4 h -4 v -3 h -4 v 10 h 4 v -3 h 4 v 4 a 4,4 90 0 1 -4,4 h -4 H 18.5 h -1 v 2 h -8 v -2 h -1 -4 a 4,4 90 0 1 -4,-4 v -4 z" style="fill:#92a9ff;fill-opacity:1;stroke:#5370dc;stroke-width:1;stroke-linecap:round;stroke-opacity:1"/><text id="text598" style="font-size:10px;font-family:sans-serif;text-anchor:end;fill:#282828"><tspan id="tspan596" x="60" y="14">set shade</tspan></text></g></g><g id="g616" transform="translate(972.54639,275.5)"><g id="g614" transform="scale(1.5)"><path id="path608" d="m 8.5,0.5 h 60 v 20 h -60 v -8 -1 h -6 v 3 h -2 v -8 h 2 v 3 h 6 v -1 z" style="fill:#ff6ea1;fill-opacity:1;stroke:#ff2c76;stroke-width:1;stroke-linecap:round;stroke-opacity:1"/><text id="text612" style="font-size:10px;font-family:sans-serif;text-anchor:start;fill:#282828"><tspan id="tspan610" x="13" y="14">0</tspan></text></g></g><g id="g630" transform="translate(865.5,338.5)"><g id="g628" transform="scale(1.5)"><path id="path618" d="m 0.5,8.5 v -4 a 4,4 90 0 1 4,-4 h 4 v 2 h 10 v -2 h 33.344727 4 a 4,4 90 0 1 4,4 v 4 h -4 v -3 h -4 v 10 h 4 v -3 h 4 v 4 a 4,4 90 0 1 -4,4 h -4 H 18.5 h -1 v 2 h -8 v -2 h -1 -4 a 4,4 90 0 1 -4,-4 v -4 z" style="fill:#92a9ff;fill-opacity:1;stroke:#5370dc;stroke-width:1;stroke-linecap:round;stroke-opacity:1"/><text id="text622" style="font-size:10px;font-family:sans-serif;text-anchor:end;fill:#282828"><tspan id="tspan620" x="50" y="14">forward</tspan></text></g></g><g id="g648" transform="translate(944.01709,338.5)"><g id="g646" transform="scale(1.5)"><path id="path632" d="m 8.5,8.5 v -4 a 4,4 90 0 1 4,-4 h 4 10 30 4 a 4,4 90 0 1 4,4 v 4 h -4 v -3 h -4 v 10 h 4 v -3 h 4 v 17 h -4 v -3 h -4 v 10 h 4 v -3 h 4 v 4 a 4,4 90 0 1 -4,4 h -4 -30 -10 -4 a 4,4 90 0 1 -4,-4 v -4 -21 -1 h -6 v 3 h -2 v -8 h 2 v 3 h 6 z" style="fill:#ff6ea1;fill-opacity:1;stroke:#ff2c76;stroke-width:1;stroke-linecap:round;stroke-opacity:1"/><text id="text636" style="font-size:14px;font-family:sans-serif;text-anchor:end;fill:#282828"><tspan id="tspan634" x="54" y="24">×</tspan></text></g></g><g id="g658" transform="translate(1029.5171,338.5)"><g id="g656" transform="scale(1.5)"><path id="path650" d="m 8.5,0.5 h 107.27051 v 20 H 8.5 v -8 -1 h -6 v 3 h -2 v -8 h 2 v 3 h 6 v -1 z" style="fill:#7cd622;fill-opacity:1;stroke:#57ad02;stroke-width:1;stroke-linecap:round;stroke-opacity:1"/><text id="text654" style="font-size:10px;font-family:sans-serif;text-anchor:start;fill:#282828"><tspan id="tspan652" x="13" y="14">change in pitch</tspan></text></g></g><g id="g668" transform="translate(1029.5171,370)"><g id="g666" transform="scale(1.5)"><path id="path660" d="m 8.5,0.5 h 60 v 20 h -60 v -8 -1 h -6 v 3 h -2 v -8 h 2 v 3 h 6 v -1 z" style="fill:#ff6ea1;fill-opacity:1;stroke:#ff2c76;stroke-width:1;stroke-linecap:round;stroke-opacity:1"/><text id="text664" style="font-size:10px;font-family:sans-serif;text-anchor:start;fill:#282828"><tspan id="tspan662" x="13" y="14">10</tspan></text></g></g><g id="g678" transform="translate(865.5,370)"><g id="g676" transform="scale(1.5)"><path id="path670" d="m 0.5,8.5 v -4 a 4,4 90 0 1 4,-4 h 4 v 2 h 10 v -2 h 20 4 a 4,4 90 0 1 4,4 v 4 4 4 a 4,4 90 0 1 -4,4 h -4 -20 -1 v 2 h -8 v -2 h -1 -4 a 4,4 90 0 1 -4,-4 v -4 z" style="fill:#c4c4c4;fill-opacity:1;stroke:#a0a0a0;stroke-width:1;stroke-linecap:round;stroke-opacity:1"/><text id="text674" style="font-size:10px;font-family:sans-serif;text-anchor:end;fill:#282828"><tspan id="tspan672" x="36" y="14">↓</tspan></text></g></g><g id="g696" transform="translate(865.5,401.5)"><g id="g694" transform="scale(1.5)"><path id="path680" d="m 0.5,8.5 v -4 a 4,4 90 0 1 4,-4 h 4 v 2 h 10 v -2 h 36.113281 4 a 4,4 90 0 1 4,4 v 4 h -4 v -3 h -4 v 10 h 4 v -3 h 4 v 21 17 h -4 v -3 h -4 v 10 h 4 v -3 h 4 v 4 a 4,4 90 0 1 -4,4 h -4 H 18.5 h -1 v 2 h -8 v -2 h -1 -4 a 4,4 90 0 1 -4,-4 v -4 -21 -21 z" style="fill:#92a9ff;fill-opacity:1;stroke:#5370dc;stroke-width:1;stroke-linecap:round;stroke-opacity:1"/><text id="text684" style="font-size:10px;font-family:sans-serif;text-anchor:end;fill:#282828"><tspan id="tspan682" x="52" y="35">scroll xy</tspan></text><text id="text688" style="font-size:6.66666651px;font-family:sans-serif;text-anchor:end;fill:#282828"><tspan id="tspan686" x="52" y="12">x</tspan></text><text id="text692" style="font-size:6.66666651px;font-family:sans-serif;text-anchor:end;fill:#282828"><tspan id="tspan690" x="52" y="54">y</tspan></text></g></g><g id="g714" transform="translate(948.16992,401.5)"><g id="g712" transform="scale(1.5)"><path id="path698" d="m 8.5,8.5 v -4 a 4,4 90 0 1 4,-4 h 4 10 30 4 a 4,4 90 0 1 4,4 v 4 h -4 v -3 h -4 v 10 h 4 v -3 h 4 v 17 h -4 v -3 h -4 v 10 h 4 v -3 h 4 v 4 a 4,4 90 0 1 -4,4 h -4 -30 -10 -4 a 4,4 90 0 1 -4,-4 v -4 -21 -1 h -6 v 3 h -2 v -8 h 2 v 3 h 6 z" style="fill:#ff6ea1;fill-opacity:1;stroke:#ff2c76;stroke-width:1;stroke-linecap:round;stroke-opacity:1"/><text id="text702" style="font-size:14px;font-family:sans-serif;text-anchor:end;fill:#282828"><tspan id="tspan700" x="54" y="24">×</tspan></text></g></g><g id="g724" transform="translate(1033.6699,401.5)"><g id="g722" transform="scale(1.5)"><path id="path716" d="m 8.5,0.5 h 86.147461 v 20 H 8.5 v -8 -1 h -6 v 3 h -2 v -8 h 2 v 3 h 6 v -1 z" style="fill:#fe994f;fill-opacity:1;stroke:#e86b0e;stroke-width:1;stroke-linecap:round;stroke-opacity:1"/><text id="text720" style="font-size:10px;font-family:sans-serif;text-anchor:start;fill:#282828"><tspan id="tspan718" x="13" y="14">note value</tspan></text></g></g><g id="g734" transform="translate(1033.6699,433)"><g id="g732" transform="scale(1.5)"><path id="path726" d="m 8.5,0.5 h 60 v 20 h -60 v -8 -1 h -6 v 3 h -2 v -8 h 2 v 3 h 6 v -1 z" style="fill:#ff6ea1;fill-opacity:1;stroke:#ff2c76;stroke-width:1;stroke-linecap:round;stroke-opacity:1"/><text id="text730" style="font-size:10px;font-family:sans-serif;text-anchor:start;fill:#282828"><tspan id="tspan728" x="13" y="14">-25</tspan></text></g></g><g id="g744" transform="translate(948.16992,464.5)"><g id="g742" transform="scale(1.5)"><path id="path736" d="m 8.5,0.5 h 60 v 20 h -60 v -8 -1 h -6 v 3 h -2 v -8 h 2 v 3 h 6 v -1 z" style="fill:#ff6ea1;fill-opacity:1;stroke:#ff2c76;stroke-width:1;stroke-linecap:round;stroke-opacity:1"/><text id="text740" style="font-size:10px;font-family:sans-serif;text-anchor:start;fill:#282828"><tspan id="tspan738" x="13" y="14">0</tspan></text></g></g></g><g id="g10916" transform="matrix(0.26458333,0,0,0.26458333,-673.678,-56.295424)"><g id="g1108" transform="translate(869,73)"><g id="g1106" transform="scale(1.5)"><path id="path1096" d="m 0.5,8.5 v -4 a 4,4 90 0 1 4,-4 h 4 v 2 h 10 v -2 h 74.49707 4 a 4,4 90 0 1 4,4 v 4 h -4 v -3 h -4 v 10 h 4 v -3 h 4 v 4 a 4,4 90 0 1 -4,4 h -4 H 18.5 h -1 v 2 h -8 v -2 h -1 -4 a 4,4 90 0 1 -4,-4 v -4 z" style="fill:#fe994f;fill-opacity:1;stroke:#e86b0e;stroke-width:1;stroke-linecap:round;stroke-opacity:1"/><text id="text1100" style="font-size:10px;font-family:sans-serif;text-anchor:end;fill:#282828"><tspan id="tspan1098" x="91" y="14">on every note do</tspan></text></g></g><g id="g1118" transform="translate(1009.2456,73)"><g id="g1116" transform="scale(1.5)"><path id="path1110" d="m 8.5,0.5 h 90 v 20 h -90 v -8 -1 h -6 v 3 h -2 v -8 h 2 v 3 h 6 v -1 z" style="fill:#ff6648;fill-opacity:1;stroke:#ea4326;stroke-width:1;stroke-linecap:round;stroke-opacity:1"/><text id="text1114" style="font-size:10px;font-family:sans-serif;text-anchor:start;fill:#282828"><tspan id="tspan1112" x="13" y="14">action</tspan></text></g></g></g></g></svg>