<svg xmlns="http://www.w3.org/2000/svg" xmlns:svg="http://www.w3.org/2000/svg" id="svg86" width="321.5" height="223.5" version="1.1"><metadata id="metadata92"/><g id="g84" class="currentLayer" transform="matrix(1,0,0,-1,-4.666655,226.83332)"><title id="title3">Layer 1</title><g id="g82"><g id="svg_15"><g id="svg_16" transform="matrix(1.5,0,0,1.5,424,218)"><path id="svg_17" d="m -269.72223,-91.94445 v -4 a 4,4 90 0 1 4,-4 h 4 v 2 h 10 v -2 h 30 4 a 4,4 90 0 1 4,4 v 4 h -4 v -3 h -4 v 10 h 4 v -3 h 4 v 17 h -4 v -3 h -4 v 9.999996 h 4 v -2.999996 h 4 v 3.999996 a 4,4 90 0 1 -4,4 h -4 -30 -1 v 2 h -8 v -2 h -1 -4 a 4,4 90 0 1 -4,-4 v -3.999996 -21 z" style="fill:#77c428;fill-opacity:1;stroke:#57ad02;stroke-width:1;stroke-linecap:round;stroke-opacity:1"/><text id="svg_18" x="-270.222" y="-100.444" style="font-size:10px;font-family:sans-serif;text-anchor:end;fill:#282828"><tspan id="svg_19" x="-224.222" y="-76.444">pitch</tspan></text><text id="svg_20" x="-270.222" y="-100.444" style="font-size:6.66666651px;font-family:sans-serif;text-anchor:end;fill:#282828"><tspan id="svg_21" x="-224.222" y="-88.444">name</tspan></text><text id="svg_22" x="-270.222" y="-100.444" style="font-size:6.66666651px;font-family:sans-serif;text-anchor:end;fill:#282828"><tspan id="svg_23" x="-224.222" y="-67.444">octave</tspan></text></g></g><g id="svg_24"><g id="svg_25" transform="matrix(1.5,0,0,1.5,498,218)"><path id="svg_26" d="m -261.72223,-99.94445 h 60 v 20 h -60 v -8 -1 h -6 v 3 h -2 v -8 h 2 v 3 h 6 v -1 z" style="fill:#77c428;fill-opacity:1;stroke:#57ad02;stroke-width:1;stroke-linecap:round;stroke-opacity:1"/><text id="svg_27" x="-270.222" y="-100.444" style="font-size:10px;font-family:sans-serif;text-anchor:start;fill:#282828"><tspan id="svg_28" x="-257.222" y="-86.444">la</tspan></text></g></g><g id="svg_29"><g id="svg_30" transform="matrix(1.5,0,0,1.5,498,250)"><path id="svg_31" d="m -261.72223,-99.94445 h 60 v 20 h -60 v -8 -1 h -6 v 3 h -2 v -8 h 2 v 3 h 6 v -1 z" style="fill:#ff5293;fill-opacity:1;stroke:#ff2c76;stroke-width:1;stroke-linecap:round;stroke-opacity:1"/><text id="svg_32" x="-270.222" y="-100.444" style="font-size:10px;font-family:sans-serif;text-anchor:start;fill:#282828"><tspan id="svg_33" x="-257.222" y="-86.444">4</tspan></text></g></g><g id="svg_34"><g id="svg_35"><g id="svg_36" transform="matrix(1.5,0,0,1.5,410,154)"><path id="svg_37" d="m -269.72223,-91.94445 v -4 a 4,4 90 0 1 4,-4 h 4 v 2 h 10 v -2 h 9 60 4 a 4,4 90 0 1 4,4 v 4 h -4 v -3 h -4 v 10 h 4 v -3 h 4 v 4 a 4,4 90 0 1 -4,4 h -4 -60 -1 v 2 h -8 v -2 h -1 -4 a 5,5 90 0 0 -5,5 v 4 4 83.999996 4 a 5,5 90 0 0 5,5 h 4 v 2 h 10 v -2 h 8 v 6 6 4 a 4,4 90 0 1 -4,4 h -4 -9 -1 v 2 h -8 v -2 h -1 -4 a 4,4 90 0 1 -4,-4 v -4 z" style="fill:#ff8b2d;fill-opacity:1;stroke:#e86b0e;stroke-width:1;stroke-linecap:round;stroke-opacity:1"/><text id="svg_38" x="-270.222" y="-100.444" style="font-size:10px;font-family:sans-serif;text-anchor:start;fill:#282828"><tspan id="svg_39" x="-250.222" y="-85.444">note</tspan></text><text id="svg_40" x="-270.222" y="-100.444" style="font-size:6.66666651px;font-family:sans-serif;text-anchor:end;fill:#282828"><tspan id="svg_41" x="-185.222" y="-88.444">value</tspan></text></g></g><g id="svg_42" transform="matrix(0.5,0,0,0.5,410,158)"><g id="svg_43" style="isolation:isolate"><g id="レイヤー_2" data-name="レイヤー 2"><g id="Icon"><rect id="svg_44" width="42" height="42" x="-810.667" y="-301.333" rx="5" ry="5" style="opacity:.4;mix-blend-mode:multiply;fill:#292929"/><path id="svg_45" d="m -780.10671,-271.53336 -4.17,-4.16 h 2.26 a 1.035,1.035 0 1 0 0,-2.07 h -4.70999 a 1.08,1.08 0 0 0 -1.11,1 v 0 c 0,0 0,0 0,0.06 v 4.64 0 a 1.04,1.04 0 1 0 2.08,0 v -2.19 l 4.19,4.19 a 1,1 0 0 0 1.46,0 1,1 0 0 0 -10e-6,-1.47 z" style="fill:#fff"/><path id="svg_46" d="m -791.49672,-276.73334 a 1.08,1.08 0 0 0 -1.11,-1 h -4.71001 a 1.035,1.035 0 1 0 0,2.07 h 2.25 l -4.15997,4.12998 a 1.039447,1.039447 0 0 0 1.47,1.47 l 4.18,-4.19 v 2.26 a 1.04,1.04 0 1 0 2.07999,0 v -4.63997 c 0,0 0,0 0,-0.06 a 0.08,0.08 0 0 1 -10e-6,-0.04 z" style="fill:#fff"/><path id="svg_47" d="m -786.7267,-280.83334 h 4.69999 a 1.04,1.04 0 1 0 0,-2.08 h -2.24998 l 4.17,-4.16 a 1,1 0 0 0 0,-1.47 1,1 0 0 0 -1.46,0 l -4.19004,4.21 v -2.28 a 1.04,1.04 0 1 0 -2.08,0 v 4.64 a 0.43000001,0.43000001 0 0 0 0,0.05 v 0.05 a 1.09,1.09 0 0 0 1.11003,1.04 z" style="fill:#fff"/><path id="svg_48" d="m -792.5367,-287.71335 a 1.08,1.08 0 0 0 -1,1.09 v 2.29001 l -4.18,-4.19 a 1,1 0 0 0 -1.47,0 1,1 0 0 0 0,1.46 l 4.16,4.17 h -2.29003 a 1.04,1.04 0 1 0 0,2.08 h 4.71 a 1.09,1.09 0 0 0 1.11,-1 c 0,0 0,0 0,-0.06 v -4.75001 a 1.0700001,1.0700001 0 0 0 -1.03997,-1.09 z" style="fill:#fff"/></g></g></g></g></g><g id="svg_49"><g id="svg_50" transform="matrix(1.5,0,0,1.5,542,154)"><path id="svg_51" d="m -261.72223,-91.94445 v -4 a 4,4 90 0 1 4,-4 h 4 10 30 4 a 4,4 90 0 1 4,4 v 4 h -4 v -3 h -4 v 10 h 4 v -3 h 4 v 17 h -4 v -3 h -4 v 9.999996 h 4 v -2.999996 h 4 v 3.999996 a 4,4 90 0 1 -4,4 h -4 -30 -10 -4 a 4,4 90 0 1 -4,-4 v -3.999996 -21 -1 h -6 v 3 h -2 v -8 h 2 v 3 h 6 z" style="fill:#ff5293;fill-opacity:1;stroke:#ff2c76;stroke-width:1;stroke-linecap:round;stroke-opacity:1"/><text id="svg_52" x="-270.222" y="-100.444" style="font-size:9px;font-family:sans-serif;text-anchor:end;fill:#282828"><tspan id="svg_53" x="-216.222" y="-77.444">➗</tspan></text></g></g><g id="svg_58"><g id="svg_59" transform="matrix(1.5,0,0,1.5,628,154)"><path id="svg_60" d="m -261.72223,-99.94445 h 60 v 20 h -60 v -8 -1 h -6 v 3 h -2 v -8 h 2 v 3 h 6 v -1 z" style="fill:#ff5293;fill-opacity:1;stroke:#ff2c76;stroke-width:1;stroke-linecap:round;stroke-opacity:1"/><text id="svg_61" x="-270.222" y="-100.444" style="font-size:10px;font-family:sans-serif;text-anchor:start;fill:#282828"><tspan id="svg_62" x="-257.222" y="-86.444">1</tspan></text></g></g><g id="svg_63"><g id="svg_64" transform="matrix(1.5,0,0,1.5,628,186)"><path id="svg_65" d="m -261.72223,-99.94445 h 60 v 20 h -60 v -8 -1 h -6 v 3 h -2 v -8 h 2 v 3 h 6 v -1 z" style="fill:#ff5293;fill-opacity:1;stroke:#ff2c76;stroke-width:1;stroke-linecap:round;stroke-opacity:1"/><text id="svg_66" x="-270.222" y="-100.444" style="font-size:10px;font-family:sans-serif;text-anchor:start;fill:#282828"><tspan id="svg_67" x="-257.222" y="-86.444">4</tspan></text></g></g><g id="svg_68"><g id="svg_69" transform="matrix(1.5,0,0,1.5,424,186)"><path id="svg_70" d="m -269.72223,-91.94445 v -4 a 4,4 90 0 1 4,-4 h 4 v 2 h 10 v -2 h 20 4 a 4,4 90 0 1 4,4 v 4 4 4 a 4,4 90 0 1 -4,4 h -4 -20 -1 v 2 h -8 v -2 h -1 -4 a 4,4 90 0 1 -4,-4 v -4 z" style="fill:#b0b0b0;fill-opacity:1;stroke:#a0a0a0;stroke-width:1;stroke-linecap:round;stroke-opacity:1"/><text id="svg_71" x="-270.222" y="-100.444" style="font-size:10px;font-family:sans-serif;text-anchor:end;fill:#282828"><tspan id="svg_72" x="-234.222" y="-86.444">↓</tspan></text></g></g><g id="svg_73"><g id="svg_74" transform="matrix(1.5,0,0,1.5,424,281)"><path id="svg_75" d="m -269.72223,-91.94445 v -4 a 4,4 90 0 1 4,-4 h 4 v 2 h 10 v -2 h 30 4 a 4,4 90 0 1 4,4 v 4 h -4 v -3 h -4 v 10 h 4 v -3 h 4 v 17 h -4 v -3 h -4 v 9.999996 h 4 v -2.999996 h 4 v 3.999996 a 4,4 90 0 1 -4,4 h -4 -30 -1 v 2 h -8 v -2 h -1 -4 a 4,4 90 0 1 -4,-4 v -3.999996 -21 z" style="fill:#77c428;fill-opacity:1;stroke:#57ad02;stroke-width:1;stroke-linecap:round;stroke-opacity:1"/><text id="svg_76" x="-270.222" y="-100.444" style="font-size:10px;font-family:sans-serif;text-anchor:end;fill:#282828"><tspan id="svg_77" x="-224.222" y="-76.444">pitch</tspan></text><text id="svg_78" x="-270.222" y="-100.444" style="font-size:6.66666651px;font-family:sans-serif;text-anchor:end;fill:#282828"><tspan id="svg_79" x="-224.222" y="-88.444">name</tspan></text><text id="svg_80" x="-270.222" y="-100.444" style="font-size:6.66666651px;font-family:sans-serif;text-anchor:end;fill:#282828"><tspan id="svg_81" x="-224.222" y="-67.444">octave</tspan></text></g></g><g id="svg_82"><g id="svg_83" transform="matrix(1.5,0,0,1.5,498,281)"><path id="svg_84" d="m -261.72223,-99.94445 h 60 v 20 h -60 v -8 -1 h -6 v 3 h -2 v -8 h 2 v 3 h 6 v -1 z" style="fill:#77c428;fill-opacity:1;stroke:#57ad02;stroke-width:1;stroke-linecap:round;stroke-opacity:1"/><text id="svg_85" x="-270.222" y="-100.444" style="font-size:10px;font-family:sans-serif;text-anchor:start;fill:#282828"><tspan id="svg_86" x="-257.222" y="-86.444">sol</tspan></text></g></g><g id="svg_87"><g id="svg_88" transform="matrix(1.5,0,0,1.5,498,313)"><path id="svg_89" d="m -261.72223,-99.94445 h 60 v 20 h -60 v -8 -1 h -6 v 3 h -2 v -8 h 2 v 3 h 6 v -1 z" style="fill:#ff5293;fill-opacity:1;stroke:#ff2c76;stroke-width:1;stroke-linecap:round;stroke-opacity:1"/><text id="svg_90" x="-270.222" y="-100.444" style="font-size:10px;font-family:sans-serif;text-anchor:start;fill:#282828"><tspan id="svg_91" x="-257.222" y="-86.444">4</tspan></text></g></g></g></g></svg>