<svg xmlns="http://www.w3.org/2000/svg" width="348.333" height="228.333"><rect id="backgroundrect" width="100%" height="100%" x="0" y="0" fill="none" stroke="none"/><g class="currentLayer"><title>Layer 1</title><g><g id="svg_15"><g id="svg_16"><g id="svg_17" transform="translate(342, 245) scale(1.5)"><path style="fill:#ff8b2d;fill-opacity:1;stroke:#e86b0e;stroke-width:1;stroke-linecap:round;stroke-opacity:1" id="svg_18" d="m-216.388916015625,-131.94445461034775 L-216.388916015625,-135.94445461034775 A4,4 90 0 1 -212.388916015625,-139.94445461034775 L-208.388916015625,-139.94445461034775 L-208.388916015625,-137.94445461034775 L-198.388916015625,-137.94445461034775 L-198.388916015625,-139.94445461034775 L-189.388916015625,-139.94445461034775 L-129.388916015625,-139.94445461034775 L-125.388916015625,-139.94445461034775 A4,4 90 0 1 -121.388916015625,-135.94445461034775 L-121.388916015625,-131.94445461034775 L-125.388916015625,-131.94445461034775 L-125.388916015625,-134.94445461034775 L-129.388916015625,-134.94445461034775 L-129.388916015625,-124.94445461034775 L-125.388916015625,-124.94445461034775 L-125.388916015625,-127.94445461034775 L-121.388916015625,-127.94445461034775 L-121.388916015625,-123.94445461034775 A4,4 90 0 1 -125.388916015625,-119.94445461034775 L-129.388916015625,-119.94445461034775 L-189.388916015625,-119.94445461034775 L-190.388916015625,-119.94445461034775 L-190.388916015625,-117.94445461034775 L-198.388916015625,-117.94445461034775 L-198.388916015625,-119.94445461034775 L-199.388916015625,-119.94445461034775 L-203.388916015625,-119.94445461034775 A5,5 90 0 0 -208.388916015625,-114.94445461034775 L-208.388916015625,-110.94445461034775 L-208.388916015625,-106.94445461034775 L-208.388916015625,-64.94445461034775 L-208.388916015625,-60.94444698095322 A5,5 90 0 0 -203.388916015625,-55.94444698095322 L-199.388916015625,-55.94444698095322 L-199.388916015625,-53.94444698095322 L-189.388916015625,-53.94444698095322 L-189.388916015625,-55.94444698095322 L-181.388916015625,-55.94444698095322 L-181.388916015625,-49.94444698095322 L-181.388916015625,-43.94444698095322 L-181.388916015625,-39.94444698095322 A4,4 90 0 1 -185.388916015625,-35.94444698095322 L-189.388916015625,-35.94444698095322 L-198.388916015625,-35.94444698095322 L-199.388916015625,-35.94444698095322 L-199.388916015625,-33.94444698095322 L-207.388916015625,-33.94444698095322 L-207.388916015625,-35.94444698095322 L-208.388916015625,-35.94444698095322 L-212.388916015625,-35.94444698095322 A4,4 90 0 1 -216.388916015625,-39.94444698095322 L-216.388916015625,-43.94444698095322 z"/><text style="font-size:10px;fill:#282828;font-family:sans-serif;text-anchor:start" id="svg_19" x="-216.889" y="-140.444"><tspan id="svg_20" x="-196.889" y="-125.444">note</tspan></text><text style="font-size:6.666666666666667px;fill:#282828;font-family:sans-serif;text-anchor:end" id="svg_21" x="-216.889" y="-140.444"><tspan id="svg_22" x="-131.889" y="-128.444">value</tspan></text></g></g><g id="svg_23" transform="translate(342, 249) scale(0.5)"><g style="isolation:isolate" id="svg_24"><g id="レイヤー_2" data-name="レイヤー 2"><g id="Icon"><rect style="fill:#292929;opacity:.4;mix-blend-mode:multiply" id="svg_25" width="42" height="42" x="-650.667" y="-421.333" rx="5" ry="5"/><path style="fill:#fff" id="svg_26" d="M-620.1066284179688,-391.53337597846985 l-4.170000076293945,-4.159999847412109 h2.259999990463257 a1,1 0 1 0 0,-2.069999933242798 H-626.7266235351562 a1.0800000429153442,1.0800000429153442 0 0 0 -1.1100000143051147,1 v0 s0,0 0,0.05999999865889549 v4.639999866485596 h0 a1,1 0 1 0 2.0799999237060547,0 V-394.253377199173 l4.190000057220459,4.190000057220459 a1,1 0 0 0 1.4600000381469727,0 A1,1 0 0 0 -620.1066284179688,-391.53337597846985 z"/><path style="fill:#fff" id="svg_27" d="M-631.4966430664062,-396.733357667923 a1.0800000429153442,1.0800000429153442 0 0 0 -1.1100000143051147,-1 H-637.316650390625 a1,1 0 1 0 0,2.069999933242798 H-635.066650390625 L-639.2266235351562,-391.53337597846985 a1,1 0 0 0 1.4700000286102295,1.4700000286102295 l4.179999828338623,-4.190000057220459 v2.259999990463257 a1,1 0 1 0 2.0799999237060547,0 V-396.63335156440735 s0,0 0,-0.05999999865889549 A0.07999999821186066,0.07999999821186066 0 0 1 -631.4966430664062,-396.733357667923 z"/><path style="fill:#fff" id="svg_28" d="M-626.7266235351562,-400.8333637714386 h4.699999809265137 a1,1 0 1 0 0,-2.0799999237060547 H-624.276611328125 l4.170000076293945,-4.159999847412109 a1,1 0 0 0 0,-1.4700000286102295 a1,1 0 0 0 -1.4600000381469727,0 L-625.7566528320312,-404.3333637714386 V-406.6133625507355 a1,1 0 1 0 -2.0799999237060547,0 v4.639999866485596 a0.4300000071525574,0.4300000071525574 0 0 0 0,0.05000000074505806 v0.05000000074505806 A1.090000033378601,1.090000033378601 0 0 0 -626.7266235351562,-400.8333637714386 z"/><path style="fill:#fff" id="svg_29" d="M-632.53662109375,-407.7133686542511 a1.0800000429153442,1.0800000429153442 0 0 0 -1,1.090000033378601 V-404.3333637714386 l-4.179999828338623,-4.190000057220459 a1,1 0 0 0 -1.4700000286102295,0 a1,1 0 0 0 0,1.4600000381469727 l4.159999847412109,4.170000076293945 H-637.316650390625 a1,1 0 1 0 0,2.0799999237060547 h4.710000038146973 a1.090000033378601,1.090000033378601 0 0 0 1.1100000143051147,-1 a0.07999999821186066,0.07999999821186066 0 0 1 0,0 s0,0 0,-0.05999999865889549 V-406.6233723163605 A1.0700000524520874,1.0700000524520874 0 0 0 -632.53662109375,-407.7133686542511 z"/></g></g></g></g></g><g id="svg_30"><g id="svg_31" transform="translate(474, 245) scale(1.5)"><path style="fill:#ff5293;fill-opacity:1;stroke:#ff2c76;stroke-width:1;stroke-linecap:round;stroke-opacity:1" id="svg_32" d="m-208.388916015625,-131.94445461034775 L-208.388916015625,-135.94445461034775 A4,4 90 0 1 -204.388916015625,-139.94445461034775 L-200.388916015625,-139.94445461034775 L-190.388916015625,-139.94445461034775 L-160.388916015625,-139.94445461034775 L-156.388916015625,-139.94445461034775 A4,4 90 0 1 -152.388916015625,-135.94445461034775 L-152.388916015625,-131.94445461034775 L-156.388916015625,-131.94445461034775 L-156.388916015625,-134.94445461034775 L-160.388916015625,-134.94445461034775 L-160.388916015625,-124.94445461034775 L-156.388916015625,-124.94445461034775 L-156.388916015625,-127.94445461034775 L-152.388916015625,-127.94445461034775 L-152.388916015625,-110.94445461034775 L-156.388916015625,-110.94445461034775 L-156.388916015625,-113.94445461034775 L-160.388916015625,-113.94445461034775 L-160.388916015625,-103.94445461034775 L-156.388916015625,-103.94445461034775 L-156.388916015625,-106.94445461034775 L-152.388916015625,-106.94445461034775 L-152.388916015625,-102.94445461034775 A4,4 90 0 1 -156.388916015625,-98.94445461034775 L-160.388916015625,-98.94445461034775 L-190.388916015625,-98.94445461034775 L-200.388916015625,-98.94445461034775 L-204.388916015625,-98.94445461034775 A4,4 90 0 1 -208.388916015625,-102.94445461034775 L-208.388916015625,-106.94445461034775 L-208.388916015625,-127.94445461034775 L-208.388916015625,-128.94445461034775 L-214.388916015625,-128.94445461034775 L-214.388916015625,-125.94445461034775 L-216.388916015625,-125.94445461034775 L-216.388916015625,-133.94445461034775 L-214.388916015625,-133.94445461034775 L-214.388916015625,-130.94445461034775 L-208.388916015625,-130.94445461034775 L-208.388916015625,-131.94445461034775 z"/><text style="font-size:9px;fill:#282828;font-family:sans-serif;text-anchor:end" id="svg_33" x="-216.889" y="-140.444"><tspan id="svg_34" x="-162.889" y="-117.444">➗</tspan></text></g></g><g id="svg_39"><g id="svg_40" transform="translate(560, 245) scale(1.5)"><path style="fill:#ff5293;fill-opacity:1;stroke:#ff2c76;stroke-width:1;stroke-linecap:round;stroke-opacity:1" id="svg_41" d="m-208.388916015625,-139.94445461034775 L-148.388916015625,-139.94445461034775 L-148.388916015625,-119.94445461034775 L-208.388916015625,-119.94445461034775 L-208.388916015625,-127.94445461034775 L-208.388916015625,-128.94445461034775 L-214.388916015625,-128.94445461034775 L-214.388916015625,-125.94445461034775 L-216.388916015625,-125.94445461034775 L-216.388916015625,-133.94445461034775 L-214.388916015625,-133.94445461034775 L-214.388916015625,-130.94445461034775 L-208.388916015625,-130.94445461034775 L-208.388916015625,-131.94445461034775 z"/><text style="font-size:10px;fill:#282828;font-family:sans-serif;text-anchor:start" id="svg_42" x="-216.889" y="-140.444"><tspan id="svg_43" x="-203.889" y="-126.444">1</tspan></text></g></g><g id="svg_44"><g id="svg_45" transform="translate(560, 277) scale(1.5)"><path style="fill:#ff5293;fill-opacity:1;stroke:#ff2c76;stroke-width:1;stroke-linecap:round;stroke-opacity:1" id="svg_46" d="m-208.388916015625,-139.94445461034775 L-148.388916015625,-139.94445461034775 L-148.388916015625,-119.94445461034775 L-208.388916015625,-119.94445461034775 L-208.388916015625,-127.94445461034775 L-208.388916015625,-128.94445461034775 L-214.388916015625,-128.94445461034775 L-214.388916015625,-125.94445461034775 L-216.388916015625,-125.94445461034775 L-216.388916015625,-133.94445461034775 L-214.388916015625,-133.94445461034775 L-214.388916015625,-130.94445461034775 L-208.388916015625,-130.94445461034775 L-208.388916015625,-131.94445461034775 z"/><text style="font-size:10px;fill:#282828;font-family:sans-serif;text-anchor:start" id="svg_47" x="-216.889" y="-140.444"><tspan id="svg_48" x="-203.889" y="-126.444">4</tspan></text></g></g><g id="svg_49"><g id="svg_50" transform="translate(356, 277) scale(1.5)"><path style="fill:#b0b0b0;fill-opacity:1;stroke:#a0a0a0;stroke-width:1;stroke-linecap:round;stroke-opacity:1" id="svg_51" d="m-216.388916015625,-131.94445461034775 L-216.388916015625,-135.94445461034775 A4,4 90 0 1 -212.388916015625,-139.94445461034775 L-208.388916015625,-139.94445461034775 L-208.388916015625,-137.94445461034775 L-198.388916015625,-137.94445461034775 L-198.388916015625,-139.94445461034775 L-178.388916015625,-139.94445461034775 L-174.388916015625,-139.94445461034775 A4,4 90 0 1 -170.388916015625,-135.94445461034775 L-170.388916015625,-131.94445461034775 L-170.388916015625,-127.94445461034775 L-170.388916015625,-123.94445461034775 A4,4 90 0 1 -174.388916015625,-119.94445461034775 L-178.388916015625,-119.94445461034775 L-198.388916015625,-119.94445461034775 L-199.388916015625,-119.94445461034775 L-199.388916015625,-117.94445461034775 L-207.388916015625,-117.94445461034775 L-207.388916015625,-119.94445461034775 L-208.388916015625,-119.94445461034775 L-212.388916015625,-119.94445461034775 A4,4 90 0 1 -216.388916015625,-123.94445461034775 L-216.388916015625,-127.94445461034775 z"/><text style="font-size:10px;fill:#282828;font-family:sans-serif;text-anchor:end" id="svg_52" x="-216.889" y="-140.444"><tspan id="svg_53" x="-180.889" y="-126.444">↓</tspan></text></g></g><g id="svg_54"><g id="svg_55" transform="translate(356, 309) scale(1.5)"><path style="fill:#77c428;fill-opacity:1;stroke:#57ad02;stroke-width:1;stroke-linecap:round;stroke-opacity:1" id="svg_56" d="m-216.388916015625,-131.94445461034775 L-216.388916015625,-135.94445461034775 A4,4 90 0 1 -212.388916015625,-139.94445461034775 L-208.388916015625,-139.94445461034775 L-208.388916015625,-137.94445461034775 L-198.388916015625,-137.94445461034775 L-198.388916015625,-139.94445461034775 L-168.388916015625,-139.94445461034775 L-164.388916015625,-139.94445461034775 A4,4 90 0 1 -160.388916015625,-135.94445461034775 L-160.388916015625,-131.94445461034775 L-164.388916015625,-131.94445461034775 L-164.388916015625,-134.94445461034775 L-168.388916015625,-134.94445461034775 L-168.388916015625,-124.94445461034775 L-164.388916015625,-124.94445461034775 L-164.388916015625,-127.94445461034775 L-160.388916015625,-127.94445461034775 L-160.388916015625,-110.94445461034775 L-164.388916015625,-110.94445461034775 L-164.388916015625,-113.94445461034775 L-168.388916015625,-113.94445461034775 L-168.388916015625,-103.94445461034775 L-164.388916015625,-103.94445461034775 L-164.388916015625,-106.94445461034775 L-160.388916015625,-106.94445461034775 L-160.388916015625,-102.94445461034775 A4,4 90 0 1 -164.388916015625,-98.94445461034775 L-168.388916015625,-98.94445461034775 L-198.388916015625,-98.94445461034775 L-199.388916015625,-98.94445461034775 L-199.388916015625,-96.94445461034775 L-207.388916015625,-96.94445461034775 L-207.388916015625,-98.94445461034775 L-208.388916015625,-98.94445461034775 L-212.388916015625,-98.94445461034775 A4,4 90 0 1 -216.388916015625,-102.94445461034775 L-216.388916015625,-106.94445461034775 L-216.388916015625,-127.94445461034775 L-216.388916015625,-131.94445461034775 z"/><text style="font-size:10px;fill:#282828;font-family:sans-serif;text-anchor:end" id="svg_57" x="-216.889" y="-140.444"><tspan id="svg_58" x="-170.889" y="-116.444">pitch</tspan></text><text style="font-size:6.666666666666667px;fill:#282828;font-family:sans-serif;text-anchor:end" id="svg_59" x="-216.889" y="-140.444"><tspan id="svg_60" x="-170.889" y="-128.444">name</tspan></text><text style="font-size:6.666666666666667px;fill:#282828;font-family:sans-serif;text-anchor:end" id="svg_61" x="-216.889" y="-140.444"><tspan id="svg_62" x="-170.889" y="-107.444">octave</tspan></text></g></g><g id="svg_63"><g id="svg_64" transform="translate(430, 309) scale(1.5)"><path style="fill:#77c428;fill-opacity:1;stroke:#57ad02;stroke-width:1;stroke-linecap:round;stroke-opacity:1" id="svg_65" d="m-208.388916015625,-139.94445461034775 L-148.388916015625,-139.94445461034775 L-148.388916015625,-119.94445461034775 L-208.388916015625,-119.94445461034775 L-208.388916015625,-127.94445461034775 L-208.388916015625,-128.94445461034775 L-214.388916015625,-128.94445461034775 L-214.388916015625,-125.94445461034775 L-216.388916015625,-125.94445461034775 L-216.388916015625,-133.94445461034775 L-214.388916015625,-133.94445461034775 L-214.388916015625,-130.94445461034775 L-208.388916015625,-130.94445461034775 L-208.388916015625,-131.94445461034775 z"/><text style="font-size:10px;fill:#282828;font-family:sans-serif;text-anchor:start" id="svg_66" x="-216.889" y="-140.444"><tspan id="svg_67" x="-203.889" y="-126.444">sol</tspan></text></g></g><g id="svg_68"><g id="svg_69" transform="translate(430, 341) scale(1.5)"><path style="fill:#ff5293;fill-opacity:1;stroke:#ff2c76;stroke-width:1;stroke-linecap:round;stroke-opacity:1" id="svg_70" d="m-208.388916015625,-139.94445461034775 L-148.388916015625,-139.94445461034775 L-148.388916015625,-119.94445461034775 L-208.388916015625,-119.94445461034775 L-208.388916015625,-127.94445461034775 L-208.388916015625,-128.94445461034775 L-214.388916015625,-128.94445461034775 L-214.388916015625,-125.94445461034775 L-216.388916015625,-125.94445461034775 L-216.388916015625,-133.94445461034775 L-214.388916015625,-133.94445461034775 L-214.388916015625,-130.94445461034775 L-208.388916015625,-130.94445461034775 L-208.388916015625,-131.94445461034775 z"/><text style="font-size:10px;fill:#282828;font-family:sans-serif;text-anchor:start" id="svg_71" x="-216.889" y="-140.444"><tspan id="svg_72" x="-203.889" y="-126.444">4</tspan></text></g></g><g id="svg_73"><g id="svg_74" transform="translate(328, 213) scale(1.5)"><path style="fill:#d68136;fill-opacity:1;stroke:#b7651a;stroke-width:1;stroke-linecap:round;stroke-opacity:1" id="svg_75" d="m-216.388916015625,-131.94445461034775 L-216.388916015625,-135.94445461034775 A4,4 90 0 1 -212.388916015625,-139.94445461034775 L-208.388916015625,-139.94445461034775 L-208.388916015625,-137.94445461034775 L-198.388916015625,-137.94445461034775 L-198.388916015625,-139.94445461034775 L-189.388916015625,-139.94445461034775 L-169.388916015625,-139.94445461034775 L-165.388916015625,-139.94445461034775 A4,4 90 0 1 -161.388916015625,-135.94445461034775 L-161.388916015625,-131.94445461034775 L-165.388916015625,-131.94445461034775 L-165.388916015625,-134.94445461034775 L-169.388916015625,-134.94445461034775 L-169.388916015625,-124.94445461034775 L-165.388916015625,-124.94445461034775 L-165.388916015625,-127.94445461034775 L-161.388916015625,-127.94445461034775 L-161.388916015625,-123.94445461034775 A4,4 90 0 1 -165.388916015625,-119.94445461034775 L-169.388916015625,-119.94445461034775 L-189.388916015625,-119.94445461034775 L-190.388916015625,-119.94445461034775 L-190.388916015625,-117.94445461034775 L-198.388916015625,-117.94445461034775 L-198.388916015625,-119.94445461034775 L-199.388916015625,-119.94445461034775 L-203.388916015625,-119.94445461034775 A5,5 90 0 0 -208.388916015625,-114.94445461034775 L-208.388916015625,-110.94445461034775 L-208.388916015625,-106.94445461034775 L-208.388916015625,-22.944446980953217 L-208.388916015625,-18.944446980953217 A5,5 90 0 0 -203.388916015625,-13.944446980953217 L-199.388916015625,-13.944446980953217 L-199.388916015625,-11.944446980953217 L-189.388916015625,-11.944446980953217 L-189.388916015625,-13.944446980953217 L-181.388916015625,-13.944446980953217 L-181.388916015625,-7.9444469809532166 L-181.388916015625,-1.944447934627533 L-181.388916015625,2.0555521845817566 A4,4 90 0 1 -185.388916015625,6.055552065372467 L-189.388916015625,6.055552065372467 L-198.388916015625,6.055552065372467 L-199.388916015625,6.055552065372467 L-199.388916015625,8.055552065372467 L-207.388916015625,8.055552065372467 L-207.388916015625,6.055552065372467 L-208.388916015625,6.055552065372467 L-212.388916015625,6.055552065372467 A4,4 90 0 1 -216.388916015625,2.0555521845817566 L-216.388916015625,-1.944447934627533 z"/><text style="font-size:10px;fill:#282828;font-family:sans-serif;text-anchor:start" id="svg_76" x="-216.889" y="-140.444"><tspan id="svg_77" x="-211.889" y="-125.444">repeat</tspan></text></g></g><g id="svg_80"><g id="svg_81" transform="translate(400, 213) scale(1.5)"><path style="fill:#ff5293;fill-opacity:1;stroke:#ff2c76;stroke-width:1;stroke-linecap:round;stroke-opacity:1" id="svg_82" d="m-208.388916015625,-139.94445461034775 L-148.388916015625,-139.94445461034775 L-148.388916015625,-119.94445461034775 L-208.388916015625,-119.94445461034775 L-208.388916015625,-127.94445461034775 L-208.388916015625,-128.94445461034775 L-214.388916015625,-128.94445461034775 L-214.388916015625,-125.94445461034775 L-216.388916015625,-125.94445461034775 L-216.388916015625,-133.94445461034775 L-214.388916015625,-133.94445461034775 L-214.388916015625,-130.94445461034775 L-208.388916015625,-130.94445461034775 L-208.388916015625,-131.94445461034775 z"/><text style="font-size:10px;fill:#282828;font-family:sans-serif;text-anchor:start" id="svg_83" x="-216.889" y="-140.444"><tspan id="svg_84" x="-203.889" y="-126.444">4</tspan></text></g></g></g></g></svg>