<svg xmlns="http://www.w3.org/2000/svg" xmlns:svg="http://www.w3.org/2000/svg" id="svg102" width="281.5" height="345.5" version="1.1"><metadata id="metadata108"/><g id="g1297"><g id="g1133" transform="translate(-1.25,0.749995)"><g id="svg_85"><g id="svg_86" transform="matrix(1.5,0,0,1.5,305,260)"><path id="svg_87" d="m -202,-165.33333 v -4 a 4,4 90 0 1 4,-4 h 4 v 2 h 10 v -2 h 42 4 a 4,4 90 0 1 4,4 v 4 h -4 v -3 h -4 v 10 h 4 v -3 h 4 v 17 h -4 v -3 h -4 v 10 h 4 v -3 h 4 v 4 a 4,4 90 0 1 -4,4 h -4 -42 -1 v 2 h -8 v -2 h -1 -4 a 4,4 90 0 1 -4,-4 v -4 -21 z" style="fill:#ff8b2d;fill-opacity:1;stroke:#e86b0e;stroke-width:1;stroke-linecap:round;stroke-opacity:1"/><text id="svg_88" x="-202.5" y="-173.833" style="font-size:10px;font-family:sans-serif;text-anchor:end;fill:#282828"><tspan id="svg_89" x="-144.5" y="-149.833">rhythm</tspan></text><text id="svg_90" x="-202.5" y="-173.833" style="font-size:6.66666651px;font-family:sans-serif;text-anchor:end;fill:#282828"><tspan id="svg_91" x="-144.5" y="-161.833">number of notes</tspan></text><text id="svg_92" x="-202.5" y="-173.833" style="font-size:6.66666651px;font-family:sans-serif;text-anchor:end;fill:#282828"><tspan id="svg_93" x="-144.5" y="-140.833">note value</tspan></text></g></g><g id="svg_94"><g id="svg_95" transform="matrix(1.5,0,0,1.5,397,260)"><path id="svg_96" d="m -194,-173.33333 h 60 v 20 h -60 v -8 -1 h -6 v 3 h -2 v -8 h 2 v 3 h 6 v -1 z" style="fill:#ff5293;fill-opacity:1;stroke:#ff2c76;stroke-width:1;stroke-linecap:round;stroke-opacity:1"/><text id="svg_97" x="-202.5" y="-173.833" style="font-size:10px;font-family:sans-serif;text-anchor:start;fill:#282828"><tspan id="svg_98" x="-189.5" y="-159.833">3</tspan></text></g></g><g id="svg_99"><g id="svg_100" transform="matrix(1.5,0,0,1.5,397,292)"><path id="svg_101" d="m -194,-165.33333 v -4 a 4,4 90 0 1 4,-4 h 4 10 30 4 a 4,4 90 0 1 4,4 v 4 h -4 v -3 h -4 v 10 h 4 v -3 h 4 v 17 h -4 v -3 h -4 v 10 h 4 v -3 h 4 v 4 a 4,4 90 0 1 -4,4 h -4 -30 -10 -4 a 4,4 90 0 1 -4,-4 v -4 -21 -1 h -6 v 3 h -2 v -8 h 2 v 3 h 6 z" style="fill:#ff5293;fill-opacity:1;stroke:#ff2c76;stroke-width:1;stroke-linecap:round;stroke-opacity:1"/><text id="svg_102" x="-202.5" y="-173.833" style="font-size:9px;font-family:sans-serif;text-anchor:end;fill:#282828"><tspan id="svg_103" x="-148.5" y="-150.833">➗</tspan></text></g></g><g id="svg_108"><g id="svg_109" transform="matrix(1.5,0,0,1.5,483,292)"><path id="svg_110" d="m -194,-173.33333 h 60 v 20 h -60 v -8 -1 h -6 v 3 h -2 v -8 h 2 v 3 h 6 v -1 z" style="fill:#ff5293;fill-opacity:1;stroke:#ff2c76;stroke-width:1;stroke-linecap:round;stroke-opacity:1"/><text id="svg_111" x="-202.5" y="-173.833" style="font-size:10px;font-family:sans-serif;text-anchor:start;fill:#282828"><tspan id="svg_112" x="-189.5" y="-159.833">1</tspan></text></g></g><g id="svg_113"><g id="svg_114" transform="matrix(1.5,0,0,1.5,483,324)"><path id="svg_115" d="m -194,-173.33333 h 60 v 20 h -60 v -8 -1 h -6 v 3 h -2 v -8 h 2 v 3 h 6 v -1 z" style="fill:#ff5293;fill-opacity:1;stroke:#ff2c76;stroke-width:1;stroke-linecap:round;stroke-opacity:1"/><text id="svg_116" x="-202.5" y="-173.833" style="font-size:10px;font-family:sans-serif;text-anchor:start;fill:#282828"><tspan id="svg_117" x="-189.5" y="-159.833">4</tspan></text></g></g></g><g id="g1199" transform="translate(0.75,0.749995)"><g id="svg_118"><g id="svg_119" transform="matrix(1.5,0,0,1.5,303,510)"><path id="svg_120" d="m -202,-165.33333 v -4 a 4,4 90 0 1 4,-4 h 4 v 2 h 10 v -2 h 42 4 a 4,4 90 0 1 4,4 v 4 h -4 v -3 h -4 v 10 h 4 v -3 h 4 v 17 h -4 v -3 h -4 v 10 h 4 v -3 h 4 v 4 a 4,4 90 0 1 -4,4 h -4 -42 -1 v 2 h -8 v -2 h -1 -4 a 4,4 90 0 1 -4,-4 v -4 -21 z" style="fill:#ff8b2d;fill-opacity:1;stroke:#e86b0e;stroke-width:1;stroke-linecap:round;stroke-opacity:1"/><text id="svg_121" x="-202.5" y="-173.833" style="font-size:10px;font-family:sans-serif;text-anchor:end;fill:#282828"><tspan id="svg_122" x="-144.5" y="-149.833">rhythm</tspan></text><text id="svg_123" x="-202.5" y="-173.833" style="font-size:6.66666651px;font-family:sans-serif;text-anchor:end;fill:#282828"><tspan id="svg_124" x="-144.5" y="-161.833">number of notes</tspan></text><text id="svg_125" x="-202.5" y="-173.833" style="font-size:6.66666651px;font-family:sans-serif;text-anchor:end;fill:#282828"><tspan id="svg_126" x="-144.5" y="-140.833">note value</tspan></text></g></g><g id="svg_127"><g id="svg_128" transform="matrix(1.5,0,0,1.5,395,510)"><path id="svg_129" d="m -194,-173.33333 h 60 v 20 h -60 v -8 -1 h -6 v 3 h -2 v -8 h 2 v 3 h 6 v -1 z" style="fill:#ff5293;fill-opacity:1;stroke:#ff2c76;stroke-width:1;stroke-linecap:round;stroke-opacity:1"/><text id="svg_130" x="-202.5" y="-173.833" style="font-size:10px;font-family:sans-serif;text-anchor:start;fill:#282828"><tspan id="svg_131" x="-189.5" y="-159.833">7</tspan></text></g></g><g id="svg_132"><g id="svg_133" transform="matrix(1.5,0,0,1.5,395,542)"><path id="svg_134" d="m -194,-165.33333 v -4 a 4,4 90 0 1 4,-4 h 4 10 30 4 a 4,4 90 0 1 4,4 v 4 h -4 v -3 h -4 v 10 h 4 v -3 h 4 v 17 h -4 v -3 h -4 v 10 h 4 v -3 h 4 v 4 a 4,4 90 0 1 -4,4 h -4 -30 -10 -4 a 4,4 90 0 1 -4,-4 v -4 -21 -1 h -6 v 3 h -2 v -8 h 2 v 3 h 6 z" style="fill:#ff5293;fill-opacity:1;stroke:#ff2c76;stroke-width:1;stroke-linecap:round;stroke-opacity:1"/><text id="svg_135" x="-202.5" y="-173.833" style="font-size:9px;font-family:sans-serif;text-anchor:end;fill:#282828"><tspan id="svg_136" x="-148.5" y="-150.833">➗</tspan></text></g></g><g id="svg_141"><g id="svg_142" transform="matrix(1.5,0,0,1.5,481,542)"><path id="svg_143" d="m -194,-173.33333 h 60 v 20 h -60 v -8 -1 h -6 v 3 h -2 v -8 h 2 v 3 h 6 v -1 z" style="fill:#ff5293;fill-opacity:1;stroke:#ff2c76;stroke-width:1;stroke-linecap:round;stroke-opacity:1"/><text id="svg_144" x="-202.5" y="-173.833" style="font-size:10px;font-family:sans-serif;text-anchor:start;fill:#282828"><tspan id="svg_145" x="-189.5" y="-159.833">1</tspan></text></g></g><g id="svg_146"><g id="svg_147" transform="matrix(1.5,0,0,1.5,481,574)"><path id="svg_148" d="m -194,-173.33333 h 60 v 20 h -60 v -8 -1 h -6 v 3 h -2 v -8 h 2 v 3 h 6 v -1 z" style="fill:#ff5293;fill-opacity:1;stroke:#ff2c76;stroke-width:1;stroke-linecap:round;stroke-opacity:1"/><text id="svg_149" x="-202.5" y="-173.833" style="font-size:10px;font-family:sans-serif;text-anchor:start;fill:#282828"><tspan id="svg_150" x="-189.5" y="-159.833">16</tspan></text></g></g></g><g id="g1166" transform="translate(-3.25,0.749995)"><g id="svg_151"><g id="svg_152" transform="matrix(1.5,0,0,1.5,307,385)"><path id="svg_153" d="m -202,-165.33333 v -4 a 4,4 90 0 1 4,-4 h 4 v 2 h 10 v -2 h 42 4 a 4,4 90 0 1 4,4 v 4 h -4 v -3 h -4 v 10 h 4 v -3 h 4 v 17 h -4 v -3 h -4 v 10 h 4 v -3 h 4 v 4 a 4,4 90 0 1 -4,4 h -4 -42 -1 v 2 h -8 v -2 h -1 -4 a 4,4 90 0 1 -4,-4 v -4 -21 z" style="fill:#ff8b2d;fill-opacity:1;stroke:#e86b0e;stroke-width:1;stroke-linecap:round;stroke-opacity:1"/><text id="svg_154" x="-202.5" y="-173.833" style="font-size:10px;font-family:sans-serif;text-anchor:end;fill:#282828"><tspan id="svg_155" x="-144.5" y="-149.833">rhythm</tspan></text><text id="svg_156" x="-202.5" y="-173.833" style="font-size:6.66666651px;font-family:sans-serif;text-anchor:end;fill:#282828"><tspan id="svg_157" x="-144.5" y="-161.833">number of notes</tspan></text><text id="svg_158" x="-202.5" y="-173.833" style="font-size:6.66666651px;font-family:sans-serif;text-anchor:end;fill:#282828"><tspan id="svg_159" x="-144.5" y="-140.833">note value</tspan></text></g></g><g id="svg_160"><g id="svg_161" transform="matrix(1.5,0,0,1.5,399,385)"><path id="svg_162" d="m -194,-173.33333 h 60 v 20 h -60 v -8 -1 h -6 v 3 h -2 v -8 h 2 v 3 h 6 v -1 z" style="fill:#ff5293;fill-opacity:1;stroke:#ff2c76;stroke-width:1;stroke-linecap:round;stroke-opacity:1"/><text id="svg_163" x="-202.5" y="-173.833" style="font-size:10px;font-family:sans-serif;text-anchor:start;fill:#282828"><tspan id="svg_164" x="-189.5" y="-159.833">1</tspan></text></g></g><g id="svg_165"><g id="svg_166" transform="matrix(1.5,0,0,1.5,399,417)"><path id="svg_167" d="m -194,-165.33333 v -4 a 4,4 90 0 1 4,-4 h 4 10 30 4 a 4,4 90 0 1 4,4 v 4 h -4 v -3 h -4 v 10 h 4 v -3 h 4 v 17 h -4 v -3 h -4 v 10 h 4 v -3 h 4 v 4 a 4,4 90 0 1 -4,4 h -4 -30 -10 -4 a 4,4 90 0 1 -4,-4 v -4 -21 -1 h -6 v 3 h -2 v -8 h 2 v 3 h 6 z" style="fill:#ff5293;fill-opacity:1;stroke:#ff2c76;stroke-width:1;stroke-linecap:round;stroke-opacity:1"/><text id="svg_168" x="-202.5" y="-173.833" style="font-size:9px;font-family:sans-serif;text-anchor:end;fill:#282828"><tspan id="svg_169" x="-148.5" y="-150.833">➗</tspan></text></g></g><g id="svg_174"><g id="svg_175" transform="matrix(1.5,0,0,1.5,485,417)"><path id="svg_176" d="m -194,-173.33333 h 60 v 20 h -60 v -8 -1 h -6 v 3 h -2 v -8 h 2 v 3 h 6 v -1 z" style="fill:#ff5293;fill-opacity:1;stroke:#ff2c76;stroke-width:1;stroke-linecap:round;stroke-opacity:1"/><text id="svg_177" x="-202.5" y="-173.833" style="font-size:10px;font-family:sans-serif;text-anchor:start;fill:#282828"><tspan id="svg_178" x="-189.5" y="-159.833">1</tspan></text></g></g><g id="svg_179"><g id="svg_180" transform="matrix(1.5,0,0,1.5,485,449)"><path id="svg_181" d="m -194,-173.33333 h 60 v 20 h -60 v -8 -1 h -6 v 3 h -2 v -8 h 2 v 3 h 6 v -1 z" style="fill:#ff5293;fill-opacity:1;stroke:#ff2c76;stroke-width:1;stroke-linecap:round;stroke-opacity:1"/><text id="svg_182" x="-202.5" y="-173.833" style="font-size:10px;font-family:sans-serif;text-anchor:start;fill:#282828"><tspan id="svg_183" x="-189.5" y="-159.833">8</tspan></text></g></g></g></g></svg>