<svg xmlns="http://www.w3.org/2000/svg" xmlns:svg="http://www.w3.org/2000/svg" id="svg1430" width="239.5" height="34.5" version="1.1" viewBox="0 0 63.368 9.128"><metadata id="metadata1427"/><g id="layer1" transform="translate(-70.275221,-207.9203)"><g id="g100" transform="matrix(0.26458333,0,0,0.26458333,70.275221,207.9203)"><g id="g98" transform="scale(1.5)"><path id="path88" d="m 0.5,8.5 v -4 a 4,4 90 0 1 4,-4 h 4 v 2 h 10 v -2 h 71.972656 4 a 4,4 90 0 1 4,4 v 4 h -4 v -3 h -4 v 10 h 4 v -3 h 4 v 4 a 4,4 90 0 1 -4,4 h -4 H 18.5 h -1 v 2 h -8 v -2 h -1 -4 a 4,4 90 0 1 -4,-4 v -4 z" style="fill:#93e042;fill-opacity:1;stroke:#004000;stroke-width:1;stroke-linecap:round;stroke-opacity:1"/><text id="text92" style="font-size:10px;font-family:sans-serif;text-anchor:end;fill:#000"><tspan id="tspan90" x="88" y="14">scalar step (+/–)</tspan></text></g></g><g id="g110" transform="matrix(0.26458333,0,0,0.26458333,106.25855,207.9203)"><g id="g108" transform="scale(1.5)"><path id="path102" d="m 8.5,0.5 h 60 v 20 h -60 v -8 -1 h -6 v 3 h -2 v -8 h 2 v 3 h 6 v -1 z" style="fill:#ffb2bc;fill-opacity:1;stroke:#601136;stroke-width:1;stroke-linecap:round;stroke-opacity:1"/><text id="text106" style="font-size:10px;font-family:sans-serif;text-anchor:start;fill:#000"><tspan id="tspan104" x="13" y="14">1</tspan></text></g></g></g></svg>