<svg xmlns="http://www.w3.org/2000/svg" xmlns:svg="http://www.w3.org/2000/svg" id="svg1621" width="197.5" height="194.5" version="1.1" viewBox="0 0 52.255 51.461"><metadata id="metadata1618"/><g id="layer1" transform="translate(199.2407,90.075967)"><path style="fill:#92a9ff;fill-opacity:1;stroke:#5370dc;stroke-width:.39687499;stroke-linecap:round;stroke-opacity:1" id="path540" d="m -199.04226,-78.235863 v -1.5875 a 1.5875,1.5875 0 0 1 1.5875,-1.5875 h 1.5875 v 0.79375 h 3.96875 v -0.79375 h 17.21019 1.5875 a 1.5875,1.5875 0 0 1 1.5875,1.5875 v 1.5875 h -1.5875 v -1.190625 h -1.5875 v 3.96875 h 1.5875 v -1.190625 h 1.5875 v 1.587501 a 1.5875,1.5875 0 0 1 -1.5875,1.587499 h -1.5875 -17.21019 -0.39688 v 0.79375 h -3.175 v -0.79375 h -0.39687 -1.5875 a 1.5875,1.5875 0 0 1 -1.5875,-1.587499 v -1.587501 z"/><text style="font-size:3.96875px;font-family:sans-serif;text-anchor:end;fill:#282828;stroke-width:.39687499" id="text544" x="-199.241" y="-81.609"><tspan id="tspan542" x="-175.428" y="-76.053" style="stroke-width:.39687499">set shade</tspan></text><path style="fill:#ff6ea1;fill-opacity:1;stroke:#ff2c76;stroke-width:.39687499;stroke-linecap:round;stroke-opacity:1" id="path554" d="m -170.99643,-81.410863 h 23.8125 v 7.9375 h -23.8125 v -3.175 -0.396874 h -2.38125 v 1.190624 h -0.79375 v -3.174999 h 0.79375 v 1.190624 h 2.38125 v -0.396875 z"/><text style="font-size:3.96875px;font-family:sans-serif;text-anchor:start;fill:#282828;stroke-width:.39687499" id="text558" x="-174.37" y="-81.609"><tspan id="tspan556" x="-169.21" y="-76.053" style="stroke-width:.39687499">0</tspan></text><path style="fill:#92a9ff;fill-opacity:1;stroke:#5370dc;stroke-width:.39687499;stroke-linecap:round;stroke-opacity:1" id="path564" d="m -199.04226,-61.302529 v -1.5875 a 1.5875,1.5875 0 0 1 1.5875,-1.587501 h 1.5875 v 0.793751 h 3.96875 v -0.793751 h 17.21019 1.5875 a 1.5875,1.5875 0 0 1 1.5875,1.587501 v 1.5875 h -1.5875 v -1.190626 h -1.5875 v 3.96875 h 1.5875 v -1.190624 h 1.5875 v 1.587499 a 1.5875,1.5875 0 0 1 -1.5875,1.5875 h -1.5875 -17.21019 -0.39688 v 0.793751 h -3.175 v -0.793751 h -0.39687 -1.5875 a 1.5875,1.5875 0 0 1 -1.5875,-1.5875 v -1.587499 z"/><text style="font-size:3.96875px;font-family:sans-serif;text-anchor:end;fill:#282828;stroke-width:.39687499" id="text568" x="-199.241" y="-64.676"><tspan id="tspan566" x="-175.428" y="-59.12" style="stroke-width:.39687499">set shade</tspan></text><path style="fill:#ff6ea1;fill-opacity:1;stroke:#ff2c76;stroke-width:.39687499;stroke-linecap:round;stroke-opacity:1" id="path578" d="m -170.99643,-64.47753 h 23.8125 v 7.9375 h -23.8125 v -3.174999 -0.396876 h -2.38125 v 1.190626 h -0.79375 v -3.175001 h 0.79375 v 1.190626 h 2.38125 v -0.396875 z"/><text style="font-size:3.96875px;font-family:sans-serif;text-anchor:start;fill:#282828;stroke-width:.39687499" id="text582" x="-174.37" y="-64.676"><tspan id="tspan580" x="-169.21" y="-59.12" style="stroke-width:.39687499">50</tspan></text><path style="fill:#92a9ff;fill-opacity:1;stroke:#5370dc;stroke-width:.39687499;stroke-linecap:round;stroke-opacity:1" id="path588" d="m -199.04226,-86.70253 v -1.5875 a 1.5875,1.5875 0 0 1 1.5875,-1.5875 h 1.5875 v 0.79375 h 3.96875 v -0.79375 h 13.23369 1.5875 a 1.5875,1.5875 0 0 1 1.5875,1.5875 v 1.5875 h -1.5875 v -1.190625 h -1.5875 v 3.96875 h 1.5875 v -1.190625 h 1.5875 v 1.587501 a 1.5875,1.5875 0 0 1 -1.5875,1.587499 h -1.5875 -13.23369 -0.39688 v 0.79375 h -3.175 v -0.79375 h -0.39687 -1.5875 a 1.5875,1.5875 0 0 1 -1.5875,-1.587499 v -1.587501 z"/><text style="font-size:3.96875px;font-family:sans-serif;text-anchor:end;fill:#282828;stroke-width:.39687499" id="text592" x="-199.241" y="-90.076"><tspan id="tspan590" x="-179.397" y="-84.52" style="stroke-width:.39687499">forward</tspan></text><path style="fill:#ff6ea1;fill-opacity:1;stroke:#ff2c76;stroke-width:.39687499;stroke-linecap:round;stroke-opacity:1" id="path602" d="m -174.96518,-89.87753 h 23.8125 v 7.9375 h -23.8125 v -3.175 -0.396874 h -2.38125 v 1.190624 h -0.79375 v -3.174999 h 0.79375 v 1.190624 h 2.38125 v -0.396875 z"/><text style="font-size:3.96875px;font-family:sans-serif;text-anchor:start;fill:#282828;stroke-width:.39687499" id="text606" x="-178.339" y="-90.076"><tspan id="tspan604" x="-173.179" y="-84.52" style="stroke-width:.39687499">100</tspan></text><path style="fill:#92a9ff;fill-opacity:1;stroke:#5370dc;stroke-width:.39687499;stroke-linecap:round;stroke-opacity:1" id="path612" d="m -199.04226,-69.769197 v -1.587499 a 1.5875,1.5875 0 0 1 1.5875,-1.587501 h 1.5875 v 0.793751 h 3.96875 v -0.793751 h 13.23369 1.5875 a 1.5875,1.5875 0 0 1 1.5875,1.587501 v 1.587499 h -1.5875 v -1.190625 h -1.5875 v 3.96875 h 1.5875 v -1.190624 h 1.5875 v 1.5875 a 1.5875,1.5875 0 0 1 -1.5875,1.587499 h -1.5875 -13.23369 -0.39688 v 0.793751 h -3.175 v -0.793751 h -0.39687 -1.5875 a 1.5875,1.5875 0 0 1 -1.5875,-1.587499 v -1.5875 z"/><text style="font-size:3.96875px;font-family:sans-serif;text-anchor:end;fill:#282828;stroke-width:.39687499" id="text616" x="-199.241" y="-73.143"><tspan id="tspan614" x="-179.397" y="-67.586" style="stroke-width:.39687499">forward</tspan></text><path style="fill:#ff6ea1;fill-opacity:1;stroke:#ff2c76;stroke-width:.39687499;stroke-linecap:round;stroke-opacity:1" id="path626" d="m -174.96518,-72.944197 h 23.8125 v 7.9375 h -23.8125 v -3.174999 -0.396875 h -2.38125 v 1.190625 h -0.79375 v -3.175 h 0.79375 v 1.190625 h 2.38125 v -0.396876 z"/><text style="font-size:3.96875px;font-family:sans-serif;text-anchor:start;fill:#282828;stroke-width:.39687499" id="text630" x="-178.339" y="-73.143"><tspan id="tspan628" x="-173.179" y="-67.586" style="stroke-width:.39687499">100</tspan></text><path style="fill:#92a9ff;fill-opacity:1;stroke:#5370dc;stroke-width:.39687499;stroke-linecap:round;stroke-opacity:1" id="path636" d="m -199.04226,-52.835862 v -1.5875 a 1.5875,1.5875 0 0 1 1.5875,-1.587501 h 1.5875 v 0.793751 h 3.96875 v -0.793751 h 13.23369 1.5875 a 1.5875,1.5875 0 0 1 1.5875,1.587501 v 1.5875 h -1.5875 v -1.190626 h -1.5875 v 3.96875 h 1.5875 v -1.190624 h 1.5875 v 1.5875 a 1.5875,1.5875 0 0 1 -1.5875,1.587499 h -1.5875 -13.23369 -0.39688 v 0.793751 h -3.175 v -0.793751 h -0.39687 -1.5875 a 1.5875,1.5875 0 0 1 -1.5875,-1.587499 v -1.5875 z"/><text style="font-size:3.96875px;font-family:sans-serif;text-anchor:end;fill:#282828;stroke-width:.39687499" id="text640" x="-199.241" y="-56.209"><tspan id="tspan638" x="-179.397" y="-50.653" style="stroke-width:.39687499">forward</tspan></text><path style="fill:#ff6ea1;fill-opacity:1;stroke:#ff2c76;stroke-width:.39687499;stroke-linecap:round;stroke-opacity:1" id="path650" d="m -174.96518,-56.010863 h 23.8125 v 7.9375 h -23.8125 v -3.174999 -0.396875 h -2.38125 v 1.190625 h -0.79375 v -3.175 h 0.79375 v 1.190625 h 2.38125 v -0.396875 z"/><text style="font-size:3.96875px;font-family:sans-serif;text-anchor:start;fill:#282828;stroke-width:.39687499" id="text654" x="-178.339" y="-56.209"><tspan id="tspan652" x="-173.179" y="-50.653" style="stroke-width:.39687499">100</tspan></text><path style="fill:#92a9ff;fill-opacity:1;stroke:#5370dc;stroke-width:.39687499;stroke-linecap:round;stroke-opacity:1" id="path660" d="m -199.04226,-44.369196 v -1.5875 a 1.5875,1.5875 0 0 1 1.5875,-1.587501 h 1.5875 v 0.79375 h 3.96875 v -0.79375 h 17.21019 1.5875 a 1.5875,1.5875 0 0 1 1.5875,1.587501 v 1.5875 h -1.5875 v -1.190626 h -1.5875 v 3.96875 h 1.5875 v -1.190625 h 1.5875 v 1.5875 a 1.5875,1.5875 0 0 1 -1.5875,1.5875 h -1.5875 -17.21019 -0.39688 v 0.79375 h -3.175 v -0.79375 h -0.39687 -1.5875 a 1.5875,1.5875 0 0 1 -1.5875,-1.5875 v -1.5875 z"/><text style="font-size:3.96875px;font-family:sans-serif;text-anchor:end;fill:#282828;stroke-width:.39687499" id="text664" x="-199.241" y="-47.743"><tspan id="tspan662" x="-175.428" y="-42.186" style="stroke-width:.39687499">set shade</tspan></text><path style="fill:#ff6ea1;fill-opacity:1;stroke:#ff2c76;stroke-width:.39687499;stroke-linecap:round;stroke-opacity:1" id="path674" d="m -170.99643,-47.544197 h 23.8125 v 7.9375 h -23.8125 v -3.175 -0.396875 h -2.38125 v 1.190625 h -0.79375 v -3.175 h 0.79375 v 1.190626 h 2.38125 v -0.396875 z"/><text style="font-size:3.96875px;font-family:sans-serif;text-anchor:start;fill:#282828;stroke-width:.39687499" id="text678" x="-174.37" y="-47.743"><tspan id="tspan676" x="-169.21" y="-42.186" style="stroke-width:.39687499">100</tspan></text></g></svg>