<svg xmlns="http://www.w3.org/2000/svg" xmlns:svg="http://www.w3.org/2000/svg" id="svg11666" width="319.551" height="97.5" version="1.1" viewBox="0 0 84.548 25.797"><metadata id="metadata11663"/><g id="layer1" transform="translate(452.51541,-13.247814)"><g id="g10490" transform="matrix(0.26458333,0,0,0.26458333,-893.04665,-188.89385)"><g id="g1850" transform="translate(1665,764)"><g id="g1848" transform="scale(1.5)"><path style="fill:#7cd622;fill-opacity:1;stroke:#57ad02;stroke-width:1;stroke-linecap:round;stroke-opacity:1" id="path1830" d="m 0.5,8.5 v -4 a 4,4 90 0 1 4,-4 h 4 v 2 h 10 v -2 h 75.03418 4 a 4,4 90 0 1 4,4 v 4 h -4 v -3 h -4 v 10 h 4 v -3 h 4 v 17 h -4 v -3 h -4 v 10 h 4 v -3 h 4 v 17 h -4 v -3 h -4 v 10 h 4 v -3 h 4 v 4 a 4,4 90 0 1 -4,4 h -4 H 18.5 h -1 v 2 h -8 v -2 h -1 -4 a 4,4 90 0 1 -4,-4 v -4 -42 z"/><text style="font-size:10px;font-family:sans-serif;text-anchor:end;fill:#282828" id="text1834"><tspan id="tspan1832" x="91" y="21">set temperament</tspan></text><text style="font-size:6.66666651px;font-family:sans-serif;text-anchor:end;fill:#282828" id="text1838"><tspan id="tspan1836" x="91" y="12">temperament</tspan></text><text style="font-size:6.66666651px;font-family:sans-serif;text-anchor:end;fill:#282828" id="text1842"><tspan id="tspan1840" x="91" y="33">reference pitch</tspan></text><text style="font-size:6.66666651px;font-family:sans-serif;text-anchor:end;fill:#282828" id="text1846"><tspan id="tspan1844" x="91" y="54">octave</tspan></text></g></g><g id="g1860" transform="translate(1806.0513,764)"><g id="g1858" transform="scale(1.5)"><path style="fill:#3edcdd;fill-opacity:1;stroke:#1dbcbd;stroke-width:1;stroke-linecap:round;stroke-opacity:1" id="path1852" d="m 8.5,0.5 h 110 v 20 H 8.5 v -8 -1 h -6 v 3 h -2 v -8 h 2 v 3 h 6 v -1 z"/><text style="font-size:10px;font-family:sans-serif;text-anchor:start;fill:#282828" id="text1856"><tspan id="tspan1854" x="13" y="14">equal</tspan></text></g></g><g id="g1870" transform="translate(1806.0513,795.5)"><g id="g1868" transform="scale(1.5)"><path style="fill:#7cd622;fill-opacity:1;stroke:#57ad02;stroke-width:1;stroke-linecap:round;stroke-opacity:1" id="path1862" d="m 8.5,0.5 h 60 v 20 h -60 v -8 -1 h -6 v 3 h -2 v -8 h 2 v 3 h 6 v -1 z"/><text style="font-size:10px;font-family:sans-serif;text-anchor:start;fill:#282828" id="text1866"><tspan id="tspan1864" x="13" y="14">C</tspan></text></g></g><g id="g1880" transform="translate(1806.0513,827)"><g id="g1878" transform="scale(1.5)"><path style="fill:#ff6ea1;fill-opacity:1;stroke:#ff2c76;stroke-width:1;stroke-linecap:round;stroke-opacity:1" id="path1872" d="m 8.5,0.5 h 60 v 20 h -60 v -8 -1 h -6 v 3 h -2 v -8 h 2 v 3 h 6 v -1 z"/><text style="font-size:10px;font-family:sans-serif;text-anchor:start;fill:#282828" id="text1876"><tspan id="tspan1874" x="13" y="14">4</tspan></text></g></g></g></g></svg>