<svg xmlns="http://www.w3.org/2000/svg" xmlns:svg="http://www.w3.org/2000/svg" id="svg78" width="335.5" height="223.5" version="1.1"><metadata id="metadata84"/><g id="g76" class="currentLayer" transform="translate(-3.33336,-3.666752)"><title id="title3">Layer 1</title><g id="g74"><g id="svg_15"><g id="svg_16"><g id="svg_17" transform="matrix(1.5,0,0,1.5,320,169)"><path id="svg_18" d="m -201.27776,-80.388832 v -4 a 4,4 90 0 1 4,-4 h 4 v 2 h 10 v -2 h 9 60 4 a 4,4 90 0 1 4,4 v 4 h -4 v -3 h -4 v 9.999977 h 4 v -2.999992 h 4 v 3.999984 a 4,4 90 0 1 -4,3.999985 h -4 -60 -1 v 1.999993 h -8 v -1.999993 h -1 -4 a 5,5 90 0 0 -5,4.999981 v 4 4 42.000005 4.0000017 a 5,5 90 0 0 5,4.9999996 h 4 v 1.9999992 h 10 v -1.9999992 h 8 v 5.9999976 5.9999966 3.9999995 a 4,4 90 0 1 -4,4 h -4 -9 -1 v 2 h -8 v -2 h -1 -4 a 4,4 90 0 1 -4,-4 V 7.6111035 Z" style="fill:#ff8b2d;fill-opacity:1;stroke:#e86b0e;stroke-width:1;stroke-linecap:round;stroke-opacity:1"/><text id="svg_19" x="-201.778" y="-88.889" style="font-size:10px;font-family:sans-serif;text-anchor:start;fill:#282828"><tspan id="svg_20" x="-181.778" y="-73.889">note</tspan></text><text id="svg_21" x="-201.778" y="-88.889" style="font-size:6.66666651px;font-family:sans-serif;text-anchor:end;fill:#282828"><tspan id="svg_22" x="-116.778" y="-76.889">value</tspan></text></g></g><g id="svg_23" transform="matrix(0.5,0,0,0.5,320,173)"><g id="svg_24" style="isolation:isolate"><g id="レイヤー_2" data-name="レイヤー 2"><g id="Icon"><rect id="svg_25" width="42" height="42" x="-605.333" y="-266.667" rx="5" ry="5" style="opacity:.4;mix-blend-mode:multiply;fill:#292929"/><path id="svg_26" d="m -574.77348,-236.86676 -4.17,-4.16 h 2.26 a 1.035,1.035 0 1 0 0,-2.07 h -4.70999 a 1.08,1.08 0 0 0 -1.11,1 v 0 c 0,0 0,0 0,0.06 v 4.64 0 a 1.04,1.04 0 1 0 2.08,0 v -2.19 l 4.19,4.19 a 1,1 0 0 0 1.46,0 1,1 0 0 0 -10e-6,-1.47 z" style="fill:#fff"/><path id="svg_27" d="m -586.16349,-242.06676 a 1.08,1.08 0 0 0 -1.11,-1 h -4.71001 a 1.035,1.035 0 1 0 0,2.07 h 2.25 l -4.15997,4.13 a 1.039447,1.039447 0 0 0 1.47,1.47 l 4.18,-4.19 v 2.26 a 1.04,1.04 0 1 0 2.08,0 v -4.64001 c 0,0 0,0 0,-0.06 a 0.08,0.08 0 0 1 -2e-5,-0.04 z" style="fill:#fff"/><path id="svg_28" d="m -581.39347,-246.16676 h 4.7 a 1.04,1.04 0 1 0 0,-2.08 h -2.24999 l 4.17,-4.16 a 1,1 0 0 0 0,-1.47 1,1 0 0 0 -1.46,0 l -4.19004,4.21 v -2.28 a 1.04,1.04 0 1 0 -2.08,0 v 4.64 a 0.43000001,0.43000001 0 0 0 0,0.05 v 0.05 a 1.09,1.09 0 0 0 1.11003,1.04 z" style="fill:#fff"/><path id="svg_29" d="m -587.20347,-253.04677 a 1.08,1.08 0 0 0 -1,1.09 v 2.29001 l -4.18,-4.19 a 1,1 0 0 0 -1.47,0 1,1 0 0 0 0,1.46 l 4.16,4.17 h -2.29003 a 1.04,1.04 0 1 0 0,2.08 h 4.71 a 1.09,1.09 0 0 0 1.11,-1 c 0,0 0,0 0,-0.06 v -4.75 a 1.0700001,1.0700001 0 0 0 -1.03997,-1.09001 z" style="fill:#fff"/></g></g></g></g></g><g id="svg_30"><g id="svg_31" transform="matrix(1.5,0,0,1.5,452,169)"><path id="svg_32" d="m -193.27776,-80.388832 v -4 a 4,4 90 0 1 4,-4 h 4 10 30 4 a 4,4 90 0 1 4,4 v 4 h -4 v -3 h -4 v 9.999977 h 4 v -2.999992 h 4 v 16.99995 h -4 v -3 h -4 v 10 h 4 v -3 h 4 v 4 a 4,4 90 0 1 -4,4 h -4 -30 -10 -4 a 4,4 90 0 1 -4,-4 v -4 -20.99995 -0.999993 h -6 v 2.999985 h -2 v -7.999977 h 2 v 3 h 6 z" style="fill:#ff5293;fill-opacity:1;stroke:#ff2c76;stroke-width:1;stroke-linecap:round;stroke-opacity:1"/><text id="svg_33" x="-201.778" y="-88.889" style="font-size:9px;font-family:sans-serif;text-anchor:end;fill:#282828"><tspan id="svg_34" x="-147.778" y="-65.889">➗</tspan></text></g></g><g id="svg_39"><g id="svg_40" transform="matrix(1.5,0,0,1.5,538,169)"><path id="svg_41" d="m -193.27776,-88.388832 h 60 v 19.999954 h -60 v -7.999969 -0.999993 h -6 v 2.999985 h -2 v -7.999977 h 2 v 3 h 6 v -1 z" style="fill:#ff5293;fill-opacity:1;stroke:#ff2c76;stroke-width:1;stroke-linecap:round;stroke-opacity:1"/><text id="svg_42" x="-201.778" y="-88.889" style="font-size:10px;font-family:sans-serif;text-anchor:start;fill:#282828"><tspan id="svg_43" x="-188.778" y="-74.889">1</tspan></text></g></g><g id="svg_44"><g id="svg_45" transform="matrix(1.5,0,0,1.5,538,201)"><path id="svg_46" d="m -193.27776,-88.388832 h 60 v 19.999954 h -60 v -7.999969 -0.999993 h -6 v 2.999985 h -2 v -7.999977 h 2 v 3 h 6 v -1 z" style="fill:#ff5293;fill-opacity:1;stroke:#ff2c76;stroke-width:1;stroke-linecap:round;stroke-opacity:1"/><text id="svg_47" x="-201.778" y="-88.889" style="font-size:10px;font-family:sans-serif;text-anchor:start;fill:#282828"><tspan id="svg_48" x="-188.778" y="-74.889">4</tspan></text></g></g><g id="svg_49"><g id="svg_50" transform="matrix(1.5,0,0,1.5,334,201)"><path id="svg_51" d="m -201.27776,-80.388832 v -4 a 4,4 90 0 1 4,-4 h 4 v 2 h 10 v -2 h 20 4 a 4,4 90 0 1 4,4 v 4 3.999985 3.999984 a 4,4 90 0 1 -4,3.999985 h -4 -20 -1 v 1.999993 h -8 v -1.999993 h -1 -4 a 4,4 90 0 1 -4,-3.999985 v -3.999984 z" style="fill:#b0b0b0;fill-opacity:1;stroke:#a0a0a0;stroke-width:1;stroke-linecap:round;stroke-opacity:1"/><text id="svg_52" x="-201.778" y="-88.889" style="font-size:10px;font-family:sans-serif;text-anchor:end;fill:#282828"><tspan id="svg_53" x="-165.778" y="-74.889">↓</tspan></text></g></g><g id="svg_54"><g id="svg_55" transform="matrix(1.5,0,0,1.5,334,233)"><path id="svg_56" d="m -201.27776,-80.388832 v -4 a 4,4 90 0 1 4,-4 h 4 v 2 h 10 v -2 h 30 4 a 4,4 90 0 1 4,4 v 4 h -4 v -3 h -4 v 9.999977 h 4 v -2.999992 h 4 v 16.99995 h -4 v -3 h -4 v 10 h 4 v -3 h 4 v 4 a 4,4 90 0 1 -4,4 h -4 -30 -1 v 2 h -8 v -2 h -1 -4 a 4,4 90 0 1 -4,-4 v -4 -20.99995 z" style="fill:#77c428;fill-opacity:1;stroke:#57ad02;stroke-width:1;stroke-linecap:round;stroke-opacity:1"/><text id="svg_57" x="-201.778" y="-88.889" style="font-size:10px;font-family:sans-serif;text-anchor:end;fill:#282828"><tspan id="svg_58" x="-155.778" y="-64.889">pitch</tspan></text><text id="svg_59" x="-201.778" y="-88.889" style="font-size:6.66666651px;font-family:sans-serif;text-anchor:end;fill:#282828"><tspan id="svg_60" x="-155.778" y="-76.889">name</tspan></text><text id="svg_61" x="-201.778" y="-88.889" style="font-size:6.66666651px;font-family:sans-serif;text-anchor:end;fill:#282828"><tspan id="svg_62" x="-155.778" y="-55.889">octave</tspan></text></g></g><g id="svg_63"><g id="svg_64" transform="matrix(1.5,0,0,1.5,408,233)"><path id="svg_65" d="m -193.27776,-88.388832 h 60 v 19.999954 h -60 v -7.999969 -0.999993 h -6 v 2.999985 h -2 v -7.999977 h 2 v 3 h 6 v -1 z" style="fill:#77c428;fill-opacity:1;stroke:#57ad02;stroke-width:1;stroke-linecap:round;stroke-opacity:1"/><text id="svg_66" x="-201.778" y="-88.889" style="font-size:10px;font-family:sans-serif;text-anchor:start;fill:#282828"><tspan id="svg_67" x="-188.778" y="-74.889">sol</tspan></text></g></g><g id="svg_68"><g id="svg_69" transform="matrix(1.5,0,0,1.5,408,265)"><path id="svg_70" d="m -193.27776,-88.388832 h 60 v 19.999954 h -60 v -7.999969 -0.999993 h -6 v 2.999985 h -2 v -7.999977 h 2 v 3 h 6 v -1 z" style="fill:#ff5293;fill-opacity:1;stroke:#ff2c76;stroke-width:1;stroke-linecap:round;stroke-opacity:1"/><text id="svg_71" x="-201.778" y="-88.889" style="font-size:10px;font-family:sans-serif;text-anchor:start;fill:#282828"><tspan id="svg_72" x="-188.778" y="-74.889">4</tspan></text></g></g><g id="svg_73"><g id="svg_74" transform="matrix(1.5,0,0,1.5,306,137)"><path id="svg_75" d="m -201.27776,-80.388832 v -4 a 4,4 90 0 1 4,-4 h 4 v 2 h 10 v -2 h 9 36 4 a 4,4 90 0 1 4,4 v 4 h -4 v -3 h -4 v 9.999977 h 4 v -2.999992 h 4 v 3.999984 a 4,4 90 0 1 -4,3.999985 h -4 -36 -1 v 1.999993 h -8 v -1.999993 h -1 -4 a 5,5 90 0 0 -5,4.999981 v 4 4 84 4 a 5,5 90 0 0 5,5 h 4 v 2 h 10 v -2 h 8 v 6 6 4.000019 a 4,4 90 0 1 -4,4.000015 h -4 -9 -1 v 2.000012 h -8 v -2.000012 h -1 -4 a 4,4 90 0 1 -4,-4.000015 v -4.000019 z" style="fill:#25c3c0;fill-opacity:1;stroke:#1dbcbd;stroke-width:1;stroke-linecap:round;stroke-opacity:1"/><text id="svg_76" x="-201.778" y="-88.889" style="font-size:10px;font-family:sans-serif;text-anchor:start;fill:#282828"><tspan id="svg_77" x="-196.778" y="-73.889">set timbre</tspan></text></g></g><g id="svg_80"><g id="svg_81" transform="matrix(1.5,0,0,1.5,402,137)"><path id="svg_82" d="m -193.27776,-88.388832 h 110.000001 v 19.999954 H -193.27776 v -7.999969 -0.999993 h -6 v 2.999985 h -2 v -7.999977 h 2 v 3 h 6 v -1 z" style="fill:#25c3c0;fill-opacity:1;stroke:#1dbcbd;stroke-width:1;stroke-linecap:round;stroke-opacity:1"/><text id="svg_83" x="-201.778" y="-88.889" style="font-size:10px;font-family:sans-serif;text-anchor:start;fill:#282828"><tspan id="svg_84" x="-188.778" y="-74.889">guitar</tspan></text></g></g></g></g></svg>