<svg xmlns="http://www.w3.org/2000/svg" width="343" height="227.667"><rect id="backgroundrect" width="100%" height="100%" x="0" y="0" fill="none" stroke="none"/><g class="currentLayer"><title>Layer 1</title><g><g id="svg_15"><g id="svg_16"><g id="svg_17" transform="translate(357, 270) scale(1.5)"><path style="fill:#ff8b2d;fill-opacity:1;stroke:#e86b0e;stroke-width:1;stroke-linecap:round;stroke-opacity:1" id="svg_18" d="m-227.05555725097656,-148.83333164453506 L-227.05555725097656,-152.83333164453506 A4,4 90 0 1 -223.05555725097656,-156.83333164453506 L-219.05555725097656,-156.83333164453506 L-219.05555725097656,-154.83333164453506 L-209.05555725097656,-154.83333164453506 L-209.05555725097656,-156.83333164453506 L-200.05555725097656,-156.83333164453506 L-140.05555725097656,-156.83333164453506 L-136.05555725097656,-156.83333164453506 A4,4 90 0 1 -132.05555725097656,-152.83333164453506 L-132.05555725097656,-148.83333164453506 L-136.05555725097656,-148.83333164453506 L-136.05555725097656,-151.83333164453506 L-140.05555725097656,-151.83333164453506 L-140.05555725097656,-141.83333164453506 L-136.05555725097656,-141.83333164453506 L-136.05555725097656,-144.83333164453506 L-132.05555725097656,-144.83333164453506 L-132.05555725097656,-140.83333164453506 A4,4 90 0 1 -136.05555725097656,-136.83333164453506 L-140.05555725097656,-136.83333164453506 L-200.05555725097656,-136.83333164453506 L-201.05555725097656,-136.83333164453506 L-201.05555725097656,-134.83333164453506 L-209.05555725097656,-134.83333164453506 L-209.05555725097656,-136.83333164453506 L-210.05555725097656,-136.83333164453506 L-214.05555725097656,-136.83333164453506 A5,5 90 0 0 -219.05555725097656,-131.83333164453506 L-219.05555725097656,-127.83333164453506 L-219.05555725097656,-123.83333164453506 L-219.05555725097656,-81.83333164453506 L-219.05555725097656,-77.83333164453506 A5,5 90 0 0 -214.05555725097656,-72.83333164453506 L-210.05555725097656,-72.83333164453506 L-210.05555725097656,-70.83333164453506 L-200.05555725097656,-70.83333164453506 L-200.05555725097656,-72.83333164453506 L-192.05555725097656,-72.83333164453506 L-192.05555725097656,-66.8333392739296 L-192.05555725097656,-60.83334690332413 L-192.05555725097656,-56.83334690332413 A4,4 90 0 1 -196.05555725097656,-52.83334690332413 L-200.05555725097656,-52.83334690332413 L-209.05555725097656,-52.83334690332413 L-210.05555725097656,-52.83334690332413 L-210.05555725097656,-50.83334690332413 L-218.05555725097656,-50.83334690332413 L-218.05555725097656,-52.83334690332413 L-219.05555725097656,-52.83334690332413 L-223.05555725097656,-52.83334690332413 A4,4 90 0 1 -227.05555725097656,-56.83334690332413 L-227.05555725097656,-60.83334690332413 z"/><text style="font-size:10px;fill:#282828;font-family:sans-serif;text-anchor:start" id="svg_19" x="-227.556" y="-157.333"><tspan id="svg_20" x="-207.556" y="-142.333">note</tspan></text><text style="font-size:6.666666666666667px;fill:#282828;font-family:sans-serif;text-anchor:end" id="svg_21" x="-227.556" y="-157.333"><tspan id="svg_22" x="-142.556" y="-145.333">value</tspan></text></g></g><g id="svg_23" transform="translate(357, 274) scale(0.5)"><g style="isolation:isolate" id="svg_24"><g id="レイヤー_2" data-name="レイヤー 2"><g id="Icon"><rect style="fill:#292929;opacity:.4;mix-blend-mode:multiply" id="svg_25" width="42" height="42" x="-682.667" y="-472" rx="5" ry="5"/><path style="fill:#fff" id="svg_26" d="M-652.106689453125,-442.199991941452 l-4.170000076293945,-4.159999847412109 h2.259999990463257 a1,1 0 1 0 0,-2.069999933242798 H-658.7266845703125 a1.0800000429153442,1.0800000429153442 0 0 0 -1.1100000143051147,1 v0 s0,0 0,0.05999999865889549 v4.639999866485596 h0 a1,1 0 1 0 2.0799999237060547,0 V-444.91999316215515 l4.190000057220459,4.190000057220459 a1,1 0 0 0 1.4600000381469727,0 A1,1 0 0 0 -652.106689453125,-442.199991941452 z"/><path style="fill:#fff" id="svg_27" d="M-663.4967041015625,-447.39997363090515 a1.0800000429153442,1.0800000429153442 0 0 0 -1.1100000143051147,-1 H-669.3167114257812 a1,1 0 1 0 0,2.069999933242798 H-667.0667114257812 L-671.2266845703125,-442.199991941452 a1,1 0 0 0 1.4700000286102295,1.4700000286102295 l4.179999828338623,-4.190000057220459 v2.259999990463257 a1,1 0 1 0 2.0799999237060547,0 V-447.2999675273895 s0,0 0,-0.05999999865889549 A0.07999999821186066,0.07999999821186066 0 0 1 -663.4967041015625,-447.39997363090515 z"/><path style="fill:#fff" id="svg_28" d="M-658.7266845703125,-451.4999797344208 h4.699999809265137 a1,1 0 1 0 0,-2.0799999237060547 H-656.2766723632812 l4.170000076293945,-4.159999847412109 a1,1 0 0 0 0,-1.4700000286102295 a1,1 0 0 0 -1.4600000381469727,0 L-657.7567138671875,-454.9999797344208 V-457.27997851371765 a1,1 0 1 0 -2.0799999237060547,0 v4.639999866485596 a0.4300000071525574,0.4300000071525574 0 0 0 0,0.05000000074505806 v0.05000000074505806 A1.090000033378601,1.090000033378601 0 0 0 -658.7266845703125,-451.4999797344208 z"/><path style="fill:#fff" id="svg_29" d="M-664.5366821289062,-458.3799846172333 a1.0800000429153442,1.0800000429153442 0 0 0 -1,1.090000033378601 V-454.9999797344208 l-4.179999828338623,-4.190000057220459 a1,1 0 0 0 -1.4700000286102295,0 a1,1 0 0 0 0,1.4600000381469727 l4.159999847412109,4.170000076293945 H-669.3167114257812 a1,1 0 1 0 0,2.0799999237060547 h4.710000038146973 a1.090000033378601,1.090000033378601 0 0 0 1.1100000143051147,-1 a0.07999999821186066,0.07999999821186066 0 0 1 0,0 s0,0 0,-0.05999999865889549 V-457.28998827934265 A1.0700000524520874,1.0700000524520874 0 0 0 -664.5366821289062,-458.3799846172333 z"/></g></g></g></g></g><g id="svg_30"><g id="svg_31" transform="translate(489, 270) scale(1.5)"><path style="fill:#ff5293;fill-opacity:1;stroke:#ff2c76;stroke-width:1;stroke-linecap:round;stroke-opacity:1" id="svg_32" d="m-219.05555725097656,-148.83333164453506 L-219.05555725097656,-152.83333164453506 A4,4 90 0 1 -215.05555725097656,-156.83333164453506 L-211.05555725097656,-156.83333164453506 L-201.05555725097656,-156.83333164453506 L-171.05555725097656,-156.83333164453506 L-167.05555725097656,-156.83333164453506 A4,4 90 0 1 -163.05555725097656,-152.83333164453506 L-163.05555725097656,-148.83333164453506 L-167.05555725097656,-148.83333164453506 L-167.05555725097656,-151.83333164453506 L-171.05555725097656,-151.83333164453506 L-171.05555725097656,-141.83333164453506 L-167.05555725097656,-141.83333164453506 L-167.05555725097656,-144.83333164453506 L-163.05555725097656,-144.83333164453506 L-163.05555725097656,-127.83333164453506 L-167.05555725097656,-127.83333164453506 L-167.05555725097656,-130.83333164453506 L-171.05555725097656,-130.83333164453506 L-171.05555725097656,-120.83333164453506 L-167.05555725097656,-120.83333164453506 L-167.05555725097656,-123.83333164453506 L-163.05555725097656,-123.83333164453506 L-163.05555725097656,-119.83333164453506 A4,4 90 0 1 -167.05555725097656,-115.83333164453506 L-171.05555725097656,-115.83333164453506 L-201.05555725097656,-115.83333164453506 L-211.05555725097656,-115.83333164453506 L-215.05555725097656,-115.83333164453506 A4,4 90 0 1 -219.05555725097656,-119.83333164453506 L-219.05555725097656,-123.83333164453506 L-219.05555725097656,-144.83333164453506 L-219.05555725097656,-145.83333164453506 L-225.05555725097656,-145.83333164453506 L-225.05555725097656,-142.83333164453506 L-227.05555725097656,-142.83333164453506 L-227.05555725097656,-150.83333164453506 L-225.05555725097656,-150.83333164453506 L-225.05555725097656,-147.83333164453506 L-219.05555725097656,-147.83333164453506 L-219.05555725097656,-148.83333164453506 z"/><text style="font-size:9px;fill:#282828;font-family:sans-serif;text-anchor:end" id="svg_33" x="-227.556" y="-157.333"><tspan id="svg_34" x="-173.556" y="-134.333">➗</tspan></text></g></g><g id="svg_39"><g id="svg_40" transform="translate(575, 270) scale(1.5)"><path style="fill:#ff5293;fill-opacity:1;stroke:#ff2c76;stroke-width:1;stroke-linecap:round;stroke-opacity:1" id="svg_41" d="m-219.05555725097656,-156.83333164453506 L-159.05555725097656,-156.83333164453506 L-159.05555725097656,-136.83333164453506 L-219.05555725097656,-136.83333164453506 L-219.05555725097656,-144.83333164453506 L-219.05555725097656,-145.83333164453506 L-225.05555725097656,-145.83333164453506 L-225.05555725097656,-142.83333164453506 L-227.05555725097656,-142.83333164453506 L-227.05555725097656,-150.83333164453506 L-225.05555725097656,-150.83333164453506 L-225.05555725097656,-147.83333164453506 L-219.05555725097656,-147.83333164453506 L-219.05555725097656,-148.83333164453506 z"/><text style="font-size:10px;fill:#282828;font-family:sans-serif;text-anchor:start" id="svg_42" x="-227.556" y="-157.333"><tspan id="svg_43" x="-214.556" y="-143.333">1</tspan></text></g></g><g id="svg_44"><g id="svg_45" transform="translate(575, 302) scale(1.5)"><path style="fill:#ff5293;fill-opacity:1;stroke:#ff2c76;stroke-width:1;stroke-linecap:round;stroke-opacity:1" id="svg_46" d="m-219.05555725097656,-156.83333164453506 L-159.05555725097656,-156.83333164453506 L-159.05555725097656,-136.83333164453506 L-219.05555725097656,-136.83333164453506 L-219.05555725097656,-144.83333164453506 L-219.05555725097656,-145.83333164453506 L-225.05555725097656,-145.83333164453506 L-225.05555725097656,-142.83333164453506 L-227.05555725097656,-142.83333164453506 L-227.05555725097656,-150.83333164453506 L-225.05555725097656,-150.83333164453506 L-225.05555725097656,-147.83333164453506 L-219.05555725097656,-147.83333164453506 L-219.05555725097656,-148.83333164453506 z"/><text style="font-size:10px;fill:#282828;font-family:sans-serif;text-anchor:start" id="svg_47" x="-227.556" y="-157.333"><tspan id="svg_48" x="-214.556" y="-143.333">4</tspan></text></g></g><g id="svg_49"><g id="svg_50" transform="translate(371, 302) scale(1.5)"><path style="fill:#b0b0b0;fill-opacity:1;stroke:#a0a0a0;stroke-width:1;stroke-linecap:round;stroke-opacity:1" id="svg_51" d="m-227.05555725097656,-148.83333164453506 L-227.05555725097656,-152.83333164453506 A4,4 90 0 1 -223.05555725097656,-156.83333164453506 L-219.05555725097656,-156.83333164453506 L-219.05555725097656,-154.83333164453506 L-209.05555725097656,-154.83333164453506 L-209.05555725097656,-156.83333164453506 L-189.05555725097656,-156.83333164453506 L-185.05555725097656,-156.83333164453506 A4,4 90 0 1 -181.05555725097656,-152.83333164453506 L-181.05555725097656,-148.83333164453506 L-181.05555725097656,-144.83333164453506 L-181.05555725097656,-140.83333164453506 A4,4 90 0 1 -185.05555725097656,-136.83333164453506 L-189.05555725097656,-136.83333164453506 L-209.05555725097656,-136.83333164453506 L-210.05555725097656,-136.83333164453506 L-210.05555725097656,-134.83333164453506 L-218.05555725097656,-134.83333164453506 L-218.05555725097656,-136.83333164453506 L-219.05555725097656,-136.83333164453506 L-223.05555725097656,-136.83333164453506 A4,4 90 0 1 -227.05555725097656,-140.83333164453506 L-227.05555725097656,-144.83333164453506 z"/><text style="font-size:10px;fill:#282828;font-family:sans-serif;text-anchor:end" id="svg_52" x="-227.556" y="-157.333"><tspan id="svg_53" x="-191.556" y="-143.333">↓</tspan></text></g></g><g id="svg_54"><g id="svg_55" transform="translate(371, 334) scale(1.5)"><path style="fill:#77c428;fill-opacity:1;stroke:#57ad02;stroke-width:1;stroke-linecap:round;stroke-opacity:1" id="svg_56" d="m-227.05555725097656,-148.83333164453506 L-227.05555725097656,-152.83333164453506 A4,4 90 0 1 -223.05555725097656,-156.83333164453506 L-219.05555725097656,-156.83333164453506 L-219.05555725097656,-154.83333164453506 L-209.05555725097656,-154.83333164453506 L-209.05555725097656,-156.83333164453506 L-179.05555725097656,-156.83333164453506 L-175.05555725097656,-156.83333164453506 A4,4 90 0 1 -171.05555725097656,-152.83333164453506 L-171.05555725097656,-148.83333164453506 L-175.05555725097656,-148.83333164453506 L-175.05555725097656,-151.83333164453506 L-179.05555725097656,-151.83333164453506 L-179.05555725097656,-141.83333164453506 L-175.05555725097656,-141.83333164453506 L-175.05555725097656,-144.83333164453506 L-171.05555725097656,-144.83333164453506 L-171.05555725097656,-127.83333164453506 L-175.05555725097656,-127.83333164453506 L-175.05555725097656,-130.83333164453506 L-179.05555725097656,-130.83333164453506 L-179.05555725097656,-120.83333164453506 L-175.05555725097656,-120.83333164453506 L-175.05555725097656,-123.83333164453506 L-171.05555725097656,-123.83333164453506 L-171.05555725097656,-119.83333164453506 A4,4 90 0 1 -175.05555725097656,-115.83333164453506 L-179.05555725097656,-115.83333164453506 L-209.05555725097656,-115.83333164453506 L-210.05555725097656,-115.83333164453506 L-210.05555725097656,-113.83333164453506 L-218.05555725097656,-113.83333164453506 L-218.05555725097656,-115.83333164453506 L-219.05555725097656,-115.83333164453506 L-223.05555725097656,-115.83333164453506 A4,4 90 0 1 -227.05555725097656,-119.83333164453506 L-227.05555725097656,-123.83333164453506 L-227.05555725097656,-144.83333164453506 L-227.05555725097656,-148.83333164453506 z"/><text style="font-size:10px;fill:#282828;font-family:sans-serif;text-anchor:end" id="svg_57" x="-227.556" y="-157.333"><tspan id="svg_58" x="-181.556" y="-133.333">pitch</tspan></text><text style="font-size:6.666666666666667px;fill:#282828;font-family:sans-serif;text-anchor:end" id="svg_59" x="-227.556" y="-157.333"><tspan id="svg_60" x="-181.556" y="-145.333">name</tspan></text><text style="font-size:6.666666666666667px;fill:#282828;font-family:sans-serif;text-anchor:end" id="svg_61" x="-227.556" y="-157.333"><tspan id="svg_62" x="-181.556" y="-124.333">octave</tspan></text></g></g><g id="svg_63"><g id="svg_64" transform="translate(445, 334) scale(1.5)"><path style="fill:#77c428;fill-opacity:1;stroke:#57ad02;stroke-width:1;stroke-linecap:round;stroke-opacity:1" id="svg_65" d="m-219.05555725097656,-156.83333164453506 L-159.05555725097656,-156.83333164453506 L-159.05555725097656,-136.83333164453506 L-219.05555725097656,-136.83333164453506 L-219.05555725097656,-144.83333164453506 L-219.05555725097656,-145.83333164453506 L-225.05555725097656,-145.83333164453506 L-225.05555725097656,-142.83333164453506 L-227.05555725097656,-142.83333164453506 L-227.05555725097656,-150.83333164453506 L-225.05555725097656,-150.83333164453506 L-225.05555725097656,-147.83333164453506 L-219.05555725097656,-147.83333164453506 L-219.05555725097656,-148.83333164453506 z"/><text style="font-size:10px;fill:#282828;font-family:sans-serif;text-anchor:start" id="svg_66" x="-227.556" y="-157.333"><tspan id="svg_67" x="-214.556" y="-143.333">sol</tspan></text></g></g><g id="svg_68"><g id="svg_69" transform="translate(445, 366) scale(1.5)"><path style="fill:#ff5293;fill-opacity:1;stroke:#ff2c76;stroke-width:1;stroke-linecap:round;stroke-opacity:1" id="svg_70" d="m-219.05555725097656,-156.83333164453506 L-159.05555725097656,-156.83333164453506 L-159.05555725097656,-136.83333164453506 L-219.05555725097656,-136.83333164453506 L-219.05555725097656,-144.83333164453506 L-219.05555725097656,-145.83333164453506 L-225.05555725097656,-145.83333164453506 L-225.05555725097656,-142.83333164453506 L-227.05555725097656,-142.83333164453506 L-227.05555725097656,-150.83333164453506 L-225.05555725097656,-150.83333164453506 L-225.05555725097656,-147.83333164453506 L-219.05555725097656,-147.83333164453506 L-219.05555725097656,-148.83333164453506 z"/><text style="font-size:10px;fill:#282828;font-family:sans-serif;text-anchor:start" id="svg_71" x="-227.556" y="-157.333"><tspan id="svg_72" x="-214.556" y="-143.333">4</tspan></text></g></g><g id="svg_73"><g id="svg_74" transform="translate(343, 238) scale(1.5)"><path style="fill:#25c3c0;fill-opacity:1;stroke:#1dbcbd;stroke-width:1;stroke-linecap:round;stroke-opacity:1" id="svg_75" d="m-227.05555725097656,-148.83333164453506 L-227.05555725097656,-152.83333164453506 A4,4 90 0 1 -223.05555725097656,-156.83333164453506 L-219.05555725097656,-156.83333164453506 L-219.05555725097656,-154.83333164453506 L-209.05555725097656,-154.83333164453506 L-209.05555725097656,-156.83333164453506 L-200.05555725097656,-156.83333164453506 L-170.05555725097656,-156.83333164453506 L-166.05555725097656,-156.83333164453506 A4,4 90 0 1 -162.05555725097656,-152.83333164453506 L-162.05555725097656,-148.83333164453506 L-166.05555725097656,-148.83333164453506 L-166.05555725097656,-151.83333164453506 L-170.05555725097656,-151.83333164453506 L-170.05555725097656,-141.83333164453506 L-166.05555725097656,-141.83333164453506 L-166.05555725097656,-144.83333164453506 L-162.05555725097656,-144.83333164453506 L-162.05555725097656,-140.83333164453506 A4,4 90 0 1 -166.05555725097656,-136.83333164453506 L-170.05555725097656,-136.83333164453506 L-200.05555725097656,-136.83333164453506 L-201.05555725097656,-136.83333164453506 L-201.05555725097656,-134.83333164453506 L-209.05555725097656,-134.83333164453506 L-209.05555725097656,-136.83333164453506 L-210.05555725097656,-136.83333164453506 L-214.05555725097656,-136.83333164453506 A5,5 90 0 0 -219.05555725097656,-131.83333164453506 L-219.05555725097656,-127.83333164453506 L-219.05555725097656,-123.83333164453506 L-219.05555725097656,-39.83334690332413 L-219.05555725097656,-35.83334690332413 A5,5 90 0 0 -214.05555725097656,-30.833346903324127 L-210.05555725097656,-30.833346903324127 L-210.05555725097656,-28.833346903324127 L-200.05555725097656,-28.833346903324127 L-200.05555725097656,-30.833346903324127 L-192.05555725097656,-30.833346903324127 L-192.05555725097656,-24.833346903324127 L-192.05555725097656,-18.833346903324127 L-192.05555725097656,-14.833346903324127 A4,4 90 0 1 -196.05555725097656,-10.83334594964981 L-200.05555725097656,-10.83334594964981 L-209.05555725097656,-10.83334594964981 L-210.05555725097656,-10.83334594964981 L-210.05555725097656,-8.833344995975494 L-218.05555725097656,-8.833344995975494 L-218.05555725097656,-10.83334594964981 L-219.05555725097656,-10.83334594964981 L-223.05555725097656,-10.83334594964981 A4,4 90 0 1 -227.05555725097656,-14.833346903324127 L-227.05555725097656,-18.833346903324127 z"/><text style="font-size:10px;fill:#282828;font-family:sans-serif;text-anchor:start" id="svg_76" x="-227.556" y="-157.333"><tspan id="svg_77" x="-222.556" y="-142.333">set drum</tspan></text></g></g><g id="svg_80"><g id="svg_81" transform="translate(430, 238) scale(1.5)"><path style="fill:#25c3c0;fill-opacity:1;stroke:#1dbcbd;stroke-width:1;stroke-linecap:round;stroke-opacity:1" id="svg_82" d="m-219.05555725097656,-156.83333164453506 L-109.05555725097656,-156.83333164453506 L-109.05555725097656,-136.83333164453506 L-219.05555725097656,-136.83333164453506 L-219.05555725097656,-144.83333164453506 L-219.05555725097656,-145.83333164453506 L-225.05555725097656,-145.83333164453506 L-225.05555725097656,-142.83333164453506 L-227.05555725097656,-142.83333164453506 L-227.05555725097656,-150.83333164453506 L-225.05555725097656,-150.83333164453506 L-225.05555725097656,-147.83333164453506 L-219.05555725097656,-147.83333164453506 L-219.05555725097656,-148.83333164453506 z"/><text style="font-size:10px;fill:#282828;font-family:sans-serif;text-anchor:start" id="svg_83" x="-227.556" y="-157.333"><tspan id="svg_84" x="-214.556" y="-143.333">kick drum</tspan></text></g></g></g></g></svg>