<svg xmlns="http://www.w3.org/2000/svg" xmlns:svg="http://www.w3.org/2000/svg" id="svg28" width="324.5" height="66" version="1.1"><metadata id="metadata34"/><g id="g26" class="currentLayer" transform="translate(-1.666665,-3)"><title id="title3">Layer 1</title><g id="g24"><g id="svg_85"><g id="svg_86" transform="matrix(1.5,0,0,1.5,423,447)"><path id="svg_87" d="m -280.38889,-287.5 v -4 a 4,4 90 0 1 4,-4 h 4 v 2 h 10 v -2 h 78 4 a 4,4 90 0 1 4,4 v 4 h -4 v -3 h -4 v 10 h 4 v -3 h 4 v 17 h -4 v -3 h -4 v 10 h 4 v -3 h 4 v 4 a 4,4 90 0 1 -4,4 h -4 -78 -1 v 2 h -8 v -2 h -1 -4 a 4,4 90 0 1 -4,-4 v -4 -21 z" style="fill:#25c3c0;fill-opacity:1;stroke:#1dbcbd;stroke-width:1;stroke-linecap:round;stroke-opacity:1"/><text id="svg_88" x="-280.889" y="-296" style="font-size:10px;font-family:sans-serif;text-anchor:end;fill:#282828"><tspan id="svg_89" x="-186.889" y="-272">set synth volume</tspan></text><text id="svg_90" x="-280.889" y="-296" style="font-size:6.66666651px;font-family:sans-serif;text-anchor:end;fill:#282828"><tspan id="svg_91" x="-186.889" y="-284">synth</tspan></text><text id="svg_92" x="-280.889" y="-296" style="font-size:6.66666651px;font-family:sans-serif;text-anchor:end;fill:#282828"><tspan id="svg_93" x="-186.889" y="-263">volume</tspan></text></g></g><g id="svg_94"><g id="svg_95" transform="matrix(1.5,0,0,1.5,569,447)"><path id="svg_96" d="m -272.38889,-295.5 h 110 v 20 h -110 v -8 -1 h -6 v 3 h -2 v -8 h 2 v 3 h 6 v -1 z" style="fill:#25c3c0;fill-opacity:1;stroke:#1dbcbd;stroke-width:1;stroke-linecap:round;stroke-opacity:1"/><text id="svg_97" x="-280.889" y="-296" style="font-size:10px;font-family:sans-serif;text-anchor:start;fill:#282828"><tspan id="svg_98" x="-267.889" y="-282">guitar</tspan></text></g></g><g id="svg_99"><g id="svg_100" transform="matrix(1.5,0,0,1.5,569,479)"><path id="svg_101" d="m -272.38889,-295.5 h 60 v 20 h -60 v -8 -1 h -6 v 3 h -2 v -8 h 2 v 3 h 6 v -1 z" style="fill:#ff5293;fill-opacity:1;stroke:#ff2c76;stroke-width:1;stroke-linecap:round;stroke-opacity:1"/><text id="svg_102" x="-280.889" y="-296" style="font-size:10px;font-family:sans-serif;text-anchor:start;fill:#282828"><tspan id="svg_103" x="-267.889" y="-282">50</tspan></text></g></g></g></g></svg>