<svg xmlns="http://www.w3.org/2000/svg" width="323" height="784"><rect id="backgroundrect" width="100%" height="100%" x="0" y="0" fill="none" stroke="none"/><g class="currentLayer"><title>Layer 1</title><g><g id="svg_15"><g id="svg_16"><g id="svg_17" transform="translate(239, 169) scale(1.5)"><path style="fill:#77c428;fill-opacity:1;stroke:#57ad02;stroke-width:1;stroke-linecap:round;stroke-opacity:1" id="svg_18" d="m-158.8333282470703,-98.66666412353516 L-158.8333282470703,-102.66666412353516 A4,4 90 0 1 -154.8333282470703,-106.66666412353516 L-150.8333282470703,-106.66666412353516 L-145.8333282470703,-112.66666412353516 L-140.8333282470703,-106.66666412353516 L-131.8333282470703,-106.66666412353516 L-62.83332824707031,-106.66666412353516 L-58.83332824707031,-106.66666412353516 A4,4 90 0 1 -54.83332824707031,-102.66666412353516 L-54.83332824707031,-98.66666412353516 L-54.83332824707031,-94.66666412353516 L-54.83332824707031,-90.66666412353516 A4,4 90 0 1 -58.83332824707031,-86.66666412353516 L-62.83332824707031,-86.66666412353516 L-131.8333282470703,-86.66666412353516 L-132.8333282470703,-86.66666412353516 L-132.8333282470703,-84.66666412353516 L-140.8333282470703,-84.66666412353516 L-140.8333282470703,-86.66666412353516 L-141.8333282470703,-86.66666412353516 L-145.8333282470703,-86.66666412353516 A5,5 90 0 0 -150.8333282470703,-81.66666412353516 L-150.8333282470703,-77.66666412353516 L-150.8333282470703,-73.66666412353516 L-150.8333282470703,73.33333587646484 L-150.8333282470703,77.33333587646484 A5,5 90 0 0 -145.8333282470703,82.33333587646484 L-141.8333282470703,82.33333587646484 L-141.8333282470703,84.33333587646484 L-131.8333282470703,84.33333587646484 L-131.8333282470703,82.33333587646484 L-123.83332824707031,82.33333587646484 L-123.83332824707031,88.33333587646484 L-123.83332824707031,94.33333587646484 L-123.83332824707031,98.33333587646484 A4,4 90 0 1 -127.83332824707031,102.33333587646484 L-131.8333282470703,102.33333587646484 L-140.8333282470703,102.33333587646484 L-145.8333282470703,108.33333587646484 L-150.8333282470703,102.33333587646484 L-154.8333282470703,102.33333587646484 A4,4 90 0 1 -158.8333282470703,98.33333587646484 L-158.8333282470703,94.33333587646484 z"/><text style="font-size:10px;fill:#282828;font-family:sans-serif;text-anchor:start" id="svg_19" x="-159.333" y="-113.167"><tspan id="svg_20" x="-139.333" y="-91.167">pitch-time matrix</tspan></text></g></g><g id="svg_21" transform="translate(239, 181) scale(0.5)"><g style="isolation:isolate" id="svg_22"><g id="レイヤー_2" data-name="レイヤー 2"><g id="Icon"><rect style="fill:#292929;opacity:.4;mix-blend-mode:multiply" id="svg_23" width="42" height="42" x="-478" y="-339.5" rx="5" ry="5"/><path style="fill:#fff" id="svg_24" d="M-447.4400005340576,-309.70000076293945 l-4.170000076293945,-4.159999847412109 h2.259999990463257 a1,1 0 1 0 0,-2.069999933242798 H-454.0599994659424 a1.0800000429153442,1.0800000429153442 0 0 0 -1.1100000143051147,1 v0 s0,0 0,0.05999999865889549 v4.639999866485596 h0 a1,1 0 1 0 2.0799999237060547,0 V-312.42000007629395 l4.190000057220459,4.190000057220459 a1,1 0 0 0 1.4600000381469727,0 A1,1 0 0 0 -447.4400005340576,-309.70000076293945 z"/><path style="fill:#fff" id="svg_25" d="M-458.82999992370605,-314.8999996185303 a1.0800000429153442,1.0800000429153442 0 0 0 -1.1100000143051147,-1 H-464.6499996185303 a1,1 0 1 0 0,2.069999933242798 H-462.3999996185303 L-466.5600004196167,-309.70000076293945 a1,1 0 0 0 1.4700000286102295,1.4700000286102295 l4.179999828338623,-4.190000057220459 v2.259999990463257 a1,1 0 1 0 2.0799999237060547,0 V-314.79999923706055 s0,0 0,-0.05999999865889549 A0.07999999821186066,0.07999999821186066 0 0 1 -458.82999992370605,-314.8999996185303 z"/><path style="fill:#fff" id="svg_26" d="M-454.0599994659424,-319 h4.699999809265137 a1,1 0 1 0 0,-2.0799999237060547 H-451.61000061035156 l4.170000076293945,-4.159999847412109 a1,1 0 0 0 0,-1.4700000286102295 a1,1 0 0 0 -1.4600000381469727,0 L-453.0900001525879,-322.5 V-324.7799997329712 a1,1 0 1 0 -2.0799999237060547,0 v4.639999866485596 a0.4300000071525574,0.4300000071525574 0 0 0 0,0.05000000074505806 v0.05000000074505806 A1.090000033378601,1.090000033378601 0 0 0 -454.0599994659424,-319 z"/><path style="fill:#fff" id="svg_27" d="M-459.8700008392334,-325.8800001144409 a1.0800000429153442,1.0800000429153442 0 0 0 -1,1.090000033378601 V-322.5 l-4.179999828338623,-4.190000057220459 a1,1 0 0 0 -1.4700000286102295,0 a1,1 0 0 0 0,1.4600000381469727 l4.159999847412109,4.170000076293945 H-464.6499996185303 a1,1 0 1 0 0,2.0799999237060547 h4.710000038146973 a1.090000033378601,1.090000033378601 0 0 0 1.1100000143051147,-1 a0.07999999821186066,0.07999999821186066 0 0 1 0,0 s0,0 0,-0.05999999865889549 V-324.789999961853 A1.0700000524520874,1.0700000524520874 0 0 0 -459.8700008392334,-325.8800001144409 z"/></g></g></g></g></g><g id="svg_28"><g id="svg_29" transform="translate(253, 210) scale(1.5)"><path style="fill:#77c428;fill-opacity:1;stroke:#57ad02;stroke-width:1;stroke-linecap:round;stroke-opacity:1" id="svg_30" d="m-158.8333282470703,-104.66666412353516 L-158.8333282470703,-108.66666412353516 A4,4 90 0 1 -154.8333282470703,-112.66666412353516 L-150.8333282470703,-112.66666412353516 L-150.8333282470703,-110.66666412353516 L-140.8333282470703,-110.66666412353516 L-140.8333282470703,-112.66666412353516 L-110.83332824707031,-112.66666412353516 L-106.83332824707031,-112.66666412353516 A4,4 90 0 1 -102.83332824707031,-108.66666412353516 L-102.83332824707031,-104.66666412353516 L-106.83332824707031,-104.66666412353516 L-106.83332824707031,-107.66666412353516 L-110.83332824707031,-107.66666412353516 L-110.83332824707031,-97.66666412353516 L-106.83332824707031,-97.66666412353516 L-106.83332824707031,-100.66666412353516 L-102.83332824707031,-100.66666412353516 L-102.83332824707031,-83.66666412353516 L-106.83332824707031,-83.66666412353516 L-106.83332824707031,-86.66666412353516 L-110.83332824707031,-86.66666412353516 L-110.83332824707031,-76.66666412353516 L-106.83332824707031,-76.66666412353516 L-106.83332824707031,-79.66666412353516 L-102.83332824707031,-79.66666412353516 L-102.83332824707031,-75.66666412353516 A4,4 90 0 1 -106.83332824707031,-71.66666412353516 L-110.83332824707031,-71.66666412353516 L-140.8333282470703,-71.66666412353516 L-141.8333282470703,-71.66666412353516 L-141.8333282470703,-69.66666412353516 L-149.8333282470703,-69.66666412353516 L-149.8333282470703,-71.66666412353516 L-150.8333282470703,-71.66666412353516 L-154.8333282470703,-71.66666412353516 A4,4 90 0 1 -158.8333282470703,-75.66666412353516 L-158.8333282470703,-79.66666412353516 L-158.8333282470703,-100.66666412353516 L-158.8333282470703,-104.66666412353516 z"/><text style="font-size:10px;fill:#282828;font-family:sans-serif;text-anchor:end" id="svg_31" x="-159.333" y="-113.167"><tspan id="svg_32" x="-113.333" y="-89.167">pitch</tspan></text><text style="font-size:6.666666666666667px;fill:#282828;font-family:sans-serif;text-anchor:end" id="svg_33" x="-159.333" y="-113.167"><tspan id="svg_34" x="-113.333" y="-101.167">name</tspan></text><text style="font-size:6.666666666666667px;fill:#282828;font-family:sans-serif;text-anchor:end" id="svg_35" x="-159.333" y="-113.167"><tspan id="svg_36" x="-113.333" y="-80.167">octave</tspan></text></g></g><g id="svg_37"><g id="svg_38" transform="translate(327, 210) scale(1.5)"><path style="fill:#77c428;fill-opacity:1;stroke:#57ad02;stroke-width:1;stroke-linecap:round;stroke-opacity:1" id="svg_39" d="m-150.8333282470703,-112.66666412353516 L-90.83332824707031,-112.66666412353516 L-90.83332824707031,-92.66666412353516 L-150.8333282470703,-92.66666412353516 L-150.8333282470703,-100.66666412353516 L-150.8333282470703,-101.66666412353516 L-156.8333282470703,-101.66666412353516 L-156.8333282470703,-98.66666412353516 L-158.8333282470703,-98.66666412353516 L-158.8333282470703,-106.66666412353516 L-156.8333282470703,-106.66666412353516 L-156.8333282470703,-103.66666412353516 L-150.8333282470703,-103.66666412353516 L-150.8333282470703,-104.66666412353516 z"/><text style="font-size:10px;fill:#282828;font-family:sans-serif;text-anchor:start" id="svg_40" x="-159.333" y="-113.167"><tspan id="svg_41" x="-146.333" y="-99.167">sol</tspan></text></g></g><g id="svg_42"><g id="svg_43" transform="translate(327, 242) scale(1.5)"><path style="fill:#ff5293;fill-opacity:1;stroke:#ff2c76;stroke-width:1;stroke-linecap:round;stroke-opacity:1" id="svg_44" d="m-150.8333282470703,-112.66666412353516 L-90.83332824707031,-112.66666412353516 L-90.83332824707031,-92.66666412353516 L-150.8333282470703,-92.66666412353516 L-150.8333282470703,-100.66666412353516 L-150.8333282470703,-101.66666412353516 L-156.8333282470703,-101.66666412353516 L-156.8333282470703,-98.66666412353516 L-158.8333282470703,-98.66666412353516 L-158.8333282470703,-106.66666412353516 L-156.8333282470703,-106.66666412353516 L-156.8333282470703,-103.66666412353516 L-150.8333282470703,-103.66666412353516 L-150.8333282470703,-104.66666412353516 z"/><text style="font-size:10px;fill:#282828;font-family:sans-serif;text-anchor:start" id="svg_45" x="-159.333" y="-113.167"><tspan id="svg_46" x="-146.333" y="-99.167">4</tspan></text></g></g><g id="svg_47"><g id="svg_48" transform="translate(253, 273) scale(1.5)"><path style="fill:#77c428;fill-opacity:1;stroke:#57ad02;stroke-width:1;stroke-linecap:round;stroke-opacity:1" id="svg_49" d="m-158.8333282470703,-104.66666412353516 L-158.8333282470703,-108.66666412353516 A4,4 90 0 1 -154.8333282470703,-112.66666412353516 L-150.8333282470703,-112.66666412353516 L-150.8333282470703,-110.66666412353516 L-140.8333282470703,-110.66666412353516 L-140.8333282470703,-112.66666412353516 L-110.83332824707031,-112.66666412353516 L-106.83332824707031,-112.66666412353516 A4,4 90 0 1 -102.83332824707031,-108.66666412353516 L-102.83332824707031,-104.66666412353516 L-106.83332824707031,-104.66666412353516 L-106.83332824707031,-107.66666412353516 L-110.83332824707031,-107.66666412353516 L-110.83332824707031,-97.66666412353516 L-106.83332824707031,-97.66666412353516 L-106.83332824707031,-100.66666412353516 L-102.83332824707031,-100.66666412353516 L-102.83332824707031,-83.66666412353516 L-106.83332824707031,-83.66666412353516 L-106.83332824707031,-86.66666412353516 L-110.83332824707031,-86.66666412353516 L-110.83332824707031,-76.66666412353516 L-106.83332824707031,-76.66666412353516 L-106.83332824707031,-79.66666412353516 L-102.83332824707031,-79.66666412353516 L-102.83332824707031,-75.66666412353516 A4,4 90 0 1 -106.83332824707031,-71.66666412353516 L-110.83332824707031,-71.66666412353516 L-140.8333282470703,-71.66666412353516 L-141.8333282470703,-71.66666412353516 L-141.8333282470703,-69.66666412353516 L-149.8333282470703,-69.66666412353516 L-149.8333282470703,-71.66666412353516 L-150.8333282470703,-71.66666412353516 L-154.8333282470703,-71.66666412353516 A4,4 90 0 1 -158.8333282470703,-75.66666412353516 L-158.8333282470703,-79.66666412353516 L-158.8333282470703,-100.66666412353516 L-158.8333282470703,-104.66666412353516 z"/><text style="font-size:10px;fill:#282828;font-family:sans-serif;text-anchor:end" id="svg_50" x="-159.333" y="-113.167"><tspan id="svg_51" x="-113.333" y="-89.167">pitch</tspan></text><text style="font-size:6.666666666666667px;fill:#282828;font-family:sans-serif;text-anchor:end" id="svg_52" x="-159.333" y="-113.167"><tspan id="svg_53" x="-113.333" y="-101.167">name</tspan></text><text style="font-size:6.666666666666667px;fill:#282828;font-family:sans-serif;text-anchor:end" id="svg_54" x="-159.333" y="-113.167"><tspan id="svg_55" x="-113.333" y="-80.167">octave</tspan></text></g></g><g id="svg_56"><g id="svg_57" transform="translate(327, 273) scale(1.5)"><path style="fill:#77c428;fill-opacity:1;stroke:#57ad02;stroke-width:1;stroke-linecap:round;stroke-opacity:1" id="svg_58" d="m-150.8333282470703,-112.66666412353516 L-90.83332824707031,-112.66666412353516 L-90.83332824707031,-92.66666412353516 L-150.8333282470703,-92.66666412353516 L-150.8333282470703,-100.66666412353516 L-150.8333282470703,-101.66666412353516 L-156.8333282470703,-101.66666412353516 L-156.8333282470703,-98.66666412353516 L-158.8333282470703,-98.66666412353516 L-158.8333282470703,-106.66666412353516 L-156.8333282470703,-106.66666412353516 L-156.8333282470703,-103.66666412353516 L-150.8333282470703,-103.66666412353516 L-150.8333282470703,-104.66666412353516 z"/><text style="font-size:10px;fill:#282828;font-family:sans-serif;text-anchor:start" id="svg_59" x="-159.333" y="-113.167"><tspan id="svg_60" x="-146.333" y="-99.167">mi</tspan></text></g></g><g id="svg_61"><g id="svg_62" transform="translate(327, 305) scale(1.5)"><path style="fill:#ff5293;fill-opacity:1;stroke:#ff2c76;stroke-width:1;stroke-linecap:round;stroke-opacity:1" id="svg_63" d="m-150.8333282470703,-112.66666412353516 L-90.83332824707031,-112.66666412353516 L-90.83332824707031,-92.66666412353516 L-150.8333282470703,-92.66666412353516 L-150.8333282470703,-100.66666412353516 L-150.8333282470703,-101.66666412353516 L-156.8333282470703,-101.66666412353516 L-156.8333282470703,-98.66666412353516 L-158.8333282470703,-98.66666412353516 L-158.8333282470703,-106.66666412353516 L-156.8333282470703,-106.66666412353516 L-156.8333282470703,-103.66666412353516 L-150.8333282470703,-103.66666412353516 L-150.8333282470703,-104.66666412353516 z"/><text style="font-size:10px;fill:#282828;font-family:sans-serif;text-anchor:start" id="svg_64" x="-159.333" y="-113.167"><tspan id="svg_65" x="-146.333" y="-99.167">4</tspan></text></g></g><g id="svg_66"><g id="svg_67" transform="translate(253, 336) scale(1.5)"><path style="fill:#77c428;fill-opacity:1;stroke:#57ad02;stroke-width:1;stroke-linecap:round;stroke-opacity:1" id="svg_68" d="m-158.8333282470703,-104.66666412353516 L-158.8333282470703,-108.66666412353516 A4,4 90 0 1 -154.8333282470703,-112.66666412353516 L-150.8333282470703,-112.66666412353516 L-150.8333282470703,-110.66666412353516 L-140.8333282470703,-110.66666412353516 L-140.8333282470703,-112.66666412353516 L-110.83332824707031,-112.66666412353516 L-106.83332824707031,-112.66666412353516 A4,4 90 0 1 -102.83332824707031,-108.66666412353516 L-102.83332824707031,-104.66666412353516 L-106.83332824707031,-104.66666412353516 L-106.83332824707031,-107.66666412353516 L-110.83332824707031,-107.66666412353516 L-110.83332824707031,-97.66666412353516 L-106.83332824707031,-97.66666412353516 L-106.83332824707031,-100.66666412353516 L-102.83332824707031,-100.66666412353516 L-102.83332824707031,-83.66666412353516 L-106.83332824707031,-83.66666412353516 L-106.83332824707031,-86.66666412353516 L-110.83332824707031,-86.66666412353516 L-110.83332824707031,-76.66666412353516 L-106.83332824707031,-76.66666412353516 L-106.83332824707031,-79.66666412353516 L-102.83332824707031,-79.66666412353516 L-102.83332824707031,-75.66666412353516 A4,4 90 0 1 -106.83332824707031,-71.66666412353516 L-110.83332824707031,-71.66666412353516 L-140.8333282470703,-71.66666412353516 L-141.8333282470703,-71.66666412353516 L-141.8333282470703,-69.66666412353516 L-149.8333282470703,-69.66666412353516 L-149.8333282470703,-71.66666412353516 L-150.8333282470703,-71.66666412353516 L-154.8333282470703,-71.66666412353516 A4,4 90 0 1 -158.8333282470703,-75.66666412353516 L-158.8333282470703,-79.66666412353516 L-158.8333282470703,-100.66666412353516 L-158.8333282470703,-104.66666412353516 z"/><text style="font-size:10px;fill:#282828;font-family:sans-serif;text-anchor:end" id="svg_69" x="-159.333" y="-113.167"><tspan id="svg_70" x="-113.333" y="-89.167">pitch</tspan></text><text style="font-size:6.666666666666667px;fill:#282828;font-family:sans-serif;text-anchor:end" id="svg_71" x="-159.333" y="-113.167"><tspan id="svg_72" x="-113.333" y="-101.167">name</tspan></text><text style="font-size:6.666666666666667px;fill:#282828;font-family:sans-serif;text-anchor:end" id="svg_73" x="-159.333" y="-113.167"><tspan id="svg_74" x="-113.333" y="-80.167">octave</tspan></text></g></g><g id="svg_75"><g id="svg_76" transform="translate(327, 336) scale(1.5)"><path style="fill:#77c428;fill-opacity:1;stroke:#57ad02;stroke-width:1;stroke-linecap:round;stroke-opacity:1" id="svg_77" d="m-150.8333282470703,-112.66666412353516 L-90.83332824707031,-112.66666412353516 L-90.83332824707031,-92.66666412353516 L-150.8333282470703,-92.66666412353516 L-150.8333282470703,-100.66666412353516 L-150.8333282470703,-101.66666412353516 L-156.8333282470703,-101.66666412353516 L-156.8333282470703,-98.66666412353516 L-158.8333282470703,-98.66666412353516 L-158.8333282470703,-106.66666412353516 L-156.8333282470703,-106.66666412353516 L-156.8333282470703,-103.66666412353516 L-150.8333282470703,-103.66666412353516 L-150.8333282470703,-104.66666412353516 z"/><text style="font-size:10px;fill:#282828;font-family:sans-serif;text-anchor:start" id="svg_78" x="-159.333" y="-113.167"><tspan id="svg_79" x="-146.333" y="-99.167">re</tspan></text></g></g><g id="svg_80"><g id="svg_81" transform="translate(327, 368) scale(1.5)"><path style="fill:#ff5293;fill-opacity:1;stroke:#ff2c76;stroke-width:1;stroke-linecap:round;stroke-opacity:1" id="svg_82" d="m-150.8333282470703,-112.66666412353516 L-90.83332824707031,-112.66666412353516 L-90.83332824707031,-92.66666412353516 L-150.8333282470703,-92.66666412353516 L-150.8333282470703,-100.66666412353516 L-150.8333282470703,-101.66666412353516 L-156.8333282470703,-101.66666412353516 L-156.8333282470703,-98.66666412353516 L-158.8333282470703,-98.66666412353516 L-158.8333282470703,-106.66666412353516 L-156.8333282470703,-106.66666412353516 L-156.8333282470703,-103.66666412353516 L-150.8333282470703,-103.66666412353516 L-150.8333282470703,-104.66666412353516 z"/><text style="font-size:10px;fill:#282828;font-family:sans-serif;text-anchor:start" id="svg_83" x="-159.333" y="-113.167"><tspan id="svg_84" x="-146.333" y="-99.167">4</tspan></text></g></g><g id="svg_85"><g id="svg_86" transform="translate(253, 399) scale(1.5)"><path style="fill:#ff8b2d;fill-opacity:1;stroke:#e86b0e;stroke-width:1;stroke-linecap:round;stroke-opacity:1" id="svg_87" d="m-158.8333282470703,-104.66666412353516 L-158.8333282470703,-108.66666412353516 A4,4 90 0 1 -154.8333282470703,-112.66666412353516 L-150.8333282470703,-112.66666412353516 L-150.8333282470703,-110.66666412353516 L-140.8333282470703,-110.66666412353516 L-140.8333282470703,-112.66666412353516 L-79.83332824707031,-112.66666412353516 L-75.83332824707031,-112.66666412353516 A4,4 90 0 1 -71.83332824707031,-108.66666412353516 L-71.83332824707031,-104.66666412353516 L-75.83332824707031,-104.66666412353516 L-75.83332824707031,-107.66666412353516 L-79.83332824707031,-107.66666412353516 L-79.83332824707031,-97.66666412353516 L-75.83332824707031,-97.66666412353516 L-75.83332824707031,-100.66666412353516 L-71.83332824707031,-100.66666412353516 L-71.83332824707031,-83.66666412353516 L-75.83332824707031,-83.66666412353516 L-75.83332824707031,-86.66666412353516 L-79.83332824707031,-86.66666412353516 L-79.83332824707031,-76.66666412353516 L-75.83332824707031,-76.66666412353516 L-75.83332824707031,-79.66666412353516 L-71.83332824707031,-79.66666412353516 L-71.83332824707031,-75.66666412353516 A4,4 90 0 1 -75.83332824707031,-71.66666412353516 L-79.83332824707031,-71.66666412353516 L-140.8333282470703,-71.66666412353516 L-141.8333282470703,-71.66666412353516 L-141.8333282470703,-69.66666412353516 L-149.8333282470703,-69.66666412353516 L-149.8333282470703,-71.66666412353516 L-150.8333282470703,-71.66666412353516 L-154.8333282470703,-71.66666412353516 A4,4 90 0 1 -158.8333282470703,-75.66666412353516 L-158.8333282470703,-79.66666412353516 L-158.8333282470703,-100.66666412353516 L-158.8333282470703,-104.66666412353516 z"/><text style="font-size:10px;fill:#282828;font-family:sans-serif;text-anchor:end" id="svg_88" x="-159.333" y="-113.167"><tspan id="svg_89" x="-82.333" y="-89.167">simple tuplet</tspan></text><text style="font-size:6.666666666666667px;fill:#282828;font-family:sans-serif;text-anchor:end" id="svg_90" x="-159.333" y="-113.167"><tspan id="svg_91" x="-82.333" y="-101.167">number of notes</tspan></text><text style="font-size:6.666666666666667px;fill:#282828;font-family:sans-serif;text-anchor:end" id="svg_92" x="-159.333" y="-113.167"><tspan id="svg_93" x="-82.333" y="-80.167">note value</tspan></text></g></g><g id="svg_94"><g id="svg_95" transform="translate(373, 399) scale(1.5)"><path style="fill:#ff5293;fill-opacity:1;stroke:#ff2c76;stroke-width:1;stroke-linecap:round;stroke-opacity:1" id="svg_96" d="m-150.8333282470703,-112.66666412353516 L-90.83332824707031,-112.66666412353516 L-90.83332824707031,-92.66666412353516 L-150.8333282470703,-92.66666412353516 L-150.8333282470703,-100.66666412353516 L-150.8333282470703,-101.66666412353516 L-156.8333282470703,-101.66666412353516 L-156.8333282470703,-98.66666412353516 L-158.8333282470703,-98.66666412353516 L-158.8333282470703,-106.66666412353516 L-156.8333282470703,-106.66666412353516 L-156.8333282470703,-103.66666412353516 L-150.8333282470703,-103.66666412353516 L-150.8333282470703,-104.66666412353516 z"/><text style="font-size:10px;fill:#282828;font-family:sans-serif;text-anchor:start" id="svg_97" x="-159.333" y="-113.167"><tspan id="svg_98" x="-146.333" y="-99.167">3</tspan></text></g></g><g id="svg_99"><g id="svg_100" transform="translate(373, 431) scale(1.5)"><path style="fill:#ff5293;fill-opacity:1;stroke:#ff2c76;stroke-width:1;stroke-linecap:round;stroke-opacity:1" id="svg_101" d="m-150.8333282470703,-104.66666412353516 L-150.8333282470703,-108.66666412353516 A4,4 90 0 1 -146.8333282470703,-112.66666412353516 L-142.8333282470703,-112.66666412353516 L-132.8333282470703,-112.66666412353516 L-102.83332824707031,-112.66666412353516 L-98.83332824707031,-112.66666412353516 A4,4 90 0 1 -94.83332824707031,-108.66666412353516 L-94.83332824707031,-104.66666412353516 L-98.83332824707031,-104.66666412353516 L-98.83332824707031,-107.66666412353516 L-102.83332824707031,-107.66666412353516 L-102.83332824707031,-97.66666412353516 L-98.83332824707031,-97.66666412353516 L-98.83332824707031,-100.66666412353516 L-94.83332824707031,-100.66666412353516 L-94.83332824707031,-83.66666412353516 L-98.83332824707031,-83.66666412353516 L-98.83332824707031,-86.66666412353516 L-102.83332824707031,-86.66666412353516 L-102.83332824707031,-76.66666412353516 L-98.83332824707031,-76.66666412353516 L-98.83332824707031,-79.66666412353516 L-94.83332824707031,-79.66666412353516 L-94.83332824707031,-75.66666412353516 A4,4 90 0 1 -98.83332824707031,-71.66666412353516 L-102.83332824707031,-71.66666412353516 L-132.8333282470703,-71.66666412353516 L-142.8333282470703,-71.66666412353516 L-146.8333282470703,-71.66666412353516 A4,4 90 0 1 -150.8333282470703,-75.66666412353516 L-150.8333282470703,-79.66666412353516 L-150.8333282470703,-100.66666412353516 L-150.8333282470703,-101.66666412353516 L-156.8333282470703,-101.66666412353516 L-156.8333282470703,-98.66666412353516 L-158.8333282470703,-98.66666412353516 L-158.8333282470703,-106.66666412353516 L-156.8333282470703,-106.66666412353516 L-156.8333282470703,-103.66666412353516 L-150.8333282470703,-103.66666412353516 L-150.8333282470703,-104.66666412353516 z"/><text style="font-size:9px;fill:#282828;font-family:sans-serif;text-anchor:end" id="svg_102" x="-159.333" y="-113.167"><tspan id="svg_103" x="-105.333" y="-90.167">➗</tspan></text></g></g><g id="svg_108"><g id="svg_109" transform="translate(459, 431) scale(1.5)"><path style="fill:#ff5293;fill-opacity:1;stroke:#ff2c76;stroke-width:1;stroke-linecap:round;stroke-opacity:1" id="svg_110" d="m-150.8333282470703,-112.66666412353516 L-90.83332824707031,-112.66666412353516 L-90.83332824707031,-92.66666412353516 L-150.8333282470703,-92.66666412353516 L-150.8333282470703,-100.66666412353516 L-150.8333282470703,-101.66666412353516 L-156.8333282470703,-101.66666412353516 L-156.8333282470703,-98.66666412353516 L-158.8333282470703,-98.66666412353516 L-158.8333282470703,-106.66666412353516 L-156.8333282470703,-106.66666412353516 L-156.8333282470703,-103.66666412353516 L-150.8333282470703,-103.66666412353516 L-150.8333282470703,-104.66666412353516 z"/><text style="font-size:10px;fill:#282828;font-family:sans-serif;text-anchor:start" id="svg_111" x="-159.333" y="-113.167"><tspan id="svg_112" x="-146.333" y="-99.167">1</tspan></text></g></g><g id="svg_113"><g id="svg_114" transform="translate(459, 463) scale(1.5)"><path style="fill:#ff5293;fill-opacity:1;stroke:#ff2c76;stroke-width:1;stroke-linecap:round;stroke-opacity:1" id="svg_115" d="m-150.8333282470703,-112.66666412353516 L-90.83332824707031,-112.66666412353516 L-90.83332824707031,-92.66666412353516 L-150.8333282470703,-92.66666412353516 L-150.8333282470703,-100.66666412353516 L-150.8333282470703,-101.66666412353516 L-156.8333282470703,-101.66666412353516 L-156.8333282470703,-98.66666412353516 L-158.8333282470703,-98.66666412353516 L-158.8333282470703,-106.66666412353516 L-156.8333282470703,-106.66666412353516 L-156.8333282470703,-103.66666412353516 L-150.8333282470703,-103.66666412353516 L-150.8333282470703,-104.66666412353516 z"/><text style="font-size:10px;fill:#282828;font-family:sans-serif;text-anchor:start" id="svg_116" x="-159.333" y="-113.167"><tspan id="svg_117" x="-146.333" y="-99.167">4</tspan></text></g></g><g id="svg_118"><g id="svg_119"><g id="svg_120" transform="translate(239, 527) scale(1.5)"><path style="fill:#77c428;fill-opacity:1;stroke:#57ad02;stroke-width:1;stroke-linecap:round;stroke-opacity:1" id="svg_121" d="m-158.8333282470703,-98.66666412353516 L-158.8333282470703,-102.66666412353516 A4,4 90 0 1 -154.8333282470703,-106.66666412353516 L-150.8333282470703,-106.66666412353516 L-145.8333282470703,-112.66666412353516 L-140.8333282470703,-106.66666412353516 L-131.8333282470703,-106.66666412353516 L-62.83332824707031,-106.66666412353516 L-58.83332824707031,-106.66666412353516 A4,4 90 0 1 -54.83332824707031,-102.66666412353516 L-54.83332824707031,-98.66666412353516 L-54.83332824707031,-94.66666412353516 L-54.83332824707031,-90.66666412353516 A4,4 90 0 1 -58.83332824707031,-86.66666412353516 L-62.83332824707031,-86.66666412353516 L-131.8333282470703,-86.66666412353516 L-132.8333282470703,-86.66666412353516 L-132.8333282470703,-84.66666412353516 L-140.8333282470703,-84.66666412353516 L-140.8333282470703,-86.66666412353516 L-141.8333282470703,-86.66666412353516 L-145.8333282470703,-86.66666412353516 A5,5 90 0 0 -150.8333282470703,-81.66666412353516 L-150.8333282470703,-77.66666412353516 L-150.8333282470703,-73.66666412353516 L-150.8333282470703,136.33333587646484 L-150.8333282470703,140.33333587646484 A5,5 90 0 0 -145.8333282470703,145.33333587646484 L-141.8333282470703,145.33333587646484 L-141.8333282470703,147.33333587646484 L-131.8333282470703,147.33333587646484 L-131.8333282470703,145.33333587646484 L-123.83332824707031,145.33333587646484 L-123.83332824707031,151.33333587646484 L-123.83332824707031,157.33333587646484 L-123.83332824707031,161.33333587646484 A4,4 90 0 1 -127.83332824707031,165.33333587646484 L-131.8333282470703,165.33333587646484 L-140.8333282470703,165.33333587646484 L-145.8333282470703,171.33333587646484 L-150.8333282470703,165.33333587646484 L-154.8333282470703,165.33333587646484 A4,4 90 0 1 -158.8333282470703,161.33333587646484 L-158.8333282470703,157.33333587646484 z"/><text style="font-size:10px;fill:#282828;font-family:sans-serif;text-anchor:start" id="svg_122" x="-159.333" y="-113.167"><tspan id="svg_123" x="-139.333" y="-91.167">pitch-time matrix</tspan></text></g></g><g id="svg_124" transform="translate(239, 539) scale(0.5)"><g style="isolation:isolate" id="svg_125"><g id="レイヤー_2" data-name="レイヤー 2"><g id="Icon"><rect style="fill:#292929;opacity:.4;mix-blend-mode:multiply" id="svg_126" width="42" height="42" x="-478" y="-339.5" rx="5" ry="5"/><path style="fill:#fff" id="svg_127" d="M-447.4400005340576,-309.70000076293945 l-4.170000076293945,-4.159999847412109 h2.259999990463257 a1,1 0 1 0 0,-2.069999933242798 H-454.0599994659424 a1.0800000429153442,1.0800000429153442 0 0 0 -1.1100000143051147,1 v0 s0,0 0,0.05999999865889549 v4.639999866485596 h0 a1,1 0 1 0 2.0799999237060547,0 V-312.42000007629395 l4.190000057220459,4.190000057220459 a1,1 0 0 0 1.4600000381469727,0 A1,1 0 0 0 -447.4400005340576,-309.70000076293945 z"/><path style="fill:#fff" id="svg_128" d="M-458.82999992370605,-314.8999996185303 a1.0800000429153442,1.0800000429153442 0 0 0 -1.1100000143051147,-1 H-464.6499996185303 a1,1 0 1 0 0,2.069999933242798 H-462.3999996185303 L-466.5600004196167,-309.70000076293945 a1,1 0 0 0 1.4700000286102295,1.4700000286102295 l4.179999828338623,-4.190000057220459 v2.259999990463257 a1,1 0 1 0 2.0799999237060547,0 V-314.79999923706055 s0,0 0,-0.05999999865889549 A0.07999999821186066,0.07999999821186066 0 0 1 -458.82999992370605,-314.8999996185303 z"/><path style="fill:#fff" id="svg_129" d="M-454.0599994659424,-319 h4.699999809265137 a1,1 0 1 0 0,-2.0799999237060547 H-451.61000061035156 l4.170000076293945,-4.159999847412109 a1,1 0 0 0 0,-1.4700000286102295 a1,1 0 0 0 -1.4600000381469727,0 L-453.0900001525879,-322.5 V-324.7799997329712 a1,1 0 1 0 -2.0799999237060547,0 v4.639999866485596 a0.4300000071525574,0.4300000071525574 0 0 0 0,0.05000000074505806 v0.05000000074505806 A1.090000033378601,1.090000033378601 0 0 0 -454.0599994659424,-319 z"/><path style="fill:#fff" id="svg_130" d="M-459.8700008392334,-325.8800001144409 a1.0800000429153442,1.0800000429153442 0 0 0 -1,1.090000033378601 V-322.5 l-4.179999828338623,-4.190000057220459 a1,1 0 0 0 -1.4700000286102295,0 a1,1 0 0 0 0,1.4600000381469727 l4.159999847412109,4.170000076293945 H-464.6499996185303 a1,1 0 1 0 0,2.0799999237060547 h4.710000038146973 a1.090000033378601,1.090000033378601 0 0 0 1.1100000143051147,-1 a0.07999999821186066,0.07999999821186066 0 0 1 0,0 s0,0 0,-0.05999999865889549 V-324.789999961853 A1.0700000524520874,1.0700000524520874 0 0 0 -459.8700008392334,-325.8800001144409 z"/></g></g></g></g></g><g id="svg_131"><g id="svg_132" transform="translate(253, 568) scale(1.5)"><path style="fill:#77c428;fill-opacity:1;stroke:#57ad02;stroke-width:1;stroke-linecap:round;stroke-opacity:1" id="svg_133" d="m-158.8333282470703,-104.66666412353516 L-158.8333282470703,-108.66666412353516 A4,4 90 0 1 -154.8333282470703,-112.66666412353516 L-150.8333282470703,-112.66666412353516 L-150.8333282470703,-110.66666412353516 L-140.8333282470703,-110.66666412353516 L-140.8333282470703,-112.66666412353516 L-110.83332824707031,-112.66666412353516 L-106.83332824707031,-112.66666412353516 A4,4 90 0 1 -102.83332824707031,-108.66666412353516 L-102.83332824707031,-104.66666412353516 L-106.83332824707031,-104.66666412353516 L-106.83332824707031,-107.66666412353516 L-110.83332824707031,-107.66666412353516 L-110.83332824707031,-97.66666412353516 L-106.83332824707031,-97.66666412353516 L-106.83332824707031,-100.66666412353516 L-102.83332824707031,-100.66666412353516 L-102.83332824707031,-83.66666412353516 L-106.83332824707031,-83.66666412353516 L-106.83332824707031,-86.66666412353516 L-110.83332824707031,-86.66666412353516 L-110.83332824707031,-76.66666412353516 L-106.83332824707031,-76.66666412353516 L-106.83332824707031,-79.66666412353516 L-102.83332824707031,-79.66666412353516 L-102.83332824707031,-75.66666412353516 A4,4 90 0 1 -106.83332824707031,-71.66666412353516 L-110.83332824707031,-71.66666412353516 L-140.8333282470703,-71.66666412353516 L-141.8333282470703,-71.66666412353516 L-141.8333282470703,-69.66666412353516 L-149.8333282470703,-69.66666412353516 L-149.8333282470703,-71.66666412353516 L-150.8333282470703,-71.66666412353516 L-154.8333282470703,-71.66666412353516 A4,4 90 0 1 -158.8333282470703,-75.66666412353516 L-158.8333282470703,-79.66666412353516 L-158.8333282470703,-100.66666412353516 L-158.8333282470703,-104.66666412353516 z"/><text style="font-size:10px;fill:#282828;font-family:sans-serif;text-anchor:end" id="svg_134" x="-159.333" y="-113.167"><tspan id="svg_135" x="-113.333" y="-89.167">pitch</tspan></text><text style="font-size:6.666666666666667px;fill:#282828;font-family:sans-serif;text-anchor:end" id="svg_136" x="-159.333" y="-113.167"><tspan id="svg_137" x="-113.333" y="-101.167">name</tspan></text><text style="font-size:6.666666666666667px;fill:#282828;font-family:sans-serif;text-anchor:end" id="svg_138" x="-159.333" y="-113.167"><tspan id="svg_139" x="-113.333" y="-80.167">octave</tspan></text></g></g><g id="svg_140"><g id="svg_141" transform="translate(327, 568) scale(1.5)"><path style="fill:#77c428;fill-opacity:1;stroke:#57ad02;stroke-width:1;stroke-linecap:round;stroke-opacity:1" id="svg_142" d="m-150.8333282470703,-112.66666412353516 L-90.83332824707031,-112.66666412353516 L-90.83332824707031,-92.66666412353516 L-150.8333282470703,-92.66666412353516 L-150.8333282470703,-100.66666412353516 L-150.8333282470703,-101.66666412353516 L-156.8333282470703,-101.66666412353516 L-156.8333282470703,-98.66666412353516 L-158.8333282470703,-98.66666412353516 L-158.8333282470703,-106.66666412353516 L-156.8333282470703,-106.66666412353516 L-156.8333282470703,-103.66666412353516 L-150.8333282470703,-103.66666412353516 L-150.8333282470703,-104.66666412353516 z"/><text style="font-size:10px;fill:#282828;font-family:sans-serif;text-anchor:start" id="svg_143" x="-159.333" y="-113.167"><tspan id="svg_144" x="-146.333" y="-99.167">sol</tspan></text></g></g><g id="svg_145"><g id="svg_146" transform="translate(327, 600) scale(1.5)"><path style="fill:#ff5293;fill-opacity:1;stroke:#ff2c76;stroke-width:1;stroke-linecap:round;stroke-opacity:1" id="svg_147" d="m-150.8333282470703,-112.66666412353516 L-90.83332824707031,-112.66666412353516 L-90.83332824707031,-92.66666412353516 L-150.8333282470703,-92.66666412353516 L-150.8333282470703,-100.66666412353516 L-150.8333282470703,-101.66666412353516 L-156.8333282470703,-101.66666412353516 L-156.8333282470703,-98.66666412353516 L-158.8333282470703,-98.66666412353516 L-158.8333282470703,-106.66666412353516 L-156.8333282470703,-106.66666412353516 L-156.8333282470703,-103.66666412353516 L-150.8333282470703,-103.66666412353516 L-150.8333282470703,-104.66666412353516 z"/><text style="font-size:10px;fill:#282828;font-family:sans-serif;text-anchor:start" id="svg_148" x="-159.333" y="-113.167"><tspan id="svg_149" x="-146.333" y="-99.167">4</tspan></text></g></g><g id="svg_150"><g id="svg_151" transform="translate(253, 631) scale(1.5)"><path style="fill:#77c428;fill-opacity:1;stroke:#57ad02;stroke-width:1;stroke-linecap:round;stroke-opacity:1" id="svg_152" d="m-158.8333282470703,-104.66666412353516 L-158.8333282470703,-108.66666412353516 A4,4 90 0 1 -154.8333282470703,-112.66666412353516 L-150.8333282470703,-112.66666412353516 L-150.8333282470703,-110.66666412353516 L-140.8333282470703,-110.66666412353516 L-140.8333282470703,-112.66666412353516 L-110.83332824707031,-112.66666412353516 L-106.83332824707031,-112.66666412353516 A4,4 90 0 1 -102.83332824707031,-108.66666412353516 L-102.83332824707031,-104.66666412353516 L-106.83332824707031,-104.66666412353516 L-106.83332824707031,-107.66666412353516 L-110.83332824707031,-107.66666412353516 L-110.83332824707031,-97.66666412353516 L-106.83332824707031,-97.66666412353516 L-106.83332824707031,-100.66666412353516 L-102.83332824707031,-100.66666412353516 L-102.83332824707031,-83.66666412353516 L-106.83332824707031,-83.66666412353516 L-106.83332824707031,-86.66666412353516 L-110.83332824707031,-86.66666412353516 L-110.83332824707031,-76.66666412353516 L-106.83332824707031,-76.66666412353516 L-106.83332824707031,-79.66666412353516 L-102.83332824707031,-79.66666412353516 L-102.83332824707031,-75.66666412353516 A4,4 90 0 1 -106.83332824707031,-71.66666412353516 L-110.83332824707031,-71.66666412353516 L-140.8333282470703,-71.66666412353516 L-141.8333282470703,-71.66666412353516 L-141.8333282470703,-69.66666412353516 L-149.8333282470703,-69.66666412353516 L-149.8333282470703,-71.66666412353516 L-150.8333282470703,-71.66666412353516 L-154.8333282470703,-71.66666412353516 A4,4 90 0 1 -158.8333282470703,-75.66666412353516 L-158.8333282470703,-79.66666412353516 L-158.8333282470703,-100.66666412353516 L-158.8333282470703,-104.66666412353516 z"/><text style="font-size:10px;fill:#282828;font-family:sans-serif;text-anchor:end" id="svg_153" x="-159.333" y="-113.167"><tspan id="svg_154" x="-113.333" y="-89.167">pitch</tspan></text><text style="font-size:6.666666666666667px;fill:#282828;font-family:sans-serif;text-anchor:end" id="svg_155" x="-159.333" y="-113.167"><tspan id="svg_156" x="-113.333" y="-101.167">name</tspan></text><text style="font-size:6.666666666666667px;fill:#282828;font-family:sans-serif;text-anchor:end" id="svg_157" x="-159.333" y="-113.167"><tspan id="svg_158" x="-113.333" y="-80.167">octave</tspan></text></g></g><g id="svg_159"><g id="svg_160" transform="translate(327, 631) scale(1.5)"><path style="fill:#77c428;fill-opacity:1;stroke:#57ad02;stroke-width:1;stroke-linecap:round;stroke-opacity:1" id="svg_161" d="m-150.8333282470703,-112.66666412353516 L-90.83332824707031,-112.66666412353516 L-90.83332824707031,-92.66666412353516 L-150.8333282470703,-92.66666412353516 L-150.8333282470703,-100.66666412353516 L-150.8333282470703,-101.66666412353516 L-156.8333282470703,-101.66666412353516 L-156.8333282470703,-98.66666412353516 L-158.8333282470703,-98.66666412353516 L-158.8333282470703,-106.66666412353516 L-156.8333282470703,-106.66666412353516 L-156.8333282470703,-103.66666412353516 L-150.8333282470703,-103.66666412353516 L-150.8333282470703,-104.66666412353516 z"/><text style="font-size:10px;fill:#282828;font-family:sans-serif;text-anchor:start" id="svg_162" x="-159.333" y="-113.167"><tspan id="svg_163" x="-146.333" y="-99.167">mi</tspan></text></g></g><g id="svg_164"><g id="svg_165" transform="translate(327, 663) scale(1.5)"><path style="fill:#ff5293;fill-opacity:1;stroke:#ff2c76;stroke-width:1;stroke-linecap:round;stroke-opacity:1" id="svg_166" d="m-150.8333282470703,-112.66666412353516 L-90.83332824707031,-112.66666412353516 L-90.83332824707031,-92.66666412353516 L-150.8333282470703,-92.66666412353516 L-150.8333282470703,-100.66666412353516 L-150.8333282470703,-101.66666412353516 L-156.8333282470703,-101.66666412353516 L-156.8333282470703,-98.66666412353516 L-158.8333282470703,-98.66666412353516 L-158.8333282470703,-106.66666412353516 L-156.8333282470703,-106.66666412353516 L-156.8333282470703,-103.66666412353516 L-150.8333282470703,-103.66666412353516 L-150.8333282470703,-104.66666412353516 z"/><text style="font-size:10px;fill:#282828;font-family:sans-serif;text-anchor:start" id="svg_167" x="-159.333" y="-113.167"><tspan id="svg_168" x="-146.333" y="-99.167">4</tspan></text></g></g><g id="svg_169"><g id="svg_170" transform="translate(253, 694) scale(1.5)"><path style="fill:#77c428;fill-opacity:1;stroke:#57ad02;stroke-width:1;stroke-linecap:round;stroke-opacity:1" id="svg_171" d="m-158.8333282470703,-104.66666412353516 L-158.8333282470703,-108.66666412353516 A4,4 90 0 1 -154.8333282470703,-112.66666412353516 L-150.8333282470703,-112.66666412353516 L-150.8333282470703,-110.66666412353516 L-140.8333282470703,-110.66666412353516 L-140.8333282470703,-112.66666412353516 L-110.83332824707031,-112.66666412353516 L-106.83332824707031,-112.66666412353516 A4,4 90 0 1 -102.83332824707031,-108.66666412353516 L-102.83332824707031,-104.66666412353516 L-106.83332824707031,-104.66666412353516 L-106.83332824707031,-107.66666412353516 L-110.83332824707031,-107.66666412353516 L-110.83332824707031,-97.66666412353516 L-106.83332824707031,-97.66666412353516 L-106.83332824707031,-100.66666412353516 L-102.83332824707031,-100.66666412353516 L-102.83332824707031,-83.66666412353516 L-106.83332824707031,-83.66666412353516 L-106.83332824707031,-86.66666412353516 L-110.83332824707031,-86.66666412353516 L-110.83332824707031,-76.66666412353516 L-106.83332824707031,-76.66666412353516 L-106.83332824707031,-79.66666412353516 L-102.83332824707031,-79.66666412353516 L-102.83332824707031,-75.66666412353516 A4,4 90 0 1 -106.83332824707031,-71.66666412353516 L-110.83332824707031,-71.66666412353516 L-140.8333282470703,-71.66666412353516 L-141.8333282470703,-71.66666412353516 L-141.8333282470703,-69.66666412353516 L-149.8333282470703,-69.66666412353516 L-149.8333282470703,-71.66666412353516 L-150.8333282470703,-71.66666412353516 L-154.8333282470703,-71.66666412353516 A4,4 90 0 1 -158.8333282470703,-75.66666412353516 L-158.8333282470703,-79.66666412353516 L-158.8333282470703,-100.66666412353516 L-158.8333282470703,-104.66666412353516 z"/><text style="font-size:10px;fill:#282828;font-family:sans-serif;text-anchor:end" id="svg_172" x="-159.333" y="-113.167"><tspan id="svg_173" x="-113.333" y="-89.167">pitch</tspan></text><text style="font-size:6.666666666666667px;fill:#282828;font-family:sans-serif;text-anchor:end" id="svg_174" x="-159.333" y="-113.167"><tspan id="svg_175" x="-113.333" y="-101.167">name</tspan></text><text style="font-size:6.666666666666667px;fill:#282828;font-family:sans-serif;text-anchor:end" id="svg_176" x="-159.333" y="-113.167"><tspan id="svg_177" x="-113.333" y="-80.167">octave</tspan></text></g></g><g id="svg_178"><g id="svg_179" transform="translate(327, 694) scale(1.5)"><path style="fill:#77c428;fill-opacity:1;stroke:#57ad02;stroke-width:1;stroke-linecap:round;stroke-opacity:1" id="svg_180" d="m-150.8333282470703,-112.66666412353516 L-90.83332824707031,-112.66666412353516 L-90.83332824707031,-92.66666412353516 L-150.8333282470703,-92.66666412353516 L-150.8333282470703,-100.66666412353516 L-150.8333282470703,-101.66666412353516 L-156.8333282470703,-101.66666412353516 L-156.8333282470703,-98.66666412353516 L-158.8333282470703,-98.66666412353516 L-158.8333282470703,-106.66666412353516 L-156.8333282470703,-106.66666412353516 L-156.8333282470703,-103.66666412353516 L-150.8333282470703,-103.66666412353516 L-150.8333282470703,-104.66666412353516 z"/><text style="font-size:10px;fill:#282828;font-family:sans-serif;text-anchor:start" id="svg_181" x="-159.333" y="-113.167"><tspan id="svg_182" x="-146.333" y="-99.167">re</tspan></text></g></g><g id="svg_183"><g id="svg_184" transform="translate(327, 726) scale(1.5)"><path style="fill:#ff5293;fill-opacity:1;stroke:#ff2c76;stroke-width:1;stroke-linecap:round;stroke-opacity:1" id="svg_185" d="m-150.8333282470703,-112.66666412353516 L-90.83332824707031,-112.66666412353516 L-90.83332824707031,-92.66666412353516 L-150.8333282470703,-92.66666412353516 L-150.8333282470703,-100.66666412353516 L-150.8333282470703,-101.66666412353516 L-156.8333282470703,-101.66666412353516 L-156.8333282470703,-98.66666412353516 L-158.8333282470703,-98.66666412353516 L-158.8333282470703,-106.66666412353516 L-156.8333282470703,-106.66666412353516 L-156.8333282470703,-103.66666412353516 L-150.8333282470703,-103.66666412353516 L-150.8333282470703,-104.66666412353516 z"/><text style="font-size:10px;fill:#282828;font-family:sans-serif;text-anchor:start" id="svg_186" x="-159.333" y="-113.167"><tspan id="svg_187" x="-146.333" y="-99.167">4</tspan></text></g></g><g id="svg_188"><g id="svg_189" transform="translate(253, 757) scale(1.5)"><path style="fill:#ff8b2d;fill-opacity:1;stroke:#e86b0e;stroke-width:1;stroke-linecap:round;stroke-opacity:1" id="svg_190" d="m-158.8333282470703,-104.66666412353516 L-158.8333282470703,-108.66666412353516 A4,4 90 0 1 -154.8333282470703,-112.66666412353516 L-150.8333282470703,-112.66666412353516 L-150.8333282470703,-110.66666412353516 L-140.8333282470703,-110.66666412353516 L-140.8333282470703,-112.66666412353516 L-131.8333282470703,-112.66666412353516 L-91.83332824707031,-112.66666412353516 L-87.83332824707031,-112.66666412353516 A4,4 90 0 1 -83.83332824707031,-108.66666412353516 L-83.83332824707031,-104.66666412353516 L-87.83332824707031,-104.66666412353516 L-87.83332824707031,-107.66666412353516 L-91.83332824707031,-107.66666412353516 L-91.83332824707031,-97.66666412353516 L-87.83332824707031,-97.66666412353516 L-87.83332824707031,-100.66666412353516 L-83.83332824707031,-100.66666412353516 L-83.83332824707031,-96.66666412353516 A4,4 90 0 1 -87.83332824707031,-92.66666412353516 L-91.83332824707031,-92.66666412353516 L-131.8333282470703,-92.66666412353516 L-132.8333282470703,-92.66666412353516 L-132.8333282470703,-90.66666412353516 L-140.8333282470703,-90.66666412353516 L-140.8333282470703,-92.66666412353516 L-141.8333282470703,-92.66666412353516 L-145.8333282470703,-92.66666412353516 A5,5 90 0 0 -150.8333282470703,-87.66666412353516 L-150.8333282470703,-83.66666412353516 L-150.8333282470703,-79.66666412353516 L-150.8333282470703,-37.666664123535156 L-150.8333282470703,-33.666664123535156 A5,5 90 0 0 -145.8333282470703,-28.666664123535156 L-141.8333282470703,-28.666664123535156 L-141.8333282470703,-26.666664123535156 L-131.8333282470703,-26.666664123535156 L-131.8333282470703,-28.666664123535156 L-123.83332824707031,-28.666664123535156 L-123.83332824707031,-22.666664123535156 L-123.83332824707031,-16.666664123535156 L-123.83332824707031,-12.666664123535156 A4,4 90 0 1 -127.83332824707031,-8.666664123535156 L-131.8333282470703,-8.666664123535156 L-140.8333282470703,-8.666664123535156 L-141.8333282470703,-8.666664123535156 L-141.8333282470703,-6.666664123535156 L-149.8333282470703,-6.666664123535156 L-149.8333282470703,-8.666664123535156 L-150.8333282470703,-8.666664123535156 L-154.8333282470703,-8.666664123535156 A4,4 90 0 1 -158.8333282470703,-12.666664123535156 L-158.8333282470703,-16.666664123535156 z"/><text style="font-size:10px;fill:#282828;font-family:sans-serif;text-anchor:start" id="svg_191" x="-159.333" y="-113.167"><tspan id="svg_192" x="-154.333" y="-98.167">tuplet</tspan></text><text style="font-size:6.666666666666667px;fill:#282828;font-family:sans-serif;text-anchor:end" id="svg_193" x="-159.333" y="-113.167"><tspan id="svg_194" x="-94.333" y="-101.167">note value</tspan></text></g></g><g id="svg_195"><g id="svg_196" transform="translate(355, 757) scale(1.5)"><path style="fill:#ff5293;fill-opacity:1;stroke:#ff2c76;stroke-width:1;stroke-linecap:round;stroke-opacity:1" id="svg_197" d="m-150.8333282470703,-104.66666412353516 L-150.8333282470703,-108.66666412353516 A4,4 90 0 1 -146.8333282470703,-112.66666412353516 L-142.8333282470703,-112.66666412353516 L-132.8333282470703,-112.66666412353516 L-102.83332824707031,-112.66666412353516 L-98.83332824707031,-112.66666412353516 A4,4 90 0 1 -94.83332824707031,-108.66666412353516 L-94.83332824707031,-104.66666412353516 L-98.83332824707031,-104.66666412353516 L-98.83332824707031,-107.66666412353516 L-102.83332824707031,-107.66666412353516 L-102.83332824707031,-97.66666412353516 L-98.83332824707031,-97.66666412353516 L-98.83332824707031,-100.66666412353516 L-94.83332824707031,-100.66666412353516 L-94.83332824707031,-83.66666412353516 L-98.83332824707031,-83.66666412353516 L-98.83332824707031,-86.66666412353516 L-102.83332824707031,-86.66666412353516 L-102.83332824707031,-76.66666412353516 L-98.83332824707031,-76.66666412353516 L-98.83332824707031,-79.66666412353516 L-94.83332824707031,-79.66666412353516 L-94.83332824707031,-75.66666412353516 A4,4 90 0 1 -98.83332824707031,-71.66666412353516 L-102.83332824707031,-71.66666412353516 L-132.8333282470703,-71.66666412353516 L-142.8333282470703,-71.66666412353516 L-146.8333282470703,-71.66666412353516 A4,4 90 0 1 -150.8333282470703,-75.66666412353516 L-150.8333282470703,-79.66666412353516 L-150.8333282470703,-100.66666412353516 L-150.8333282470703,-101.66666412353516 L-156.8333282470703,-101.66666412353516 L-156.8333282470703,-98.66666412353516 L-158.8333282470703,-98.66666412353516 L-158.8333282470703,-106.66666412353516 L-156.8333282470703,-106.66666412353516 L-156.8333282470703,-103.66666412353516 L-150.8333282470703,-103.66666412353516 L-150.8333282470703,-104.66666412353516 z"/><text style="font-size:9px;fill:#282828;font-family:sans-serif;text-anchor:end" id="svg_198" x="-159.333" y="-113.167"><tspan id="svg_199" x="-105.333" y="-90.167">➗</tspan></text></g></g><g id="svg_204"><g id="svg_205" transform="translate(441, 757) scale(1.5)"><path style="fill:#ff5293;fill-opacity:1;stroke:#ff2c76;stroke-width:1;stroke-linecap:round;stroke-opacity:1" id="svg_206" d="m-150.8333282470703,-112.66666412353516 L-90.83332824707031,-112.66666412353516 L-90.83332824707031,-92.66666412353516 L-150.8333282470703,-92.66666412353516 L-150.8333282470703,-100.66666412353516 L-150.8333282470703,-101.66666412353516 L-156.8333282470703,-101.66666412353516 L-156.8333282470703,-98.66666412353516 L-158.8333282470703,-98.66666412353516 L-158.8333282470703,-106.66666412353516 L-156.8333282470703,-106.66666412353516 L-156.8333282470703,-103.66666412353516 L-150.8333282470703,-103.66666412353516 L-150.8333282470703,-104.66666412353516 z"/><text style="font-size:10px;fill:#282828;font-family:sans-serif;text-anchor:start" id="svg_207" x="-159.333" y="-113.167"><tspan id="svg_208" x="-146.333" y="-99.167">1</tspan></text></g></g><g id="svg_209"><g id="svg_210" transform="translate(441, 789) scale(1.5)"><path style="fill:#ff5293;fill-opacity:1;stroke:#ff2c76;stroke-width:1;stroke-linecap:round;stroke-opacity:1" id="svg_211" d="m-150.8333282470703,-112.66666412353516 L-90.83332824707031,-112.66666412353516 L-90.83332824707031,-92.66666412353516 L-150.8333282470703,-92.66666412353516 L-150.8333282470703,-100.66666412353516 L-150.8333282470703,-101.66666412353516 L-156.8333282470703,-101.66666412353516 L-156.8333282470703,-98.66666412353516 L-158.8333282470703,-98.66666412353516 L-158.8333282470703,-106.66666412353516 L-156.8333282470703,-106.66666412353516 L-156.8333282470703,-103.66666412353516 L-150.8333282470703,-103.66666412353516 L-150.8333282470703,-104.66666412353516 z"/><text style="font-size:10px;fill:#282828;font-family:sans-serif;text-anchor:start" id="svg_212" x="-159.333" y="-113.167"><tspan id="svg_213" x="-146.333" y="-99.167">4</tspan></text></g></g><g id="svg_214"><g id="svg_215" transform="translate(267, 789) scale(1.5)"><path style="fill:#b0b0b0;fill-opacity:1;stroke:#a0a0a0;stroke-width:1;stroke-linecap:round;stroke-opacity:1" id="svg_216" d="m-158.8333282470703,-104.66666412353516 L-158.8333282470703,-108.66666412353516 A4,4 90 0 1 -154.8333282470703,-112.66666412353516 L-150.8333282470703,-112.66666412353516 L-150.8333282470703,-110.66666412353516 L-140.8333282470703,-110.66666412353516 L-140.8333282470703,-112.66666412353516 L-120.83332824707031,-112.66666412353516 L-116.83332824707031,-112.66666412353516 A4,4 90 0 1 -112.83332824707031,-108.66666412353516 L-112.83332824707031,-104.66666412353516 L-112.83332824707031,-100.66666412353516 L-112.83332824707031,-96.66666412353516 A4,4 90 0 1 -116.83332824707031,-92.66666412353516 L-120.83332824707031,-92.66666412353516 L-140.8333282470703,-92.66666412353516 L-141.8333282470703,-92.66666412353516 L-141.8333282470703,-90.66666412353516 L-149.8333282470703,-90.66666412353516 L-149.8333282470703,-92.66666412353516 L-150.8333282470703,-92.66666412353516 L-154.8333282470703,-92.66666412353516 A4,4 90 0 1 -158.8333282470703,-96.66666412353516 L-158.8333282470703,-100.66666412353516 z"/><text style="font-size:10px;fill:#282828;font-family:sans-serif;text-anchor:end" id="svg_217" x="-159.333" y="-113.167"><tspan id="svg_218" x="-123.333" y="-99.167">↓</tspan></text></g></g><g id="svg_219"><g id="svg_220" transform="translate(267, 821) scale(1.5)"><path style="fill:#ff8b2d;fill-opacity:1;stroke:#e86b0e;stroke-width:1;stroke-linecap:round;stroke-opacity:1" id="svg_221" d="m-158.8333282470703,-104.66666412353516 L-158.8333282470703,-108.66666412353516 A4,4 90 0 1 -154.8333282470703,-112.66666412353516 L-150.8333282470703,-112.66666412353516 L-150.8333282470703,-110.66666412353516 L-140.8333282470703,-110.66666412353516 L-140.8333282470703,-112.66666412353516 L-98.83332824707031,-112.66666412353516 L-94.83332824707031,-112.66666412353516 A4,4 90 0 1 -90.83332824707031,-108.66666412353516 L-90.83332824707031,-104.66666412353516 L-94.83332824707031,-104.66666412353516 L-94.83332824707031,-107.66666412353516 L-98.83332824707031,-107.66666412353516 L-98.83332824707031,-97.66666412353516 L-94.83332824707031,-97.66666412353516 L-94.83332824707031,-100.66666412353516 L-90.83332824707031,-100.66666412353516 L-90.83332824707031,-83.66666412353516 L-94.83332824707031,-83.66666412353516 L-94.83332824707031,-86.66666412353516 L-98.83332824707031,-86.66666412353516 L-98.83332824707031,-76.66666412353516 L-94.83332824707031,-76.66666412353516 L-94.83332824707031,-79.66666412353516 L-90.83332824707031,-79.66666412353516 L-90.83332824707031,-75.66666412353516 A4,4 90 0 1 -94.83332824707031,-71.66666412353516 L-98.83332824707031,-71.66666412353516 L-140.8333282470703,-71.66666412353516 L-141.8333282470703,-71.66666412353516 L-141.8333282470703,-69.66666412353516 L-149.8333282470703,-69.66666412353516 L-149.8333282470703,-71.66666412353516 L-150.8333282470703,-71.66666412353516 L-154.8333282470703,-71.66666412353516 A4,4 90 0 1 -158.8333282470703,-75.66666412353516 L-158.8333282470703,-79.66666412353516 L-158.8333282470703,-100.66666412353516 L-158.8333282470703,-104.66666412353516 z"/><text style="font-size:10px;fill:#282828;font-family:sans-serif;text-anchor:end" id="svg_222" x="-159.333" y="-113.167"><tspan id="svg_223" x="-101.333" y="-89.167">rhythm</tspan></text><text style="font-size:6.666666666666667px;fill:#282828;font-family:sans-serif;text-anchor:end" id="svg_224" x="-159.333" y="-113.167"><tspan id="svg_225" x="-101.333" y="-101.167">number of notes</tspan></text><text style="font-size:6.666666666666667px;fill:#282828;font-family:sans-serif;text-anchor:end" id="svg_226" x="-159.333" y="-113.167"><tspan id="svg_227" x="-101.333" y="-80.167">note value</tspan></text></g></g><g id="svg_228"><g id="svg_229" transform="translate(359, 821) scale(1.5)"><path style="fill:#ff5293;fill-opacity:1;stroke:#ff2c76;stroke-width:1;stroke-linecap:round;stroke-opacity:1" id="svg_230" d="m-150.8333282470703,-112.66666412353516 L-90.83332824707031,-112.66666412353516 L-90.83332824707031,-92.66666412353516 L-150.8333282470703,-92.66666412353516 L-150.8333282470703,-100.66666412353516 L-150.8333282470703,-101.66666412353516 L-156.8333282470703,-101.66666412353516 L-156.8333282470703,-98.66666412353516 L-158.8333282470703,-98.66666412353516 L-158.8333282470703,-106.66666412353516 L-156.8333282470703,-106.66666412353516 L-156.8333282470703,-103.66666412353516 L-150.8333282470703,-103.66666412353516 L-150.8333282470703,-104.66666412353516 z"/><text style="font-size:10px;fill:#282828;font-family:sans-serif;text-anchor:start" id="svg_231" x="-159.333" y="-113.167"><tspan id="svg_232" x="-146.333" y="-99.167">3</tspan></text></g></g><g id="svg_233"><g id="svg_234" transform="translate(359, 853) scale(1.5)"><path style="fill:#ff5293;fill-opacity:1;stroke:#ff2c76;stroke-width:1;stroke-linecap:round;stroke-opacity:1" id="svg_235" d="m-150.8333282470703,-104.66666412353516 L-150.8333282470703,-108.66666412353516 A4,4 90 0 1 -146.8333282470703,-112.66666412353516 L-142.8333282470703,-112.66666412353516 L-132.8333282470703,-112.66666412353516 L-102.83332824707031,-112.66666412353516 L-98.83332824707031,-112.66666412353516 A4,4 90 0 1 -94.83332824707031,-108.66666412353516 L-94.83332824707031,-104.66666412353516 L-98.83332824707031,-104.66666412353516 L-98.83332824707031,-107.66666412353516 L-102.83332824707031,-107.66666412353516 L-102.83332824707031,-97.66666412353516 L-98.83332824707031,-97.66666412353516 L-98.83332824707031,-100.66666412353516 L-94.83332824707031,-100.66666412353516 L-94.83332824707031,-83.66666412353516 L-98.83332824707031,-83.66666412353516 L-98.83332824707031,-86.66666412353516 L-102.83332824707031,-86.66666412353516 L-102.83332824707031,-76.66666412353516 L-98.83332824707031,-76.66666412353516 L-98.83332824707031,-79.66666412353516 L-94.83332824707031,-79.66666412353516 L-94.83332824707031,-75.66666412353516 A4,4 90 0 1 -98.83332824707031,-71.66666412353516 L-102.83332824707031,-71.66666412353516 L-132.8333282470703,-71.66666412353516 L-142.8333282470703,-71.66666412353516 L-146.8333282470703,-71.66666412353516 A4,4 90 0 1 -150.8333282470703,-75.66666412353516 L-150.8333282470703,-79.66666412353516 L-150.8333282470703,-100.66666412353516 L-150.8333282470703,-101.66666412353516 L-156.8333282470703,-101.66666412353516 L-156.8333282470703,-98.66666412353516 L-158.8333282470703,-98.66666412353516 L-158.8333282470703,-106.66666412353516 L-156.8333282470703,-106.66666412353516 L-156.8333282470703,-103.66666412353516 L-150.8333282470703,-103.66666412353516 L-150.8333282470703,-104.66666412353516 z"/><text style="font-size:9px;fill:#282828;font-family:sans-serif;text-anchor:end" id="svg_236" x="-159.333" y="-113.167"><tspan id="svg_237" x="-105.333" y="-90.167">➗</tspan></text></g></g><g id="svg_242"><g id="svg_243" transform="translate(445, 853) scale(1.5)"><path style="fill:#ff5293;fill-opacity:1;stroke:#ff2c76;stroke-width:1;stroke-linecap:round;stroke-opacity:1" id="svg_244" d="m-150.8333282470703,-112.66666412353516 L-90.83332824707031,-112.66666412353516 L-90.83332824707031,-92.66666412353516 L-150.8333282470703,-92.66666412353516 L-150.8333282470703,-100.66666412353516 L-150.8333282470703,-101.66666412353516 L-156.8333282470703,-101.66666412353516 L-156.8333282470703,-98.66666412353516 L-158.8333282470703,-98.66666412353516 L-158.8333282470703,-106.66666412353516 L-156.8333282470703,-106.66666412353516 L-156.8333282470703,-103.66666412353516 L-150.8333282470703,-103.66666412353516 L-150.8333282470703,-104.66666412353516 z"/><text style="font-size:10px;fill:#282828;font-family:sans-serif;text-anchor:start" id="svg_245" x="-159.333" y="-113.167"><tspan id="svg_246" x="-146.333" y="-99.167">1</tspan></text></g></g><g id="svg_247"><g id="svg_248" transform="translate(445, 885) scale(1.5)"><path style="fill:#ff5293;fill-opacity:1;stroke:#ff2c76;stroke-width:1;stroke-linecap:round;stroke-opacity:1" id="svg_249" d="m-150.8333282470703,-112.66666412353516 L-90.83332824707031,-112.66666412353516 L-90.83332824707031,-92.66666412353516 L-150.8333282470703,-92.66666412353516 L-150.8333282470703,-100.66666412353516 L-150.8333282470703,-101.66666412353516 L-156.8333282470703,-101.66666412353516 L-156.8333282470703,-98.66666412353516 L-158.8333282470703,-98.66666412353516 L-158.8333282470703,-106.66666412353516 L-156.8333282470703,-106.66666412353516 L-156.8333282470703,-103.66666412353516 L-150.8333282470703,-103.66666412353516 L-150.8333282470703,-104.66666412353516 z"/><text style="font-size:10px;fill:#282828;font-family:sans-serif;text-anchor:start" id="svg_250" x="-159.333" y="-113.167"><tspan id="svg_251" x="-146.333" y="-99.167">16</tspan></text></g></g></g></g></svg>