<svg xmlns="http://www.w3.org/2000/svg" width="237" height="172"><rect id="backgroundrect" width="100%" height="100%" x="0" y="0" fill="none" stroke="none"/><g class="currentLayer"><title>Layer 1</title><g><g id="svg_15"><g id="svg_16" transform="translate(309, 229) scale(1.5)"><path style="fill:#daa926;fill-opacity:1;stroke:#daaf30;stroke-width:1;stroke-linecap:round;stroke-opacity:1" id="svg_17" d="m-204.6666717529297,-144.66666650772095 L-204.6666717529297,-148.66666650772095 A4,4 90 0 1 -200.6666717529297,-152.66666650772095 L-196.6666717529297,-152.66666650772095 L-196.6666717529297,-150.66666650772095 L-186.6666717529297,-150.66666650772095 L-186.6666717529297,-152.66666650772095 L-152.6666717529297,-152.66666650772095 L-148.6666717529297,-152.66666650772095 A4,4 90 0 1 -144.6666717529297,-148.66666650772095 L-144.6666717529297,-144.66666650772095 L-148.6666717529297,-144.66666650772095 L-148.6666717529297,-147.66666650772095 L-152.6666717529297,-147.66666650772095 L-152.6666717529297,-137.66666650772095 L-148.6666717529297,-137.66666650772095 L-148.6666717529297,-140.66666650772095 L-144.6666717529297,-140.66666650772095 L-144.6666717529297,-123.66666650772095 L-148.6666717529297,-123.66666650772095 L-148.6666717529297,-126.66666650772095 L-152.6666717529297,-126.66666650772095 L-152.6666717529297,-116.66666650772095 L-148.6666717529297,-116.66666650772095 L-148.6666717529297,-119.66666650772095 L-144.6666717529297,-119.66666650772095 L-144.6666717529297,-115.66666650772095 A4,4 90 0 1 -148.6666717529297,-111.66666650772095 L-152.6666717529297,-111.66666650772095 L-186.6666717529297,-111.66666650772095 L-187.6666717529297,-111.66666650772095 L-187.6666717529297,-109.66666650772095 L-195.6666717529297,-109.66666650772095 L-195.6666717529297,-111.66666650772095 L-196.6666717529297,-111.66666650772095 L-200.6666717529297,-111.66666650772095 A4,4 90 0 1 -204.6666717529297,-115.66666650772095 L-204.6666717529297,-119.66666650772095 L-204.6666717529297,-140.66666650772095 L-204.6666717529297,-144.66666650772095 z"/><text style="font-size:10px;fill:#282828;font-family:sans-serif;text-anchor:end" id="svg_18" x="-205.167" y="-153.167"><tspan id="svg_19" x="-155.167" y="-129.167">store in</tspan></text><text style="font-size:6.666666666666667px;fill:#282828;font-family:sans-serif;text-anchor:end" id="svg_20" x="-205.167" y="-153.167"><tspan id="svg_21" x="-155.167" y="-141.167">name</tspan></text><text style="font-size:6.666666666666667px;fill:#282828;font-family:sans-serif;text-anchor:end" id="svg_22" x="-205.167" y="-153.167"><tspan id="svg_23" x="-155.167" y="-120.167">value</tspan></text></g></g><g id="svg_24"><g id="svg_25" transform="translate(389, 229) scale(1.5)"><path style="fill:#ff5942;fill-opacity:1;stroke:#ea4326;stroke-width:1;stroke-linecap:round;stroke-opacity:1" id="svg_26" d="m-196.6666717529297,-152.66666650772095 L-106.66667175292969,-152.66666650772095 L-106.66667175292969,-132.66666650772095 L-196.6666717529297,-132.66666650772095 L-196.6666717529297,-140.66666650772095 L-196.6666717529297,-141.66666650772095 L-202.6666717529297,-141.66666650772095 L-202.6666717529297,-138.66666650772095 L-204.6666717529297,-138.66666650772095 L-204.6666717529297,-146.66666650772095 L-202.6666717529297,-146.66666650772095 L-202.6666717529297,-143.66666650772095 L-196.6666717529297,-143.66666650772095 L-196.6666717529297,-144.66666650772095 z"/><text style="font-size:10px;fill:#282828;font-family:sans-serif;text-anchor:start" id="svg_27" x="-205.167" y="-153.167"><tspan id="svg_28" x="-192.167" y="-139.167">box</tspan></text></g></g><g id="svg_29"><g id="svg_30" transform="translate(389, 261) scale(1.5)"><path style="fill:#ff5293;fill-opacity:1;stroke:#ff2c76;stroke-width:1;stroke-linecap:round;stroke-opacity:1" id="svg_31" d="m-196.6666717529297,-152.66666650772095 L-136.6666717529297,-152.66666650772095 L-136.6666717529297,-132.66666650772095 L-196.6666717529297,-132.66666650772095 L-196.6666717529297,-140.66666650772095 L-196.6666717529297,-141.66666650772095 L-202.6666717529297,-141.66666650772095 L-202.6666717529297,-138.66666650772095 L-204.6666717529297,-138.66666650772095 L-204.6666717529297,-146.66666650772095 L-202.6666717529297,-146.66666650772095 L-202.6666717529297,-143.66666650772095 L-196.6666717529297,-143.66666650772095 L-196.6666717529297,-144.66666650772095 z"/><text style="font-size:10px;fill:#282828;font-family:sans-serif;text-anchor:start" id="svg_32" x="-205.167" y="-153.167"><tspan id="svg_33" x="-192.167" y="-139.167">4</tspan></text></g></g><g id="svg_34"><g id="svg_35" transform="translate(307, 316) scale(1.5)"><path style="fill:#daa926;fill-opacity:1;stroke:#daaf30;stroke-width:1;stroke-linecap:round;stroke-opacity:1" id="svg_36" d="m-196.6666717529297,-152.66666650772095 L-106.66667175292969,-152.66666650772095 L-106.66667175292969,-132.66666650772095 L-196.6666717529297,-132.66666650772095 L-196.6666717529297,-140.66666650772095 L-196.6666717529297,-141.66666650772095 L-202.6666717529297,-141.66666650772095 L-202.6666717529297,-138.66666650772095 L-204.6666717529297,-138.66666650772095 L-204.6666717529297,-146.66666650772095 L-202.6666717529297,-146.66666650772095 L-202.6666717529297,-143.66666650772095 L-196.6666717529297,-143.66666650772095 L-196.6666717529297,-144.66666650772095 z"/><text style="font-size:10px;fill:#282828;font-family:sans-serif;text-anchor:start" id="svg_37" x="-205.167" y="-153.167"><tspan id="svg_38" x="-192.167" y="-139.167">box</tspan></text></g></g><g id="svg_39"><g id="svg_40" transform="translate(310, 368) scale(1.5)"><path style="fill:#daa926;fill-opacity:1;stroke:#daaf30;stroke-width:1;stroke-linecap:round;stroke-opacity:1" id="svg_41" d="m-204.6666717529297,-144.66666650772095 L-204.6666717529297,-148.66666650772095 A4,4 90 0 1 -200.6666717529297,-152.66666650772095 L-196.6666717529297,-152.66666650772095 L-196.6666717529297,-150.66666650772095 L-186.6666717529297,-150.66666650772095 L-186.6666717529297,-152.66666650772095 L-147.6666717529297,-152.66666650772095 L-143.6666717529297,-152.66666650772095 A4,4 90 0 1 -139.6666717529297,-148.66666650772095 L-139.6666717529297,-144.66666650772095 L-143.6666717529297,-144.66666650772095 L-143.6666717529297,-147.66666650772095 L-147.6666717529297,-147.66666650772095 L-147.6666717529297,-137.66666650772095 L-143.6666717529297,-137.66666650772095 L-143.6666717529297,-140.66666650772095 L-139.6666717529297,-140.66666650772095 L-139.6666717529297,-136.66666650772095 A4,4 90 0 1 -143.6666717529297,-132.66666650772095 L-147.6666717529297,-132.66666650772095 L-186.6666717529297,-132.66666650772095 L-187.6666717529297,-132.66666650772095 L-187.6666717529297,-130.66666650772095 L-195.6666717529297,-130.66666650772095 L-195.6666717529297,-132.66666650772095 L-196.6666717529297,-132.66666650772095 L-200.6666717529297,-132.66666650772095 A4,4 90 0 1 -204.6666717529297,-136.66666650772095 L-204.6666717529297,-140.66666650772095 L-204.6666717529297,-144.66666650772095 z"/><text style="font-size:10px;fill:#282828;font-family:sans-serif;text-anchor:end" id="svg_42" x="-205.167" y="-153.167"><tspan id="svg_43" x="-150.167" y="-139.167">add 1 to</tspan></text></g></g><g id="svg_46"><g id="svg_47" transform="translate(397, 368) scale(1.5)"><path style="fill:#daa926;fill-opacity:1;stroke:#daaf30;stroke-width:1;stroke-linecap:round;stroke-opacity:1" id="svg_48" d="m-196.6666717529297,-152.66666650772095 L-106.66667175292969,-152.66666650772095 L-106.66667175292969,-132.66666650772095 L-196.6666717529297,-132.66666650772095 L-196.6666717529297,-140.66666650772095 L-196.6666717529297,-141.66666650772095 L-202.6666717529297,-141.66666650772095 L-202.6666717529297,-138.66666650772095 L-204.6666717529297,-138.66666650772095 L-204.6666717529297,-146.66666650772095 L-202.6666717529297,-146.66666650772095 L-202.6666717529297,-143.66666650772095 L-196.6666717529297,-143.66666650772095 L-196.6666717529297,-144.66666650772095 z"/><text style="font-size:10px;fill:#282828;font-family:sans-serif;text-anchor:start" id="svg_49" x="-205.167" y="-153.167"><tspan id="svg_50" x="-192.167" y="-139.167">box</tspan></text></g></g></g></g></svg>