<svg xmlns="http://www.w3.org/2000/svg" xmlns:svg="http://www.w3.org/2000/svg" id="svg2831" width="334.5" height="554.343" version="1.1" viewBox="0 0 88.503 146.67"><metadata id="metadata2828"/><g id="g106" transform="matrix(0.26458333,0,0,0.26458333,-345.54583,-36.930134)"><g id="g86" transform="translate(1319.5,180.5)"><g id="g84" transform="scale(1.5)"><path style="fill:#ff8b2d;fill-opacity:1;stroke:#e86b0e;stroke-width:1;stroke-linecap:round;stroke-opacity:1" id="path74" d="m 0.5,8.5 v -4 a 4,4 90 0 1 4,-4 h 4 v 2 h 10 v -2 h 9 60 4 a 4,4 90 0 1 4,4 v 4 h -4 v -3 h -4 v 10 h 4 v -3 h 4 v 4 a 4,4 90 0 1 -4,4 h -4 -60 -1 v 2 h -8 v -2 h -1 -4 a 5,5 90 0 0 -5,5 v 4 4 42 4 a 5,5 90 0 0 5,5 h 4 v 2 h 10 v -2 h 8 v 6 6 4 a 4,4 90 0 1 -4,4 h -4 -9 -1 v 2 h -8 v -2 h -1 -4 a 4,4 90 0 1 -4,-4 v -4 z"/><text style="font-size:10px;font-family:sans-serif;text-anchor:start;fill:#282828" id="text78"><tspan id="tspan76" x="20" y="15">おんぷ</tspan></text><text style="font-size:6.66666651px;font-family:sans-serif;text-anchor:end;fill:#282828" id="text82"><tspan id="tspan80" x="85" y="12">ながさ</tspan></text></g></g><g id="g104" transform="matrix(0.5,0,0,0.5,1319.5,184.5)"><g style="isolation:isolate" id="g102"><g id="g100" data-name="レイヤー 2"><g id="g98"><rect style="opacity:.4;mix-blend-mode:multiply;fill:#292929" id="rect88" width="42" height="42" x="0" y="0" rx="5" ry="5"/><path style="fill:#fff" id="path90" d="m 30.56,29.8 -4.17,-4.16 h 2.26 a 1.035,1.035 0 1 0 0,-2.07 h -4.71 a 1.08,1.08 0 0 0 -1.11,1 v 0 c 0,0 0,0 0,0.06 v 4.64 0 a 1.04,1.04 0 1 0 2.08,0 v -2.19 l 4.19,4.19 a 1,1 0 0 0 1.46,0 1,1 0 0 0 0,-1.47 z"/><path style="fill:#fff" id="path92" d="m 19.17,24.6 a 1.08,1.08 0 0 0 -1.11,-1 h -4.71 a 1.035,1.035 0 1 0 0,2.07 h 2.25 l -4.16,4.13 a 1.039447,1.039447 0 0 0 1.47,1.47 l 4.18,-4.19 v 2.26 a 1.04,1.04 0 1 0 2.08,0 V 24.7 c 0,0 0,0 0,-0.06 a 0.08,0.08 0 0 1 0,-0.04 z"/><path style="fill:#fff" id="path94" d="m 23.94,20.5 h 4.7 a 1.04,1.04 0 1 0 0,-2.08 h -2.25 l 4.17,-4.16 a 1,1 0 0 0 0,-1.47 1,1 0 0 0 -1.46,0 L 24.91,17 v -2.28 a 1.04,1.04 0 1 0 -2.08,0 v 4.64 a 0.43,0.43 0 0 0 0,0.05 v 0.05 a 1.09,1.09 0 0 0 1.11,1.04 z"/><path style="fill:#fff" id="path96" d="m 18.13,13.62 a 1.08,1.08 0 0 0 -1,1.09 V 17 l -4.18,-4.19 a 1,1 0 0 0 -1.47,0 1,1 0 0 0 0,1.46 l 4.16,4.17 h -2.29 a 1.04,1.04 0 1 0 0,2.08 h 4.71 a 1.09,1.09 0 0 0 1.11,-1 c 0,0 0,0 0,-0.06 v -4.75 a 1.07,1.07 0 0 0 -1.04,-1.09 z"/></g></g></g></g></g><g id="g124" transform="matrix(0.26458333,0,0,0.26458333,38.496873,10.827157)"><g id="g122" transform="scale(1.5)"><path style="fill:#ff5293;fill-opacity:1;stroke:#ff2c76;stroke-width:1;stroke-linecap:round;stroke-opacity:1" id="path108" d="m 8.5,8.5 v -4 a 4,4 90 0 1 4,-4 h 4 10 30 4 a 4,4 90 0 1 4,4 v 4 h -4 v -3 h -4 v 10 h 4 v -3 h 4 v 17 h -4 v -3 h -4 v 10 h 4 v -3 h 4 v 4 a 4,4 90 0 1 -4,4 h -4 -30 -10 -4 a 4,4 90 0 1 -4,-4 v -4 -21 -1 h -6 v 3 h -2 v -8 h 2 v 3 h 6 z"/><text style="font-size:9px;font-family:sans-serif;text-anchor:end;fill:#282828" id="text112"><tspan id="tspan110" x="54" y="23">➗</tspan></text></g></g><g id="g134" transform="matrix(0.26458333,0,0,0.26458333,61.118748,10.827157)"><g id="g132" transform="scale(1.5)"><path style="fill:#ff5293;fill-opacity:1;stroke:#ff2c76;stroke-width:1;stroke-linecap:round;stroke-opacity:1" id="path126" d="m 8.5,0.5 h 60 v 20 h -60 v -8 -1 h -6 v 3 h -2 v -8 h 2 v 3 h 6 v -1 z"/><text style="font-size:10px;font-family:sans-serif;text-anchor:start;fill:#282828" id="text130"><tspan id="tspan128" x="13" y="14">1</tspan></text></g></g><g id="g144" transform="matrix(0.26458333,0,0,0.26458333,61.118748,19.161532)"><g id="g142" transform="scale(1.5)"><path style="fill:#ff5293;fill-opacity:1;stroke:#ff2c76;stroke-width:1;stroke-linecap:round;stroke-opacity:1" id="path136" d="m 8.5,0.5 h 60 v 20 h -60 v -8 -1 h -6 v 3 h -2 v -8 h 2 v 3 h 6 v -1 z"/><text style="font-size:10px;font-family:sans-serif;text-anchor:start;fill:#282828" id="text140"><tspan id="tspan138" x="13" y="14">4</tspan></text></g></g><g id="g154" transform="matrix(0.26458333,0,0,0.26458333,7.1437489,19.161532)"><g id="g152" transform="scale(1.5)"><path style="fill:#b0b0b0;fill-opacity:1;stroke:#a0a0a0;stroke-width:1;stroke-linecap:round;stroke-opacity:1" id="path146" d="m 0.5,8.5 v -4 a 4,4 90 0 1 4,-4 h 4 v 2 h 10 v -2 h 20 4 a 4,4 90 0 1 4,4 v 4 4 4 a 4,4 90 0 1 -4,4 h -4 -20 -1 v 2 h -8 v -2 h -1 -4 a 4,4 90 0 1 -4,-4 v -4 z"/><text style="font-size:10px;font-family:sans-serif;text-anchor:end;fill:#282828" id="text150"><tspan id="tspan148" x="36" y="14">↓</tspan></text></g></g><path style="fill:#77c428;fill-opacity:1;stroke:#57ad02;stroke-width:.39687499;stroke-linecap:round;stroke-opacity:1" id="path156" d="m 7.3421864,30.869344 v -1.5875 c 0,-0.876752 0.710748,-1.5875 1.5875,-1.5875 h 1.5874996 v 0.79375 h 3.96875 v -0.79375 h 20.372918 1.5875 c 0.876752,0 1.5875,0.710748 1.5875,1.5875 v 1.5875 h -1.5875 v -1.190625 h -1.5875 v 3.96875 h 1.5875 v -1.190624 h 1.5875 v 6.746874 h -1.5875 v -1.190625 h -1.5875 v 3.96875 h 1.5875 v -1.190625 h 1.5875 v 1.587501 c 0,0.876752 -0.710748,1.587499 -1.5875,1.587499 h -1.5875 -20.372918 -0.396875 v 0.79375 h -3.175 v -0.79375 H 10.517186 8.9296864 c -0.876752,0 -1.5875,-0.710747 -1.5875,-1.587499 v -1.587501 -8.334374 z"/><text style="font-size:3.96875px;font-family:sans-serif;text-anchor:end;fill:#282828;stroke-width:.39687499" id="text160" x="15.61" y="27.496"><tspan id="tspan158" x="33.867" y="37.021" style="stroke-width:.39687499">おとの たかさ</tspan></text><text style="font-size:2.64583325px;font-family:sans-serif;text-anchor:end;fill:#282828;stroke-width:.39687499" id="text164" x="15.61" y="27.496"><tspan id="tspan162" x="33.867" y="32.258" style="stroke-width:.39687499">なまえ</tspan></text><text style="font-size:2.64583325px;font-family:sans-serif;text-anchor:end;fill:#282828;stroke-width:.39687499" id="text168" x="15.61" y="27.496"><tspan id="tspan166" x="33.867" y="40.593" style="stroke-width:.39687499">オクターヴの たかさ</tspan></text><g id="g182" transform="matrix(0.26458333,0,0,0.26458333,35.057296,27.495907)"><g id="g180" transform="scale(1.5)"><path style="fill:#77c428;fill-opacity:1;stroke:#57ad02;stroke-width:1;stroke-linecap:round;stroke-opacity:1" id="path174" d="m 8.5,0.5 h 60 v 20 h -60 v -8 -1 h -6 v 3 h -2 v -8 h 2 v 3 h 6 v -1 z"/><text style="font-size:10px;font-family:sans-serif;text-anchor:start;fill:#282828" id="text178"><tspan id="tspan176" x="13" y="14">ソ</tspan></text></g></g><g id="g192" transform="matrix(0.26458333,0,0,0.26458333,35.057296,35.830282)"><g id="g190" transform="scale(1.5)"><path style="fill:#ff5293;fill-opacity:1;stroke:#ff2c76;stroke-width:1;stroke-linecap:round;stroke-opacity:1" id="path184" d="m 8.5,0.5 h 60 v 20 h -60 v -8 -1 h -6 v 3 h -2 v -8 h 2 v 3 h 6 v -1 z"/><text style="font-size:10px;font-family:sans-serif;text-anchor:start;fill:#282828" id="text188"><tspan id="tspan186" x="13" y="14">4</tspan></text></g></g><g id="g226" transform="matrix(0.26458333,0,0,0.26458333,-345.54583,-36.930134)"><g id="g206" transform="translate(1319.5,338)"><g id="g204" transform="scale(1.5)"><path style="fill:#ff8b2d;fill-opacity:1;stroke:#e86b0e;stroke-width:1;stroke-linecap:round;stroke-opacity:1" id="path194" d="m 0.5,8.5 v -4 a 4,4 90 0 1 4,-4 h 4 v 2 h 10 v -2 h 9 60 4 a 4,4 90 0 1 4,4 v 4 h -4 v -3 h -4 v 10 h 4 v -3 h 4 v 4 a 4,4 90 0 1 -4,4 h -4 -60 -1 v 2 h -8 v -2 h -1 -4 a 5,5 90 0 0 -5,5 v 4 4 42 4 a 5,5 90 0 0 5,5 h 4 v 2 h 10 v -2 h 8 v 6 6 4 a 4,4 90 0 1 -4,4 h -4 -9 -1 v 2 h -8 v -2 h -1 -4 a 4,4 90 0 1 -4,-4 v -4 z"/><text style="font-size:10px;font-family:sans-serif;text-anchor:start;fill:#282828" id="text198"><tspan id="tspan196" x="20" y="15">おんぷ</tspan></text><text style="font-size:6.66666651px;font-family:sans-serif;text-anchor:end;fill:#282828" id="text202"><tspan id="tspan200" x="85" y="12">ながさ</tspan></text></g></g><g id="g224" transform="matrix(0.5,0,0,0.5,1319.5,342)"><g style="isolation:isolate" id="g222"><g id="g220" data-name="レイヤー 2"><g id="g218"><rect style="opacity:.4;mix-blend-mode:multiply;fill:#292929" id="rect208" width="42" height="42" x="0" y="0" rx="5" ry="5"/><path style="fill:#fff" id="path210" d="m 30.56,29.8 -4.17,-4.16 h 2.26 a 1.035,1.035 0 1 0 0,-2.07 h -4.71 a 1.08,1.08 0 0 0 -1.11,1 v 0 c 0,0 0,0 0,0.06 v 4.64 0 a 1.04,1.04 0 1 0 2.08,0 v -2.19 l 4.19,4.19 a 1,1 0 0 0 1.46,0 1,1 0 0 0 0,-1.47 z"/><path style="fill:#fff" id="path212" d="m 19.17,24.6 a 1.08,1.08 0 0 0 -1.11,-1 h -4.71 a 1.035,1.035 0 1 0 0,2.07 h 2.25 l -4.16,4.13 a 1.039447,1.039447 0 0 0 1.47,1.47 l 4.18,-4.19 v 2.26 a 1.04,1.04 0 1 0 2.08,0 V 24.7 c 0,0 0,0 0,-0.06 a 0.08,0.08 0 0 1 0,-0.04 z"/><path style="fill:#fff" id="path214" d="m 23.94,20.5 h 4.7 a 1.04,1.04 0 1 0 0,-2.08 h -2.25 l 4.17,-4.16 a 1,1 0 0 0 0,-1.47 1,1 0 0 0 -1.46,0 L 24.91,17 v -2.28 a 1.04,1.04 0 1 0 -2.08,0 v 4.64 a 0.43,0.43 0 0 0 0,0.05 v 0.05 a 1.09,1.09 0 0 0 1.11,1.04 z"/><path style="fill:#fff" id="path216" d="m 18.13,13.62 a 1.08,1.08 0 0 0 -1,1.09 V 17 l -4.18,-4.19 a 1,1 0 0 0 -1.47,0 1,1 0 0 0 0,1.46 l 4.16,4.17 h -2.29 a 1.04,1.04 0 1 0 0,2.08 h 4.71 a 1.09,1.09 0 0 0 1.11,-1 c 0,0 0,0 0,-0.06 v -4.75 a 1.07,1.07 0 0 0 -1.04,-1.09 z"/></g></g></g></g></g><g id="g244" transform="matrix(0.26458333,0,0,0.26458333,38.496873,52.499032)"><g id="g242" transform="scale(1.5)"><path style="fill:#ff5293;fill-opacity:1;stroke:#ff2c76;stroke-width:1;stroke-linecap:round;stroke-opacity:1" id="path228" d="m 8.5,8.5 v -4 a 4,4 90 0 1 4,-4 h 4 10 30 4 a 4,4 90 0 1 4,4 v 4 h -4 v -3 h -4 v 10 h 4 v -3 h 4 v 17 h -4 v -3 h -4 v 10 h 4 v -3 h 4 v 4 a 4,4 90 0 1 -4,4 h -4 -30 -10 -4 a 4,4 90 0 1 -4,-4 v -4 -21 -1 h -6 v 3 h -2 v -8 h 2 v 3 h 6 z"/><text style="font-size:9px;font-family:sans-serif;text-anchor:end;fill:#282828" id="text232"><tspan id="tspan230" x="54" y="23">➗</tspan></text></g></g><g id="g254" transform="matrix(0.26458333,0,0,0.26458333,61.118748,52.499032)"><g id="g252" transform="scale(1.5)"><path style="fill:#ff5293;fill-opacity:1;stroke:#ff2c76;stroke-width:1;stroke-linecap:round;stroke-opacity:1" id="path246" d="m 8.5,0.5 h 60 v 20 h -60 v -8 -1 h -6 v 3 h -2 v -8 h 2 v 3 h 6 v -1 z"/><text style="font-size:10px;font-family:sans-serif;text-anchor:start;fill:#282828" id="text250"><tspan id="tspan248" x="13" y="14">1</tspan></text></g></g><g id="g264" transform="matrix(0.26458333,0,0,0.26458333,61.118748,60.833406)"><g id="g262" transform="scale(1.5)"><path style="fill:#ff5293;fill-opacity:1;stroke:#ff2c76;stroke-width:1;stroke-linecap:round;stroke-opacity:1" id="path256" d="m 8.5,0.5 h 60 v 20 h -60 v -8 -1 h -6 v 3 h -2 v -8 h 2 v 3 h 6 v -1 z"/><text style="font-size:10px;font-family:sans-serif;text-anchor:start;fill:#282828" id="text260"><tspan id="tspan258" x="13" y="14">4</tspan></text></g></g><g id="g274" transform="matrix(0.26458333,0,0,0.26458333,7.1437489,60.833406)"><g id="g272" transform="scale(1.5)"><path style="fill:#b0b0b0;fill-opacity:1;stroke:#a0a0a0;stroke-width:1;stroke-linecap:round;stroke-opacity:1" id="path266" d="m 0.5,8.5 v -4 a 4,4 90 0 1 4,-4 h 4 v 2 h 10 v -2 h 20 4 a 4,4 90 0 1 4,4 v 4 4 4 a 4,4 90 0 1 -4,4 h -4 -20 -1 v 2 h -8 v -2 h -1 -4 a 4,4 90 0 1 -4,-4 v -4 z"/><text style="font-size:10px;font-family:sans-serif;text-anchor:end;fill:#282828" id="text270"><tspan id="tspan268" x="36" y="14">↓</tspan></text></g></g><path style="fill:#77c428;fill-opacity:1;stroke:#57ad02;stroke-width:.39687499;stroke-linecap:round;stroke-opacity:1" id="path276" d="m 7.3421864,72.541218 v -1.587499 c 0,-0.876753 0.710748,-1.5875 1.5875,-1.5875 h 1.5874996 v 0.79375 h 3.96875 v -0.79375 h 20.372918 1.5875 c 0.876752,0 1.864753,0.755739 1.5875,1.5875 v 1.587499 h -1.5875 v -1.190624 h -1.5875 v 3.96875 h 1.5875 v -1.190625 h 1.5875 v 6.746875 h -1.5875 v -1.190626 h -1.5875 v 3.96875 h 1.5875 v -1.190625 h 1.5875 v 1.587501 c 0,0.876752 -0.710748,1.587499 -1.5875,1.587499 h -1.5875 -20.372918 -0.396875 v 0.79375 h -3.175 v -0.79375 H 10.517186 8.9296864 c -0.876752,0 -1.5875,-0.710747 -1.5875,-1.587499 v -1.587501 -8.334374 z"/><text style="font-size:3.96875px;font-family:sans-serif;text-anchor:end;fill:#282828;stroke-width:.39687499" id="text280" x="15.61" y="69.168"><tspan id="tspan278" x="33.867" y="78.693" style="stroke-width:.39687499">おとの たかさ</tspan></text><text style="font-size:2.64583325px;font-family:sans-serif;text-anchor:end;fill:#282828;stroke-width:.39687499" id="text284" x="15.61" y="69.168"><tspan id="tspan282" x="33.867" y="73.93" style="stroke-width:.39687499">なまえ</tspan></text><text style="font-size:2.64583325px;font-family:sans-serif;text-anchor:end;fill:#282828;stroke-width:.39687499" id="text288" x="15.61" y="69.168"><tspan id="tspan286" x="33.867" y="82.265" style="stroke-width:.39687499">オクターヴの たかさ</tspan></text><g id="g302" transform="matrix(0.26458333,0,0,0.26458333,35.057296,69.167781)"><g id="g300" transform="scale(1.5)"><path style="fill:#77c428;fill-opacity:1;stroke:#57ad02;stroke-width:1;stroke-linecap:round;stroke-opacity:1" id="path294" d="m 8.5,0.5 h 60 v 20 h -60 v -8 -1 h -6 v 3 h -2 v -8 h 2 v 3 h 6 v -1 z"/><text style="font-size:10px;font-family:sans-serif;text-anchor:start;fill:#282828" id="text298"><tspan id="tspan296" x="13" y="14">ミ</tspan></text></g></g><g id="g312" transform="matrix(0.26458333,0,0,0.26458333,35.057296,77.502156)"><g id="g310" transform="scale(1.5)"><path style="fill:#ff5293;fill-opacity:1;stroke:#ff2c76;stroke-width:1;stroke-linecap:round;stroke-opacity:1" id="path304" d="m 8.5,0.5 h 60 v 20 h -60 v -8 -1 h -6 v 3 h -2 v -8 h 2 v 3 h 6 v -1 z"/><text style="font-size:10px;font-family:sans-serif;text-anchor:start;fill:#282828" id="text308"><tspan id="tspan306" x="13" y="14">4</tspan></text></g></g><g id="g346" transform="matrix(0.26458333,0,0,0.26458333,-345.54583,-36.930134)"><g id="g326" transform="translate(1319.5,495.5)"><g id="g324" transform="scale(1.5)"><path style="fill:#ff8b2d;fill-opacity:1;stroke:#e86b0e;stroke-width:1;stroke-linecap:round;stroke-opacity:1" id="path314" d="m 0.5,8.5 v -4 a 4,4 90 0 1 4,-4 h 4 v 2 h 10 v -2 h 9 60 4 a 4,4 90 0 1 4,4 v 4 h -4 v -3 h -4 v 10 h 4 v -3 h 4 v 4 a 4,4 90 0 1 -4,4 h -4 -60 -1 v 2 h -8 v -2 h -1 -4 a 5,5 90 0 0 -5,5 v 4 4 42 4 a 5,5 90 0 0 5,5 h 4 v 2 h 10 v -2 h 8 v 6 6 4 a 4,4 90 0 1 -4,4 h -4 -9 -1 v 2 h -8 v -2 h -1 -4 a 4,4 90 0 1 -4,-4 v -4 z"/><text style="font-size:10px;font-family:sans-serif;text-anchor:start;fill:#282828" id="text318"><tspan id="tspan316" x="20" y="15">おんぷ</tspan></text><text style="font-size:6.66666651px;font-family:sans-serif;text-anchor:end;fill:#282828" id="text322"><tspan id="tspan320" x="85" y="12">ながさ</tspan></text></g></g><g id="g344" transform="matrix(0.5,0,0,0.5,1319.5,499.5)"><g style="isolation:isolate" id="g342"><g id="g340" data-name="レイヤー 2"><g id="g338"><rect style="opacity:.4;mix-blend-mode:multiply;fill:#292929" id="rect328" width="42" height="42" x="0" y="0" rx="5" ry="5"/><path style="fill:#fff" id="path330" d="m 30.56,29.8 -4.17,-4.16 h 2.26 a 1.035,1.035 0 1 0 0,-2.07 h -4.71 a 1.08,1.08 0 0 0 -1.11,1 v 0 c 0,0 0,0 0,0.06 v 4.64 0 a 1.04,1.04 0 1 0 2.08,0 v -2.19 l 4.19,4.19 a 1,1 0 0 0 1.46,0 1,1 0 0 0 0,-1.47 z"/><path style="fill:#fff" id="path332" d="m 19.17,24.6 a 1.08,1.08 0 0 0 -1.11,-1 h -4.71 a 1.035,1.035 0 1 0 0,2.07 h 2.25 l -4.16,4.13 a 1.039447,1.039447 0 0 0 1.47,1.47 l 4.18,-4.19 v 2.26 a 1.04,1.04 0 1 0 2.08,0 V 24.7 c 0,0 0,0 0,-0.06 a 0.08,0.08 0 0 1 0,-0.04 z"/><path style="fill:#fff" id="path334" d="m 23.94,20.5 h 4.7 a 1.04,1.04 0 1 0 0,-2.08 h -2.25 l 4.17,-4.16 a 1,1 0 0 0 0,-1.47 1,1 0 0 0 -1.46,0 L 24.91,17 v -2.28 a 1.04,1.04 0 1 0 -2.08,0 v 4.64 a 0.43,0.43 0 0 0 0,0.05 v 0.05 a 1.09,1.09 0 0 0 1.11,1.04 z"/><path style="fill:#fff" id="path336" d="m 18.13,13.62 a 1.08,1.08 0 0 0 -1,1.09 V 17 l -4.18,-4.19 a 1,1 0 0 0 -1.47,0 1,1 0 0 0 0,1.46 l 4.16,4.17 h -2.29 a 1.04,1.04 0 1 0 0,2.08 h 4.71 a 1.09,1.09 0 0 0 1.11,-1 c 0,0 0,0 0,-0.06 v -4.75 a 1.07,1.07 0 0 0 -1.04,-1.09 z"/></g></g></g></g></g><g id="g364" transform="matrix(0.26458333,0,0,0.26458333,38.496873,94.170906)"><g id="g362" transform="scale(1.5)"><path style="fill:#ff5293;fill-opacity:1;stroke:#ff2c76;stroke-width:1;stroke-linecap:round;stroke-opacity:1" id="path348" d="m 8.5,8.5 v -4 a 4,4 90 0 1 4,-4 h 4 10 30 4 a 4,4 90 0 1 4,4 v 4 h -4 v -3 h -4 v 10 h 4 v -3 h 4 v 17 h -4 v -3 h -4 v 10 h 4 v -3 h 4 v 4 a 4,4 90 0 1 -4,4 h -4 -30 -10 -4 a 4,4 90 0 1 -4,-4 v -4 -21 -1 h -6 v 3 h -2 v -8 h 2 v 3 h 6 z"/><text style="font-size:9px;font-family:sans-serif;text-anchor:end;fill:#282828" id="text352"><tspan id="tspan350" x="54" y="23">➗</tspan></text></g></g><g id="g374" transform="matrix(0.26458333,0,0,0.26458333,61.118748,94.170906)"><g id="g372" transform="scale(1.5)"><path style="fill:#ff5293;fill-opacity:1;stroke:#ff2c76;stroke-width:1;stroke-linecap:round;stroke-opacity:1" id="path366" d="m 8.5,0.5 h 60 v 20 h -60 v -8 -1 h -6 v 3 h -2 v -8 h 2 v 3 h 6 v -1 z"/><text style="font-size:10px;font-family:sans-serif;text-anchor:start;fill:#282828" id="text370"><tspan id="tspan368" x="13" y="14">1</tspan></text></g></g><g id="g384" transform="matrix(0.26458333,0,0,0.26458333,61.118748,102.50528)"><g id="g382" transform="scale(1.5)"><path style="fill:#ff5293;fill-opacity:1;stroke:#ff2c76;stroke-width:1;stroke-linecap:round;stroke-opacity:1" id="path376" d="m 8.5,0.5 h 60 v 20 h -60 v -8 -1 h -6 v 3 h -2 v -8 h 2 v 3 h 6 v -1 z"/><text style="font-size:10px;font-family:sans-serif;text-anchor:start;fill:#282828" id="text380"><tspan id="tspan378" x="13" y="14">2</tspan></text></g></g><g id="g394" transform="matrix(0.26458333,0,0,0.26458333,7.1437489,102.50528)"><g id="g392" transform="scale(1.5)"><path style="fill:#b0b0b0;fill-opacity:1;stroke:#a0a0a0;stroke-width:1;stroke-linecap:round;stroke-opacity:1" id="path386" d="m 0.5,8.5 v -4 a 4,4 90 0 1 4,-4 h 4 v 2 h 10 v -2 h 20 4 a 4,4 90 0 1 4,4 v 4 4 4 a 4,4 90 0 1 -4,4 h -4 -20 -1 v 2 h -8 v -2 h -1 -4 a 4,4 90 0 1 -4,-4 v -4 z"/><text style="font-size:10px;font-family:sans-serif;text-anchor:end;fill:#282828" id="text390"><tspan id="tspan388" x="36" y="14">↓</tspan></text></g></g><path style="fill:#77c428;fill-opacity:1;stroke:#57ad02;stroke-width:.39687499;stroke-linecap:round;stroke-opacity:1" id="path396" d="m 7.3421864,114.2131 v -1.5875 c 0,-0.87675 0.710748,-1.5875 1.5875,-1.5875 h 1.5874996 v 0.79375 h 3.96875 v -0.79375 h 20.372918 1.5875 c 0.876752,0 1.5875,0.71075 1.5875,1.5875 v 1.5875 h -1.5875 v -1.19063 h -1.5875 v 3.96875 h 1.5875 v -1.19062 h 1.5875 v 6.74687 h -1.5875 v -1.19062 h -1.5875 v 3.96875 h 1.5875 v -1.19063 h 1.5875 v 1.5875 c 0,0.87675 -0.710748,1.5875 -1.5875,1.5875 h -1.5875 -20.372918 -0.396875 v 0.79375 h -3.175 v -0.79375 H 10.517186 8.9296864 c -0.876752,0 -1.5875,-0.71075 -1.5875,-1.5875 v -1.5875 -8.33437 z"/><text style="font-size:3.96875px;font-family:sans-serif;text-anchor:end;fill:#282828;stroke-width:.39687499" id="text400" x="15.61" y="110.84"><tspan id="tspan398" x="33.867" y="120.365" style="stroke-width:.39687499">おとの たかさ</tspan></text><text style="font-size:2.64583325px;font-family:sans-serif;text-anchor:end;fill:#282828;stroke-width:.39687499" id="text404" x="15.61" y="110.84"><tspan id="tspan402" x="33.867" y="115.602" style="stroke-width:.39687499">なまえ</tspan></text><text style="font-size:2.64583325px;font-family:sans-serif;text-anchor:end;fill:#282828;stroke-width:.39687499" id="text408" x="15.61" y="110.84"><tspan id="tspan406" x="33.867" y="123.937" style="stroke-width:.39687499">オクターヴの たかさ</tspan></text><g id="g422" transform="matrix(0.26458333,0,0,0.26458333,35.057296,110.83966)"><g id="g420" transform="scale(1.5)"><path style="fill:#77c428;fill-opacity:1;stroke:#57ad02;stroke-width:1;stroke-linecap:round;stroke-opacity:1" id="path414" d="m 8.5,0.5 h 60 v 20 h -60 v -8 -1 h -6 v 3 h -2 v -8 h 2 v 3 h 6 v -1 z"/><text style="font-size:10px;font-family:sans-serif;text-anchor:start;fill:#282828" id="text418"><tspan id="tspan416" x="13" y="14">ソ</tspan></text></g></g><g id="g432" transform="matrix(0.26458333,0,0,0.26458333,35.057296,119.17403)"><g id="g430" transform="scale(1.5)"><path style="fill:#ff5293;fill-opacity:1;stroke:#ff2c76;stroke-width:1;stroke-linecap:round;stroke-opacity:1" id="path424" d="m 8.5,0.5 h 60 v 20 h -60 v -8 -1 h -6 v 3 h -2 v -8 h 2 v 3 h 6 v -1 z"/><text style="font-size:10px;font-family:sans-serif;text-anchor:start;fill:#282828" id="text428"><tspan id="tspan426" x="13" y="14">4</tspan></text></g></g><g id="g542" transform="matrix(0.26458333,0,0,0.26458333,-345.54583,-36.930134)"><g id="g522" transform="translate(1306,140)"><g id="g520" transform="scale(1.5)"><path style="fill:#daa926;fill-opacity:1;stroke:#daaf30;stroke-width:1;stroke-linecap:round;stroke-opacity:1" id="path510" d="m 0.5,14.5 v -4 a 4,4 90 0 1 4,-4 h 4 l 5,-6 5,6 h 9 52 4 a 4,4 90 0 1 4,4 v 4 h -4 v -3 h -4 v 10 h 4 v -3 h 4 v 4 a 4,4 90 0 1 -4,4 h -4 -52 -1 v 2 h -8 v -2 h -1 -4 a 5,5 90 0 0 -5,5 v 4 4 294 4 a 5,5 90 0 0 5,5 h 4 v 2 h 10 v -2 h 8 v 6 6 4 a 4,4 90 0 1 -4,4 h -4 -9 l -5,6 -5,-6 h -4 a 4,4 90 0 1 -4,-4 v -4 z"/><text style="font-size:10px;font-family:sans-serif;text-anchor:start;fill:#282828" id="text514"><tspan id="tspan512" x="20" y="22">アクション</tspan></text></g></g><g id="g540" transform="matrix(0.5,0,0,0.5,1306,152)"><g style="isolation:isolate" id="g538"><g id="g536" data-name="レイヤー 2"><g id="g534"><rect style="opacity:.4;mix-blend-mode:multiply;fill:#292929" id="rect524" width="42" height="42" x="0" y="0" rx="5" ry="5"/><path style="fill:#fff" id="path526" d="m 30.56,29.8 -4.17,-4.16 h 2.26 a 1.035,1.035 0 1 0 0,-2.07 h -4.71 a 1.08,1.08 0 0 0 -1.11,1 v 0 c 0,0 0,0 0,0.06 v 4.64 0 a 1.04,1.04 0 1 0 2.08,0 v -2.19 l 4.19,4.19 a 1,1 0 0 0 1.46,0 1,1 0 0 0 0,-1.47 z"/><path style="fill:#fff" id="path528" d="m 19.17,24.6 a 1.08,1.08 0 0 0 -1.11,-1 h -4.71 a 1.035,1.035 0 1 0 0,2.07 h 2.25 l -4.16,4.13 a 1.039447,1.039447 0 0 0 1.47,1.47 l 4.18,-4.19 v 2.26 a 1.04,1.04 0 1 0 2.08,0 V 24.7 c 0,0 0,0 0,-0.06 a 0.08,0.08 0 0 1 0,-0.04 z"/><path style="fill:#fff" id="path530" d="m 23.94,20.5 h 4.7 a 1.04,1.04 0 1 0 0,-2.08 h -2.25 l 4.17,-4.16 a 1,1 0 0 0 0,-1.47 1,1 0 0 0 -1.46,0 L 24.91,17 v -2.28 a 1.04,1.04 0 1 0 -2.08,0 v 4.64 a 0.43,0.43 0 0 0 0,0.05 v 0.05 a 1.09,1.09 0 0 0 1.11,1.04 z"/><path style="fill:#fff" id="path532" d="m 18.13,13.62 a 1.08,1.08 0 0 0 -1,1.09 V 17 l -4.18,-4.19 a 1,1 0 0 0 -1.47,0 1,1 0 0 0 0,1.46 l 4.16,4.17 h -2.29 a 1.04,1.04 0 1 0 0,2.08 h 4.71 a 1.09,1.09 0 0 0 1.11,-1 c 0,0 0,0 0,-0.06 v -4.75 a 1.07,1.07 0 0 0 -1.04,-1.09 z"/></g></g></g></g></g><g id="g552" transform="matrix(0.26458333,0,0,0.26458333,31.749999,2.4927822)"><g id="g550" transform="scale(1.5)"><path style="fill:#ff5942;fill-opacity:1;stroke-width:1;stroke-linecap:round;stroke-opacity:1" id="path544" d="m 8.5,0.5 h 90 v 20 h -90 v -8 -1 h -6 v 3 h -2 v -8 h 2 v 3 h 6 v -1 z"/><text style="font-size:10px;font-family:sans-serif;text-anchor:start;fill:#282828" id="text548"><tspan id="tspan546" x="13" y="14">アクション</tspan></text></g></g></svg>