<svg xmlns="http://www.w3.org/2000/svg" xmlns:svg="http://www.w3.org/2000/svg" id="svg2652" width="343.833" height="286.5" version="1.1" viewBox="0 0 90.973 75.803"><metadata id="metadata2649"/><g id="g474" transform="scale(0.26458333)"><g id="g472" transform="scale(1.5)"><path id="path462" d="m 0.5,8.5 v -4 c 0,-2.209139 1.790861,-4 4,-4 h 4 v 2 h 10 v -2 h 9 59.261284 4 c 2.209139,0 6.12663,3.4018854 4,4 v 4 h -4 v -3 h -4 v 10 h 4 v -3 h 4 v 4 c 0,2.209139 -1.790861,4 -4,4 h -4 H 27.5 h -1 v 2 h -8 v -2 h -1 -4 c -2.761424,0 -5,2.238576 -5,5 v 4 4 126 4 c 0,2.76142 2.238576,5 5,5 h 4 v 2 h 10 v -2 h 8 v 6 6 4 c 0,2.20914 -1.790861,4 -4,4 h -4 -9 -1 v 2 h -8 v -2 h -1 -4 c -2.209139,0 -4,-1.79086 -4,-4 v -4 z" style="fill:#7cd622;fill-opacity:1;stroke:#57ad02;stroke-width:1;stroke-linecap:round;stroke-opacity:1"/><text id="text466" style="font-size:10px;font-family:sans-serif;text-anchor:start;fill:#282828"><tspan id="tspan464" x="5" y="15">ちょうを ていぎ する</tspan></text></g></g><g id="g484" transform="matrix(0.26458333,0,0,0.26458333,34.748614,0)"><g id="g482" transform="scale(1.5)"><path id="path476" d="m 8.5,0.5 h 110 v 20 H 8.5 v -8 -1 h -6 v 3 h -2 v -8 h 2 v 3 h 6 v -1 z" style="fill:#7cd622;fill-opacity:1;stroke:#57ad02;stroke-width:1;stroke-linecap:round;stroke-opacity:1"/><text id="text480" style="font-size:10px;font-family:sans-serif;text-anchor:start;fill:#282828"><tspan id="tspan478" x="13" y="14">オリジナル</tspan></text></g></g><g id="g498" transform="matrix(0.26458333,0,0,0.26458333,33.161129,8.466665)"><g id="g496" transform="scale(1.5)"><path id="path486" d="m -73.722222,8.5 v -4 c 0,-2.209139 1.790861,-4 4,-4 h 4 v 2 h 10 v -2 h 132.029839 4 c 2.209139,0 4,1.790861 4,4 v 4 h -4 v -3 h -4 v 10 h 4 v -3 h 4 v 4 c 0,2.209139 -1.790861,4 -4,4 h -4 -132.029839 -1 v 2 h -8 v -2 h -1 -4 c -2.209139,0 -4.698591,-1.904227 -4,-4 v -4 z" style="fill:#7cd622;fill-opacity:1;stroke:#57ad02;stroke-width:1;stroke-linecap:round;stroke-opacity:1"/><text id="text490" style="font-size:10px;font-family:sans-serif;text-anchor:end;fill:#282828"><tspan id="tspan488" x="74" y="14">おとのたかさを かずでひょうじ</tspan></text></g></g><g id="g508" transform="matrix(0.26458333,0,0,0.26458333,63.588209,8.466665)"><g id="g506" transform="scale(1.5)"><path id="path500" d="m 8.5,0.5 h 60 v 20 h -60 v -8 -1 h -6 v 3 h -2 v -8 h 2 v 3 h 6 v -1 z" style="fill:#ff6ea1;fill-opacity:1;stroke:#ff2c76;stroke-width:1;stroke-linecap:round;stroke-opacity:1"/><text id="text504" style="font-size:10px;font-family:sans-serif;text-anchor:start;fill:#282828"><tspan id="tspan502" x="13" y="14">0</tspan></text></g></g><g id="g522" transform="matrix(0.26458333,0,0,0.26458333,33.161129,16.933331)"><g id="g520" transform="scale(1.5)"><path id="path510" d="m -73.722222,8.5 v -4 c 0,-2.209139 1.790861,-4 4,-4 h 4 v 2 h 10 v -2 h 132.029839 4 c 2.209139,0 4,1.790861 4,4 v 4 h -4 v -3 h -4 v 10 h 4 v -3 h 4 v 4 c 0,2.209139 -1.790861,4 -4,4 h -4 -132.029839 -1 v 2 h -8 v -2 h -1 -4 c -2.209139,0 -4.698591,-1.904227 -4,-4 v -4 z" style="fill:#7cd622;fill-opacity:1;stroke:#57ad02;stroke-width:1;stroke-linecap:round;stroke-opacity:1"/><text id="text514" style="font-size:10px;font-family:sans-serif;text-anchor:end;fill:#282828"><tspan id="tspan512" x="74" y="14">おとのたかさを かずでひょうじ</tspan></text></g></g><g id="g532" transform="matrix(0.26458333,0,0,0.26458333,63.588209,16.933331)"><g id="g530" transform="scale(1.5)"><path id="path524" d="m 8.5,0.5 h 60 v 20 h -60 v -8 -1 h -6 v 3 h -2 v -8 h 2 v 3 h 6 v -1 z" style="fill:#ff6ea1;fill-opacity:1;stroke:#ff2c76;stroke-width:1;stroke-linecap:round;stroke-opacity:1"/><text id="text528" style="font-size:10px;font-family:sans-serif;text-anchor:start;fill:#282828"><tspan id="tspan526" x="13" y="14">2</tspan></text></g></g><g id="g546" transform="matrix(0.26458333,0,0,0.26458333,33.161129,25.399998)"><g id="g544" transform="scale(1.5)"><path id="path534" d="m -73.722222,8.5 v -4 c 0,-2.209139 1.790861,-4 4,-4 h 4 v 2 h 10 v -2 h 132.029839 4 c 2.209139,0 4,1.790861 4,4 v 4 h -4 v -3 h -4 v 10 h 4 v -3 h 4 v 4 c 0,2.209139 -1.790861,4 -4,4 h -4 -132.029839 -1 v 2 h -8 v -2 h -1 -4 c -2.209139,0 -4.698591,-1.904227 -4,-4 v -4 z" style="fill:#7cd622;fill-opacity:1;stroke:#57ad02;stroke-width:1;stroke-linecap:round;stroke-opacity:1"/><text id="text538" style="font-size:10px;font-family:sans-serif;text-anchor:end;fill:#282828"><tspan id="tspan536" x="74" y="14">おとのたかさを かずでひょうじ</tspan></text></g></g><g id="g556" transform="matrix(0.26458333,0,0,0.26458333,63.588209,25.399998)"><g id="g554" transform="scale(1.5)"><path id="path548" d="m 8.5,0.5 h 60 v 20 h -60 v -8 -1 h -6 v 3 h -2 v -8 h 2 v 3 h 6 v -1 z" style="fill:#ff6ea1;fill-opacity:1;stroke:#ff2c76;stroke-width:1;stroke-linecap:round;stroke-opacity:1"/><text id="text552" style="font-size:10px;font-family:sans-serif;text-anchor:start;fill:#282828"><tspan id="tspan550" x="13" y="14">4</tspan></text></g></g><g id="g570" transform="matrix(0.26458333,0,0,0.26458333,33.161129,33.866665)"><g id="g568" transform="scale(1.5)"><path id="path558" d="m -73.722222,8.5 v -4 c 0,-2.209139 1.790861,-4 4,-4 h 4 v 2 h 10 v -2 h 132.029839 4 c 2.209139,0 4,1.790861 4,4 v 4 h -4 v -3 h -4 v 10 h 4 v -3 h 4 v 4 c 0,2.209139 -1.790861,4 -4,4 h -4 -132.029839 -1 v 2 h -8 v -2 h -1 -4 c -2.209139,0 -6.12663,-3.401885 -4,-4 v -4 z" style="fill:#7cd622;fill-opacity:1;stroke:#57ad02;stroke-width:1;stroke-linecap:round;stroke-opacity:1"/><text id="text562" style="font-size:10px;font-family:sans-serif;text-anchor:end;fill:#282828"><tspan id="tspan560" x="74" y="14">おとのたかさを かずでひょうじ</tspan></text></g></g><g id="g580" transform="matrix(0.26458333,0,0,0.26458333,63.588209,33.866665)"><g id="g578" transform="scale(1.5)"><path id="path572" d="m 8.5,0.5 h 60 v 20 h -60 v -8 -1 h -6 v 3 h -2 v -8 h 2 v 3 h 6 v -1 z" style="fill:#ff6ea1;fill-opacity:1;stroke:#ff2c76;stroke-width:1;stroke-linecap:round;stroke-opacity:1"/><text id="text576" style="font-size:10px;font-family:sans-serif;text-anchor:start;fill:#282828"><tspan id="tspan574" x="13" y="14">5</tspan></text></g></g><g id="g594" transform="matrix(0.26458333,0,0,0.26458333,33.161129,42.333331)"><g id="g592" transform="scale(1.5)"><path id="path582" d="m -73.722222,8.5 v -4 c 0,-2.209139 1.790861,-4 4,-4 h 4 v 2 h 10 v -2 h 132.029839 4 c 2.209139,0 4,1.790861 4,4 v 4 h -4 v -3 h -4 v 10 h 4 v -3 h 4 v 4 c 0,2.209139 -1.790861,4 -4,4 h -4 -132.029839 -1 v 2 h -8 v -2 h -1 -4 c -2.209139,0 -6.12663,-3.401885 -4,-4 v -4 z" style="fill:#7cd622;fill-opacity:1;stroke:#57ad02;stroke-width:1;stroke-linecap:round;stroke-opacity:1"/><text id="text586" style="font-size:10px;font-family:sans-serif;text-anchor:end;fill:#282828"><tspan id="tspan584" x="74" y="14">おとのたかさを かずでひょうじ</tspan></text></g></g><g id="g604" transform="matrix(0.26458333,0,0,0.26458333,63.588209,42.333331)"><g id="g602" transform="scale(1.5)"><path id="path596" d="m 8.5,0.5 h 60 v 20 h -60 v -8 -1 h -6 v 3 h -2 v -8 h 2 v 3 h 6 v -1 z" style="fill:#ff6ea1;fill-opacity:1;stroke:#ff2c76;stroke-width:1;stroke-linecap:round;stroke-opacity:1"/><text id="text600" style="font-size:10px;font-family:sans-serif;text-anchor:start;fill:#282828"><tspan id="tspan598" x="13" y="14">7</tspan></text></g></g><g id="g618" transform="matrix(0.26458333,0,0,0.26458333,33.161129,50.799998)"><g id="g616" transform="scale(1.5)"><path id="path606" d="m -73.722222,8.5 v -4 c 0,-2.209139 1.790861,-4 4,-4 h 4 v 2 h 10 v -2 h 132.029839 4 c 2.209139,0 4,1.790861 4,4 v 4 h -4 v -3 h -4 v 10 h 4 v -3 h 4 v 4 c 0,2.209139 -1.790861,4 -4,4 h -4 -132.029839 -1 v 2 h -8 v -2 h -1 -4 c -2.209139,0 -6.12663,-3.401885 -4,-4 v -4 z" style="fill:#7cd622;fill-opacity:1;stroke:#57ad02;stroke-width:1;stroke-linecap:round;stroke-opacity:1"/><text id="text610" style="font-size:10px;font-family:sans-serif;text-anchor:end;fill:#282828"><tspan id="tspan608" x="74" y="14">おとのたかさを かずでひょうじ</tspan></text></g></g><g id="g628" transform="matrix(0.26458333,0,0,0.26458333,63.588209,50.799998)"><g id="g626" transform="scale(1.5)"><path id="path620" d="m 8.5,0.5 h 60 v 20 h -60 v -8 -1 h -6 v 3 h -2 v -8 h 2 v 3 h 6 v -1 z" style="fill:#ff6ea1;fill-opacity:1;stroke:#ff2c76;stroke-width:1;stroke-linecap:round;stroke-opacity:1"/><text id="text624" style="font-size:10px;font-family:sans-serif;text-anchor:start;fill:#282828"><tspan id="tspan622" x="13" y="14">9</tspan></text></g></g><g id="g642" transform="matrix(0.26458333,0,0,0.26458333,33.161129,59.266665)"><g id="g640" transform="scale(1.5)"><path id="path630" d="m -73.722222,8.5 v -4 c 0,-2.209139 1.790861,-4 4,-4 h 4 v 2 h 10 v -2 h 132.029839 4 c 2.209139,0 4,1.790861 4,4 v 4 h -4 v -3 h -4 v 10 h 4 v -3 h 4 v 4 c 0,2.209139 -1.790861,4 -4,4 h -4 -132.029839 -1 v 2 h -8 v -2 h -1 -4 c -2.209139,0 -4,-1.790861 -4,-4 v -4 z" style="fill:#7cd622;fill-opacity:1;stroke:#57ad02;stroke-width:1;stroke-linecap:round;stroke-opacity:1"/><text id="text634" style="font-size:10px;font-family:sans-serif;text-anchor:end;fill:#282828"><tspan id="tspan632" x="74" y="14">おとのたかさを かずでひょうじ</tspan></text></g></g><g id="g652" transform="matrix(0.26458333,0,0,0.26458333,63.588209,59.266665)"><g id="g650" transform="scale(1.5)"><path id="path644" d="m 8.5,0.5 h 60 v 20 h -60 v -8 -1 h -6 v 3 h -2 v -8 h 2 v 3 h 6 v -1 z" style="fill:#ff6ea1;fill-opacity:1;stroke:#ff2c76;stroke-width:1;stroke-linecap:round;stroke-opacity:1"/><text id="text648" style="font-size:10px;font-family:sans-serif;text-anchor:start;fill:#282828"><tspan id="tspan646" x="13" y="14">11</tspan></text></g></g></svg>