<svg xmlns="http://www.w3.org/2000/svg" xmlns:svg="http://www.w3.org/2000/svg" id="svg3045" width="297.406" height="155.445" version="1.1" viewBox="0 0 78.689 41.128"><metadata id="metadata3042"/><path style="fill:#7cd622;fill-opacity:1;stroke:#57ad02;stroke-width:.39687499;stroke-linecap:round;stroke-opacity:1" id="path1196" d="m 35.917197,22.297328 h 42.572984 v 7.9375 H 35.917197 v -3.175001 -0.396875 h -2.38125 v 1.190625 h -0.79375 v -3.175 h 0.79375 v 1.190625 h 2.38125 v -0.396875 z"/><text style="font-size:3.96875px;font-family:sans-serif;text-anchor:start;fill:#282828;stroke-width:.39687499" id="text1200" x="32.544" y="22.099"><tspan id="tspan1198" x="37.703" y="27.655" style="stroke-width:.39687499">おんていの ちがい</tspan></text><path style="fill:#92a9ff;fill-opacity:1;stroke:#5370dc;stroke-width:.39687499;stroke-linecap:round;stroke-opacity:1" id="path1206" d="m 3.9026117,25.472327 v -1.5875 c 0,-0.876752 0.710748,-1.587499 1.5875,-1.587499 h 1.5875 v 0.793749 h 3.9687503 v -0.793749 h 21.171194 1.5875 c 0.876752,0 1.5875,0.710747 1.5875,1.587499 v 1.5875 h -1.5875 v -1.190624 h -1.5875 v 3.96875 h 1.5875 v -1.190626 h 1.5875 v 1.5875 c 0,0.876753 -0.710748,1.587501 -1.5875,1.587501 h -1.5875 -21.171194 -0.396875 v 0.793749 H 7.4744866 v -0.793749 h -0.3968749 -1.5875 c -0.876752,0 -1.5875,-0.710748 -1.5875,-1.587501 v -1.5875 z"/><text style="font-size:3.96875px;font-family:sans-serif;text-anchor:end;fill:#282828;stroke-width:.39687499" id="text1210" x="11.642" y="22.099"><tspan id="tspan1208" x="31.485" y="27.655" style="stroke-width:.39687499">まえへ すすむ</tspan></text><g id="g1230" transform="matrix(0.396875,0,0,0.396875,0,11.25097)"><path style="fill:#ffbf00;fill-opacity:1;stroke:#daaf30;stroke-width:1;stroke-linecap:round;stroke-opacity:1" id="path1220" d="m 0.5,14.5 v -4 a 4,4 90 0 1 4,-4 h 4 l 5,-6 5,6 h 9 58 4 a 4,4 90 0 1 4,4 v 4 h -4 v -3 h -4 v 10 h 4 v -3 h 4 v 4 a 4,4 90 0 1 -4,4 h -4 -58 -1 v 2 h -8 v -2 h -1 -4 a 5,5 90 0 0 -5,5 v 4 4 4 a 5,5 90 0 0 5,5 h 4 v 2 h 10 v -2 h 8 v 6 6 4 a 4,4 90 0 1 -4,4 h -4 -9 l -5,6 -5,-6 h -4 a 4,4 90 0 1 -4,-4 v -4 z"/><text style="font-size:10px;font-family:sans-serif;text-anchor:start;fill:#282828" id="text1224"><tspan id="tspan1222" x="20" y="22">アクション</tspan></text></g><g style="isolation:isolate" id="g1248" transform="matrix(0.13229166,0,0,0.13229166,0,14.425971)"><g id="g1246" data-name="レイヤー 2"><g id="g1244"><rect style="opacity:.4;mix-blend-mode:multiply;fill:#292929" id="rect1234" width="42" height="42" x="0" y="0" rx="5" ry="5"/><path style="fill:#fff" id="path1236" d="m 30.56,29.8 -4.17,-4.16 h 2.26 a 1.035,1.035 0 1 0 0,-2.07 h -4.71 a 1.08,1.08 0 0 0 -1.11,1 v 0 c 0,0 0,0 0,0.06 v 4.64 0 a 1.04,1.04 0 1 0 2.08,0 v -2.19 l 4.19,4.19 a 1,1 0 0 0 1.46,0 1,1 0 0 0 0,-1.47 z"/><path style="fill:#fff" id="path1238" d="m 19.17,24.6 a 1.08,1.08 0 0 0 -1.11,-1 h -4.71 a 1.035,1.035 0 1 0 0,2.07 h 2.25 l -4.16,4.13 a 1.039447,1.039447 0 0 0 1.47,1.47 l 4.18,-4.19 v 2.26 a 1.04,1.04 0 1 0 2.08,0 V 24.7 c 0,0 0,0 0,-0.06 a 0.08,0.08 0 0 1 0,-0.04 z"/><path style="fill:#fff" id="path1240" d="m 23.94,20.5 h 4.7 a 1.04,1.04 0 1 0 0,-2.08 h -2.25 l 4.17,-4.16 a 1,1 0 0 0 0,-1.47 1,1 0 0 0 -1.46,0 L 24.91,17 v -2.28 a 1.04,1.04 0 1 0 -2.08,0 v 4.64 a 0.43,0.43 0 0 0 0,0.05 v 0.05 a 1.09,1.09 0 0 0 1.11,1.04 z"/><path style="fill:#fff" id="path1242" d="m 18.13,13.62 a 1.08,1.08 0 0 0 -1,1.09 V 17 l -4.18,-4.19 a 1,1 0 0 0 -1.47,0 1,1 0 0 0 0,1.46 l 4.16,4.17 h -2.29 a 1.04,1.04 0 1 0 0,2.08 h 4.71 a 1.09,1.09 0 0 0 1.11,-1 c 0,0 0,0 0,-0.06 v -4.75 a 1.07,1.07 0 0 0 -1.04,-1.09 z"/></g></g></g><path style="fill:#ff664b;fill-opacity:1;stroke:#ea4326;stroke-width:.39687499;stroke-linecap:round;stroke-opacity:1" id="path1254" d="m 37.504693,13.830658 h 35.718749 v 7.937499 H 37.504693 v -3.175 -0.396875 h -2.38125 v 1.190625 h -0.793751 v -3.175 h 0.793751 v 1.190625 h 2.38125 v -0.396875 z"/><text style="font-size:3.96875px;font-family:sans-serif;text-anchor:start;fill:#282828;stroke-width:.39687499" id="text1258" x="34.131" y="13.632"><tspan id="tspan1256" x="39.291" y="19.188" style="stroke-width:.39687499">アクション</tspan></text><path style="fill:#fe994f;fill-opacity:1;stroke:#e86b0e;stroke-width:.39687499;stroke-linecap:round;stroke-opacity:1" id="path1264" d="m 0.1984425,3.3734375 v -1.5875 a 1.5875,1.5875 0 0 1 1.5875,-1.5875 h 1.5875 v 0.79375 h 3.96875 v -0.79375 h 29.5660245 1.5875 a 1.5875,1.5875 0 0 1 1.5875,1.5875 v 1.5875 h -1.5875 v -1.190625 h -1.5875 v 3.96875 h 1.5875 v -1.190625 h 1.5875 v 1.5875 a 1.5875,1.5875 0 0 1 -1.5875,1.5875 h -1.5875 -29.5660245 -0.396875 v 0.79375 h -3.175 v -0.79375 h -0.396875 -1.5875 a 1.5875,1.5875 0 0 1 -1.5875,-1.5875 v -1.5875 z"/><text style="font-size:3.96875px;font-family:sans-serif;text-anchor:end;fill:#282828;stroke-width:.39687499" id="text1268" x="0" y="0"><tspan id="tspan1266" x="36.116" y="5.556" style="stroke-width:.39687499">全ての音符に～する</tspan></text><path style="fill:#ff664b;fill-opacity:1;stroke:#ea4326;stroke-width:.39687499;stroke-linecap:round;stroke-opacity:1" id="path1278" d="m 40.415103,0.1984375 h 35.71875 v 7.9375 h -35.71875 v -3.175 -0.396875 h -2.381251 v 1.190625 h -0.79375 v -3.175 h 0.79375 v 1.190625 h 2.381251 v -0.396875 z"/><text style="font-size:3.96875px;font-family:sans-serif;text-anchor:start;fill:#282828;stroke-width:.39687499" id="text1282" x="37.042" y="0"><tspan id="tspan1280" x="42.201" y="5.556" style="stroke-width:.39687499">アクション</tspan></text></svg>