<svg xmlns="http://www.w3.org/2000/svg" xmlns:svg="http://www.w3.org/2000/svg" id="svg2831" width="448.258" height="63" version="1.1" viewBox="0 0 118.602 16.669"><metadata id="metadata2828"/><g id="g852" transform="matrix(0.26458333,0,0,0.26458333,20.860165,0)"><g id="g850" transform="scale(1.5)"><path id="path840" d="m -51.944445,8.5 v -4 c 0,-2.209139 1.790861,-4 4,-4 h 4 v 2 h 10 v -2 H 48.5 h 4 c 2.209139,0 4,1.790861 4,4 v 4 h -4 v -3 h -4 v 10 h 4 v -3 h 4 v 4 c 0,2.209139 -1.790861,4 -4,4 h -4 -82.444445 -1 v 2 h -8 v -2 h -1 -4 c -2.209139,0 -4.698591,-1.904227 -4,-4 v -4 z" style="fill:#daa926;fill-opacity:1;stroke:#daaf30;stroke-width:1;stroke-linecap:round;stroke-opacity:1"/><text id="text844" style="font-size:10px;font-family:sans-serif;text-anchor:end;fill:#282828"><tspan id="tspan842" x="46" y="14">アクション じっこう</tspan></text></g></g><g id="g862" transform="matrix(0.26458333,0,0,0.26458333,79.509473,0)"><g id="g860" transform="scale(1.5)"><path id="path854" d="m 8.5,0.5 h 90 v 20 h -90 v -8 -1 h -6 v 3 h -2 v -8 h 2 v 3 h 6 v -1 z" style="fill:#ff5942;fill-opacity:1;stroke-width:1;stroke-linecap:round;stroke-opacity:1"/><text id="text858" style="font-size:10px;font-family:sans-serif;text-anchor:start;fill:#282828"><tspan id="tspan856" x="13" y="14">フレーズ1</tspan></text></g></g><g id="g1048" transform="matrix(0.26458333,0,0,0.26458333,79.509473,8.334379)"><g id="g1046" transform="scale(1.5)"><path id="path1040" d="m 8.5,0.5 h 90 v 20 h -90 v -8 -1 h -6 v 3 h -2 v -8 h 2 v 3 h 6 v -1 z" style="fill:#ff5942;fill-opacity:1;stroke-width:1;stroke-linecap:round;stroke-opacity:1"/><text id="text1044" style="font-size:10px;font-family:sans-serif;text-anchor:start;fill:#282828"><tspan id="tspan1042" x="13" y="14">フレーズ2</tspan></text></g></g><g id="g1076" transform="matrix(0.26458333,0,0,0.26458333,56.887598,0)"><g id="g1074" transform="scale(1.5)"><path id="path1060" d="m -33.277776,8.5 v -4 c 0,-2.209139 1.790861,-4 4,-4 h 4 10 H 56.5 h 4 c 2.209139,0 4,1.790861 4,4 v 4 h -4 v -3 h -4 v 10 h 4 v -3 h 4 v 17 h -4 v -3 h -4 v 10 h 4 v -3 h 4 v 4 c 0,2.209139 -1.790861,4 -4,4 h -4 -71.777776 -10 -4 c -2.209139,0 -4.05247,-1.90849 -4,-4 v -4 -21 -1 h -6 v 3 h -2 v -8 h 2 v 3 h 6 z" style="fill:#ff5293;fill-opacity:1;stroke:#ff2c76;stroke-width:1;stroke-linecap:round;stroke-opacity:1"/><text id="text1064" style="font-size:10px;font-family:sans-serif;text-anchor:end;fill:#282828"><tspan id="tspan1062" x="54" y="23">どちらか ランダム</tspan></text><text id="text1068" style="font-size:6.66666651px;font-family:sans-serif;text-anchor:end;fill:#282828"><tspan id="tspan1066" x="54" y="12">これか</tspan></text><text id="text1072" style="font-size:6.66666651px;font-family:sans-serif;text-anchor:end;fill:#282828"><tspan id="tspan1070" x="54" y="33">それか</tspan></text></g></g></svg>