<svg xmlns="http://www.w3.org/2000/svg" xmlns:svg="http://www.w3.org/2000/svg" id="svg1513" width="349.5" height="774.843" version="1.1"><metadata id="metadata1519"/><g id="svg_1" transform="translate(-6.333313,-1.5784605)"><g id="svg_2"><g id="svg_3" transform="matrix(1.5,0,0,1.5,313,90)"><path id="svg_4" d="m -203.94444,-44.166668 v -4 a 4,4 90 0 1 4,-4 h 4 l 5,-6 5,6 h 9 60 4 a 4,4 90 0 1 4,4 v 4 4 4 a 4,4 90 0 1 -4,4 h -4 -60 -1 v 2 h -8 v -2 h -1 -4 a 5,5 90 0 0 -5,5 v 4 4 441.000008 4 a 5,5 90 0 0 5,5 h 4 v 2 h 10 v -2 h 8 v 6 6 4 a 4,4 90 0 1 -4,4 h -4 -9 l -5,6 -5,-6 h -4 a 4,4 90 0 1 -4,-4 v -4 z" style="fill:#daa926;fill-opacity:1;stroke:#daaf30;stroke-width:1;stroke-linecap:round;stroke-opacity:1"/><text id="svg_5" x="-204.444" y="-58.667" style="font-size:10px;font-family:sans-serif;text-anchor:start;fill:#282828"><tspan id="svg_6" x="-184.444" y="-36.667">スタート</tspan></text></g></g><g id="svg_7" transform="matrix(0.5,0,0,0.5,313,102)"><g id="svg_8" style="isolation:isolate"><g id="レイヤー_2" data-name="レイヤー 2"><g id="Icon"><rect id="svg_9" width="42" height="42" x="-613.333" y="-176" rx="5" ry="5" style="opacity:.4;mix-blend-mode:multiply;fill:#292929"/><path id="svg_10" d="m -582.77346,-146.2 -4.17,-4.16 h 2.26 a 1.035,1.035 0 1 0 0,-2.07 h -4.70999 a 1.08,1.08 0 0 0 -1.11,1 v 0 c 0,0 0,0 0,0.06 v 4.64 0 a 1.04,1.04 0 1 0 2.08,0 v -2.19 l 4.19,4.19 a 1,1 0 0 0 1.46,0 1,1 0 0 0 -10e-6,-1.47 z" style="fill:#fff"/><path id="svg_11" d="m -594.16347,-151.39999 a 1.08,1.08 0 0 0 -1.11,-1 h -4.71001 a 1.035,1.035 0 1 0 0,2.07 h 2.25 l -4.15997,4.12999 a 1.039447,1.039447 0 0 0 1.47,1.47 l 4.18,-4.19 v 2.26 a 1.04,1.04 0 1 0 2.08,0 v -4.64 c 0,0 0,0 0,-0.06 a 0.08,0.08 0 0 1 -2e-5,-0.04 z" style="fill:#fff"/><path id="svg_12" d="m -589.39345,-155.5 h 4.7 a 1.04,1.04 0 1 0 0,-2.08 h -2.24999 l 4.17,-4.16 a 1,1 0 0 0 0,-1.47 1,1 0 0 0 -1.46,0 l -4.19004,4.21 v -2.28 a 1.04,1.04 0 1 0 -2.08,0 v 4.64 a 0.43000001,0.43000001 0 0 0 0,0.05 v 0.05 a 1.09,1.09 0 0 0 1.11003,1.04 z" style="fill:#fff"/><path id="svg_13" d="m -595.20345,-162.38 a 1.08,1.08 0 0 0 -1,1.09 v 2.29 l -4.18,-4.19 a 1,1 0 0 0 -1.47,0 1,1 0 0 0 0,1.46 l 4.16,4.17 h -2.29003 a 1.04,1.04 0 1 0 0,2.08 h 4.71 a 1.09,1.09 0 0 0 1.11,-1 c 0,0 0,0 0,-0.06 v -4.74999 a 1.0700001,1.0700001 0 0 0 -1.03997,-1.09001 z" style="fill:#fff"/></g></g></g></g><g id="svg_14" transform="matrix(0.4,0,0,0.4,423,102)"><g id="g3586" style="fill:#ffada6;stroke:#ed001d;stroke-width:1.99999976;stroke-miterlimit:4;stroke-dasharray:none"><path id="path4725" d="m -738.66661,-214 c 0,0 -1.25464,-1 -2,-1 -1.49071,0 -2.9459,0.94591 -4,2 -1.58113,1.58114 -1.69254,4.18601 -3,6 -0.8269,1.14727 -1.85273,2.17309 -3,3 -1.81399,1.30745 -4.41886,1.41886 -5.99999,3 -1.0541,1.05409 -2,2.50929 -2,4 0,1.49071 1.17693,3.54016 2,4 2.59512,1.44987 0.8366,0.64851 2,2 0,0 -1.04044,3.30081 -1,5 0.0654,2.74796 1.99999,7 1.99999,8 0,1 3.62194,4.46873 6,6 2.39453,1.54187 5.32378,2.05909 8.1648,2.25844 3.06564,0.2151 5.97644,-0.35637 8.67041,-1.83521 1.65295,-0.90738 3.02024,-1.92472 4.16479,-3.42323 1.63125,-2.13571 3.31023,-4.40261 4,-7 0.42778,-1.61083 0.20364,-3.34582 0,-5 -0.16792,-1.36407 -1.27205,-2.65283 -1,-4 0.32991,-1.63369 2.31972,-2.47849 3,-4 0.69376,-1.55164 1.68761,-3.44563 1,-5 -0.78631,-1.7775 -3.35759,-1.96063 -5,-3 -1.01557,-0.64269 -2.10604,-1.19671 -3,-2 -1.93647,-1.74008 -3.44239,-3.91394 -5,-6 -0.71906,-0.96301 -1.04488,-2.27048 -2,-3 -0.83769,-0.63983 -1.9741,-1.24218 -3,-1 -0.45879,0.10831 -1,1 -1,1" style="fill:#ffada6;stroke:none;stroke-width:1px;stroke-linecap:butt;stroke-linejoin:miter;stroke-opacity:1"/><path style="fill:none;stroke:#ed001d;stroke-width:1.95427048;stroke-linecap:round;stroke-linejoin:miter;stroke-miterlimit:4;stroke-dasharray:none;stroke-opacity:1" id="path4505-6" d="m -723.6453,-191.71761 c 0,0 1.46394,5.73893 1.00108,8.58384 -0.50342,3.09419 -1.7338,6.32006 -4.00434,8.58383 -2.06199,2.05584 -3.20724,2.82847 -6.0065,3.81503 -1.2904,0.45479 -4.97352,0.95376 -6.51405,0.95376 -1.54054,0 -5.22365,-0.49897 -6.51405,-0.95376 -2.79926,-0.98656 -3.94451,-1.75919 -6.00651,-3.81503 -2.27054,-2.26377 -3.50091,-5.48964 -4.00433,-8.58383 -0.46287,-2.84492 1.00108,-8.58384 1.00108,-8.58384 m 13.01411,-5.72256 c 0,0 -4.12218,4.70563 -7.00759,5.72255 -1.87781,0.66181 -4.20195,0.82632 -6.00651,0 -1.9258,-0.88183 -3.58357,-2.77297 -4.00433,-4.76879 -0.4784,-2.26917 0.55895,-4.12355 2.47047,-5.52902 2.06738,-1.52007 4.59837,-1.66289 6.53928,-3.05481 2.51516,-1.80374 2.91235,-5.38978 5.00543,-7.63008 1.42063,-1.52056 5.51296,-3.81503 5.51296,-3.81503 0,0 4.09233,2.29447 5.51296,3.81503 2.09308,2.2403 2.49027,5.82634 5.00543,7.63008 1.94092,1.39193 4.5388,1.46553 6.60618,2.92733 1.93725,1.36979 2.88197,3.38733 2.40357,5.6565 -0.42076,1.99582 -2.07853,3.88696 -4.00433,4.7688 -1.80456,0.82631 -4.1287,0.6618 -6.00651,0 -2.88541,-1.01693 -7.00759,-5.72256 -7.00759,-5.72256"/><g style="fill:none;stroke:#ed001d;stroke-opacity:1" id="g4565"><g style="fill:none;stroke:#ed001d;stroke-width:0;stroke-opacity:1" id="g4553"><path style="fill:none;fill-rule:evenodd;stroke:#ed001d;stroke-width:1.93205309;stroke-linecap:butt;stroke-linejoin:miter;stroke-miterlimit:4;stroke-dasharray:none;stroke-opacity:1" id="path3411-7" d="m -742.71409,-207.3213 c -3.19818,0.84805 -8.40497,-2.51774 -9.88513,-3.747"/><path style="fill:none;fill-rule:evenodd;stroke:#ed001d;stroke-width:1.93205309;stroke-linecap:butt;stroke-linejoin:miter;stroke-miterlimit:4;stroke-dasharray:none;stroke-opacity:1" id="path3413-5" d="m -742.24558,-209.81041 c -3.34479,-0.41072 -6.17798,-2.06808 -7.88202,-3.39815"/></g><g style="fill:none;stroke:#ed001d;stroke-width:0;stroke-opacity:1" id="g4557"><path style="fill:none;fill-rule:evenodd;stroke:#ed001d;stroke-width:1.93205309;stroke-linecap:butt;stroke-linejoin:miter;stroke-miterlimit:4;stroke-dasharray:none;stroke-opacity:1" id="path3411-3" d="m -735.62413,-207.3213 c 3.19822,0.84805 8.40497,-2.51774 9.88515,-3.747"/><path style="fill:none;fill-rule:evenodd;stroke:#ed001d;stroke-width:1.93205309;stroke-linecap:butt;stroke-linejoin:miter;stroke-miterlimit:4;stroke-dasharray:none;stroke-opacity:1" id="path3413-56" d="m -736.09263,-209.81041 c 3.34479,-0.41072 6.17797,-2.06808 7.88198,-3.39816"/></g></g><g style="fill:#fff;fill-opacity:.94117647;stroke:#ed001d;stroke-opacity:1" id="g4636"><ellipse style="fill:#fff;fill-opacity:.94117647;fill-rule:evenodd;stroke:#ed001d;stroke-width:1.99999976;stroke-linecap:butt;stroke-linejoin:miter;stroke-miterlimit:4;stroke-dasharray:none;stroke-opacity:1" id="circle3409-2" cx="-799.858" cy="-215.922" rx="1.885" ry="2.067" transform="matrix(1.00108,0,0,0.953759,57.9306,3.47885)"/><ellipse style="fill:#fff;fill-opacity:.94117647;fill-rule:evenodd;stroke:#ed001d;stroke-width:1.99999976;stroke-linecap:butt;stroke-linejoin:miter;stroke-miterlimit:4;stroke-dasharray:none;stroke-opacity:1" id="ellipse4229-9" cx="-792.615" cy="-215.835" rx="1.885" ry="2.067" transform="matrix(1.00108,0,0,0.953759,57.9306,3.47885)"/></g><g style="fill:none;stroke:#ed001d;stroke-opacity:1" id="g4632"><path style="fill:none;fill-rule:evenodd;stroke:#ed001d;stroke-width:1px;stroke-linecap:butt;stroke-linejoin:miter;stroke-miterlimit:4;stroke-dasharray:none;stroke-opacity:1" id="path4303-1" d="m -749.05479,-202.4474 c -14.35557,2.62291 -4.81562,14.94719 4.37974,5.00723"/><path style="fill:none;fill-rule:evenodd;stroke:#ed001d;stroke-width:1px;stroke-linecap:butt;stroke-linejoin:miter;stroke-miterlimit:4;stroke-dasharray:none;stroke-opacity:1" id="path4303-1-2" d="m -729.28343,-202.4474 c 14.35558,2.62291 4.81562,14.94719 -4.37974,5.00723"/></g><path style="fill:#ed001d;fill-opacity:1;fill-rule:evenodd;stroke:#ed001d;stroke-width:2.16383076;stroke-linecap:butt;stroke-linejoin:miter;stroke-miterlimit:4;stroke-dasharray:none;stroke-opacity:1" id="path4227-7" d="m -736.72727,-216.51535 c -1.3847,1.31405 -1.98577,2.37931 -2.45984,2.37931 -0.66271,0 -1.27278,-1.06526 -2.45984,-2.37931 -0.97292,-1.07701 1.10131,-2.37931 2.45984,-2.37931 1.35853,0 3.53299,1.3609 2.45984,2.37931 z"/><path id="path4653" d="m -738.55277,-169.78889 c 0,0 0.72312,3.12383 5.50019,3.66999 4.77706,0.54617 11.78465,-3.77877 14.78791,-9.50133 3.00325,-5.72256 2.40268,-11.49078 3.00325,-18.12143" style="fill:none;stroke:#ed001d;stroke-width:1.95427048;stroke-linecap:round;stroke-linejoin:miter;stroke-miterlimit:4;stroke-dasharray:none;stroke-opacity:1"/></g></g></g><g id="svg_15" transform="translate(-6.333313,-1.5784605)"><g id="svg_16"><g id="svg_17" transform="matrix(1.5,0,0,1.5,341,163)"><path id="svg_18" d="m -203.94444,-50.166668 v -4 a 4,4 90 0 1 4,-4 h 4 v 2 h 10 v -2 h 9 60 4 a 4,4 90 0 1 4,4 v 4 h -4 v -3 h -4 v 10 h 4 v -3 h 4 v 4 a 4,4 90 0 1 -4,4 h -4 -60 -1 v 2 h -8 v -2 h -1 -4 a 5,5 90 0 0 -5,5 v 4 4 42 4 a 5,5 90 0 0 5,5 h 4 v 2 h 10 v -2 h 8 v 6 6 4 a 4,4 90 0 1 -4,4 h -4 -9 -1 v 2 h -8 v -2 h -1 -4 a 4,4 90 0 1 -4,-4 v -4 z" style="fill:#ff8b2d;fill-opacity:1;stroke:#e86b0e;stroke-width:1;stroke-linecap:round;stroke-opacity:1"/><text id="svg_19" x="-204.444" y="-58.667" style="font-size:10px;font-family:sans-serif;text-anchor:start;fill:#282828"><tspan id="svg_20" x="-184.444" y="-43.667">おんぷ</tspan></text><text id="svg_21" x="-204.444" y="-58.667" style="font-size:6.66666651px;font-family:sans-serif;text-anchor:end;fill:#282828"><tspan id="svg_22" x="-119.444" y="-46.667">ながさ</tspan></text></g></g><g id="svg_23" transform="matrix(0.5,0,0,0.5,341,167)"><g id="svg_24" style="isolation:isolate"><g id="g1272" data-name="レイヤー 2"><g id="g1270"><rect id="svg_25" width="42" height="42" x="-613.333" y="-176" rx="5" ry="5" style="opacity:.4;mix-blend-mode:multiply;fill:#292929"/><path id="svg_26" d="m -582.77346,-146.2 -4.17,-4.16 h 2.26 a 1.035,1.035 0 1 0 0,-2.07 h -4.70999 a 1.08,1.08 0 0 0 -1.11,1 v 0 c 0,0 0,0 0,0.06 v 4.64 0 a 1.04,1.04 0 1 0 2.08,0 v -2.19 l 4.19,4.19 a 1,1 0 0 0 1.46,0 1,1 0 0 0 -10e-6,-1.47 z" style="fill:#fff"/><path id="svg_27" d="m -594.16347,-151.39999 a 1.08,1.08 0 0 0 -1.11,-1 h -4.71001 a 1.035,1.035 0 1 0 0,2.07 h 2.25 l -4.15997,4.12999 a 1.039447,1.039447 0 0 0 1.47,1.47 l 4.18,-4.19 v 2.26 a 1.04,1.04 0 1 0 2.08,0 v -4.64 c 0,0 0,0 0,-0.06 a 0.08,0.08 0 0 1 -2e-5,-0.04 z" style="fill:#fff"/><path id="svg_28" d="m -589.39345,-155.5 h 4.7 a 1.04,1.04 0 1 0 0,-2.08 h -2.24999 l 4.17,-4.16 a 1,1 0 0 0 0,-1.47 1,1 0 0 0 -1.46,0 l -4.19004,4.21 v -2.28 a 1.04,1.04 0 1 0 -2.08,0 v 4.64 a 0.43000001,0.43000001 0 0 0 0,0.05 v 0.05 a 1.09,1.09 0 0 0 1.11003,1.04 z" style="fill:#fff"/><path id="svg_29" d="m -595.20345,-162.38 a 1.08,1.08 0 0 0 -1,1.09 v 2.29 l -4.18,-4.19 a 1,1 0 0 0 -1.47,0 1,1 0 0 0 0,1.46 l 4.16,4.17 h -2.29003 a 1.04,1.04 0 1 0 0,2.08 h 4.71 a 1.09,1.09 0 0 0 1.11,-1 c 0,0 0,0 0,-0.06 v -4.74999 a 1.0700001,1.0700001 0 0 0 -1.03997,-1.09001 z" style="fill:#fff"/></g></g></g></g></g><g id="svg_30" transform="translate(-6.333313,-1.5784605)"><g id="svg_31" transform="matrix(1.5,0,0,1.5,473,163)"><path id="svg_32" d="m -195.94444,-50.166668 v -4 a 4,4 90 0 1 4,-4 h 4 10 30 4 a 4,4 90 0 1 4,4 v 4 h -4 v -3 h -4 v 10 h 4 v -3 h 4 v 17 h -4 v -3 h -4 v 10 h 4 v -3 h 4 v 4 a 4,4 90 0 1 -4,4 h -4 -30 -10 -4 a 4,4 90 0 1 -4,-4 v -4 -21 -1 h -6 v 3 h -2 v -8 h 2 v 3 h 6 z" style="fill:#ff5293;fill-opacity:1;stroke:#ff2c76;stroke-width:1;stroke-linecap:round;stroke-opacity:1"/><text id="svg_33" x="-204.444" y="-58.667" style="font-size:9px;font-family:sans-serif;text-anchor:end;fill:#282828"><tspan id="svg_34" x="-150.444" y="-35.667">➗</tspan></text></g></g><g id="svg_39" transform="translate(-6.333313,-1.5784605)"><g id="svg_40" transform="matrix(1.5,0,0,1.5,559,163)"><path id="svg_41" d="m -195.94444,-58.166668 h 60 v 20 h -60 v -8 -1 h -6 v 3 h -2 v -8 h 2 v 3 h 6 v -1 z" style="fill:#ff5293;fill-opacity:1;stroke:#ff2c76;stroke-width:1;stroke-linecap:round;stroke-opacity:1"/><text id="svg_42" x="-204.444" y="-58.667" style="font-size:10px;font-family:sans-serif;text-anchor:start;fill:#282828"><tspan id="svg_43" x="-191.444" y="-44.667">1</tspan></text></g></g><g id="svg_44" transform="translate(-6.333313,-1.5784605)"><g id="svg_45" transform="matrix(1.5,0,0,1.5,559,195)"><path id="svg_46" d="m -195.94444,-58.166668 h 60 v 20 h -60 v -8 -1 h -6 v 3 h -2 v -8 h 2 v 3 h 6 v -1 z" style="fill:#ff5293;fill-opacity:1;stroke:#ff2c76;stroke-width:1;stroke-linecap:round;stroke-opacity:1"/><text id="svg_47" x="-204.444" y="-58.667" style="font-size:10px;font-family:sans-serif;text-anchor:start;fill:#282828"><tspan id="svg_48" x="-191.444" y="-44.667">2</tspan></text></g></g><g id="svg_49" transform="translate(-6.333313,-1.5784605)"><g id="svg_50" transform="matrix(1.5,0,0,1.5,355,195)"><path id="svg_51" d="m -203.94444,-50.166668 v -4 a 4,4 90 0 1 4,-4 h 4 v 2 h 10 v -2 h 20 4 a 4,4 90 0 1 4,4 v 4 4 4 a 4,4 90 0 1 -4,4 h -4 -20 -1 v 2 h -8 v -2 h -1 -4 a 4,4 90 0 1 -4,-4 v -4 z" style="fill:#b0b0b0;fill-opacity:1;stroke:#a0a0a0;stroke-width:1;stroke-linecap:round;stroke-opacity:1"/><text id="svg_52" x="-204.444" y="-58.667" style="font-size:10px;font-family:sans-serif;text-anchor:end;fill:#282828"><tspan id="svg_53" x="-168.444" y="-44.667">↓</tspan></text></g></g><path id="svg_56" d="m 42.750027,150.17154 v -6 c 0,-3.31371 2.68629,-6 6,-6 h 6 v 3 h 15 v -3 h 81.000003 6 c 3.31371,0 6,2.68629 6,6 v 6 h -6 v -4.5 h -6 v 15 h 6 v -4.5 h 6 v 25.5 h -6 v -4.5 h -6 v 15 h 6 v -4.5 h 6 v 6 c 0,3.31371 -2.68629,6 -6,6 h -6 -81.000003 -1.5 v 3 h -12 v -3 h -1.5 -6 c -3.31371,0 -7.047887,-2.85634 -6,-6 v -6 -31.5 z" style="fill:#77c428;fill-opacity:1;stroke:#57ad02;stroke-width:1.5;stroke-linecap:round;stroke-opacity:1"/><text id="svg_57" x="78" y="137.422" style="font-size:15px;font-family:sans-serif;text-anchor:end;fill:#282828;stroke-width:1.5"><tspan style="stroke-width:1.5" id="svg_58" x="147" y="173.422">おとの たかさ</tspan></text><text id="svg_59" x="78" y="137.422" style="font-size:10px;font-family:sans-serif;text-anchor:end;fill:#282828;stroke-width:1.5"><tspan style="stroke-width:1.5" id="svg_60" x="147" y="155.422">なまえ</tspan></text><text id="svg_61" x="78" y="137.422" style="font-size:10px;font-family:sans-serif;text-anchor:end;fill:#282828;stroke-width:1.5"><tspan style="stroke-width:1.5" id="svg_62" x="147" y="186.922">オクターヴの たかさ</tspan></text><g id="svg_63" transform="translate(29.666687,-1.5784605)"><g id="svg_64" transform="matrix(1.5,0,0,1.5,429,227)"><path id="svg_65" d="m -195.94444,-58.166668 h 60 v 20 h -60 v -8 -1 h -6 v 3 h -2 v -8 h 2 v 3 h 6 v -1 z" style="fill:#77c428;fill-opacity:1;stroke:#57ad02;stroke-width:1;stroke-linecap:round;stroke-opacity:1"/><text id="svg_66" x="-204.444" y="-58.667" style="font-size:10px;font-family:sans-serif;text-anchor:start;fill:#282828"><tspan id="svg_67" x="-191.444" y="-44.667">ド</tspan></text></g></g><g id="svg_68" transform="translate(29.666687,-1.5784605)"><g id="svg_69" transform="matrix(1.5,0,0,1.5,429,259)"><path id="svg_70" d="m -195.94444,-58.166668 h 60 v 20 h -60 v -8 -1 h -6 v 3 h -2 v -8 h 2 v 3 h 6 v -1 z" style="fill:#ff5293;fill-opacity:1;stroke:#ff2c76;stroke-width:1;stroke-linecap:round;stroke-opacity:1"/><text id="svg_71" x="-204.444" y="-58.667" style="font-size:10px;font-family:sans-serif;text-anchor:start;fill:#282828"><tspan id="svg_72" x="-191.444" y="-44.667">4</tspan></text></g></g><g id="svg_73" transform="translate(-6.333313,-1.5784605)"><g id="svg_74" transform="matrix(1.5,0,0,1.5,327,131)"><path id="svg_75" d="m -203.94444,-50.166668 v -4 c 0,-2.209139 1.79086,-4 4,-4 h 4 v 2 h 10 v -2 h 9 49.33333 4 c 2.20914,0 4,1.790861 4,4 v 4 h -4 v -3 h -4 v 10 h 4 v -3 h 4 v 4 c 0,2.209139 -1.79086,4 -4,4 h -4 -49.33333 -1 v 2 h -8 v -2 h -1 -4 c -2.76142,0 -5,2.238576 -5,5 v 4 4 399.000008 4 c 0,2.76142 2.23858,5 5,5 h 4 v 2 h 10 v -2 h 8 v 6 6 4 c 0,2.20914 -1.79086,4 -4,4 h -4 -9 -1 v 2 h -8 v -2 h -1 -4 c -2.20914,0 -4,-1.79086 -4,-4 v -4 z" style="fill:#25c3c0;fill-opacity:1;stroke:#1dbcbd;stroke-width:1;stroke-linecap:round;stroke-opacity:1"/><text id="svg_76" x="-204.444" y="-58.667" style="font-size:10px;font-family:sans-serif;text-anchor:start;fill:#282828"><tspan id="svg_77" x="-199.444" y="-43.667">ねいろを せってい</tspan></text></g></g><g id="svg_80" transform="translate(13.666687,-1.5784605)"><g id="svg_81" transform="matrix(1.5,0,0,1.5,423,131)"><path id="svg_82" d="m -195.94444,-58.166668 h 110.000001 v 20 H -195.94444 v -8 -1 h -6 v 3 h -2 v -8 h 2 v 3 h 6 v -1 z" style="fill:#25c3c0;fill-opacity:1;stroke:#1dbcbd;stroke-width:1;stroke-linecap:round;stroke-opacity:1"/><text id="svg_83" x="-204.444" y="-58.667" style="font-size:10px;font-family:sans-serif;text-anchor:start;fill:#282828"><tspan id="svg_84" x="-191.444" y="-44.667">ギター</tspan></text></g></g><g id="svg_85" transform="translate(-6.333313,-1.5784605)"><g id="svg_86"><g id="svg_87" transform="matrix(1.5,0,0,1.5,341,321)"><path id="svg_88" d="m -203.94444,-50.166668 v -4 a 4,4 90 0 1 4,-4 h 4 v 2 h 10 v -2 h 9 60 4 a 4,4 90 0 1 4,4 v 4 h -4 v -3 h -4 v 10 h 4 v -3 h 4 v 4 a 4,4 90 0 1 -4,4 h -4 -60 -1 v 2 h -8 v -2 h -1 -4 a 5,5 90 0 0 -5,5 v 4 4 42 4 a 5,5 90 0 0 5,5 h 4 v 2 h 10 v -2 h 8 v 6 6 4 a 4,4 90 0 1 -4,4 h -4 -9 -1 v 2 h -8 v -2 h -1 -4 a 4,4 90 0 1 -4,-4 v -4 z" style="fill:#ff8b2d;fill-opacity:1;stroke:#e86b0e;stroke-width:1;stroke-linecap:round;stroke-opacity:1"/><text id="svg_89" x="-204.444" y="-58.667" style="font-size:10px;font-family:sans-serif;text-anchor:start;fill:#282828"><tspan id="svg_90" x="-184.444" y="-43.667">おんぷ</tspan></text><text id="svg_91" x="-204.444" y="-58.667" style="font-size:6.66666651px;font-family:sans-serif;text-anchor:end;fill:#282828"><tspan id="svg_92" x="-119.444" y="-46.667">ながさ</tspan></text></g></g><g id="svg_93" transform="matrix(0.5,0,0,0.5,341,325)"><g id="svg_94" style="isolation:isolate"><g id="g1343" data-name="レイヤー 2"><g id="g1341"><rect id="svg_95" width="42" height="42" x="-613.333" y="-176" rx="5" ry="5" style="opacity:.4;mix-blend-mode:multiply;fill:#292929"/><path id="svg_96" d="m -582.77346,-146.2 -4.17,-4.16 h 2.26 a 1.035,1.035 0 1 0 0,-2.07 h -4.70999 a 1.08,1.08 0 0 0 -1.11,1 v 0 c 0,0 0,0 0,0.06 v 4.64 0 a 1.04,1.04 0 1 0 2.08,0 v -2.19 l 4.19,4.19 a 1,1 0 0 0 1.46,0 1,1 0 0 0 -10e-6,-1.47 z" style="fill:#fff"/><path id="svg_97" d="m -594.16347,-151.39999 a 1.08,1.08 0 0 0 -1.11,-1 h -4.71001 a 1.035,1.035 0 1 0 0,2.07 h 2.25 l -4.15997,4.12999 a 1.039447,1.039447 0 0 0 1.47,1.47 l 4.18,-4.19 v 2.26 a 1.04,1.04 0 1 0 2.08,0 v -4.64 c 0,0 0,0 0,-0.06 a 0.08,0.08 0 0 1 -2e-5,-0.04 z" style="fill:#fff"/><path id="svg_98" d="m -589.39345,-155.5 h 4.7 a 1.04,1.04 0 1 0 0,-2.08 h -2.24999 l 4.17,-4.16 a 1,1 0 0 0 0,-1.47 1,1 0 0 0 -1.46,0 l -4.19004,4.21 v -2.28 a 1.04,1.04 0 1 0 -2.08,0 v 4.64 a 0.43000001,0.43000001 0 0 0 0,0.05 v 0.05 a 1.09,1.09 0 0 0 1.11003,1.04 z" style="fill:#fff"/><path id="svg_99" d="m -595.20345,-162.38 a 1.08,1.08 0 0 0 -1,1.09 v 2.29 l -4.18,-4.19 a 1,1 0 0 0 -1.47,0 1,1 0 0 0 0,1.46 l 4.16,4.17 h -2.29003 a 1.04,1.04 0 1 0 0,2.08 h 4.71 a 1.09,1.09 0 0 0 1.11,-1 c 0,0 0,0 0,-0.06 v -4.74999 a 1.0700001,1.0700001 0 0 0 -1.03997,-1.09001 z" style="fill:#fff"/></g></g></g></g></g><g id="svg_100" transform="translate(-6.333313,-1.5784605)"><g id="svg_101" transform="matrix(1.5,0,0,1.5,473,321)"><path id="svg_102" d="m -195.94444,-50.166668 v -4 a 4,4 90 0 1 4,-4 h 4 10 30 4 a 4,4 90 0 1 4,4 v 4 h -4 v -3 h -4 v 10 h 4 v -3 h 4 v 17 h -4 v -3 h -4 v 10 h 4 v -3 h 4 v 4 a 4,4 90 0 1 -4,4 h -4 -30 -10 -4 a 4,4 90 0 1 -4,-4 v -4 -21 -1 h -6 v 3 h -2 v -8 h 2 v 3 h 6 z" style="fill:#ff5293;fill-opacity:1;stroke:#ff2c76;stroke-width:1;stroke-linecap:round;stroke-opacity:1"/><text id="svg_103" x="-204.444" y="-58.667" style="font-size:9px;font-family:sans-serif;text-anchor:end;fill:#282828"><tspan id="svg_104" x="-150.444" y="-35.667">➗</tspan></text></g></g><g id="svg_109" transform="translate(-6.333313,-1.5784605)"><g id="svg_110" transform="matrix(1.5,0,0,1.5,559,321)"><path id="svg_111" d="m -195.94444,-58.166668 h 60 v 20 h -60 v -8 -1 h -6 v 3 h -2 v -8 h 2 v 3 h 6 v -1 z" style="fill:#ff5293;fill-opacity:1;stroke:#ff2c76;stroke-width:1;stroke-linecap:round;stroke-opacity:1"/><text id="svg_112" x="-204.444" y="-58.667" style="font-size:10px;font-family:sans-serif;text-anchor:start;fill:#282828"><tspan id="svg_113" x="-191.444" y="-44.667">1</tspan></text></g></g><g id="svg_114" transform="translate(-6.333313,-1.5784605)"><g id="svg_115" transform="matrix(1.5,0,0,1.5,559,353)"><path id="svg_116" d="m -195.94444,-58.166668 h 60 v 20 h -60 v -8 -1 h -6 v 3 h -2 v -8 h 2 v 3 h 6 v -1 z" style="fill:#ff5293;fill-opacity:1;stroke:#ff2c76;stroke-width:1;stroke-linecap:round;stroke-opacity:1"/><text id="svg_117" x="-204.444" y="-58.667" style="font-size:10px;font-family:sans-serif;text-anchor:start;fill:#282828"><tspan id="svg_118" x="-191.444" y="-44.667">4</tspan></text></g></g><g id="svg_119" transform="translate(-6.333313,-1.5784605)"><g id="svg_120" transform="matrix(1.5,0,0,1.5,355,353)"><path id="svg_121" d="m -203.94444,-50.166668 v -4 a 4,4 90 0 1 4,-4 h 4 v 2 h 10 v -2 h 20 4 a 4,4 90 0 1 4,4 v 4 4 4 a 4,4 90 0 1 -4,4 h -4 -20 -1 v 2 h -8 v -2 h -1 -4 a 4,4 90 0 1 -4,-4 v -4 z" style="fill:#b0b0b0;fill-opacity:1;stroke:#a0a0a0;stroke-width:1;stroke-linecap:round;stroke-opacity:1"/><text id="svg_122" x="-204.444" y="-58.667" style="font-size:10px;font-family:sans-serif;text-anchor:end;fill:#282828"><tspan id="svg_123" x="-168.444" y="-44.667">↓</tspan></text></g></g><path id="svg_126" d="m 42.750027,308.17154 v -6 c 0,-3.31371 2.68629,-6 6,-6 h 6 v 3 h 15 v -3 h 81.000003 6 c 3.31371,0 7.04789,2.85634 6,6 v 6 h -6 v -4.5 h -6 v 15 h 6 v -4.5 h 6 v 25.5 h -6 v -4.5 h -6 v 15 h 6 v -4.5 h 6 v 6 c 0,3.31371 -2.68629,6 -6,6 h -6 -81.000003 -1.5 v 3 h -12 v -3 h -1.5 -6 c -3.31371,0 -7.047887,-2.85634 -6,-6 v -6 -31.5 z" style="fill:#77c428;fill-opacity:1;stroke:#57ad02;stroke-width:1.5;stroke-linecap:round;stroke-opacity:1"/><text id="svg_127" x="78" y="295.422" style="font-size:15px;font-family:sans-serif;text-anchor:end;fill:#282828;stroke-width:1.5"><tspan style="stroke-width:1.5" id="svg_128" x="147" y="331.422">おとの たかさ</tspan></text><text id="svg_129" x="78" y="295.422" style="font-size:10px;font-family:sans-serif;text-anchor:end;fill:#282828;stroke-width:1.5"><tspan style="stroke-width:1.5" id="svg_130" x="147" y="313.422">なまえ</tspan></text><text id="svg_131" x="78" y="295.422" style="font-size:10px;font-family:sans-serif;text-anchor:end;fill:#282828;stroke-width:1.5"><tspan style="stroke-width:1.5" id="svg_132" x="147" y="344.922">オクターヴの たかさ</tspan></text><g id="svg_133" transform="translate(29.666687,-1.5784605)"><g id="svg_134" transform="matrix(1.5,0,0,1.5,429,385)"><path id="svg_135" d="m -195.94444,-58.166668 h 60 v 20 h -60 v -8 -1 h -6 v 3 h -2 v -8 h 2 v 3 h 6 v -1 z" style="fill:#77c428;fill-opacity:1;stroke:#57ad02;stroke-width:1;stroke-linecap:round;stroke-opacity:1"/><text id="svg_136" x="-204.444" y="-58.667" style="font-size:10px;font-family:sans-serif;text-anchor:start;fill:#282828"><tspan id="svg_137" x="-191.444" y="-44.667">ミ</tspan></text></g></g><g id="svg_138" transform="translate(29.666687,-1.5784605)"><g id="svg_139" transform="matrix(1.5,0,0,1.5,429,417)"><path id="svg_140" d="m -195.94444,-58.166668 h 60 v 20 h -60 v -8 -1 h -6 v 3 h -2 v -8 h 2 v 3 h 6 v -1 z" style="fill:#ff5293;fill-opacity:1;stroke:#ff2c76;stroke-width:1;stroke-linecap:round;stroke-opacity:1"/><text id="svg_141" x="-204.444" y="-58.667" style="font-size:10px;font-family:sans-serif;text-anchor:start;fill:#282828"><tspan id="svg_142" x="-191.444" y="-44.667">4</tspan></text></g></g><g id="svg_143" transform="translate(-6.333313,-1.5784605)"><g id="svg_144"><g id="svg_145" transform="matrix(1.5,0,0,1.5,341,479)"><path id="svg_146" d="m -203.94444,-50.166668 v -4 a 4,4 90 0 1 4,-4 h 4 v 2 h 10 v -2 h 9 60 4 a 4,4 90 0 1 4,4 v 4 h -4 v -3 h -4 v 10 h 4 v -3 h 4 v 4 a 4,4 90 0 1 -4,4 h -4 -60 -1 v 2 h -8 v -2 h -1 -4 a 5,5 90 0 0 -5,5 v 4 4 42 4 a 5,5 90 0 0 5,5 h 4 v 2 h 10 v -2 h 8 v 6 6 4 a 4,4 90 0 1 -4,4 h -4 -9 -1 v 2 h -8 v -2 h -1 -4 a 4,4 90 0 1 -4,-4 v -4 z" style="fill:#ff8b2d;fill-opacity:1;stroke:#e86b0e;stroke-width:1;stroke-linecap:round;stroke-opacity:1"/><text id="svg_147" x="-204.444" y="-58.667" style="font-size:10px;font-family:sans-serif;text-anchor:start;fill:#282828"><tspan id="svg_148" x="-184.444" y="-43.667">おんぷ</tspan></text><text id="svg_149" x="-204.444" y="-58.667" style="font-size:6.66666651px;font-family:sans-serif;text-anchor:end;fill:#282828"><tspan id="svg_150" x="-119.444" y="-46.667">ながさ</tspan></text></g></g><g id="svg_151" transform="matrix(0.5,0,0,0.5,341,483)"><g id="svg_152" style="isolation:isolate"><g id="g1403" data-name="レイヤー 2"><g id="g1401"><rect id="svg_153" width="42" height="42" x="-613.333" y="-176" rx="5" ry="5" style="opacity:.4;mix-blend-mode:multiply;fill:#292929"/><path id="svg_154" d="m -582.77346,-146.2 -4.17,-4.16 h 2.26 a 1.035,1.035 0 1 0 0,-2.07 h -4.70999 a 1.08,1.08 0 0 0 -1.11,1 v 0 c 0,0 0,0 0,0.06 v 4.64 0 a 1.04,1.04 0 1 0 2.08,0 v -2.19 l 4.19,4.19 a 1,1 0 0 0 1.46,0 1,1 0 0 0 -10e-6,-1.47 z" style="fill:#fff"/><path id="svg_155" d="m -594.16347,-151.39999 a 1.08,1.08 0 0 0 -1.11,-1 h -4.71001 a 1.035,1.035 0 1 0 0,2.07 h 2.25 l -4.15997,4.12999 a 1.039447,1.039447 0 0 0 1.47,1.47 l 4.18,-4.19 v 2.26 a 1.04,1.04 0 1 0 2.08,0 v -4.64 c 0,0 0,0 0,-0.06 a 0.08,0.08 0 0 1 -2e-5,-0.04 z" style="fill:#fff"/><path id="svg_156" d="m -589.39345,-155.5 h 4.7 a 1.04,1.04 0 1 0 0,-2.08 h -2.24999 l 4.17,-4.16 a 1,1 0 0 0 0,-1.47 1,1 0 0 0 -1.46,0 l -4.19004,4.21 v -2.28 a 1.04,1.04 0 1 0 -2.08,0 v 4.64 a 0.43000001,0.43000001 0 0 0 0,0.05 v 0.05 a 1.09,1.09 0 0 0 1.11003,1.04 z" style="fill:#fff"/><path id="svg_157" d="m -595.20345,-162.38 a 1.08,1.08 0 0 0 -1,1.09 v 2.29 l -4.18,-4.19 a 1,1 0 0 0 -1.47,0 1,1 0 0 0 0,1.46 l 4.16,4.17 h -2.29003 a 1.04,1.04 0 1 0 0,2.08 h 4.71 a 1.09,1.09 0 0 0 1.11,-1 c 0,0 0,0 0,-0.06 v -4.74999 a 1.0700001,1.0700001 0 0 0 -1.03997,-1.09001 z" style="fill:#fff"/></g></g></g></g></g><g id="svg_158" transform="translate(-6.333313,-1.5784605)"><g id="svg_159" transform="matrix(1.5,0,0,1.5,473,479)"><path id="svg_160" d="m -195.94444,-50.166668 v -4 a 4,4 90 0 1 4,-4 h 4 10 30 4 a 4,4 90 0 1 4,4 v 4 h -4 v -3 h -4 v 10 h 4 v -3 h 4 v 17 h -4 v -3 h -4 v 10 h 4 v -3 h 4 v 4 a 4,4 90 0 1 -4,4 h -4 -30 -10 -4 a 4,4 90 0 1 -4,-4 v -4 -21 -1 h -6 v 3 h -2 v -8 h 2 v 3 h 6 z" style="fill:#ff5293;fill-opacity:1;stroke:#ff2c76;stroke-width:1;stroke-linecap:round;stroke-opacity:1"/><text id="svg_161" x="-204.444" y="-58.667" style="font-size:9px;font-family:sans-serif;text-anchor:end;fill:#282828"><tspan id="svg_162" x="-150.444" y="-35.667">➗</tspan></text></g></g><g id="svg_167" transform="translate(-6.333313,-1.5784605)"><g id="svg_168" transform="matrix(1.5,0,0,1.5,559,479)"><path id="svg_169" d="m -195.94444,-58.166668 h 60 v 20 h -60 v -8 -1 h -6 v 3 h -2 v -8 h 2 v 3 h 6 v -1 z" style="fill:#ff5293;fill-opacity:1;stroke:#ff2c76;stroke-width:1;stroke-linecap:round;stroke-opacity:1"/><text id="svg_170" x="-204.444" y="-58.667" style="font-size:10px;font-family:sans-serif;text-anchor:start;fill:#282828"><tspan id="svg_171" x="-191.444" y="-44.667">1</tspan></text></g></g><g id="svg_172" transform="translate(-6.333313,-1.5784605)"><g id="svg_173" transform="matrix(1.5,0,0,1.5,559,511)"><path id="svg_174" d="m -195.94444,-58.166668 h 60 v 20 h -60 v -8 -1 h -6 v 3 h -2 v -8 h 2 v 3 h 6 v -1 z" style="fill:#ff5293;fill-opacity:1;stroke:#ff2c76;stroke-width:1;stroke-linecap:round;stroke-opacity:1"/><text id="svg_175" x="-204.444" y="-58.667" style="font-size:10px;font-family:sans-serif;text-anchor:start;fill:#282828"><tspan id="svg_176" x="-191.444" y="-44.667">4</tspan></text></g></g><g id="svg_177" transform="translate(-6.333313,-1.5784605)"><g id="svg_178" transform="matrix(1.5,0,0,1.5,355,511)"><path id="svg_179" d="m -203.94444,-50.166668 v -4 a 4,4 90 0 1 4,-4 h 4 v 2 h 10 v -2 h 20 4 a 4,4 90 0 1 4,4 v 4 4 4 a 4,4 90 0 1 -4,4 h -4 -20 -1 v 2 h -8 v -2 h -1 -4 a 4,4 90 0 1 -4,-4 v -4 z" style="fill:#b0b0b0;fill-opacity:1;stroke:#a0a0a0;stroke-width:1;stroke-linecap:round;stroke-opacity:1"/><text id="svg_180" x="-204.444" y="-58.667" style="font-size:10px;font-family:sans-serif;text-anchor:end;fill:#282828"><tspan id="svg_181" x="-168.444" y="-44.667">↓</tspan></text></g></g><path id="svg_184" d="m 42.750027,466.17154 v -6 c 0,-3.31371 2.68629,-6 6,-6 h 6 v 3 h 15 v -3 h 81.000003 6 c 3.31371,0 7.04789,2.85634 6,6 v 6 h -6 v -4.5 h -6 v 15 h 6 v -4.5 h 6 v 25.5 h -6 v -4.5 h -6 v 15 h 6 v -4.5 h 6 v 6 c 0,3.31371 -2.68629,6 -6,6 h -6 -81.000003 -1.5 v 3 h -12 v -3 h -1.5 -6 c -3.31371,0 -6,-2.68629 -6,-6 v -6 -31.5 z" style="fill:#77c428;fill-opacity:1;stroke:#57ad02;stroke-width:1.5;stroke-linecap:round;stroke-opacity:1"/><text id="svg_185" x="78" y="453.422" style="font-size:15px;font-family:sans-serif;text-anchor:end;fill:#282828;stroke-width:1.5"><tspan style="stroke-width:1.5" id="svg_186" x="147" y="489.422">おとの たかさ</tspan></text><text id="svg_187" x="78" y="453.422" style="font-size:10px;font-family:sans-serif;text-anchor:end;fill:#282828;stroke-width:1.5"><tspan style="stroke-width:1.5" id="svg_188" x="147" y="471.422">なまえ</tspan></text><text id="svg_189" x="78" y="453.422" style="font-size:10px;font-family:sans-serif;text-anchor:end;fill:#282828;stroke-width:1.5"><tspan style="stroke-width:1.5" id="svg_190" x="147" y="502.922">オクターヴの たかさ</tspan></text><g id="svg_191" transform="translate(29.666687,-1.5784605)"><g id="svg_192" transform="matrix(1.5,0,0,1.5,429,543)"><path id="svg_193" d="m -195.94444,-58.166668 h 60 v 20 h -60 v -8 -1 h -6 v 3 h -2 v -8 h 2 v 3 h 6 v -1 z" style="fill:#77c428;fill-opacity:1;stroke:#57ad02;stroke-width:1;stroke-linecap:round;stroke-opacity:1"/><text id="svg_194" x="-204.444" y="-58.667" style="font-size:10px;font-family:sans-serif;text-anchor:start;fill:#282828"><tspan id="svg_195" x="-191.444" y="-44.667">ソ</tspan></text></g></g><g id="svg_196" transform="translate(29.666687,-1.5784605)"><g id="svg_197" transform="matrix(1.5,0,0,1.5,429,575)"><path id="svg_198" d="m -195.94444,-58.166668 h 60 v 20 h -60 v -8 -1 h -6 v 3 h -2 v -8 h 2 v 3 h 6 v -1 z" style="fill:#ff5293;fill-opacity:1;stroke:#ff2c76;stroke-width:1;stroke-linecap:round;stroke-opacity:1"/><text id="svg_199" x="-204.444" y="-58.667" style="font-size:10px;font-family:sans-serif;text-anchor:start;fill:#282828"><tspan id="svg_200" x="-191.444" y="-44.667">4</tspan></text></g></g><g id="svg_201" transform="translate(-6.333313,-1.5784605)"><g id="svg_202"><g id="svg_203" transform="matrix(1.5,0,0,1.5,341,637)"><path id="svg_204" d="m -203.94444,-50.166668 v -4 a 4,4 90 0 1 4,-4 h 4 v 2 h 10 v -2 h 9 60 4 a 4,4 90 0 1 4,4 v 4 h -4 v -3 h -4 v 10 h 4 v -3 h 4 v 4 a 4,4 90 0 1 -4,4 h -4 -60 -1 v 2 h -8 v -2 h -1 -4 a 5,5 90 0 0 -5,5 v 4 4 42 4 a 5,5 90 0 0 5,5 h 4 v 2 h 10 v -2 h 8 v 6 6 4 a 4,4 90 0 1 -4,4 h -4 -9 -1 v 2 h -8 v -2 h -1 -4 a 4,4 90 0 1 -4,-4 v -4 z" style="fill:#ff8b2d;fill-opacity:1;stroke:#e86b0e;stroke-width:1;stroke-linecap:round;stroke-opacity:1"/><text id="svg_205" x="-204.444" y="-58.667" style="font-size:10px;font-family:sans-serif;text-anchor:start;fill:#282828"><tspan id="svg_206" x="-184.444" y="-43.667">おんぷ</tspan></text><text id="svg_207" x="-204.444" y="-58.667" style="font-size:6.66666651px;font-family:sans-serif;text-anchor:end;fill:#282828"><tspan id="svg_208" x="-119.444" y="-46.667">ながさ</tspan></text></g></g><g id="svg_209" transform="matrix(0.5,0,0,0.5,341,641)"><g id="svg_210" style="isolation:isolate"><g id="g1463" data-name="レイヤー 2"><g id="g1461"><rect id="svg_211" width="42" height="42" x="-613.333" y="-176" rx="5" ry="5" style="opacity:.4;mix-blend-mode:multiply;fill:#292929"/><path id="svg_212" d="m -582.77346,-146.2 -4.17,-4.16 h 2.26 a 1.035,1.035 0 1 0 0,-2.07 h -4.70999 a 1.08,1.08 0 0 0 -1.11,1 v 0 c 0,0 0,0 0,0.06 v 4.64 0 a 1.04,1.04 0 1 0 2.08,0 v -2.19 l 4.19,4.19 a 1,1 0 0 0 1.46,0 1,1 0 0 0 -10e-6,-1.47 z" style="fill:#fff"/><path id="svg_213" d="m -594.16347,-151.39999 a 1.08,1.08 0 0 0 -1.11,-1 h -4.71001 a 1.035,1.035 0 1 0 0,2.07 h 2.25 l -4.15997,4.12999 a 1.039447,1.039447 0 0 0 1.47,1.47 l 4.18,-4.19 v 2.26 a 1.04,1.04 0 1 0 2.08,0 v -4.64 c 0,0 0,0 0,-0.06 a 0.08,0.08 0 0 1 -2e-5,-0.04 z" style="fill:#fff"/><path id="svg_214" d="m -589.39345,-155.5 h 4.7 a 1.04,1.04 0 1 0 0,-2.08 h -2.24999 l 4.17,-4.16 a 1,1 0 0 0 0,-1.47 1,1 0 0 0 -1.46,0 l -4.19004,4.21 v -2.28 a 1.04,1.04 0 1 0 -2.08,0 v 4.64 a 0.43000001,0.43000001 0 0 0 0,0.05 v 0.05 a 1.09,1.09 0 0 0 1.11003,1.04 z" style="fill:#fff"/><path id="svg_215" d="m -595.20345,-162.38 a 1.08,1.08 0 0 0 -1,1.09 v 2.29 l -4.18,-4.19 a 1,1 0 0 0 -1.47,0 1,1 0 0 0 0,1.46 l 4.16,4.17 h -2.29003 a 1.04,1.04 0 1 0 0,2.08 h 4.71 a 1.09,1.09 0 0 0 1.11,-1 c 0,0 0,0 0,-0.06 v -4.74999 a 1.0700001,1.0700001 0 0 0 -1.03997,-1.09001 z" style="fill:#fff"/></g></g></g></g></g><g id="svg_216" transform="translate(-6.333313,-1.5784605)"><g id="svg_217" transform="matrix(1.5,0,0,1.5,473,637)"><path id="svg_218" d="m -195.94444,-50.166668 v -4 a 4,4 90 0 1 4,-4 h 4 10 30 4 a 4,4 90 0 1 4,4 v 4 h -4 v -3 h -4 v 10 h 4 v -3 h 4 v 17 h -4 v -3 h -4 v 10 h 4 v -3 h 4 v 4 a 4,4 90 0 1 -4,4 h -4 -30 -10 -4 a 4,4 90 0 1 -4,-4 v -4 -21 -1 h -6 v 3 h -2 v -8 h 2 v 3 h 6 z" style="fill:#ff5293;fill-opacity:1;stroke:#ff2c76;stroke-width:1;stroke-linecap:round;stroke-opacity:1"/><text id="svg_219" x="-204.444" y="-58.667" style="font-size:9px;font-family:sans-serif;text-anchor:end;fill:#282828"><tspan id="svg_220" x="-150.444" y="-35.667">➗</tspan></text></g></g><g id="svg_225" transform="translate(-6.333313,-1.5784605)"><g id="svg_226" transform="matrix(1.5,0,0,1.5,559,637)"><path id="svg_227" d="m -195.94444,-58.166668 h 60 v 20 h -60 v -8 -1 h -6 v 3 h -2 v -8 h 2 v 3 h 6 v -1 z" style="fill:#ff5293;fill-opacity:1;stroke:#ff2c76;stroke-width:1;stroke-linecap:round;stroke-opacity:1"/><text id="svg_228" x="-204.444" y="-58.667" style="font-size:10px;font-family:sans-serif;text-anchor:start;fill:#282828"><tspan id="svg_229" x="-191.444" y="-44.667">1</tspan></text></g></g><g id="svg_230" transform="translate(-6.333313,-1.5784605)"><g id="svg_231" transform="matrix(1.5,0,0,1.5,559,669)"><path id="svg_232" d="m -195.94444,-58.166668 h 60 v 20 h -60 v -8 -1 h -6 v 3 h -2 v -8 h 2 v 3 h 6 v -1 z" style="fill:#ff5293;fill-opacity:1;stroke:#ff2c76;stroke-width:1;stroke-linecap:round;stroke-opacity:1"/><text id="svg_233" x="-204.444" y="-58.667" style="font-size:10px;font-family:sans-serif;text-anchor:start;fill:#282828"><tspan id="svg_234" x="-191.444" y="-44.667">1</tspan></text></g></g><g id="svg_235" transform="translate(-6.333313,-1.5784605)"><g id="svg_236" transform="matrix(1.5,0,0,1.5,355,669)"><path id="svg_237" d="m -203.94444,-50.166668 v -4 a 4,4 90 0 1 4,-4 h 4 v 2 h 10 v -2 h 20 4 a 4,4 90 0 1 4,4 v 4 4 4 a 4,4 90 0 1 -4,4 h -4 -20 -1 v 2 h -8 v -2 h -1 -4 a 4,4 90 0 1 -4,-4 v -4 z" style="fill:#b0b0b0;fill-opacity:1;stroke:#a0a0a0;stroke-width:1;stroke-linecap:round;stroke-opacity:1"/><text id="svg_238" x="-204.444" y="-58.667" style="font-size:10px;font-family:sans-serif;text-anchor:end;fill:#282828"><tspan id="svg_239" x="-168.444" y="-44.667">↓</tspan></text></g></g><path id="svg_242" d="m 42.750027,624.17154 v -6 c 0,-3.31371 2.68629,-6 6,-6 h 6 v 3 h 15 v -3 h 81.000003 6 c 3.31371,0 7.04789,2.85634 6,6 v 6 h -6 v -4.5 h -6 v 15 h 6 v -4.5 h 6 v 25.5 h -6 v -4.5 h -6 v 15 h 6 v -4.5 h 6 v 6 c 0,3.31371 -2.68629,6 -6,6 h -6 -81.000003 -1.5 v 3 h -12 v -3 h -1.5 -6 c -3.31371,0 -6,-2.68629 -6,-6 v -6 -31.5 z" style="fill:#77c428;fill-opacity:1;stroke:#57ad02;stroke-width:1.5;stroke-linecap:round;stroke-opacity:1"/><text id="svg_243" x="76" y="611.422" style="font-size:15px;font-family:sans-serif;text-anchor:end;fill:#282828;stroke-width:1.5"><tspan style="stroke-width:1.5" id="svg_244" x="145" y="647.422">おとの たかさ</tspan></text><text id="svg_245" x="76" y="611.422" style="font-size:10px;font-family:sans-serif;text-anchor:end;fill:#282828;stroke-width:1.5"><tspan style="stroke-width:1.5" id="svg_246" x="145" y="629.422">なまえ</tspan></text><text id="svg_247" x="76" y="611.422" style="font-size:10px;font-family:sans-serif;text-anchor:end;fill:#282828;stroke-width:1.5"><tspan style="stroke-width:1.5" id="svg_248" x="145" y="660.922">オクターヴの たかさ</tspan></text><g id="svg_249" transform="translate(29.666687,-1.5784605)"><g id="svg_250" transform="matrix(1.5,0,0,1.5,429,701)"><path id="svg_251" d="m -195.94444,-58.166668 h 60 v 20 h -60 v -8 -1 h -6 v 3 h -2 v -8 h 2 v 3 h 6 v -1 z" style="fill:#77c428;fill-opacity:1;stroke:#57ad02;stroke-width:1;stroke-linecap:round;stroke-opacity:1"/><text id="svg_252" x="-204.444" y="-58.667" style="font-size:10px;font-family:sans-serif;text-anchor:start;fill:#282828"><tspan id="svg_253" x="-191.444" y="-44.667">ド</tspan></text></g></g><g id="svg_254" transform="translate(29.666687,-1.5784605)"><g id="svg_255" transform="matrix(1.5,0,0,1.5,429,733)"><path id="svg_256" d="m -195.94444,-58.166668 h 60 v 20 h -60 v -8 -1 h -6 v 3 h -2 v -8 h 2 v 3 h 6 v -1 z" style="fill:#ff5293;fill-opacity:1;stroke:#ff2c76;stroke-width:1;stroke-linecap:round;stroke-opacity:1"/><text id="svg_257" x="-204.444" y="-58.667" style="font-size:10px;font-family:sans-serif;text-anchor:start;fill:#282828"><tspan id="svg_258" x="-191.444" y="-44.667">5</tspan></text></g></g></svg>