<svg xmlns="http://www.w3.org/2000/svg" xmlns:svg="http://www.w3.org/2000/svg" id="svg11666" width="223.833" height="396.843" version="1.1" viewBox="0 0 59.223 104.998"><metadata id="metadata11663"/><g id="g4321" transform="matrix(0.26458333,0,0,0.26458333,-93.927082,-498.72375)"><g id="g4301" transform="translate(355,1885.3617)"><g id="g4299" transform="scale(1.5)"><path style="fill:#77c428;fill-opacity:1;stroke:#57ad02;stroke-width:1;stroke-linecap:round;stroke-opacity:1" id="path4293" d="m 0.5,14.5 v -4 c 0,-2.209139 1.790861,-4 4,-4 h 4 l 5,-6 5,6 h 9 70.695964 3.999996 c 2.20914,0 4.69859,1.9042267 4,4 v 4 4 4 c 0,2.209139 -1.79086,4 -4,4 H 98.195964 27.5 h -1 v 2 h -8 v -2 h -1 -4 c -2.761424,0 -5,2.238576 -5,5 v 4 4 189 4 c 0,2.76142 2.238576,5 5,5 h 4 v 2 h 10 v -2 h 8 v 6 6 4 c 0,2.20914 -1.790861,4 -4,4 h -4 -9 l -5,6 -5,-6 h -4 c -2.209139,0 -4,-1.79086 -4,-4 v -4 z"/><text style="font-size:10px;font-family:sans-serif;text-anchor:start;fill:#282828" id="text4297"><tspan id="tspan4295" x="20" y="22">キーボード</tspan></text></g></g><g id="g4319" transform="matrix(0.5,0,0,0.5,355,1897.3617)"><g style="isolation:isolate" id="g4317"><g id="g4315" data-name="レイヤー 2"><g id="g4313"><rect style="opacity:.4;mix-blend-mode:multiply;fill:#292929" id="rect4303" width="42" height="42" x="0" y="0" rx="5" ry="5"/><path style="fill:#fff" id="path4305" d="m 30.56,29.8 -4.17,-4.16 h 2.26 a 1.035,1.035 0 1 0 0,-2.07 h -4.71 a 1.08,1.08 0 0 0 -1.11,1 v 0 c 0,0 0,0 0,0.06 v 4.64 0 a 1.04,1.04 0 1 0 2.08,0 v -2.19 l 4.19,4.19 a 1,1 0 0 0 1.46,0 1,1 0 0 0 0,-1.47 z"/><path style="fill:#fff" id="path4307" d="m 19.17,24.6 a 1.08,1.08 0 0 0 -1.11,-1 h -4.71 a 1.035,1.035 0 1 0 0,2.07 h 2.25 l -4.16,4.13 a 1.039447,1.039447 0 0 0 1.47,1.47 l 4.18,-4.19 v 2.26 a 1.04,1.04 0 1 0 2.08,0 V 24.7 c 0,0 0,0 0,-0.06 a 0.08,0.08 0 0 1 0,-0.04 z"/><path style="fill:#fff" id="path4309" d="m 23.94,20.5 h 4.7 a 1.04,1.04 0 1 0 0,-2.08 h -2.25 l 4.17,-4.16 a 1,1 0 0 0 0,-1.47 1,1 0 0 0 -1.46,0 L 24.91,17 v -2.28 a 1.04,1.04 0 1 0 -2.08,0 v 4.64 a 0.43,0.43 0 0 0 0,0.05 v 0.05 a 1.09,1.09 0 0 0 1.11,1.04 z"/><path style="fill:#fff" id="path4311" d="m 18.13,13.62 a 1.08,1.08 0 0 0 -1,1.09 V 17 l -4.18,-4.19 a 1,1 0 0 0 -1.47,0 1,1 0 0 0 0,1.46 l 4.16,4.17 h -2.29 a 1.04,1.04 0 1 0 0,2.08 h 4.71 a 1.09,1.09 0 0 0 1.11,-1 c 0,0 0,0 0,-0.06 v -4.75 a 1.07,1.07 0 0 0 -1.04,-1.09 z"/></g></g></g></g></g><g id="g4339" transform="matrix(0.26458333,0,0,0.26458333,12.391321,10.827162)"><g id="g4337" transform="scale(1.5)"><path style="fill:#77c428;fill-opacity:1;stroke:#57ad02;stroke-width:1;stroke-linecap:round;stroke-opacity:1" id="path4323" d="m -21.722222,8.5 v -4 c 0,-2.209139 1.790861,-4 3.999999,-4 h 4 v 2 h 10.0000004 v -2 H 48.5 h 4 c 2.209139,0 4,1.790861 4,4 v 4 h -4 v -3 h -4 v 10 h 4 v -3 h 4 v 17 h -4 v -3 h -4 v 10 h 4 v -3 h 4 v 4 c 0,2.209139 -1.790861,4 -4,4 h -4 -52.2222226 -1 v 2 h -8.0000004 v -2 h -1 -4 c -2.209138,0 -3.999999,-1.790861 -3.999999,-4 v -4 -21 z"/><text style="font-size:10px;font-family:sans-serif;text-anchor:end;fill:#282828" id="text4327"><tspan id="tspan4325" x="46" y="24">おとの たかさ</tspan></text><text style="font-size:6.66666651px;font-family:sans-serif;text-anchor:end;fill:#282828" id="text4331"><tspan id="tspan4329" x="46" y="12">なまえ</tspan></text><text style="font-size:6.66666651px;font-family:sans-serif;text-anchor:end;fill:#282828" id="text4335"><tspan id="tspan4333" x="46" y="33">オクターヴの たかさ</tspan></text></g></g><g id="g4349" transform="matrix(0.26458333,0,0,0.26458333,31.838196,10.827162)"><g id="g4347" transform="scale(1.5)"><path style="fill:#77c428;fill-opacity:1;stroke:#57ad02;stroke-width:1;stroke-linecap:round;stroke-opacity:1" id="path4341" d="m 8.5,0.5 h 60 v 20 h -60 v -8 -1 h -6 v 3 h -2 v -8 h 2 v 3 h 6 v -1 z"/><text style="font-size:10px;font-family:sans-serif;text-anchor:start;fill:#282828" id="text4345"><tspan id="tspan4343" x="13" y="14">ド</tspan></text></g></g><g id="g4359" transform="matrix(0.26458333,0,0,0.26458333,31.838196,19.161537)"><g id="g4357" transform="scale(1.5)"><path style="fill:#ff5293;fill-opacity:1;stroke:#ff2c76;stroke-width:1;stroke-linecap:round;stroke-opacity:1" id="path4351" d="m 8.5,0.5 h 60 v 20 h -60 v -8 -1 h -6 v 3 h -2 v -8 h 2 v 3 h 6 v -1 z"/><text style="font-size:10px;font-family:sans-serif;text-anchor:start;fill:#282828" id="text4355"><tspan id="tspan4353" x="13" y="14">4</tspan></text></g></g><g id="g4377" transform="matrix(0.26458333,0,0,0.26458333,12.391321,27.495911)"><g id="g4375" transform="scale(1.5)"><path style="fill:#77c428;fill-opacity:1;stroke:#57ad02;stroke-width:1;stroke-linecap:round;stroke-opacity:1" id="path4361" d="m -21.722222,8.5 v -4 c 0,-2.209139 1.790861,-4 3.999999,-4 h 4 v 2 h 10.0000004 v -2 H 48.5 h 4 c 2.209139,0 4,1.790861 4,4 v 4 h -4 v -3 h -4 v 10 h 4 v -3 h 4 v 17 h -4 v -3 h -4 v 10 h 4 v -3 h 4 v 4 c 0,2.209139 -1.790861,4 -4,4 h -4 -52.2222226 -1 v 2 h -8.0000004 v -2 h -1 -4 c -2.209138,0 -4.69859,-1.904227 -3.999999,-4 v -4 -21 z"/><text style="font-size:10px;font-family:sans-serif;text-anchor:end;fill:#282828" id="text4365"><tspan id="tspan4363" x="46" y="24">おとの たかさ</tspan></text><text style="font-size:6.66666651px;font-family:sans-serif;text-anchor:end;fill:#282828" id="text4369"><tspan id="tspan4367" x="46" y="12">なまえ</tspan></text><text style="font-size:6.66666651px;font-family:sans-serif;text-anchor:end;fill:#282828" id="text4373"><tspan id="tspan4371" x="46" y="33">オクターヴの たかさ</tspan></text></g></g><g id="g4387" transform="matrix(0.26458333,0,0,0.26458333,31.838196,27.495911)"><g id="g4385" transform="scale(1.5)"><path style="fill:#77c428;fill-opacity:1;stroke:#57ad02;stroke-width:1;stroke-linecap:round;stroke-opacity:1" id="path4379" d="m 8.5,0.5 h 60 v 20 h -60 v -8 -1 h -6 v 3 h -2 v -8 h 2 v 3 h 6 v -1 z"/><text style="font-size:10px;font-family:sans-serif;text-anchor:start;fill:#282828" id="text4383"><tspan id="tspan4381" x="13" y="14">レ</tspan></text></g></g><g id="g4397" transform="matrix(0.26458333,0,0,0.26458333,31.838196,35.830286)"><g id="g4395" transform="scale(1.5)"><path style="fill:#ff5293;fill-opacity:1;stroke:#ff2c76;stroke-width:1;stroke-linecap:round;stroke-opacity:1" id="path4389" d="m 8.5,0.5 h 60 v 20 h -60 v -8 -1 h -6 v 3 h -2 v -8 h 2 v 3 h 6 v -1 z"/><text style="font-size:10px;font-family:sans-serif;text-anchor:start;fill:#282828" id="text4393"><tspan id="tspan4391" x="13" y="14">4</tspan></text></g></g><g id="g4415" transform="matrix(0.26458333,0,0,0.26458333,12.391321,44.164661)"><g id="g4413" transform="scale(1.5)"><path style="fill:#77c428;fill-opacity:1;stroke:#57ad02;stroke-width:1;stroke-linecap:round;stroke-opacity:1" id="path4399" d="m -21.722222,8.5 v -4 c 0,-2.209139 1.790861,-4 3.999999,-4 h 4 v 2 h 10.0000004 v -2 H 48.5 h 4 c 2.209139,0 4,1.790861 4,4 v 4 h -4 v -3 h -4 v 10 h 4 v -3 h 4 v 17 h -4 v -3 h -4 v 10 h 4 v -3 h 4 v 4 c 0,2.209139 -1.790861,4 -4,4 h -4 -52.2222226 -1 v 2 h -8.0000004 v -2 h -1 -4 c -2.209138,0 -4.69859,-1.904227 -3.999999,-4 v -4 -21 z"/><text style="font-size:10px;font-family:sans-serif;text-anchor:end;fill:#282828" id="text4403"><tspan id="tspan4401" x="46" y="24">おとの たかさ</tspan></text><text style="font-size:6.66666651px;font-family:sans-serif;text-anchor:end;fill:#282828" id="text4407"><tspan id="tspan4405" x="46" y="12">なまえ</tspan></text><text style="font-size:6.66666651px;font-family:sans-serif;text-anchor:end;fill:#282828" id="text4411"><tspan id="tspan4409" x="46" y="33">オクターヴの たかさ</tspan></text></g></g><g id="g4425" transform="matrix(0.26458333,0,0,0.26458333,31.838196,44.164661)"><g id="g4423" transform="scale(1.5)"><path style="fill:#77c428;fill-opacity:1;stroke:#57ad02;stroke-width:1;stroke-linecap:round;stroke-opacity:1" id="path4417" d="m 8.5,0.5 h 60 v 20 h -60 v -8 -1 h -6 v 3 h -2 v -8 h 2 v 3 h 6 v -1 z"/><text style="font-size:10px;font-family:sans-serif;text-anchor:start;fill:#282828" id="text4421"><tspan id="tspan4419" x="13" y="14">ミ</tspan></text></g></g><g id="g4435" transform="matrix(0.26458333,0,0,0.26458333,31.838196,52.499036)"><g id="g4433" transform="scale(1.5)"><path style="fill:#ff5293;fill-opacity:1;stroke:#ff2c76;stroke-width:1;stroke-linecap:round;stroke-opacity:1" id="path4427" d="m 8.5,0.5 h 60 v 20 h -60 v -8 -1 h -6 v 3 h -2 v -8 h 2 v 3 h 6 v -1 z"/><text style="font-size:10px;font-family:sans-serif;text-anchor:start;fill:#282828" id="text4431"><tspan id="tspan4429" x="13" y="14">4</tspan></text></g></g><g id="g4453" transform="matrix(0.26458333,0,0,0.26458333,12.391321,60.833411)"><g id="g4451" transform="scale(1.5)"><path style="fill:#77c428;fill-opacity:1;stroke:#57ad02;stroke-width:1;stroke-linecap:round;stroke-opacity:1" id="path4437" d="m -21.722222,8.5 v -4 c 0,-2.209139 1.790861,-4 3.999999,-4 h 4 v 2 h 10.0000004 v -2 H 48.5 h 4 c 2.209139,0 4,1.790861 4,4 v 4 h -4 v -3 h -4 v 10 h 4 v -3 h 4 v 17 h -4 v -3 h -4 v 10 h 4 v -3 h 4 v 4 c 0,2.209139 -1.790861,4 -4,4 h -4 -52.2222226 -1 v 2 h -8.0000004 v -2 h -1 -4 c -2.209138,0 -3.999999,-1.790861 -3.999999,-4 v -4 -21 z"/><text style="font-size:10px;font-family:sans-serif;text-anchor:end;fill:#282828" id="text4441"><tspan id="tspan4439" x="46" y="24">おとの たかさ</tspan></text><text style="font-size:6.66666651px;font-family:sans-serif;text-anchor:end;fill:#282828" id="text4445"><tspan id="tspan4443" x="46" y="12">なまえ</tspan></text><text style="font-size:6.66666651px;font-family:sans-serif;text-anchor:end;fill:#282828" id="text4449"><tspan id="tspan4447" x="46" y="33">オクターヴの たかさ</tspan></text></g></g><g id="g4463" transform="matrix(0.26458333,0,0,0.26458333,31.838196,60.833411)"><g id="g4461" transform="scale(1.5)"><path style="fill:#77c428;fill-opacity:1;stroke:#57ad02;stroke-width:1;stroke-linecap:round;stroke-opacity:1" id="path4455" d="m 8.5,0.5 h 60 v 20 h -60 v -8 -1 h -6 v 3 h -2 v -8 h 2 v 3 h 6 v -1 z"/><text style="font-size:10px;font-family:sans-serif;text-anchor:start;fill:#282828" id="text4459"><tspan id="tspan4457" x="13" y="14">ファ</tspan></text></g></g><g id="g4473" transform="matrix(0.26458333,0,0,0.26458333,31.838196,69.167786)"><g id="g4471" transform="scale(1.5)"><path style="fill:#ff5293;fill-opacity:1;stroke:#ff2c76;stroke-width:1;stroke-linecap:round;stroke-opacity:1" id="path4465" d="m 8.5,0.5 h 60 v 20 h -60 v -8 -1 h -6 v 3 h -2 v -8 h 2 v 3 h 6 v -1 z"/><text style="font-size:10px;font-family:sans-serif;text-anchor:start;fill:#282828" id="text4469"><tspan id="tspan4467" x="13" y="14">4</tspan></text></g></g><g id="g4491" transform="matrix(0.26458333,0,0,0.26458333,12.391321,77.502161)"><g id="g4489" transform="scale(1.5)"><path style="fill:#77c428;fill-opacity:1;stroke:#57ad02;stroke-width:1;stroke-linecap:round;stroke-opacity:1" id="path4475" d="m -21.722222,8.5 v -4 c 0,-2.209139 1.790861,-4 3.999999,-4 h 4 v 2 h 10.0000004 v -2 H 48.5 h 4 c 2.209139,0 4,1.790861 4,4 v 4 h -4 v -3 h -4 v 10 h 4 v -3 h 4 v 17 h -4 v -3 h -4 v 10 h 4 v -3 h 4 v 4 c 0,2.209139 -1.790861,4 -4,4 h -4 -52.2222226 -1 v 2 h -8.0000004 v -2 h -1 -4 c -2.209138,0 -3.999999,-1.790861 -3.999999,-4 v -4 -21 z"/><text style="font-size:10px;font-family:sans-serif;text-anchor:end;fill:#282828" id="text4479"><tspan id="tspan4477" x="46" y="24">おとの たかさ</tspan></text><text style="font-size:6.66666651px;font-family:sans-serif;text-anchor:end;fill:#282828" id="text4483"><tspan id="tspan4481" x="46" y="12">なまえ</tspan></text><text style="font-size:6.66666651px;font-family:sans-serif;text-anchor:end;fill:#282828" id="text4487"><tspan id="tspan4485" x="46" y="33">オクターヴの たかさ</tspan></text></g></g><g id="g4501" transform="matrix(0.26458333,0,0,0.26458333,31.838196,77.502161)"><g id="g4499" transform="scale(1.5)"><path style="fill:#77c428;fill-opacity:1;stroke:#57ad02;stroke-width:1;stroke-linecap:round;stroke-opacity:1" id="path4493" d="m 8.5,0.5 h 60 v 20 h -60 v -8 -1 h -6 v 3 h -2 v -8 h 2 v 3 h 6 v -1 z"/><text style="font-size:10px;font-family:sans-serif;text-anchor:start;fill:#282828" id="text4497"><tspan id="tspan4495" x="13" y="14">ソ</tspan></text></g></g><g id="g4511" transform="matrix(0.26458333,0,0,0.26458333,31.838196,85.836536)"><g id="g4509" transform="scale(1.5)"><path style="fill:#ff5293;fill-opacity:1;stroke:#ff2c76;stroke-width:1;stroke-linecap:round;stroke-opacity:1" id="path4503" d="m 8.5,0.5 h 60 v 20 h -60 v -8 -1 h -6 v 3 h -2 v -8 h 2 v 3 h 6 v -1 z"/><text style="font-size:10px;font-family:sans-serif;text-anchor:start;fill:#282828" id="text4507"><tspan id="tspan4505" x="13" y="14">4</tspan></text></g></g></svg>