<svg xmlns="http://www.w3.org/2000/svg" xmlns:svg="http://www.w3.org/2000/svg" id="svg2831" width="370.667" height="192" version="1.1" viewBox="0 0 98.072 50.8"><metadata id="metadata2828"/><path id="path864" d="m 35.388034,20.042188 v -1.587501 c 0,-0.876752 0.710748,-1.5875 1.5875,-1.5875 h 1.5875 3.96875 27.95764 1.5875 c 0.876752,0 1.5875,0.710748 1.5875,1.5875 v 1.587501 h -1.5875 v -1.190626 h -1.5875 v 3.96875 h 1.5875 v -1.190625 h 1.5875 v 6.746875 h -1.5875 v -1.190625 h -1.5875 v 3.96875 h 1.5875 v -1.190624 h 1.5875 v 1.587499 c 0,0.876753 -0.710748,1.5875 -1.5875,1.5875 h -1.5875 -27.95764 -3.96875 -1.5875 c -0.876752,0 -1.5875,-0.710747 -1.5875,-1.5875 v -1.587499 -8.334376 -0.396875 h -2.38125 v 1.190625 h -0.79375 v -3.175 h 0.79375 v 1.190625 h 2.38125 z" style="fill:#ff5293;fill-opacity:1;stroke:#ff2c76;stroke-width:.39687499;stroke-linecap:round;stroke-opacity:1"/><text id="text868" x="48.066" y="16.669" style="font-size:3.96875px;font-family:sans-serif;text-anchor:end;fill:#282828"><tspan id="tspan866" x="69.497" y="25.797">どちらか ランダム</tspan></text><text id="text872" x="48.066" y="16.669" style="font-size:2.64583325px;font-family:sans-serif;text-anchor:end;fill:#282828"><tspan id="tspan870" x="69.497" y="21.431">これか</tspan></text><text id="text876" x="48.066" y="16.669" style="font-size:2.64583325px;font-family:sans-serif;text-anchor:end;fill:#282828"><tspan id="tspan874" x="69.497" y="29.766">それか</tspan></text><g id="g890" transform="matrix(0.26458333,0,0,0.26458333,70.68786,16.66875)"><g id="g888" transform="scale(1.5)"><path id="path882" d="m 8.5,0.5 h 60 v 20 h -60 v -8 -1 h -6 v 3 h -2 v -8 h 2 v 3 h 6 v -1 z" style="fill:#77c428;fill-opacity:1;stroke:#57ad02;stroke-width:1;stroke-linecap:round;stroke-opacity:1"/><text id="text886" style="font-size:10px;font-family:sans-serif;text-anchor:start;fill:#282828"><tspan id="tspan884" x="13" y="14">ソ</tspan></text></g></g><g id="g900" transform="matrix(0.26458333,0,0,0.26458333,70.68786,25.003125)"><g id="g898" transform="scale(1.5)"><path id="path892" d="m 8.5,0.5 h 60 v 20 h -60 v -8 -1 h -6 v 3 h -2 v -8 h 2 v 3 h 6 v -1 z" style="fill:#77c428;fill-opacity:1;stroke:#57ad02;stroke-width:1;stroke-linecap:round;stroke-opacity:1"/><text id="text896" style="font-size:10px;font-family:sans-serif;text-anchor:start;fill:#282828"><tspan id="tspan894" x="13" y="14">ラ</tspan></text></g></g><g id="g934" transform="matrix(0.26458333,0,0,0.26458333,-373.85625,-174.88958)"><g id="g914" transform="translate(1413,661)"><g id="g912" transform="scale(1.5)"><path id="path902" d="m 0.5,8.5 v -4 a 4,4 90 0 1 4,-4 h 4 v 2 h 10 v -2 h 9 60 4 a 4,4 90 0 1 4,4 v 4 h -4 v -3 h -4 v 10 h 4 v -3 h 4 v 4 a 4,4 90 0 1 -4,4 h -4 -60 -1 v 2 h -8 v -2 h -1 -4 a 5,5 90 0 0 -5,5 v 4 4 63 4 a 5,5 90 0 0 5,5 h 4 v 2 h 10 v -2 h 8 v 6 6 4 a 4,4 90 0 1 -4,4 h -4 -9 -1 v 2 h -8 v -2 h -1 -4 a 4,4 90 0 1 -4,-4 v -4 z" style="fill:#ff8b2d;fill-opacity:1;stroke:#e86b0e;stroke-width:1;stroke-linecap:round;stroke-opacity:1"/><text id="text906" style="font-size:10px;font-family:sans-serif;text-anchor:start;fill:#282828"><tspan id="tspan904" x="20" y="15">おんぷ</tspan></text><text id="text910" style="font-size:6.66666651px;font-family:sans-serif;text-anchor:end;fill:#282828"><tspan id="tspan908" x="85" y="12">ながさ</tspan></text></g></g><g id="g932" transform="matrix(0.5,0,0,0.5,1413,665)"><g id="g930" style="isolation:isolate"><g id="g928" data-name="レイヤー 2"><g id="g926"><rect id="rect916" width="42" height="42" x="0" y="0" rx="5" ry="5" style="opacity:.4;mix-blend-mode:multiply;fill:#292929"/><path id="path918" d="m 30.56,29.8 -4.17,-4.16 h 2.26 a 1.035,1.035 0 1 0 0,-2.07 h -4.71 a 1.08,1.08 0 0 0 -1.11,1 v 0 c 0,0 0,0 0,0.06 v 4.64 0 a 1.04,1.04 0 1 0 2.08,0 v -2.19 l 4.19,4.19 a 1,1 0 0 0 1.46,0 1,1 0 0 0 0,-1.47 z" style="fill:#fff"/><path id="path920" d="m 19.17,24.6 a 1.08,1.08 0 0 0 -1.11,-1 h -4.71 a 1.035,1.035 0 1 0 0,2.07 h 2.25 l -4.16,4.13 a 1.039447,1.039447 0 0 0 1.47,1.47 l 4.18,-4.19 v 2.26 a 1.04,1.04 0 1 0 2.08,0 V 24.7 c 0,0 0,0 0,-0.06 a 0.08,0.08 0 0 1 0,-0.04 z" style="fill:#fff"/><path id="path922" d="m 23.94,20.5 h 4.7 a 1.04,1.04 0 1 0 0,-2.08 h -2.25 l 4.17,-4.16 a 1,1 0 0 0 0,-1.47 1,1 0 0 0 -1.46,0 L 24.91,17 v -2.28 a 1.04,1.04 0 1 0 -2.08,0 v 4.64 a 0.43,0.43 0 0 0 0,0.05 v 0.05 a 1.09,1.09 0 0 0 1.11,1.04 z" style="fill:#fff"/><path id="path924" d="m 18.13,13.62 a 1.08,1.08 0 0 0 -1,1.09 V 17 l -4.18,-4.19 a 1,1 0 0 0 -1.47,0 1,1 0 0 0 0,1.46 l 4.16,4.17 h -2.29 a 1.04,1.04 0 1 0 0,2.08 h 4.71 a 1.09,1.09 0 0 0 1.11,-1 c 0,0 0,0 0,-0.06 v -4.75 a 1.07,1.07 0 0 0 -1.04,-1.09 z" style="fill:#fff"/></g></g></g></g></g><g id="g952" transform="matrix(0.26458333,0,0,0.26458333,34.925005,0)"><g id="g950" transform="scale(1.5)"><path id="path936" d="m 8.5,8.5 v -4 a 4,4 90 0 1 4,-4 h 4 10 30 4 a 4,4 90 0 1 4,4 v 4 h -4 v -3 h -4 v 10 h 4 v -3 h 4 v 17 h -4 v -3 h -4 v 10 h 4 v -3 h 4 v 4 a 4,4 90 0 1 -4,4 h -4 -30 -10 -4 a 4,4 90 0 1 -4,-4 v -4 -21 -1 h -6 v 3 h -2 v -8 h 2 v 3 h 6 z" style="fill:#ff5293;fill-opacity:1;stroke:#ff2c76;stroke-width:1;stroke-linecap:round;stroke-opacity:1"/><text id="text940" style="font-size:9px;font-family:sans-serif;text-anchor:end;fill:#282828"><tspan id="tspan938" x="54" y="23">➗</tspan></text></g></g><g id="g962" transform="matrix(0.26458333,0,0,0.26458333,57.54688,0)"><g id="g960" transform="scale(1.5)"><path id="path954" d="m 8.5,0.5 h 60 v 20 h -60 v -8 -1 h -6 v 3 h -2 v -8 h 2 v 3 h 6 v -1 z" style="fill:#ff5293;fill-opacity:1;stroke:#ff2c76;stroke-width:1;stroke-linecap:round;stroke-opacity:1"/><text id="text958" style="font-size:10px;font-family:sans-serif;text-anchor:start;fill:#282828"><tspan id="tspan956" x="13" y="14">1</tspan></text></g></g><g id="g972" transform="matrix(0.26458333,0,0,0.26458333,57.54688,8.3343749)"><g id="g970" transform="scale(1.5)"><path id="path964" d="m 8.5,0.5 h 60 v 20 h -60 v -8 -1 h -6 v 3 h -2 v -8 h 2 v 3 h 6 v -1 z" style="fill:#ff5293;fill-opacity:1;stroke:#ff2c76;stroke-width:1;stroke-linecap:round;stroke-opacity:1"/><text id="text968" style="font-size:10px;font-family:sans-serif;text-anchor:start;fill:#282828"><tspan id="tspan966" x="13" y="14">4</tspan></text></g></g><g id="g982" transform="matrix(0.26458333,0,0,0.26458333,3.5718796,8.3343749)"><g id="g980" transform="scale(1.5)"><path id="path974" d="m 0.5,8.5 v -4 a 4,4 90 0 1 4,-4 h 4 v 2 h 10 v -2 h 20 4 a 4,4 90 0 1 4,4 v 4 4 4 a 4,4 90 0 1 -4,4 h -4 -20 -1 v 2 h -8 v -2 h -1 -4 a 4,4 90 0 1 -4,-4 v -4 z" style="fill:#b0b0b0;fill-opacity:1;stroke:#a0a0a0;stroke-width:1;stroke-linecap:round;stroke-opacity:1"/><text id="text978" style="font-size:10px;font-family:sans-serif;text-anchor:end;fill:#282828"><tspan id="tspan976" x="36" y="14">↓</tspan></text></g></g><g id="g1000" transform="matrix(0.26458333,0,0,0.26458333,12.567715,16.66875)"><g id="g998" transform="scale(1.5)"><path id="path984" d="m -22.166667,8.5 v -4 c 0,-2.209139 1.790861,-4 4,-4 h 4 v 2 h 9.9999998 v -2 H 48.5 h 4 c 2.209139,0 4,1.790861 4,4 v 4 h -4 v -3 h -4 v 10 h 4 v -3 h 4 v 21 17 h -4 v -3 h -4 v 10 h 4 v -3 h 4 v 4 c 0,2.209139 -1.790861,4 -4,4 h -4 -52.6666672 -1 v 2 h -7.9999998 v -2 h -1 -4 c -2.209139,0 -4.698591,-1.904227 -4,-4 v -4 -21 -21 z" style="fill:#77c428;fill-opacity:1;stroke:#57ad02;stroke-width:1;stroke-linecap:round;stroke-opacity:1"/><text id="text988" style="font-size:10px;font-family:sans-serif;text-anchor:end;fill:#282828"><tspan id="tspan986" x="46" y="35">おとの たかさ</tspan></text><text id="text992" style="font-size:6.66666651px;font-family:sans-serif;text-anchor:end;fill:#282828"><tspan id="tspan990" x="46" y="12">なまえ</tspan></text><text id="text996" style="font-size:6.66666651px;font-family:sans-serif;text-anchor:end;fill:#282828"><tspan id="tspan994" x="46" y="54">オクターヴの たかさ</tspan></text></g></g><g id="g1010" transform="matrix(0.26458333,0,0,0.26458333,32.014594,33.3375)"><g id="g1008" transform="scale(1.5)"><path id="path1002" d="m 8.5,0.5 h 60 v 20 h -60 v -8 -1 h -6 v 3 h -2 v -8 h 2 v 3 h 6 v -1 z" style="fill:#ff5293;fill-opacity:1;stroke:#ff2c76;stroke-width:1;stroke-linecap:round;stroke-opacity:1"/><text id="text1006" style="font-size:10px;font-family:sans-serif;text-anchor:start;fill:#282828"><tspan id="tspan1004" x="13" y="14">4</tspan></text></g></g></svg>