<svg xmlns="http://www.w3.org/2000/svg" xmlns:svg="http://www.w3.org/2000/svg" id="svg6234" width="287.675" height="129.5" version="1.1" viewBox="0 0 76.114 34.264"><metadata id="metadata6231"/><g id="g802" transform="matrix(0.26458333,0,0,0.26458333,8.8657206,0)"><g id="g800" transform="scale(1.5)"><path style="fill:#92a9ff;fill-opacity:1;stroke:#5370dc;stroke-width:1;stroke-linecap:round;stroke-opacity:1" id="path794" d="m -21.722222,8.5 v -4 c 0,-2.209139 1.790861,-4 3.999999,-4 h 4 v 2 h 10.0000003 v -2 h 52.8081597 4 c 2.209139,0 4,1.790861 4,4 v 4 4 4 c 0,2.209139 -1.790861,4 -4,4 h -4 -52.8081597 -1 v 2 h -8.0000003 v -2 h -1 -4 c -2.209138,0 -4.368625,-2.397312 -3.999999,-4 v -4 z"/><text style="font-size:10px;font-family:sans-serif;text-anchor:end;fill:#282828" id="text798"><tspan id="tspan796" x="47" y="14">ペンを あげる</tspan></text></g></g><g id="g812" transform="matrix(0.26458333,0,0,0.26458333,3.2212767,25.135421)"><g id="g810" transform="scale(1.5)"><path style="fill:#92a9ff;fill-opacity:1;stroke:#5370dc;stroke-width:1;stroke-linecap:round;stroke-opacity:1" id="path804" d="m -7.5000002,8.5 v -4 c 0,-2.209139 1.790861,-4 4,-4 h 3.99999999 v 2 H 10.5 v -2 h 51.369141 4 c 2.209139,0 4,1.790861 4,4 v 4 4 4 c 0,2.209139 -1.790861,4 -4,4 h -4 H 10.5 9.4999998 v 2 h -8 v -2 H 0.49999979 -3.5000002 c -2.209139,0 -4.6985911,-1.904227 -4,-4 v -4 z"/><text style="font-size:10px;font-family:sans-serif;text-anchor:end;fill:#282828" id="text808"><tspan id="tspan806" x="60" y="14">ペンを おろす</tspan></text></g></g><g id="g830" transform="matrix(0.26458333,0,0,0.26458333,29.150449,8.466666)"><g id="g828" transform="scale(1.5)"><path style="fill:#92a9ff;fill-opacity:1;stroke:#5370dc;stroke-width:1;stroke-linecap:round;stroke-opacity:1" id="path814" d="m -72.833334,8.5 v -4 c 0,-2.209139 1.790861,-4 4,-4 h 4 v 2 h 10 v -2 H 48.5 h 4 c 2.209139,0 4,1.790861 4,4 v 4 h -4 v -3 h -4 v 10 h 4 v -3 h 4 v 17 h -4 v -3 h -4 v 10 h 4 v -3 h 4 v 4 c 0,2.209139 -1.790861,4 -4,4 h -4 -103.333334 -1 v 2 h -8 v -2 h -1 -4 c -2.209139,0 -4.243055,-2.146168 -4,-4 v -4 -21 z"/><text style="font-size:10px;font-family:sans-serif;text-anchor:end;fill:#282828" id="text818"><tspan id="tspan816" x="46" y="24">していざひょうに いどう</tspan></text><text style="font-size:6.66666651px;font-family:sans-serif;text-anchor:end;fill:#282828" id="text822"><tspan id="tspan820" x="46" y="12">xざひょう （ネズミ）</tspan></text><text style="font-size:6.66666651px;font-family:sans-serif;text-anchor:end;fill:#282828" id="text826"><tspan id="tspan824" x="46" y="33">yざひょう （ネズミ）</tspan></text></g></g><g id="g840" transform="matrix(0.26458333,0,0,0.26458333,48.729616,8.466666)"><g id="g838" transform="scale(1.5)"><path style="fill:#ff6ea1;fill-opacity:1;stroke:#ff2c76;stroke-width:1;stroke-linecap:round;stroke-opacity:1" id="path832" d="m 8.5,0.5 h 60 v 20 h -60 v -8 -1 h -6 v 3 h -2 v -8 h 2 v 3 h 6 v -1 z"/><text style="font-size:10px;font-family:sans-serif;text-anchor:start;fill:#282828" id="text836"><tspan id="tspan834" x="13" y="14">0</tspan></text></g></g><g id="g850" transform="matrix(0.26458333,0,0,0.26458333,48.729616,16.933333)"><g id="g848" transform="scale(1.5)"><path style="fill:#ff6ea1;fill-opacity:1;stroke:#ff2c76;stroke-width:1;stroke-linecap:round;stroke-opacity:1" id="path842" d="m 8.5,0.5 h 60 v 20 h -60 v -8 -1 h -6 v 3 h -2 v -8 h 2 v 3 h 6 v -1 z"/><text style="font-size:10px;font-family:sans-serif;text-anchor:start;fill:#282828" id="text846"><tspan id="tspan844" x="13" y="14">0</tspan></text></g></g></svg>