<svg xmlns="http://www.w3.org/2000/svg" xmlns:svg="http://www.w3.org/2000/svg" id="svg11666" width="339.207" height="680.343" version="1.1" viewBox="0 0 89.748 180.007"><metadata id="metadata11663"/><g id="g3933" transform="matrix(0.26458333,0,0,0.26458333,0,0.11153178)"><g id="g3931" transform="scale(1.5)"><path style="fill:#77c428;fill-opacity:1;stroke:#57ad02;stroke-width:1;stroke-linecap:round;stroke-opacity:1" id="path3925" d="m 0.5,14.5 v -4 c 0,-2.209139 1.790861,-4 4,-4 h 4 l 5,-6 5,6 h 9 80.67806 4 c 2.20914,0 4,1.790861 4,4 v 4 4 4 c 0,2.209139 -1.79086,4 -4,4 h -4 H 27.5 h -1 v 2 h -8 v -2 h -1 -4 c -2.761424,0 -5,2.238576 -5,5 v 4 4 378 4 c 0,2.76142 2.238576,5 5,5 h 4 v 2 h 10 v -2 h 8 v 6 6 4 c 0,2.20914 -1.790861,4 -4,4 h -4 -9 l -5,6 -5,-6 h -4 c -2.209139,0 -4,-1.79086 -4,-4 v -4 z"/><text style="font-size:10px;font-family:sans-serif;text-anchor:start;fill:#282828" id="text3929"><tspan id="tspan3927" x="20" y="22">フレーズメーカー</tspan></text></g></g><g id="g3951" transform="matrix(0.13229166,0,0,0.13229166,0,3.2865318)"><g style="isolation:isolate" id="g3949"><g id="g3947" data-name="レイヤー 2"><g id="g3945"><rect style="opacity:.4;mix-blend-mode:multiply;fill:#292929" id="rect3935" width="42" height="42" x="0" y="0" rx="5" ry="5"/><path style="fill:#fff" id="path3937" d="m 30.56,29.8 -4.17,-4.16 h 2.26 a 1.035,1.035 0 1 0 0,-2.07 h -4.71 a 1.08,1.08 0 0 0 -1.11,1 v 0 c 0,0 0,0 0,0.06 v 4.64 0 a 1.04,1.04 0 1 0 2.08,0 v -2.19 l 4.19,4.19 a 1,1 0 0 0 1.46,0 1,1 0 0 0 0,-1.47 z"/><path style="fill:#fff" id="path3939" d="m 19.17,24.6 a 1.08,1.08 0 0 0 -1.11,-1 h -4.71 a 1.035,1.035 0 1 0 0,2.07 h 2.25 l -4.16,4.13 a 1.039447,1.039447 0 0 0 1.47,1.47 l 4.18,-4.19 v 2.26 a 1.04,1.04 0 1 0 2.08,0 V 24.7 c 0,0 0,0 0,-0.06 a 0.08,0.08 0 0 1 0,-0.04 z"/><path style="fill:#fff" id="path3941" d="m 23.94,20.5 h 4.7 a 1.04,1.04 0 1 0 0,-2.08 h -2.25 l 4.17,-4.16 a 1,1 0 0 0 0,-1.47 1,1 0 0 0 -1.46,0 L 24.91,17 v -2.28 a 1.04,1.04 0 1 0 -2.08,0 v 4.64 a 0.43,0.43 0 0 0 0,0.05 v 0.05 a 1.09,1.09 0 0 0 1.11,1.04 z"/><path style="fill:#fff" id="path3943" d="m 18.13,13.62 a 1.08,1.08 0 0 0 -1,1.09 V 17 l -4.18,-4.19 a 1,1 0 0 0 -1.47,0 1,1 0 0 0 0,1.46 l 4.16,4.17 h -2.29 a 1.04,1.04 0 1 0 0,2.08 h 4.71 a 1.09,1.09 0 0 0 1.11,-1 c 0,0 0,0 0,-0.06 v -4.75 a 1.07,1.07 0 0 0 -1.04,-1.09 z"/></g></g></g></g><g id="g3969" transform="matrix(0.396875,0,0,0.396875,12.038543,10.827157)"><path style="fill:#77c428;fill-opacity:1;stroke:#57ad02;stroke-width:1;stroke-linecap:round;stroke-opacity:1" id="path3955" d="m -22.166668,8.5 v -4 c 0,-2.209139 1.790861,-4 4,-4 h 4 v 2 h 10.0000003 v -2 H 48.5 h 4 c 2.209139,0 4,1.790861 4,4 v 4 h -4 v -3 h -4 v 10 h 4 v -3 h 4 v 17 h -4 v -3 h -4 v 10 h 4 v -3 h 4 v 4 c 0,2.209139 -1.790861,4 -4,4 h -4 -52.6666677 -1 v 2 h -8.0000003 v -2 h -1 -4 c -2.209139,0 -4,-1.790861 -4,-4 v -4 -21 z"/><text style="font-size:10px;font-family:sans-serif;text-anchor:end;fill:#282828" id="text3959"><tspan id="tspan3957" x="46" y="24">おとの たかさ</tspan></text><text style="font-size:6.66666651px;font-family:sans-serif;text-anchor:end;fill:#282828" id="text3963"><tspan id="tspan3961" x="46" y="12">なまえ</tspan></text><text style="font-size:6.66666651px;font-family:sans-serif;text-anchor:end;fill:#282828" id="text3967"><tspan id="tspan3965" x="46" y="33">オクターヴの たかさ</tspan></text></g><g id="g3979" transform="matrix(0.396875,0,0,0.396875,31.485421,10.827157)"><path style="fill:#77c428;fill-opacity:1;stroke:#57ad02;stroke-width:1;stroke-linecap:round;stroke-opacity:1" id="path3973" d="m 8.5,0.5 h 60 v 20 h -60 v -8 -1 h -6 v 3 h -2 v -8 h 2 v 3 h 6 v -1 z"/><text style="font-size:10px;font-family:sans-serif;text-anchor:start;fill:#282828" id="text3977"><tspan id="tspan3975" x="13" y="14">シ</tspan></text></g><g id="g3989" transform="matrix(0.396875,0,0,0.396875,31.485421,19.161532)"><path style="fill:#ff5293;fill-opacity:1;stroke:#ff2c76;stroke-width:1;stroke-linecap:round;stroke-opacity:1" id="path3983" d="m 8.5,0.5 h 60 v 20 h -60 v -8 -1 h -6 v 3 h -2 v -8 h 2 v 3 h 6 v -1 z"/><text style="font-size:10px;font-family:sans-serif;text-anchor:start;fill:#282828" id="text3987"><tspan id="tspan3985" x="13" y="14">4</tspan></text></g><g id="g4007" transform="matrix(0.396875,0,0,0.396875,12.038543,27.495907)"><path style="fill:#77c428;fill-opacity:1;stroke:#57ad02;stroke-width:1;stroke-linecap:round;stroke-opacity:1" id="path3993" d="m -20.833334,8.5 v -4 c 0,-2.209139 1.790861,-4 4,-4 h 4 v 2 h 9.9999997 v -2 H 48.5 h 4 c 2.209139,0 4,1.790861 4,4 v 4 h -4 v -3 h -4 v 10 h 4 v -3 h 4 v 17 h -4 v -3 h -4 v 10 h 4 v -3 h 4 v 4 c 0,2.209139 -1.790861,4 -4,4 h -4 -51.3333343 -1 v 2 h -7.9999997 v -2 h -1 -4 c -2.209139,0 -4.698591,-1.904227 -4,-4 v -4 -21 z"/><text style="font-size:10px;font-family:sans-serif;text-anchor:end;fill:#282828" id="text3997"><tspan id="tspan3995" x="46" y="24">おとの たかさ</tspan></text><text style="font-size:6.66666651px;font-family:sans-serif;text-anchor:end;fill:#282828" id="text4001"><tspan id="tspan3999" x="46" y="12">なまえ</tspan></text><text style="font-size:6.66666651px;font-family:sans-serif;text-anchor:end;fill:#282828" id="text4005"><tspan id="tspan4003" x="46" y="33">オクターヴの たかさ</tspan></text></g><g id="g4017" transform="matrix(0.396875,0,0,0.396875,31.485421,27.495907)"><path style="fill:#77c428;fill-opacity:1;stroke:#57ad02;stroke-width:1;stroke-linecap:round;stroke-opacity:1" id="path4011" d="m 8.5,0.5 h 60 v 20 h -60 v -8 -1 h -6 v 3 h -2 v -8 h 2 v 3 h 6 v -1 z"/><text style="font-size:10px;font-family:sans-serif;text-anchor:start;fill:#282828" id="text4015"><tspan id="tspan4013" x="13" y="14">ラ</tspan></text></g><g id="g4027" transform="matrix(0.396875,0,0,0.396875,31.485421,35.830281)"><path style="fill:#ff5293;fill-opacity:1;stroke:#ff2c76;stroke-width:1;stroke-linecap:round;stroke-opacity:1" id="path4021" d="m 8.5,0.5 h 60 v 20 h -60 v -8 -1 h -6 v 3 h -2 v -8 h 2 v 3 h 6 v -1 z"/><text style="font-size:10px;font-family:sans-serif;text-anchor:start;fill:#282828" id="text4025"><tspan id="tspan4023" x="13" y="14">4</tspan></text></g><g id="g4045" transform="matrix(0.396875,0,0,0.396875,12.038543,44.164656)"><path style="fill:#77c428;fill-opacity:1;stroke:#57ad02;stroke-width:1;stroke-linecap:round;stroke-opacity:1" id="path4031" d="m -20.833334,8.5 v -4 c 0,-2.209139 1.790861,-4 4,-4 h 4 v 2 h 9.9999997 v -2 H 48.5 h 4 c 2.209139,0 4,1.790861 4,4 v 4 h -4 v -3 h -4 v 10 h 4 v -3 h 4 v 17 h -4 v -3 h -4 v 10 h 4 v -3 h 4 v 4 c 0,2.209139 -1.790861,4 -4,4 h -4 -51.3333343 -1 v 2 h -7.9999997 v -2 h -1 -4 c -2.209139,0 -4.698591,-1.904227 -4,-4 v -4 -21 z"/><text style="font-size:10px;font-family:sans-serif;text-anchor:end;fill:#282828" id="text4035"><tspan id="tspan4033" x="46" y="24">おとの たかさ</tspan></text><text style="font-size:6.66666651px;font-family:sans-serif;text-anchor:end;fill:#282828" id="text4039"><tspan id="tspan4037" x="46" y="12">なまえ</tspan></text><text style="font-size:6.66666651px;font-family:sans-serif;text-anchor:end;fill:#282828" id="text4043"><tspan id="tspan4041" x="46" y="33">オクターヴの たかさ</tspan></text></g><g id="g4055" transform="matrix(0.396875,0,0,0.396875,31.485421,44.164656)"><path style="fill:#77c428;fill-opacity:1;stroke:#57ad02;stroke-width:1;stroke-linecap:round;stroke-opacity:1" id="path4049" d="m 8.5,0.5 h 60 v 20 h -60 v -8 -1 h -6 v 3 h -2 v -8 h 2 v 3 h 6 v -1 z"/><text style="font-size:10px;font-family:sans-serif;text-anchor:start;fill:#282828" id="text4053"><tspan id="tspan4051" x="13" y="14">ソ</tspan></text></g><g id="g4065" transform="matrix(0.396875,0,0,0.396875,31.485421,52.499031)"><path style="fill:#ff5293;fill-opacity:1;stroke:#ff2c76;stroke-width:1;stroke-linecap:round;stroke-opacity:1" id="path4059" d="m 8.5,0.5 h 60 v 20 h -60 v -8 -1 h -6 v 3 h -2 v -8 h 2 v 3 h 6 v -1 z"/><text style="font-size:10px;font-family:sans-serif;text-anchor:start;fill:#282828" id="text4063"><tspan id="tspan4061" x="13" y="14">4</tspan></text></g><g id="g4083" transform="matrix(0.396875,0,0,0.396875,12.038543,60.833406)"><path style="fill:#77c428;fill-opacity:1;stroke:#57ad02;stroke-width:1;stroke-linecap:round;stroke-opacity:1" id="path4069" d="m -20.833334,8.5 v -4 c 0,-2.209139 1.790861,-4 4,-4 h 4 v 2 h 9.9999997 v -2 H 48.5 h 4 c 2.209139,0 4,1.790861 4,4 v 4 h -4 v -3 h -4 v 10 h 4 v -3 h 4 v 17 h -4 v -3 h -4 v 10 h 4 v -3 h 4 v 4 c 0,2.209139 -1.790861,4 -4,4 h -4 -51.3333343 -1 v 2 h -7.9999997 v -2 h -1 -4 c -2.209139,0 -4,-1.790861 -4,-4 v -4 -21 z"/><text style="font-size:10px;font-family:sans-serif;text-anchor:end;fill:#282828" id="text4073"><tspan id="tspan4071" x="46" y="24">おとの たかさ</tspan></text><text style="font-size:6.66666651px;font-family:sans-serif;text-anchor:end;fill:#282828" id="text4077"><tspan id="tspan4075" x="46" y="12">なまえ</tspan></text><text style="font-size:6.66666651px;font-family:sans-serif;text-anchor:end;fill:#282828" id="text4081"><tspan id="tspan4079" x="46" y="33">オクターヴの たかさ</tspan></text></g><g id="g4093" transform="matrix(0.396875,0,0,0.396875,31.485421,60.833406)"><path style="fill:#77c428;fill-opacity:1;stroke:#57ad02;stroke-width:1;stroke-linecap:round;stroke-opacity:1" id="path4087" d="m 8.5,0.5 h 60 v 20 h -60 v -8 -1 h -6 v 3 h -2 v -8 h 2 v 3 h 6 v -1 z"/><text style="font-size:10px;font-family:sans-serif;text-anchor:start;fill:#282828" id="text4091"><tspan id="tspan4089" x="13" y="14">ミ</tspan></text></g><g id="g4103" transform="matrix(0.396875,0,0,0.396875,31.485421,69.167781)"><path style="fill:#ff5293;fill-opacity:1;stroke:#ff2c76;stroke-width:1;stroke-linecap:round;stroke-opacity:1" id="path4097" d="m 8.5,0.5 h 60 v 20 h -60 v -8 -1 h -6 v 3 h -2 v -8 h 2 v 3 h 6 v -1 z"/><text style="font-size:10px;font-family:sans-serif;text-anchor:start;fill:#282828" id="text4101"><tspan id="tspan4099" x="13" y="14">4</tspan></text></g><g id="g4121" transform="matrix(0.396875,0,0,0.396875,12.038543,77.502156)"><path style="fill:#77c428;fill-opacity:1;stroke:#57ad02;stroke-width:1;stroke-linecap:round;stroke-opacity:1" id="path4107" d="m -20.833335,8.5 v -4 c 0,-2.209139 1.790861,-4 4,-4 h 4 v 2 h 10.0000007 v -2 H 48.5 h 4 c 2.209139,0 4,1.790861 4,4 v 4 h -4 v -3 h -4 v 10 h 4 v -3 h 4 v 17 h -4 v -3 h -4 v 10 h 4 v -3 h 4 v 4 c 0,2.209139 -1.790861,4 -4,4 h -4 -51.3333343 -1 v 2 h -7.9999997 v -2 h -1.000001 -4 c -2.209139,0 -4.698591,-1.904227 -4,-4 v -4 -21 z"/><text style="font-size:10px;font-family:sans-serif;text-anchor:end;fill:#282828" id="text4111"><tspan id="tspan4109" x="46" y="24">おとの たかさ</tspan></text><text style="font-size:6.66666651px;font-family:sans-serif;text-anchor:end;fill:#282828" id="text4115"><tspan id="tspan4113" x="46" y="12">なまえ</tspan></text><text style="font-size:6.66666651px;font-family:sans-serif;text-anchor:end;fill:#282828" id="text4119"><tspan id="tspan4117" x="46" y="33">オクターヴの たかさ</tspan></text></g><g id="g4131" transform="matrix(0.396875,0,0,0.396875,31.485421,77.502156)"><path style="fill:#77c428;fill-opacity:1;stroke:#57ad02;stroke-width:1;stroke-linecap:round;stroke-opacity:1" id="path4125" d="m 8.5,0.5 h 60 v 20 h -60 v -8 -1 h -6 v 3 h -2 v -8 h 2 v 3 h 6 v -1 z"/><text style="font-size:10px;font-family:sans-serif;text-anchor:start;fill:#282828" id="text4129"><tspan id="tspan4127" x="13" y="14">レ</tspan></text></g><g id="g4141" transform="matrix(0.396875,0,0,0.396875,31.485421,85.836531)"><path style="fill:#ff5293;fill-opacity:1;stroke:#ff2c76;stroke-width:1;stroke-linecap:round;stroke-opacity:1" id="path4135" d="m 8.5,0.5 h 60 v 20 h -60 v -8 -1 h -6 v 3 h -2 v -8 h 2 v 3 h 6 v -1 z"/><text style="font-size:10px;font-family:sans-serif;text-anchor:start;fill:#282828" id="text4139"><tspan id="tspan4137" x="13" y="14">4</tspan></text></g><g id="g4155" transform="matrix(0.396875,0,0,0.396875,3.571875,94.170906)"><path style="fill:#25c3c0;fill-opacity:1;stroke:#1dbcbd;stroke-width:1;stroke-linecap:round;stroke-opacity:1" id="path4145" d="m 0.5,8.5 v -4 a 4,4 90 0 1 4,-4 h 4 v 2 h 10 v -2 h 30 4 a 4,4 90 0 1 4,4 v 4 h -4 v -3 h -4 v 10 h 4 v -3 h 4 v 4 a 4,4 90 0 1 -4,4 h -4 -30 -1 v 2 h -8 v -2 h -1 -4 a 4,4 90 0 1 -4,-4 v -4 z"/><text style="font-size:10px;font-family:sans-serif;text-anchor:end;fill:#282828" id="text4149"><tspan id="tspan4147" x="46" y="14">ドラム</tspan></text></g><g id="g4165" transform="matrix(0.396875,0,0,0.396875,23.018749,94.170906)"><path style="fill:#25c3c0;fill-opacity:1;stroke:#1dbcbd;stroke-width:1;stroke-linecap:round;stroke-opacity:1" id="path4159" d="m 8.5,0.5 h 110 v 20 H 8.5 v -8 -1 h -6 v 3 h -2 v -8 h 2 v 3 h 6 v -1 z"/><text style="font-size:10px;font-family:sans-serif;text-anchor:start;fill:#282828" id="text4163"><tspan id="tspan4161" x="13" y="14">スネアドラム</tspan></text></g><g id="g4179" transform="matrix(0.396875,0,0,0.396875,11.509376,102.50528)"><path style="fill:#728ff9;fill-opacity:1;stroke:#5370dc;stroke-width:1;stroke-linecap:round;stroke-opacity:1" id="path4169" d="m -19.500001,8.5 v -4 c 0,-2.209139 1.790861,-4 4,-4 h 4 v 2 h 10.0000001 v -2 h 53.3447279 4 c 2.209139,0 4,1.790861 4,4 v 4 h -4 v -3 h -4 v 10 h 4 v -3 h 4 v 4 c 0,2.209139 -1.790861,4 -4,4 h -4 -53.3447279 -1 v 2 h -8.0000001 v -2 h -1 -4 c -2.209139,0 -4.698591,-1.904227 -4,-4 v -4 z"/><text style="font-size:10px;font-family:sans-serif;text-anchor:end;fill:#282828" id="text4173"><tspan id="tspan4171" x="50" y="14">まえへ すすむ</tspan></text></g><g id="g4189" transform="matrix(0.396875,0,0,0.396875,32.283695,102.50528)"><path style="fill:#ff5293;fill-opacity:1;stroke:#ff2c76;stroke-width:1;stroke-linecap:round;stroke-opacity:1" id="path4183" d="m 8.5,0.5 h 60 v 20 h -60 v -8 -1 h -6 v 3 h -2 v -8 h 2 v 3 h 6 v -1 z"/><text style="font-size:10px;font-family:sans-serif;text-anchor:start;fill:#282828" id="text4187"><tspan id="tspan4185" x="13" y="14">ひゃく</tspan></text></g><g id="g4203" transform="matrix(0.396875,0,0,0.396875,9.3927087,110.83965)"><path style="fill:#728ff9;fill-opacity:1;stroke:#5370dc;stroke-width:1;stroke-linecap:round;stroke-opacity:1" id="path4193" d="m -15.500001,8.5 v -4 c 0,-2.209139 1.790861,-4 4,-4 h 4.0000003 v 2 h 10 v -2 H 48.5 h 4 c 2.209139,0 4,1.790861 4,4 v 4 h -4 v -3 h -4 v 10 h 4 v -3 h 4 v 4 c 0,2.209139 -1.790861,4 -4,4 h -4 -46.0000007 -1 v 2 h -8 v -2 h -1 -4.0000003 c -2.209139,0 -4,-1.790861 -4,-4 v -4 z"/><text style="font-size:10px;font-family:sans-serif;text-anchor:end;fill:#282828" id="text4197"><tspan id="tspan4195" x="46" y="14">みぎを むく</tspan></text></g><g id="g4213" transform="matrix(0.396875,0,0,0.396875,28.839586,110.83965)"><path style="fill:#ff5293;fill-opacity:1;stroke:#ff2c76;stroke-width:1;stroke-linecap:round;stroke-opacity:1" id="path4207" d="m 8.5,0.5 h 60 v 20 h -60 v -8 -1 h -6 v 3 h -2 v -8 h 2 v 3 h 6 v -1 z"/><text style="font-size:10px;font-family:sans-serif;text-anchor:start;fill:#282828" id="text4211"><tspan id="tspan4209" x="13" y="14">90</tspan></text></g><g id="g4231" transform="matrix(0.396875,0,0,0.396875,14.155211,119.17403)"><path style="fill:#77c428;fill-opacity:1;stroke:#57ad02;stroke-width:1;stroke-linecap:round;stroke-opacity:1" id="path4217" d="m -26.166668,8.5 v -4 c 0,-2.209139 1.790861,-4 4,-4 h 4 v 2 h 10.0000001 v -2 h 67.2281909 4 c 2.209139,0 4,1.790861 4,4 v 4 h -4 v -3 h -4 v 10 h 4 v -3 h 4 v 17 h -4 v -3 h -4 v 10 h 4 v -3 h 4 v 4 c 0,2.209139 -1.790861,4 -4,4 h -4 -67.2281909 -1 v 2 h -8.0000001 v -2 h -1 -4 c -2.209139,0 -4,-1.790861 -4,-4 v -4 -21 z"/><text style="font-size:10px;font-family:sans-serif;text-anchor:end;fill:#282828" id="text4221"><tspan id="tspan4219" x="57" y="24">れんぷ（かけ算）</tspan></text><text style="font-size:6.66666651px;font-family:sans-serif;text-anchor:end;fill:#282828" id="text4225"><tspan id="tspan4223" x="57" y="12">おんぷの かず</tspan></text><text style="font-size:6.66666651px;font-family:sans-serif;text-anchor:end;fill:#282828" id="text4229"><tspan id="tspan4227" x="57" y="33">おとの ながさ</tspan></text></g><g id="g4241" transform="matrix(0.396875,0,0,0.396875,37.793698,119.17403)"><path style="fill:#ff5293;fill-opacity:1;stroke:#ff2c76;stroke-width:1;stroke-linecap:round;stroke-opacity:1" id="path4235" d="m 8.5,0.5 h 60 v 20 h -60 v -8 -1 h -6 v 3 h -2 v -8 h 2 v 3 h 6 v -1 z"/><text style="font-size:10px;font-family:sans-serif;text-anchor:start;fill:#282828" id="text4239"><tspan id="tspan4237" x="13" y="14">6</tspan></text></g><g id="g4259" transform="matrix(0.396875,0,0,0.396875,37.793698,127.5084)"><path style="fill:#ff5293;fill-opacity:1;stroke:#ff2c76;stroke-width:1;stroke-linecap:round;stroke-opacity:1" id="path4245" d="m 8.5,8.5 v -4 a 4,4 90 0 1 4,-4 h 4 10 30 4 a 4,4 90 0 1 4,4 v 4 h -4 v -3 h -4 v 10 h 4 v -3 h 4 v 17 h -4 v -3 h -4 v 10 h 4 v -3 h 4 v 4 a 4,4 90 0 1 -4,4 h -4 -30 -10 -4 a 4,4 90 0 1 -4,-4 v -4 -21 -1 h -6 v 3 h -2 v -8 h 2 v 3 h 6 z"/><text style="font-size:9px;font-family:sans-serif;text-anchor:end;fill:#282828" id="text4249"><tspan id="tspan4247" x="54" y="23">➗</tspan></text></g><g id="g4269" transform="matrix(0.396875,0,0,0.396875,60.415573,127.5084)"><path style="fill:#ff5293;fill-opacity:1;stroke:#ff2c76;stroke-width:1;stroke-linecap:round;stroke-opacity:1" id="path4263" d="m 8.5,0.5 h 60 v 20 h -60 v -8 -1 h -6 v 3 h -2 v -8 h 2 v 3 h 6 v -1 z"/><text style="font-size:10px;font-family:sans-serif;text-anchor:start;fill:#282828" id="text4267"><tspan id="tspan4265" x="13" y="14">1</tspan></text></g><g id="g4279" transform="matrix(0.396875,0,0,0.396875,60.415573,135.84278)"><path style="fill:#ff5293;fill-opacity:1;stroke:#ff2c76;stroke-width:1;stroke-linecap:round;stroke-opacity:1" id="path4273" d="m 8.5,0.5 h 60 v 20 h -60 v -8 -1 h -6 v 3 h -2 v -8 h 2 v 3 h 6 v -1 z"/><text style="font-size:10px;font-family:sans-serif;text-anchor:start;fill:#282828" id="text4277"><tspan id="tspan4275" x="13" y="14">4</tspan></text></g><g id="g4289" transform="matrix(0.396875,0,0,0.396875,3.5718753,135.84278)"><path style="fill:#b0b0b0;fill-opacity:1;stroke:#a0a0a0;stroke-width:1;stroke-linecap:round;stroke-opacity:1" id="path4283" d="m 0.5,8.5 v -4 a 4,4 90 0 1 4,-4 h 4 v 2 h 10 v -2 h 20 4 a 4,4 90 0 1 4,4 v 4 4 4 a 4,4 90 0 1 -4,4 h -4 -20 -1 v 2 h -8 v -2 h -1 -4 a 4,4 90 0 1 -4,-4 v -4 z"/><text style="font-size:10px;font-family:sans-serif;text-anchor:end;fill:#282828" id="text4287"><tspan id="tspan4285" x="36" y="14">↓</tspan></text></g><g id="g4756" transform="matrix(0.396875,0,0,0.396875,9.9218757,144.17715)"><path style="fill:#77c428;fill-opacity:1;stroke:#57ad02;stroke-width:1;stroke-linecap:round;stroke-opacity:1" id="path4742" d="m -15.500001,8.5 v -4 c 0,-2.209139 1.790861,-4 4,-4 h 4.0000003 v 2 h 10 v -2 h 72.1376957 4 c 2.209139,0 4,1.790861 4,4 v 4 h -4 v -3 h -4 v 10 h 4 v -3 h 4 v 17 h -4 v -3 h -4 v 10 h 4 v -3 h 4 v 4 c 0,2.209139 -1.790861,4 -4,4 h -4 -72.1376957 -1 v 2 h -8 v -2 h -1 -4.0000003 c -2.209139,0 -4.698591,-1.904227 -4,-4 v -4 -21 z"/><text style="font-size:10px;font-family:sans-serif;text-anchor:end;fill:#282828" id="text4746"><tspan id="tspan4744" x="72" y="24">れんぷ（かけ算）</tspan></text><text style="font-size:6.66666651px;font-family:sans-serif;text-anchor:end;fill:#282828" id="text4750"><tspan id="tspan4748" x="72" y="12">おんぷの かず</tspan></text><text style="font-size:6.66666651px;font-family:sans-serif;text-anchor:end;fill:#282828" id="text4754"><tspan id="tspan4752" x="72" y="33">おとの ながさ</tspan></text></g><g id="g4766" transform="matrix(0.396875,0,0,0.396875,39.74214,144.17715)"><path style="fill:#ff5293;fill-opacity:1;stroke:#ff2c76;stroke-width:1;stroke-linecap:round;stroke-opacity:1" id="path4760" d="m 8.5,0.5 h 60 v 20 h -60 v -8 -1 h -6 v 3 h -2 v -8 h 2 v 3 h 6 v -1 z"/><text style="font-size:10px;font-family:sans-serif;text-anchor:start;fill:#282828" id="text4764"><tspan id="tspan4762" x="13" y="14">3</tspan></text></g><g id="g4784" transform="matrix(0.396875,0,0,0.396875,39.74214,152.51153)"><path style="fill:#ff5293;fill-opacity:1;stroke:#ff2c76;stroke-width:1;stroke-linecap:round;stroke-opacity:1" id="path4770" d="m 8.5,8.5 v -4 a 4,4 90 0 1 4,-4 h 4 10 30 4 a 4,4 90 0 1 4,4 v 4 h -4 v -3 h -4 v 10 h 4 v -3 h 4 v 17 h -4 v -3 h -4 v 10 h 4 v -3 h 4 v 4 a 4,4 90 0 1 -4,4 h -4 -30 -10 -4 a 4,4 90 0 1 -4,-4 v -4 -21 -1 h -6 v 3 h -2 v -8 h 2 v 3 h 6 z"/><text style="font-size:9px;font-family:sans-serif;text-anchor:end;fill:#282828" id="text4774"><tspan id="tspan4772" x="54" y="23">➗</tspan></text></g><g id="g4794" transform="matrix(0.396875,0,0,0.396875,62.364014,152.51153)"><path style="fill:#ff5293;fill-opacity:1;stroke:#ff2c76;stroke-width:1;stroke-linecap:round;stroke-opacity:1" id="path4788" d="m 8.5,0.5 h 60 v 20 h -60 v -8 -1 h -6 v 3 h -2 v -8 h 2 v 3 h 6 v -1 z"/><text style="font-size:10px;font-family:sans-serif;text-anchor:start;fill:#282828" id="text4792"><tspan id="tspan4790" x="13" y="14">1</tspan></text></g><g id="g4804" transform="matrix(0.396875,0,0,0.396875,62.364014,160.8459)"><path style="fill:#ff5293;fill-opacity:1;stroke:#ff2c76;stroke-width:1;stroke-linecap:round;stroke-opacity:1" id="path4798" d="m 8.5,0.5 h 60 v 20 h -60 v -8 -1 h -6 v 3 h -2 v -8 h 2 v 3 h 6 v -1 z"/><text style="font-size:10px;font-family:sans-serif;text-anchor:start;fill:#282828" id="text4802"><tspan id="tspan4800" x="13" y="14">2</tspan></text></g><g id="g4814" transform="matrix(0.396875,0,0,0.396875,3.5718753,160.8459)"><path style="fill:#b0b0b0;fill-opacity:1;stroke:#a0a0a0;stroke-width:1;stroke-linecap:round;stroke-opacity:1" id="path4808" d="m 0.5,8.5 v -4 a 4,4 90 0 1 4,-4 h 4 v 2 h 10 v -2 h 20 4 a 4,4 90 0 1 4,4 v 4 4 4 a 4,4 90 0 1 -4,4 h -4 -20 -1 v 2 h -8 v -2 h -1 -4 a 4,4 90 0 1 -4,-4 v -4 z"/><text style="font-size:10px;font-family:sans-serif;text-anchor:end;fill:#282828" id="text4812"><tspan id="tspan4810" x="36" y="14">↓</tspan></text></g></svg>