<svg xmlns="http://www.w3.org/2000/svg" xmlns:svg="http://www.w3.org/2000/svg" id="svg3168" width="321.5" height="223.5" version="1.1"><metadata id="metadata3174"/><g id="g918" transform="translate(-4.666655,-3.333325)"><path style="fill:#77c428;fill-opacity:1;stroke:#57ad02;stroke-width:1.5;stroke-linecap:round;stroke-opacity:1" id="svg_17" d="m 19.416655,80.083325 v -6 c 0,-3.313708 2.686292,-6 6,-6 h 6 v 3 h 15 v -3 h 80.999995 6 c 3.31371,0 7.04789,2.856342 6,6 v 6 h -6 v -4.5 h -6 v 15 h 6 v -4.5 h 6 v 25.500005 h -6 v -4.5 h -6 v 14.99999 h 6 v -4.49999 h 6 v 5.99999 c 0,3.31371 -2.68629,6 -6,6 h -6 -80.999995 -1.5 v 3 h -12 v -3 h -1.5 -6 c -3.313708,0 -6,-2.68629 -6,-6 v -5.99999 -31.500005 z"/><text style="font-size:15px;font-family:sans-serif;text-anchor:end;fill:#282828;stroke-width:1.5" id="svg_18" x="56.667" y="67.333"><tspan id="svg_19" x="125.667" y="103.333" style="stroke-width:1.5">おとの たかさ</tspan></text><text style="font-size:10px;font-family:sans-serif;text-anchor:end;fill:#282828;stroke-width:1.5" id="svg_20" x="56.667" y="67.333"><tspan id="svg_21" x="125.667" y="85.333" style="stroke-width:1.5">なまえ</tspan></text><text style="font-size:10px;font-family:sans-serif;text-anchor:end;fill:#282828;stroke-width:1.5" id="svg_22" x="56.667" y="67.333"><tspan id="svg_23" x="125.667" y="116.833" style="stroke-width:1.5">オクターヴの たかさ</tspan></text><path style="fill:#77c428;fill-opacity:1;stroke:#57ad02;stroke-width:1.5;stroke-linecap:round;stroke-opacity:1" id="svg_26" d="m 141.41665,68.083325 h 90 v 30 h -90 v -12 -1.5 h -8.99999 v 4.5 h -3 v -12 h 3 v 4.5 h 8.99999 v -1.5 z"/><text style="font-size:15px;font-family:sans-serif;text-anchor:start;fill:#282828;stroke-width:1.5" id="svg_27" x="128.667" y="67.333"><tspan id="svg_28" x="148.167" y="88.333" style="stroke-width:1.5">ラ</tspan></text><path style="fill:#ff5293;fill-opacity:1;stroke:#ff2c76;stroke-width:1.5;stroke-linecap:round;stroke-opacity:1" id="svg_31" d="m 141.41665,100.08333 h 90 v 29.99999 h -90 v -11.99999 -1.5 h -8.99999 v 4.5 h -3 v -12 h 3 v 4.5 h 8.99999 v -1.5 z"/><text style="font-size:15px;font-family:sans-serif;text-anchor:start;fill:#282828;stroke-width:1.5" id="svg_32" x="128.667" y="99.333"><tspan id="svg_33" x="148.167" y="120.333" style="stroke-width:1.5">4</tspan></text><path id="svg_37" d="m 5.416655,16.083325 v -6 a 6,6 0 0 1 6,-6 h 6 v 3 h 15 v -3 h 13.5 89.999995 6 a 6,6 0 0 1 6,6 v 6 h -6 v -4.5 h -6 v 15 h 6 v -4.5 h 6 v 6 a 6,6 0 0 1 -6,6 h -6 -89.999995 -1.5 v 3 h -12 v -3 h -1.5 -6 a 7.5,7.5 0 0 0 -7.5,7.5 v 6 6 125.999995 6 a 7.5,7.5 0 0 0 7.5,7.5 h 6 v 3 h 15 v -3 h 12 v 9 9 6 a 6,6 0 0 1 -6,6 h -6 -13.5 -1.5 v 3 h -12 v -3 h -1.5 -6 a 6,6 0 0 1 -6,-6 v -6 z" style="fill:#ff8b2d;fill-opacity:1;stroke:#e86b0e;stroke-width:1.5;stroke-linecap:round;stroke-opacity:1"/><text id="svg_38" x="4.667" y="3.333" style="font-size:15px;font-family:sans-serif;text-anchor:start;fill:#282828;stroke-width:1.5"><tspan id="svg_39" x="34.667" y="25.833" style="stroke-width:1.5">おんぷ</tspan></text><text id="svg_40" x="4.667" y="3.333" style="font-size:10px;font-family:sans-serif;text-anchor:end;fill:#282828;stroke-width:1.5"><tspan id="svg_41" x="132.167" y="21.333" style="stroke-width:1.5">ながさ</tspan></text><g style="isolation:isolate" id="レイヤー_2" data-name="レイヤー 2" transform="matrix(0.5,0,0,0.5,410,158)"><g id="Icon"><rect id="svg_44" width="42" height="42" x="-810.667" y="-301.333" rx="5" ry="5" style="opacity:.4;mix-blend-mode:multiply;fill:#292929"/><path id="svg_45" d="m -780.10671,-271.53336 -4.17,-4.16 h 2.26 a 1.035,1.035 0 1 0 0,-2.07 h -4.70999 a 1.08,1.08 0 0 0 -1.11,1 v 0 c 0,0 0,0 0,0.06 v 4.64 0 a 1.04,1.04 0 1 0 2.08,0 v -2.19 l 4.19,4.19 a 1,1 0 0 0 1.46,0 1,1 0 0 0 -10e-6,-1.47 z" style="fill:#fff"/><path id="svg_46" d="m -791.49672,-276.73334 a 1.08,1.08 0 0 0 -1.11,-1 h -4.71001 a 1.035,1.035 0 1 0 0,2.07 h 2.25 l -4.15997,4.12998 a 1.039447,1.039447 0 0 0 1.47,1.47 l 4.18,-4.19 v 2.26 a 1.04,1.04 0 1 0 2.07999,0 v -4.63997 c 0,0 0,0 0,-0.06 a 0.08,0.08 0 0 1 -10e-6,-0.04 z" style="fill:#fff"/><path id="svg_47" d="m -786.7267,-280.83334 h 4.69999 a 1.04,1.04 0 1 0 0,-2.08 h -2.24998 l 4.17,-4.16 a 1,1 0 0 0 0,-1.47 1,1 0 0 0 -1.46,0 l -4.19004,4.21 v -2.28 a 1.04,1.04 0 1 0 -2.08,0 v 4.64 a 0.43000001,0.43000001 0 0 0 0,0.05 v 0.05 a 1.09,1.09 0 0 0 1.11003,1.04 z" style="fill:#fff"/><path id="svg_48" d="m -792.5367,-287.71335 a 1.08,1.08 0 0 0 -1,1.09 v 2.29001 l -4.18,-4.19 a 1,1 0 0 0 -1.47,0 1,1 0 0 0 0,1.46 l 4.16,4.17 h -2.29003 a 1.04,1.04 0 1 0 0,2.08 h 4.71 a 1.09,1.09 0 0 0 1.11,-1 c 0,0 0,0 0,-0.06 v -4.75001 a 1.0700001,1.0700001 0 0 0 -1.03997,-1.09 z" style="fill:#fff"/></g></g><path style="fill:#ff5293;fill-opacity:1;stroke:#ff2c76;stroke-width:1.5;stroke-linecap:round;stroke-opacity:1" id="svg_51" d="m 149.41665,16.083325 v -6 a 6,6 0 0 1 6,-6 h 6 15 45 6 a 6,6 0 0 1 6,6 v 6 h -6 v -4.5 h -6 v 15 h 6 v -4.5 h 6 v 25.5 h -6 v -4.5 h -6 v 14.999994 h 6 v -4.499994 h 6 v 5.999994 a 6,6 0 0 1 -6,6 h -6 -45 -15 -6 a 6,6 0 0 1 -6,-6 v -5.999994 -31.5 -1.5 h -9 v 4.5 h -3 v -12 h 3 v 4.5 h 9 z"/><text style="font-size:13.5px;font-family:sans-serif;text-anchor:end;fill:#282828;stroke-width:1.5" id="svg_52" x="136.667" y="3.333"><tspan id="svg_53" x="217.667" y="37.833" style="stroke-width:1.5">➗</tspan></text><path style="fill:#ff5293;fill-opacity:1;stroke:#ff2c76;stroke-width:1.5;stroke-linecap:round;stroke-opacity:1" id="svg_60" d="m 235.41665,4.083325 h 90 v 30 h -90 v -12 -1.5 h -9 v 4.5 h -3 v -12 h 3 v 4.5 h 9 v -1.5 z"/><text style="font-size:15px;font-family:sans-serif;text-anchor:start;fill:#282828;stroke-width:1.5" id="svg_61" x="222.667" y="3.333"><tspan id="svg_62" x="242.167" y="24.333" style="stroke-width:1.5">1</tspan></text><path style="fill:#ff5293;fill-opacity:1;stroke:#ff2c76;stroke-width:1.5;stroke-linecap:round;stroke-opacity:1" id="svg_65" d="m 235.41665,36.083325 h 90 v 30 h -90 v -12 -1.5 h -9 v 4.5 h -3 v -12 h 3 v 4.5 h 9 v -1.5 z"/><text style="font-size:15px;font-family:sans-serif;text-anchor:start;fill:#282828;stroke-width:1.5" id="svg_66" x="222.667" y="35.333"><tspan id="svg_67" x="242.167" y="56.333" style="stroke-width:1.5">4</tspan></text><path style="fill:#b0b0b0;fill-opacity:1;stroke:#a0a0a0;stroke-width:1.5;stroke-linecap:round;stroke-opacity:1" id="svg_70" d="m 19.416655,48.083325 v -6 a 6,6 0 0 1 6,-6 h 6 v 3 h 15 v -3 h 30 6 a 6,6 0 0 1 6,6 v 6 6 6 a 6,6 0 0 1 -6,6 h -6 -30 -1.5 v 3 h -12 v -3 h -1.5 -6 a 6,6 0 0 1 -6,-6 v -6 z"/><text style="font-size:15px;font-family:sans-serif;text-anchor:end;fill:#282828;stroke-width:1.5" id="svg_71" x="18.667" y="35.333"><tspan id="svg_72" x="72.667" y="56.333" style="stroke-width:1.5">↓</tspan></text><path style="fill:#77c428;fill-opacity:1;stroke:#57ad02;stroke-width:1.5;stroke-linecap:round;stroke-opacity:1" id="svg_75" d="m 19.416655,143.08332 v -6 c 0,-3.31371 2.686292,-6 6,-6 h 6 v 3 h 15 v -3 h 80.999995 6 c 3.31371,0 7.04789,2.85634 6,6 v 6 h -6 v -4.5 h -6 v 15 h 6 v -4.5 h 6 v 25.5 h -6 v -4.5 h -6 v 15 h 6 v -4.5 h 6 v 6 c 0,3.31371 -2.68629,6 -6,6 h -6 -80.999995 -1.5 v 3 h -12 v -3 h -1.5 -6 c -3.313708,0 -7.047887,-2.85634 -6,-6 v -6 -31.5 z"/><text style="font-size:15px;font-family:sans-serif;text-anchor:end;fill:#282828;stroke-width:1.5" id="svg_76" x="56.667" y="130.333"><tspan id="svg_77" x="125.667" y="166.333" style="stroke-width:1.5">おとの たかさ</tspan></text><text style="font-size:10px;font-family:sans-serif;text-anchor:end;fill:#282828;stroke-width:1.5" id="svg_78" x="56.667" y="130.333"><tspan id="svg_79" x="125.667" y="148.333" style="stroke-width:1.5">なまえ</tspan></text><text style="font-size:10px;font-family:sans-serif;text-anchor:end;fill:#282828;stroke-width:1.5" id="svg_80" x="56.667" y="130.333"><tspan id="svg_81" x="125.667" y="179.833" style="stroke-width:1.5">オクターヴの たかさ</tspan></text><path style="fill:#77c428;fill-opacity:1;stroke:#57ad02;stroke-width:1.5;stroke-linecap:round;stroke-opacity:1" id="svg_84" d="m 141.41665,131.08332 h 90 v 30 h -90 v -12 -1.5 h -8.99999 v 4.5 h -3 v -12 h 3 v 4.5 h 8.99999 v -1.5 z"/><text style="font-size:15px;font-family:sans-serif;text-anchor:start;fill:#282828;stroke-width:1.5" id="svg_85" x="128.667" y="130.333"><tspan id="svg_86" x="148.167" y="151.333" style="stroke-width:1.5">ソ</tspan></text><path style="fill:#ff5293;fill-opacity:1;stroke:#ff2c76;stroke-width:1.5;stroke-linecap:round;stroke-opacity:1" id="svg_89" d="m 141.41665,163.08332 h 90 v 30 h -90 v -12 -1.5 h -8.99999 v 4.5 h -3 v -12 h 3 v 4.5 h 8.99999 v -1.5 z"/><text style="font-size:15px;font-family:sans-serif;text-anchor:start;fill:#282828;stroke-width:1.5" id="svg_90" x="128.667" y="162.333"><tspan id="svg_91" x="148.167" y="183.333" style="stroke-width:1.5">4</tspan></text></g></svg>