<svg xmlns="http://www.w3.org/2000/svg" xmlns:svg="http://www.w3.org/2000/svg" id="svg1870" width="346" height="34.5" version="1.1" viewBox="0 0 91.546 9.128"><metadata id="metadata1867"/><path id="path3775" d="m 0.1984375,3.3734375 v -1.5875 c 0,-0.87675 0.71075,-1.5875 1.5875,-1.5875 h 1.5875 v 0.79375 h 3.96875 v -0.79375 h 29.3687495 1.5875 c 0.87675,0 1.5875,0.71075 1.5875,1.5875 v 1.5875 h -1.5875 v -1.19063 h -1.5875 v 3.96875 h 1.5875 v -1.19062 h 1.5875 v 1.5875 c 0,0.87675 -0.71075,1.5875 -1.5875,1.5875 h -1.5875 -29.3687495 -0.39688 v 0.79375 h -3.175 v -0.79375 h -0.39687 -1.5875 c -0.87675,0 -1.5875,-0.71075 -1.5875,-1.5875 v -1.5875 z" style="fill:#ff5942;fill-opacity:1;stroke:#ea4326;stroke-width:.39687499;stroke-linecap:round;stroke-opacity:1"/><text style="font-size:3.96875px;font-family:sans-serif;text-anchor:end;fill:#282828;stroke-width:.39687499" id="text568" x="17.462" y="0"><tspan id="tspan566" x="35.719" y="5.556" style="stroke-width:.39687499">表示</tspan></text><path style="fill:#ff5942;fill-opacity:1;stroke:#ea4326;stroke-width:.39687499;stroke-linecap:round;stroke-opacity:1" id="path578" d="m 40.282807,0.1984375 h 35.71875 v 7.9375 h -35.71875 v -3.175 -0.39688 h -2.38125 v 1.19063 h -0.79375 v -3.175 h 0.79375 v 1.19062 h 2.38125 v -0.39687 z"/><text style="font-size:3.96875px;font-family:sans-serif;text-anchor:start;fill:#282828;stroke-width:.39687499" id="text582" x="36.909" y="0"><tspan id="tspan580" x="42.069" y="5.556" style="stroke-width:.39687499">Hello World</tspan></text><text id="text3779" x="17.462" y="0" style="font-size:3.96875px;font-family:sans-serif;text-anchor:end;fill:#282828;stroke-width:.39687499"><tspan id="tspan3777" x="35.719" y="5.556" style="stroke-width:.39687499">けっかを ひょうじ</tspan></text><path id="path3789" d="m 40.282807,0.1984375 h 51.06458 v 7.9375 h -51.06458 v -3.175 -0.39688 h -2.38125 v 1.19063 h -0.79375 v -3.175 h 0.79375 v 1.19062 h 2.38125 v -0.39687 z" style="fill:#ff5942;fill-opacity:1;stroke:#ea4326;stroke-width:.39687499;stroke-linecap:round;stroke-opacity:1"/><text id="text3793" x="36.909" y="0" style="font-size:3.96875px;font-family:sans-serif;text-anchor:start;fill:#282828;stroke-width:.39687499"><tspan id="tspan3791" x="42.069" y="5.556" style="stroke-width:.39687499">ミュージック・ブロックス</tspan></text></svg>