<svg xmlns="http://www.w3.org/2000/svg" xmlns:svg="http://www.w3.org/2000/svg" id="svg5528" width="118.5" height="91.5" version="1.1"><metadata id="metadata5534"/><rect style="fill:none;stroke:none" id="backgroundrect" width="100%" height="100%" x=".75" y=".75"/><g id="svg_16" transform="matrix(1.5,0,0,1.5,313.75,299.74999)"><path style="fill:#d68136;fill-opacity:1;stroke:#b7651a;stroke-width:1;stroke-linecap:round;stroke-opacity:1" id="svg_17" d="m -208.66667,-191.33333 v -4 a 4,4 90 0 1 4,-4 h 4 v 2 h 10 v -2 h 30 4 a 4,4 90 0 1 4,4 v 4 h -4 v -3 h -4 v 10 h 4 v -3 h 4 v 4 a 4,4 90 0 1 -4,4 h -4 -30 -1 v 2 h -8 v -2 h -1 -4 a 4,4 90 0 1 -4,-4 v -4 z"/><text style="font-size:10px;font-family:sans-serif;text-anchor:end;fill:#282828" id="svg_18" x="-209.167" y="-199.833"><tspan id="svg_19" x="-163.167" y="-185.833">プッシュ</tspan></text></g><g id="svg_23" transform="matrix(1.5,0,0,1.5,313.75001,359.74999)"><path style="fill:#d68136;fill-opacity:1;stroke:#b7651a;stroke-width:1;stroke-linecap:round;stroke-opacity:1" id="svg_24" d="m -200.66667,-199.33333 h 70 v 20 h -70 v -8 -1 h -6 v 3 h -2 v -8 h 2 v 3 h 6 v -1 z"/><text style="font-size:10px;font-family:sans-serif;text-anchor:start;fill:#282828" id="svg_25" x="-209.167" y="-199.833"><tspan id="svg_26" x="-196.167" y="-185.833">ポップ</tspan></text></g></svg>