<svg xmlns="http://www.w3.org/2000/svg" xmlns:svg="http://www.w3.org/2000/svg" id="svg11666" width="336.019" height="333.843" version="1.1" viewBox="0 0 88.905 88.329"><metadata id="metadata11663"/><g id="g3576" transform="matrix(0.26458333,0,0,0.26458333,3.571869,44.164656)"><g id="g3574" transform="scale(1.5)"><path id="path3564" d="m 0.5,8.5 v -4 c 0,-2.209139 1.790861,-4 4,-4 h 4 v 2 h 10 v -2 h 9 68.012479 4 c 2.209141,0 4.698591,1.9042267 4.000001,4 v 4 h -4.000001 v -3 h -4 v 10 h 4 v -3 h 4.000001 v 4 c 0,2.209139 -1.79086,4 -4.000001,4 h -4 H 27.5 h -1 v 2 h -8 v -2 h -1 -4 c -2.761424,0 -5,2.238576 -5,5 v 4 4 21 4 c 0,2.761424 2.238576,5 5,5 h 4 v 2 h 10 v -2 h 8 v 6 6 4 c 0,2.209139 -1.790861,4 -4,4 h -4 -9 -1 v 2 h -8 v -2 h -1 -4 c -2.209139,0 -4,-1.790861 -4,-4 v -4 z" style="fill:#25c3c0;fill-opacity:1;stroke:#1dbcbd;stroke-width:1;stroke-linecap:round;stroke-opacity:1"/><text id="text3568" style="font-size:10px;font-family:sans-serif;text-anchor:start;fill:#282828"><tspan id="tspan3566" x="5" y="15">ドラムを せってい</tspan></text></g></g><g id="g3587" transform="matrix(0.26458333,0,0,0.26458333,41.676837,44.164656)"><g id="g3584" transform="scale(1.5)"><path id="path3578" d="m 8.5,0.5 h 110 v 20 H 8.5 v -8 -1 h -6 v 3 h -2 v -8 h 2 v 3 h 6 v -1 z" style="fill:#25c3c0;fill-opacity:1;stroke:#1dbcbd;stroke-width:1;stroke-linecap:round;stroke-opacity:1"/><text id="text3582" style="font-size:10px;font-family:sans-serif;text-anchor:start;fill:#282828"><tspan id="tspan3580" x="13" y="14">キックドラム</tspan></text></g></g><g id="g3605" transform="matrix(0.26458333,0,0,0.26458333,12.788189,52.499031)"><g id="g3603" transform="scale(1.5)"><path id="path3589" d="m -13.722222,8.5 v -4 c 0,-2.209139 1.790861,-4 3.9999995,-4 h 4 v 2 h 10 v -2 h 54.7837455 4 c 2.209139,0 4,1.790861 4,4 v 4 h -4 v -3 h -4 v 10 h 4 v -3 h 4 v 17 h -4 v -3 h -4 v 10 h 4 v -3 h 4 v 4 c 0,2.209139 -1.790861,4 -4,4 h -4 -54.7837455 -1 v 2 h -8 v -2 h -1 -4 c -2.2091385,0 -3.9999995,-1.790861 -3.9999995,-4 v -4 -21 z" style="fill:#77c428;fill-opacity:1;stroke:#57ad02;stroke-width:1;stroke-linecap:round;stroke-opacity:1"/><text id="text3593" style="font-size:10px;font-family:sans-serif;text-anchor:end;fill:#282828"><tspan id="tspan3591" x="57" y="24">音符（かけ算）</tspan></text><text id="text3597" style="font-size:6.66666651px;font-family:sans-serif;text-anchor:end;fill:#282828"><tspan id="tspan3595" x="57" y="12">おんぷの かず</tspan></text><text id="text3601" style="font-size:6.66666651px;font-family:sans-serif;text-anchor:end;fill:#282828"><tspan id="tspan3599" x="57" y="33">おとの ながさ</tspan></text></g></g><g id="g3615" transform="matrix(0.26458333,0,0,0.26458333,36.426673,52.499031)"><g id="g3613" transform="scale(1.5)"><path id="path3607" d="m 8.5,0.5 h 60 v 20 h -60 v -8 -1 h -6 v 3 h -2 v -8 h 2 v 3 h 6 v -1 z" style="fill:#ff5293;fill-opacity:1;stroke:#ff2c76;stroke-width:1;stroke-linecap:round;stroke-opacity:1"/><text id="text3611" style="font-size:10px;font-family:sans-serif;text-anchor:start;fill:#282828"><tspan id="tspan3609" x="13" y="14">1</tspan></text></g></g><g id="g3633" transform="matrix(0.26458333,0,0,0.26458333,36.426673,60.833406)"><g id="g3631" transform="scale(1.5)"><path id="path3617" d="m 8.5,8.5 v -4 a 4,4 90 0 1 4,-4 h 4 10 30 4 a 4,4 90 0 1 4,4 v 4 h -4 v -3 h -4 v 10 h 4 v -3 h 4 v 17 h -4 v -3 h -4 v 10 h 4 v -3 h 4 v 4 a 4,4 90 0 1 -4,4 h -4 -30 -10 -4 a 4,4 90 0 1 -4,-4 v -4 -21 -1 h -6 v 3 h -2 v -8 h 2 v 3 h 6 z" style="fill:#ff5293;fill-opacity:1;stroke:#ff2c76;stroke-width:1;stroke-linecap:round;stroke-opacity:1"/><text id="text3621" style="font-size:9px;font-family:sans-serif;text-anchor:end;fill:#282828"><tspan id="tspan3619" x="54" y="23">➗</tspan></text></g></g><g id="g3643" transform="matrix(0.26458333,0,0,0.26458333,59.048547,60.833406)"><g id="g3641" transform="scale(1.5)"><path id="path3635" d="m 8.5,0.5 h 60 v 20 h -60 v -8 -1 h -6 v 3 h -2 v -8 h 2 v 3 h 6 v -1 z" style="fill:#ff5293;fill-opacity:1;stroke:#ff2c76;stroke-width:1;stroke-linecap:round;stroke-opacity:1"/><text id="text3639" style="font-size:10px;font-family:sans-serif;text-anchor:start;fill:#282828"><tspan id="tspan3637" x="13" y="14">1</tspan></text></g></g><g id="g3653" transform="matrix(0.26458333,0,0,0.26458333,59.048547,69.16778)"><g id="g3651" transform="scale(1.5)"><path id="path3645" d="m 8.5,0.5 h 60 v 20 h -60 v -8 -1 h -6 v 3 h -2 v -8 h 2 v 3 h 6 v -1 z" style="fill:#ff5293;fill-opacity:1;stroke:#ff2c76;stroke-width:1;stroke-linecap:round;stroke-opacity:1"/><text id="text3649" style="font-size:10px;font-family:sans-serif;text-anchor:start;fill:#282828"><tspan id="tspan3647" x="13" y="14">1</tspan></text></g></g><g id="g3683" transform="matrix(0.26458333,0,0,0.26458333,-418.83541,15.011404)"><g id="g3663" transform="translate(1583,-56.314477)"><g id="g3661" transform="scale(1.5)"><path id="path3655" d="m 0.5,14.5 v -4 a 4,4 90 0 1 4,-4 h 4 l 5,-6 5,6 h 9 71.123047 4.000003 a 4,4 90 0 1 4,4 v 4 4 4 a 4,4 90 0 1 -4,4 H 98.623047 27.5 h -1 v 2 h -8 v -2 h -1 -4 a 5,5 90 0 0 -5,5 v 4 4 147 4 a 5,5 90 0 0 5,5 h 4 v 2 h 10 v -2 h 8 v 6 6 4 a 4,4 90 0 1 -4,4 h -4 -9 l -5,6 -5,-6 h -4 a 4,4 90 0 1 -4,-4 v -4 z" style="fill:#77c428;fill-opacity:1;stroke:#57ad02;stroke-width:1;stroke-linecap:round;stroke-opacity:1"/><text id="text3659" style="font-size:10px;font-family:sans-serif;text-anchor:start;fill:#282828"><tspan id="tspan3657" x="20" y="22">リズムメーカー</tspan></text></g></g><g id="g3681" transform="matrix(0.5,0,0,0.5,1583,-44.314477)"><g id="g3679" style="isolation:isolate"><g id="g3677" data-name="レイヤー 2"><g id="g3675"><rect id="rect3665" width="42" height="42" x="0" y="0" rx="5" ry="5" style="opacity:.4;mix-blend-mode:multiply;fill:#292929"/><path id="path3667" d="m 30.56,29.8 -4.17,-4.16 h 2.26 a 1.035,1.035 0 1 0 0,-2.07 h -4.71 a 1.08,1.08 0 0 0 -1.11,1 v 0 c 0,0 0,0 0,0.06 v 4.64 0 a 1.04,1.04 0 1 0 2.08,0 v -2.19 l 4.19,4.19 a 1,1 0 0 0 1.46,0 1,1 0 0 0 0,-1.47 z" style="fill:#fff"/><path id="path3669" d="m 19.17,24.6 a 1.08,1.08 0 0 0 -1.11,-1 h -4.71 a 1.035,1.035 0 1 0 0,2.07 h 2.25 l -4.16,4.13 a 1.039447,1.039447 0 0 0 1.47,1.47 l 4.18,-4.19 v 2.26 a 1.04,1.04 0 1 0 2.08,0 V 24.7 c 0,0 0,0 0,-0.06 a 0.08,0.08 0 0 1 0,-0.04 z" style="fill:#fff"/><path id="path3671" d="m 23.94,20.5 h 4.7 a 1.04,1.04 0 1 0 0,-2.08 h -2.25 l 4.17,-4.16 a 1,1 0 0 0 0,-1.47 1,1 0 0 0 -1.46,0 L 24.91,17 v -2.28 a 1.04,1.04 0 1 0 -2.08,0 v 4.64 a 0.43,0.43 0 0 0 0,0.05 v 0.05 a 1.09,1.09 0 0 0 1.11,1.04 z" style="fill:#fff"/><path id="path3673" d="m 18.13,13.62 a 1.08,1.08 0 0 0 -1,1.09 V 17 l -4.18,-4.19 a 1,1 0 0 0 -1.47,0 1,1 0 0 0 0,1.46 l 4.16,4.17 h -2.29 a 1.04,1.04 0 1 0 0,2.08 h 4.71 a 1.09,1.09 0 0 0 1.11,-1 c 0,0 0,0 0,-0.06 v -4.75 a 1.07,1.07 0 0 0 -1.04,-1.09 z" style="fill:#fff"/></g></g></g></g></g><g id="g3697" transform="matrix(0.26458333,0,0,0.26458333,3.571869,10.827157)"><g id="g3695" transform="scale(1.5)"><path id="path3685" d="m 0.5,8.5 v -4 c 0,-2.209139 1.790861,-4 4,-4 h 4 v 2 h 10 v -2 h 9 68.012479 4 c 2.209141,0 6.126631,3.4018854 4.000001,4 v 4 h -4.000001 v -3 h -4 v 10 h 4 v -3 h 4.000001 v 4 c 0,2.209139 -1.79086,4 -4.000001,4 h -4 H 27.5 h -1 v 2 h -8 v -2 h -1 -4 c -2.761424,0 -5,2.238576 -5,5 v 4 4 21 4 c 0,2.761424 2.238576,5 5,5 h 4 v 2 h 10 v -2 h 8 v 6 6 4 c 0,2.209139 -1.790861,4 -4,4 h -4 -9 -1 v 2 h -8 v -2 h -1 -4 c -2.209139,0 -4,-1.790861 -4,-4 v -4 z" style="fill:#25c3c0;fill-opacity:1;stroke:#1dbcbd;stroke-width:1;stroke-linecap:round;stroke-opacity:1"/><text id="text3689" style="font-size:10px;font-family:sans-serif;text-anchor:start;fill:#282828"><tspan id="tspan3687" x="5" y="15">ドラムを せってい</tspan></text></g></g><g id="g3707" transform="matrix(0.26458333,0,0,0.26458333,41.676837,10.827157)"><g id="g3705" transform="scale(1.5)"><path id="path3699" d="m 8.5,0.5 h 110 v 20 H 8.5 v -8 -1 h -6 v 3 h -2 v -8 h 2 v 3 h 6 v -1 z" style="fill:#25c3c0;fill-opacity:1;stroke:#1dbcbd;stroke-width:1;stroke-linecap:round;stroke-opacity:1"/><text id="text3703" style="font-size:10px;font-family:sans-serif;text-anchor:start;fill:#282828"><tspan id="tspan3701" x="13" y="14">スネアドラム</tspan></text></g></g><g id="g3725" transform="matrix(0.26458333,0,0,0.26458333,12.788189,19.161532)"><g id="g3723" transform="scale(1.5)"><path id="path3709" d="m -13.722222,8.5 v -4 c 0,-2.209139 1.790861,-4 3.9999995,-4 h 4 v 2 h 10 v -2 h 54.7837455 4 c 2.209139,0 4,1.790861 4,4 v 4 h -4 v -3 h -4 v 10 h 4 v -3 h 4 v 17 h -4 v -3 h -4 v 10 h 4 v -3 h 4 v 4 c 0,2.209139 -1.790861,4 -4,4 h -4 -54.7837455 -1 v 2 h -8 v -2 h -1 -4 c -2.2091385,0 -6.1266295,-3.401885 -3.9999995,-4 v -4 -21 z" style="fill:#77c428;fill-opacity:1;stroke:#57ad02;stroke-width:1;stroke-linecap:round;stroke-opacity:1"/><text id="text3713" style="font-size:10px;font-family:sans-serif;text-anchor:end;fill:#282828"><tspan id="tspan3711" x="57" y="24">音符（かけ算）</tspan></text><text id="text3717" style="font-size:6.66666651px;font-family:sans-serif;text-anchor:end;fill:#282828"><tspan id="tspan3715" x="57" y="12">おんぷの かず</tspan></text><text id="text3721" style="font-size:6.66666651px;font-family:sans-serif;text-anchor:end;fill:#282828"><tspan id="tspan3719" x="57" y="33">おとの ながさ</tspan></text></g></g><g id="g3735" transform="matrix(0.26458333,0,0,0.26458333,36.426673,19.161532)"><g id="g3733" transform="scale(1.5)"><path id="path3727" d="m 8.5,0.5 h 60 v 20 h -60 v -8 -1 h -6 v 3 h -2 v -8 h 2 v 3 h 6 v -1 z" style="fill:#ff5293;fill-opacity:1;stroke:#ff2c76;stroke-width:1;stroke-linecap:round;stroke-opacity:1"/><text id="text3731" style="font-size:10px;font-family:sans-serif;text-anchor:start;fill:#282828"><tspan id="tspan3729" x="13" y="14">1</tspan></text></g></g><g id="g3753" transform="matrix(0.26458333,0,0,0.26458333,36.426673,27.495907)"><g id="g3751" transform="scale(1.5)"><path id="path3737" d="m 8.5,8.5 v -4 a 4,4 90 0 1 4,-4 h 4 10 30 4 a 4,4 90 0 1 4,4 v 4 h -4 v -3 h -4 v 10 h 4 v -3 h 4 v 17 h -4 v -3 h -4 v 10 h 4 v -3 h 4 v 4 a 4,4 90 0 1 -4,4 h -4 -30 -10 -4 a 4,4 90 0 1 -4,-4 v -4 -21 -1 h -6 v 3 h -2 v -8 h 2 v 3 h 6 z" style="fill:#ff5293;fill-opacity:1;stroke:#ff2c76;stroke-width:1;stroke-linecap:round;stroke-opacity:1"/><text id="text3741" style="font-size:9px;font-family:sans-serif;text-anchor:end;fill:#282828"><tspan id="tspan3739" x="54" y="23">➗</tspan></text></g></g><g id="g3763" transform="matrix(0.26458333,0,0,0.26458333,59.048547,27.495907)"><g id="g3761" transform="scale(1.5)"><path id="path3755" d="m 8.5,0.5 h 60 v 20 h -60 v -8 -1 h -6 v 3 h -2 v -8 h 2 v 3 h 6 v -1 z" style="fill:#ff5293;fill-opacity:1;stroke:#ff2c76;stroke-width:1;stroke-linecap:round;stroke-opacity:1"/><text id="text3759" style="font-size:10px;font-family:sans-serif;text-anchor:start;fill:#282828"><tspan id="tspan3757" x="13" y="14">1</tspan></text></g></g><g id="g3773" transform="matrix(0.26458333,0,0,0.26458333,59.048547,35.830282)"><g id="g3771" transform="scale(1.5)"><path id="path3765" d="m 8.5,0.5 h 60 v 20 h -60 v -8 -1 h -6 v 3 h -2 v -8 h 2 v 3 h 6 v -1 z" style="fill:#ff5293;fill-opacity:1;stroke:#ff2c76;stroke-width:1;stroke-linecap:round;stroke-opacity:1"/><text id="text3769" style="font-size:10px;font-family:sans-serif;text-anchor:start;fill:#282828"><tspan id="tspan3767" x="13" y="14">1</tspan></text></g></g></svg>