<svg xmlns="http://www.w3.org/2000/svg" xmlns:svg="http://www.w3.org/2000/svg" id="svg1621" width="268.342" height="194.5" version="1.1" viewBox="0 0 70.999 51.461"><metadata id="metadata1618"/><path id="path540" d="m 0.24471419,11.840104 v -1.5875 c 0,-0.8767515 0.710748,-1.5874995 1.58750001,-1.5874995 h 1.5875 v 0.79375 h 3.96875 v -0.79375 h 35.9074118 1.5875 c 0.876752,0 1.5875,0.710748 1.5875,1.5874995 v 1.5875 h -1.5875 v -1.190625 h -1.5875 v 3.96875 h 1.5875 v -1.190625 h 1.5875 v 1.587501 c -10e-7,0.876752 -0.710748,1.587499 -1.5875,1.587499 h -1.5875 -35.9074118 -0.39688 v 0.79375 h -3.175 v -0.79375 h -0.39687 -1.5875 c -0.87675201,0 -1.86475321,-0.755739 -1.58750001,-1.587499 v -1.587501 z" style="fill:#92a9ff;fill-opacity:1;stroke:#5370dc;stroke-width:.39687499;stroke-linecap:round;stroke-opacity:1"/><text id="text544" x="18.743" y="8.467" style="font-size:3.96875px;font-family:sans-serif;text-anchor:end;fill:#282828;stroke-width:.39687499"><tspan style="stroke-width:.39687499" id="tspan542" x="42.556" y="14.023">いろのこさを せってい</tspan></text><path id="path554" d="m 46.987766,8.6651045 h 23.8125 v 7.9374995 h -23.8125 v -3.175 -0.396874 h -2.38125 v 1.190624 h -0.79375 v -3.174999 h 0.79375 v 1.190624 h 2.38125 v -0.396875 z" style="fill:#ff6ea1;fill-opacity:1;stroke:#ff2c76;stroke-width:.39687499;stroke-linecap:round;stroke-opacity:1"/><text id="text558" x="43.614" y="8.467" style="font-size:3.96875px;font-family:sans-serif;text-anchor:start;fill:#282828;stroke-width:.39687499"><tspan style="stroke-width:.39687499" id="tspan556" x="48.774" y="14.023">0</tspan></text><path id="path564" d="m 0.24471419,28.773438 v -1.5875 c 0,-0.876752 0.710748,-1.587501 1.58750001,-1.587501 h 1.5875 v 0.793751 h 3.96875 v -0.793751 h 35.9074118 1.5875 c 0.876752,0 1.587501,0.710749 1.5875,1.587501 v 1.5875 h -1.5875 v -1.190626 h -1.5875 v 3.96875 h 1.5875 v -1.190624 h 1.5875 v 1.587499 c 0,0.876752 -0.710748,1.5875 -1.5875,1.5875 h -1.5875 -35.9074118 -0.39688 v 0.793751 h -3.175 v -0.793751 h -0.39687 -1.5875 c -0.87675201,0 -1.86475351,-0.75574 -1.58750001,-1.5875 v -1.587499 z" style="fill:#92a9ff;fill-opacity:1;stroke:#5370dc;stroke-width:.39687499;stroke-linecap:round;stroke-opacity:1"/><text id="text568" x="18.743" y="25.4" style="font-size:3.96875px;font-family:sans-serif;text-anchor:end;fill:#282828;stroke-width:.39687499"><tspan style="stroke-width:.39687499" id="tspan566" x="42.556" y="30.956">いろのこさを せってい</tspan></text><path id="path578" d="m 46.987766,25.598437 h 23.8125 v 7.9375 h -23.8125 v -3.174999 -0.396876 h -2.38125 v 1.190626 h -0.79375 v -3.175001 h 0.79375 v 1.190626 h 2.38125 v -0.396875 z" style="fill:#ff6ea1;fill-opacity:1;stroke:#ff2c76;stroke-width:.39687499;stroke-linecap:round;stroke-opacity:1"/><text id="text582" x="43.614" y="25.4" style="font-size:3.96875px;font-family:sans-serif;text-anchor:start;fill:#282828;stroke-width:.39687499"><tspan style="stroke-width:.39687499" id="tspan580" x="48.774" y="30.956">50</tspan></text><path id="path588" d="m 0.24471419,3.3734375 v -1.5875 c 0,-0.87675204 0.710748,-1.5875 1.58750001,-1.5875 h 1.5875 v 0.79375 h 3.96875 v -0.79375 h 26.2864678 1.5875 c 0.876752,0 0.743493,1.3501232 1.5875,1.5875 v 1.5875 h -1.5875 v -1.190625 h -1.5875 v 3.96875 h 1.5875 v -1.190625 h 1.5875 v 1.587501 c 0,0.8767516 -2.464252,1.587499 -1.5875,1.587499 h -1.5875 -26.2864678 -0.39688 v 0.79375 h -3.175 v -0.79375 h -0.39687 -1.5875 c -0.87675201,0 -1.86475311,-0.7557393 -1.58750001,-1.587499 v -1.587501 z" style="fill:#92a9ff;fill-opacity:1;stroke:#5370dc;stroke-width:.39687499;stroke-linecap:round;stroke-opacity:1"/><text id="text592" x="7.455" y="0" style="font-size:3.96875px;font-family:sans-serif;text-anchor:end;fill:#282828;stroke-width:.39687499"><tspan style="stroke-width:.39687499" id="tspan590" x="27.298" y="5.556">まえへ すすむ</tspan></text><g id="g3488" transform="translate(13.099052)"><path style="fill:#ff6ea1;fill-opacity:1;stroke:#ff2c76;stroke-width:.39687499;stroke-linecap:round;stroke-opacity:1" id="path602" d="m 24.27552,0.198437 h 23.8125 v 7.9375 h -23.8125 v -3.175 -0.396874 H 21.89427 V 5.754687 H 21.10052 V 2.579688 h 0.79375 v 1.190624 h 2.38125 V 3.373437 Z"/><text style="font-size:3.96875px;font-family:sans-serif;text-anchor:start;fill:#282828;stroke-width:.39687499" id="text606" x="20.902" y="0"><tspan id="tspan604" x="26.061" y="5.556" style="stroke-width:.39687499">100</tspan></text></g><path id="path612" d="m 0.24471419,20.30677 v -1.587499 c 0,-0.876752 0.710748,-1.587501 1.58750001,-1.587501 h 1.5875 v 0.793751 h 3.96875 V 17.13177 h 26.2864678 1.5875 c 0.876752,0 0.743493,1.350124 1.5875,1.587501 v 1.587499 h -1.5875 v -1.190625 h -1.5875 v 3.96875 h 1.5875 v -1.190624 h 1.5875 v 1.5875 c 0,0.876752 -0.710748,1.587499 -1.5875,1.587499 h -1.5875 -26.2864678 -0.39688 v 0.793751 h -3.175 V 25.06927 h -0.39687 -1.5875 c -0.87675201,0 -1.86475341,-0.755739 -1.58750001,-1.587499 v -1.5875 z" style="fill:#92a9ff;fill-opacity:1;stroke:#5370dc;stroke-width:.39687499;stroke-linecap:round;stroke-opacity:1"/><text id="text616" x="7.455" y="16.933" style="font-size:3.96875px;font-family:sans-serif;text-anchor:end;fill:#282828;stroke-width:.39687499"><tspan style="stroke-width:.39687499" id="tspan614" x="27.298" y="22.49">まえへ すすむ</tspan></text><g id="g3502" transform="translate(7.4546076)"><path style="fill:#ff6ea1;fill-opacity:1;stroke:#ff2c76;stroke-width:.39687499;stroke-linecap:round;stroke-opacity:1" id="path626" d="m 29.919964,17.13177 h 23.8125 v 7.9375 h -23.8125 v -3.174999 -0.396875 h -2.38125 v 1.190625 h -0.79375 v -3.175 h 0.79375 v 1.190625 h 2.38125 V 20.30677 Z"/><text style="font-size:3.96875px;font-family:sans-serif;text-anchor:start;fill:#282828;stroke-width:.39687499" id="text630" x="26.547" y="16.933"><tspan id="tspan628" x="31.706" y="22.49" style="stroke-width:.39687499">100</tspan></text></g><path id="path636" d="m 0.24471419,37.240105 v -1.5875 c 0,-0.876752 0.710748,-1.587501 1.58750001,-1.587501 h 1.5875 v 0.793751 h 3.96875 v -0.793751 h 26.2864678 1.5875 c 0.876752,0 0.743493,1.350124 1.5875,1.587501 v 1.5875 h -1.5875 v -1.190626 h -1.5875 v 3.96875 h 1.5875 v -1.190624 h 1.5875 v 1.5875 c 0,0.876752 -2.464252,1.587499 -1.5875,1.587499 h -1.5875 -26.2864678 -0.39688 v 0.793751 h -3.175 v -0.793751 h -0.39687 -1.5875 c -0.87675201,0 -1.58750001,-0.710747 -1.58750001,-1.587499 v -1.5875 z" style="fill:#92a9ff;fill-opacity:1;stroke:#5370dc;stroke-width:.39687499;stroke-linecap:round;stroke-opacity:1"/><text id="text640" x="7.455" y="33.867" style="font-size:3.96875px;font-family:sans-serif;text-anchor:end;fill:#282828;stroke-width:.39687499"><tspan style="stroke-width:.39687499" id="tspan638" x="27.298" y="39.423">まえへ すすむ</tspan></text><g id="g3478" transform="translate(13.099052)"><path style="fill:#ff6ea1;fill-opacity:1;stroke:#ff2c76;stroke-width:.39687499;stroke-linecap:round;stroke-opacity:1" id="path650" d="m 24.27552,34.065104 h 23.8125 v 7.9375 H 24.27552 V 38.827605 38.43073 h -2.38125 v 1.190625 h -0.79375 v -3.175 h 0.79375 v 1.190625 h 2.38125 v -0.396875 z"/><text style="font-size:3.96875px;font-family:sans-serif;text-anchor:start;fill:#282828;stroke-width:.39687499" id="text654" x="20.902" y="33.867"><tspan id="tspan652" x="26.061" y="39.423" style="stroke-width:.39687499">100</tspan></text></g><path id="path660" d="m 0.24471419,45.706771 v -1.5875 c 0,-0.876752 0.710748,-1.587501 1.58750001,-1.587501 h 1.5875 v 0.79375 h 3.96875 v -0.79375 h 35.9074118 1.5875 c 0.876752,0 1.587501,0.710749 1.5875,1.587501 v 1.5875 h -1.5875 v -1.190626 h -1.5875 v 3.96875 h 1.5875 V 47.29427 h 1.5875 v 1.5875 c 0,0.876752 -0.710748,1.5875 -1.5875,1.5875 h -1.5875 -35.9074118 -0.39688 v 0.79375 h -3.175 v -0.79375 h -0.39687 -1.5875 c -0.87675201,0 -1.58750001,-0.710748 -1.58750001,-1.5875 v -1.5875 z" style="fill:#92a9ff;fill-opacity:1;stroke:#5370dc;stroke-width:.39687499;stroke-linecap:round;stroke-opacity:1"/><text id="text664" x="18.743" y="42.333" style="font-size:3.96875px;font-family:sans-serif;text-anchor:end;fill:#282828;stroke-width:.39687499"><tspan style="stroke-width:.39687499" id="tspan662" x="42.556" y="47.89">いろのこさを せってい</tspan></text><path id="path674" d="m 46.987766,42.53177 h 23.8125 v 7.9375 h -23.8125 v -3.175 -0.396875 h -2.38125 v 1.190625 h -0.79375 v -3.175 h 0.79375 v 1.190626 h 2.38125 v -0.396875 z" style="fill:#ff6ea1;fill-opacity:1;stroke:#ff2c76;stroke-width:.39687499;stroke-linecap:round;stroke-opacity:1"/><text id="text678" x="43.614" y="42.333" style="font-size:3.96875px;font-family:sans-serif;text-anchor:start;fill:#282828;stroke-width:.39687499"><tspan style="stroke-width:.39687499" id="tspan676" x="48.774" y="47.89">100</tspan></text></svg>