<svg xmlns="http://www.w3.org/2000/svg" xmlns:svg="http://www.w3.org/2000/svg" id="svg3575" width="335.5" height="223.5" version="1.1"><metadata id="metadata3581"/><g id="g13924" transform="translate(-3.33336,-3.666752)"><g id="svg_17" transform="matrix(1.5,0,0,1.5,320,169)"><path style="fill:#ff8b2d;fill-opacity:1;stroke:#e86b0e;stroke-width:1;stroke-linecap:round;stroke-opacity:1" id="svg_18" d="m -201.27776,-80.388832 v -4 a 4,4 90 0 1 4,-4 h 4 v 2 h 10 v -2 h 9 60 4 a 4,4 90 0 1 4,4 v 4 h -4 v -3 h -4 v 9.999977 h 4 v -2.999992 h 4 v 3.999984 a 4,4 90 0 1 -4,3.999985 h -4 -60 -1 v 1.999993 h -8 v -1.999993 h -1 -4 a 5,5 90 0 0 -5,4.999981 v 4 4 42.000005 4.0000017 a 5,5 90 0 0 5,4.9999996 h 4 v 1.9999992 h 10 v -1.9999992 h 8 v 5.9999976 5.9999966 3.9999995 a 4,4 90 0 1 -4,4 h -4 -9 -1 v 2 h -8 v -2 h -1 -4 a 4,4 90 0 1 -4,-4 V 7.6111035 Z"/><text style="font-size:10px;font-family:sans-serif;text-anchor:start;fill:#282828" id="svg_19" x="-201.778" y="-88.889"><tspan id="svg_20" x="-181.778" y="-73.889">おんぷ</tspan></text><text style="font-size:6.66666651px;font-family:sans-serif;text-anchor:end;fill:#282828" id="svg_21" x="-201.778" y="-88.889"><tspan id="svg_22" x="-116.778" y="-76.889">ながさ</tspan></text></g><g style="isolation:isolate" id="svg_24" transform="matrix(0.5,0,0,0.5,320,173)"><g id="g3512"><g id="g3510"><rect style="opacity:.4;mix-blend-mode:multiply;fill:#292929" id="svg_25" width="42" height="42" x="-605.333" y="-266.667" rx="5" ry="5"/><path style="fill:#fff" id="svg_26" d="m -574.77348,-236.86676 -4.17,-4.16 h 2.26 a 1.035,1.035 0 1 0 0,-2.07 h -4.70999 a 1.08,1.08 0 0 0 -1.11,1 v 0 c 0,0 0,0 0,0.06 v 4.64 0 a 1.04,1.04 0 1 0 2.08,0 v -2.19 l 4.19,4.19 a 1,1 0 0 0 1.46,0 1,1 0 0 0 -10e-6,-1.47 z"/><path style="fill:#fff" id="svg_27" d="m -586.16349,-242.06676 a 1.08,1.08 0 0 0 -1.11,-1 h -4.71001 a 1.035,1.035 0 1 0 0,2.07 h 2.25 l -4.15997,4.13 a 1.039447,1.039447 0 0 0 1.47,1.47 l 4.18,-4.19 v 2.26 a 1.04,1.04 0 1 0 2.08,0 v -4.64001 c 0,0 0,0 0,-0.06 a 0.08,0.08 0 0 1 -2e-5,-0.04 z"/><path style="fill:#fff" id="svg_28" d="m -581.39347,-246.16676 h 4.7 a 1.04,1.04 0 1 0 0,-2.08 h -2.24999 l 4.17,-4.16 a 1,1 0 0 0 0,-1.47 1,1 0 0 0 -1.46,0 l -4.19004,4.21 v -2.28 a 1.04,1.04 0 1 0 -2.08,0 v 4.64 a 0.43000001,0.43000001 0 0 0 0,0.05 v 0.05 a 1.09,1.09 0 0 0 1.11003,1.04 z"/><path style="fill:#fff" id="svg_29" d="m -587.20347,-253.04677 a 1.08,1.08 0 0 0 -1,1.09 v 2.29001 l -4.18,-4.19 a 1,1 0 0 0 -1.47,0 1,1 0 0 0 0,1.46 l 4.16,4.17 h -2.29003 a 1.04,1.04 0 1 0 0,2.08 h 4.71 a 1.09,1.09 0 0 0 1.11,-1 c 0,0 0,0 0,-0.06 v -4.75 a 1.0700001,1.0700001 0 0 0 -1.03997,-1.09001 z"/></g></g></g><path style="fill:#ff5293;fill-opacity:1;stroke:#ff2c76;stroke-width:1.5;stroke-linecap:round;stroke-opacity:1" id="svg_32" d="m 162.08336,48.416752 v -6 a 6,6 0 0 1 6,-6 h 6 15 45 6 a 6,6 0 0 1 6,6 v 6 h -6 v -4.5 h -6 v 14.999966 h 6 V 54.41673 h 6 v 25.499924 h -6 v -4.5 h -6 v 15 h 6 v -4.5 h 6 v 6 a 6,6 0 0 1 -6,6 h -6 -45 -15 -6 a 6,6 0 0 1 -6,-6 v -6 -31.499924 -1.49999 h -9 v 4.499977 h -3 V 45.416752 h 3 v 4.5 h 9 z"/><text style="font-size:13.5px;font-family:sans-serif;text-anchor:end;fill:#282828;stroke-width:1.5" id="svg_33" x="149.333" y="35.667"><tspan id="svg_34" x="230.333" y="70.167" style="stroke-width:1.5">➗</tspan></text><path style="fill:#ff5293;fill-opacity:1;stroke:#ff2c76;stroke-width:1.5;stroke-linecap:round;stroke-opacity:1" id="svg_41" d="m 248.08336,36.416752 h 90 v 29.999931 h -90 V 54.41673 52.91674 h -9 v 4.499977 h -3 V 45.416752 h 3 v 4.5 h 9 v -1.5 z"/><text style="font-size:15px;font-family:sans-serif;text-anchor:start;fill:#282828;stroke-width:1.5" id="svg_42" x="235.333" y="35.667"><tspan id="svg_43" x="254.833" y="56.667" style="stroke-width:1.5">1</tspan></text><path style="fill:#ff5293;fill-opacity:1;stroke:#ff2c76;stroke-width:1.5;stroke-linecap:round;stroke-opacity:1" id="svg_46" d="m 248.08336,68.416752 h 90 v 29.999931 h -90 V 86.41673 84.91674 h -9 v 4.499977 h -3 V 77.416752 h 3 v 4.5 h 9 v -1.5 z"/><text style="font-size:15px;font-family:sans-serif;text-anchor:start;fill:#282828;stroke-width:1.5" id="svg_47" x="235.333" y="67.667"><tspan id="svg_48" x="254.833" y="88.667" style="stroke-width:1.5">4</tspan></text><path style="fill:#b0b0b0;fill-opacity:1;stroke:#a0a0a0;stroke-width:1.5;stroke-linecap:round;stroke-opacity:1" id="svg_51" d="m 32.08336,80.416752 v -6 a 6,6 0 0 1 6,-6 h 6 v 3 h 15 v -3 h 30 6 a 6,6 0 0 1 6,6 v 6 5.999978 5.999976 a 6,6 0 0 1 -6,5.999977 h -6 -30 -1.5 v 2.999987 h -12 v -2.999987 h -1.5 -6 a 6,6 0 0 1 -6,-5.999977 V 86.41673 Z"/><text style="font-size:15px;font-family:sans-serif;text-anchor:end;fill:#282828;stroke-width:1.5" id="svg_52" x="31.333" y="67.667"><tspan id="svg_53" x="85.333" y="88.667" style="stroke-width:1.5">↓</tspan></text><path style="fill:#77c428;fill-opacity:1;stroke:#57ad02;stroke-width:1.5;stroke-linecap:round;stroke-opacity:1" id="svg_56" d="m 32.08336,112.41675 v -6 c 0,-3.31371 2.686292,-6 6,-6 h 6 v 3 h 15 v -3 h 81 6 c 3.31371,0 6,2.68629 6,6 v 6 h -6 v -4.5 h -6 v 14.99997 h 6 v -4.49999 h 6 v 25.49992 h -6 v -4.5 h -6 v 15 h 6 v -4.5 h 6 v 6 c 0,3.31371 -2.68629,6 -6,6 h -6 -81 -1.5 v 3 h -12 v -3 h -1.5 -6 c -3.313708,0 -7.047887,-2.85634 -6,-6 v -6 -31.49992 z"/><text style="font-size:15px;font-family:sans-serif;text-anchor:end;fill:#282828;stroke-width:1.5" id="svg_57" x="67.333" y="99.667"><tspan id="svg_58" x="136.333" y="135.667" style="stroke-width:1.5">おとの たかさ</tspan></text><text style="font-size:10px;font-family:sans-serif;text-anchor:end;fill:#282828;stroke-width:1.5" id="svg_59" x="67.333" y="99.667"><tspan id="svg_60" x="136.333" y="117.667" style="stroke-width:1.5">なまえ</tspan></text><text style="font-size:10px;font-family:sans-serif;text-anchor:end;fill:#282828;stroke-width:1.5" id="svg_61" x="67.333" y="99.667"><tspan id="svg_62" x="136.333" y="149.167" style="stroke-width:1.5">オクターヴの たかさ</tspan></text><path style="fill:#77c428;fill-opacity:1;stroke:#57ad02;stroke-width:1.5;stroke-linecap:round;stroke-opacity:1" id="svg_65" d="m 154.08336,100.41675 h 90 v 29.99993 h -90 v -11.99995 -1.49999 h -9 v 4.49998 h -3 v -11.99997 h 3 v 4.5 h 9 v -1.5 z"/><text style="font-size:15px;font-family:sans-serif;text-anchor:start;fill:#282828;stroke-width:1.5" id="svg_66" x="141.333" y="99.667"><tspan id="svg_67" x="160.833" y="120.667" style="stroke-width:1.5">ソ</tspan></text><path style="fill:#ff5293;fill-opacity:1;stroke:#ff2c76;stroke-width:1.5;stroke-linecap:round;stroke-opacity:1" id="svg_70" d="m 154.08336,132.41675 h 90 v 29.99993 h -90 v -11.99995 -1.49999 h -9 v 4.49998 h -3 v -11.99997 h 3 v 4.5 h 9 v -1.5 z"/><text style="font-size:15px;font-family:sans-serif;text-anchor:start;fill:#282828;stroke-width:1.5" id="svg_71" x="141.333" y="131.667"><tspan id="svg_72" x="160.833" y="152.667" style="stroke-width:1.5">4</tspan></text><path style="fill:#25c3c0;fill-opacity:1;stroke:#1dbcbd;stroke-width:1.5;stroke-linecap:round;stroke-opacity:1" id="svg_75" d="m 4.08336,16.416752 v -6 c 0,-3.3137085 2.6862915,-6 6,-6 h 6 v 3 h 15 v -3 h 13.5 98 6 c 3.31371,0 4.95211,2.8563401 6,6 v 6 h -6 v -4.5 h -6 v 14.999966 h 6 V 22.41673 h 6 v 5.999976 c -1e-5,3.3137 -2.6863,5.999977 -6,5.999977 h -6 -98 -1.5 v 2.99999 h -12 v -2.99999 h -1.5 -6 c -4.142124,0 -7.499984,3.357847 -7.5,7.499971 v 6 6 125.999996 6 c 0,4.14214 3.357864,7.5 7.5,7.5 h 6 v 3 h 15 v -3 h 12 v 9 9 6.00003 c 1.7e-5,3.31372 -2.68628,6.00003 -6,6.00003 h -6 -13.5 -1.5 v 3.00001 h -12 v -3.00001 h -1.5 -6 c -3.3137202,0 -6.0000166,-2.68631 -6,-6.00003 v -6.00003 z"/><text style="font-size:15px;font-family:sans-serif;text-anchor:start;fill:#282828;stroke-width:1.5" id="svg_76" x="3.333" y="3.667"><tspan id="svg_77" x="10.833" y="26.167" style="stroke-width:1.5">ねいろを せってい</tspan></text><path style="fill:#25c3c0;fill-opacity:1;stroke:#1dbcbd;stroke-width:1.5;stroke-linecap:round;stroke-opacity:1" id="svg_82" d="m 156.08336,4.416752 h 139 v 29.999931 h -139 V 22.41673 20.91674 h -9 v 4.499977 h -3 V 13.416752 h 3 v 4.5 h 9 v -1.5 z"/><text style="font-size:15px;font-family:sans-serif;text-anchor:start;fill:#282828;stroke-width:1.5" id="svg_83" x="133.333" y="3.667"><tspan id="svg_84" x="152.833" y="24.667" style="stroke-width:1.5">ギター</tspan></text></g></svg>