<svg xmlns="http://www.w3.org/2000/svg" xmlns:svg="http://www.w3.org/2000/svg" id="svg1870" width="271.749" height="144.5" version="1.1" viewBox="0 0 71.9 38.232"><metadata id="metadata1867"/><g id="g474" transform="matrix(0.26458333,0,0,0.26458333,10.054167,0)"><g id="g472" transform="scale(1.5)"><path id="path462" d="m -24.833334,8.5 v -4 c 0,-2.209139 1.790861,-4 4,-4 h 4 v 2 h 9.9999999 v -2 h 63.1263031 4 c 2.209139,0 4,1.790861 4,4 v 4 h -4 v -3 h -4 v 10 h 4 v -3 h 4 v 4 c 0,2.209139 -1.790861,4 -4,4 h -4 -63.1263031 -1 v 2 h -7.9999999 v -2 h -1 -4 c -2.209139,0 -4,-1.505927 -4,-4 v -4 z" style="fill:#728ff9;fill-opacity:1;stroke:#5370dc;stroke-width:1;stroke-linecap:round;stroke-opacity:1"/><text id="text466" style="font-size:10px;font-family:sans-serif;text-anchor:end;fill:#282828"><tspan id="tspan464" x="54" y="14">いろを せってい</tspan></text></g></g><g id="g484" transform="matrix(0.26458333,0,0,0.26458333,32.593867,0)"><g id="g482" transform="scale(1.5)"><path id="path476" d="m 8.5,0.5 h 60 v 20 h -60 v -8 -1 h -6 v 3 h -2 v -8 h 2 v 3 h 6 v -1 z" style="fill:#ff5293;fill-opacity:1;stroke:#ff2c76;stroke-width:1;stroke-linecap:round;stroke-opacity:1"/><text id="text480" style="font-size:10px;font-family:sans-serif;text-anchor:start;fill:#282828"><tspan id="tspan478" x="13" y="14">0</tspan></text></g></g><g id="g498" transform="matrix(0.26458333,0,0,0.26458333,19.765115,8.33438)"><g id="g496" transform="scale(1.5)"><path id="path486" d="m -49.277779,8.5 v -4 c 0,-2.209139 1.790861,-4 4,-4 h 4 v 2 h 10 v -2 h 93.142037 4 c 2.209139,0 4,1.790861 4,4 v 4 h -4 v -3 h -4 v 10 h 4 v -3 h 4 v 4 c 0,2.209139 -1.790861,4 -4,4 h -4 -93.142037 -1 v 2 h -8 v -2 h -1 -4 c -2.209139,0 -4.267895,-2.074217 -4,-4 v -4 z" style="fill:#728ff9;fill-opacity:1;stroke:#5370dc;stroke-width:1;stroke-linecap:round;stroke-opacity:1"/><text id="text490" style="font-size:10px;font-family:sans-serif;text-anchor:end;fill:#282828"><tspan id="tspan488" x="60" y="14">いろのこさを せってい</tspan></text></g></g><g id="g508" transform="matrix(0.26458333,0,0,0.26458333,44.515924,8.33438)"><g id="g506" transform="scale(1.5)"><path id="path500" d="m 8.5,0.5 h 60 v 20 h -60 v -8 -1 h -6 v 3 h -2 v -8 h 2 v 3 h 6 v -1 z" style="fill:#ff5293;fill-opacity:1;stroke:#ff2c76;stroke-width:1;stroke-linecap:round;stroke-opacity:1"/><text id="text504" style="font-size:10px;font-family:sans-serif;text-anchor:start;fill:#282828"><tspan id="tspan502" x="13" y="14">50</tspan></text></g></g><g id="g522" transform="matrix(0.26458333,0,0,0.26458333,11.288889,16.66875)"><g id="g520" transform="scale(1.5)"><path id="path510" d="m -27.944445,8.5 v -4 c 0,-2.209139 1.790861,-4 4,-4 h 4 v 2 h 10 v -2 h 81.808703 4 c 2.209139,0 4,1.790861 4,4 v 4 h -4 v -3 h -4 v 10 h 4 v -3 h 4 v 4 c 0,2.209139 -1.790861,4 -4,4 h -4 -81.808703 -1 v 2 h -8 v -2 h -1 -4 c -2.209139,0 -4,-1.790861 -4,-4 v -4 z" style="fill:#728ff9;fill-opacity:1;stroke:#5370dc;stroke-width:1;stroke-linecap:round;stroke-opacity:1"/><text id="text514" style="font-size:10px;font-family:sans-serif;text-anchor:end;fill:#282828"><tspan id="tspan512" x="70" y="14">ふとさを せってい</tspan></text></g></g><g id="g532" transform="matrix(0.26458333,0,0,0.26458333,40.008448,16.66875)"><g id="g530" transform="scale(1.5)"><path id="path524" d="m 8.5,0.5 h 60 v 20 h -60 v -8 -1 h -6 v 3 h -2 v -8 h 2 v 3 h 6 v -1 z" style="fill:#ff5293;fill-opacity:1;stroke:#ff2c76;stroke-width:1;stroke-linecap:round;stroke-opacity:1"/><text id="text528" style="font-size:10px;font-family:sans-serif;text-anchor:start;fill:#282828"><tspan id="tspan526" x="13" y="14">5</tspan></text></g></g><g id="g562" transform="matrix(0.26458333,0,0,0.26458333,22.225,29.89792)"><g id="g560" transform="scale(1.5)"><path id="path554" d="m 8.5,0.5 h 70 v 20 h -70 v -8 -1 h -6 v 3 h -2 v -8 h 2 v 3 h 6 v -1 z" style="fill:#728ff9;fill-opacity:1;stroke:#5370dc;stroke-width:1;stroke-linecap:round;stroke-opacity:1"/><text id="text558" style="font-size:10px;font-family:sans-serif;text-anchor:start;fill:#282828"><tspan id="tspan556" x="13" y="14">いろ</tspan></text></g></g></svg>