<svg xmlns="http://www.w3.org/2000/svg" xmlns:svg="http://www.w3.org/2000/svg" id="svg78" width="335.5" height="223.5" version="1.1"><metadata id="metadata84"/><g id="g9617" transform="translate(-1.66666,-2.000005)"><g id="svg_17" transform="matrix(1.5,0,0,1.5,357,270)"><path style="fill:#ff8b2d;fill-opacity:1;stroke:#e86b0e;stroke-width:1;stroke-linecap:round;stroke-opacity:1" id="svg_18" d="m -227.05556,-148.83333 v -4 a 4,4 90 0 1 4,-4 h 4 v 2 h 10 v -2 h 9 60 4 a 4,4 90 0 1 4,4 v 4 h -4 v -3 h -4 v 10 h 4 v -3 h 4 v 4 a 4,4 90 0 1 -4,4 h -4 -60 -1 v 2 h -8 v -2 h -1 -4 a 5,5 90 0 0 -5,5 v 4 4 41.999998 4 a 5,5 90 0 0 5,5 h 4 v 2 h 10 v -2 h 8 v 5.999993 5.999992 4 a 4,4 90 0 1 -4,4 h -4 -9 -1 v 2 h -8 v -2 h -1 -4 a 4,4 90 0 1 -4,-4 v -4 z"/><text style="font-size:10px;font-family:sans-serif;text-anchor:start;fill:#282828" id="svg_19" x="-227.556" y="-157.333"><tspan id="svg_20" x="-207.556" y="-142.333">おんぷ</tspan></text><text style="font-size:6.66666651px;font-family:sans-serif;text-anchor:end;fill:#282828" id="svg_21" x="-227.556" y="-157.333"><tspan id="svg_22" x="-142.556" y="-145.333">ながさ</tspan></text></g><g style="isolation:isolate" id="svg_24" transform="matrix(0.5,0,0,0.5,357,274)"><g id="レイヤー_2" data-name="レイヤー 2"><g id="Icon"><rect style="opacity:.4;mix-blend-mode:multiply;fill:#292929" id="svg_25" width="42" height="42" x="-682.667" y="-472" rx="5" ry="5"/><path style="fill:#fff" id="svg_26" d="m -652.10669,-442.19999 -4.17,-4.16 h 2.26 a 1.035,1.035 0 1 0 0,-2.07 h -4.70999 a 1.08,1.08 0 0 0 -1.11,1 v 0 c 0,0 0,0 0,0.06 v 4.64 0 a 1.04,1.04 0 1 0 2.08,0 v -2.19 l 4.19,4.19 a 1,1 0 0 0 1.46,0 1,1 0 0 0 -10e-6,-1.47 z"/><path style="fill:#fff" id="svg_27" d="m -663.4967,-447.39997 a 1.08,1.08 0 0 0 -1.11,-1 h -4.71001 a 1.035,1.035 0 1 0 0,2.07 h 2.25 l -4.15997,4.12998 a 1.039447,1.039447 0 0 0 1.47,1.47 l 4.18,-4.19 v 2.26 a 1.04,1.04 0 1 0 2.08,0 v -4.63998 c 0,0 0,0 0,-0.06 a 0.08,0.08 0 0 1 -2e-5,-0.04 z"/><path style="fill:#fff" id="svg_28" d="m -658.72668,-451.49998 h 4.7 a 1.04,1.04 0 1 0 0,-2.08 h -2.24999 l 4.17,-4.16 a 1,1 0 0 0 0,-1.47 1,1 0 0 0 -1.46,0 l -4.19004,4.21 v -2.28 a 1.04,1.04 0 1 0 -2.08,0 v 4.64 a 0.43000001,0.43000001 0 0 0 0,0.05 v 0.05 a 1.09,1.09 0 0 0 1.11003,1.04 z"/><path style="fill:#fff" id="svg_29" d="m -664.53668,-458.37998 a 1.08,1.08 0 0 0 -1,1.09 v 2.29 l -4.18,-4.19 a 1,1 0 0 0 -1.47,0 1,1 0 0 0 0,1.46 l 4.16,4.17 h -2.29003 a 1.04,1.04 0 1 0 0,2.08 h 4.71 a 1.09,1.09 0 0 0 1.11,-1 c 0,0 0,0 0,-0.06 v -4.75001 a 1.0700001,1.0700001 0 0 0 -1.03997,-1.08999 z"/></g></g></g><path style="fill:#ff5293;fill-opacity:1;stroke:#ff2c76;stroke-width:1.5;stroke-linecap:round;stroke-opacity:1" id="svg_32" d="m 160.41666,46.750005 v -6 a 6,6 0 0 1 6,-6 h 6 15 45 6 a 6,6 0 0 1 6,6 v 6 h -6 v -4.5 h -6 v 15 h 6 v -4.5 h 6 v 25.5 h -6 v -4.5 h -6 v 15 h 6 v -4.5 h 6 v 6 a 6,6 0 0 1 -6,6 h -6 -45 -15 -6 a 6,6 0 0 1 -6,-6 v -6 -31.5 -1.5 h -9 v 4.5 h -3 v -12 h 3 v 4.5 h 9 z"/><text style="font-size:13.5px;font-family:sans-serif;text-anchor:end;fill:#282828;stroke-width:1.5" id="svg_33" x="147.667" y="34"><tspan id="svg_34" x="228.667" y="68.5" style="stroke-width:1.5">➗</tspan></text><path style="fill:#ff5293;fill-opacity:1;stroke:#ff2c76;stroke-width:1.5;stroke-linecap:round;stroke-opacity:1" id="svg_41" d="m 246.41666,34.750005 h 90 v 30 h -90 v -12 -1.5 h -9 v 4.5 h -3 v -12 h 3 v 4.5 h 9 v -1.5 z"/><text style="font-size:15px;font-family:sans-serif;text-anchor:start;fill:#282828;stroke-width:1.5" id="svg_42" x="233.667" y="34"><tspan id="svg_43" x="253.167" y="55" style="stroke-width:1.5">1</tspan></text><path style="fill:#ff5293;fill-opacity:1;stroke:#ff2c76;stroke-width:1.5;stroke-linecap:round;stroke-opacity:1" id="svg_46" d="m 246.41666,66.750005 h 90 v 30 h -90 v -12 -1.5 h -9 v 4.5 h -3 v -12 h 3 v 4.5 h 9 v -1.5 z"/><text style="font-size:15px;font-family:sans-serif;text-anchor:start;fill:#282828;stroke-width:1.5" id="svg_47" x="233.667" y="66"><tspan id="svg_48" x="253.167" y="87" style="stroke-width:1.5">4</tspan></text><path style="fill:#b0b0b0;fill-opacity:1;stroke:#a0a0a0;stroke-width:1.5;stroke-linecap:round;stroke-opacity:1" id="svg_51" d="m 30.41666,78.750005 v -6 a 6,6 0 0 1 6,-6 h 6 v 3 h 15 v -3 h 30 6 a 6,6 0 0 1 6,6 v 6 6 6 a 6,6 0 0 1 -6,6 h -6 -30 -1.5 v 3 h -12 v -3 h -1.5 -6 a 6,6 0 0 1 -6,-6 v -6 z"/><text style="font-size:15px;font-family:sans-serif;text-anchor:end;fill:#282828;stroke-width:1.5" id="svg_52" x="29.667" y="66"><tspan id="svg_53" x="83.667" y="87" style="stroke-width:1.5">↓</tspan></text><path style="fill:#77c428;fill-opacity:1;stroke:#57ad02;stroke-width:1.5;stroke-linecap:round;stroke-opacity:1" id="svg_56" d="m 30.41666,110.75001 v -6 c 0,-3.31371 2.68629,-6.000005 6,-6.000005 h 6 v 3.000005 h 15 v -3.000005 h 81 6 c 3.31371,0 7.04789,2.856345 6,6.000005 v 6 h -6 v -4.5 h -6 v 15 h 6 v -4.5 h 6 v 25.5 h -6 v -4.5 h -6 v 15 h 6 v -4.5 h 6 v 6 c 0,3.31371 -2.68629,6 -6,6 h -6 -81 -1.5 v 3 h -12 v -3 h -1.5 -6 c -3.313708,0 -6,-2.68629 -6,-6 v -6 -31.5 z"/><text style="font-size:15px;font-family:sans-serif;text-anchor:end;fill:#282828;stroke-width:1.5" id="svg_57" x="65.667" y="98"><tspan id="svg_58" x="134.667" y="134" style="stroke-width:1.5">おとの たかさ</tspan></text><text style="font-size:10px;font-family:sans-serif;text-anchor:end;fill:#282828;stroke-width:1.5" id="svg_59" x="65.667" y="98"><tspan id="svg_60" x="134.667" y="116" style="stroke-width:1.5">なまえ</tspan></text><text style="font-size:10px;font-family:sans-serif;text-anchor:end;fill:#282828;stroke-width:1.5" id="svg_61" x="65.667" y="98"><tspan id="svg_62" x="134.667" y="147.5" style="stroke-width:1.5">オクターヴの たかさ</tspan></text><path style="fill:#77c428;fill-opacity:1;stroke:#57ad02;stroke-width:1.5;stroke-linecap:round;stroke-opacity:1" id="svg_65" d="m 152.41666,98.750005 h 90 v 30.000005 h -90 v -12 -1.5 h -9 v 4.5 h -3 v -12 h 3 v 4.5 h 9 v -1.5 z"/><text style="font-size:15px;font-family:sans-serif;text-anchor:start;fill:#282828;stroke-width:1.5" id="svg_66" x="139.667" y="98"><tspan id="svg_67" x="159.167" y="119" style="stroke-width:1.5">ソ</tspan></text><path style="fill:#ff5293;fill-opacity:1;stroke:#ff2c76;stroke-width:1.5;stroke-linecap:round;stroke-opacity:1" id="svg_70" d="m 152.41666,130.75001 h 90 v 30 h -90 v -12 -1.5 h -9 v 4.5 h -3 v -12 h 3 v 4.5 h 9 v -1.5 z"/><text style="font-size:15px;font-family:sans-serif;text-anchor:start;fill:#282828;stroke-width:1.5" id="svg_71" x="139.667" y="130"><tspan id="svg_72" x="159.167" y="151" style="stroke-width:1.5">4</tspan></text><path style="fill:#25c3c0;fill-opacity:1;stroke:#1dbcbd;stroke-width:1.5;stroke-linecap:round;stroke-opacity:1" id="svg_75" d="m 2.41666,14.750005 v -6 c 0,-3.3137085 2.6862915,-6 6,-6 h 6 v 3 h 15 v -3 h 13.5 85 6 c 3.31371,0 6,2.6862915 6,6 v 6 h -6 v -4.5 h -6 v 15 h 6 v -4.5 h 6 v 6 c 0,3.313708 -2.68629,6 -6,6 h -6 -85 -1.5 v 3 h -12 v -3 h -1.5 -6 c -4.142136,0 -7.5,3.357864 -7.5,7.5 v 6 6 125.999975 6 c 0,4.14214 3.357864,7.5 7.5,7.5 h 6 v 3 h 15 v -3 h 12 v 9 9 6 c 0,3.31371 -2.686292,6 -6,6 h -6 -13.5 -1.5 v 3 h -12 v -3 h -1.5 -6 c -3.3137085,0 -6,-2.68629 -6,-6 v -6 z"/><text style="font-size:15px;font-family:sans-serif;text-anchor:start;fill:#282828;stroke-width:1.5" id="svg_76" x="1.667" y="2"><tspan id="svg_77" x="9.167" y="24.5" style="stroke-width:1.5">ドラムを せってい</tspan></text><g id="g3382" transform="translate(40)"><path id="svg_82" d="m 101.41666,2.750005 h 165 v 30 h -165 v -12 -1.5 h -9 v 4.5 h -3 v -12 h 3 v 4.5 h 9 v -1.5 z" style="fill:#25c3c0;fill-opacity:1;stroke:#1dbcbd;stroke-width:1.5;stroke-linecap:round;stroke-opacity:1"/><text id="svg_83" x="88.667" y="2" style="font-size:15px;font-family:sans-serif;text-anchor:start;fill:#282828;stroke-width:1.5"><tspan style="stroke-width:1.5" id="svg_84" x="108.167" y="23">キックドラム</tspan></text></g></g></svg>