<svg xmlns="http://www.w3.org/2000/svg" xmlns:svg="http://www.w3.org/2000/svg" id="svg1581" width="426.5" height="66" version="1.1"><metadata id="metadata1587"/><g id="g608"><g id="g606" transform="scale(1.5)"><path id="path592" d="m 0.5,8.5 v -4 a 4,4 90 0 1 4,-4 h 4 v 2 h 10 v -2 h 146 4 a 4,4 90 0 1 4,4 v 4 h -4 v -3 h -4 v 10 h 4 v -3 h 4 v 17 h -4 v -3 h -4 v 10 h 4 v -3 h 4 v 4 a 4,4 90 0 1 -4,4 h -4 -146 -1 v 2 h -8 v -2 h -1 -4 a 4,4 90 0 1 -4,-4 v -4 -21 z" style="fill:#3edcdd;fill-opacity:1;stroke:#1dbcbd;stroke-width:1;stroke-linecap:round;stroke-opacity:1"/><text id="text596" style="font-size:10px;font-family:sans-serif;text-anchor:end;fill:#282828"><tspan id="tspan594" x="162" y="24">がっきの おんりょうを せってい</tspan></text><text id="text600" style="font-size:6.66666651px;font-family:sans-serif;text-anchor:end;fill:#282828"><tspan id="tspan598" x="162" y="12">がっき</tspan></text><text id="text604" style="font-size:6.66666651px;font-family:sans-serif;text-anchor:end;fill:#282828"><tspan id="tspan602" x="162" y="33">おんりょう</tspan></text></g></g><g id="g618" transform="translate(248)"><g id="g616" transform="scale(1.5)"><path id="path610" d="m 8.5,0.5 h 110 v 20 H 8.5 v -8 -1 h -6 v 3 h -2 v -8 h 2 v 3 h 6 v -1 z" style="fill:#3edcdd;fill-opacity:1;stroke:#1dbcbd;stroke-width:1;stroke-linecap:round;stroke-opacity:1"/><text id="text614" style="font-size:10px;font-family:sans-serif;text-anchor:start;fill:#282828"><tspan id="tspan612" x="13" y="14">シンセサイザー</tspan></text></g></g><g id="g628" transform="translate(248,32)"><g id="g626" transform="scale(1.5)"><path id="path620" d="m 8.5,0.5 h 60 v 20 h -60 v -8 -1 h -6 v 3 h -2 v -8 h 2 v 3 h 6 v -1 z" style="fill:#ff6ea1;fill-opacity:1;stroke:#ff2c76;stroke-width:1;stroke-linecap:round;stroke-opacity:1"/><text id="text624" style="font-size:10px;font-family:sans-serif;text-anchor:start;fill:#282828"><tspan id="tspan622" x="13" y="14">50</tspan></text></g></g></svg>