<svg xmlns="http://www.w3.org/2000/svg" xmlns:svg="http://www.w3.org/2000/svg" id="svg11666" width="321" height="129" version="1.1" viewBox="0 0 84.931 34.131"><metadata id="metadata11663"/><g id="layer1" transform="translate(443.75509,41.983964)"><g id="g10740" transform="matrix(0.26458333,0,0,0.26458333,-783.74467,-117.91938)"><g id="g884"><g id="g864" transform="translate(1285,287)"><g id="g862" transform="scale(1.5)"><path id="path852" d="m 0.5,8.5 v -4 a 4,4 90 0 1 4,-4 h 4 v 2 h 10 v -2 h 9 60 4 a 4,4 90 0 1 4,4 v 4 h -4 v -3 h -4 v 10 h 4 v -3 h 4 v 4 a 4,4 90 0 1 -4,4 h -4 -60 -1 v 2 h -8 v -2 h -1 -4 a 5,5 90 0 0 -5,5 v 4 4 21 4 a 5,5 90 0 0 5,5 h 4 v 2 h 10 v -2 h 8 v 6 6 4 a 4,4 90 0 1 -4,4 h -4 -9 -1 v 2 h -8 v -2 h -1 -4 a 4,4 90 0 1 -4,-4 v -4 z" style="fill:#ff8b2d;fill-opacity:1;stroke:#e86b0e;stroke-width:1;stroke-linecap:round;stroke-opacity:1"/><text id="text856" style="font-size:10px;font-family:sans-serif;text-anchor:start;fill:#282828"><tspan id="tspan854" x="20" y="15">おんぷ</tspan></text><text id="text860" style="font-size:6.66666651px;font-family:sans-serif;text-anchor:end;fill:#282828"><tspan id="tspan858" x="85" y="12">ながさ</tspan></text></g></g><g id="g882" transform="matrix(0.5,0,0,0.5,1285,291)"><g id="g880" style="isolation:isolate"><g id="g878" data-name="レイヤー 2"><g id="g876"><rect id="rect866" width="42" height="42" x="0" y="0" rx="5" ry="5" style="opacity:.4;mix-blend-mode:multiply;fill:#292929"/><path id="path868" d="m 30.56,29.8 -4.17,-4.16 h 2.26 a 1.035,1.035 0 1 0 0,-2.07 h -4.71 a 1.08,1.08 0 0 0 -1.11,1 v 0 c 0,0 0,0 0,0.06 v 4.64 0 a 1.04,1.04 0 1 0 2.08,0 v -2.19 l 4.19,4.19 a 1,1 0 0 0 1.46,0 1,1 0 0 0 0,-1.47 z" style="fill:#fff"/><path id="path870" d="m 19.17,24.6 a 1.08,1.08 0 0 0 -1.11,-1 h -4.71 a 1.035,1.035 0 1 0 0,2.07 h 2.25 l -4.16,4.13 a 1.039447,1.039447 0 0 0 1.47,1.47 l 4.18,-4.19 v 2.26 a 1.04,1.04 0 1 0 2.08,0 V 24.7 c 0,0 0,0 0,-0.06 a 0.08,0.08 0 0 1 0,-0.04 z" style="fill:#fff"/><path id="path872" d="m 23.94,20.5 h 4.7 a 1.04,1.04 0 1 0 0,-2.08 h -2.25 l 4.17,-4.16 a 1,1 0 0 0 0,-1.47 1,1 0 0 0 -1.46,0 L 24.91,17 v -2.28 a 1.04,1.04 0 1 0 -2.08,0 v 4.64 a 0.43,0.43 0 0 0 0,0.05 v 0.05 a 1.09,1.09 0 0 0 1.11,1.04 z" style="fill:#fff"/><path id="path874" d="m 18.13,13.62 a 1.08,1.08 0 0 0 -1,1.09 V 17 l -4.18,-4.19 a 1,1 0 0 0 -1.47,0 1,1 0 0 0 0,1.46 l 4.16,4.17 h -2.29 a 1.04,1.04 0 1 0 0,2.08 h 4.71 a 1.09,1.09 0 0 0 1.11,-1 c 0,0 0,0 0,-0.06 v -4.75 a 1.07,1.07 0 0 0 -1.04,-1.09 z" style="fill:#fff"/></g></g></g></g></g><g id="g902" transform="translate(1417,287)"><g id="g900" transform="scale(1.5)"><path id="path886" d="m 8.5,8.5 v -4 a 4,4 90 0 1 4,-4 h 4 10 30 4 a 4,4 90 0 1 4,4 v 4 h -4 v -3 h -4 v 10 h 4 v -3 h 4 v 17 h -4 v -3 h -4 v 10 h 4 v -3 h 4 v 4 a 4,4 90 0 1 -4,4 h -4 -30 -10 -4 a 4,4 90 0 1 -4,-4 v -4 -21 -1 h -6 v 3 h -2 v -8 h 2 v 3 h 6 z" style="fill:#ff5293;fill-opacity:1;stroke:#ff2c76;stroke-width:1;stroke-linecap:round;stroke-opacity:1"/><text id="text890" style="font-size:9px;font-family:sans-serif;text-anchor:end;fill:#282828"><tspan id="tspan888" x="54" y="23">➗</tspan></text></g></g><g id="g912" transform="translate(1502.5,287)"><g id="g910" transform="scale(1.5)"><path id="path904" d="m 8.5,0.5 h 60 v 20 h -60 v -8 -1 h -6 v 3 h -2 v -8 h 2 v 3 h 6 v -1 z" style="fill:#ff5293;fill-opacity:1;stroke:#ff2c76;stroke-width:1;stroke-linecap:round;stroke-opacity:1"/><text id="text908" style="font-size:10px;font-family:sans-serif;text-anchor:start;fill:#282828"><tspan id="tspan906" x="13" y="14">1</tspan></text></g></g><g id="g922" transform="translate(1502.5,318.5)"><g id="g920" transform="scale(1.5)"><path id="path914" d="m 8.5,0.5 h 60 v 20 h -60 v -8 -1 h -6 v 3 h -2 v -8 h 2 v 3 h 6 v -1 z" style="fill:#ff5293;fill-opacity:1;stroke:#ff2c76;stroke-width:1;stroke-linecap:round;stroke-opacity:1"/><text id="text918" style="font-size:10px;font-family:sans-serif;text-anchor:start;fill:#282828"><tspan id="tspan916" x="13" y="14">4</tspan></text></g></g><g id="g932" transform="translate(1298.5,318.5)"><g id="g930" transform="scale(1.5)"><path id="path924" d="m 0.5,8.5 v -4 a 4,4 90 0 1 4,-4 h 4 v 2 h 10 v -2 h 20 4 a 4,4 90 0 1 4,4 v 4 4 4 a 4,4 90 0 1 -4,4 h -4 -20 -1 v 2 h -8 v -2 h -1 -4 a 4,4 90 0 1 -4,-4 v -4 z" style="fill:#b0b0b0;fill-opacity:1;stroke:#a0a0a0;stroke-width:1;stroke-linecap:round;stroke-opacity:1"/><text id="text928" style="font-size:10px;font-family:sans-serif;text-anchor:end;fill:#282828"><tspan id="tspan926" x="36" y="14">↓</tspan></text></g></g><g id="g942" transform="translate(1298.5,350)"><g id="g940" transform="scale(1.5)"><path id="path934" d="m 0.5,8.5 v -4 a 4,4 90 0 1 4,-4 h 4 v 2 h 10 v -2 h 31.12793 4 a 4,4 90 0 1 4,4 v 4 4 4 a 4,4 90 0 1 -4,4 h -4 H 18.5 h -1 v 2 h -8 v -2 h -1 -4 a 4,4 90 0 1 -4,-4 v -4 z" style="fill:#ff8b2d;fill-opacity:1;stroke:#e86b0e;stroke-width:1;stroke-linecap:round;stroke-opacity:1"/><text id="text938" style="font-size:10px;font-family:sans-serif;text-anchor:end;fill:#282828"><tspan id="tspan936" x="47" y="14">きゅうふ</tspan></text></g></g></g></g></svg>