<svg xmlns="http://www.w3.org/2000/svg" xmlns:svg="http://www.w3.org/2000/svg" id="svg1815" width="365.5" height="786.343" version="1.1"><metadata id="metadata1821"/><rect id="backgroundrect" width="323" height="784" x="0" y="1.172" style="fill:none;stroke:none"/><g id="svg_17" transform="matrix(1.5,0,0,1.5,239,170.17153)"><path id="svg_18" d="m -158.83333,-98.666664 0,-3.999996 a 4,4 90 0 1 4,-4 l 4,0 5,-6 5,6 9,0 69.000002,0 4,0 a 4,4 90 0 1 4,4 l 0,3.999996 0,4 0,4 a 4,4 90 0 1 -4,4 l -4,0 -69.000002,0 -1,0 0,2 -8,0 0,-2 -1,0 -4,0 a 5,5 90 0 0 -5,5 l 0,4 0,4 0,147 0,4 a 5,5 90 0 0 5,5 l 4,0 0,2 10,0 0,-2 8,0 0,6 0,6 0,4 a 4,4 90 0 1 -4,4.000004 l -4,0 -9,0 -5,6 -5,-6 -4,0 a 4,4 90 0 1 -4,-4.000004 l 0,-4 z" style="fill:#77c428;fill-opacity:1;stroke:#57ad02;stroke-width:1;stroke-linecap:round;stroke-opacity:1"/><text id="svg_19" x="-159.333" y="-113.167" style="font-size:10px;font-family:sans-serif;text-anchor:start;fill:#282828"><tspan id="svg_20" x="-139.333" y="-91.167">フレーズメーカー</tspan></text></g><g id="svg_22" transform="matrix(0.5,0,0,0.5,239,182.17153)" style="isolation:isolate"><g id="レイヤー_2" data-name="レイヤー 2"><g id="Icon"><rect id="svg_23" width="42" height="42" x="-478" y="-339.5" rx="5" ry="5" style="opacity:.4;mix-blend-mode:multiply;fill:#292929"/><path id="svg_24" d="m -447.44,-309.7 -4.17,-4.16 2.26,0 a 1.035,1.035 0 1 0 0,-2.07 l -4.71,0 a 1.08,1.08 0 0 0 -1.11,1 l 0,0 c 0,0 0,0 0,0.06 l 0,4.64 0,0 a 1.04,1.04 0 1 0 2.08,0 l 0,-2.19 4.19,4.19 a 1,1 0 0 0 1.46,0 1,1 0 0 0 0,-1.47 z" style="fill:#fff"/><path id="svg_25" d="m -458.83,-314.9 a 1.08,1.08 0 0 0 -1.11,-1 l -4.71,0 a 1.035,1.035 0 1 0 0,2.07 l 2.25,0 -4.16,4.13 a 1.039447,1.039447 0 0 0 1.47,1.47 l 4.18,-4.19 0,2.26 a 1.04,1.04 0 1 0 2.08,0 l 0,-4.64 c 0,0 0,0 0,-0.06 a 0.08,0.08 0 0 1 0,-0.04 z" style="fill:#fff"/><path id="svg_26" d="m -454.06,-319 4.7,0 a 1.04,1.04 0 1 0 0,-2.08 l -2.25,0 4.17,-4.16 a 1,1 0 0 0 0,-1.47 1,1 0 0 0 -1.46,0 l -4.19,4.21 0,-2.28 a 1.04,1.04 0 1 0 -2.08,0 l 0,4.64 a 0.43000001,0.43000001 0 0 0 0,0.05 l 0,0.05 a 1.09,1.09 0 0 0 1.11,1.04 z" style="fill:#fff"/><path id="svg_27" d="m -459.87,-325.88 a 1.08,1.08 0 0 0 -1,1.09 l 0,2.29 -4.18,-4.19 a 1,1 0 0 0 -1.47,0 1,1 0 0 0 0,1.46 l 4.16,4.17 -2.29,0 a 1.04,1.04 0 1 0 0,2.08 l 4.71,0 a 1.09,1.09 0 0 0 1.11,-1 c 0,0 0,0 0,-0.06 l 0,-4.75 a 1.0700001,1.0700001 0 0 0 -1.04,-1.09 z" style="fill:#fff"/></g></g></g><path id="svg_30" d="m 14.750005,54.171537 v -6 c 0,-3.313708 2.686292,-6 6,-6 h 6 v 3 h 15 v -3 h 77.000005 6 c 3.3137,0 6,2.686292 6,6 v 6 h -6 v -4.5 h -6 v 14.999994 h 6 v -4.499994 h 6 v 25.499994 h -6 v -4.5 h -6 v 15 h 6 v -4.5 h 6 v 6 c 0,3.313709 -2.6863,5.999999 -6,5.999999 h -6 -77.000005 -1.5 v 3 h -12 v -3 h -1.5 -6 c -3.313707,0 -7.047887,-2.85634 -6,-5.999999 v -6 -31.499994 z" style="fill:#77c428;fill-opacity:1;stroke:#57ad02;stroke-width:1.5;stroke-linecap:round;stroke-opacity:1"/><text id="svg_31" x="46" y="41.422" style="font-size:15px;font-family:sans-serif;text-anchor:end;fill:#282828;stroke-width:1.5"><tspan style="stroke-width:1.5" id="svg_32" x="115" y="77.422">おとの たかさ</tspan></text><text id="svg_33" x="46" y="41.422" style="font-size:10px;font-family:sans-serif;text-anchor:end;fill:#282828;stroke-width:1.5"><tspan style="stroke-width:1.5" id="svg_34" x="115" y="59.422">なまえ</tspan></text><text id="svg_35" x="46" y="41.422" style="font-size:10px;font-family:sans-serif;text-anchor:end;fill:#282828;stroke-width:1.5"><tspan style="stroke-width:1.5" id="svg_36" x="115" y="90.922">オクターヴの たかさ</tspan></text><path id="svg_39" d="m 132.75001,42.171537 h 90 v 29.999994 h -90 v -11.999994 -1.5 h -9 v 4.499994 h -3 V 51.171537 h 3 v 4.5 h 9 v -1.5 z" style="fill:#77c428;fill-opacity:1;stroke:#57ad02;stroke-width:1.5;stroke-linecap:round;stroke-opacity:1"/><text id="svg_40" x="120" y="41.422" style="font-size:15px;font-family:sans-serif;text-anchor:start;fill:#282828;stroke-width:1.5"><tspan style="stroke-width:1.5" id="svg_41" x="139.5" y="62.422">ソ</tspan></text><path id="svg_44" d="m 132.75001,74.171537 h 90 v 29.999993 h -90 v -11.999993 -1.5 h -9 v 4.499994 h -3 V 83.171537 h 3 v 4.5 h 9 v -1.5 z" style="fill:#ff5293;fill-opacity:1;stroke:#ff2c76;stroke-width:1.5;stroke-linecap:round;stroke-opacity:1"/><text id="svg_45" x="120" y="73.422" style="font-size:15px;font-family:sans-serif;text-anchor:start;fill:#282828;stroke-width:1.5"><tspan style="stroke-width:1.5" id="svg_46" x="139.5" y="94.422">4</tspan></text><path id="svg_49" d="m 14.750005,117.17154 v -6 c 0,-3.31371 2.686292,-6 6,-6 h 6 v 3 h 15 v -3 h 77.000005 6 c 3.3137,0 6,2.68629 6,6 v 6 h -6 v -4.5 h -6 v 14.99999 h 6 v -4.49999 h 6 v 25.49999 h -6 v -4.5 h -6 v 15 h 6 v -4.5 h 6 v 6 c 0,3.31371 -2.6863,6 -6,6 h -6 -77.000005 -1.5 v 3 h -12 v -3 h -1.5 -6 c -3.313708,0 -6,-2.68629 -6,-6 v -6 -31.49999 z" style="fill:#77c428;fill-opacity:1;stroke:#57ad02;stroke-width:1.5;stroke-linecap:round;stroke-opacity:1"/><text id="svg_50" x="46" y="104.422" style="font-size:15px;font-family:sans-serif;text-anchor:end;fill:#282828;stroke-width:1.5"><tspan style="stroke-width:1.5" id="svg_51" x="115" y="140.422">おとの たかさ</tspan></text><text id="svg_52" x="46" y="104.422" style="font-size:10px;font-family:sans-serif;text-anchor:end;fill:#282828;stroke-width:1.5"><tspan style="stroke-width:1.5" id="svg_53" x="115" y="122.422">なまえ</tspan></text><text id="svg_54" x="46" y="104.422" style="font-size:10px;font-family:sans-serif;text-anchor:end;fill:#282828;stroke-width:1.5"><tspan style="stroke-width:1.5" id="svg_55" x="115" y="153.922">オクターヴの たかさ</tspan></text><path id="svg_58" d="m 132.75001,105.17154 h 90 v 29.99999 h -90 v -11.99999 -1.5 h -9 v 4.49999 h -3 v -11.99999 h 3 v 4.5 h 9 v -1.5 z" style="fill:#77c428;fill-opacity:1;stroke:#57ad02;stroke-width:1.5;stroke-linecap:round;stroke-opacity:1"/><text id="svg_59" x="120" y="104.422" style="font-size:15px;font-family:sans-serif;text-anchor:start;fill:#282828;stroke-width:1.5"><tspan style="stroke-width:1.5" id="svg_60" x="139.5" y="125.422">ミ</tspan></text><path id="svg_63" d="m 132.75001,137.17154 h 90 v 29.99999 h -90 v -11.99999 -1.5 h -9 v 4.49999 h -3 v -11.99999 h 3 v 4.5 h 9 v -1.5 z" style="fill:#ff5293;fill-opacity:1;stroke:#ff2c76;stroke-width:1.5;stroke-linecap:round;stroke-opacity:1"/><text id="svg_64" x="120" y="136.422" style="font-size:15px;font-family:sans-serif;text-anchor:start;fill:#282828;stroke-width:1.5"><tspan style="stroke-width:1.5" id="svg_65" x="139.5" y="157.422">4</tspan></text><path id="svg_68" d="m 14.750005,180.17154 v -6 c 0,-3.31371 2.686292,-6 6,-6 h 6 v 3 h 15 v -3 h 77.000005 6 c 3.3137,0 7.04788,2.85634 6,6 v 6 h -6 v -4.5 h -6 v 14.99999 h 6 v -4.49999 h 6 v 25.49999 h -6 v -4.5 h -6 v 15 h 6 v -4.5 h 6 v 6 c 0,3.31371 -2.6863,6 -6,6 h -6 -77.000005 -1.5 v 3 h -12 v -3 h -1.5 -6 c -3.313708,0 -7.047887,-2.85634 -6,-6 v -6 -31.49999 z" style="fill:#77c428;fill-opacity:1;stroke:#57ad02;stroke-width:1.5;stroke-linecap:round;stroke-opacity:1"/><text id="svg_69" x="46" y="167.422" style="font-size:15px;font-family:sans-serif;text-anchor:end;fill:#282828;stroke-width:1.5"><tspan style="stroke-width:1.5" id="svg_70" x="115" y="203.422">おとの たかさ</tspan></text><text id="svg_71" x="46" y="167.422" style="font-size:10px;font-family:sans-serif;text-anchor:end;fill:#282828;stroke-width:1.5"><tspan style="stroke-width:1.5" id="svg_72" x="115" y="185.422">なまえ</tspan></text><text id="svg_73" x="46" y="167.422" style="font-size:10px;font-family:sans-serif;text-anchor:end;fill:#282828;stroke-width:1.5"><tspan style="stroke-width:1.5" id="svg_74" x="115" y="216.922">オクターヴの たかさ</tspan></text><path id="svg_77" d="m 132.75001,168.17154 h 90 v 29.99999 h -90 v -11.99999 -1.5 h -9 v 4.49999 h -3 v -11.99999 h 3 v 4.5 h 9 v -1.5 z" style="fill:#77c428;fill-opacity:1;stroke:#57ad02;stroke-width:1.5;stroke-linecap:round;stroke-opacity:1"/><text id="svg_78" x="120" y="167.422" style="font-size:15px;font-family:sans-serif;text-anchor:start;fill:#282828;stroke-width:1.5"><tspan style="stroke-width:1.5" id="svg_79" x="139.5" y="188.422">レ</tspan></text><path id="svg_82" d="m 132.75001,200.17154 h 90 v 29.99999 h -90 v -11.99999 -1.5 h -9 v 4.49999 h -3 v -11.99999 h 3 v 4.5 h 9 v -1.5 z" style="fill:#ff5293;fill-opacity:1;stroke:#ff2c76;stroke-width:1.5;stroke-linecap:round;stroke-opacity:1"/><text id="svg_83" x="120" y="199.422" style="font-size:15px;font-family:sans-serif;text-anchor:start;fill:#282828;stroke-width:1.5"><tspan style="stroke-width:1.5" id="svg_84" x="139.5" y="220.422">4</tspan></text><path id="svg_87" d="m 14.750005,243.17154 v -6 c 0,-3.31371 2.686291,-6 6,-6 h 6 v 3 h 15 v -3 h 99.500005 6 c 3.31371,0 6,2.68629 6,6 v 6 h -6 v -4.5 h -6 v 14.99999 h 6 v -4.49999 h 6 v 25.49999 h -6 v -4.5 h -6 v 15 h 6 v -4.5 h 6 v 6 c 0,3.31371 -2.68629,6 -6,6 h -6 -99.500005 -1.5 v 3 h -12 v -3 h -1.5 -6 c -3.313708,0 -7.047887,-2.85634 -6,-6 v -6 -31.49999 z" style="fill:#ff8b2d;fill-opacity:1;stroke:#e86b0e;stroke-width:1.5;stroke-linecap:round;stroke-opacity:1"/><text id="svg_88" x="22" y="230.422" style="font-size:15px;font-family:sans-serif;text-anchor:end;fill:#282828;stroke-width:1.5"><tspan style="stroke-width:1.5" id="svg_89" x="137.5" y="266.422">れんぷ（わり算）</tspan></text><text id="svg_90" x="22" y="230.422" style="font-size:10px;font-family:sans-serif;text-anchor:end;fill:#282828;stroke-width:1.5"><tspan style="stroke-width:1.5" id="svg_91" x="137.5" y="248.422">おんぷの かず</tspan></text><text id="svg_92" x="22" y="230.422" style="font-size:10px;font-family:sans-serif;text-anchor:end;fill:#282828;stroke-width:1.5"><tspan style="stroke-width:1.5" id="svg_93" x="137.5" y="279.922">おとの ながさ</tspan></text><path id="svg_96" d="m 154.75001,231.17154 h 90 v 29.99999 h -90 v -11.99999 -1.5 h -9 v 4.49999 h -3 v -11.99999 h 3 v 4.5 h 9 v -1.5 z" style="fill:#ff5293;fill-opacity:1;stroke:#ff2c76;stroke-width:1.5;stroke-linecap:round;stroke-opacity:1"/><text id="svg_97" x="142" y="230.422" style="font-size:15px;font-family:sans-serif;text-anchor:start;fill:#282828;stroke-width:1.5"><tspan style="stroke-width:1.5" id="svg_98" x="161.5" y="251.422">3</tspan></text><path id="svg_101" d="m 154.75001,275.17154 v -6 a 6,6 0 0 1 6,-6 h 6 15 45 6 a 6,6 0 0 1 6,6 v 6 h -6 v -4.5 h -6 v 14.99999 h 6 v -4.49999 h 6 v 25.49999 h -6 v -4.5 h -6 v 15 h 6 v -4.5 h 6 v 6 a 6,6 0 0 1 -6,6 h -6 -45 -15 -6 a 6,6 0 0 1 -6,-6 v -6 -31.49999 -1.5 h -9 v 4.49999 h -3 v -11.99999 h 3 v 4.5 h 9 z" style="fill:#ff5293;fill-opacity:1;stroke:#ff2c76;stroke-width:1.5;stroke-linecap:round;stroke-opacity:1"/><text id="svg_102" x="142" y="262.422" style="font-size:13.5px;font-family:sans-serif;text-anchor:end;fill:#282828;stroke-width:1.5"><tspan style="stroke-width:1.5" id="svg_103" x="223" y="296.922">➗</tspan></text><path id="svg_110" d="m 240.75001,263.17154 h 90 v 29.99999 h -90 v -11.99999 -1.5 h -9 v 4.49999 h -3 v -11.99999 h 3 v 4.5 h 9 v -1.5 z" style="fill:#ff5293;fill-opacity:1;stroke:#ff2c76;stroke-width:1.5;stroke-linecap:round;stroke-opacity:1"/><text id="svg_111" x="228" y="262.422" style="font-size:15px;font-family:sans-serif;text-anchor:start;fill:#282828;stroke-width:1.5"><tspan style="stroke-width:1.5" id="svg_112" x="247.5" y="283.422">1</tspan></text><path id="svg_115" d="m 240.75001,295.17154 h 90 v 29.99999 h -90 v -11.99999 -1.5 h -9 v 4.49999 h -3 v -11.99999 h 3 v 4.5 h 9 v -1.5 z" style="fill:#ff5293;fill-opacity:1;stroke:#ff2c76;stroke-width:1.5;stroke-linecap:round;stroke-opacity:1"/><text id="svg_116" x="228" y="294.422" style="font-size:15px;font-family:sans-serif;text-anchor:start;fill:#282828;stroke-width:1.5"><tspan style="stroke-width:1.5" id="svg_117" x="247.5" y="315.422">4</tspan></text><g id="svg_120" transform="matrix(1.5,0,0,1.5,239,528.17153)"><path id="svg_121" d="m -158.83333,-98.666664 0,-3.999996 a 4,4 90 0 1 4,-4 l 4,0 5,-6 5,6 9,0 69.000002,0 4,0 a 4,4 90 0 1 4,4 l 0,3.999996 0,4 0,4 a 4,4 90 0 1 -4,4 l -4,0 -69.000002,0 -1,0 0,2 -8,0 0,-2 -1,0 -4,0 a 5,5 90 0 0 -5,5 l 0,4 0,4 0,210.000004 0,4 a 5,5 90 0 0 5,5 l 4,0 0,2 10,0 0,-2 8,0 0,6 0,6 0,4 a 4,4 90 0 1 -4,4 l -4,0 -9,0 -5,6 -5,-6 -4,0 a 4,4 90 0 1 -4,-4 l 0,-4 z" style="fill:#77c428;fill-opacity:1;stroke:#57ad02;stroke-width:1;stroke-linecap:round;stroke-opacity:1"/><text id="svg_122" x="-159.333" y="-113.167" style="font-size:10px;font-family:sans-serif;text-anchor:start;fill:#282828"><tspan id="svg_123" x="-139.333" y="-91.167">フレーズメーカー</tspan></text></g><g id="svg_125" transform="matrix(0.5,0,0,0.5,239,540.17153)" style="isolation:isolate"><g id="g1689" data-name="レイヤー 2"><g id="g1687"><rect id="svg_126" width="42" height="42" x="-478" y="-339.5" rx="5" ry="5" style="opacity:.4;mix-blend-mode:multiply;fill:#292929"/><path id="svg_127" d="m -447.44,-309.7 -4.17,-4.16 2.26,0 a 1.035,1.035 0 1 0 0,-2.07 l -4.71,0 a 1.08,1.08 0 0 0 -1.11,1 l 0,0 c 0,0 0,0 0,0.06 l 0,4.64 0,0 a 1.04,1.04 0 1 0 2.08,0 l 0,-2.19 4.19,4.19 a 1,1 0 0 0 1.46,0 1,1 0 0 0 0,-1.47 z" style="fill:#fff"/><path id="svg_128" d="m -458.83,-314.9 a 1.08,1.08 0 0 0 -1.11,-1 l -4.71,0 a 1.035,1.035 0 1 0 0,2.07 l 2.25,0 -4.16,4.13 a 1.039447,1.039447 0 0 0 1.47,1.47 l 4.18,-4.19 0,2.26 a 1.04,1.04 0 1 0 2.08,0 l 0,-4.64 c 0,0 0,0 0,-0.06 a 0.08,0.08 0 0 1 0,-0.04 z" style="fill:#fff"/><path id="svg_129" d="m -454.06,-319 4.7,0 a 1.04,1.04 0 1 0 0,-2.08 l -2.25,0 4.17,-4.16 a 1,1 0 0 0 0,-1.47 1,1 0 0 0 -1.46,0 l -4.19,4.21 0,-2.28 a 1.04,1.04 0 1 0 -2.08,0 l 0,4.64 a 0.43000001,0.43000001 0 0 0 0,0.05 l 0,0.05 a 1.09,1.09 0 0 0 1.11,1.04 z" style="fill:#fff"/><path id="svg_130" d="m -459.87,-325.88 a 1.08,1.08 0 0 0 -1,1.09 l 0,2.29 -4.18,-4.19 a 1,1 0 0 0 -1.47,0 1,1 0 0 0 0,1.46 l 4.16,4.17 -2.29,0 a 1.04,1.04 0 1 0 0,2.08 l 4.71,0 a 1.09,1.09 0 0 0 1.11,-1 c 0,0 0,0 0,-0.06 l 0,-4.75 a 1.0700001,1.0700001 0 0 0 -1.04,-1.09 z" style="fill:#fff"/></g></g></g><path id="svg_133" d="m 14.750005,412.17154 v -6 c 0,-3.31371 2.686292,-6 6,-6 h 6 v 3 h 15 v -3 h 77.000005 6 c 3.3137,0 7.04788,2.85634 6,6 v 6 h -6 v -4.5 h -6 v 14.99999 h 6 v -4.49999 h 6 v 25.49999 h -6 v -4.5 h -6 v 15 h 6 v -4.5 h 6 v 6 c 0,3.31371 -2.6863,6 -6,6 h -6 -77.000005 -1.5 v 3 h -12 v -3 h -1.5 -6 c -3.313708,0 -7.047887,-2.85634 -6,-6 v -6 -31.49999 z" style="fill:#77c428;fill-opacity:1;stroke:#57ad02;stroke-width:1.5;stroke-linecap:round;stroke-opacity:1"/><text id="svg_134" x="46" y="399.422" style="font-size:15px;font-family:sans-serif;text-anchor:end;fill:#282828;stroke-width:1.5"><tspan style="stroke-width:1.5" id="svg_135" x="115" y="435.422">おとの たかさ</tspan></text><text id="svg_136" x="46" y="399.422" style="font-size:10px;font-family:sans-serif;text-anchor:end;fill:#282828;stroke-width:1.5"><tspan style="stroke-width:1.5" id="svg_137" x="115" y="417.422">なまえ</tspan></text><text id="svg_138" x="46" y="399.422" style="font-size:10px;font-family:sans-serif;text-anchor:end;fill:#282828;stroke-width:1.5"><tspan style="stroke-width:1.5" id="svg_139" x="115" y="448.922">オクターヴの たかさ</tspan></text><path id="svg_142" d="m 132.75001,400.17154 h 90 v 29.99999 h -90 v -11.99999 -1.5 h -9 v 4.49999 h -3 v -11.99999 h 3 v 4.5 h 9 v -1.5 z" style="fill:#77c428;fill-opacity:1;stroke:#57ad02;stroke-width:1.5;stroke-linecap:round;stroke-opacity:1"/><text id="svg_143" x="120" y="399.422" style="font-size:15px;font-family:sans-serif;text-anchor:start;fill:#282828;stroke-width:1.5"><tspan style="stroke-width:1.5" id="svg_144" x="139.5" y="420.422">ソ</tspan></text><path id="svg_147" d="m 132.75001,432.17154 h 90 v 29.99999 h -90 v -11.99999 -1.5 h -9 v 4.49999 h -3 v -11.99999 h 3 v 4.5 h 9 v -1.5 z" style="fill:#ff5293;fill-opacity:1;stroke:#ff2c76;stroke-width:1.5;stroke-linecap:round;stroke-opacity:1"/><text id="svg_148" x="120" y="431.422" style="font-size:15px;font-family:sans-serif;text-anchor:start;fill:#282828;stroke-width:1.5"><tspan style="stroke-width:1.5" id="svg_149" x="139.5" y="452.422">4</tspan></text><path id="svg_152" d="m 14.750005,475.17154 v -6 c 0,-3.31371 2.686292,-6 6,-6 h 6 v 3 h 15 v -3 h 77.000005 6 c 3.3137,0 7.04789,2.85634 6,6 v 6 h -6 v -4.5 h -6 v 14.99999 h 6 v -4.49999 h 6 v 25.49999 h -6 v -4.5 h -6 v 15 h 6 v -4.5 h 6 v 6 c 0,3.31371 -2.6863,6 -6,6 h -6 -77.000005 -1.5 v 3 h -12 v -3 h -1.5 -6 c -3.313708,0 -6,-2.68629 -6,-6 v -6 -31.49999 z" style="fill:#77c428;fill-opacity:1;stroke:#57ad02;stroke-width:1.5;stroke-linecap:round;stroke-opacity:1"/><text id="svg_153" x="46" y="462.422" style="font-size:15px;font-family:sans-serif;text-anchor:end;fill:#282828;stroke-width:1.5"><tspan style="stroke-width:1.5" id="svg_154" x="115" y="498.422">おとの たかさ</tspan></text><text id="svg_155" x="46" y="462.422" style="font-size:10px;font-family:sans-serif;text-anchor:end;fill:#282828;stroke-width:1.5"><tspan style="stroke-width:1.5" id="svg_156" x="115" y="480.422">なまえ</tspan></text><text id="svg_157" x="46" y="462.422" style="font-size:10px;font-family:sans-serif;text-anchor:end;fill:#282828;stroke-width:1.5"><tspan style="stroke-width:1.5" id="svg_158" x="115" y="511.922">オクターヴの たかさ</tspan></text><path id="svg_161" d="m 132.75001,463.17154 h 90 v 29.99999 h -90 v -11.99999 -1.5 h -9 v 4.49999 h -3 v -11.99999 h 3 v 4.5 h 9 v -1.5 z" style="fill:#77c428;fill-opacity:1;stroke:#57ad02;stroke-width:1.5;stroke-linecap:round;stroke-opacity:1"/><text id="svg_162" x="120" y="462.422" style="font-size:15px;font-family:sans-serif;text-anchor:start;fill:#282828;stroke-width:1.5"><tspan style="stroke-width:1.5" id="svg_163" x="139.5" y="483.422">ミ</tspan></text><path id="svg_166" d="m 132.75001,495.17154 h 90 v 29.99999 h -90 v -11.99999 -1.5 h -9 v 4.49999 h -3 v -11.99999 h 3 v 4.5 h 9 v -1.5 z" style="fill:#ff5293;fill-opacity:1;stroke:#ff2c76;stroke-width:1.5;stroke-linecap:round;stroke-opacity:1"/><text id="svg_167" x="120" y="494.422" style="font-size:15px;font-family:sans-serif;text-anchor:start;fill:#282828;stroke-width:1.5"><tspan style="stroke-width:1.5" id="svg_168" x="139.5" y="515.422">4</tspan></text><path id="svg_171" d="m 14.750005,538.17154 v -6 c 0,-3.31371 2.686292,-6 6,-6 h 6 v 3 h 15 v -3 h 77.000005 6 c 3.3137,0 7.04788,2.85634 6,6 v 6 h -6 v -4.5 h -6 v 14.99999 h 6 v -4.49999 h 6 v 25.49999 h -6 v -4.5 h -6 v 15 h 6 v -4.5 h 6 v 6 c 0,3.31371 -2.6863,6 -6,6 h -6 -77.000005 -1.5 v 3 h -12 v -3 h -1.5 -6 c -3.313708,0 -7.047887,-2.85634 -6,-6 v -6 -31.49999 z" style="fill:#77c428;fill-opacity:1;stroke:#57ad02;stroke-width:1.5;stroke-linecap:round;stroke-opacity:1"/><text id="svg_172" x="46" y="525.422" style="font-size:15px;font-family:sans-serif;text-anchor:end;fill:#282828;stroke-width:1.5"><tspan style="stroke-width:1.5" id="svg_173" x="115" y="561.422">おとの たかさ</tspan></text><text id="svg_174" x="46" y="525.422" style="font-size:10px;font-family:sans-serif;text-anchor:end;fill:#282828;stroke-width:1.5"><tspan style="stroke-width:1.5" id="svg_175" x="115" y="543.422">なまえ</tspan></text><text id="svg_176" x="46" y="525.422" style="font-size:10px;font-family:sans-serif;text-anchor:end;fill:#282828;stroke-width:1.5"><tspan style="stroke-width:1.5" id="svg_177" x="115" y="574.922">オクターヴの たかさ</tspan></text><path id="svg_180" d="m 132.75001,526.17154 h 90 v 29.99999 h -90 v -11.99999 -1.5 h -9 v 4.49999 h -3 v -11.99999 h 3 v 4.5 h 9 v -1.5 z" style="fill:#77c428;fill-opacity:1;stroke:#57ad02;stroke-width:1.5;stroke-linecap:round;stroke-opacity:1"/><text id="svg_181" x="120" y="525.422" style="font-size:15px;font-family:sans-serif;text-anchor:start;fill:#282828;stroke-width:1.5"><tspan style="stroke-width:1.5" id="svg_182" x="139.5" y="546.422">レ</tspan></text><path id="svg_185" d="m 132.75001,558.17154 h 90 v 29.99999 h -90 v -11.99999 -1.5 h -9 v 4.49999 h -3 v -11.99999 h 3 v 4.5 h 9 v -1.5 z" style="fill:#ff5293;fill-opacity:1;stroke:#ff2c76;stroke-width:1.5;stroke-linecap:round;stroke-opacity:1"/><text id="svg_186" x="120" y="557.422" style="font-size:15px;font-family:sans-serif;text-anchor:start;fill:#282828;stroke-width:1.5"><tspan style="stroke-width:1.5" id="svg_187" x="139.5" y="578.422">4</tspan></text><path id="svg_190" d="m 14.750005,601.17154 0,-6 c 0,-3.31371 2.686292,-6 6,-6 l 6,0 0,3 15,0 0,-3 13.5,0 120.000005,0 6,0 c 3.31371,0 9.17396,5.04781 6,6 l 0,6 -6,0 0,-4.5 -6,0 0,14.99999 6,0 0,-4.49999 6,0 0,5.99999 c 0,3.31371 -2.68629,6 -6,6 l -6,0 -120.000005,0 -1.5,0 0,3 -12,0 0,-3 -1.5,0 -6,0 c -4.142136,0 -7.5,3.35786 -7.5,7.5 l 0,6 0,6 0,63 0,6 c 0,4.14214 3.357864,7.5 7.5,7.5 l 6,0 0,3 15,0 0,-3 12,0 0,9 0,9 0,6 c 0,3.31371 -2.686292,6 -6,6 l -6,0 -13.5,0 -1.5,0 0,3 -12,0 0,-3 -1.5,0 -6,0 c -3.313708,0 -6,-2.68629 -6,-6 l 0,-6 z" style="fill:#ff8b2d;fill-opacity:1;stroke:#e86b0e;stroke-width:1.5;stroke-linecap:round;stroke-opacity:1"/><text id="svg_191" x="14" y="588.422" style="font-size:15px;font-family:sans-serif;text-anchor:start;fill:#282828;stroke-width:1.5"><tspan style="stroke-width:1.5" id="svg_192" x="21.5" y="610.922">連符（タプル）</tspan></text><text id="svg_193" x="72" y="588.422" style="font-size:10px;font-family:sans-serif;text-anchor:end;fill:#282828;stroke-width:1.5"><tspan style="stroke-width:1.5" id="svg_194" x="169.5" y="606.422">おとの ながさ</tspan></text><g id="g3497" transform="translate(60,1.1715275)"><path style="fill:#ff5293;fill-opacity:1;stroke:#ff2c76;stroke-width:1.5;stroke-linecap:round;stroke-opacity:1" id="svg_197" d="m 128.75001,600.00001 0,-6 a 6,6 0 0 1 6,-6 l 6,0 15,0 45,0 6,0 a 6,6 0 0 1 6,6 l 0,6 -6,0 0,-4.5 -6,0 0,14.99999 6,0 0,-4.49999 6,0 0,25.49999 -6,0 0,-4.5 -6,0 0,15 6,0 0,-4.5 6,0 0,6 a 6,6 0 0 1 -6,6 l -6,0 -45,0 -15,0 -6,0 a 6,6 0 0 1 -6,-6 l 0,-6 0,-31.49999 0,-1.5 -9,0 0,4.49999 -3,0 0,-11.99999 3,0 0,4.5 9,0 z"/><text style="font-size:13.5px;font-family:sans-serif;text-anchor:end;fill:#282828;stroke-width:1.5" id="svg_198" x="116" y="587.25"><tspan id="svg_199" x="197" y="621.75" style="stroke-width:1.5">➗</tspan></text><path style="fill:#ff5293;fill-opacity:1;stroke:#ff2c76;stroke-width:1.5;stroke-linecap:round;stroke-opacity:1" id="svg_206" d="m 214.75001,588.00001 90,0 0,29.99999 -90,0 0,-11.99999 0,-1.5 -9,0 0,4.49999 -3,0 0,-11.99999 3,0 0,4.5 9,0 0,-1.5 z"/><text style="font-size:15px;font-family:sans-serif;text-anchor:start;fill:#282828;stroke-width:1.5" id="svg_207" x="202" y="587.25"><tspan id="svg_208" x="221.5" y="608.25" style="stroke-width:1.5">1</tspan></text><path style="fill:#ff5293;fill-opacity:1;stroke:#ff2c76;stroke-width:1.5;stroke-linecap:round;stroke-opacity:1" id="svg_211" d="m 214.75001,620.00001 90,0 0,29.99999 -90,0 0,-11.99999 0,-1.5 -9,0 0,4.49999 -3,0 0,-11.99999 3,0 0,4.5 9,0 0,-1.5 z"/><text style="font-size:15px;font-family:sans-serif;text-anchor:start;fill:#282828;stroke-width:1.5" id="svg_212" x="202" y="619.25"><tspan id="svg_213" x="221.5" y="640.25" style="stroke-width:1.5">4</tspan></text></g><path id="svg_216" d="m 28.750005,633.17154 0,-6 a 6,6 0 0 1 6,-6 l 6,0 0,3 15,0 0,-3 30,0 6,0 a 6,6 0 0 1 6,6 l 0,6 0,6 0,5.99999 a 6,6 0 0 1 -6,6 l -6,0 -30,0 -1.5,0 0,3 -12,0 0,-3 -1.5,0 -6,0 a 6,6 0 0 1 -6,-6 l 0,-5.99999 z" style="fill:#b0b0b0;fill-opacity:1;stroke:#a0a0a0;stroke-width:1.5;stroke-linecap:round;stroke-opacity:1"/><text id="svg_217" x="28" y="620.422" style="font-size:15px;font-family:sans-serif;text-anchor:end;fill:#282828;stroke-width:1.5"><tspan style="stroke-width:1.5" id="svg_218" x="82" y="641.422">↓</tspan></text><path id="svg_221" d="m 28.750005,665.17154 0,-6 a 6,6 0 0 1 6,-6 l 6,0 0,3 15,0 0,-3 63.000005,0 6,0 a 6,6 0 0 1 6,6 l 0,6 -6,0 0,-4.5 -6,0 0,14.99999 6,0 0,-4.49999 6,0 0,25.49999 -6,0 0,-4.5 -6,0 0,15 6,0 0,-4.5 6,0 0,6 a 6,6 0 0 1 -6,6 l -6,0 -63.000005,0 -1.5,0 0,3 -12,0 0,-3 -1.5,0 -6,0 a 6,6 0 0 1 -6,-6 l 0,-6 0,-31.49999 z" style="fill:#ff8b2d;fill-opacity:1;stroke:#e86b0e;stroke-width:1.5;stroke-linecap:round;stroke-opacity:1"/><text id="svg_222" x="28" y="652.422" style="font-size:15px;font-family:sans-serif;text-anchor:end;fill:#282828;stroke-width:1.5"><tspan style="stroke-width:1.5" id="svg_223" x="115" y="688.422">おんぷ</tspan></text><text id="svg_224" x="28" y="652.422" style="font-size:10px;font-family:sans-serif;text-anchor:end;fill:#282828;stroke-width:1.5"><tspan style="stroke-width:1.5" id="svg_225" x="115" y="670.422">おんぷの かず</tspan></text><text id="svg_226" x="28" y="652.422" style="font-size:10px;font-family:sans-serif;text-anchor:end;fill:#282828;stroke-width:1.5"><tspan style="stroke-width:1.5" id="svg_227" x="115" y="701.922">おとの ながさ</tspan></text><path id="svg_230" d="m 132.75001,653.17154 90,0 0,29.99999 -90,0 0,-11.99999 0,-1.5 -9,0 0,4.49999 -3,0 0,-11.99999 3,0 0,4.5 9,0 0,-1.5 z" style="fill:#ff5293;fill-opacity:1;stroke:#ff2c76;stroke-width:1.5;stroke-linecap:round;stroke-opacity:1"/><text id="svg_231" x="120" y="652.422" style="font-size:15px;font-family:sans-serif;text-anchor:start;fill:#282828;stroke-width:1.5"><tspan style="stroke-width:1.5" id="svg_232" x="139.5" y="673.422">3</tspan></text><path id="svg_235" d="m 132.75001,697.17154 0,-6 a 6,6 0 0 1 6,-6 l 6,0 15,0 45,0 6,0 a 6,6 0 0 1 6,6 l 0,6 -6,0 0,-4.5 -6,0 0,14.99999 6,0 0,-4.49999 6,0 0,25.49999 -6,0 0,-4.5 -6,0 0,15 6,0 0,-4.5 6,0 0,6 a 6,6 0 0 1 -6,6 l -6,0 -45,0 -15,0 -6,0 a 6,6 0 0 1 -6,-6 l 0,-6 0,-31.49999 0,-1.5 -9,0 0,4.49999 -3,0 0,-11.99999 3,0 0,4.5 9,0 z" style="fill:#ff5293;fill-opacity:1;stroke:#ff2c76;stroke-width:1.5;stroke-linecap:round;stroke-opacity:1"/><text id="svg_236" x="120" y="684.422" style="font-size:13.5px;font-family:sans-serif;text-anchor:end;fill:#282828;stroke-width:1.5"><tspan style="stroke-width:1.5" id="svg_237" x="201" y="718.922">➗</tspan></text><path id="svg_244" d="m 218.75001,685.17154 90,0 0,29.99999 -90,0 0,-11.99999 0,-1.5 -9,0 0,4.49999 -3,0 0,-11.99999 3,0 0,4.5 9,0 0,-1.5 z" style="fill:#ff5293;fill-opacity:1;stroke:#ff2c76;stroke-width:1.5;stroke-linecap:round;stroke-opacity:1"/><text id="svg_245" x="206" y="684.422" style="font-size:15px;font-family:sans-serif;text-anchor:start;fill:#282828;stroke-width:1.5"><tspan style="stroke-width:1.5" id="svg_246" x="225.5" y="705.422">1</tspan></text><path id="svg_249" d="m 218.75001,717.17154 90,0 0,29.99999 -90,0 0,-11.99999 0,-1.5 -9,0 0,4.49999 -3,0 0,-11.99999 3,0 0,4.5 9,0 0,-1.5 z" style="fill:#ff5293;fill-opacity:1;stroke:#ff2c76;stroke-width:1.5;stroke-linecap:round;stroke-opacity:1"/><text id="svg_250" x="206" y="716.422" style="font-size:15px;font-family:sans-serif;text-anchor:start;fill:#282828;stroke-width:1.5"><tspan style="stroke-width:1.5" id="svg_251" x="225.5" y="737.422">16</tspan></text></svg>