<svg xmlns="http://www.w3.org/2000/svg" xmlns:svg="http://www.w3.org/2000/svg" id="svg2" width="278.425" height="173.5" version="1.1"><metadata id="metadata50"/><rect id="backgroundrect" width="100%" height="100%" x=".75" y=".75" style="fill:none;stroke:none"/><g id="svg_15" transform="translate(0.750005,0.750005)"><g id="svg_16" transform="matrix(1.5,0,0,1.5,309,229)"><path style="fill:#daa926;fill-opacity:1;stroke:#daaf30;stroke-width:1;stroke-linecap:round;stroke-opacity:1" id="svg_17" d="m -204.66667,-144.66667 v -4 a 4,4 90 0 1 4,-4 h 4 v 2 h 10 v -2 h 34 4 a 4,4 90 0 1 4,4 v 4 h -4 v -3 h -4 v 10 h 4 v -3 h 4 v 17 h -4 v -3 h -4 v 10 h 4 v -3 h 4 v 4 a 4,4 90 0 1 -4,4 h -4 -34 -1 v 2 h -8 v -2 h -1 -4 a 4,4 90 0 1 -4,-4 v -4 -21 z"/><text style="font-size:10px;font-family:sans-serif;text-anchor:end;fill:#282828" id="svg_18" x="-205.167" y="-153.167"><tspan id="svg_19" x="-155.167" y="-129.167">いれる</tspan></text><text style="font-size:6.66666651px;font-family:sans-serif;text-anchor:end;fill:#282828" id="svg_20" x="-205.167" y="-153.167"><tspan id="svg_21" x="-155.167" y="-141.167">はこへ</tspan></text><text style="font-size:6.66666651px;font-family:sans-serif;text-anchor:end;fill:#282828" id="svg_22" x="-205.167" y="-153.167"><tspan id="svg_23" x="-155.167" y="-120.167">すうち</tspan></text></g></g><g id="svg_24" transform="translate(0.750005,0.750005)"><g id="svg_25" transform="matrix(1.5,0,0,1.5,389,229)"><path style="fill:#ff5942;fill-opacity:1;stroke:#ea4326;stroke-width:1;stroke-linecap:round;stroke-opacity:1" id="svg_26" d="m -196.66667,-152.66667 h 90 v 20 h -90 v -8 -1 h -6 v 3 h -2 v -8 h 2 v 3 h 6 v -1 z"/><text style="font-size:10px;font-family:sans-serif;text-anchor:start;fill:#282828" id="svg_27" x="-205.167" y="-153.167"><tspan id="svg_28" x="-192.167" y="-139.167">はこ</tspan></text></g></g><g id="svg_29" transform="translate(0.750005,0.750005)"><g id="svg_30" transform="matrix(1.5,0,0,1.5,389,261)"><path style="fill:#ff5293;fill-opacity:1;stroke:#ff2c76;stroke-width:1;stroke-linecap:round;stroke-opacity:1" id="svg_31" d="m -196.66667,-152.66667 h 60 v 20 h -60 v -8 -1 h -6 v 3 h -2 v -8 h 2 v 3 h 6 v -1 z"/><text style="font-size:10px;font-family:sans-serif;text-anchor:start;fill:#282828" id="svg_32" x="-205.167" y="-153.167"><tspan id="svg_33" x="-192.167" y="-139.167">4</tspan></text></g></g><g id="svg_34" transform="translate(0.750005,0.750005)"><g id="svg_35" transform="matrix(1.5,0,0,1.5,307,316)"><path style="fill:#daa926;fill-opacity:1;stroke:#daaf30;stroke-width:1;stroke-linecap:round;stroke-opacity:1" id="svg_36" d="m -196.66667,-152.66667 h 90 v 20 h -90 v -8 -1 h -6 v 3 h -2 v -8 h 2 v 3 h 6 v -1 z"/><text style="font-size:10px;font-family:sans-serif;text-anchor:start;fill:#282828" id="svg_37" x="-205.167" y="-153.167"><tspan id="svg_38" x="-192.167" y="-139.167">はこ</tspan></text></g></g><g id="svg_39" transform="translate(40.674913,0.750005)"><g id="svg_40" transform="matrix(1.5,0,0,1.5,310,368)"><path style="fill:#daa926;fill-opacity:1;stroke:#daaf30;stroke-width:1;stroke-linecap:round;stroke-opacity:1" id="svg_41" d="m -232.66667,-144.66667 v -4 c 0,-2.20914 1.79086,-4 4,-4 h 4 v 2 h 10 v -2 h 67 4 c 2.20914,0 4,1.79086 4,4 v 4 h -4 v -3 h -4 v 10 h 4 v -3 h 4 v 4 c 0,2.20914 -1.79086,4 -4,4 h -4 -67 -1 v 2 h -8 v -2 h -1 -4 c -2.20914,0 -4.69859,-1.90422 -4,-4 v -4 z"/><text style="font-size:10px;font-family:sans-serif;text-anchor:end;fill:#282828" id="svg_42" x="-205.167" y="-153.167"><tspan id="svg_43" x="-150.167" y="-139.167">はこに １を たす</tspan></text></g></g><g id="svg_46" transform="translate(40.674913,0.750005)"><g id="svg_47" transform="matrix(1.5,0,0,1.5,397,368)"><path style="fill:#daa926;fill-opacity:1;stroke:#daaf30;stroke-width:1;stroke-linecap:round;stroke-opacity:1" id="svg_48" d="m -196.66667,-152.66667 h 90 v 20 h -90 v -8 -1 h -6 v 3 h -2 v -8 h 2 v 3 h 6 v -1 z"/><text style="font-size:10px;font-family:sans-serif;text-anchor:start;fill:#282828" id="svg_49" x="-205.167" y="-153.167"><tspan id="svg_50" x="-192.167" y="-139.167">はこ</tspan></text></g></g></svg>