<svg xmlns="http://www.w3.org/2000/svg" xmlns:svg="http://www.w3.org/2000/svg" id="svg11666" width="423.241" height="176.343" version="1.1" viewBox="0 0 111.982 46.657"><metadata id="metadata11663"/><g id="g4596" transform="matrix(0.26458333,0,0,0.26458333,-173.56666,-547.93624)"><g id="g4576" transform="translate(656,2071.3617)"><g id="g4574" transform="scale(1.5)"><path style="fill:#77c428;fill-opacity:1;stroke:#57ad02;stroke-width:1;stroke-linecap:round;stroke-opacity:1" id="path4568" d="m 0.5,14.5 v -4 a 4,4 90 0 1 4,-4 h 4 l 5,-6 5,6 h 9 60 4 a 4,4 90 0 1 4,4 v 4 4 4 a 4,4 90 0 1 -4,4 h -4 -60 -1 v 2 h -8 v -2 h -1 -4 a 5,5 90 0 0 -5,5 v 4 4 42 4 a 5,5 90 0 0 5,5 h 4 v 2 h 10 v -2 h 8 v 6 6 4 a 4,4 90 0 1 -4,4 h -4 -9 l -5,6 -5,-6 h -4 a 4,4 90 0 1 -4,-4 v -4 z"/><text style="font-size:10px;font-family:sans-serif;text-anchor:start;fill:#282828" id="text4572"><tspan id="tspan4570" x="20" y="22">メトロノーム</tspan></text></g></g><g id="g4594" transform="matrix(0.5,0,0,0.5,656,2083.3617)"><g style="isolation:isolate" id="g4592"><g id="g4590" data-name="レイヤー 2"><g id="g4588"><rect style="opacity:.4;mix-blend-mode:multiply;fill:#292929" id="rect4578" width="42" height="42" x="0" y="0" rx="5" ry="5"/><path style="fill:#fff" id="path4580" d="m 30.56,29.8 -4.17,-4.16 h 2.26 a 1.035,1.035 0 1 0 0,-2.07 h -4.71 a 1.08,1.08 0 0 0 -1.11,1 v 0 c 0,0 0,0 0,0.06 v 4.64 0 a 1.04,1.04 0 1 0 2.08,0 v -2.19 l 4.19,4.19 a 1,1 0 0 0 1.46,0 1,1 0 0 0 0,-1.47 z"/><path style="fill:#fff" id="path4582" d="m 19.17,24.6 a 1.08,1.08 0 0 0 -1.11,-1 h -4.71 a 1.035,1.035 0 1 0 0,2.07 h 2.25 l -4.16,4.13 a 1.039447,1.039447 0 0 0 1.47,1.47 l 4.18,-4.19 v 2.26 a 1.04,1.04 0 1 0 2.08,0 V 24.7 c 0,0 0,0 0,-0.06 a 0.08,0.08 0 0 1 0,-0.04 z"/><path style="fill:#fff" id="path4584" d="m 23.94,20.5 h 4.7 a 1.04,1.04 0 1 0 0,-2.08 h -2.25 l 4.17,-4.16 a 1,1 0 0 0 0,-1.47 1,1 0 0 0 -1.46,0 L 24.91,17 v -2.28 a 1.04,1.04 0 1 0 -2.08,0 v 4.64 a 0.43,0.43 0 0 0 0,0.05 v 0.05 a 1.09,1.09 0 0 0 1.11,1.04 z"/><path style="fill:#fff" id="path4586" d="m 18.13,13.62 a 1.08,1.08 0 0 0 -1,1.09 V 17 l -4.18,-4.19 a 1,1 0 0 0 -1.47,0 1,1 0 0 0 0,1.46 l 4.16,4.17 h -2.29 a 1.04,1.04 0 1 0 0,2.08 h 4.71 a 1.09,1.09 0 0 0 1.11,-1 c 0,0 0,0 0,-0.06 v -4.75 a 1.07,1.07 0 0 0 -1.04,-1.09 z"/></g></g></g></g></g><g id="g4614" transform="matrix(0.26458333,0,0,0.26458333,5.6885417,10.827157)"><g id="g4612" transform="scale(1.5)"><path style="fill:#ff8b2d;fill-opacity:1;stroke:#e86b0e;stroke-width:1;stroke-linecap:round;stroke-opacity:1" id="path4598" d="m -4.8333334,8.5 v -4 c 0,-2.209139 1.790861,-4 4.00000003,-4 H 3.1666666 v 2 H 13.166667 v -2 h 128.160483 4 c 2.20914,0 4,1.790861 4,4 v 4 h -4 v -3 h -4 v 10 h 4 v -3 h 4 v 17 h -4 v -3 h -4 v 10 h 4 v -3 h 4 v 4 c 0,2.209139 -1.79086,4 -4,4 h -4 -128.160483 -1 v 2 H 4.1666666 v -2 h -1 -3.99999997 c -2.20913903,0 -4.69859113,-1.904227 -4.00000003,-4 v -4 -21 z"/><text style="font-size:10px;font-family:sans-serif;text-anchor:end;fill:#282828" id="text4602"><tspan id="tspan4600" x="139" y="24">ぜんたいの スピードを きめる</tspan></text><text style="font-size:6.66666651px;font-family:sans-serif;text-anchor:end;fill:#282828" id="text4606"><tspan id="tspan4604" x="139" y="12">１ぷんあたりの はくのかず</tspan></text><text style="font-size:6.66666651px;font-family:sans-serif;text-anchor:end;fill:#282828" id="text4610"><tspan id="tspan4608" x="139" y="33">１泊</tspan></text></g></g><g id="g4624" transform="matrix(0.26458333,0,0,0.26458333,61.976192,10.827157)"><g id="g4622" transform="scale(1.5)"><path style="fill:#ff5293;fill-opacity:1;stroke:#ff2c76;stroke-width:1;stroke-linecap:round;stroke-opacity:1" id="path4616" d="m 8.5,0.5 h 60 v 20 h -60 v -8 -1 h -6 v 3 h -2 v -8 h 2 v 3 h 6 v -1 z"/><text style="font-size:10px;font-family:sans-serif;text-anchor:start;fill:#282828" id="text4620"><tspan id="tspan4618" x="13" y="14">90</tspan></text></g></g><g id="g4642" transform="matrix(0.26458333,0,0,0.26458333,61.976192,19.161532)"><g id="g4640" transform="scale(1.5)"><path style="fill:#ff5293;fill-opacity:1;stroke:#ff2c76;stroke-width:1;stroke-linecap:round;stroke-opacity:1" id="path4626" d="m 8.5,8.5 v -4 a 4,4 90 0 1 4,-4 h 4 10 30 4 a 4,4 90 0 1 4,4 v 4 h -4 v -3 h -4 v 10 h 4 v -3 h 4 v 17 h -4 v -3 h -4 v 10 h 4 v -3 h 4 v 4 a 4,4 90 0 1 -4,4 h -4 -30 -10 -4 a 4,4 90 0 1 -4,-4 v -4 -21 -1 h -6 v 3 h -2 v -8 h 2 v 3 h 6 z"/><text style="font-size:9px;font-family:sans-serif;text-anchor:end;fill:#282828" id="text4630"><tspan id="tspan4628" x="54" y="23">➗</tspan></text></g></g><g id="g4652" transform="matrix(0.26458333,0,0,0.26458333,84.598066,19.161532)"><g id="g4650" transform="scale(1.5)"><path style="fill:#ff5293;fill-opacity:1;stroke:#ff2c76;stroke-width:1;stroke-linecap:round;stroke-opacity:1" id="path4644" d="m 8.5,0.5 h 60 v 20 h -60 v -8 -1 h -6 v 3 h -2 v -8 h 2 v 3 h 6 v -1 z"/><text style="font-size:10px;font-family:sans-serif;text-anchor:start;fill:#282828" id="text4648"><tspan id="tspan4646" x="13" y="14">1</tspan></text></g></g><g id="g4662" transform="matrix(0.26458333,0,0,0.26458333,84.598066,27.495907)"><g id="g4660" transform="scale(1.5)"><path style="fill:#ff5293;fill-opacity:1;stroke:#ff2c76;stroke-width:1;stroke-linecap:round;stroke-opacity:1" id="path4654" d="m 8.5,0.5 h 60 v 20 h -60 v -8 -1 h -6 v 3 h -2 v -8 h 2 v 3 h 6 v -1 z"/><text style="font-size:10px;font-family:sans-serif;text-anchor:start;fill:#282828" id="text4658"><tspan id="tspan4656" x="13" y="14">4</tspan></text></g></g><g id="g4672" transform="matrix(0.26458333,0,0,0.26458333,3.5718749,27.495907)"><g id="g4670" transform="scale(1.5)"><path style="fill:#b0b0b0;fill-opacity:1;stroke:#a0a0a0;stroke-width:1;stroke-linecap:round;stroke-opacity:1" id="path4664" d="m 0.5,8.5 v -4 a 4,4 90 0 1 4,-4 h 4 v 2 h 10 v -2 h 20 4 a 4,4 90 0 1 4,4 v 4 4 4 a 4,4 90 0 1 -4,4 h -4 -20 -1 v 2 h -8 v -2 h -1 -4 a 4,4 90 0 1 -4,-4 v -4 z"/><text style="font-size:10px;font-family:sans-serif;text-anchor:end;fill:#282828" id="text4668"><tspan id="tspan4666" x="36" y="14">↓</tspan></text></g></g></svg>