<svg xmlns="http://www.w3.org/2000/svg" xmlns:svg="http://www.w3.org/2000/svg" id="svg11666" width="334.5" height="286.5" version="1.1" viewBox="0 0 88.503 75.803"><metadata id="metadata11663"/><g id="g1908" transform="matrix(0.26458333,0,0,0.26458333,19.055824,-1.71e-6)"><g id="g1906" transform="scale(1.5,1.5)"><path id="path1900" d="m 8.5,0.5 60,0 0,20 -60,0 0,-8 0,-1 -6,0 0,3 -2,0 0,-8 2,0 0,3 6,0 0,-1 z" style="fill:#ff5293;fill-opacity:1;stroke:#ff2c76;stroke-width:1;stroke-linecap:round;stroke-opacity:1"/><text id="text1904" style="font-size:10px;font-family:sans-serif;text-anchor:start;fill:#282828"><tspan id="tspan1902" x="13" y="14">5</tspan></text></g></g><g id="g1898" transform="matrix(0.26458333,0,0,0.26458333,3.33e-6,-1.71e-6)"><g id="g1896" transform="scale(1.5,1.5)"><path id="path1882" d="m 0.5,8.5 0,-4 a 4,4 90 0 1 4,-4 l 4,0 0,2 10,0 0,-2 9,0 20.014648,0 4,0 a 4,4 90 0 1 4,4 l 0,4 -4,0 0,-3 -4,0 0,10 4,0 0,-3 4,0 0,17 -4,0 0,-3 -4,0 0,10 4,0 0,-3 4,0 0,4 a 4,4 90 0 1 -4,4 l -4,0 -20.014648,0 -1,0 0,2 -8,0 0,-2 -1,0 -4,0 a 5,5 90 0 0 -5,5 l 0,4 0,4 0,105 0,4 a 5,5 90 0 0 5,5 l 4,0 0,2 10,0 0,-2 8,0 0,6 0,6 0,4 a 4,4 90 0 1 -4,4 l -4,0 -9,0 -1,0 0,2 -8,0 0,-2 -1,0 -4,0 a 4,4 90 0 1 -4,-4 l 0,-4 z" style="fill:#25c3c0;fill-opacity:1;stroke:#1dbcbd;stroke-width:1;stroke-linecap:round;stroke-opacity:1"/><text id="text1886" style="font-size:10px;font-family:sans-serif;text-anchor:start;fill:#282828"><tspan id="tspan1884" x="5" y="22">ビブラート</tspan></text><text id="text1890" style="font-size:6.66666651px;font-family:sans-serif;text-anchor:end;fill:#282828"><tspan id="tspan1888" x="45" y="12">おおきさ</tspan></text><text id="text1894" style="font-size:6.66666651px;font-family:sans-serif;text-anchor:end;fill:#282828"><tspan id="tspan1892" x="45" y="33">はやさ</tspan></text></g></g><g id="g1918" transform="matrix(0.26458333,0,0,0.26458333,3.5718783,16.668748)"><g id="g1916" transform="scale(1.5,1.5)"><path id="path1910" d="m 0.5,8.5 0,-4 a 4,4 90 0 1 4,-4 l 4,0 0,2 10,0 0,-2 20,0 4,0 a 4,4 90 0 1 4,4 l 0,4 0,4 0,4 a 4,4 90 0 1 -4,4 l -4,0 -20,0 -1,0 0,2 -8,0 0,-2 -1,0 -4,0 a 4,4 90 0 1 -4,-4 l 0,-4 z" style="fill:#b0b0b0;fill-opacity:1;stroke:#a0a0a0;stroke-width:1;stroke-linecap:round;stroke-opacity:1"/><text id="text1914" style="font-size:10px;font-family:sans-serif;text-anchor:end;fill:#282828"><tspan id="tspan1912" x="36" y="14">↓</tspan></text></g></g><g id="g1936" transform="matrix(0.26458333,0,0,0.26458333,19.055824,8.3343732)"><g id="g1934" transform="scale(1.5,1.5)"><path id="path1920" d="m 8.5,8.5 0,-4 a 4,4 90 0 1 4,-4 l 4,0 10,0 30,0 4,0 a 4,4 90 0 1 4,4 l 0,4 -4,0 0,-3 -4,0 0,10 4,0 0,-3 4,0 0,17 -4,0 0,-3 -4,0 0,10 4,0 0,-3 4,0 0,4 a 4,4 90 0 1 -4,4 l -4,0 -30,0 -10,0 -4,0 a 4,4 90 0 1 -4,-4 l 0,-4 0,-21 0,-1 -6,0 0,3 -2,0 0,-8 2,0 0,3 6,0 z" style="fill:#ff5293;fill-opacity:1;stroke:#ff2c76;stroke-width:1;stroke-linecap:round;stroke-opacity:1"/><text id="text1924" style="font-size:9px;font-family:sans-serif;text-anchor:end;fill:#282828"><tspan id="tspan1922" x="54" y="23">➗</tspan></text></g></g><g id="g1946" transform="matrix(0.26458333,0,0,0.26458333,41.677699,8.3343732)"><g id="g1944" transform="scale(1.5,1.5)"><path id="path1938" d="m 8.5,0.5 60,0 0,20 -60,0 0,-8 0,-1 -6,0 0,3 -2,0 0,-8 2,0 0,3 6,0 0,-1 z" style="fill:#ff5293;fill-opacity:1;stroke:#ff2c76;stroke-width:1;stroke-linecap:round;stroke-opacity:1"/><text id="text1942" style="font-size:10px;font-family:sans-serif;text-anchor:start;fill:#282828"><tspan id="tspan1940" x="13" y="14">1</tspan></text></g></g><g id="g1956" transform="matrix(0.26458333,0,0,0.26458333,41.677699,16.668748)"><g id="g1954" transform="scale(1.5,1.5)"><path id="path1948" d="m 8.5,0.5 60,0 0,20 -60,0 0,-8 0,-1 -6,0 0,3 -2,0 0,-8 2,0 0,3 6,0 0,-1 z" style="fill:#ff5293;fill-opacity:1;stroke:#ff2c76;stroke-width:1;stroke-linecap:round;stroke-opacity:1"/><text id="text1952" style="font-size:10px;font-family:sans-serif;text-anchor:start;fill:#282828"><tspan id="tspan1950" x="13" y="14">16</tspan></text></g></g><g id="g1990" transform="matrix(0.26458333,0,0,0.26458333,-264.84791,-135.73125)"><g id="g1970" transform="translate(1014.5,607.5)"><g id="g1968" transform="scale(1.5,1.5)"><path id="path1958" d="m 0.5,8.5 0,-4 a 4,4 90 0 1 4,-4 l 4,0 0,2 10,0 0,-2 9,0 60,0 4,0 a 4,4 90 0 1 4,4 l 0,4 -4,0 0,-3 -4,0 0,10 4,0 0,-3 4,0 0,4 a 4,4 90 0 1 -4,4 l -4,0 -60,0 -1,0 0,2 -8,0 0,-2 -1,0 -4,0 a 5,5 90 0 0 -5,5 l 0,4 0,4 0,42 0,4 a 5,5 90 0 0 5,5 l 4,0 0,2 10,0 0,-2 8,0 0,6 0,6 0,4 a 4,4 90 0 1 -4,4 l -4,0 -9,0 -1,0 0,2 -8,0 0,-2 -1,0 -4,0 a 4,4 90 0 1 -4,-4 l 0,-4 z" style="fill:#ff8b2d;fill-opacity:1;stroke:#e86b0e;stroke-width:1;stroke-linecap:round;stroke-opacity:1"/><text id="text1962" style="font-size:10px;font-family:sans-serif;text-anchor:start;fill:#282828"><tspan id="tspan1960" x="20" y="15">おんぷ</tspan></text><text id="text1966" style="font-size:6.66666651px;font-family:sans-serif;text-anchor:end;fill:#282828"><tspan id="tspan1964" x="85" y="12">ながさ</tspan></text></g></g><g id="g1988" transform="matrix(0.5,0,0,0.5,1014.5,611.5)"><g id="g1986" style="isolation:isolate"><g id="g1984" data-name="レイヤー 2"><g id="g1982"><rect id="rect1972" width="42" height="42" x="0" y="0" rx="5" ry="5" style="opacity:.4;mix-blend-mode:multiply;fill:#292929"/><path id="path1974" d="m 30.56,29.8 -4.17,-4.16 2.26,0 a 1.035,1.035 0 1 0 0,-2.07 l -4.71,0 a 1.08,1.08 0 0 0 -1.11,1 l 0,0 c 0,0 0,0 0,0.06 l 0,4.64 0,0 a 1.04,1.04 0 1 0 2.08,0 l 0,-2.19 4.19,4.19 a 1,1 0 0 0 1.46,0 1,1 0 0 0 0,-1.47 z" style="fill:#fff"/><path id="path1976" d="m 19.17,24.6 a 1.08,1.08 0 0 0 -1.11,-1 l -4.71,0 a 1.035,1.035 0 1 0 0,2.07 l 2.25,0 -4.16,4.13 a 1.039447,1.039447 0 0 0 1.47,1.47 l 4.18,-4.19 0,2.26 a 1.04,1.04 0 1 0 2.08,0 l 0,-4.64 c 0,0 0,0 0,-0.06 a 0.08,0.08 0 0 1 0,-0.04 z" style="fill:#fff"/><path id="path1978" d="m 23.94,20.5 4.7,0 a 1.04,1.04 0 1 0 0,-2.08 l -2.25,0 4.17,-4.16 a 1,1 0 0 0 0,-1.47 1,1 0 0 0 -1.46,0 l -4.19,4.21 0,-2.28 a 1.04,1.04 0 1 0 -2.08,0 l 0,4.64 a 0.43,0.43 0 0 0 0,0.05 l 0,0.05 a 1.09,1.09 0 0 0 1.11,1.04 z" style="fill:#fff"/><path id="path1980" d="m 18.13,13.62 a 1.08,1.08 0 0 0 -1,1.09 l 0,2.29 -4.18,-4.19 a 1,1 0 0 0 -1.47,0 1,1 0 0 0 0,1.46 l 4.16,4.17 -2.29,0 a 1.04,1.04 0 1 0 0,2.08 l 4.71,0 a 1.09,1.09 0 0 0 1.11,-1 c 0,0 0,0 0,-0.06 l 0,-4.75 a 1.07,1.07 0 0 0 -1.04,-1.09 z" style="fill:#fff"/></g></g></g></g></g><g id="g2008" transform="matrix(0.26458333,0,0,0.26458333,38.496878,25.003123)"><g id="g2006" transform="scale(1.5,1.5)"><path id="path1992" d="m 8.5,8.5 0,-4 a 4,4 90 0 1 4,-4 l 4,0 10,0 30,0 4,0 a 4,4 90 0 1 4,4 l 0,4 -4,0 0,-3 -4,0 0,10 4,0 0,-3 4,0 0,17 -4,0 0,-3 -4,0 0,10 4,0 0,-3 4,0 0,4 a 4,4 90 0 1 -4,4 l -4,0 -30,0 -10,0 -4,0 a 4,4 90 0 1 -4,-4 l 0,-4 0,-21 0,-1 -6,0 0,3 -2,0 0,-8 2,0 0,3 6,0 z" style="fill:#ff5293;fill-opacity:1;stroke:#ff2c76;stroke-width:1;stroke-linecap:round;stroke-opacity:1"/><text id="text1996" style="font-size:9px;font-family:sans-serif;text-anchor:end;fill:#282828"><tspan id="tspan1994" x="54" y="23">➗</tspan></text></g></g><g id="g2018" transform="matrix(0.26458333,0,0,0.26458333,61.118753,25.003123)"><g id="g2016" transform="scale(1.5,1.5)"><path id="path2010" d="m 8.5,0.5 60,0 0,20 -60,0 0,-8 0,-1 -6,0 0,3 -2,0 0,-8 2,0 0,3 6,0 0,-1 z" style="fill:#ff5293;fill-opacity:1;stroke:#ff2c76;stroke-width:1;stroke-linecap:round;stroke-opacity:1"/><text id="text2014" style="font-size:10px;font-family:sans-serif;text-anchor:start;fill:#282828"><tspan id="tspan2012" x="13" y="14">1</tspan></text></g></g><g id="g2028" transform="matrix(0.26458333,0,0,0.26458333,61.118753,33.337498)"><g id="g2026" transform="scale(1.5,1.5)"><path id="path2020" d="m 8.5,0.5 60,0 0,20 -60,0 0,-8 0,-1 -6,0 0,3 -2,0 0,-8 2,0 0,3 6,0 0,-1 z" style="fill:#ff5293;fill-opacity:1;stroke:#ff2c76;stroke-width:1;stroke-linecap:round;stroke-opacity:1"/><text id="text2024" style="font-size:10px;font-family:sans-serif;text-anchor:start;fill:#282828"><tspan id="tspan2022" x="13" y="14">4</tspan></text></g></g><g id="g2038" transform="matrix(0.26458333,0,0,0.26458333,7.1437532,33.337498)"><g id="g2036" transform="scale(1.5,1.5)"><path id="path2030" d="m 0.5,8.5 0,-4 a 4,4 90 0 1 4,-4 l 4,0 0,2 10,0 0,-2 20,0 4,0 a 4,4 90 0 1 4,4 l 0,4 0,4 0,4 a 4,4 90 0 1 -4,4 l -4,0 -20,0 -1,0 0,2 -8,0 0,-2 -1,0 -4,0 a 4,4 90 0 1 -4,-4 l 0,-4 z" style="fill:#b0b0b0;fill-opacity:1;stroke:#a0a0a0;stroke-width:1;stroke-linecap:round;stroke-opacity:1"/><text id="text2034" style="font-size:10px;font-family:sans-serif;text-anchor:end;fill:#282828"><tspan id="tspan2032" x="36" y="14">↓</tspan></text></g></g><g id="g2056" transform="matrix(0.26458333,0,0,0.26458333,15.9632,41.671873)"><g id="g2054" transform="scale(1.5)"><path id="path2040" d="m -21.722224,8.5 v -4 c 0,-2.209139 1.790861,-4 3.999999,-4 h 4 v 2 h 10.0000001 v -2 H 48.5 h 4 c 2.209139,0 4,1.790861 4,4 v 4 h -4 v -3 h -4 v 10 h 4 v -3 h 4 v 17 h -4 v -3 h -4 v 10 h 4 v -3 h 4 v 4 c 0,2.209139 -1.790861,4 -4,4 h -4 -52.2222249 -1 v 2 h -8.0000001 v -2 h -1 -4 c -2.209138,0 -4.698591,-1.904227 -3.999999,-4 v -4 -21 z" style="fill:#77c428;fill-opacity:1;stroke:#57ad02;stroke-width:1;stroke-linecap:round;stroke-opacity:1"/><text id="text2044" style="font-size:10px;font-family:sans-serif;text-anchor:end;fill:#282828"><tspan id="tspan2042" x="46" y="24">おとの たかさ</tspan></text><text id="text2048" style="font-size:6.66666651px;font-family:sans-serif;text-anchor:end;fill:#282828"><tspan id="tspan2046" x="46" y="12">なまえ</tspan></text><text id="text2052" style="font-size:6.66666651px;font-family:sans-serif;text-anchor:end;fill:#282828"><tspan id="tspan2050" x="46" y="33">オクターヴの たかさ</tspan></text></g></g><g id="g2066" transform="matrix(0.26458333,0,0,0.26458333,35.410075,41.671873)"><g id="g2064" transform="scale(1.5)"><path id="path2058" d="m 8.5,0.5 h 60 v 20 h -60 v -8 -1 h -6 v 3 h -2 v -8 h 2 v 3 h 6 v -1 z" style="fill:#77c428;fill-opacity:1;stroke:#57ad02;stroke-width:1;stroke-linecap:round;stroke-opacity:1"/><text id="text2062" style="font-size:10px;font-family:sans-serif;text-anchor:start;fill:#282828"><tspan id="tspan2060" x="13" y="14">ソ</tspan></text></g></g><g id="g2076" transform="matrix(0.26458333,0,0,0.26458333,35.410075,50.006248)"><g id="g2074" transform="scale(1.5)"><path id="path2068" d="m 8.5,0.5 h 60 v 20 h -60 v -8 -1 h -6 v 3 h -2 v -8 h 2 v 3 h 6 v -1 z" style="fill:#ff5293;fill-opacity:1;stroke:#ff2c76;stroke-width:1;stroke-linecap:round;stroke-opacity:1"/><text id="text2072" style="font-size:10px;font-family:sans-serif;text-anchor:start;fill:#282828"><tspan id="tspan2070" x="13" y="14">4</tspan></text></g></g></svg>